%TF.GenerationSoftware,KiCad,Pcbnew,5.1.6-c6e7f7d~86~ubuntu18.04.1*%
%TF.CreationDate,2020-06-11T22:46:26+02:00*%
%TF.ProjectId,BikeCommunicator,42696b65-436f-46d6-9d75-6e696361746f,rev?*%
%TF.SameCoordinates,Original*%
%TF.FileFunction,Soldermask,Top*%
%TF.FilePolarity,Negative*%
%FSLAX46Y46*%
G04 Gerber Fmt 4.6, Leading zero omitted, Abs format (unit mm)*
G04 Created by KiCad (PCBNEW 5.1.6-c6e7f7d~86~ubuntu18.04.1) date 2020-06-11 22:46:26*
%MOMM*%
%LPD*%
G01*
G04 APERTURE LIST*
%ADD10C,1.600000*%
%ADD11R,3.600000X3.600000*%
%ADD12C,0.900000*%
%ADD13C,6.500000*%
%ADD14O,1.900000X1.900000*%
%ADD15R,1.900000X1.900000*%
%ADD16C,2.599360*%
%ADD17R,2.599360X2.599360*%
%ADD18C,1.500000*%
%ADD19R,1.500000X1.500000*%
%ADD20O,1.300000X2.000000*%
%ADD21C,1.550000*%
%ADD22C,1.624000*%
%ADD23C,1.800000*%
%ADD24C,4.100000*%
%ADD25C,2.300000*%
%ADD26O,1.700000X1.700000*%
%ADD27C,1.700000*%
G04 APERTURE END LIST*
D10*
%TO.C,U2*%
X133270000Y-86762000D03*
X130730000Y-86762000D03*
X121890000Y-70252000D03*
X142110000Y-70252000D03*
X121890000Y-72792000D03*
X142110000Y-72792000D03*
X121890000Y-75332000D03*
X142110000Y-75332000D03*
X121890000Y-77872000D03*
X142110000Y-77872000D03*
X121890000Y-80412000D03*
X142110000Y-80412000D03*
X121890000Y-82952000D03*
X142110000Y-82952000D03*
X121890000Y-85492000D03*
X142110000Y-85492000D03*
X121890000Y-88032000D03*
X142110000Y-88032000D03*
X121890000Y-90572000D03*
X142110000Y-90572000D03*
X121890000Y-93112000D03*
X142110000Y-93112000D03*
X121890000Y-95652000D03*
X142110000Y-95652000D03*
%TD*%
D11*
%TO.C,J1*%
X116300000Y-111500000D03*
X121000000Y-114500000D03*
X121000000Y-108500000D03*
%TD*%
D12*
%TO.C,H4*%
X146697056Y-113302944D03*
X145000000Y-112600000D03*
X143302944Y-113302944D03*
X142600000Y-115000000D03*
X143302944Y-116697056D03*
X145000000Y-117400000D03*
X146697056Y-116697056D03*
X147400000Y-115000000D03*
D13*
X145000000Y-115000000D03*
%TD*%
D12*
%TO.C,H3*%
X96697056Y-113302944D03*
X95000000Y-112600000D03*
X93302944Y-113302944D03*
X92600000Y-115000000D03*
X93302944Y-116697056D03*
X95000000Y-117400000D03*
X96697056Y-116697056D03*
X97400000Y-115000000D03*
D13*
X95000000Y-115000000D03*
%TD*%
D12*
%TO.C,H2*%
X146697056Y-63302944D03*
X145000000Y-62600000D03*
X143302944Y-63302944D03*
X142600000Y-65000000D03*
X143302944Y-66697056D03*
X145000000Y-67400000D03*
X146697056Y-66697056D03*
X147400000Y-65000000D03*
D13*
X145000000Y-65000000D03*
%TD*%
D12*
%TO.C,H1*%
X96697056Y-63302944D03*
X95000000Y-62600000D03*
X93302944Y-63302944D03*
X92600000Y-65000000D03*
X93302944Y-66697056D03*
X95000000Y-67400000D03*
X96697056Y-66697056D03*
X97400000Y-65000000D03*
D13*
X95000000Y-65000000D03*
%TD*%
D14*
%TO.C,D2*%
X146062700Y-109664500D03*
D15*
X146062700Y-102044500D03*
%TD*%
D16*
%TO.C,BT1*%
X121221500Y-62865000D03*
D17*
X117411500Y-62865000D03*
%TD*%
D16*
%TO.C,J4*%
X136664700Y-67475100D03*
D17*
X132854700Y-67475100D03*
%TD*%
D16*
%TO.C,J3*%
X139382500Y-111252000D03*
X135572500Y-111252000D03*
X131762500Y-111252000D03*
D17*
X127952500Y-111252000D03*
%TD*%
D18*
%TO.C,SW5*%
X109013000Y-62740000D03*
X106513000Y-62740000D03*
X104013000Y-62740000D03*
X109013000Y-66040000D03*
X106513000Y-66040000D03*
D19*
X104013000Y-66040000D03*
%TD*%
D20*
%TO.C,J2*%
X133500000Y-118350000D03*
X140500000Y-118350000D03*
D21*
X134500000Y-115650000D03*
X139500000Y-115650000D03*
%TD*%
D14*
%TO.C,D1*%
X118808500Y-104965500D03*
D15*
X118808500Y-97345500D03*
%TD*%
D22*
%TO.C,SW4*%
X131730000Y-108080000D03*
X134270000Y-108080000D03*
D23*
X138080000Y-103000000D03*
X127920000Y-103000000D03*
D24*
X133000000Y-103000000D03*
D25*
X129190000Y-100460000D03*
X135540000Y-97920000D03*
%TD*%
D22*
%TO.C,SW3*%
X105730000Y-108080000D03*
X108270000Y-108080000D03*
D23*
X112080000Y-103000000D03*
X101920000Y-103000000D03*
D24*
X107000000Y-103000000D03*
D25*
X103190000Y-100460000D03*
X109540000Y-97920000D03*
%TD*%
D22*
%TO.C,SW2*%
X131730000Y-82080000D03*
X134270000Y-82080000D03*
D23*
X138080000Y-77000000D03*
X127920000Y-77000000D03*
D24*
X133000000Y-77000000D03*
D25*
X129190000Y-74460000D03*
X135540000Y-71920000D03*
%TD*%
D22*
%TO.C,SW1*%
X105730000Y-82080000D03*
X108270000Y-82080000D03*
D23*
X112080000Y-77000000D03*
X101920000Y-77000000D03*
D24*
X107000000Y-77000000D03*
D25*
X103190000Y-74460000D03*
X109540000Y-71920000D03*
%TD*%
D22*
%TO.C,U1*%
X94946500Y-105434500D03*
X92406500Y-105434500D03*
X109371500Y-88419500D03*
X106831500Y-88419500D03*
X104291500Y-88419500D03*
%TD*%
D26*
%TO.C,R8*%
X124206000Y-100457000D03*
D27*
X124206000Y-92837000D03*
%TD*%
D26*
%TO.C,R7*%
X98171000Y-100457000D03*
D27*
X98171000Y-92837000D03*
%TD*%
D26*
%TO.C,R6*%
X130746500Y-89408000D03*
D27*
X138366500Y-89408000D03*
%TD*%
D26*
%TO.C,R5*%
X113157000Y-111823500D03*
D27*
X105537000Y-111823500D03*
%TD*%
D26*
%TO.C,R4*%
X124206000Y-74485500D03*
D27*
X124206000Y-82105500D03*
%TD*%
D26*
%TO.C,R3*%
X98171000Y-74485500D03*
D27*
X98171000Y-82105500D03*
%TD*%
D26*
%TO.C,R2*%
X121880000Y-67500000D03*
D27*
X129500000Y-67500000D03*
%TD*%
D26*
%TO.C,R1*%
X113347500Y-85852000D03*
D27*
X105727500Y-85852000D03*
%TD*%
M02*
