%TF.GenerationSoftware,KiCad,Pcbnew,5.1.6-c6e7f7d~86~ubuntu18.04.1*%
%TF.CreationDate,2020-06-06T16:31:20+02:00*%
%TF.ProjectId,BikeCommunicator,42696b65-436f-46d6-9d75-6e696361746f,rev?*%
%TF.SameCoordinates,Original*%
%TF.FileFunction,Soldermask,Top*%
%TF.FilePolarity,Negative*%
%FSLAX46Y46*%
G04 Gerber Fmt 4.6, Leading zero omitted, Abs format (unit mm)*
G04 Created by KiCad (PCBNEW 5.1.6-c6e7f7d~86~ubuntu18.04.1) date 2020-06-06 16:31:20*
%MOMM*%
%LPD*%
G01*
G04 APERTURE LIST*
%ADD10C,1.624000*%
%ADD11C,1.800000*%
%ADD12C,4.100000*%
%ADD13C,2.300000*%
%ADD14C,1.600000*%
%ADD15O,1.700000X1.700000*%
%ADD16C,1.700000*%
G04 APERTURE END LIST*
D10*
%TO.C,SW4*%
X127508000Y-82550000D03*
X130048000Y-82550000D03*
D11*
X133858000Y-77470000D03*
X123698000Y-77470000D03*
D12*
X128778000Y-77470000D03*
D13*
X124968000Y-74930000D03*
X131318000Y-72390000D03*
%TD*%
D10*
%TO.C,SW3*%
X107442000Y-82550000D03*
X109982000Y-82550000D03*
D11*
X113792000Y-77470000D03*
X103632000Y-77470000D03*
D12*
X108712000Y-77470000D03*
D13*
X104902000Y-74930000D03*
X111252000Y-72390000D03*
%TD*%
D10*
%TO.C,SW2*%
X127508000Y-62484000D03*
X130048000Y-62484000D03*
D11*
X133858000Y-57404000D03*
X123698000Y-57404000D03*
D12*
X128778000Y-57404000D03*
D13*
X124968000Y-54864000D03*
X131318000Y-52324000D03*
%TD*%
D10*
%TO.C,SW1*%
X107442000Y-62484000D03*
X109982000Y-62484000D03*
D11*
X113792000Y-57404000D03*
X103632000Y-57404000D03*
D12*
X108712000Y-57404000D03*
D13*
X104902000Y-54864000D03*
X111252000Y-52324000D03*
%TD*%
D14*
%TO.C,U2*%
X129540000Y-68961000D03*
X127000000Y-68961000D03*
X118160000Y-52451000D03*
X138380000Y-52451000D03*
X118160000Y-54991000D03*
X138380000Y-54991000D03*
X118160000Y-57531000D03*
X138380000Y-57531000D03*
X118160000Y-60071000D03*
X138380000Y-60071000D03*
X118160000Y-62611000D03*
X138380000Y-62611000D03*
X118160000Y-65151000D03*
X138380000Y-65151000D03*
X118160000Y-67691000D03*
X138380000Y-67691000D03*
X118160000Y-70231000D03*
X138380000Y-70231000D03*
X118160000Y-72771000D03*
X138380000Y-72771000D03*
X118160000Y-75311000D03*
X138380000Y-75311000D03*
X118160000Y-77851000D03*
X138380000Y-77851000D03*
%TD*%
D10*
%TO.C,U1*%
X115150000Y-95490000D03*
X115150000Y-98030000D03*
X98135000Y-81065000D03*
X98135000Y-83605000D03*
X98135000Y-86145000D03*
%TD*%
D15*
%TO.C,R8*%
X119761000Y-80645000D03*
D16*
X119761000Y-88265000D03*
%TD*%
D15*
%TO.C,R7*%
X99695000Y-74930000D03*
D16*
X99695000Y-67310000D03*
%TD*%
D15*
%TO.C,R6*%
X135128000Y-88773000D03*
D16*
X127508000Y-88773000D03*
%TD*%
D15*
%TO.C,R5*%
X115062000Y-86487000D03*
D16*
X107442000Y-86487000D03*
%TD*%
D15*
%TO.C,R4*%
X137795000Y-80645000D03*
D16*
X137795000Y-88265000D03*
%TD*%
D15*
%TO.C,R3*%
X99695000Y-54864000D03*
D16*
X99695000Y-62484000D03*
%TD*%
D15*
%TO.C,R2*%
X135128000Y-66421000D03*
D16*
X127508000Y-66421000D03*
%TD*%
D15*
%TO.C,R1*%
X115062000Y-66421000D03*
D16*
X107442000Y-66421000D03*
%TD*%
M02*
