%TF.GenerationSoftware,KiCad,Pcbnew,5.1.6-c6e7f7d~86~ubuntu18.04.1*%
%TF.CreationDate,2020-06-06T16:31:20+02:00*%
%TF.ProjectId,BikeCommunicator,42696b65-436f-46d6-9d75-6e696361746f,rev?*%
%TF.SameCoordinates,Original*%
%TF.FileFunction,Copper,L1,Top*%
%TF.FilePolarity,Positive*%
%FSLAX46Y46*%
G04 Gerber Fmt 4.6, Leading zero omitted, Abs format (unit mm)*
G04 Created by KiCad (PCBNEW 5.1.6-c6e7f7d~86~ubuntu18.04.1) date 2020-06-06 16:31:20*
%MOMM*%
%LPD*%
G01*
G04 APERTURE LIST*
%TA.AperFunction,ComponentPad*%
%ADD10C,1.524000*%
%TD*%
%TA.AperFunction,ComponentPad*%
%ADD11C,2.200000*%
%TD*%
%TA.AperFunction,ComponentPad*%
%ADD12C,1.500000*%
%TD*%
%TA.AperFunction,ComponentPad*%
%ADD13O,1.600000X1.600000*%
%TD*%
%TA.AperFunction,ComponentPad*%
%ADD14C,1.600000*%
%TD*%
%TA.AperFunction,ViaPad*%
%ADD15C,0.800000*%
%TD*%
%TA.AperFunction,Conductor*%
%ADD16C,0.250000*%
%TD*%
%TA.AperFunction,Conductor*%
%ADD17C,0.254000*%
%TD*%
G04 APERTURE END LIST*
D10*
%TO.P,SW4,4*%
%TO.N,Net-(R6-Pad1)*%
X127508000Y-82550000D03*
%TO.P,SW4,3*%
%TO.N,GND*%
X130048000Y-82550000D03*
D11*
%TO.P,SW4,2*%
%TO.N,/BTN4*%
X124968000Y-74930000D03*
%TO.P,SW4,1*%
%TO.N,GND*%
X131318000Y-72390000D03*
%TD*%
D10*
%TO.P,SW3,4*%
%TO.N,Net-(R5-Pad1)*%
X107442000Y-82550000D03*
%TO.P,SW3,3*%
%TO.N,GND*%
X109982000Y-82550000D03*
D11*
%TO.P,SW3,2*%
%TO.N,/BTN3*%
X104902000Y-74930000D03*
%TO.P,SW3,1*%
%TO.N,GND*%
X111252000Y-72390000D03*
%TD*%
D10*
%TO.P,SW2,4*%
%TO.N,Net-(R2-Pad1)*%
X127508000Y-62484000D03*
%TO.P,SW2,3*%
%TO.N,GND*%
X130048000Y-62484000D03*
D11*
%TO.P,SW2,2*%
%TO.N,/BTN2*%
X124968000Y-54864000D03*
%TO.P,SW2,1*%
%TO.N,GND*%
X131318000Y-52324000D03*
%TD*%
D10*
%TO.P,SW1,4*%
%TO.N,Net-(R1-Pad1)*%
X107442000Y-62484000D03*
%TO.P,SW1,3*%
%TO.N,GND*%
X109982000Y-62484000D03*
D11*
%TO.P,SW1,2*%
%TO.N,/BTN1*%
X104902000Y-54864000D03*
%TO.P,SW1,1*%
%TO.N,GND*%
X111252000Y-52324000D03*
%TD*%
D12*
%TO.P,U2,24*%
%TO.N,/LED3*%
X129540000Y-68961000D03*
%TO.P,U2,23*%
%TO.N,/LED4*%
X127000000Y-68961000D03*
%TO.P,U2,11*%
%TO.N,Net-(U2-Pad11)*%
X118160000Y-52451000D03*
%TO.P,U2,12*%
%TO.N,GND*%
X138380000Y-52451000D03*
%TO.P,U2,10*%
%TO.N,/LED2*%
X118160000Y-54991000D03*
%TO.P,U2,13*%
%TO.N,+3V3*%
X138380000Y-54991000D03*
%TO.P,U2,9*%
%TO.N,/LED1*%
X118160000Y-57531000D03*
%TO.P,U2,14*%
%TO.N,Net-(U2-Pad14)*%
X138380000Y-57531000D03*
%TO.P,U2,8*%
%TO.N,/BTN1*%
X118160000Y-60071000D03*
%TO.P,U2,15*%
%TO.N,Net-(U2-Pad15)*%
X138380000Y-60071000D03*
%TO.P,U2,7*%
%TO.N,Net-(U2-Pad7)*%
X118160000Y-62611000D03*
%TO.P,U2,16*%
%TO.N,Net-(U2-Pad16)*%
X138380000Y-62611000D03*
%TO.P,U2,6*%
%TO.N,Net-(U2-Pad6)*%
X118160000Y-65151000D03*
%TO.P,U2,17*%
%TO.N,Net-(U2-Pad17)*%
X138380000Y-65151000D03*
%TO.P,U2,5*%
%TO.N,GND*%
X118160000Y-67691000D03*
%TO.P,U2,18*%
%TO.N,Net-(U2-Pad18)*%
X138380000Y-67691000D03*
%TO.P,U2,4*%
%TO.N,Net-(U2-Pad4)*%
X118160000Y-70231000D03*
%TO.P,U2,19*%
%TO.N,/BTN4*%
X138380000Y-70231000D03*
%TO.P,U2,3*%
%TO.N,Net-(U2-Pad3)*%
X118160000Y-72771000D03*
%TO.P,U2,20*%
%TO.N,/BTN3*%
X138380000Y-72771000D03*
%TO.P,U2,2*%
%TO.N,Net-(U2-Pad2)*%
X118160000Y-75311000D03*
%TO.P,U2,21*%
%TO.N,/BTN2*%
X138380000Y-75311000D03*
%TO.P,U2,1*%
%TO.N,GND*%
X118160000Y-77851000D03*
%TO.P,U2,22*%
%TO.N,Net-(U2-Pad22)*%
X138380000Y-77851000D03*
%TD*%
D10*
%TO.P,U1,5*%
%TO.N,GND*%
X115150000Y-95490000D03*
%TO.P,U1,4*%
%TO.N,+3V3*%
X115150000Y-98030000D03*
%TO.P,U1,3*%
%TO.N,Net-(U1-Pad3)*%
X98135000Y-81065000D03*
%TO.P,U1,2*%
%TO.N,GND*%
X98135000Y-83605000D03*
%TO.P,U1,1*%
%TO.N,+12V*%
X98135000Y-86145000D03*
%TD*%
D13*
%TO.P,R8,2*%
%TO.N,/BTN4*%
X119761000Y-80645000D03*
D14*
%TO.P,R8,1*%
%TO.N,+3V3*%
X119761000Y-88265000D03*
%TD*%
D13*
%TO.P,R7,2*%
%TO.N,/BTN3*%
X99695000Y-74930000D03*
D14*
%TO.P,R7,1*%
%TO.N,+3V3*%
X99695000Y-67310000D03*
%TD*%
D13*
%TO.P,R6,2*%
%TO.N,/LED4*%
X135128000Y-88773000D03*
D14*
%TO.P,R6,1*%
%TO.N,Net-(R6-Pad1)*%
X127508000Y-88773000D03*
%TD*%
D13*
%TO.P,R5,2*%
%TO.N,/LED3*%
X115062000Y-86487000D03*
D14*
%TO.P,R5,1*%
%TO.N,Net-(R5-Pad1)*%
X107442000Y-86487000D03*
%TD*%
D13*
%TO.P,R4,2*%
%TO.N,/BTN2*%
X137795000Y-80645000D03*
D14*
%TO.P,R4,1*%
%TO.N,+3V3*%
X137795000Y-88265000D03*
%TD*%
D13*
%TO.P,R3,2*%
%TO.N,/BTN1*%
X99695000Y-54864000D03*
D14*
%TO.P,R3,1*%
%TO.N,+3V3*%
X99695000Y-62484000D03*
%TD*%
D13*
%TO.P,R2,2*%
%TO.N,/LED2*%
X135128000Y-66421000D03*
D14*
%TO.P,R2,1*%
%TO.N,Net-(R2-Pad1)*%
X127508000Y-66421000D03*
%TD*%
D13*
%TO.P,R1,2*%
%TO.N,/LED1*%
X115062000Y-66421000D03*
D14*
%TO.P,R1,1*%
%TO.N,Net-(R1-Pad1)*%
X107442000Y-66421000D03*
%TD*%
D15*
%TO.N,/LED2*%
X124968000Y-65278000D03*
%TO.N,/LED4*%
X136144000Y-69760000D03*
%TO.N,/BTN3*%
X123952000Y-73152000D03*
%TO.N,/BTN4*%
X125095000Y-70485000D03*
%TD*%
D16*
%TO.N,Net-(R1-Pad1)*%
X107442000Y-62484000D02*
X107442000Y-66421000D01*
%TO.N,/LED2*%
X135128000Y-66421000D02*
X129921000Y-66421000D01*
X129921000Y-66421000D02*
X128778000Y-65278000D01*
X128778000Y-65278000D02*
X124968000Y-65278000D01*
%TO.N,/BTN1*%
X99695000Y-54864000D02*
X104902000Y-54864000D01*
X109512998Y-54864000D02*
X104902000Y-54864000D01*
X114719998Y-60071000D02*
X109512998Y-54864000D01*
X118160000Y-60071000D02*
X114719998Y-60071000D01*
%TO.N,/BTN2*%
X138380000Y-75311000D02*
X136525000Y-77166000D01*
X136525000Y-79375000D02*
X137795000Y-80645000D01*
X136525000Y-77166000D02*
X136525000Y-79375000D01*
X138380000Y-75311000D02*
X136906000Y-73837000D01*
X136906000Y-73837000D02*
X136906000Y-57912000D01*
X133858000Y-54864000D02*
X124968000Y-54864000D01*
X136906000Y-57912000D02*
X133858000Y-54864000D01*
%TO.N,/LED3*%
X115062000Y-86487000D02*
X123698000Y-86487000D01*
X123698000Y-86487000D02*
X126365000Y-83820000D01*
X129540000Y-73266998D02*
X129540000Y-68961000D01*
X126365000Y-76441998D02*
X129540000Y-73266998D01*
X126365000Y-83820000D02*
X126365000Y-76441998D01*
%TO.N,Net-(R5-Pad1)*%
X107442000Y-82550000D02*
X107442000Y-86487000D01*
%TO.N,/LED4*%
X135744001Y-88156999D02*
X135128000Y-88773000D01*
X135744001Y-70159999D02*
X135744001Y-88156999D01*
X136144000Y-69760000D02*
X135744001Y-70159999D01*
%TO.N,/BTN3*%
X99695000Y-74930000D02*
X104902000Y-74930000D01*
X122868001Y-74235999D02*
X123952000Y-73152000D01*
X104902000Y-74930000D02*
X105596001Y-74235999D01*
X105596001Y-74235999D02*
X122868001Y-74235999D01*
%TO.N,/BTN4*%
X124968000Y-74930000D02*
X124968000Y-75692000D01*
X124968000Y-74930000D02*
X124968000Y-70612000D01*
X124968000Y-70612000D02*
X125095000Y-70485000D01*
%TD*%
D17*
%TO.N,+3V3*%
G36*
X110430169Y-50786463D02*
G01*
X110146002Y-50976337D01*
X109904337Y-51218002D01*
X109714463Y-51502169D01*
X109583675Y-51817919D01*
X109517000Y-52153117D01*
X109517000Y-52494883D01*
X109583675Y-52830081D01*
X109714463Y-53145831D01*
X109904337Y-53429998D01*
X110146002Y-53671663D01*
X110430169Y-53861537D01*
X110745919Y-53992325D01*
X111081117Y-54059000D01*
X111422883Y-54059000D01*
X111758081Y-53992325D01*
X112073831Y-53861537D01*
X112357998Y-53671663D01*
X112599663Y-53429998D01*
X112789537Y-53145831D01*
X112920325Y-52830081D01*
X112987000Y-52494883D01*
X112987000Y-52153117D01*
X112920325Y-51817919D01*
X112789537Y-51502169D01*
X112599663Y-51218002D01*
X112357998Y-50976337D01*
X112073831Y-50786463D01*
X111768522Y-50660000D01*
X130801478Y-50660000D01*
X130496169Y-50786463D01*
X130212002Y-50976337D01*
X129970337Y-51218002D01*
X129780463Y-51502169D01*
X129649675Y-51817919D01*
X129583000Y-52153117D01*
X129583000Y-52494883D01*
X129649675Y-52830081D01*
X129780463Y-53145831D01*
X129970337Y-53429998D01*
X130212002Y-53671663D01*
X130496169Y-53861537D01*
X130811919Y-53992325D01*
X131147117Y-54059000D01*
X131488883Y-54059000D01*
X131824081Y-53992325D01*
X132139831Y-53861537D01*
X132423998Y-53671663D01*
X132665663Y-53429998D01*
X132855537Y-53145831D01*
X132986325Y-52830081D01*
X133053000Y-52494883D01*
X133053000Y-52153117D01*
X132986325Y-51817919D01*
X132855537Y-51502169D01*
X132665663Y-51218002D01*
X132423998Y-50976337D01*
X132139831Y-50786463D01*
X131834522Y-50660000D01*
X139294000Y-50660000D01*
X139294000Y-51406315D01*
X139262886Y-51375201D01*
X139036043Y-51223629D01*
X138783989Y-51119225D01*
X138516411Y-51066000D01*
X138243589Y-51066000D01*
X137976011Y-51119225D01*
X137723957Y-51223629D01*
X137497114Y-51375201D01*
X137304201Y-51568114D01*
X137152629Y-51794957D01*
X137048225Y-52047011D01*
X136995000Y-52314589D01*
X136995000Y-52587411D01*
X137048225Y-52854989D01*
X137152629Y-53107043D01*
X137304201Y-53333886D01*
X137497114Y-53526799D01*
X137723957Y-53678371D01*
X137823279Y-53719511D01*
X137781168Y-53734723D01*
X137668137Y-53795140D01*
X137602612Y-54034007D01*
X138380000Y-54811395D01*
X138394143Y-54797253D01*
X138573748Y-54976858D01*
X138559605Y-54991000D01*
X138573748Y-55005143D01*
X138394143Y-55184748D01*
X138380000Y-55170605D01*
X137602612Y-55947993D01*
X137668137Y-56186860D01*
X137826477Y-56261164D01*
X137723957Y-56303629D01*
X137497114Y-56455201D01*
X137304201Y-56648114D01*
X137152629Y-56874957D01*
X137091452Y-57022651D01*
X135132293Y-55063492D01*
X136990188Y-55063492D01*
X137031035Y-55333238D01*
X137123723Y-55589832D01*
X137184140Y-55702863D01*
X137423007Y-55768388D01*
X138200395Y-54991000D01*
X137423007Y-54213612D01*
X137184140Y-54279137D01*
X137068240Y-54526116D01*
X137002750Y-54790960D01*
X136990188Y-55063492D01*
X135132293Y-55063492D01*
X134421804Y-54353003D01*
X134398001Y-54323999D01*
X134282276Y-54229026D01*
X134150247Y-54158454D01*
X134006986Y-54114997D01*
X133895333Y-54104000D01*
X133895322Y-54104000D01*
X133858000Y-54100324D01*
X133820678Y-54104000D01*
X126531148Y-54104000D01*
X126505537Y-54042169D01*
X126315663Y-53758002D01*
X126073998Y-53516337D01*
X125789831Y-53326463D01*
X125474081Y-53195675D01*
X125138883Y-53129000D01*
X124797117Y-53129000D01*
X124461919Y-53195675D01*
X124146169Y-53326463D01*
X123862002Y-53516337D01*
X123620337Y-53758002D01*
X123430463Y-54042169D01*
X123299675Y-54357919D01*
X123233000Y-54693117D01*
X123233000Y-55034883D01*
X123299675Y-55370081D01*
X123430463Y-55685831D01*
X123586261Y-55919000D01*
X123551740Y-55919000D01*
X123264842Y-55976068D01*
X122994589Y-56088010D01*
X122751368Y-56250525D01*
X122544525Y-56457368D01*
X122382010Y-56700589D01*
X122270068Y-56970842D01*
X122213000Y-57257740D01*
X122213000Y-57550260D01*
X122270068Y-57837158D01*
X122382010Y-58107411D01*
X122544525Y-58350632D01*
X122751368Y-58557475D01*
X122994589Y-58719990D01*
X123264842Y-58831932D01*
X123551740Y-58889000D01*
X123844260Y-58889000D01*
X124131158Y-58831932D01*
X124401411Y-58719990D01*
X124644632Y-58557475D01*
X124851475Y-58350632D01*
X125013990Y-58107411D01*
X125125932Y-57837158D01*
X125183000Y-57550260D01*
X125183000Y-57257740D01*
X125125932Y-56970842D01*
X125013990Y-56700589D01*
X124946110Y-56599000D01*
X125138883Y-56599000D01*
X125474081Y-56532325D01*
X125789831Y-56401537D01*
X126073998Y-56211663D01*
X126315663Y-55969998D01*
X126505537Y-55685831D01*
X126531148Y-55624000D01*
X126831547Y-55624000D01*
X126731262Y-55724285D01*
X126442893Y-56155859D01*
X126244261Y-56635399D01*
X126143000Y-57144475D01*
X126143000Y-57663525D01*
X126244261Y-58172601D01*
X126442893Y-58652141D01*
X126731262Y-59083715D01*
X127098285Y-59450738D01*
X127529859Y-59739107D01*
X128009399Y-59937739D01*
X128518475Y-60039000D01*
X129037525Y-60039000D01*
X129546601Y-59937739D01*
X130026141Y-59739107D01*
X130457715Y-59450738D01*
X130824738Y-59083715D01*
X131113107Y-58652141D01*
X131311739Y-58172601D01*
X131413000Y-57663525D01*
X131413000Y-57144475D01*
X131311739Y-56635399D01*
X131113107Y-56155859D01*
X130824738Y-55724285D01*
X130724453Y-55624000D01*
X133543199Y-55624000D01*
X133838199Y-55919000D01*
X133711740Y-55919000D01*
X133424842Y-55976068D01*
X133154589Y-56088010D01*
X132911368Y-56250525D01*
X132704525Y-56457368D01*
X132542010Y-56700589D01*
X132430068Y-56970842D01*
X132373000Y-57257740D01*
X132373000Y-57550260D01*
X132430068Y-57837158D01*
X132542010Y-58107411D01*
X132704525Y-58350632D01*
X132911368Y-58557475D01*
X133154589Y-58719990D01*
X133424842Y-58831932D01*
X133711740Y-58889000D01*
X134004260Y-58889000D01*
X134291158Y-58831932D01*
X134561411Y-58719990D01*
X134804632Y-58557475D01*
X135011475Y-58350632D01*
X135173990Y-58107411D01*
X135285932Y-57837158D01*
X135343000Y-57550260D01*
X135343000Y-57423802D01*
X136146001Y-58226803D01*
X136146001Y-65409605D01*
X136042759Y-65306363D01*
X135807727Y-65149320D01*
X135546574Y-65041147D01*
X135269335Y-64986000D01*
X134986665Y-64986000D01*
X134709426Y-65041147D01*
X134448273Y-65149320D01*
X134213241Y-65306363D01*
X134013363Y-65506241D01*
X133909957Y-65661000D01*
X130235802Y-65661000D01*
X129341804Y-64767002D01*
X129318001Y-64737999D01*
X129202276Y-64643026D01*
X129070247Y-64572454D01*
X128926986Y-64528997D01*
X128815333Y-64518000D01*
X128815322Y-64518000D01*
X128778000Y-64514324D01*
X128740678Y-64518000D01*
X125671711Y-64518000D01*
X125627774Y-64474063D01*
X125458256Y-64360795D01*
X125269898Y-64282774D01*
X125069939Y-64243000D01*
X124866061Y-64243000D01*
X124666102Y-64282774D01*
X124477744Y-64360795D01*
X124308226Y-64474063D01*
X124164063Y-64618226D01*
X124050795Y-64787744D01*
X123972774Y-64976102D01*
X123933000Y-65176061D01*
X123933000Y-65379939D01*
X123972774Y-65579898D01*
X124050795Y-65768256D01*
X124164063Y-65937774D01*
X124308226Y-66081937D01*
X124477744Y-66195205D01*
X124666102Y-66273226D01*
X124866061Y-66313000D01*
X125069939Y-66313000D01*
X125269898Y-66273226D01*
X125458256Y-66195205D01*
X125627774Y-66081937D01*
X125671711Y-66038000D01*
X126121071Y-66038000D01*
X126073000Y-66279665D01*
X126073000Y-66562335D01*
X126128147Y-66839574D01*
X126236320Y-67100727D01*
X126393363Y-67335759D01*
X126593241Y-67535637D01*
X126701810Y-67608180D01*
X126596011Y-67629225D01*
X126343957Y-67733629D01*
X126117114Y-67885201D01*
X125924201Y-68078114D01*
X125772629Y-68304957D01*
X125668225Y-68557011D01*
X125615000Y-68824589D01*
X125615000Y-69097411D01*
X125668225Y-69364989D01*
X125772629Y-69617043D01*
X125924201Y-69843886D01*
X126117114Y-70036799D01*
X126343957Y-70188371D01*
X126596011Y-70292775D01*
X126863589Y-70346000D01*
X127136411Y-70346000D01*
X127403989Y-70292775D01*
X127656043Y-70188371D01*
X127882886Y-70036799D01*
X128075799Y-69843886D01*
X128227371Y-69617043D01*
X128270000Y-69514127D01*
X128312629Y-69617043D01*
X128464201Y-69843886D01*
X128657114Y-70036799D01*
X128780001Y-70118909D01*
X128780000Y-72952196D01*
X126703000Y-75029197D01*
X126703000Y-74759117D01*
X126636325Y-74423919D01*
X126505537Y-74108169D01*
X126315663Y-73824002D01*
X126073998Y-73582337D01*
X125789831Y-73392463D01*
X125728000Y-73366852D01*
X125728000Y-71306827D01*
X125754774Y-71288937D01*
X125898937Y-71144774D01*
X126012205Y-70975256D01*
X126090226Y-70786898D01*
X126130000Y-70586939D01*
X126130000Y-70383061D01*
X126090226Y-70183102D01*
X126012205Y-69994744D01*
X125898937Y-69825226D01*
X125754774Y-69681063D01*
X125585256Y-69567795D01*
X125396898Y-69489774D01*
X125196939Y-69450000D01*
X124993061Y-69450000D01*
X124793102Y-69489774D01*
X124604744Y-69567795D01*
X124435226Y-69681063D01*
X124291063Y-69825226D01*
X124177795Y-69994744D01*
X124099774Y-70183102D01*
X124060000Y-70383061D01*
X124060000Y-70586939D01*
X124099774Y-70786898D01*
X124177795Y-70975256D01*
X124208001Y-71020462D01*
X124208001Y-72147645D01*
X124053939Y-72117000D01*
X123850061Y-72117000D01*
X123650102Y-72156774D01*
X123461744Y-72234795D01*
X123292226Y-72348063D01*
X123148063Y-72492226D01*
X123034795Y-72661744D01*
X122956774Y-72850102D01*
X122917000Y-73050061D01*
X122917000Y-73112198D01*
X122553200Y-73475999D01*
X119354660Y-73475999D01*
X119387371Y-73427043D01*
X119491775Y-73174989D01*
X119545000Y-72907411D01*
X119545000Y-72634589D01*
X119491775Y-72367011D01*
X119387371Y-72114957D01*
X119235799Y-71888114D01*
X119042886Y-71695201D01*
X118816043Y-71543629D01*
X118713127Y-71501000D01*
X118816043Y-71458371D01*
X119042886Y-71306799D01*
X119235799Y-71113886D01*
X119387371Y-70887043D01*
X119491775Y-70634989D01*
X119545000Y-70367411D01*
X119545000Y-70094589D01*
X119491775Y-69827011D01*
X119387371Y-69574957D01*
X119235799Y-69348114D01*
X119042886Y-69155201D01*
X118816043Y-69003629D01*
X118713127Y-68961000D01*
X118816043Y-68918371D01*
X119042886Y-68766799D01*
X119235799Y-68573886D01*
X119387371Y-68347043D01*
X119491775Y-68094989D01*
X119545000Y-67827411D01*
X119545000Y-67554589D01*
X119491775Y-67287011D01*
X119387371Y-67034957D01*
X119235799Y-66808114D01*
X119042886Y-66615201D01*
X118816043Y-66463629D01*
X118713127Y-66421000D01*
X118816043Y-66378371D01*
X119042886Y-66226799D01*
X119235799Y-66033886D01*
X119387371Y-65807043D01*
X119491775Y-65554989D01*
X119545000Y-65287411D01*
X119545000Y-65014589D01*
X119491775Y-64747011D01*
X119387371Y-64494957D01*
X119235799Y-64268114D01*
X119042886Y-64075201D01*
X118816043Y-63923629D01*
X118713127Y-63881000D01*
X118816043Y-63838371D01*
X119042886Y-63686799D01*
X119235799Y-63493886D01*
X119387371Y-63267043D01*
X119491775Y-63014989D01*
X119545000Y-62747411D01*
X119545000Y-62474589D01*
X119519504Y-62346408D01*
X126111000Y-62346408D01*
X126111000Y-62621592D01*
X126164686Y-62891490D01*
X126269995Y-63145727D01*
X126422880Y-63374535D01*
X126617465Y-63569120D01*
X126846273Y-63722005D01*
X127100510Y-63827314D01*
X127370408Y-63881000D01*
X127645592Y-63881000D01*
X127915490Y-63827314D01*
X128169727Y-63722005D01*
X128398535Y-63569120D01*
X128593120Y-63374535D01*
X128746005Y-63145727D01*
X128778000Y-63068485D01*
X128809995Y-63145727D01*
X128962880Y-63374535D01*
X129157465Y-63569120D01*
X129386273Y-63722005D01*
X129640510Y-63827314D01*
X129910408Y-63881000D01*
X130185592Y-63881000D01*
X130455490Y-63827314D01*
X130709727Y-63722005D01*
X130938535Y-63569120D01*
X131133120Y-63374535D01*
X131286005Y-63145727D01*
X131391314Y-62891490D01*
X131445000Y-62621592D01*
X131445000Y-62346408D01*
X131391314Y-62076510D01*
X131286005Y-61822273D01*
X131133120Y-61593465D01*
X130938535Y-61398880D01*
X130709727Y-61245995D01*
X130455490Y-61140686D01*
X130185592Y-61087000D01*
X129910408Y-61087000D01*
X129640510Y-61140686D01*
X129386273Y-61245995D01*
X129157465Y-61398880D01*
X128962880Y-61593465D01*
X128809995Y-61822273D01*
X128778000Y-61899515D01*
X128746005Y-61822273D01*
X128593120Y-61593465D01*
X128398535Y-61398880D01*
X128169727Y-61245995D01*
X127915490Y-61140686D01*
X127645592Y-61087000D01*
X127370408Y-61087000D01*
X127100510Y-61140686D01*
X126846273Y-61245995D01*
X126617465Y-61398880D01*
X126422880Y-61593465D01*
X126269995Y-61822273D01*
X126164686Y-62076510D01*
X126111000Y-62346408D01*
X119519504Y-62346408D01*
X119491775Y-62207011D01*
X119387371Y-61954957D01*
X119235799Y-61728114D01*
X119042886Y-61535201D01*
X118816043Y-61383629D01*
X118713127Y-61341000D01*
X118816043Y-61298371D01*
X119042886Y-61146799D01*
X119235799Y-60953886D01*
X119387371Y-60727043D01*
X119491775Y-60474989D01*
X119545000Y-60207411D01*
X119545000Y-59934589D01*
X119491775Y-59667011D01*
X119387371Y-59414957D01*
X119235799Y-59188114D01*
X119042886Y-58995201D01*
X118816043Y-58843629D01*
X118713127Y-58801000D01*
X118816043Y-58758371D01*
X119042886Y-58606799D01*
X119235799Y-58413886D01*
X119387371Y-58187043D01*
X119491775Y-57934989D01*
X119545000Y-57667411D01*
X119545000Y-57394589D01*
X119491775Y-57127011D01*
X119387371Y-56874957D01*
X119235799Y-56648114D01*
X119042886Y-56455201D01*
X118816043Y-56303629D01*
X118713127Y-56261000D01*
X118816043Y-56218371D01*
X119042886Y-56066799D01*
X119235799Y-55873886D01*
X119387371Y-55647043D01*
X119491775Y-55394989D01*
X119545000Y-55127411D01*
X119545000Y-54854589D01*
X119491775Y-54587011D01*
X119387371Y-54334957D01*
X119235799Y-54108114D01*
X119042886Y-53915201D01*
X118816043Y-53763629D01*
X118713127Y-53721000D01*
X118816043Y-53678371D01*
X119042886Y-53526799D01*
X119235799Y-53333886D01*
X119387371Y-53107043D01*
X119491775Y-52854989D01*
X119545000Y-52587411D01*
X119545000Y-52314589D01*
X119491775Y-52047011D01*
X119387371Y-51794957D01*
X119235799Y-51568114D01*
X119042886Y-51375201D01*
X118816043Y-51223629D01*
X118563989Y-51119225D01*
X118296411Y-51066000D01*
X118023589Y-51066000D01*
X117756011Y-51119225D01*
X117503957Y-51223629D01*
X117277114Y-51375201D01*
X117084201Y-51568114D01*
X116932629Y-51794957D01*
X116828225Y-52047011D01*
X116775000Y-52314589D01*
X116775000Y-52587411D01*
X116828225Y-52854989D01*
X116932629Y-53107043D01*
X117084201Y-53333886D01*
X117277114Y-53526799D01*
X117503957Y-53678371D01*
X117606873Y-53721000D01*
X117503957Y-53763629D01*
X117277114Y-53915201D01*
X117084201Y-54108114D01*
X116932629Y-54334957D01*
X116828225Y-54587011D01*
X116775000Y-54854589D01*
X116775000Y-55127411D01*
X116828225Y-55394989D01*
X116932629Y-55647043D01*
X117084201Y-55873886D01*
X117277114Y-56066799D01*
X117503957Y-56218371D01*
X117606873Y-56261000D01*
X117503957Y-56303629D01*
X117277114Y-56455201D01*
X117084201Y-56648114D01*
X116932629Y-56874957D01*
X116828225Y-57127011D01*
X116775000Y-57394589D01*
X116775000Y-57667411D01*
X116828225Y-57934989D01*
X116932629Y-58187043D01*
X117084201Y-58413886D01*
X117277114Y-58606799D01*
X117503957Y-58758371D01*
X117606873Y-58801000D01*
X117503957Y-58843629D01*
X117277114Y-58995201D01*
X117084201Y-59188114D01*
X117002091Y-59311000D01*
X115034800Y-59311000D01*
X114458909Y-58735109D01*
X114495411Y-58719990D01*
X114738632Y-58557475D01*
X114945475Y-58350632D01*
X115107990Y-58107411D01*
X115219932Y-57837158D01*
X115277000Y-57550260D01*
X115277000Y-57257740D01*
X115219932Y-56970842D01*
X115107990Y-56700589D01*
X114945475Y-56457368D01*
X114738632Y-56250525D01*
X114495411Y-56088010D01*
X114225158Y-55976068D01*
X113938260Y-55919000D01*
X113645740Y-55919000D01*
X113358842Y-55976068D01*
X113088589Y-56088010D01*
X112845368Y-56250525D01*
X112638525Y-56457368D01*
X112476010Y-56700589D01*
X112460890Y-56737091D01*
X110076802Y-54353003D01*
X110052999Y-54323999D01*
X109937274Y-54229026D01*
X109805245Y-54158454D01*
X109661984Y-54114997D01*
X109550331Y-54104000D01*
X109550320Y-54104000D01*
X109512998Y-54100324D01*
X109475676Y-54104000D01*
X106465148Y-54104000D01*
X106439537Y-54042169D01*
X106249663Y-53758002D01*
X106007998Y-53516337D01*
X105723831Y-53326463D01*
X105408081Y-53195675D01*
X105072883Y-53129000D01*
X104731117Y-53129000D01*
X104395919Y-53195675D01*
X104080169Y-53326463D01*
X103796002Y-53516337D01*
X103554337Y-53758002D01*
X103364463Y-54042169D01*
X103338852Y-54104000D01*
X100913043Y-54104000D01*
X100809637Y-53949241D01*
X100609759Y-53749363D01*
X100374727Y-53592320D01*
X100113574Y-53484147D01*
X99836335Y-53429000D01*
X99553665Y-53429000D01*
X99276426Y-53484147D01*
X99015273Y-53592320D01*
X98780241Y-53749363D01*
X98580363Y-53949241D01*
X98423320Y-54184273D01*
X98315147Y-54445426D01*
X98260000Y-54722665D01*
X98260000Y-55005335D01*
X98315147Y-55282574D01*
X98423320Y-55543727D01*
X98580363Y-55778759D01*
X98780241Y-55978637D01*
X99015273Y-56135680D01*
X99276426Y-56243853D01*
X99553665Y-56299000D01*
X99836335Y-56299000D01*
X100113574Y-56243853D01*
X100374727Y-56135680D01*
X100609759Y-55978637D01*
X100809637Y-55778759D01*
X100913043Y-55624000D01*
X103338852Y-55624000D01*
X103364463Y-55685831D01*
X103520261Y-55919000D01*
X103485740Y-55919000D01*
X103198842Y-55976068D01*
X102928589Y-56088010D01*
X102685368Y-56250525D01*
X102478525Y-56457368D01*
X102316010Y-56700589D01*
X102204068Y-56970842D01*
X102147000Y-57257740D01*
X102147000Y-57550260D01*
X102204068Y-57837158D01*
X102316010Y-58107411D01*
X102478525Y-58350632D01*
X102685368Y-58557475D01*
X102928589Y-58719990D01*
X103198842Y-58831932D01*
X103485740Y-58889000D01*
X103778260Y-58889000D01*
X104065158Y-58831932D01*
X104335411Y-58719990D01*
X104578632Y-58557475D01*
X104785475Y-58350632D01*
X104947990Y-58107411D01*
X105059932Y-57837158D01*
X105117000Y-57550260D01*
X105117000Y-57257740D01*
X105059932Y-56970842D01*
X104947990Y-56700589D01*
X104880110Y-56599000D01*
X105072883Y-56599000D01*
X105408081Y-56532325D01*
X105723831Y-56401537D01*
X106007998Y-56211663D01*
X106249663Y-55969998D01*
X106439537Y-55685831D01*
X106465148Y-55624000D01*
X106765547Y-55624000D01*
X106665262Y-55724285D01*
X106376893Y-56155859D01*
X106178261Y-56635399D01*
X106077000Y-57144475D01*
X106077000Y-57663525D01*
X106178261Y-58172601D01*
X106376893Y-58652141D01*
X106665262Y-59083715D01*
X107032285Y-59450738D01*
X107463859Y-59739107D01*
X107943399Y-59937739D01*
X108452475Y-60039000D01*
X108971525Y-60039000D01*
X109480601Y-59937739D01*
X109960141Y-59739107D01*
X110391715Y-59450738D01*
X110758738Y-59083715D01*
X111047107Y-58652141D01*
X111245739Y-58172601D01*
X111328870Y-57754673D01*
X114156199Y-60582003D01*
X114179997Y-60611001D01*
X114208995Y-60634799D01*
X114295721Y-60705974D01*
X114427751Y-60776546D01*
X114571012Y-60820003D01*
X114682665Y-60831000D01*
X114682675Y-60831000D01*
X114719997Y-60834676D01*
X114757320Y-60831000D01*
X117002091Y-60831000D01*
X117084201Y-60953886D01*
X117277114Y-61146799D01*
X117503957Y-61298371D01*
X117606873Y-61341000D01*
X117503957Y-61383629D01*
X117277114Y-61535201D01*
X117084201Y-61728114D01*
X116932629Y-61954957D01*
X116828225Y-62207011D01*
X116775000Y-62474589D01*
X116775000Y-62747411D01*
X116828225Y-63014989D01*
X116932629Y-63267043D01*
X117084201Y-63493886D01*
X117277114Y-63686799D01*
X117503957Y-63838371D01*
X117606873Y-63881000D01*
X117503957Y-63923629D01*
X117277114Y-64075201D01*
X117084201Y-64268114D01*
X116932629Y-64494957D01*
X116828225Y-64747011D01*
X116775000Y-65014589D01*
X116775000Y-65287411D01*
X116828225Y-65554989D01*
X116932629Y-65807043D01*
X117084201Y-66033886D01*
X117277114Y-66226799D01*
X117503957Y-66378371D01*
X117606873Y-66421000D01*
X117503957Y-66463629D01*
X117277114Y-66615201D01*
X117084201Y-66808114D01*
X116932629Y-67034957D01*
X116828225Y-67287011D01*
X116775000Y-67554589D01*
X116775000Y-67827411D01*
X116828225Y-68094989D01*
X116932629Y-68347043D01*
X117084201Y-68573886D01*
X117277114Y-68766799D01*
X117503957Y-68918371D01*
X117606873Y-68961000D01*
X117503957Y-69003629D01*
X117277114Y-69155201D01*
X117084201Y-69348114D01*
X116932629Y-69574957D01*
X116828225Y-69827011D01*
X116775000Y-70094589D01*
X116775000Y-70367411D01*
X116828225Y-70634989D01*
X116932629Y-70887043D01*
X117084201Y-71113886D01*
X117277114Y-71306799D01*
X117503957Y-71458371D01*
X117606873Y-71501000D01*
X117503957Y-71543629D01*
X117277114Y-71695201D01*
X117084201Y-71888114D01*
X116932629Y-72114957D01*
X116828225Y-72367011D01*
X116775000Y-72634589D01*
X116775000Y-72907411D01*
X116828225Y-73174989D01*
X116932629Y-73427043D01*
X116965340Y-73475999D01*
X112613026Y-73475999D01*
X112789537Y-73211831D01*
X112920325Y-72896081D01*
X112987000Y-72560883D01*
X112987000Y-72219117D01*
X112920325Y-71883919D01*
X112789537Y-71568169D01*
X112599663Y-71284002D01*
X112357998Y-71042337D01*
X112073831Y-70852463D01*
X111758081Y-70721675D01*
X111422883Y-70655000D01*
X111081117Y-70655000D01*
X110745919Y-70721675D01*
X110430169Y-70852463D01*
X110146002Y-71042337D01*
X109904337Y-71284002D01*
X109714463Y-71568169D01*
X109583675Y-71883919D01*
X109517000Y-72219117D01*
X109517000Y-72560883D01*
X109583675Y-72896081D01*
X109714463Y-73211831D01*
X109890974Y-73475999D01*
X105848852Y-73475999D01*
X105723831Y-73392463D01*
X105408081Y-73261675D01*
X105072883Y-73195000D01*
X104731117Y-73195000D01*
X104395919Y-73261675D01*
X104080169Y-73392463D01*
X103796002Y-73582337D01*
X103554337Y-73824002D01*
X103364463Y-74108169D01*
X103338852Y-74170000D01*
X100913043Y-74170000D01*
X100809637Y-74015241D01*
X100609759Y-73815363D01*
X100374727Y-73658320D01*
X100113574Y-73550147D01*
X99836335Y-73495000D01*
X99553665Y-73495000D01*
X99276426Y-73550147D01*
X99015273Y-73658320D01*
X98780241Y-73815363D01*
X98580363Y-74015241D01*
X98423320Y-74250273D01*
X98315147Y-74511426D01*
X98260000Y-74788665D01*
X98260000Y-75071335D01*
X98315147Y-75348574D01*
X98423320Y-75609727D01*
X98580363Y-75844759D01*
X98780241Y-76044637D01*
X99015273Y-76201680D01*
X99276426Y-76309853D01*
X99553665Y-76365000D01*
X99836335Y-76365000D01*
X100113574Y-76309853D01*
X100374727Y-76201680D01*
X100609759Y-76044637D01*
X100809637Y-75844759D01*
X100913043Y-75690000D01*
X103338852Y-75690000D01*
X103364463Y-75751831D01*
X103520261Y-75985000D01*
X103485740Y-75985000D01*
X103198842Y-76042068D01*
X102928589Y-76154010D01*
X102685368Y-76316525D01*
X102478525Y-76523368D01*
X102316010Y-76766589D01*
X102204068Y-77036842D01*
X102147000Y-77323740D01*
X102147000Y-77616260D01*
X102204068Y-77903158D01*
X102316010Y-78173411D01*
X102478525Y-78416632D01*
X102685368Y-78623475D01*
X102928589Y-78785990D01*
X103198842Y-78897932D01*
X103485740Y-78955000D01*
X103778260Y-78955000D01*
X104065158Y-78897932D01*
X104335411Y-78785990D01*
X104578632Y-78623475D01*
X104785475Y-78416632D01*
X104947990Y-78173411D01*
X105059932Y-77903158D01*
X105117000Y-77616260D01*
X105117000Y-77323740D01*
X105059932Y-77036842D01*
X104947990Y-76766589D01*
X104880110Y-76665000D01*
X105072883Y-76665000D01*
X105408081Y-76598325D01*
X105723831Y-76467537D01*
X106007998Y-76277663D01*
X106249663Y-76035998D01*
X106439537Y-75751831D01*
X106570325Y-75436081D01*
X106637000Y-75100883D01*
X106637000Y-74995999D01*
X107799179Y-74995999D01*
X107463859Y-75134893D01*
X107032285Y-75423262D01*
X106665262Y-75790285D01*
X106376893Y-76221859D01*
X106178261Y-76701399D01*
X106077000Y-77210475D01*
X106077000Y-77729525D01*
X106178261Y-78238601D01*
X106376893Y-78718141D01*
X106665262Y-79149715D01*
X107032285Y-79516738D01*
X107463859Y-79805107D01*
X107943399Y-80003739D01*
X108452475Y-80105000D01*
X108971525Y-80105000D01*
X109480601Y-80003739D01*
X109960141Y-79805107D01*
X110391715Y-79516738D01*
X110758738Y-79149715D01*
X111047107Y-78718141D01*
X111245739Y-78238601D01*
X111347000Y-77729525D01*
X111347000Y-77323740D01*
X112307000Y-77323740D01*
X112307000Y-77616260D01*
X112364068Y-77903158D01*
X112476010Y-78173411D01*
X112638525Y-78416632D01*
X112845368Y-78623475D01*
X113088589Y-78785990D01*
X113358842Y-78897932D01*
X113645740Y-78955000D01*
X113938260Y-78955000D01*
X114225158Y-78897932D01*
X114495411Y-78785990D01*
X114738632Y-78623475D01*
X114945475Y-78416632D01*
X115107990Y-78173411D01*
X115219932Y-77903158D01*
X115277000Y-77616260D01*
X115277000Y-77323740D01*
X115219932Y-77036842D01*
X115107990Y-76766589D01*
X114945475Y-76523368D01*
X114738632Y-76316525D01*
X114495411Y-76154010D01*
X114225158Y-76042068D01*
X113938260Y-75985000D01*
X113645740Y-75985000D01*
X113358842Y-76042068D01*
X113088589Y-76154010D01*
X112845368Y-76316525D01*
X112638525Y-76523368D01*
X112476010Y-76766589D01*
X112364068Y-77036842D01*
X112307000Y-77323740D01*
X111347000Y-77323740D01*
X111347000Y-77210475D01*
X111245739Y-76701399D01*
X111047107Y-76221859D01*
X110758738Y-75790285D01*
X110391715Y-75423262D01*
X109960141Y-75134893D01*
X109624821Y-74995999D01*
X116810524Y-74995999D01*
X116775000Y-75174589D01*
X116775000Y-75447411D01*
X116828225Y-75714989D01*
X116932629Y-75967043D01*
X117084201Y-76193886D01*
X117277114Y-76386799D01*
X117503957Y-76538371D01*
X117606873Y-76581000D01*
X117503957Y-76623629D01*
X117277114Y-76775201D01*
X117084201Y-76968114D01*
X116932629Y-77194957D01*
X116828225Y-77447011D01*
X116775000Y-77714589D01*
X116775000Y-77987411D01*
X116828225Y-78254989D01*
X116932629Y-78507043D01*
X117084201Y-78733886D01*
X117277114Y-78926799D01*
X117503957Y-79078371D01*
X117756011Y-79182775D01*
X118023589Y-79236000D01*
X118296411Y-79236000D01*
X118563989Y-79182775D01*
X118816043Y-79078371D01*
X119042886Y-78926799D01*
X119235799Y-78733886D01*
X119387371Y-78507043D01*
X119491775Y-78254989D01*
X119545000Y-77987411D01*
X119545000Y-77714589D01*
X119491775Y-77447011D01*
X119387371Y-77194957D01*
X119235799Y-76968114D01*
X119042886Y-76775201D01*
X118816043Y-76623629D01*
X118713127Y-76581000D01*
X118816043Y-76538371D01*
X119042886Y-76386799D01*
X119235799Y-76193886D01*
X119387371Y-75967043D01*
X119491775Y-75714989D01*
X119545000Y-75447411D01*
X119545000Y-75174589D01*
X119509476Y-74995999D01*
X122830679Y-74995999D01*
X122868001Y-74999675D01*
X122905323Y-74995999D01*
X122905334Y-74995999D01*
X123016987Y-74985002D01*
X123160248Y-74941545D01*
X123233000Y-74902658D01*
X123233000Y-75100883D01*
X123299675Y-75436081D01*
X123430463Y-75751831D01*
X123586261Y-75985000D01*
X123551740Y-75985000D01*
X123264842Y-76042068D01*
X122994589Y-76154010D01*
X122751368Y-76316525D01*
X122544525Y-76523368D01*
X122382010Y-76766589D01*
X122270068Y-77036842D01*
X122213000Y-77323740D01*
X122213000Y-77616260D01*
X122270068Y-77903158D01*
X122382010Y-78173411D01*
X122544525Y-78416632D01*
X122751368Y-78623475D01*
X122994589Y-78785990D01*
X123264842Y-78897932D01*
X123551740Y-78955000D01*
X123844260Y-78955000D01*
X124131158Y-78897932D01*
X124401411Y-78785990D01*
X124644632Y-78623475D01*
X124851475Y-78416632D01*
X125013990Y-78173411D01*
X125125932Y-77903158D01*
X125183000Y-77616260D01*
X125183000Y-77323740D01*
X125125932Y-77036842D01*
X125013990Y-76766589D01*
X124946110Y-76665000D01*
X125138883Y-76665000D01*
X125474081Y-76598325D01*
X125605001Y-76544096D01*
X125605000Y-83505198D01*
X123383199Y-85727000D01*
X116280043Y-85727000D01*
X116176637Y-85572241D01*
X115976759Y-85372363D01*
X115741727Y-85215320D01*
X115480574Y-85107147D01*
X115203335Y-85052000D01*
X114920665Y-85052000D01*
X114643426Y-85107147D01*
X114382273Y-85215320D01*
X114147241Y-85372363D01*
X113947363Y-85572241D01*
X113790320Y-85807273D01*
X113682147Y-86068426D01*
X113627000Y-86345665D01*
X113627000Y-86628335D01*
X113682147Y-86905574D01*
X113790320Y-87166727D01*
X113947363Y-87401759D01*
X114147241Y-87601637D01*
X114382273Y-87758680D01*
X114643426Y-87866853D01*
X114920665Y-87922000D01*
X115203335Y-87922000D01*
X115480574Y-87866853D01*
X115741727Y-87758680D01*
X115976759Y-87601637D01*
X116176637Y-87401759D01*
X116280043Y-87247000D01*
X118740653Y-87247000D01*
X118652023Y-87335630D01*
X118768296Y-87451903D01*
X118524329Y-87523486D01*
X118403429Y-87778996D01*
X118334700Y-88053184D01*
X118320783Y-88335512D01*
X118362213Y-88615130D01*
X118457397Y-88881292D01*
X118524329Y-89006514D01*
X118768298Y-89078097D01*
X119581395Y-88265000D01*
X119567253Y-88250858D01*
X119746858Y-88071253D01*
X119761000Y-88085395D01*
X119775143Y-88071253D01*
X119954748Y-88250858D01*
X119940605Y-88265000D01*
X120753702Y-89078097D01*
X120997671Y-89006514D01*
X121118571Y-88751004D01*
X121148484Y-88631665D01*
X126073000Y-88631665D01*
X126073000Y-88914335D01*
X126128147Y-89191574D01*
X126236320Y-89452727D01*
X126393363Y-89687759D01*
X126593241Y-89887637D01*
X126828273Y-90044680D01*
X127089426Y-90152853D01*
X127366665Y-90208000D01*
X127649335Y-90208000D01*
X127926574Y-90152853D01*
X128187727Y-90044680D01*
X128422759Y-89887637D01*
X128622637Y-89687759D01*
X128779680Y-89452727D01*
X128887853Y-89191574D01*
X128943000Y-88914335D01*
X128943000Y-88631665D01*
X128887853Y-88354426D01*
X128779680Y-88093273D01*
X128622637Y-87858241D01*
X128422759Y-87658363D01*
X128187727Y-87501320D01*
X127926574Y-87393147D01*
X127649335Y-87338000D01*
X127366665Y-87338000D01*
X127089426Y-87393147D01*
X126828273Y-87501320D01*
X126593241Y-87658363D01*
X126393363Y-87858241D01*
X126236320Y-88093273D01*
X126128147Y-88354426D01*
X126073000Y-88631665D01*
X121148484Y-88631665D01*
X121187300Y-88476816D01*
X121201217Y-88194488D01*
X121159787Y-87914870D01*
X121064603Y-87648708D01*
X120997671Y-87523486D01*
X120753704Y-87451903D01*
X120869977Y-87335630D01*
X120781347Y-87247000D01*
X123660678Y-87247000D01*
X123698000Y-87250676D01*
X123735322Y-87247000D01*
X123735333Y-87247000D01*
X123846986Y-87236003D01*
X123990247Y-87192546D01*
X124122276Y-87121974D01*
X124238001Y-87027001D01*
X124261804Y-86997997D01*
X126876004Y-84383798D01*
X126905001Y-84360001D01*
X126999974Y-84244276D01*
X127070546Y-84112247D01*
X127114003Y-83968986D01*
X127121054Y-83897400D01*
X127370408Y-83947000D01*
X127645592Y-83947000D01*
X127915490Y-83893314D01*
X128169727Y-83788005D01*
X128398535Y-83635120D01*
X128593120Y-83440535D01*
X128746005Y-83211727D01*
X128778000Y-83134485D01*
X128809995Y-83211727D01*
X128962880Y-83440535D01*
X129157465Y-83635120D01*
X129386273Y-83788005D01*
X129640510Y-83893314D01*
X129910408Y-83947000D01*
X130185592Y-83947000D01*
X130455490Y-83893314D01*
X130709727Y-83788005D01*
X130938535Y-83635120D01*
X131133120Y-83440535D01*
X131286005Y-83211727D01*
X131391314Y-82957490D01*
X131445000Y-82687592D01*
X131445000Y-82412408D01*
X131391314Y-82142510D01*
X131286005Y-81888273D01*
X131133120Y-81659465D01*
X130938535Y-81464880D01*
X130709727Y-81311995D01*
X130455490Y-81206686D01*
X130185592Y-81153000D01*
X129910408Y-81153000D01*
X129640510Y-81206686D01*
X129386273Y-81311995D01*
X129157465Y-81464880D01*
X128962880Y-81659465D01*
X128809995Y-81888273D01*
X128778000Y-81965515D01*
X128746005Y-81888273D01*
X128593120Y-81659465D01*
X128398535Y-81464880D01*
X128169727Y-81311995D01*
X127915490Y-81206686D01*
X127645592Y-81153000D01*
X127370408Y-81153000D01*
X127125000Y-81201815D01*
X127125000Y-79534588D01*
X127529859Y-79805107D01*
X128009399Y-80003739D01*
X128518475Y-80105000D01*
X129037525Y-80105000D01*
X129546601Y-80003739D01*
X130026141Y-79805107D01*
X130457715Y-79516738D01*
X130824738Y-79149715D01*
X131113107Y-78718141D01*
X131311739Y-78238601D01*
X131413000Y-77729525D01*
X131413000Y-77210475D01*
X131311739Y-76701399D01*
X131113107Y-76221859D01*
X130824738Y-75790285D01*
X130457715Y-75423262D01*
X130026141Y-75134893D01*
X129546601Y-74936261D01*
X129045261Y-74836539D01*
X130051004Y-73830796D01*
X130080001Y-73806999D01*
X130136904Y-73737663D01*
X130170755Y-73696416D01*
X130212002Y-73737663D01*
X130496169Y-73927537D01*
X130811919Y-74058325D01*
X131147117Y-74125000D01*
X131488883Y-74125000D01*
X131824081Y-74058325D01*
X132139831Y-73927537D01*
X132423998Y-73737663D01*
X132665663Y-73495998D01*
X132855537Y-73211831D01*
X132986325Y-72896081D01*
X133053000Y-72560883D01*
X133053000Y-72219117D01*
X132986325Y-71883919D01*
X132855537Y-71568169D01*
X132665663Y-71284002D01*
X132423998Y-71042337D01*
X132139831Y-70852463D01*
X131824081Y-70721675D01*
X131488883Y-70655000D01*
X131147117Y-70655000D01*
X130811919Y-70721675D01*
X130496169Y-70852463D01*
X130300000Y-70983539D01*
X130300000Y-70118909D01*
X130422886Y-70036799D01*
X130615799Y-69843886D01*
X130767371Y-69617043D01*
X130871775Y-69364989D01*
X130925000Y-69097411D01*
X130925000Y-68824589D01*
X130871775Y-68557011D01*
X130767371Y-68304957D01*
X130615799Y-68078114D01*
X130422886Y-67885201D01*
X130196043Y-67733629D01*
X129943989Y-67629225D01*
X129676411Y-67576000D01*
X129403589Y-67576000D01*
X129136011Y-67629225D01*
X128883957Y-67733629D01*
X128657114Y-67885201D01*
X128464201Y-68078114D01*
X128312629Y-68304957D01*
X128270000Y-68407873D01*
X128227371Y-68304957D01*
X128075799Y-68078114D01*
X127882886Y-67885201D01*
X127795632Y-67826899D01*
X127926574Y-67800853D01*
X128187727Y-67692680D01*
X128422759Y-67535637D01*
X128622637Y-67335759D01*
X128779680Y-67100727D01*
X128887853Y-66839574D01*
X128943000Y-66562335D01*
X128943000Y-66517802D01*
X129357201Y-66932003D01*
X129380999Y-66961001D01*
X129409997Y-66984799D01*
X129496723Y-67055974D01*
X129628753Y-67126546D01*
X129772014Y-67170003D01*
X129883667Y-67181000D01*
X129883676Y-67181000D01*
X129920999Y-67184676D01*
X129958322Y-67181000D01*
X133909957Y-67181000D01*
X134013363Y-67335759D01*
X134213241Y-67535637D01*
X134448273Y-67692680D01*
X134709426Y-67800853D01*
X134986665Y-67856000D01*
X135269335Y-67856000D01*
X135546574Y-67800853D01*
X135807727Y-67692680D01*
X136042759Y-67535637D01*
X136146000Y-67432396D01*
X136146000Y-68725000D01*
X136042061Y-68725000D01*
X135842102Y-68764774D01*
X135653744Y-68842795D01*
X135484226Y-68956063D01*
X135340063Y-69100226D01*
X135226795Y-69269744D01*
X135148774Y-69458102D01*
X135109000Y-69658061D01*
X135109000Y-69735774D01*
X135096050Y-69760001D01*
X135038455Y-69867753D01*
X134994998Y-70011014D01*
X134984001Y-70122667D01*
X134984001Y-70122677D01*
X134980325Y-70159999D01*
X134984001Y-70197321D01*
X134984001Y-76495894D01*
X134804632Y-76316525D01*
X134561411Y-76154010D01*
X134291158Y-76042068D01*
X134004260Y-75985000D01*
X133711740Y-75985000D01*
X133424842Y-76042068D01*
X133154589Y-76154010D01*
X132911368Y-76316525D01*
X132704525Y-76523368D01*
X132542010Y-76766589D01*
X132430068Y-77036842D01*
X132373000Y-77323740D01*
X132373000Y-77616260D01*
X132430068Y-77903158D01*
X132542010Y-78173411D01*
X132704525Y-78416632D01*
X132911368Y-78623475D01*
X133154589Y-78785990D01*
X133424842Y-78897932D01*
X133711740Y-78955000D01*
X134004260Y-78955000D01*
X134291158Y-78897932D01*
X134561411Y-78785990D01*
X134804632Y-78623475D01*
X134984001Y-78444106D01*
X134984002Y-87338530D01*
X134709426Y-87393147D01*
X134448273Y-87501320D01*
X134213241Y-87658363D01*
X134013363Y-87858241D01*
X133856320Y-88093273D01*
X133748147Y-88354426D01*
X133693000Y-88631665D01*
X133693000Y-88914335D01*
X133748147Y-89191574D01*
X133856320Y-89452727D01*
X134013363Y-89687759D01*
X134213241Y-89887637D01*
X134448273Y-90044680D01*
X134709426Y-90152853D01*
X134986665Y-90208000D01*
X135269335Y-90208000D01*
X135546574Y-90152853D01*
X135807727Y-90044680D01*
X136042759Y-89887637D01*
X136242637Y-89687759D01*
X136399680Y-89452727D01*
X136480461Y-89257702D01*
X136981903Y-89257702D01*
X137053486Y-89501671D01*
X137308996Y-89622571D01*
X137583184Y-89691300D01*
X137865512Y-89705217D01*
X138145130Y-89663787D01*
X138411292Y-89568603D01*
X138536514Y-89501671D01*
X138608097Y-89257702D01*
X137795000Y-88444605D01*
X136981903Y-89257702D01*
X136480461Y-89257702D01*
X136507853Y-89191574D01*
X136548370Y-88987882D01*
X136558329Y-89006514D01*
X136802298Y-89078097D01*
X137615395Y-88265000D01*
X137974605Y-88265000D01*
X138787702Y-89078097D01*
X139031671Y-89006514D01*
X139152571Y-88751004D01*
X139221300Y-88476816D01*
X139235217Y-88194488D01*
X139193787Y-87914870D01*
X139098603Y-87648708D01*
X139031671Y-87523486D01*
X138787702Y-87451903D01*
X137974605Y-88265000D01*
X137615395Y-88265000D01*
X136802298Y-87451903D01*
X136558329Y-87523486D01*
X136504001Y-87638303D01*
X136504001Y-87272298D01*
X136981903Y-87272298D01*
X137795000Y-88085395D01*
X138608097Y-87272298D01*
X138536514Y-87028329D01*
X138281004Y-86907429D01*
X138006816Y-86838700D01*
X137724488Y-86824783D01*
X137444870Y-86866213D01*
X137178708Y-86961397D01*
X137053486Y-87028329D01*
X136981903Y-87272298D01*
X136504001Y-87272298D01*
X136504001Y-81278087D01*
X136523320Y-81324727D01*
X136680363Y-81559759D01*
X136880241Y-81759637D01*
X137115273Y-81916680D01*
X137376426Y-82024853D01*
X137653665Y-82080000D01*
X137936335Y-82080000D01*
X138213574Y-82024853D01*
X138474727Y-81916680D01*
X138709759Y-81759637D01*
X138909637Y-81559759D01*
X139066680Y-81324727D01*
X139174853Y-81063574D01*
X139230000Y-80786335D01*
X139230000Y-80503665D01*
X139174853Y-80226426D01*
X139066680Y-79965273D01*
X138909637Y-79730241D01*
X138709759Y-79530363D01*
X138474727Y-79373320D01*
X138213574Y-79265147D01*
X137936335Y-79210000D01*
X137653665Y-79210000D01*
X137471114Y-79246312D01*
X137285000Y-79060199D01*
X137285000Y-78705150D01*
X137304201Y-78733886D01*
X137497114Y-78926799D01*
X137723957Y-79078371D01*
X137976011Y-79182775D01*
X138243589Y-79236000D01*
X138516411Y-79236000D01*
X138783989Y-79182775D01*
X139036043Y-79078371D01*
X139262886Y-78926799D01*
X139294001Y-78895684D01*
X139294001Y-99340000D01*
X115635453Y-99340000D01*
X115753023Y-99297636D01*
X115868980Y-99235656D01*
X115935960Y-98995565D01*
X115150000Y-98209605D01*
X114364040Y-98995565D01*
X114431020Y-99235656D01*
X114652921Y-99340000D01*
X97180000Y-99340000D01*
X97180000Y-98102017D01*
X113748090Y-98102017D01*
X113789078Y-98374133D01*
X113882364Y-98633023D01*
X113944344Y-98748980D01*
X114184435Y-98815960D01*
X114970395Y-98030000D01*
X115329605Y-98030000D01*
X116115565Y-98815960D01*
X116355656Y-98748980D01*
X116472756Y-98499952D01*
X116539023Y-98232865D01*
X116551910Y-97957983D01*
X116510922Y-97685867D01*
X116417636Y-97426977D01*
X116355656Y-97311020D01*
X116115565Y-97244040D01*
X115329605Y-98030000D01*
X114970395Y-98030000D01*
X114184435Y-97244040D01*
X113944344Y-97311020D01*
X113827244Y-97560048D01*
X113760977Y-97827135D01*
X113748090Y-98102017D01*
X97180000Y-98102017D01*
X97180000Y-95352408D01*
X113753000Y-95352408D01*
X113753000Y-95627592D01*
X113806686Y-95897490D01*
X113911995Y-96151727D01*
X114064880Y-96380535D01*
X114259465Y-96575120D01*
X114488273Y-96728005D01*
X114559943Y-96757692D01*
X114546977Y-96762364D01*
X114431020Y-96824344D01*
X114364040Y-97064435D01*
X115150000Y-97850395D01*
X115935960Y-97064435D01*
X115868980Y-96824344D01*
X115733240Y-96760515D01*
X115811727Y-96728005D01*
X116040535Y-96575120D01*
X116235120Y-96380535D01*
X116388005Y-96151727D01*
X116493314Y-95897490D01*
X116547000Y-95627592D01*
X116547000Y-95352408D01*
X116493314Y-95082510D01*
X116388005Y-94828273D01*
X116235120Y-94599465D01*
X116040535Y-94404880D01*
X115811727Y-94251995D01*
X115557490Y-94146686D01*
X115287592Y-94093000D01*
X115012408Y-94093000D01*
X114742510Y-94146686D01*
X114488273Y-94251995D01*
X114259465Y-94404880D01*
X114064880Y-94599465D01*
X113911995Y-94828273D01*
X113806686Y-95082510D01*
X113753000Y-95352408D01*
X97180000Y-95352408D01*
X97180000Y-89257702D01*
X118947903Y-89257702D01*
X119019486Y-89501671D01*
X119274996Y-89622571D01*
X119549184Y-89691300D01*
X119831512Y-89705217D01*
X120111130Y-89663787D01*
X120377292Y-89568603D01*
X120502514Y-89501671D01*
X120574097Y-89257702D01*
X119761000Y-88444605D01*
X118947903Y-89257702D01*
X97180000Y-89257702D01*
X97180000Y-87165655D01*
X97244465Y-87230120D01*
X97473273Y-87383005D01*
X97727510Y-87488314D01*
X97997408Y-87542000D01*
X98272592Y-87542000D01*
X98542490Y-87488314D01*
X98796727Y-87383005D01*
X99025535Y-87230120D01*
X99220120Y-87035535D01*
X99373005Y-86806727D01*
X99478314Y-86552490D01*
X99519454Y-86345665D01*
X106007000Y-86345665D01*
X106007000Y-86628335D01*
X106062147Y-86905574D01*
X106170320Y-87166727D01*
X106327363Y-87401759D01*
X106527241Y-87601637D01*
X106762273Y-87758680D01*
X107023426Y-87866853D01*
X107300665Y-87922000D01*
X107583335Y-87922000D01*
X107860574Y-87866853D01*
X108121727Y-87758680D01*
X108356759Y-87601637D01*
X108556637Y-87401759D01*
X108713680Y-87166727D01*
X108821853Y-86905574D01*
X108877000Y-86628335D01*
X108877000Y-86345665D01*
X108821853Y-86068426D01*
X108713680Y-85807273D01*
X108556637Y-85572241D01*
X108356759Y-85372363D01*
X108202000Y-85268957D01*
X108202000Y-83722341D01*
X108332535Y-83635120D01*
X108527120Y-83440535D01*
X108680005Y-83211727D01*
X108712000Y-83134485D01*
X108743995Y-83211727D01*
X108896880Y-83440535D01*
X109091465Y-83635120D01*
X109320273Y-83788005D01*
X109574510Y-83893314D01*
X109844408Y-83947000D01*
X110119592Y-83947000D01*
X110389490Y-83893314D01*
X110643727Y-83788005D01*
X110872535Y-83635120D01*
X111067120Y-83440535D01*
X111220005Y-83211727D01*
X111325314Y-82957490D01*
X111379000Y-82687592D01*
X111379000Y-82412408D01*
X111325314Y-82142510D01*
X111220005Y-81888273D01*
X111067120Y-81659465D01*
X110872535Y-81464880D01*
X110643727Y-81311995D01*
X110389490Y-81206686D01*
X110119592Y-81153000D01*
X109844408Y-81153000D01*
X109574510Y-81206686D01*
X109320273Y-81311995D01*
X109091465Y-81464880D01*
X108896880Y-81659465D01*
X108743995Y-81888273D01*
X108712000Y-81965515D01*
X108680005Y-81888273D01*
X108527120Y-81659465D01*
X108332535Y-81464880D01*
X108103727Y-81311995D01*
X107849490Y-81206686D01*
X107579592Y-81153000D01*
X107304408Y-81153000D01*
X107034510Y-81206686D01*
X106780273Y-81311995D01*
X106551465Y-81464880D01*
X106356880Y-81659465D01*
X106203995Y-81888273D01*
X106098686Y-82142510D01*
X106045000Y-82412408D01*
X106045000Y-82687592D01*
X106098686Y-82957490D01*
X106203995Y-83211727D01*
X106356880Y-83440535D01*
X106551465Y-83635120D01*
X106682000Y-83722341D01*
X106682001Y-85268956D01*
X106527241Y-85372363D01*
X106327363Y-85572241D01*
X106170320Y-85807273D01*
X106062147Y-86068426D01*
X106007000Y-86345665D01*
X99519454Y-86345665D01*
X99532000Y-86282592D01*
X99532000Y-86007408D01*
X99478314Y-85737510D01*
X99373005Y-85483273D01*
X99220120Y-85254465D01*
X99025535Y-85059880D01*
X98796727Y-84906995D01*
X98719485Y-84875000D01*
X98796727Y-84843005D01*
X99025535Y-84690120D01*
X99220120Y-84495535D01*
X99373005Y-84266727D01*
X99478314Y-84012490D01*
X99532000Y-83742592D01*
X99532000Y-83467408D01*
X99478314Y-83197510D01*
X99373005Y-82943273D01*
X99220120Y-82714465D01*
X99025535Y-82519880D01*
X98796727Y-82366995D01*
X98719485Y-82335000D01*
X98796727Y-82303005D01*
X99025535Y-82150120D01*
X99220120Y-81955535D01*
X99373005Y-81726727D01*
X99478314Y-81472490D01*
X99532000Y-81202592D01*
X99532000Y-80927408D01*
X99478314Y-80657510D01*
X99414589Y-80503665D01*
X118326000Y-80503665D01*
X118326000Y-80786335D01*
X118381147Y-81063574D01*
X118489320Y-81324727D01*
X118646363Y-81559759D01*
X118846241Y-81759637D01*
X119081273Y-81916680D01*
X119342426Y-82024853D01*
X119619665Y-82080000D01*
X119902335Y-82080000D01*
X120179574Y-82024853D01*
X120440727Y-81916680D01*
X120675759Y-81759637D01*
X120875637Y-81559759D01*
X121032680Y-81324727D01*
X121140853Y-81063574D01*
X121196000Y-80786335D01*
X121196000Y-80503665D01*
X121140853Y-80226426D01*
X121032680Y-79965273D01*
X120875637Y-79730241D01*
X120675759Y-79530363D01*
X120440727Y-79373320D01*
X120179574Y-79265147D01*
X119902335Y-79210000D01*
X119619665Y-79210000D01*
X119342426Y-79265147D01*
X119081273Y-79373320D01*
X118846241Y-79530363D01*
X118646363Y-79730241D01*
X118489320Y-79965273D01*
X118381147Y-80226426D01*
X118326000Y-80503665D01*
X99414589Y-80503665D01*
X99373005Y-80403273D01*
X99220120Y-80174465D01*
X99025535Y-79979880D01*
X98796727Y-79826995D01*
X98542490Y-79721686D01*
X98272592Y-79668000D01*
X97997408Y-79668000D01*
X97727510Y-79721686D01*
X97473273Y-79826995D01*
X97244465Y-79979880D01*
X97180000Y-80044345D01*
X97180000Y-68302702D01*
X98881903Y-68302702D01*
X98953486Y-68546671D01*
X99208996Y-68667571D01*
X99483184Y-68736300D01*
X99765512Y-68750217D01*
X100045130Y-68708787D01*
X100311292Y-68613603D01*
X100436514Y-68546671D01*
X100508097Y-68302702D01*
X99695000Y-67489605D01*
X98881903Y-68302702D01*
X97180000Y-68302702D01*
X97180000Y-67380512D01*
X98254783Y-67380512D01*
X98296213Y-67660130D01*
X98391397Y-67926292D01*
X98458329Y-68051514D01*
X98702298Y-68123097D01*
X99515395Y-67310000D01*
X99874605Y-67310000D01*
X100687702Y-68123097D01*
X100931671Y-68051514D01*
X101052571Y-67796004D01*
X101121300Y-67521816D01*
X101135217Y-67239488D01*
X101093787Y-66959870D01*
X100998603Y-66693708D01*
X100931671Y-66568486D01*
X100687702Y-66496903D01*
X99874605Y-67310000D01*
X99515395Y-67310000D01*
X98702298Y-66496903D01*
X98458329Y-66568486D01*
X98337429Y-66823996D01*
X98268700Y-67098184D01*
X98254783Y-67380512D01*
X97180000Y-67380512D01*
X97180000Y-66317298D01*
X98881903Y-66317298D01*
X99695000Y-67130395D01*
X100508097Y-66317298D01*
X100497056Y-66279665D01*
X106007000Y-66279665D01*
X106007000Y-66562335D01*
X106062147Y-66839574D01*
X106170320Y-67100727D01*
X106327363Y-67335759D01*
X106527241Y-67535637D01*
X106762273Y-67692680D01*
X107023426Y-67800853D01*
X107300665Y-67856000D01*
X107583335Y-67856000D01*
X107860574Y-67800853D01*
X108121727Y-67692680D01*
X108356759Y-67535637D01*
X108556637Y-67335759D01*
X108713680Y-67100727D01*
X108821853Y-66839574D01*
X108877000Y-66562335D01*
X108877000Y-66279665D01*
X113627000Y-66279665D01*
X113627000Y-66562335D01*
X113682147Y-66839574D01*
X113790320Y-67100727D01*
X113947363Y-67335759D01*
X114147241Y-67535637D01*
X114382273Y-67692680D01*
X114643426Y-67800853D01*
X114920665Y-67856000D01*
X115203335Y-67856000D01*
X115480574Y-67800853D01*
X115741727Y-67692680D01*
X115976759Y-67535637D01*
X116176637Y-67335759D01*
X116333680Y-67100727D01*
X116441853Y-66839574D01*
X116497000Y-66562335D01*
X116497000Y-66279665D01*
X116441853Y-66002426D01*
X116333680Y-65741273D01*
X116176637Y-65506241D01*
X115976759Y-65306363D01*
X115741727Y-65149320D01*
X115480574Y-65041147D01*
X115203335Y-64986000D01*
X114920665Y-64986000D01*
X114643426Y-65041147D01*
X114382273Y-65149320D01*
X114147241Y-65306363D01*
X113947363Y-65506241D01*
X113790320Y-65741273D01*
X113682147Y-66002426D01*
X113627000Y-66279665D01*
X108877000Y-66279665D01*
X108821853Y-66002426D01*
X108713680Y-65741273D01*
X108556637Y-65506241D01*
X108356759Y-65306363D01*
X108202000Y-65202957D01*
X108202000Y-63656341D01*
X108332535Y-63569120D01*
X108527120Y-63374535D01*
X108680005Y-63145727D01*
X108712000Y-63068485D01*
X108743995Y-63145727D01*
X108896880Y-63374535D01*
X109091465Y-63569120D01*
X109320273Y-63722005D01*
X109574510Y-63827314D01*
X109844408Y-63881000D01*
X110119592Y-63881000D01*
X110389490Y-63827314D01*
X110643727Y-63722005D01*
X110872535Y-63569120D01*
X111067120Y-63374535D01*
X111220005Y-63145727D01*
X111325314Y-62891490D01*
X111379000Y-62621592D01*
X111379000Y-62346408D01*
X111325314Y-62076510D01*
X111220005Y-61822273D01*
X111067120Y-61593465D01*
X110872535Y-61398880D01*
X110643727Y-61245995D01*
X110389490Y-61140686D01*
X110119592Y-61087000D01*
X109844408Y-61087000D01*
X109574510Y-61140686D01*
X109320273Y-61245995D01*
X109091465Y-61398880D01*
X108896880Y-61593465D01*
X108743995Y-61822273D01*
X108712000Y-61899515D01*
X108680005Y-61822273D01*
X108527120Y-61593465D01*
X108332535Y-61398880D01*
X108103727Y-61245995D01*
X107849490Y-61140686D01*
X107579592Y-61087000D01*
X107304408Y-61087000D01*
X107034510Y-61140686D01*
X106780273Y-61245995D01*
X106551465Y-61398880D01*
X106356880Y-61593465D01*
X106203995Y-61822273D01*
X106098686Y-62076510D01*
X106045000Y-62346408D01*
X106045000Y-62621592D01*
X106098686Y-62891490D01*
X106203995Y-63145727D01*
X106356880Y-63374535D01*
X106551465Y-63569120D01*
X106682000Y-63656341D01*
X106682001Y-65202956D01*
X106527241Y-65306363D01*
X106327363Y-65506241D01*
X106170320Y-65741273D01*
X106062147Y-66002426D01*
X106007000Y-66279665D01*
X100497056Y-66279665D01*
X100436514Y-66073329D01*
X100181004Y-65952429D01*
X99906816Y-65883700D01*
X99624488Y-65869783D01*
X99344870Y-65911213D01*
X99078708Y-66006397D01*
X98953486Y-66073329D01*
X98881903Y-66317298D01*
X97180000Y-66317298D01*
X97180000Y-63476702D01*
X98881903Y-63476702D01*
X98953486Y-63720671D01*
X99208996Y-63841571D01*
X99483184Y-63910300D01*
X99765512Y-63924217D01*
X100045130Y-63882787D01*
X100311292Y-63787603D01*
X100436514Y-63720671D01*
X100508097Y-63476702D01*
X99695000Y-62663605D01*
X98881903Y-63476702D01*
X97180000Y-63476702D01*
X97180000Y-62554512D01*
X98254783Y-62554512D01*
X98296213Y-62834130D01*
X98391397Y-63100292D01*
X98458329Y-63225514D01*
X98702298Y-63297097D01*
X99515395Y-62484000D01*
X99874605Y-62484000D01*
X100687702Y-63297097D01*
X100931671Y-63225514D01*
X101052571Y-62970004D01*
X101121300Y-62695816D01*
X101135217Y-62413488D01*
X101093787Y-62133870D01*
X100998603Y-61867708D01*
X100931671Y-61742486D01*
X100687702Y-61670903D01*
X99874605Y-62484000D01*
X99515395Y-62484000D01*
X98702298Y-61670903D01*
X98458329Y-61742486D01*
X98337429Y-61997996D01*
X98268700Y-62272184D01*
X98254783Y-62554512D01*
X97180000Y-62554512D01*
X97180000Y-61491298D01*
X98881903Y-61491298D01*
X99695000Y-62304395D01*
X100508097Y-61491298D01*
X100436514Y-61247329D01*
X100181004Y-61126429D01*
X99906816Y-61057700D01*
X99624488Y-61043783D01*
X99344870Y-61085213D01*
X99078708Y-61180397D01*
X98953486Y-61247329D01*
X98881903Y-61491298D01*
X97180000Y-61491298D01*
X97180000Y-50660000D01*
X110735478Y-50660000D01*
X110430169Y-50786463D01*
G37*
X110430169Y-50786463D02*
X110146002Y-50976337D01*
X109904337Y-51218002D01*
X109714463Y-51502169D01*
X109583675Y-51817919D01*
X109517000Y-52153117D01*
X109517000Y-52494883D01*
X109583675Y-52830081D01*
X109714463Y-53145831D01*
X109904337Y-53429998D01*
X110146002Y-53671663D01*
X110430169Y-53861537D01*
X110745919Y-53992325D01*
X111081117Y-54059000D01*
X111422883Y-54059000D01*
X111758081Y-53992325D01*
X112073831Y-53861537D01*
X112357998Y-53671663D01*
X112599663Y-53429998D01*
X112789537Y-53145831D01*
X112920325Y-52830081D01*
X112987000Y-52494883D01*
X112987000Y-52153117D01*
X112920325Y-51817919D01*
X112789537Y-51502169D01*
X112599663Y-51218002D01*
X112357998Y-50976337D01*
X112073831Y-50786463D01*
X111768522Y-50660000D01*
X130801478Y-50660000D01*
X130496169Y-50786463D01*
X130212002Y-50976337D01*
X129970337Y-51218002D01*
X129780463Y-51502169D01*
X129649675Y-51817919D01*
X129583000Y-52153117D01*
X129583000Y-52494883D01*
X129649675Y-52830081D01*
X129780463Y-53145831D01*
X129970337Y-53429998D01*
X130212002Y-53671663D01*
X130496169Y-53861537D01*
X130811919Y-53992325D01*
X131147117Y-54059000D01*
X131488883Y-54059000D01*
X131824081Y-53992325D01*
X132139831Y-53861537D01*
X132423998Y-53671663D01*
X132665663Y-53429998D01*
X132855537Y-53145831D01*
X132986325Y-52830081D01*
X133053000Y-52494883D01*
X133053000Y-52153117D01*
X132986325Y-51817919D01*
X132855537Y-51502169D01*
X132665663Y-51218002D01*
X132423998Y-50976337D01*
X132139831Y-50786463D01*
X131834522Y-50660000D01*
X139294000Y-50660000D01*
X139294000Y-51406315D01*
X139262886Y-51375201D01*
X139036043Y-51223629D01*
X138783989Y-51119225D01*
X138516411Y-51066000D01*
X138243589Y-51066000D01*
X137976011Y-51119225D01*
X137723957Y-51223629D01*
X137497114Y-51375201D01*
X137304201Y-51568114D01*
X137152629Y-51794957D01*
X137048225Y-52047011D01*
X136995000Y-52314589D01*
X136995000Y-52587411D01*
X137048225Y-52854989D01*
X137152629Y-53107043D01*
X137304201Y-53333886D01*
X137497114Y-53526799D01*
X137723957Y-53678371D01*
X137823279Y-53719511D01*
X137781168Y-53734723D01*
X137668137Y-53795140D01*
X137602612Y-54034007D01*
X138380000Y-54811395D01*
X138394143Y-54797253D01*
X138573748Y-54976858D01*
X138559605Y-54991000D01*
X138573748Y-55005143D01*
X138394143Y-55184748D01*
X138380000Y-55170605D01*
X137602612Y-55947993D01*
X137668137Y-56186860D01*
X137826477Y-56261164D01*
X137723957Y-56303629D01*
X137497114Y-56455201D01*
X137304201Y-56648114D01*
X137152629Y-56874957D01*
X137091452Y-57022651D01*
X135132293Y-55063492D01*
X136990188Y-55063492D01*
X137031035Y-55333238D01*
X137123723Y-55589832D01*
X137184140Y-55702863D01*
X137423007Y-55768388D01*
X138200395Y-54991000D01*
X137423007Y-54213612D01*
X137184140Y-54279137D01*
X137068240Y-54526116D01*
X137002750Y-54790960D01*
X136990188Y-55063492D01*
X135132293Y-55063492D01*
X134421804Y-54353003D01*
X134398001Y-54323999D01*
X134282276Y-54229026D01*
X134150247Y-54158454D01*
X134006986Y-54114997D01*
X133895333Y-54104000D01*
X133895322Y-54104000D01*
X133858000Y-54100324D01*
X133820678Y-54104000D01*
X126531148Y-54104000D01*
X126505537Y-54042169D01*
X126315663Y-53758002D01*
X126073998Y-53516337D01*
X125789831Y-53326463D01*
X125474081Y-53195675D01*
X125138883Y-53129000D01*
X124797117Y-53129000D01*
X124461919Y-53195675D01*
X124146169Y-53326463D01*
X123862002Y-53516337D01*
X123620337Y-53758002D01*
X123430463Y-54042169D01*
X123299675Y-54357919D01*
X123233000Y-54693117D01*
X123233000Y-55034883D01*
X123299675Y-55370081D01*
X123430463Y-55685831D01*
X123586261Y-55919000D01*
X123551740Y-55919000D01*
X123264842Y-55976068D01*
X122994589Y-56088010D01*
X122751368Y-56250525D01*
X122544525Y-56457368D01*
X122382010Y-56700589D01*
X122270068Y-56970842D01*
X122213000Y-57257740D01*
X122213000Y-57550260D01*
X122270068Y-57837158D01*
X122382010Y-58107411D01*
X122544525Y-58350632D01*
X122751368Y-58557475D01*
X122994589Y-58719990D01*
X123264842Y-58831932D01*
X123551740Y-58889000D01*
X123844260Y-58889000D01*
X124131158Y-58831932D01*
X124401411Y-58719990D01*
X124644632Y-58557475D01*
X124851475Y-58350632D01*
X125013990Y-58107411D01*
X125125932Y-57837158D01*
X125183000Y-57550260D01*
X125183000Y-57257740D01*
X125125932Y-56970842D01*
X125013990Y-56700589D01*
X124946110Y-56599000D01*
X125138883Y-56599000D01*
X125474081Y-56532325D01*
X125789831Y-56401537D01*
X126073998Y-56211663D01*
X126315663Y-55969998D01*
X126505537Y-55685831D01*
X126531148Y-55624000D01*
X126831547Y-55624000D01*
X126731262Y-55724285D01*
X126442893Y-56155859D01*
X126244261Y-56635399D01*
X126143000Y-57144475D01*
X126143000Y-57663525D01*
X126244261Y-58172601D01*
X126442893Y-58652141D01*
X126731262Y-59083715D01*
X127098285Y-59450738D01*
X127529859Y-59739107D01*
X128009399Y-59937739D01*
X128518475Y-60039000D01*
X129037525Y-60039000D01*
X129546601Y-59937739D01*
X130026141Y-59739107D01*
X130457715Y-59450738D01*
X130824738Y-59083715D01*
X131113107Y-58652141D01*
X131311739Y-58172601D01*
X131413000Y-57663525D01*
X131413000Y-57144475D01*
X131311739Y-56635399D01*
X131113107Y-56155859D01*
X130824738Y-55724285D01*
X130724453Y-55624000D01*
X133543199Y-55624000D01*
X133838199Y-55919000D01*
X133711740Y-55919000D01*
X133424842Y-55976068D01*
X133154589Y-56088010D01*
X132911368Y-56250525D01*
X132704525Y-56457368D01*
X132542010Y-56700589D01*
X132430068Y-56970842D01*
X132373000Y-57257740D01*
X132373000Y-57550260D01*
X132430068Y-57837158D01*
X132542010Y-58107411D01*
X132704525Y-58350632D01*
X132911368Y-58557475D01*
X133154589Y-58719990D01*
X133424842Y-58831932D01*
X133711740Y-58889000D01*
X134004260Y-58889000D01*
X134291158Y-58831932D01*
X134561411Y-58719990D01*
X134804632Y-58557475D01*
X135011475Y-58350632D01*
X135173990Y-58107411D01*
X135285932Y-57837158D01*
X135343000Y-57550260D01*
X135343000Y-57423802D01*
X136146001Y-58226803D01*
X136146001Y-65409605D01*
X136042759Y-65306363D01*
X135807727Y-65149320D01*
X135546574Y-65041147D01*
X135269335Y-64986000D01*
X134986665Y-64986000D01*
X134709426Y-65041147D01*
X134448273Y-65149320D01*
X134213241Y-65306363D01*
X134013363Y-65506241D01*
X133909957Y-65661000D01*
X130235802Y-65661000D01*
X129341804Y-64767002D01*
X129318001Y-64737999D01*
X129202276Y-64643026D01*
X129070247Y-64572454D01*
X128926986Y-64528997D01*
X128815333Y-64518000D01*
X128815322Y-64518000D01*
X128778000Y-64514324D01*
X128740678Y-64518000D01*
X125671711Y-64518000D01*
X125627774Y-64474063D01*
X125458256Y-64360795D01*
X125269898Y-64282774D01*
X125069939Y-64243000D01*
X124866061Y-64243000D01*
X124666102Y-64282774D01*
X124477744Y-64360795D01*
X124308226Y-64474063D01*
X124164063Y-64618226D01*
X124050795Y-64787744D01*
X123972774Y-64976102D01*
X123933000Y-65176061D01*
X123933000Y-65379939D01*
X123972774Y-65579898D01*
X124050795Y-65768256D01*
X124164063Y-65937774D01*
X124308226Y-66081937D01*
X124477744Y-66195205D01*
X124666102Y-66273226D01*
X124866061Y-66313000D01*
X125069939Y-66313000D01*
X125269898Y-66273226D01*
X125458256Y-66195205D01*
X125627774Y-66081937D01*
X125671711Y-66038000D01*
X126121071Y-66038000D01*
X126073000Y-66279665D01*
X126073000Y-66562335D01*
X126128147Y-66839574D01*
X126236320Y-67100727D01*
X126393363Y-67335759D01*
X126593241Y-67535637D01*
X126701810Y-67608180D01*
X126596011Y-67629225D01*
X126343957Y-67733629D01*
X126117114Y-67885201D01*
X125924201Y-68078114D01*
X125772629Y-68304957D01*
X125668225Y-68557011D01*
X125615000Y-68824589D01*
X125615000Y-69097411D01*
X125668225Y-69364989D01*
X125772629Y-69617043D01*
X125924201Y-69843886D01*
X126117114Y-70036799D01*
X126343957Y-70188371D01*
X126596011Y-70292775D01*
X126863589Y-70346000D01*
X127136411Y-70346000D01*
X127403989Y-70292775D01*
X127656043Y-70188371D01*
X127882886Y-70036799D01*
X128075799Y-69843886D01*
X128227371Y-69617043D01*
X128270000Y-69514127D01*
X128312629Y-69617043D01*
X128464201Y-69843886D01*
X128657114Y-70036799D01*
X128780001Y-70118909D01*
X128780000Y-72952196D01*
X126703000Y-75029197D01*
X126703000Y-74759117D01*
X126636325Y-74423919D01*
X126505537Y-74108169D01*
X126315663Y-73824002D01*
X126073998Y-73582337D01*
X125789831Y-73392463D01*
X125728000Y-73366852D01*
X125728000Y-71306827D01*
X125754774Y-71288937D01*
X125898937Y-71144774D01*
X126012205Y-70975256D01*
X126090226Y-70786898D01*
X126130000Y-70586939D01*
X126130000Y-70383061D01*
X126090226Y-70183102D01*
X126012205Y-69994744D01*
X125898937Y-69825226D01*
X125754774Y-69681063D01*
X125585256Y-69567795D01*
X125396898Y-69489774D01*
X125196939Y-69450000D01*
X124993061Y-69450000D01*
X124793102Y-69489774D01*
X124604744Y-69567795D01*
X124435226Y-69681063D01*
X124291063Y-69825226D01*
X124177795Y-69994744D01*
X124099774Y-70183102D01*
X124060000Y-70383061D01*
X124060000Y-70586939D01*
X124099774Y-70786898D01*
X124177795Y-70975256D01*
X124208001Y-71020462D01*
X124208001Y-72147645D01*
X124053939Y-72117000D01*
X123850061Y-72117000D01*
X123650102Y-72156774D01*
X123461744Y-72234795D01*
X123292226Y-72348063D01*
X123148063Y-72492226D01*
X123034795Y-72661744D01*
X122956774Y-72850102D01*
X122917000Y-73050061D01*
X122917000Y-73112198D01*
X122553200Y-73475999D01*
X119354660Y-73475999D01*
X119387371Y-73427043D01*
X119491775Y-73174989D01*
X119545000Y-72907411D01*
X119545000Y-72634589D01*
X119491775Y-72367011D01*
X119387371Y-72114957D01*
X119235799Y-71888114D01*
X119042886Y-71695201D01*
X118816043Y-71543629D01*
X118713127Y-71501000D01*
X118816043Y-71458371D01*
X119042886Y-71306799D01*
X119235799Y-71113886D01*
X119387371Y-70887043D01*
X119491775Y-70634989D01*
X119545000Y-70367411D01*
X119545000Y-70094589D01*
X119491775Y-69827011D01*
X119387371Y-69574957D01*
X119235799Y-69348114D01*
X119042886Y-69155201D01*
X118816043Y-69003629D01*
X118713127Y-68961000D01*
X118816043Y-68918371D01*
X119042886Y-68766799D01*
X119235799Y-68573886D01*
X119387371Y-68347043D01*
X119491775Y-68094989D01*
X119545000Y-67827411D01*
X119545000Y-67554589D01*
X119491775Y-67287011D01*
X119387371Y-67034957D01*
X119235799Y-66808114D01*
X119042886Y-66615201D01*
X118816043Y-66463629D01*
X118713127Y-66421000D01*
X118816043Y-66378371D01*
X119042886Y-66226799D01*
X119235799Y-66033886D01*
X119387371Y-65807043D01*
X119491775Y-65554989D01*
X119545000Y-65287411D01*
X119545000Y-65014589D01*
X119491775Y-64747011D01*
X119387371Y-64494957D01*
X119235799Y-64268114D01*
X119042886Y-64075201D01*
X118816043Y-63923629D01*
X118713127Y-63881000D01*
X118816043Y-63838371D01*
X119042886Y-63686799D01*
X119235799Y-63493886D01*
X119387371Y-63267043D01*
X119491775Y-63014989D01*
X119545000Y-62747411D01*
X119545000Y-62474589D01*
X119519504Y-62346408D01*
X126111000Y-62346408D01*
X126111000Y-62621592D01*
X126164686Y-62891490D01*
X126269995Y-63145727D01*
X126422880Y-63374535D01*
X126617465Y-63569120D01*
X126846273Y-63722005D01*
X127100510Y-63827314D01*
X127370408Y-63881000D01*
X127645592Y-63881000D01*
X127915490Y-63827314D01*
X128169727Y-63722005D01*
X128398535Y-63569120D01*
X128593120Y-63374535D01*
X128746005Y-63145727D01*
X128778000Y-63068485D01*
X128809995Y-63145727D01*
X128962880Y-63374535D01*
X129157465Y-63569120D01*
X129386273Y-63722005D01*
X129640510Y-63827314D01*
X129910408Y-63881000D01*
X130185592Y-63881000D01*
X130455490Y-63827314D01*
X130709727Y-63722005D01*
X130938535Y-63569120D01*
X131133120Y-63374535D01*
X131286005Y-63145727D01*
X131391314Y-62891490D01*
X131445000Y-62621592D01*
X131445000Y-62346408D01*
X131391314Y-62076510D01*
X131286005Y-61822273D01*
X131133120Y-61593465D01*
X130938535Y-61398880D01*
X130709727Y-61245995D01*
X130455490Y-61140686D01*
X130185592Y-61087000D01*
X129910408Y-61087000D01*
X129640510Y-61140686D01*
X129386273Y-61245995D01*
X129157465Y-61398880D01*
X128962880Y-61593465D01*
X128809995Y-61822273D01*
X128778000Y-61899515D01*
X128746005Y-61822273D01*
X128593120Y-61593465D01*
X128398535Y-61398880D01*
X128169727Y-61245995D01*
X127915490Y-61140686D01*
X127645592Y-61087000D01*
X127370408Y-61087000D01*
X127100510Y-61140686D01*
X126846273Y-61245995D01*
X126617465Y-61398880D01*
X126422880Y-61593465D01*
X126269995Y-61822273D01*
X126164686Y-62076510D01*
X126111000Y-62346408D01*
X119519504Y-62346408D01*
X119491775Y-62207011D01*
X119387371Y-61954957D01*
X119235799Y-61728114D01*
X119042886Y-61535201D01*
X118816043Y-61383629D01*
X118713127Y-61341000D01*
X118816043Y-61298371D01*
X119042886Y-61146799D01*
X119235799Y-60953886D01*
X119387371Y-60727043D01*
X119491775Y-60474989D01*
X119545000Y-60207411D01*
X119545000Y-59934589D01*
X119491775Y-59667011D01*
X119387371Y-59414957D01*
X119235799Y-59188114D01*
X119042886Y-58995201D01*
X118816043Y-58843629D01*
X118713127Y-58801000D01*
X118816043Y-58758371D01*
X119042886Y-58606799D01*
X119235799Y-58413886D01*
X119387371Y-58187043D01*
X119491775Y-57934989D01*
X119545000Y-57667411D01*
X119545000Y-57394589D01*
X119491775Y-57127011D01*
X119387371Y-56874957D01*
X119235799Y-56648114D01*
X119042886Y-56455201D01*
X118816043Y-56303629D01*
X118713127Y-56261000D01*
X118816043Y-56218371D01*
X119042886Y-56066799D01*
X119235799Y-55873886D01*
X119387371Y-55647043D01*
X119491775Y-55394989D01*
X119545000Y-55127411D01*
X119545000Y-54854589D01*
X119491775Y-54587011D01*
X119387371Y-54334957D01*
X119235799Y-54108114D01*
X119042886Y-53915201D01*
X118816043Y-53763629D01*
X118713127Y-53721000D01*
X118816043Y-53678371D01*
X119042886Y-53526799D01*
X119235799Y-53333886D01*
X119387371Y-53107043D01*
X119491775Y-52854989D01*
X119545000Y-52587411D01*
X119545000Y-52314589D01*
X119491775Y-52047011D01*
X119387371Y-51794957D01*
X119235799Y-51568114D01*
X119042886Y-51375201D01*
X118816043Y-51223629D01*
X118563989Y-51119225D01*
X118296411Y-51066000D01*
X118023589Y-51066000D01*
X117756011Y-51119225D01*
X117503957Y-51223629D01*
X117277114Y-51375201D01*
X117084201Y-51568114D01*
X116932629Y-51794957D01*
X116828225Y-52047011D01*
X116775000Y-52314589D01*
X116775000Y-52587411D01*
X116828225Y-52854989D01*
X116932629Y-53107043D01*
X117084201Y-53333886D01*
X117277114Y-53526799D01*
X117503957Y-53678371D01*
X117606873Y-53721000D01*
X117503957Y-53763629D01*
X117277114Y-53915201D01*
X117084201Y-54108114D01*
X116932629Y-54334957D01*
X116828225Y-54587011D01*
X116775000Y-54854589D01*
X116775000Y-55127411D01*
X116828225Y-55394989D01*
X116932629Y-55647043D01*
X117084201Y-55873886D01*
X117277114Y-56066799D01*
X117503957Y-56218371D01*
X117606873Y-56261000D01*
X117503957Y-56303629D01*
X117277114Y-56455201D01*
X117084201Y-56648114D01*
X116932629Y-56874957D01*
X116828225Y-57127011D01*
X116775000Y-57394589D01*
X116775000Y-57667411D01*
X116828225Y-57934989D01*
X116932629Y-58187043D01*
X117084201Y-58413886D01*
X117277114Y-58606799D01*
X117503957Y-58758371D01*
X117606873Y-58801000D01*
X117503957Y-58843629D01*
X117277114Y-58995201D01*
X117084201Y-59188114D01*
X117002091Y-59311000D01*
X115034800Y-59311000D01*
X114458909Y-58735109D01*
X114495411Y-58719990D01*
X114738632Y-58557475D01*
X114945475Y-58350632D01*
X115107990Y-58107411D01*
X115219932Y-57837158D01*
X115277000Y-57550260D01*
X115277000Y-57257740D01*
X115219932Y-56970842D01*
X115107990Y-56700589D01*
X114945475Y-56457368D01*
X114738632Y-56250525D01*
X114495411Y-56088010D01*
X114225158Y-55976068D01*
X113938260Y-55919000D01*
X113645740Y-55919000D01*
X113358842Y-55976068D01*
X113088589Y-56088010D01*
X112845368Y-56250525D01*
X112638525Y-56457368D01*
X112476010Y-56700589D01*
X112460890Y-56737091D01*
X110076802Y-54353003D01*
X110052999Y-54323999D01*
X109937274Y-54229026D01*
X109805245Y-54158454D01*
X109661984Y-54114997D01*
X109550331Y-54104000D01*
X109550320Y-54104000D01*
X109512998Y-54100324D01*
X109475676Y-54104000D01*
X106465148Y-54104000D01*
X106439537Y-54042169D01*
X106249663Y-53758002D01*
X106007998Y-53516337D01*
X105723831Y-53326463D01*
X105408081Y-53195675D01*
X105072883Y-53129000D01*
X104731117Y-53129000D01*
X104395919Y-53195675D01*
X104080169Y-53326463D01*
X103796002Y-53516337D01*
X103554337Y-53758002D01*
X103364463Y-54042169D01*
X103338852Y-54104000D01*
X100913043Y-54104000D01*
X100809637Y-53949241D01*
X100609759Y-53749363D01*
X100374727Y-53592320D01*
X100113574Y-53484147D01*
X99836335Y-53429000D01*
X99553665Y-53429000D01*
X99276426Y-53484147D01*
X99015273Y-53592320D01*
X98780241Y-53749363D01*
X98580363Y-53949241D01*
X98423320Y-54184273D01*
X98315147Y-54445426D01*
X98260000Y-54722665D01*
X98260000Y-55005335D01*
X98315147Y-55282574D01*
X98423320Y-55543727D01*
X98580363Y-55778759D01*
X98780241Y-55978637D01*
X99015273Y-56135680D01*
X99276426Y-56243853D01*
X99553665Y-56299000D01*
X99836335Y-56299000D01*
X100113574Y-56243853D01*
X100374727Y-56135680D01*
X100609759Y-55978637D01*
X100809637Y-55778759D01*
X100913043Y-55624000D01*
X103338852Y-55624000D01*
X103364463Y-55685831D01*
X103520261Y-55919000D01*
X103485740Y-55919000D01*
X103198842Y-55976068D01*
X102928589Y-56088010D01*
X102685368Y-56250525D01*
X102478525Y-56457368D01*
X102316010Y-56700589D01*
X102204068Y-56970842D01*
X102147000Y-57257740D01*
X102147000Y-57550260D01*
X102204068Y-57837158D01*
X102316010Y-58107411D01*
X102478525Y-58350632D01*
X102685368Y-58557475D01*
X102928589Y-58719990D01*
X103198842Y-58831932D01*
X103485740Y-58889000D01*
X103778260Y-58889000D01*
X104065158Y-58831932D01*
X104335411Y-58719990D01*
X104578632Y-58557475D01*
X104785475Y-58350632D01*
X104947990Y-58107411D01*
X105059932Y-57837158D01*
X105117000Y-57550260D01*
X105117000Y-57257740D01*
X105059932Y-56970842D01*
X104947990Y-56700589D01*
X104880110Y-56599000D01*
X105072883Y-56599000D01*
X105408081Y-56532325D01*
X105723831Y-56401537D01*
X106007998Y-56211663D01*
X106249663Y-55969998D01*
X106439537Y-55685831D01*
X106465148Y-55624000D01*
X106765547Y-55624000D01*
X106665262Y-55724285D01*
X106376893Y-56155859D01*
X106178261Y-56635399D01*
X106077000Y-57144475D01*
X106077000Y-57663525D01*
X106178261Y-58172601D01*
X106376893Y-58652141D01*
X106665262Y-59083715D01*
X107032285Y-59450738D01*
X107463859Y-59739107D01*
X107943399Y-59937739D01*
X108452475Y-60039000D01*
X108971525Y-60039000D01*
X109480601Y-59937739D01*
X109960141Y-59739107D01*
X110391715Y-59450738D01*
X110758738Y-59083715D01*
X111047107Y-58652141D01*
X111245739Y-58172601D01*
X111328870Y-57754673D01*
X114156199Y-60582003D01*
X114179997Y-60611001D01*
X114208995Y-60634799D01*
X114295721Y-60705974D01*
X114427751Y-60776546D01*
X114571012Y-60820003D01*
X114682665Y-60831000D01*
X114682675Y-60831000D01*
X114719997Y-60834676D01*
X114757320Y-60831000D01*
X117002091Y-60831000D01*
X117084201Y-60953886D01*
X117277114Y-61146799D01*
X117503957Y-61298371D01*
X117606873Y-61341000D01*
X117503957Y-61383629D01*
X117277114Y-61535201D01*
X117084201Y-61728114D01*
X116932629Y-61954957D01*
X116828225Y-62207011D01*
X116775000Y-62474589D01*
X116775000Y-62747411D01*
X116828225Y-63014989D01*
X116932629Y-63267043D01*
X117084201Y-63493886D01*
X117277114Y-63686799D01*
X117503957Y-63838371D01*
X117606873Y-63881000D01*
X117503957Y-63923629D01*
X117277114Y-64075201D01*
X117084201Y-64268114D01*
X116932629Y-64494957D01*
X116828225Y-64747011D01*
X116775000Y-65014589D01*
X116775000Y-65287411D01*
X116828225Y-65554989D01*
X116932629Y-65807043D01*
X117084201Y-66033886D01*
X117277114Y-66226799D01*
X117503957Y-66378371D01*
X117606873Y-66421000D01*
X117503957Y-66463629D01*
X117277114Y-66615201D01*
X117084201Y-66808114D01*
X116932629Y-67034957D01*
X116828225Y-67287011D01*
X116775000Y-67554589D01*
X116775000Y-67827411D01*
X116828225Y-68094989D01*
X116932629Y-68347043D01*
X117084201Y-68573886D01*
X117277114Y-68766799D01*
X117503957Y-68918371D01*
X117606873Y-68961000D01*
X117503957Y-69003629D01*
X117277114Y-69155201D01*
X117084201Y-69348114D01*
X116932629Y-69574957D01*
X116828225Y-69827011D01*
X116775000Y-70094589D01*
X116775000Y-70367411D01*
X116828225Y-70634989D01*
X116932629Y-70887043D01*
X117084201Y-71113886D01*
X117277114Y-71306799D01*
X117503957Y-71458371D01*
X117606873Y-71501000D01*
X117503957Y-71543629D01*
X117277114Y-71695201D01*
X117084201Y-71888114D01*
X116932629Y-72114957D01*
X116828225Y-72367011D01*
X116775000Y-72634589D01*
X116775000Y-72907411D01*
X116828225Y-73174989D01*
X116932629Y-73427043D01*
X116965340Y-73475999D01*
X112613026Y-73475999D01*
X112789537Y-73211831D01*
X112920325Y-72896081D01*
X112987000Y-72560883D01*
X112987000Y-72219117D01*
X112920325Y-71883919D01*
X112789537Y-71568169D01*
X112599663Y-71284002D01*
X112357998Y-71042337D01*
X112073831Y-70852463D01*
X111758081Y-70721675D01*
X111422883Y-70655000D01*
X111081117Y-70655000D01*
X110745919Y-70721675D01*
X110430169Y-70852463D01*
X110146002Y-71042337D01*
X109904337Y-71284002D01*
X109714463Y-71568169D01*
X109583675Y-71883919D01*
X109517000Y-72219117D01*
X109517000Y-72560883D01*
X109583675Y-72896081D01*
X109714463Y-73211831D01*
X109890974Y-73475999D01*
X105848852Y-73475999D01*
X105723831Y-73392463D01*
X105408081Y-73261675D01*
X105072883Y-73195000D01*
X104731117Y-73195000D01*
X104395919Y-73261675D01*
X104080169Y-73392463D01*
X103796002Y-73582337D01*
X103554337Y-73824002D01*
X103364463Y-74108169D01*
X103338852Y-74170000D01*
X100913043Y-74170000D01*
X100809637Y-74015241D01*
X100609759Y-73815363D01*
X100374727Y-73658320D01*
X100113574Y-73550147D01*
X99836335Y-73495000D01*
X99553665Y-73495000D01*
X99276426Y-73550147D01*
X99015273Y-73658320D01*
X98780241Y-73815363D01*
X98580363Y-74015241D01*
X98423320Y-74250273D01*
X98315147Y-74511426D01*
X98260000Y-74788665D01*
X98260000Y-75071335D01*
X98315147Y-75348574D01*
X98423320Y-75609727D01*
X98580363Y-75844759D01*
X98780241Y-76044637D01*
X99015273Y-76201680D01*
X99276426Y-76309853D01*
X99553665Y-76365000D01*
X99836335Y-76365000D01*
X100113574Y-76309853D01*
X100374727Y-76201680D01*
X100609759Y-76044637D01*
X100809637Y-75844759D01*
X100913043Y-75690000D01*
X103338852Y-75690000D01*
X103364463Y-75751831D01*
X103520261Y-75985000D01*
X103485740Y-75985000D01*
X103198842Y-76042068D01*
X102928589Y-76154010D01*
X102685368Y-76316525D01*
X102478525Y-76523368D01*
X102316010Y-76766589D01*
X102204068Y-77036842D01*
X102147000Y-77323740D01*
X102147000Y-77616260D01*
X102204068Y-77903158D01*
X102316010Y-78173411D01*
X102478525Y-78416632D01*
X102685368Y-78623475D01*
X102928589Y-78785990D01*
X103198842Y-78897932D01*
X103485740Y-78955000D01*
X103778260Y-78955000D01*
X104065158Y-78897932D01*
X104335411Y-78785990D01*
X104578632Y-78623475D01*
X104785475Y-78416632D01*
X104947990Y-78173411D01*
X105059932Y-77903158D01*
X105117000Y-77616260D01*
X105117000Y-77323740D01*
X105059932Y-77036842D01*
X104947990Y-76766589D01*
X104880110Y-76665000D01*
X105072883Y-76665000D01*
X105408081Y-76598325D01*
X105723831Y-76467537D01*
X106007998Y-76277663D01*
X106249663Y-76035998D01*
X106439537Y-75751831D01*
X106570325Y-75436081D01*
X106637000Y-75100883D01*
X106637000Y-74995999D01*
X107799179Y-74995999D01*
X107463859Y-75134893D01*
X107032285Y-75423262D01*
X106665262Y-75790285D01*
X106376893Y-76221859D01*
X106178261Y-76701399D01*
X106077000Y-77210475D01*
X106077000Y-77729525D01*
X106178261Y-78238601D01*
X106376893Y-78718141D01*
X106665262Y-79149715D01*
X107032285Y-79516738D01*
X107463859Y-79805107D01*
X107943399Y-80003739D01*
X108452475Y-80105000D01*
X108971525Y-80105000D01*
X109480601Y-80003739D01*
X109960141Y-79805107D01*
X110391715Y-79516738D01*
X110758738Y-79149715D01*
X111047107Y-78718141D01*
X111245739Y-78238601D01*
X111347000Y-77729525D01*
X111347000Y-77323740D01*
X112307000Y-77323740D01*
X112307000Y-77616260D01*
X112364068Y-77903158D01*
X112476010Y-78173411D01*
X112638525Y-78416632D01*
X112845368Y-78623475D01*
X113088589Y-78785990D01*
X113358842Y-78897932D01*
X113645740Y-78955000D01*
X113938260Y-78955000D01*
X114225158Y-78897932D01*
X114495411Y-78785990D01*
X114738632Y-78623475D01*
X114945475Y-78416632D01*
X115107990Y-78173411D01*
X115219932Y-77903158D01*
X115277000Y-77616260D01*
X115277000Y-77323740D01*
X115219932Y-77036842D01*
X115107990Y-76766589D01*
X114945475Y-76523368D01*
X114738632Y-76316525D01*
X114495411Y-76154010D01*
X114225158Y-76042068D01*
X113938260Y-75985000D01*
X113645740Y-75985000D01*
X113358842Y-76042068D01*
X113088589Y-76154010D01*
X112845368Y-76316525D01*
X112638525Y-76523368D01*
X112476010Y-76766589D01*
X112364068Y-77036842D01*
X112307000Y-77323740D01*
X111347000Y-77323740D01*
X111347000Y-77210475D01*
X111245739Y-76701399D01*
X111047107Y-76221859D01*
X110758738Y-75790285D01*
X110391715Y-75423262D01*
X109960141Y-75134893D01*
X109624821Y-74995999D01*
X116810524Y-74995999D01*
X116775000Y-75174589D01*
X116775000Y-75447411D01*
X116828225Y-75714989D01*
X116932629Y-75967043D01*
X117084201Y-76193886D01*
X117277114Y-76386799D01*
X117503957Y-76538371D01*
X117606873Y-76581000D01*
X117503957Y-76623629D01*
X117277114Y-76775201D01*
X117084201Y-76968114D01*
X116932629Y-77194957D01*
X116828225Y-77447011D01*
X116775000Y-77714589D01*
X116775000Y-77987411D01*
X116828225Y-78254989D01*
X116932629Y-78507043D01*
X117084201Y-78733886D01*
X117277114Y-78926799D01*
X117503957Y-79078371D01*
X117756011Y-79182775D01*
X118023589Y-79236000D01*
X118296411Y-79236000D01*
X118563989Y-79182775D01*
X118816043Y-79078371D01*
X119042886Y-78926799D01*
X119235799Y-78733886D01*
X119387371Y-78507043D01*
X119491775Y-78254989D01*
X119545000Y-77987411D01*
X119545000Y-77714589D01*
X119491775Y-77447011D01*
X119387371Y-77194957D01*
X119235799Y-76968114D01*
X119042886Y-76775201D01*
X118816043Y-76623629D01*
X118713127Y-76581000D01*
X118816043Y-76538371D01*
X119042886Y-76386799D01*
X119235799Y-76193886D01*
X119387371Y-75967043D01*
X119491775Y-75714989D01*
X119545000Y-75447411D01*
X119545000Y-75174589D01*
X119509476Y-74995999D01*
X122830679Y-74995999D01*
X122868001Y-74999675D01*
X122905323Y-74995999D01*
X122905334Y-74995999D01*
X123016987Y-74985002D01*
X123160248Y-74941545D01*
X123233000Y-74902658D01*
X123233000Y-75100883D01*
X123299675Y-75436081D01*
X123430463Y-75751831D01*
X123586261Y-75985000D01*
X123551740Y-75985000D01*
X123264842Y-76042068D01*
X122994589Y-76154010D01*
X122751368Y-76316525D01*
X122544525Y-76523368D01*
X122382010Y-76766589D01*
X122270068Y-77036842D01*
X122213000Y-77323740D01*
X122213000Y-77616260D01*
X122270068Y-77903158D01*
X122382010Y-78173411D01*
X122544525Y-78416632D01*
X122751368Y-78623475D01*
X122994589Y-78785990D01*
X123264842Y-78897932D01*
X123551740Y-78955000D01*
X123844260Y-78955000D01*
X124131158Y-78897932D01*
X124401411Y-78785990D01*
X124644632Y-78623475D01*
X124851475Y-78416632D01*
X125013990Y-78173411D01*
X125125932Y-77903158D01*
X125183000Y-77616260D01*
X125183000Y-77323740D01*
X125125932Y-77036842D01*
X125013990Y-76766589D01*
X124946110Y-76665000D01*
X125138883Y-76665000D01*
X125474081Y-76598325D01*
X125605001Y-76544096D01*
X125605000Y-83505198D01*
X123383199Y-85727000D01*
X116280043Y-85727000D01*
X116176637Y-85572241D01*
X115976759Y-85372363D01*
X115741727Y-85215320D01*
X115480574Y-85107147D01*
X115203335Y-85052000D01*
X114920665Y-85052000D01*
X114643426Y-85107147D01*
X114382273Y-85215320D01*
X114147241Y-85372363D01*
X113947363Y-85572241D01*
X113790320Y-85807273D01*
X113682147Y-86068426D01*
X113627000Y-86345665D01*
X113627000Y-86628335D01*
X113682147Y-86905574D01*
X113790320Y-87166727D01*
X113947363Y-87401759D01*
X114147241Y-87601637D01*
X114382273Y-87758680D01*
X114643426Y-87866853D01*
X114920665Y-87922000D01*
X115203335Y-87922000D01*
X115480574Y-87866853D01*
X115741727Y-87758680D01*
X115976759Y-87601637D01*
X116176637Y-87401759D01*
X116280043Y-87247000D01*
X118740653Y-87247000D01*
X118652023Y-87335630D01*
X118768296Y-87451903D01*
X118524329Y-87523486D01*
X118403429Y-87778996D01*
X118334700Y-88053184D01*
X118320783Y-88335512D01*
X118362213Y-88615130D01*
X118457397Y-88881292D01*
X118524329Y-89006514D01*
X118768298Y-89078097D01*
X119581395Y-88265000D01*
X119567253Y-88250858D01*
X119746858Y-88071253D01*
X119761000Y-88085395D01*
X119775143Y-88071253D01*
X119954748Y-88250858D01*
X119940605Y-88265000D01*
X120753702Y-89078097D01*
X120997671Y-89006514D01*
X121118571Y-88751004D01*
X121148484Y-88631665D01*
X126073000Y-88631665D01*
X126073000Y-88914335D01*
X126128147Y-89191574D01*
X126236320Y-89452727D01*
X126393363Y-89687759D01*
X126593241Y-89887637D01*
X126828273Y-90044680D01*
X127089426Y-90152853D01*
X127366665Y-90208000D01*
X127649335Y-90208000D01*
X127926574Y-90152853D01*
X128187727Y-90044680D01*
X128422759Y-89887637D01*
X128622637Y-89687759D01*
X128779680Y-89452727D01*
X128887853Y-89191574D01*
X128943000Y-88914335D01*
X128943000Y-88631665D01*
X128887853Y-88354426D01*
X128779680Y-88093273D01*
X128622637Y-87858241D01*
X128422759Y-87658363D01*
X128187727Y-87501320D01*
X127926574Y-87393147D01*
X127649335Y-87338000D01*
X127366665Y-87338000D01*
X127089426Y-87393147D01*
X126828273Y-87501320D01*
X126593241Y-87658363D01*
X126393363Y-87858241D01*
X126236320Y-88093273D01*
X126128147Y-88354426D01*
X126073000Y-88631665D01*
X121148484Y-88631665D01*
X121187300Y-88476816D01*
X121201217Y-88194488D01*
X121159787Y-87914870D01*
X121064603Y-87648708D01*
X120997671Y-87523486D01*
X120753704Y-87451903D01*
X120869977Y-87335630D01*
X120781347Y-87247000D01*
X123660678Y-87247000D01*
X123698000Y-87250676D01*
X123735322Y-87247000D01*
X123735333Y-87247000D01*
X123846986Y-87236003D01*
X123990247Y-87192546D01*
X124122276Y-87121974D01*
X124238001Y-87027001D01*
X124261804Y-86997997D01*
X126876004Y-84383798D01*
X126905001Y-84360001D01*
X126999974Y-84244276D01*
X127070546Y-84112247D01*
X127114003Y-83968986D01*
X127121054Y-83897400D01*
X127370408Y-83947000D01*
X127645592Y-83947000D01*
X127915490Y-83893314D01*
X128169727Y-83788005D01*
X128398535Y-83635120D01*
X128593120Y-83440535D01*
X128746005Y-83211727D01*
X128778000Y-83134485D01*
X128809995Y-83211727D01*
X128962880Y-83440535D01*
X129157465Y-83635120D01*
X129386273Y-83788005D01*
X129640510Y-83893314D01*
X129910408Y-83947000D01*
X130185592Y-83947000D01*
X130455490Y-83893314D01*
X130709727Y-83788005D01*
X130938535Y-83635120D01*
X131133120Y-83440535D01*
X131286005Y-83211727D01*
X131391314Y-82957490D01*
X131445000Y-82687592D01*
X131445000Y-82412408D01*
X131391314Y-82142510D01*
X131286005Y-81888273D01*
X131133120Y-81659465D01*
X130938535Y-81464880D01*
X130709727Y-81311995D01*
X130455490Y-81206686D01*
X130185592Y-81153000D01*
X129910408Y-81153000D01*
X129640510Y-81206686D01*
X129386273Y-81311995D01*
X129157465Y-81464880D01*
X128962880Y-81659465D01*
X128809995Y-81888273D01*
X128778000Y-81965515D01*
X128746005Y-81888273D01*
X128593120Y-81659465D01*
X128398535Y-81464880D01*
X128169727Y-81311995D01*
X127915490Y-81206686D01*
X127645592Y-81153000D01*
X127370408Y-81153000D01*
X127125000Y-81201815D01*
X127125000Y-79534588D01*
X127529859Y-79805107D01*
X128009399Y-80003739D01*
X128518475Y-80105000D01*
X129037525Y-80105000D01*
X129546601Y-80003739D01*
X130026141Y-79805107D01*
X130457715Y-79516738D01*
X130824738Y-79149715D01*
X131113107Y-78718141D01*
X131311739Y-78238601D01*
X131413000Y-77729525D01*
X131413000Y-77210475D01*
X131311739Y-76701399D01*
X131113107Y-76221859D01*
X130824738Y-75790285D01*
X130457715Y-75423262D01*
X130026141Y-75134893D01*
X129546601Y-74936261D01*
X129045261Y-74836539D01*
X130051004Y-73830796D01*
X130080001Y-73806999D01*
X130136904Y-73737663D01*
X130170755Y-73696416D01*
X130212002Y-73737663D01*
X130496169Y-73927537D01*
X130811919Y-74058325D01*
X131147117Y-74125000D01*
X131488883Y-74125000D01*
X131824081Y-74058325D01*
X132139831Y-73927537D01*
X132423998Y-73737663D01*
X132665663Y-73495998D01*
X132855537Y-73211831D01*
X132986325Y-72896081D01*
X133053000Y-72560883D01*
X133053000Y-72219117D01*
X132986325Y-71883919D01*
X132855537Y-71568169D01*
X132665663Y-71284002D01*
X132423998Y-71042337D01*
X132139831Y-70852463D01*
X131824081Y-70721675D01*
X131488883Y-70655000D01*
X131147117Y-70655000D01*
X130811919Y-70721675D01*
X130496169Y-70852463D01*
X130300000Y-70983539D01*
X130300000Y-70118909D01*
X130422886Y-70036799D01*
X130615799Y-69843886D01*
X130767371Y-69617043D01*
X130871775Y-69364989D01*
X130925000Y-69097411D01*
X130925000Y-68824589D01*
X130871775Y-68557011D01*
X130767371Y-68304957D01*
X130615799Y-68078114D01*
X130422886Y-67885201D01*
X130196043Y-67733629D01*
X129943989Y-67629225D01*
X129676411Y-67576000D01*
X129403589Y-67576000D01*
X129136011Y-67629225D01*
X128883957Y-67733629D01*
X128657114Y-67885201D01*
X128464201Y-68078114D01*
X128312629Y-68304957D01*
X128270000Y-68407873D01*
X128227371Y-68304957D01*
X128075799Y-68078114D01*
X127882886Y-67885201D01*
X127795632Y-67826899D01*
X127926574Y-67800853D01*
X128187727Y-67692680D01*
X128422759Y-67535637D01*
X128622637Y-67335759D01*
X128779680Y-67100727D01*
X128887853Y-66839574D01*
X128943000Y-66562335D01*
X128943000Y-66517802D01*
X129357201Y-66932003D01*
X129380999Y-66961001D01*
X129409997Y-66984799D01*
X129496723Y-67055974D01*
X129628753Y-67126546D01*
X129772014Y-67170003D01*
X129883667Y-67181000D01*
X129883676Y-67181000D01*
X129920999Y-67184676D01*
X129958322Y-67181000D01*
X133909957Y-67181000D01*
X134013363Y-67335759D01*
X134213241Y-67535637D01*
X134448273Y-67692680D01*
X134709426Y-67800853D01*
X134986665Y-67856000D01*
X135269335Y-67856000D01*
X135546574Y-67800853D01*
X135807727Y-67692680D01*
X136042759Y-67535637D01*
X136146000Y-67432396D01*
X136146000Y-68725000D01*
X136042061Y-68725000D01*
X135842102Y-68764774D01*
X135653744Y-68842795D01*
X135484226Y-68956063D01*
X135340063Y-69100226D01*
X135226795Y-69269744D01*
X135148774Y-69458102D01*
X135109000Y-69658061D01*
X135109000Y-69735774D01*
X135096050Y-69760001D01*
X135038455Y-69867753D01*
X134994998Y-70011014D01*
X134984001Y-70122667D01*
X134984001Y-70122677D01*
X134980325Y-70159999D01*
X134984001Y-70197321D01*
X134984001Y-76495894D01*
X134804632Y-76316525D01*
X134561411Y-76154010D01*
X134291158Y-76042068D01*
X134004260Y-75985000D01*
X133711740Y-75985000D01*
X133424842Y-76042068D01*
X133154589Y-76154010D01*
X132911368Y-76316525D01*
X132704525Y-76523368D01*
X132542010Y-76766589D01*
X132430068Y-77036842D01*
X132373000Y-77323740D01*
X132373000Y-77616260D01*
X132430068Y-77903158D01*
X132542010Y-78173411D01*
X132704525Y-78416632D01*
X132911368Y-78623475D01*
X133154589Y-78785990D01*
X133424842Y-78897932D01*
X133711740Y-78955000D01*
X134004260Y-78955000D01*
X134291158Y-78897932D01*
X134561411Y-78785990D01*
X134804632Y-78623475D01*
X134984001Y-78444106D01*
X134984002Y-87338530D01*
X134709426Y-87393147D01*
X134448273Y-87501320D01*
X134213241Y-87658363D01*
X134013363Y-87858241D01*
X133856320Y-88093273D01*
X133748147Y-88354426D01*
X133693000Y-88631665D01*
X133693000Y-88914335D01*
X133748147Y-89191574D01*
X133856320Y-89452727D01*
X134013363Y-89687759D01*
X134213241Y-89887637D01*
X134448273Y-90044680D01*
X134709426Y-90152853D01*
X134986665Y-90208000D01*
X135269335Y-90208000D01*
X135546574Y-90152853D01*
X135807727Y-90044680D01*
X136042759Y-89887637D01*
X136242637Y-89687759D01*
X136399680Y-89452727D01*
X136480461Y-89257702D01*
X136981903Y-89257702D01*
X137053486Y-89501671D01*
X137308996Y-89622571D01*
X137583184Y-89691300D01*
X137865512Y-89705217D01*
X138145130Y-89663787D01*
X138411292Y-89568603D01*
X138536514Y-89501671D01*
X138608097Y-89257702D01*
X137795000Y-88444605D01*
X136981903Y-89257702D01*
X136480461Y-89257702D01*
X136507853Y-89191574D01*
X136548370Y-88987882D01*
X136558329Y-89006514D01*
X136802298Y-89078097D01*
X137615395Y-88265000D01*
X137974605Y-88265000D01*
X138787702Y-89078097D01*
X139031671Y-89006514D01*
X139152571Y-88751004D01*
X139221300Y-88476816D01*
X139235217Y-88194488D01*
X139193787Y-87914870D01*
X139098603Y-87648708D01*
X139031671Y-87523486D01*
X138787702Y-87451903D01*
X137974605Y-88265000D01*
X137615395Y-88265000D01*
X136802298Y-87451903D01*
X136558329Y-87523486D01*
X136504001Y-87638303D01*
X136504001Y-87272298D01*
X136981903Y-87272298D01*
X137795000Y-88085395D01*
X138608097Y-87272298D01*
X138536514Y-87028329D01*
X138281004Y-86907429D01*
X138006816Y-86838700D01*
X137724488Y-86824783D01*
X137444870Y-86866213D01*
X137178708Y-86961397D01*
X137053486Y-87028329D01*
X136981903Y-87272298D01*
X136504001Y-87272298D01*
X136504001Y-81278087D01*
X136523320Y-81324727D01*
X136680363Y-81559759D01*
X136880241Y-81759637D01*
X137115273Y-81916680D01*
X137376426Y-82024853D01*
X137653665Y-82080000D01*
X137936335Y-82080000D01*
X138213574Y-82024853D01*
X138474727Y-81916680D01*
X138709759Y-81759637D01*
X138909637Y-81559759D01*
X139066680Y-81324727D01*
X139174853Y-81063574D01*
X139230000Y-80786335D01*
X139230000Y-80503665D01*
X139174853Y-80226426D01*
X139066680Y-79965273D01*
X138909637Y-79730241D01*
X138709759Y-79530363D01*
X138474727Y-79373320D01*
X138213574Y-79265147D01*
X137936335Y-79210000D01*
X137653665Y-79210000D01*
X137471114Y-79246312D01*
X137285000Y-79060199D01*
X137285000Y-78705150D01*
X137304201Y-78733886D01*
X137497114Y-78926799D01*
X137723957Y-79078371D01*
X137976011Y-79182775D01*
X138243589Y-79236000D01*
X138516411Y-79236000D01*
X138783989Y-79182775D01*
X139036043Y-79078371D01*
X139262886Y-78926799D01*
X139294001Y-78895684D01*
X139294001Y-99340000D01*
X115635453Y-99340000D01*
X115753023Y-99297636D01*
X115868980Y-99235656D01*
X115935960Y-98995565D01*
X115150000Y-98209605D01*
X114364040Y-98995565D01*
X114431020Y-99235656D01*
X114652921Y-99340000D01*
X97180000Y-99340000D01*
X97180000Y-98102017D01*
X113748090Y-98102017D01*
X113789078Y-98374133D01*
X113882364Y-98633023D01*
X113944344Y-98748980D01*
X114184435Y-98815960D01*
X114970395Y-98030000D01*
X115329605Y-98030000D01*
X116115565Y-98815960D01*
X116355656Y-98748980D01*
X116472756Y-98499952D01*
X116539023Y-98232865D01*
X116551910Y-97957983D01*
X116510922Y-97685867D01*
X116417636Y-97426977D01*
X116355656Y-97311020D01*
X116115565Y-97244040D01*
X115329605Y-98030000D01*
X114970395Y-98030000D01*
X114184435Y-97244040D01*
X113944344Y-97311020D01*
X113827244Y-97560048D01*
X113760977Y-97827135D01*
X113748090Y-98102017D01*
X97180000Y-98102017D01*
X97180000Y-95352408D01*
X113753000Y-95352408D01*
X113753000Y-95627592D01*
X113806686Y-95897490D01*
X113911995Y-96151727D01*
X114064880Y-96380535D01*
X114259465Y-96575120D01*
X114488273Y-96728005D01*
X114559943Y-96757692D01*
X114546977Y-96762364D01*
X114431020Y-96824344D01*
X114364040Y-97064435D01*
X115150000Y-97850395D01*
X115935960Y-97064435D01*
X115868980Y-96824344D01*
X115733240Y-96760515D01*
X115811727Y-96728005D01*
X116040535Y-96575120D01*
X116235120Y-96380535D01*
X116388005Y-96151727D01*
X116493314Y-95897490D01*
X116547000Y-95627592D01*
X116547000Y-95352408D01*
X116493314Y-95082510D01*
X116388005Y-94828273D01*
X116235120Y-94599465D01*
X116040535Y-94404880D01*
X115811727Y-94251995D01*
X115557490Y-94146686D01*
X115287592Y-94093000D01*
X115012408Y-94093000D01*
X114742510Y-94146686D01*
X114488273Y-94251995D01*
X114259465Y-94404880D01*
X114064880Y-94599465D01*
X113911995Y-94828273D01*
X113806686Y-95082510D01*
X113753000Y-95352408D01*
X97180000Y-95352408D01*
X97180000Y-89257702D01*
X118947903Y-89257702D01*
X119019486Y-89501671D01*
X119274996Y-89622571D01*
X119549184Y-89691300D01*
X119831512Y-89705217D01*
X120111130Y-89663787D01*
X120377292Y-89568603D01*
X120502514Y-89501671D01*
X120574097Y-89257702D01*
X119761000Y-88444605D01*
X118947903Y-89257702D01*
X97180000Y-89257702D01*
X97180000Y-87165655D01*
X97244465Y-87230120D01*
X97473273Y-87383005D01*
X97727510Y-87488314D01*
X97997408Y-87542000D01*
X98272592Y-87542000D01*
X98542490Y-87488314D01*
X98796727Y-87383005D01*
X99025535Y-87230120D01*
X99220120Y-87035535D01*
X99373005Y-86806727D01*
X99478314Y-86552490D01*
X99519454Y-86345665D01*
X106007000Y-86345665D01*
X106007000Y-86628335D01*
X106062147Y-86905574D01*
X106170320Y-87166727D01*
X106327363Y-87401759D01*
X106527241Y-87601637D01*
X106762273Y-87758680D01*
X107023426Y-87866853D01*
X107300665Y-87922000D01*
X107583335Y-87922000D01*
X107860574Y-87866853D01*
X108121727Y-87758680D01*
X108356759Y-87601637D01*
X108556637Y-87401759D01*
X108713680Y-87166727D01*
X108821853Y-86905574D01*
X108877000Y-86628335D01*
X108877000Y-86345665D01*
X108821853Y-86068426D01*
X108713680Y-85807273D01*
X108556637Y-85572241D01*
X108356759Y-85372363D01*
X108202000Y-85268957D01*
X108202000Y-83722341D01*
X108332535Y-83635120D01*
X108527120Y-83440535D01*
X108680005Y-83211727D01*
X108712000Y-83134485D01*
X108743995Y-83211727D01*
X108896880Y-83440535D01*
X109091465Y-83635120D01*
X109320273Y-83788005D01*
X109574510Y-83893314D01*
X109844408Y-83947000D01*
X110119592Y-83947000D01*
X110389490Y-83893314D01*
X110643727Y-83788005D01*
X110872535Y-83635120D01*
X111067120Y-83440535D01*
X111220005Y-83211727D01*
X111325314Y-82957490D01*
X111379000Y-82687592D01*
X111379000Y-82412408D01*
X111325314Y-82142510D01*
X111220005Y-81888273D01*
X111067120Y-81659465D01*
X110872535Y-81464880D01*
X110643727Y-81311995D01*
X110389490Y-81206686D01*
X110119592Y-81153000D01*
X109844408Y-81153000D01*
X109574510Y-81206686D01*
X109320273Y-81311995D01*
X109091465Y-81464880D01*
X108896880Y-81659465D01*
X108743995Y-81888273D01*
X108712000Y-81965515D01*
X108680005Y-81888273D01*
X108527120Y-81659465D01*
X108332535Y-81464880D01*
X108103727Y-81311995D01*
X107849490Y-81206686D01*
X107579592Y-81153000D01*
X107304408Y-81153000D01*
X107034510Y-81206686D01*
X106780273Y-81311995D01*
X106551465Y-81464880D01*
X106356880Y-81659465D01*
X106203995Y-81888273D01*
X106098686Y-82142510D01*
X106045000Y-82412408D01*
X106045000Y-82687592D01*
X106098686Y-82957490D01*
X106203995Y-83211727D01*
X106356880Y-83440535D01*
X106551465Y-83635120D01*
X106682000Y-83722341D01*
X106682001Y-85268956D01*
X106527241Y-85372363D01*
X106327363Y-85572241D01*
X106170320Y-85807273D01*
X106062147Y-86068426D01*
X106007000Y-86345665D01*
X99519454Y-86345665D01*
X99532000Y-86282592D01*
X99532000Y-86007408D01*
X99478314Y-85737510D01*
X99373005Y-85483273D01*
X99220120Y-85254465D01*
X99025535Y-85059880D01*
X98796727Y-84906995D01*
X98719485Y-84875000D01*
X98796727Y-84843005D01*
X99025535Y-84690120D01*
X99220120Y-84495535D01*
X99373005Y-84266727D01*
X99478314Y-84012490D01*
X99532000Y-83742592D01*
X99532000Y-83467408D01*
X99478314Y-83197510D01*
X99373005Y-82943273D01*
X99220120Y-82714465D01*
X99025535Y-82519880D01*
X98796727Y-82366995D01*
X98719485Y-82335000D01*
X98796727Y-82303005D01*
X99025535Y-82150120D01*
X99220120Y-81955535D01*
X99373005Y-81726727D01*
X99478314Y-81472490D01*
X99532000Y-81202592D01*
X99532000Y-80927408D01*
X99478314Y-80657510D01*
X99414589Y-80503665D01*
X118326000Y-80503665D01*
X118326000Y-80786335D01*
X118381147Y-81063574D01*
X118489320Y-81324727D01*
X118646363Y-81559759D01*
X118846241Y-81759637D01*
X119081273Y-81916680D01*
X119342426Y-82024853D01*
X119619665Y-82080000D01*
X119902335Y-82080000D01*
X120179574Y-82024853D01*
X120440727Y-81916680D01*
X120675759Y-81759637D01*
X120875637Y-81559759D01*
X121032680Y-81324727D01*
X121140853Y-81063574D01*
X121196000Y-80786335D01*
X121196000Y-80503665D01*
X121140853Y-80226426D01*
X121032680Y-79965273D01*
X120875637Y-79730241D01*
X120675759Y-79530363D01*
X120440727Y-79373320D01*
X120179574Y-79265147D01*
X119902335Y-79210000D01*
X119619665Y-79210000D01*
X119342426Y-79265147D01*
X119081273Y-79373320D01*
X118846241Y-79530363D01*
X118646363Y-79730241D01*
X118489320Y-79965273D01*
X118381147Y-80226426D01*
X118326000Y-80503665D01*
X99414589Y-80503665D01*
X99373005Y-80403273D01*
X99220120Y-80174465D01*
X99025535Y-79979880D01*
X98796727Y-79826995D01*
X98542490Y-79721686D01*
X98272592Y-79668000D01*
X97997408Y-79668000D01*
X97727510Y-79721686D01*
X97473273Y-79826995D01*
X97244465Y-79979880D01*
X97180000Y-80044345D01*
X97180000Y-68302702D01*
X98881903Y-68302702D01*
X98953486Y-68546671D01*
X99208996Y-68667571D01*
X99483184Y-68736300D01*
X99765512Y-68750217D01*
X100045130Y-68708787D01*
X100311292Y-68613603D01*
X100436514Y-68546671D01*
X100508097Y-68302702D01*
X99695000Y-67489605D01*
X98881903Y-68302702D01*
X97180000Y-68302702D01*
X97180000Y-67380512D01*
X98254783Y-67380512D01*
X98296213Y-67660130D01*
X98391397Y-67926292D01*
X98458329Y-68051514D01*
X98702298Y-68123097D01*
X99515395Y-67310000D01*
X99874605Y-67310000D01*
X100687702Y-68123097D01*
X100931671Y-68051514D01*
X101052571Y-67796004D01*
X101121300Y-67521816D01*
X101135217Y-67239488D01*
X101093787Y-66959870D01*
X100998603Y-66693708D01*
X100931671Y-66568486D01*
X100687702Y-66496903D01*
X99874605Y-67310000D01*
X99515395Y-67310000D01*
X98702298Y-66496903D01*
X98458329Y-66568486D01*
X98337429Y-66823996D01*
X98268700Y-67098184D01*
X98254783Y-67380512D01*
X97180000Y-67380512D01*
X97180000Y-66317298D01*
X98881903Y-66317298D01*
X99695000Y-67130395D01*
X100508097Y-66317298D01*
X100497056Y-66279665D01*
X106007000Y-66279665D01*
X106007000Y-66562335D01*
X106062147Y-66839574D01*
X106170320Y-67100727D01*
X106327363Y-67335759D01*
X106527241Y-67535637D01*
X106762273Y-67692680D01*
X107023426Y-67800853D01*
X107300665Y-67856000D01*
X107583335Y-67856000D01*
X107860574Y-67800853D01*
X108121727Y-67692680D01*
X108356759Y-67535637D01*
X108556637Y-67335759D01*
X108713680Y-67100727D01*
X108821853Y-66839574D01*
X108877000Y-66562335D01*
X108877000Y-66279665D01*
X113627000Y-66279665D01*
X113627000Y-66562335D01*
X113682147Y-66839574D01*
X113790320Y-67100727D01*
X113947363Y-67335759D01*
X114147241Y-67535637D01*
X114382273Y-67692680D01*
X114643426Y-67800853D01*
X114920665Y-67856000D01*
X115203335Y-67856000D01*
X115480574Y-67800853D01*
X115741727Y-67692680D01*
X115976759Y-67535637D01*
X116176637Y-67335759D01*
X116333680Y-67100727D01*
X116441853Y-66839574D01*
X116497000Y-66562335D01*
X116497000Y-66279665D01*
X116441853Y-66002426D01*
X116333680Y-65741273D01*
X116176637Y-65506241D01*
X115976759Y-65306363D01*
X115741727Y-65149320D01*
X115480574Y-65041147D01*
X115203335Y-64986000D01*
X114920665Y-64986000D01*
X114643426Y-65041147D01*
X114382273Y-65149320D01*
X114147241Y-65306363D01*
X113947363Y-65506241D01*
X113790320Y-65741273D01*
X113682147Y-66002426D01*
X113627000Y-66279665D01*
X108877000Y-66279665D01*
X108821853Y-66002426D01*
X108713680Y-65741273D01*
X108556637Y-65506241D01*
X108356759Y-65306363D01*
X108202000Y-65202957D01*
X108202000Y-63656341D01*
X108332535Y-63569120D01*
X108527120Y-63374535D01*
X108680005Y-63145727D01*
X108712000Y-63068485D01*
X108743995Y-63145727D01*
X108896880Y-63374535D01*
X109091465Y-63569120D01*
X109320273Y-63722005D01*
X109574510Y-63827314D01*
X109844408Y-63881000D01*
X110119592Y-63881000D01*
X110389490Y-63827314D01*
X110643727Y-63722005D01*
X110872535Y-63569120D01*
X111067120Y-63374535D01*
X111220005Y-63145727D01*
X111325314Y-62891490D01*
X111379000Y-62621592D01*
X111379000Y-62346408D01*
X111325314Y-62076510D01*
X111220005Y-61822273D01*
X111067120Y-61593465D01*
X110872535Y-61398880D01*
X110643727Y-61245995D01*
X110389490Y-61140686D01*
X110119592Y-61087000D01*
X109844408Y-61087000D01*
X109574510Y-61140686D01*
X109320273Y-61245995D01*
X109091465Y-61398880D01*
X108896880Y-61593465D01*
X108743995Y-61822273D01*
X108712000Y-61899515D01*
X108680005Y-61822273D01*
X108527120Y-61593465D01*
X108332535Y-61398880D01*
X108103727Y-61245995D01*
X107849490Y-61140686D01*
X107579592Y-61087000D01*
X107304408Y-61087000D01*
X107034510Y-61140686D01*
X106780273Y-61245995D01*
X106551465Y-61398880D01*
X106356880Y-61593465D01*
X106203995Y-61822273D01*
X106098686Y-62076510D01*
X106045000Y-62346408D01*
X106045000Y-62621592D01*
X106098686Y-62891490D01*
X106203995Y-63145727D01*
X106356880Y-63374535D01*
X106551465Y-63569120D01*
X106682000Y-63656341D01*
X106682001Y-65202956D01*
X106527241Y-65306363D01*
X106327363Y-65506241D01*
X106170320Y-65741273D01*
X106062147Y-66002426D01*
X106007000Y-66279665D01*
X100497056Y-66279665D01*
X100436514Y-66073329D01*
X100181004Y-65952429D01*
X99906816Y-65883700D01*
X99624488Y-65869783D01*
X99344870Y-65911213D01*
X99078708Y-66006397D01*
X98953486Y-66073329D01*
X98881903Y-66317298D01*
X97180000Y-66317298D01*
X97180000Y-63476702D01*
X98881903Y-63476702D01*
X98953486Y-63720671D01*
X99208996Y-63841571D01*
X99483184Y-63910300D01*
X99765512Y-63924217D01*
X100045130Y-63882787D01*
X100311292Y-63787603D01*
X100436514Y-63720671D01*
X100508097Y-63476702D01*
X99695000Y-62663605D01*
X98881903Y-63476702D01*
X97180000Y-63476702D01*
X97180000Y-62554512D01*
X98254783Y-62554512D01*
X98296213Y-62834130D01*
X98391397Y-63100292D01*
X98458329Y-63225514D01*
X98702298Y-63297097D01*
X99515395Y-62484000D01*
X99874605Y-62484000D01*
X100687702Y-63297097D01*
X100931671Y-63225514D01*
X101052571Y-62970004D01*
X101121300Y-62695816D01*
X101135217Y-62413488D01*
X101093787Y-62133870D01*
X100998603Y-61867708D01*
X100931671Y-61742486D01*
X100687702Y-61670903D01*
X99874605Y-62484000D01*
X99515395Y-62484000D01*
X98702298Y-61670903D01*
X98458329Y-61742486D01*
X98337429Y-61997996D01*
X98268700Y-62272184D01*
X98254783Y-62554512D01*
X97180000Y-62554512D01*
X97180000Y-61491298D01*
X98881903Y-61491298D01*
X99695000Y-62304395D01*
X100508097Y-61491298D01*
X100436514Y-61247329D01*
X100181004Y-61126429D01*
X99906816Y-61057700D01*
X99624488Y-61043783D01*
X99344870Y-61085213D01*
X99078708Y-61180397D01*
X98953486Y-61247329D01*
X98881903Y-61491298D01*
X97180000Y-61491298D01*
X97180000Y-50660000D01*
X110735478Y-50660000D01*
X110430169Y-50786463D01*
%TD*%
M02*
