%TF.GenerationSoftware,KiCad,Pcbnew,5.1.6-c6e7f7d~86~ubuntu18.04.1*%
%TF.CreationDate,2020-06-11T22:46:26+02:00*%
%TF.ProjectId,BikeCommunicator,42696b65-436f-46d6-9d75-6e696361746f,rev?*%
%TF.SameCoordinates,Original*%
%TF.FileFunction,Legend,Bot*%
%TF.FilePolarity,Positive*%
%FSLAX46Y46*%
G04 Gerber Fmt 4.6, Leading zero omitted, Abs format (unit mm)*
G04 Created by KiCad (PCBNEW 5.1.6-c6e7f7d~86~ubuntu18.04.1) date 2020-06-11 22:46:26*
%MOMM*%
%LPD*%
G01*
G04 APERTURE LIST*
%ADD10C,0.150000*%
%ADD11C,0.125000*%
%ADD12C,0.300000*%
%ADD13C,0.120000*%
%ADD14C,0.010000*%
G04 APERTURE END LIST*
D10*
X115608178Y-91217380D02*
X115074845Y-91065000D01*
X115455797Y-90912619D01*
X115074845Y-90760238D01*
X115608178Y-90607857D01*
X115608178Y-90379285D02*
X115074845Y-90226904D01*
X115455797Y-90074523D01*
X115074845Y-89922142D01*
X115608178Y-89769761D01*
X115608178Y-89541190D02*
X115074845Y-89388809D01*
X115455797Y-89236428D01*
X115074845Y-89084047D01*
X115608178Y-88931666D01*
X115151035Y-88626904D02*
X115112940Y-88588809D01*
X115074845Y-88626904D01*
X115112940Y-88665000D01*
X115151035Y-88626904D01*
X115074845Y-88626904D01*
X115608178Y-87903095D02*
X114960559Y-87903095D01*
X114884369Y-87941190D01*
X114846273Y-87979285D01*
X114808178Y-88055476D01*
X114808178Y-88169761D01*
X114846273Y-88245952D01*
X115112940Y-87903095D02*
X115074845Y-87979285D01*
X115074845Y-88131666D01*
X115112940Y-88207857D01*
X115151035Y-88245952D01*
X115227226Y-88284047D01*
X115455797Y-88284047D01*
X115531988Y-88245952D01*
X115570083Y-88207857D01*
X115608178Y-88131666D01*
X115608178Y-87979285D01*
X115570083Y-87903095D01*
X115608178Y-87598333D02*
X115608178Y-87179285D01*
X115074845Y-87598333D01*
X115074845Y-87179285D01*
X115608178Y-86988809D02*
X115608178Y-86684047D01*
X115874845Y-86874523D02*
X115189130Y-86874523D01*
X115112940Y-86836428D01*
X115074845Y-86760238D01*
X115074845Y-86684047D01*
X115151035Y-86417380D02*
X115112940Y-86379285D01*
X115074845Y-86417380D01*
X115112940Y-86455476D01*
X115151035Y-86417380D01*
X115074845Y-86417380D01*
X115112940Y-86074523D02*
X115074845Y-85998333D01*
X115074845Y-85845952D01*
X115112940Y-85769761D01*
X115189130Y-85731666D01*
X115227226Y-85731666D01*
X115303416Y-85769761D01*
X115341511Y-85845952D01*
X115341511Y-85960238D01*
X115379607Y-86036428D01*
X115455797Y-86074523D01*
X115493892Y-86074523D01*
X115570083Y-86036428D01*
X115608178Y-85960238D01*
X115608178Y-85845952D01*
X115570083Y-85769761D01*
X115074845Y-85388809D02*
X115608178Y-85388809D01*
X115874845Y-85388809D02*
X115836750Y-85426904D01*
X115798654Y-85388809D01*
X115836750Y-85350714D01*
X115874845Y-85388809D01*
X115798654Y-85388809D01*
D11*
X115081095Y-73843904D02*
X115614428Y-73843904D01*
X115462047Y-73843904D02*
X115538238Y-73805809D01*
X115576333Y-73767714D01*
X115614428Y-73691523D01*
X115614428Y-73615333D01*
X115119190Y-73043904D02*
X115081095Y-73120095D01*
X115081095Y-73272476D01*
X115119190Y-73348666D01*
X115195380Y-73386761D01*
X115500142Y-73386761D01*
X115576333Y-73348666D01*
X115614428Y-73272476D01*
X115614428Y-73120095D01*
X115576333Y-73043904D01*
X115500142Y-73005809D01*
X115423952Y-73005809D01*
X115347761Y-73386761D01*
X115614428Y-72739142D02*
X115081095Y-72548666D01*
X115614428Y-72358190D01*
X115081095Y-71024857D02*
X115081095Y-71482000D01*
X115081095Y-71253428D02*
X115881095Y-71253428D01*
X115766809Y-71329619D01*
X115690619Y-71405809D01*
X115652523Y-71482000D01*
X115157285Y-70682000D02*
X115119190Y-70643904D01*
X115081095Y-70682000D01*
X115119190Y-70720095D01*
X115157285Y-70682000D01*
X115081095Y-70682000D01*
X115881095Y-70148666D02*
X115881095Y-70072476D01*
X115843000Y-69996285D01*
X115804904Y-69958190D01*
X115728714Y-69920095D01*
X115576333Y-69882000D01*
X115385857Y-69882000D01*
X115233476Y-69920095D01*
X115157285Y-69958190D01*
X115119190Y-69996285D01*
X115081095Y-70072476D01*
X115081095Y-70148666D01*
X115119190Y-70224857D01*
X115157285Y-70262952D01*
X115233476Y-70301047D01*
X115385857Y-70339142D01*
X115576333Y-70339142D01*
X115728714Y-70301047D01*
X115804904Y-70262952D01*
X115843000Y-70224857D01*
X115881095Y-70148666D01*
D10*
X117721000Y-86438642D02*
X117768619Y-86533880D01*
X117768619Y-86676738D01*
X117721000Y-86819595D01*
X117625761Y-86914833D01*
X117530523Y-86962452D01*
X117340047Y-87010071D01*
X117197190Y-87010071D01*
X117006714Y-86962452D01*
X116911476Y-86914833D01*
X116816238Y-86819595D01*
X116768619Y-86676738D01*
X116768619Y-86581500D01*
X116816238Y-86438642D01*
X116863857Y-86391023D01*
X117197190Y-86391023D01*
X117197190Y-86581500D01*
X117768619Y-86057690D02*
X117768619Y-85391023D01*
X116768619Y-86057690D01*
X116768619Y-85391023D01*
X117768619Y-85152928D02*
X117768619Y-84581500D01*
X116768619Y-84867214D02*
X117768619Y-84867214D01*
X117435285Y-83486261D02*
X116435285Y-83486261D01*
X117387666Y-83486261D02*
X117435285Y-83391023D01*
X117435285Y-83200547D01*
X117387666Y-83105309D01*
X117340047Y-83057690D01*
X117244809Y-83010071D01*
X116959095Y-83010071D01*
X116863857Y-83057690D01*
X116816238Y-83105309D01*
X116768619Y-83200547D01*
X116768619Y-83391023D01*
X116816238Y-83486261D01*
X116768619Y-82581500D02*
X117435285Y-82581500D01*
X117244809Y-82581500D02*
X117340047Y-82533880D01*
X117387666Y-82486261D01*
X117435285Y-82391023D01*
X117435285Y-82295785D01*
X116768619Y-81819595D02*
X116816238Y-81914833D01*
X116863857Y-81962452D01*
X116959095Y-82010071D01*
X117244809Y-82010071D01*
X117340047Y-81962452D01*
X117387666Y-81914833D01*
X117435285Y-81819595D01*
X117435285Y-81676738D01*
X117387666Y-81581500D01*
X117340047Y-81533880D01*
X117244809Y-81486261D01*
X116959095Y-81486261D01*
X116863857Y-81533880D01*
X116816238Y-81581500D01*
X116768619Y-81676738D01*
X116768619Y-81819595D01*
X117435285Y-81057690D02*
X116578142Y-81057690D01*
X116482904Y-81105309D01*
X116435285Y-81200547D01*
X116435285Y-81248166D01*
X117768619Y-81057690D02*
X117721000Y-81105309D01*
X117673380Y-81057690D01*
X117721000Y-81010071D01*
X117768619Y-81057690D01*
X117673380Y-81057690D01*
X116816238Y-80200547D02*
X116768619Y-80295785D01*
X116768619Y-80486261D01*
X116816238Y-80581500D01*
X116911476Y-80629119D01*
X117292428Y-80629119D01*
X117387666Y-80581500D01*
X117435285Y-80486261D01*
X117435285Y-80295785D01*
X117387666Y-80200547D01*
X117292428Y-80152928D01*
X117197190Y-80152928D01*
X117101952Y-80629119D01*
X116816238Y-79295785D02*
X116768619Y-79391023D01*
X116768619Y-79581500D01*
X116816238Y-79676738D01*
X116863857Y-79724357D01*
X116959095Y-79771976D01*
X117244809Y-79771976D01*
X117340047Y-79724357D01*
X117387666Y-79676738D01*
X117435285Y-79581500D01*
X117435285Y-79391023D01*
X117387666Y-79295785D01*
X117435285Y-79010071D02*
X117435285Y-78629119D01*
X117768619Y-78867214D02*
X116911476Y-78867214D01*
X116816238Y-78819595D01*
X116768619Y-78724357D01*
X116768619Y-78629119D01*
X117673380Y-77581500D02*
X117721000Y-77533880D01*
X117768619Y-77438642D01*
X117768619Y-77200547D01*
X117721000Y-77105309D01*
X117673380Y-77057690D01*
X117578142Y-77010071D01*
X117482904Y-77010071D01*
X117340047Y-77057690D01*
X116768619Y-77629119D01*
X116768619Y-77010071D01*
X117768619Y-76391023D02*
X117768619Y-76295785D01*
X117721000Y-76200547D01*
X117673380Y-76152928D01*
X117578142Y-76105309D01*
X117387666Y-76057690D01*
X117149571Y-76057690D01*
X116959095Y-76105309D01*
X116863857Y-76152928D01*
X116816238Y-76200547D01*
X116768619Y-76295785D01*
X116768619Y-76391023D01*
X116816238Y-76486261D01*
X116863857Y-76533880D01*
X116959095Y-76581500D01*
X117149571Y-76629119D01*
X117387666Y-76629119D01*
X117578142Y-76581500D01*
X117673380Y-76533880D01*
X117721000Y-76486261D01*
X117768619Y-76391023D01*
X117673380Y-75676738D02*
X117721000Y-75629119D01*
X117768619Y-75533880D01*
X117768619Y-75295785D01*
X117721000Y-75200547D01*
X117673380Y-75152928D01*
X117578142Y-75105309D01*
X117482904Y-75105309D01*
X117340047Y-75152928D01*
X116768619Y-75724357D01*
X116768619Y-75105309D01*
X117768619Y-74486261D02*
X117768619Y-74391023D01*
X117721000Y-74295785D01*
X117673380Y-74248166D01*
X117578142Y-74200547D01*
X117387666Y-74152928D01*
X117149571Y-74152928D01*
X116959095Y-74200547D01*
X116863857Y-74248166D01*
X116816238Y-74295785D01*
X116768619Y-74391023D01*
X116768619Y-74486261D01*
X116816238Y-74581500D01*
X116863857Y-74629119D01*
X116959095Y-74676738D01*
X117149571Y-74724357D01*
X117387666Y-74724357D01*
X117578142Y-74676738D01*
X117673380Y-74629119D01*
X117721000Y-74581500D01*
X117768619Y-74486261D01*
D12*
X119360142Y-90688642D02*
X119288714Y-90474357D01*
X119217285Y-90402928D01*
X119074428Y-90331500D01*
X118860142Y-90331500D01*
X118717285Y-90402928D01*
X118645857Y-90474357D01*
X118574428Y-90617214D01*
X118574428Y-91188642D01*
X120074428Y-91188642D01*
X120074428Y-90688642D01*
X120003000Y-90545785D01*
X119931571Y-90474357D01*
X119788714Y-90402928D01*
X119645857Y-90402928D01*
X119503000Y-90474357D01*
X119431571Y-90545785D01*
X119360142Y-90688642D01*
X119360142Y-91188642D01*
X118574428Y-89688642D02*
X119574428Y-89688642D01*
X120074428Y-89688642D02*
X120003000Y-89760071D01*
X119931571Y-89688642D01*
X120003000Y-89617214D01*
X120074428Y-89688642D01*
X119931571Y-89688642D01*
X118574428Y-88974357D02*
X120074428Y-88974357D01*
X119145857Y-88831500D02*
X118574428Y-88402928D01*
X119574428Y-88402928D02*
X119003000Y-88974357D01*
X118645857Y-87188642D02*
X118574428Y-87331500D01*
X118574428Y-87617214D01*
X118645857Y-87760071D01*
X118788714Y-87831500D01*
X119360142Y-87831500D01*
X119503000Y-87760071D01*
X119574428Y-87617214D01*
X119574428Y-87331500D01*
X119503000Y-87188642D01*
X119360142Y-87117214D01*
X119217285Y-87117214D01*
X119074428Y-87831500D01*
X118717285Y-84474357D02*
X118645857Y-84545785D01*
X118574428Y-84760071D01*
X118574428Y-84902928D01*
X118645857Y-85117214D01*
X118788714Y-85260071D01*
X118931571Y-85331500D01*
X119217285Y-85402928D01*
X119431571Y-85402928D01*
X119717285Y-85331500D01*
X119860142Y-85260071D01*
X120003000Y-85117214D01*
X120074428Y-84902928D01*
X120074428Y-84760071D01*
X120003000Y-84545785D01*
X119931571Y-84474357D01*
X118574428Y-83617214D02*
X118645857Y-83760071D01*
X118717285Y-83831500D01*
X118860142Y-83902928D01*
X119288714Y-83902928D01*
X119431571Y-83831500D01*
X119503000Y-83760071D01*
X119574428Y-83617214D01*
X119574428Y-83402928D01*
X119503000Y-83260071D01*
X119431571Y-83188642D01*
X119288714Y-83117214D01*
X118860142Y-83117214D01*
X118717285Y-83188642D01*
X118645857Y-83260071D01*
X118574428Y-83402928D01*
X118574428Y-83617214D01*
X118574428Y-82474357D02*
X119574428Y-82474357D01*
X119431571Y-82474357D02*
X119503000Y-82402928D01*
X119574428Y-82260071D01*
X119574428Y-82045785D01*
X119503000Y-81902928D01*
X119360142Y-81831500D01*
X118574428Y-81831500D01*
X119360142Y-81831500D02*
X119503000Y-81760071D01*
X119574428Y-81617214D01*
X119574428Y-81402928D01*
X119503000Y-81260071D01*
X119360142Y-81188642D01*
X118574428Y-81188642D01*
X118574428Y-80474357D02*
X119574428Y-80474357D01*
X119431571Y-80474357D02*
X119503000Y-80402928D01*
X119574428Y-80260071D01*
X119574428Y-80045785D01*
X119503000Y-79902928D01*
X119360142Y-79831500D01*
X118574428Y-79831500D01*
X119360142Y-79831500D02*
X119503000Y-79760071D01*
X119574428Y-79617214D01*
X119574428Y-79402928D01*
X119503000Y-79260071D01*
X119360142Y-79188642D01*
X118574428Y-79188642D01*
X119574428Y-77831500D02*
X118574428Y-77831500D01*
X119574428Y-78474357D02*
X118788714Y-78474357D01*
X118645857Y-78402928D01*
X118574428Y-78260071D01*
X118574428Y-78045785D01*
X118645857Y-77902928D01*
X118717285Y-77831500D01*
X119574428Y-77117214D02*
X118574428Y-77117214D01*
X119431571Y-77117214D02*
X119503000Y-77045785D01*
X119574428Y-76902928D01*
X119574428Y-76688642D01*
X119503000Y-76545785D01*
X119360142Y-76474357D01*
X118574428Y-76474357D01*
X118574428Y-75760071D02*
X119574428Y-75760071D01*
X120074428Y-75760071D02*
X120003000Y-75831500D01*
X119931571Y-75760071D01*
X120003000Y-75688642D01*
X120074428Y-75760071D01*
X119931571Y-75760071D01*
X118645857Y-74402928D02*
X118574428Y-74545785D01*
X118574428Y-74831500D01*
X118645857Y-74974357D01*
X118717285Y-75045785D01*
X118860142Y-75117214D01*
X119288714Y-75117214D01*
X119431571Y-75045785D01*
X119503000Y-74974357D01*
X119574428Y-74831500D01*
X119574428Y-74545785D01*
X119503000Y-74402928D01*
X118574428Y-73117214D02*
X119360142Y-73117214D01*
X119503000Y-73188642D01*
X119574428Y-73331500D01*
X119574428Y-73617214D01*
X119503000Y-73760071D01*
X118645857Y-73117214D02*
X118574428Y-73260071D01*
X118574428Y-73617214D01*
X118645857Y-73760071D01*
X118788714Y-73831500D01*
X118931571Y-73831500D01*
X119074428Y-73760071D01*
X119145857Y-73617214D01*
X119145857Y-73260071D01*
X119217285Y-73117214D01*
X119574428Y-72617214D02*
X119574428Y-72045785D01*
X120074428Y-72402928D02*
X118788714Y-72402928D01*
X118645857Y-72331500D01*
X118574428Y-72188642D01*
X118574428Y-72045785D01*
X118574428Y-71331500D02*
X118645857Y-71474357D01*
X118717285Y-71545785D01*
X118860142Y-71617214D01*
X119288714Y-71617214D01*
X119431571Y-71545785D01*
X119503000Y-71474357D01*
X119574428Y-71331500D01*
X119574428Y-71117214D01*
X119503000Y-70974357D01*
X119431571Y-70902928D01*
X119288714Y-70831500D01*
X118860142Y-70831500D01*
X118717285Y-70902928D01*
X118645857Y-70974357D01*
X118574428Y-71117214D01*
X118574428Y-71331500D01*
X118574428Y-70188642D02*
X119574428Y-70188642D01*
X119288714Y-70188642D02*
X119431571Y-70117214D01*
X119503000Y-70045785D01*
X119574428Y-69902928D01*
X119574428Y-69760071D01*
D10*
X129215785Y-62196357D02*
X129101500Y-62234452D01*
X129063404Y-62272547D01*
X129025309Y-62348738D01*
X129025309Y-62463023D01*
X129063404Y-62539214D01*
X129101500Y-62577309D01*
X129177690Y-62615404D01*
X129482452Y-62615404D01*
X129482452Y-61815404D01*
X129215785Y-61815404D01*
X129139595Y-61853500D01*
X129101500Y-61891595D01*
X129063404Y-61967785D01*
X129063404Y-62043976D01*
X129101500Y-62120166D01*
X129139595Y-62158261D01*
X129215785Y-62196357D01*
X129482452Y-62196357D01*
X128720547Y-62386833D02*
X128339595Y-62386833D01*
X128796738Y-62615404D02*
X128530071Y-61815404D01*
X128263404Y-62615404D01*
X128111023Y-61815404D02*
X127653880Y-61815404D01*
X127882452Y-62615404D02*
X127882452Y-61815404D01*
X127501500Y-61815404D02*
X127044357Y-61815404D01*
X127272928Y-62615404D02*
X127272928Y-61815404D01*
X126777690Y-62196357D02*
X126511023Y-62196357D01*
X126396738Y-62615404D02*
X126777690Y-62615404D01*
X126777690Y-61815404D01*
X126396738Y-61815404D01*
X125596738Y-62615404D02*
X125863404Y-62234452D01*
X126053880Y-62615404D02*
X126053880Y-61815404D01*
X125749119Y-61815404D01*
X125672928Y-61853500D01*
X125634833Y-61891595D01*
X125596738Y-61967785D01*
X125596738Y-62082071D01*
X125634833Y-62158261D01*
X125672928Y-62196357D01*
X125749119Y-62234452D01*
X126053880Y-62234452D01*
X125101500Y-62234452D02*
X125101500Y-62615404D01*
X125368166Y-61815404D02*
X125101500Y-62234452D01*
X124834833Y-61815404D01*
X123958642Y-62615404D02*
X123958642Y-61815404D01*
X123577690Y-62615404D02*
X123577690Y-61815404D01*
X123120547Y-62615404D01*
X123120547Y-61815404D01*
X127482452Y-63165404D02*
X126987214Y-63165404D01*
X127253880Y-63470166D01*
X127139595Y-63470166D01*
X127063404Y-63508261D01*
X127025309Y-63546357D01*
X126987214Y-63622547D01*
X126987214Y-63813023D01*
X127025309Y-63889214D01*
X127063404Y-63927309D01*
X127139595Y-63965404D01*
X127368166Y-63965404D01*
X127444357Y-63927309D01*
X127482452Y-63889214D01*
X126606261Y-63927309D02*
X126606261Y-63965404D01*
X126644357Y-64041595D01*
X126682452Y-64079690D01*
X126339595Y-63165404D02*
X125806261Y-63165404D01*
X126149119Y-63965404D01*
X125615785Y-63165404D02*
X125349119Y-63965404D01*
X125082452Y-63165404D01*
X115937680Y-116038880D02*
X115937680Y-116848404D01*
X115890061Y-116943642D01*
X115842442Y-116991261D01*
X115747204Y-117038880D01*
X115556728Y-117038880D01*
X115461490Y-116991261D01*
X115413871Y-116943642D01*
X115366252Y-116848404D01*
X115366252Y-116038880D01*
X114890061Y-117038880D02*
X114890061Y-116038880D01*
X114318633Y-117038880D01*
X114318633Y-116038880D01*
X113271014Y-117038880D02*
X113604347Y-116562690D01*
X113842442Y-117038880D02*
X113842442Y-116038880D01*
X113461490Y-116038880D01*
X113366252Y-116086500D01*
X113318633Y-116134119D01*
X113271014Y-116229357D01*
X113271014Y-116372214D01*
X113318633Y-116467452D01*
X113366252Y-116515071D01*
X113461490Y-116562690D01*
X113842442Y-116562690D01*
X112842442Y-116515071D02*
X112509109Y-116515071D01*
X112366252Y-117038880D02*
X112842442Y-117038880D01*
X112842442Y-116038880D01*
X112366252Y-116038880D01*
X111413871Y-116086500D02*
X111509109Y-116038880D01*
X111651966Y-116038880D01*
X111794823Y-116086500D01*
X111890061Y-116181738D01*
X111937680Y-116276976D01*
X111985300Y-116467452D01*
X111985300Y-116610309D01*
X111937680Y-116800785D01*
X111890061Y-116896023D01*
X111794823Y-116991261D01*
X111651966Y-117038880D01*
X111556728Y-117038880D01*
X111413871Y-116991261D01*
X111366252Y-116943642D01*
X111366252Y-116610309D01*
X111556728Y-116610309D01*
X110937680Y-116038880D02*
X110937680Y-116848404D01*
X110890061Y-116943642D01*
X110842442Y-116991261D01*
X110747204Y-117038880D01*
X110556728Y-117038880D01*
X110461490Y-116991261D01*
X110413871Y-116943642D01*
X110366252Y-116848404D01*
X110366252Y-116038880D01*
X109413871Y-117038880D02*
X109890061Y-117038880D01*
X109890061Y-116038880D01*
X109128157Y-116753166D02*
X108651966Y-116753166D01*
X109223395Y-117038880D02*
X108890061Y-116038880D01*
X108556728Y-117038880D01*
X108366252Y-116038880D02*
X107794823Y-116038880D01*
X108080538Y-117038880D02*
X108080538Y-116038880D01*
X107461490Y-116515071D02*
X107128157Y-116515071D01*
X106985300Y-117038880D02*
X107461490Y-117038880D01*
X107461490Y-116038880D01*
X106985300Y-116038880D01*
X106556728Y-117038880D02*
X106556728Y-116038880D01*
X106318633Y-116038880D01*
X106175776Y-116086500D01*
X106080538Y-116181738D01*
X106032919Y-116276976D01*
X105985300Y-116467452D01*
X105985300Y-116610309D01*
X106032919Y-116800785D01*
X106080538Y-116896023D01*
X106175776Y-116991261D01*
X106318633Y-117038880D01*
X106556728Y-117038880D01*
X112747204Y-118688880D02*
X113318633Y-118688880D01*
X113032919Y-118688880D02*
X113032919Y-117688880D01*
X113128157Y-117831738D01*
X113223395Y-117926976D01*
X113318633Y-117974595D01*
X112366252Y-117784119D02*
X112318633Y-117736500D01*
X112223395Y-117688880D01*
X111985300Y-117688880D01*
X111890061Y-117736500D01*
X111842442Y-117784119D01*
X111794823Y-117879357D01*
X111794823Y-117974595D01*
X111842442Y-118117452D01*
X112413871Y-118688880D01*
X111794823Y-118688880D01*
X111509109Y-117688880D02*
X111175776Y-118688880D01*
X110842442Y-117688880D01*
X109747204Y-118688880D02*
X109747204Y-117688880D01*
X109271014Y-118688880D02*
X109271014Y-117688880D01*
X108699585Y-118688880D01*
X108699585Y-117688880D01*
X117665452Y-60777428D02*
X116903547Y-60777428D01*
X121602452Y-60777428D02*
X120840547Y-60777428D01*
X121221500Y-61158380D02*
X121221500Y-60396476D01*
X137020252Y-69464228D02*
X136258347Y-69464228D01*
X136639300Y-69845180D02*
X136639300Y-69083276D01*
X133222952Y-69540428D02*
X132461047Y-69540428D01*
X137026361Y-63453657D02*
X136912076Y-63491752D01*
X136873980Y-63529847D01*
X136835885Y-63606038D01*
X136835885Y-63720323D01*
X136873980Y-63796514D01*
X136912076Y-63834609D01*
X136988266Y-63872704D01*
X137293028Y-63872704D01*
X137293028Y-63072704D01*
X137026361Y-63072704D01*
X136950171Y-63110800D01*
X136912076Y-63148895D01*
X136873980Y-63225085D01*
X136873980Y-63301276D01*
X136912076Y-63377466D01*
X136950171Y-63415561D01*
X137026361Y-63453657D01*
X137293028Y-63453657D01*
X136531123Y-63644133D02*
X136150171Y-63644133D01*
X136607314Y-63872704D02*
X136340647Y-63072704D01*
X136073980Y-63872704D01*
X135921600Y-63072704D02*
X135464457Y-63072704D01*
X135693028Y-63872704D02*
X135693028Y-63072704D01*
X135312076Y-63072704D02*
X134854933Y-63072704D01*
X135083504Y-63872704D02*
X135083504Y-63072704D01*
X134588266Y-63453657D02*
X134321600Y-63453657D01*
X134207314Y-63872704D02*
X134588266Y-63872704D01*
X134588266Y-63072704D01*
X134207314Y-63072704D01*
X133407314Y-63872704D02*
X133673980Y-63491752D01*
X133864457Y-63872704D02*
X133864457Y-63072704D01*
X133559695Y-63072704D01*
X133483504Y-63110800D01*
X133445409Y-63148895D01*
X133407314Y-63225085D01*
X133407314Y-63339371D01*
X133445409Y-63415561D01*
X133483504Y-63453657D01*
X133559695Y-63491752D01*
X133864457Y-63491752D01*
X132912076Y-63491752D02*
X132912076Y-63872704D01*
X133178742Y-63072704D02*
X132912076Y-63491752D01*
X132645409Y-63072704D01*
X137483504Y-65184609D02*
X137369219Y-65222704D01*
X137178742Y-65222704D01*
X137102552Y-65184609D01*
X137064457Y-65146514D01*
X137026361Y-65070323D01*
X137026361Y-64994133D01*
X137064457Y-64917942D01*
X137102552Y-64879847D01*
X137178742Y-64841752D01*
X137331123Y-64803657D01*
X137407314Y-64765561D01*
X137445409Y-64727466D01*
X137483504Y-64651276D01*
X137483504Y-64575085D01*
X137445409Y-64498895D01*
X137407314Y-64460800D01*
X137331123Y-64422704D01*
X137140647Y-64422704D01*
X137026361Y-64460800D01*
X136759695Y-64422704D02*
X136569219Y-65222704D01*
X136416838Y-64651276D01*
X136264457Y-65222704D01*
X136073980Y-64422704D01*
X135769219Y-65222704D02*
X135769219Y-64422704D01*
X135502552Y-64422704D02*
X135045409Y-64422704D01*
X135273980Y-65222704D02*
X135273980Y-64422704D01*
X134321600Y-65146514D02*
X134359695Y-65184609D01*
X134473980Y-65222704D01*
X134550171Y-65222704D01*
X134664457Y-65184609D01*
X134740647Y-65108419D01*
X134778742Y-65032228D01*
X134816838Y-64879847D01*
X134816838Y-64765561D01*
X134778742Y-64613180D01*
X134740647Y-64536990D01*
X134664457Y-64460800D01*
X134550171Y-64422704D01*
X134473980Y-64422704D01*
X134359695Y-64460800D01*
X134321600Y-64498895D01*
X133978742Y-65222704D02*
X133978742Y-64422704D01*
X133978742Y-64803657D02*
X133521600Y-64803657D01*
X133521600Y-65222704D02*
X133521600Y-64422704D01*
X133140647Y-64803657D02*
X132873980Y-64803657D01*
X132759695Y-65222704D02*
X133140647Y-65222704D01*
X133140647Y-64422704D01*
X132759695Y-64422704D01*
X132416838Y-65222704D02*
X132416838Y-64422704D01*
X132226361Y-64422704D01*
X132112076Y-64460800D01*
X132035885Y-64536990D01*
X131997790Y-64613180D01*
X131959695Y-64765561D01*
X131959695Y-64879847D01*
X131997790Y-65032228D01*
X132035885Y-65108419D01*
X132112076Y-65184609D01*
X132226361Y-65222704D01*
X132416838Y-65222704D01*
X113734738Y-65982857D02*
X113620452Y-66020952D01*
X113582357Y-66059047D01*
X113544261Y-66135238D01*
X113544261Y-66249523D01*
X113582357Y-66325714D01*
X113620452Y-66363809D01*
X113696642Y-66401904D01*
X114001404Y-66401904D01*
X114001404Y-65601904D01*
X113734738Y-65601904D01*
X113658547Y-65640000D01*
X113620452Y-65678095D01*
X113582357Y-65754285D01*
X113582357Y-65830476D01*
X113620452Y-65906666D01*
X113658547Y-65944761D01*
X113734738Y-65982857D01*
X114001404Y-65982857D01*
X113239500Y-66173333D02*
X112858547Y-66173333D01*
X113315690Y-66401904D02*
X113049023Y-65601904D01*
X112782357Y-66401904D01*
X112629976Y-65601904D02*
X112172833Y-65601904D01*
X112401404Y-66401904D02*
X112401404Y-65601904D01*
X112020452Y-65601904D02*
X111563309Y-65601904D01*
X111791880Y-66401904D02*
X111791880Y-65601904D01*
X114033166Y-62363404D02*
X114414119Y-62363404D01*
X114452214Y-62744357D01*
X114414119Y-62706261D01*
X114337928Y-62668166D01*
X114147452Y-62668166D01*
X114071261Y-62706261D01*
X114033166Y-62744357D01*
X113995071Y-62820547D01*
X113995071Y-63011023D01*
X114033166Y-63087214D01*
X114071261Y-63125309D01*
X114147452Y-63163404D01*
X114337928Y-63163404D01*
X114414119Y-63125309D01*
X114452214Y-63087214D01*
X113766500Y-62363404D02*
X113499833Y-63163404D01*
X113233166Y-62363404D01*
X112356976Y-63163404D02*
X112356976Y-62363404D01*
X111976023Y-63163404D02*
X111976023Y-62363404D01*
X111518880Y-63163404D01*
X111518880Y-62363404D01*
X101650157Y-108261104D02*
X101650157Y-107461104D01*
X101459680Y-107461104D01*
X101345395Y-107499200D01*
X101269204Y-107575390D01*
X101231109Y-107651580D01*
X101193014Y-107803961D01*
X101193014Y-107918247D01*
X101231109Y-108070628D01*
X101269204Y-108146819D01*
X101345395Y-108223009D01*
X101459680Y-108261104D01*
X101650157Y-108261104D01*
X100393014Y-108184914D02*
X100431109Y-108223009D01*
X100545395Y-108261104D01*
X100621585Y-108261104D01*
X100735871Y-108223009D01*
X100812061Y-108146819D01*
X100850157Y-108070628D01*
X100888252Y-107918247D01*
X100888252Y-107803961D01*
X100850157Y-107651580D01*
X100812061Y-107575390D01*
X100735871Y-107499200D01*
X100621585Y-107461104D01*
X100545395Y-107461104D01*
X100431109Y-107499200D01*
X100393014Y-107537295D01*
X100050157Y-108261104D02*
X100050157Y-107461104D01*
X99859680Y-107461104D01*
X99745395Y-107499200D01*
X99669204Y-107575390D01*
X99631109Y-107651580D01*
X99593014Y-107803961D01*
X99593014Y-107918247D01*
X99631109Y-108070628D01*
X99669204Y-108146819D01*
X99745395Y-108223009D01*
X99859680Y-108261104D01*
X100050157Y-108261104D01*
X98793014Y-108184914D02*
X98831109Y-108223009D01*
X98945395Y-108261104D01*
X99021585Y-108261104D01*
X99135871Y-108223009D01*
X99212061Y-108146819D01*
X99250157Y-108070628D01*
X99288252Y-107918247D01*
X99288252Y-107803961D01*
X99250157Y-107651580D01*
X99212061Y-107575390D01*
X99135871Y-107499200D01*
X99021585Y-107461104D01*
X98945395Y-107461104D01*
X98831109Y-107499200D01*
X98793014Y-107537295D01*
X97421585Y-108261104D02*
X97878728Y-108261104D01*
X97650157Y-108261104D02*
X97650157Y-107461104D01*
X97726347Y-107575390D01*
X97802538Y-107651580D01*
X97878728Y-107689676D01*
X97116823Y-107537295D02*
X97078728Y-107499200D01*
X97002538Y-107461104D01*
X96812061Y-107461104D01*
X96735871Y-107499200D01*
X96697776Y-107537295D01*
X96659680Y-107613485D01*
X96659680Y-107689676D01*
X96697776Y-107803961D01*
X97154919Y-108261104D01*
X96659680Y-108261104D01*
X96431109Y-107461104D02*
X96164442Y-108261104D01*
X95897776Y-107461104D01*
X95021585Y-107956342D02*
X94412061Y-107956342D01*
X94031109Y-107727771D02*
X93421585Y-107956342D01*
X94031109Y-108184914D01*
X92050157Y-107461104D02*
X92431109Y-107461104D01*
X92469204Y-107842057D01*
X92431109Y-107803961D01*
X92354919Y-107765866D01*
X92164442Y-107765866D01*
X92088252Y-107803961D01*
X92050157Y-107842057D01*
X92012061Y-107918247D01*
X92012061Y-108108723D01*
X92050157Y-108184914D01*
X92088252Y-108223009D01*
X92164442Y-108261104D01*
X92354919Y-108261104D01*
X92431109Y-108223009D01*
X92469204Y-108184914D01*
X91783490Y-107461104D02*
X91516823Y-108261104D01*
X91250157Y-107461104D01*
D11*
X127996938Y-113226090D02*
X128235033Y-113226090D01*
X128258842Y-113464185D01*
X128235033Y-113440376D01*
X128187414Y-113416566D01*
X128068366Y-113416566D01*
X128020747Y-113440376D01*
X127996938Y-113464185D01*
X127973128Y-113511804D01*
X127973128Y-113630852D01*
X127996938Y-113678471D01*
X128020747Y-113702280D01*
X128068366Y-113726090D01*
X128187414Y-113726090D01*
X128235033Y-113702280D01*
X128258842Y-113678471D01*
X127830271Y-113226090D02*
X127663604Y-113726090D01*
X127496938Y-113226090D01*
X132030220Y-113726090D02*
X132030220Y-113226090D01*
X131911172Y-113226090D01*
X131839744Y-113249900D01*
X131792124Y-113297519D01*
X131768315Y-113345138D01*
X131744505Y-113440376D01*
X131744505Y-113511804D01*
X131768315Y-113607042D01*
X131792124Y-113654661D01*
X131839744Y-113702280D01*
X131911172Y-113726090D01*
X132030220Y-113726090D01*
X131530220Y-113535614D02*
X131149267Y-113535614D01*
X131339744Y-113726090D02*
X131339744Y-113345138D01*
X135825407Y-113726090D02*
X135825407Y-113226090D01*
X135706359Y-113226090D01*
X135634931Y-113249900D01*
X135587311Y-113297519D01*
X135563502Y-113345138D01*
X135539692Y-113440376D01*
X135539692Y-113511804D01*
X135563502Y-113607042D01*
X135587311Y-113654661D01*
X135634931Y-113702280D01*
X135706359Y-113726090D01*
X135825407Y-113726090D01*
X135325407Y-113535614D02*
X134944454Y-113535614D01*
X139763452Y-113249900D02*
X139811071Y-113226090D01*
X139882500Y-113226090D01*
X139953928Y-113249900D01*
X140001547Y-113297519D01*
X140025357Y-113345138D01*
X140049166Y-113440376D01*
X140049166Y-113511804D01*
X140025357Y-113607042D01*
X140001547Y-113654661D01*
X139953928Y-113702280D01*
X139882500Y-113726090D01*
X139834880Y-113726090D01*
X139763452Y-113702280D01*
X139739642Y-113678471D01*
X139739642Y-113511804D01*
X139834880Y-113511804D01*
X139525357Y-113726090D02*
X139525357Y-113226090D01*
X139239642Y-113726090D01*
X139239642Y-113226090D01*
X139001547Y-113726090D02*
X139001547Y-113226090D01*
X138882500Y-113226090D01*
X138811071Y-113249900D01*
X138763452Y-113297519D01*
X138739642Y-113345138D01*
X138715833Y-113440376D01*
X138715833Y-113511804D01*
X138739642Y-113607042D01*
X138763452Y-113654661D01*
X138811071Y-113702280D01*
X138882500Y-113726090D01*
X139001547Y-113726090D01*
X142642352Y-111206790D02*
X142642352Y-111611552D01*
X142618542Y-111659171D01*
X142594733Y-111682980D01*
X142547114Y-111706790D01*
X142451876Y-111706790D01*
X142404257Y-111682980D01*
X142380447Y-111659171D01*
X142356638Y-111611552D01*
X142356638Y-111206790D01*
X142142352Y-111682980D02*
X142070923Y-111706790D01*
X141951876Y-111706790D01*
X141904257Y-111682980D01*
X141880447Y-111659171D01*
X141856638Y-111611552D01*
X141856638Y-111563933D01*
X141880447Y-111516314D01*
X141904257Y-111492504D01*
X141951876Y-111468695D01*
X142047114Y-111444885D01*
X142094733Y-111421076D01*
X142118542Y-111397266D01*
X142142352Y-111349647D01*
X142142352Y-111302028D01*
X142118542Y-111254409D01*
X142094733Y-111230600D01*
X142047114Y-111206790D01*
X141928066Y-111206790D01*
X141856638Y-111230600D01*
X141475685Y-111444885D02*
X141404257Y-111468695D01*
X141380447Y-111492504D01*
X141356638Y-111540123D01*
X141356638Y-111611552D01*
X141380447Y-111659171D01*
X141404257Y-111682980D01*
X141451876Y-111706790D01*
X141642352Y-111706790D01*
X141642352Y-111206790D01*
X141475685Y-111206790D01*
X141428066Y-111230600D01*
X141404257Y-111254409D01*
X141380447Y-111302028D01*
X141380447Y-111349647D01*
X141404257Y-111397266D01*
X141428066Y-111421076D01*
X141475685Y-111444885D01*
X141642352Y-111444885D01*
D13*
%TO.C,U2*%
X120640001Y-106500000D02*
X120640000Y-65500000D01*
X120650000Y-65500000D02*
X143359999Y-65500000D01*
X143359999Y-65500000D02*
X143360000Y-106500000D01*
X143360000Y-106500000D02*
X120640001Y-106500000D01*
%TO.C,J1*%
X116400000Y-113500000D02*
X116400000Y-122300000D01*
X116400000Y-122300000D02*
X125600000Y-122300000D01*
X119100000Y-107600000D02*
X116400000Y-107600000D01*
X116400000Y-107600000D02*
X116400000Y-109500000D01*
X125600000Y-122300000D02*
X125600000Y-107600000D01*
X125600000Y-107600000D02*
X123000000Y-107600000D01*
D14*
%TO.C,REF\u002A\u002A*%
G36*
X99997582Y-83616756D02*
G01*
X99969932Y-83561299D01*
X99919020Y-83512352D01*
X99900162Y-83498871D01*
X99875485Y-83484186D01*
X99848684Y-83474658D01*
X99812913Y-83469207D01*
X99761331Y-83466753D01*
X99693233Y-83466214D01*
X99599912Y-83468648D01*
X99529843Y-83477106D01*
X99477569Y-83493326D01*
X99437631Y-83519046D01*
X99404571Y-83556003D01*
X99402614Y-83558718D01*
X99382592Y-83595140D01*
X99372685Y-83638998D01*
X99370243Y-83694776D01*
X99370243Y-83785452D01*
X99282217Y-83785490D01*
X99233192Y-83786334D01*
X99204435Y-83791476D01*
X99187189Y-83804913D01*
X99172692Y-83830642D01*
X99169731Y-83836821D01*
X99155852Y-83865736D01*
X99147086Y-83888124D01*
X99146329Y-83904771D01*
X99156477Y-83916464D01*
X99180427Y-83923990D01*
X99221074Y-83928134D01*
X99281314Y-83929685D01*
X99364045Y-83929429D01*
X99472161Y-83928151D01*
X99504500Y-83927752D01*
X99615976Y-83926315D01*
X99688897Y-83925028D01*
X99688897Y-83785529D01*
X99627001Y-83784745D01*
X99586503Y-83781260D01*
X99559792Y-83773376D01*
X99539256Y-83759395D01*
X99529240Y-83749903D01*
X99499933Y-83711096D01*
X99497548Y-83676737D01*
X99521750Y-83641284D01*
X99522643Y-83640386D01*
X99541347Y-83625961D01*
X99566768Y-83617187D01*
X99605916Y-83612761D01*
X99665803Y-83611382D01*
X99679070Y-83611357D01*
X99761599Y-83614688D01*
X99818809Y-83625531D01*
X99853734Y-83645160D01*
X99869406Y-83674850D01*
X99870986Y-83692009D01*
X99863574Y-83732734D01*
X99839170Y-83760668D01*
X99794520Y-83777483D01*
X99726370Y-83784850D01*
X99688897Y-83785529D01*
X99688897Y-83925028D01*
X99702255Y-83924792D01*
X99767167Y-83922823D01*
X99814542Y-83920050D01*
X99848210Y-83916112D01*
X99872002Y-83910651D01*
X99889747Y-83903308D01*
X99905276Y-83893723D01*
X99911119Y-83889613D01*
X99966315Y-83835095D01*
X99997610Y-83766164D01*
X100006335Y-83686428D01*
X99997582Y-83616756D01*
G37*
X99997582Y-83616756D02*
X99969932Y-83561299D01*
X99919020Y-83512352D01*
X99900162Y-83498871D01*
X99875485Y-83484186D01*
X99848684Y-83474658D01*
X99812913Y-83469207D01*
X99761331Y-83466753D01*
X99693233Y-83466214D01*
X99599912Y-83468648D01*
X99529843Y-83477106D01*
X99477569Y-83493326D01*
X99437631Y-83519046D01*
X99404571Y-83556003D01*
X99402614Y-83558718D01*
X99382592Y-83595140D01*
X99372685Y-83638998D01*
X99370243Y-83694776D01*
X99370243Y-83785452D01*
X99282217Y-83785490D01*
X99233192Y-83786334D01*
X99204435Y-83791476D01*
X99187189Y-83804913D01*
X99172692Y-83830642D01*
X99169731Y-83836821D01*
X99155852Y-83865736D01*
X99147086Y-83888124D01*
X99146329Y-83904771D01*
X99156477Y-83916464D01*
X99180427Y-83923990D01*
X99221074Y-83928134D01*
X99281314Y-83929685D01*
X99364045Y-83929429D01*
X99472161Y-83928151D01*
X99504500Y-83927752D01*
X99615976Y-83926315D01*
X99688897Y-83925028D01*
X99688897Y-83785529D01*
X99627001Y-83784745D01*
X99586503Y-83781260D01*
X99559792Y-83773376D01*
X99539256Y-83759395D01*
X99529240Y-83749903D01*
X99499933Y-83711096D01*
X99497548Y-83676737D01*
X99521750Y-83641284D01*
X99522643Y-83640386D01*
X99541347Y-83625961D01*
X99566768Y-83617187D01*
X99605916Y-83612761D01*
X99665803Y-83611382D01*
X99679070Y-83611357D01*
X99761599Y-83614688D01*
X99818809Y-83625531D01*
X99853734Y-83645160D01*
X99869406Y-83674850D01*
X99870986Y-83692009D01*
X99863574Y-83732734D01*
X99839170Y-83760668D01*
X99794520Y-83777483D01*
X99726370Y-83784850D01*
X99688897Y-83785529D01*
X99688897Y-83925028D01*
X99702255Y-83924792D01*
X99767167Y-83922823D01*
X99814542Y-83920050D01*
X99848210Y-83916112D01*
X99872002Y-83910651D01*
X99889747Y-83903308D01*
X99905276Y-83893723D01*
X99911119Y-83889613D01*
X99966315Y-83835095D01*
X99997610Y-83766164D01*
X100006335Y-83686428D01*
X99997582Y-83616756D01*
G36*
X99989720Y-82500407D02*
G01*
X99962777Y-82453828D01*
X99936034Y-82421443D01*
X99908016Y-82397758D01*
X99873752Y-82381441D01*
X99828273Y-82371161D01*
X99766608Y-82365586D01*
X99683789Y-82363384D01*
X99624254Y-82363129D01*
X99405109Y-82363129D01*
X99377456Y-82424814D01*
X99349803Y-82486500D01*
X99589830Y-82493757D01*
X99679472Y-82496756D01*
X99744538Y-82499902D01*
X99789474Y-82503799D01*
X99818730Y-82509053D01*
X99836752Y-82516269D01*
X99847989Y-82526050D01*
X99850421Y-82529188D01*
X99869417Y-82576739D01*
X99861900Y-82624803D01*
X99841957Y-82653414D01*
X99827825Y-82665053D01*
X99809280Y-82673109D01*
X99781166Y-82678229D01*
X99738327Y-82681059D01*
X99675605Y-82682244D01*
X99610239Y-82682443D01*
X99528232Y-82682482D01*
X99470184Y-82683886D01*
X99431035Y-82688586D01*
X99405720Y-82698513D01*
X99389177Y-82715597D01*
X99376344Y-82741768D01*
X99363009Y-82776725D01*
X99348493Y-82814904D01*
X99606111Y-82810359D01*
X99698981Y-82808529D01*
X99767611Y-82806388D01*
X99816789Y-82803319D01*
X99851302Y-82798706D01*
X99875938Y-82791932D01*
X99895484Y-82782381D01*
X99912730Y-82770866D01*
X99967820Y-82715310D01*
X99999678Y-82647520D01*
X100007309Y-82573787D01*
X99989720Y-82500407D01*
G37*
X99989720Y-82500407D02*
X99962777Y-82453828D01*
X99936034Y-82421443D01*
X99908016Y-82397758D01*
X99873752Y-82381441D01*
X99828273Y-82371161D01*
X99766608Y-82365586D01*
X99683789Y-82363384D01*
X99624254Y-82363129D01*
X99405109Y-82363129D01*
X99377456Y-82424814D01*
X99349803Y-82486500D01*
X99589830Y-82493757D01*
X99679472Y-82496756D01*
X99744538Y-82499902D01*
X99789474Y-82503799D01*
X99818730Y-82509053D01*
X99836752Y-82516269D01*
X99847989Y-82526050D01*
X99850421Y-82529188D01*
X99869417Y-82576739D01*
X99861900Y-82624803D01*
X99841957Y-82653414D01*
X99827825Y-82665053D01*
X99809280Y-82673109D01*
X99781166Y-82678229D01*
X99738327Y-82681059D01*
X99675605Y-82682244D01*
X99610239Y-82682443D01*
X99528232Y-82682482D01*
X99470184Y-82683886D01*
X99431035Y-82688586D01*
X99405720Y-82698513D01*
X99389177Y-82715597D01*
X99376344Y-82741768D01*
X99363009Y-82776725D01*
X99348493Y-82814904D01*
X99606111Y-82810359D01*
X99698981Y-82808529D01*
X99767611Y-82806388D01*
X99816789Y-82803319D01*
X99851302Y-82798706D01*
X99875938Y-82791932D01*
X99895484Y-82782381D01*
X99912730Y-82770866D01*
X99967820Y-82715310D01*
X99999678Y-82647520D01*
X100007309Y-82573787D01*
X99989720Y-82500407D01*
G36*
X99995538Y-84175385D02*
G01*
X99959767Y-84107355D01*
X99902199Y-84057149D01*
X99865188Y-84039315D01*
X99809618Y-84025437D01*
X99739404Y-84018333D01*
X99662773Y-84017660D01*
X99587948Y-84023073D01*
X99523158Y-84034230D01*
X99476627Y-84050786D01*
X99468613Y-84055874D01*
X99408793Y-84116145D01*
X99372965Y-84187731D01*
X99362480Y-84265408D01*
X99378690Y-84343952D01*
X99388408Y-84365811D01*
X99418357Y-84408378D01*
X99458067Y-84445737D01*
X99463103Y-84449268D01*
X99487376Y-84463619D01*
X99513322Y-84473106D01*
X99547478Y-84478710D01*
X99596381Y-84481414D01*
X99666565Y-84482201D01*
X99682300Y-84482214D01*
X99687308Y-84482178D01*
X99687308Y-84337071D01*
X99621070Y-84336227D01*
X99577114Y-84332904D01*
X99548721Y-84325917D01*
X99529175Y-84314084D01*
X99522643Y-84308043D01*
X99497820Y-84273314D01*
X99498952Y-84239597D01*
X99520484Y-84205505D01*
X99543471Y-84185171D01*
X99577022Y-84173129D01*
X99629931Y-84166366D01*
X99636101Y-84165902D01*
X99731987Y-84164748D01*
X99803201Y-84176812D01*
X99849306Y-84201930D01*
X99869865Y-84239940D01*
X99870986Y-84253508D01*
X99865348Y-84289136D01*
X99845814Y-84313506D01*
X99808458Y-84328407D01*
X99749350Y-84335625D01*
X99687308Y-84337071D01*
X99687308Y-84482178D01*
X99757087Y-84481674D01*
X99809341Y-84479404D01*
X99845551Y-84474432D01*
X99872201Y-84465787D01*
X99895778Y-84452495D01*
X99900162Y-84449557D01*
X99959251Y-84400187D01*
X99993553Y-84346391D01*
X100007169Y-84280898D01*
X100007835Y-84258658D01*
X99995538Y-84175385D01*
G37*
X99995538Y-84175385D02*
X99959767Y-84107355D01*
X99902199Y-84057149D01*
X99865188Y-84039315D01*
X99809618Y-84025437D01*
X99739404Y-84018333D01*
X99662773Y-84017660D01*
X99587948Y-84023073D01*
X99523158Y-84034230D01*
X99476627Y-84050786D01*
X99468613Y-84055874D01*
X99408793Y-84116145D01*
X99372965Y-84187731D01*
X99362480Y-84265408D01*
X99378690Y-84343952D01*
X99388408Y-84365811D01*
X99418357Y-84408378D01*
X99458067Y-84445737D01*
X99463103Y-84449268D01*
X99487376Y-84463619D01*
X99513322Y-84473106D01*
X99547478Y-84478710D01*
X99596381Y-84481414D01*
X99666565Y-84482201D01*
X99682300Y-84482214D01*
X99687308Y-84482178D01*
X99687308Y-84337071D01*
X99621070Y-84336227D01*
X99577114Y-84332904D01*
X99548721Y-84325917D01*
X99529175Y-84314084D01*
X99522643Y-84308043D01*
X99497820Y-84273314D01*
X99498952Y-84239597D01*
X99520484Y-84205505D01*
X99543471Y-84185171D01*
X99577022Y-84173129D01*
X99629931Y-84166366D01*
X99636101Y-84165902D01*
X99731987Y-84164748D01*
X99803201Y-84176812D01*
X99849306Y-84201930D01*
X99869865Y-84239940D01*
X99870986Y-84253508D01*
X99865348Y-84289136D01*
X99845814Y-84313506D01*
X99808458Y-84328407D01*
X99749350Y-84335625D01*
X99687308Y-84337071D01*
X99687308Y-84482178D01*
X99757087Y-84481674D01*
X99809341Y-84479404D01*
X99845551Y-84474432D01*
X99872201Y-84465787D01*
X99895778Y-84452495D01*
X99900162Y-84449557D01*
X99959251Y-84400187D01*
X99993553Y-84346391D01*
X100007169Y-84280898D01*
X100007835Y-84258658D01*
X99995538Y-84175385D01*
G36*
X99986261Y-83048197D02*
G01*
X99947765Y-82990973D01*
X99892165Y-82946751D01*
X99821414Y-82920333D01*
X99769338Y-82914990D01*
X99747607Y-82915597D01*
X99730969Y-82920678D01*
X99716063Y-82934645D01*
X99699527Y-82961911D01*
X99678002Y-83006888D01*
X99648126Y-83073989D01*
X99647976Y-83074329D01*
X99619687Y-83136093D01*
X99594567Y-83186741D01*
X99575321Y-83221096D01*
X99564652Y-83233982D01*
X99564566Y-83233986D01*
X99541334Y-83222628D01*
X99515726Y-83196069D01*
X99497279Y-83165577D01*
X99493614Y-83150130D01*
X99506288Y-83107985D01*
X99538029Y-83071692D01*
X99572928Y-83053983D01*
X99598655Y-83036948D01*
X99627954Y-83003578D01*
X99653265Y-82964351D01*
X99667029Y-82929744D01*
X99667786Y-82922507D01*
X99655340Y-82914361D01*
X99623528Y-82913870D01*
X99580634Y-82919857D01*
X99534942Y-82931143D01*
X99494739Y-82946550D01*
X99493178Y-82947329D01*
X99428438Y-82993696D01*
X99384403Y-83053789D01*
X99362789Y-83122035D01*
X99365315Y-83192862D01*
X99393696Y-83260696D01*
X99395692Y-83263712D01*
X99444052Y-83317073D01*
X99507148Y-83352160D01*
X99590113Y-83371578D01*
X99613422Y-83374184D01*
X99723445Y-83378799D01*
X99774752Y-83373267D01*
X99774752Y-83233986D01*
X99742747Y-83232176D01*
X99733407Y-83222278D01*
X99740395Y-83197602D01*
X99756913Y-83158705D01*
X99777619Y-83115225D01*
X99778167Y-83114144D01*
X99797551Y-83077291D01*
X99810487Y-83062500D01*
X99824049Y-83066147D01*
X99841868Y-83081505D01*
X99867655Y-83120577D01*
X99869550Y-83162654D01*
X99850783Y-83200397D01*
X99814585Y-83226466D01*
X99774752Y-83233986D01*
X99774752Y-83373267D01*
X99811473Y-83369306D01*
X99881288Y-83344950D01*
X99930198Y-83311044D01*
X99979622Y-83249847D01*
X100004141Y-83182437D01*
X100005703Y-83113620D01*
X99986261Y-83048197D01*
G37*
X99986261Y-83048197D02*
X99947765Y-82990973D01*
X99892165Y-82946751D01*
X99821414Y-82920333D01*
X99769338Y-82914990D01*
X99747607Y-82915597D01*
X99730969Y-82920678D01*
X99716063Y-82934645D01*
X99699527Y-82961911D01*
X99678002Y-83006888D01*
X99648126Y-83073989D01*
X99647976Y-83074329D01*
X99619687Y-83136093D01*
X99594567Y-83186741D01*
X99575321Y-83221096D01*
X99564652Y-83233982D01*
X99564566Y-83233986D01*
X99541334Y-83222628D01*
X99515726Y-83196069D01*
X99497279Y-83165577D01*
X99493614Y-83150130D01*
X99506288Y-83107985D01*
X99538029Y-83071692D01*
X99572928Y-83053983D01*
X99598655Y-83036948D01*
X99627954Y-83003578D01*
X99653265Y-82964351D01*
X99667029Y-82929744D01*
X99667786Y-82922507D01*
X99655340Y-82914361D01*
X99623528Y-82913870D01*
X99580634Y-82919857D01*
X99534942Y-82931143D01*
X99494739Y-82946550D01*
X99493178Y-82947329D01*
X99428438Y-82993696D01*
X99384403Y-83053789D01*
X99362789Y-83122035D01*
X99365315Y-83192862D01*
X99393696Y-83260696D01*
X99395692Y-83263712D01*
X99444052Y-83317073D01*
X99507148Y-83352160D01*
X99590113Y-83371578D01*
X99613422Y-83374184D01*
X99723445Y-83378799D01*
X99774752Y-83373267D01*
X99774752Y-83233986D01*
X99742747Y-83232176D01*
X99733407Y-83222278D01*
X99740395Y-83197602D01*
X99756913Y-83158705D01*
X99777619Y-83115225D01*
X99778167Y-83114144D01*
X99797551Y-83077291D01*
X99810487Y-83062500D01*
X99824049Y-83066147D01*
X99841868Y-83081505D01*
X99867655Y-83120577D01*
X99869550Y-83162654D01*
X99850783Y-83200397D01*
X99814585Y-83226466D01*
X99774752Y-83233986D01*
X99774752Y-83373267D01*
X99811473Y-83369306D01*
X99881288Y-83344950D01*
X99930198Y-83311044D01*
X99979622Y-83249847D01*
X100004141Y-83182437D01*
X100005703Y-83113620D01*
X99986261Y-83048197D01*
G36*
X100066211Y-81840614D02*
G01*
X100006887Y-81836361D01*
X99971928Y-81831475D01*
X99956680Y-81824705D01*
X99956485Y-81814798D01*
X99958305Y-81811586D01*
X99971485Y-81768856D01*
X99970715Y-81713273D01*
X99957167Y-81656763D01*
X99939639Y-81621418D01*
X99911639Y-81585179D01*
X99879951Y-81558687D01*
X99839687Y-81540501D01*
X99785957Y-81529178D01*
X99713874Y-81523278D01*
X99618549Y-81521357D01*
X99600263Y-81521323D01*
X99394854Y-81521300D01*
X99378920Y-81567009D01*
X99368080Y-81599473D01*
X99363032Y-81617285D01*
X99362986Y-81617809D01*
X99376672Y-81619563D01*
X99414424Y-81621056D01*
X99471276Y-81622174D01*
X99542266Y-81622803D01*
X99585427Y-81622900D01*
X99670527Y-81623102D01*
X99731519Y-81624142D01*
X99773323Y-81626669D01*
X99800858Y-81631336D01*
X99819044Y-81638793D01*
X99832802Y-81649689D01*
X99839427Y-81656493D01*
X99866125Y-81703228D01*
X99868125Y-81754228D01*
X99845545Y-81800499D01*
X99837393Y-81809056D01*
X99822064Y-81821607D01*
X99803882Y-81830312D01*
X99777591Y-81835869D01*
X99737938Y-81838974D01*
X99679668Y-81840324D01*
X99599327Y-81840614D01*
X99394854Y-81840614D01*
X99378920Y-81886323D01*
X99368080Y-81918787D01*
X99363032Y-81936599D01*
X99362986Y-81937123D01*
X99376877Y-81938463D01*
X99416061Y-81939672D01*
X99476800Y-81940699D01*
X99555359Y-81941498D01*
X99648002Y-81942019D01*
X99750991Y-81942214D01*
X100148158Y-81942214D01*
X100168056Y-81895043D01*
X100187953Y-81847871D01*
X100066211Y-81840614D01*
G37*
X100066211Y-81840614D02*
X100006887Y-81836361D01*
X99971928Y-81831475D01*
X99956680Y-81824705D01*
X99956485Y-81814798D01*
X99958305Y-81811586D01*
X99971485Y-81768856D01*
X99970715Y-81713273D01*
X99957167Y-81656763D01*
X99939639Y-81621418D01*
X99911639Y-81585179D01*
X99879951Y-81558687D01*
X99839687Y-81540501D01*
X99785957Y-81529178D01*
X99713874Y-81523278D01*
X99618549Y-81521357D01*
X99600263Y-81521323D01*
X99394854Y-81521300D01*
X99378920Y-81567009D01*
X99368080Y-81599473D01*
X99363032Y-81617285D01*
X99362986Y-81617809D01*
X99376672Y-81619563D01*
X99414424Y-81621056D01*
X99471276Y-81622174D01*
X99542266Y-81622803D01*
X99585427Y-81622900D01*
X99670527Y-81623102D01*
X99731519Y-81624142D01*
X99773323Y-81626669D01*
X99800858Y-81631336D01*
X99819044Y-81638793D01*
X99832802Y-81649689D01*
X99839427Y-81656493D01*
X99866125Y-81703228D01*
X99868125Y-81754228D01*
X99845545Y-81800499D01*
X99837393Y-81809056D01*
X99822064Y-81821607D01*
X99803882Y-81830312D01*
X99777591Y-81835869D01*
X99737938Y-81838974D01*
X99679668Y-81840324D01*
X99599327Y-81840614D01*
X99394854Y-81840614D01*
X99378920Y-81886323D01*
X99368080Y-81918787D01*
X99363032Y-81936599D01*
X99362986Y-81937123D01*
X99376877Y-81938463D01*
X99416061Y-81939672D01*
X99476800Y-81940699D01*
X99555359Y-81941498D01*
X99648002Y-81942019D01*
X99750991Y-81942214D01*
X100148158Y-81942214D01*
X100168056Y-81895043D01*
X100187953Y-81847871D01*
X100066211Y-81840614D01*
G36*
X99966532Y-81176756D02*
G01*
X99945413Y-81119884D01*
X99945007Y-81119233D01*
X99919120Y-81084060D01*
X99888867Y-81058093D01*
X99849442Y-81039830D01*
X99796038Y-81027768D01*
X99723849Y-81020404D01*
X99628068Y-81016236D01*
X99614422Y-81015871D01*
X99408658Y-81010624D01*
X99385822Y-81054784D01*
X99370390Y-81086737D01*
X99363077Y-81106030D01*
X99362986Y-81106922D01*
X99376478Y-81110261D01*
X99412874Y-81112913D01*
X99466048Y-81114544D01*
X99509107Y-81114900D01*
X99578859Y-81114908D01*
X99622663Y-81118097D01*
X99643556Y-81129212D01*
X99644575Y-81152999D01*
X99628759Y-81194204D01*
X99599685Y-81256414D01*
X99575537Y-81302159D01*
X99554587Y-81325687D01*
X99531753Y-81332604D01*
X99530623Y-81332614D01*
X99491288Y-81321201D01*
X99470038Y-81287408D01*
X99466961Y-81235691D01*
X99467494Y-81198439D01*
X99456765Y-81178797D01*
X99430995Y-81166548D01*
X99398163Y-81159498D01*
X99379534Y-81169658D01*
X99376868Y-81173483D01*
X99366160Y-81209499D01*
X99364644Y-81259934D01*
X99371741Y-81311874D01*
X99384712Y-81348678D01*
X99427915Y-81399562D01*
X99488054Y-81428486D01*
X99535038Y-81434214D01*
X99577418Y-81429843D01*
X99612012Y-81414025D01*
X99642737Y-81382703D01*
X99673510Y-81331822D01*
X99708248Y-81257324D01*
X99710212Y-81252786D01*
X99741213Y-81185679D01*
X99766638Y-81144268D01*
X99789486Y-81126519D01*
X99812755Y-81130393D01*
X99839444Y-81153857D01*
X99845586Y-81160873D01*
X99869400Y-81207870D01*
X99868397Y-81256567D01*
X99845049Y-81298978D01*
X99801825Y-81327116D01*
X99793340Y-81329731D01*
X99752192Y-81355192D01*
X99732372Y-81387499D01*
X99712730Y-81434214D01*
X99763550Y-81434214D01*
X99837418Y-81420004D01*
X99905173Y-81377825D01*
X99927839Y-81355876D01*
X99956931Y-81305983D01*
X99970100Y-81242533D01*
X99966532Y-81176756D01*
G37*
X99966532Y-81176756D02*
X99945413Y-81119884D01*
X99945007Y-81119233D01*
X99919120Y-81084060D01*
X99888867Y-81058093D01*
X99849442Y-81039830D01*
X99796038Y-81027768D01*
X99723849Y-81020404D01*
X99628068Y-81016236D01*
X99614422Y-81015871D01*
X99408658Y-81010624D01*
X99385822Y-81054784D01*
X99370390Y-81086737D01*
X99363077Y-81106030D01*
X99362986Y-81106922D01*
X99376478Y-81110261D01*
X99412874Y-81112913D01*
X99466048Y-81114544D01*
X99509107Y-81114900D01*
X99578859Y-81114908D01*
X99622663Y-81118097D01*
X99643556Y-81129212D01*
X99644575Y-81152999D01*
X99628759Y-81194204D01*
X99599685Y-81256414D01*
X99575537Y-81302159D01*
X99554587Y-81325687D01*
X99531753Y-81332604D01*
X99530623Y-81332614D01*
X99491288Y-81321201D01*
X99470038Y-81287408D01*
X99466961Y-81235691D01*
X99467494Y-81198439D01*
X99456765Y-81178797D01*
X99430995Y-81166548D01*
X99398163Y-81159498D01*
X99379534Y-81169658D01*
X99376868Y-81173483D01*
X99366160Y-81209499D01*
X99364644Y-81259934D01*
X99371741Y-81311874D01*
X99384712Y-81348678D01*
X99427915Y-81399562D01*
X99488054Y-81428486D01*
X99535038Y-81434214D01*
X99577418Y-81429843D01*
X99612012Y-81414025D01*
X99642737Y-81382703D01*
X99673510Y-81331822D01*
X99708248Y-81257324D01*
X99710212Y-81252786D01*
X99741213Y-81185679D01*
X99766638Y-81144268D01*
X99789486Y-81126519D01*
X99812755Y-81130393D01*
X99839444Y-81153857D01*
X99845586Y-81160873D01*
X99869400Y-81207870D01*
X99868397Y-81256567D01*
X99845049Y-81298978D01*
X99801825Y-81327116D01*
X99793340Y-81329731D01*
X99752192Y-81355192D01*
X99732372Y-81387499D01*
X99712730Y-81434214D01*
X99763550Y-81434214D01*
X99837418Y-81420004D01*
X99905173Y-81377825D01*
X99927839Y-81355876D01*
X99956931Y-81305983D01*
X99970100Y-81242533D01*
X99966532Y-81176756D01*
G36*
X99967745Y-80686574D02*
G01*
X99943416Y-80620642D01*
X99900383Y-80567227D01*
X99870091Y-80546336D01*
X99814506Y-80523561D01*
X99774314Y-80524034D01*
X99747283Y-80547938D01*
X99742687Y-80556783D01*
X99728356Y-80594970D01*
X99732028Y-80614472D01*
X99756093Y-80621078D01*
X99769386Y-80621414D01*
X99818290Y-80633508D01*
X99852501Y-80665029D01*
X99869024Y-80708841D01*
X99864866Y-80757805D01*
X99843273Y-80797606D01*
X99830956Y-80811050D01*
X99816013Y-80820579D01*
X99793425Y-80827015D01*
X99758172Y-80831183D01*
X99705234Y-80833903D01*
X99629593Y-80835998D01*
X99605643Y-80836540D01*
X99523710Y-80838519D01*
X99466045Y-80840769D01*
X99427892Y-80844143D01*
X99404496Y-80849494D01*
X99391102Y-80857676D01*
X99382955Y-80869541D01*
X99379356Y-80877138D01*
X99367048Y-80909398D01*
X99362986Y-80928389D01*
X99376552Y-80934664D01*
X99417566Y-80938494D01*
X99486501Y-80939900D01*
X99583831Y-80938902D01*
X99598843Y-80938592D01*
X99687641Y-80936399D01*
X99752481Y-80933807D01*
X99798433Y-80930118D01*
X99830565Y-80924636D01*
X99853947Y-80916665D01*
X99873648Y-80905507D01*
X99882090Y-80899670D01*
X99919443Y-80866204D01*
X99948497Y-80828773D01*
X99951033Y-80824191D01*
X99971057Y-80757074D01*
X99967745Y-80686574D01*
G37*
X99967745Y-80686574D02*
X99943416Y-80620642D01*
X99900383Y-80567227D01*
X99870091Y-80546336D01*
X99814506Y-80523561D01*
X99774314Y-80524034D01*
X99747283Y-80547938D01*
X99742687Y-80556783D01*
X99728356Y-80594970D01*
X99732028Y-80614472D01*
X99756093Y-80621078D01*
X99769386Y-80621414D01*
X99818290Y-80633508D01*
X99852501Y-80665029D01*
X99869024Y-80708841D01*
X99864866Y-80757805D01*
X99843273Y-80797606D01*
X99830956Y-80811050D01*
X99816013Y-80820579D01*
X99793425Y-80827015D01*
X99758172Y-80831183D01*
X99705234Y-80833903D01*
X99629593Y-80835998D01*
X99605643Y-80836540D01*
X99523710Y-80838519D01*
X99466045Y-80840769D01*
X99427892Y-80844143D01*
X99404496Y-80849494D01*
X99391102Y-80857676D01*
X99382955Y-80869541D01*
X99379356Y-80877138D01*
X99367048Y-80909398D01*
X99362986Y-80928389D01*
X99376552Y-80934664D01*
X99417566Y-80938494D01*
X99486501Y-80939900D01*
X99583831Y-80938902D01*
X99598843Y-80938592D01*
X99687641Y-80936399D01*
X99752481Y-80933807D01*
X99798433Y-80930118D01*
X99830565Y-80924636D01*
X99853947Y-80916665D01*
X99873648Y-80905507D01*
X99882090Y-80899670D01*
X99919443Y-80866204D01*
X99948497Y-80828773D01*
X99951033Y-80824191D01*
X99971057Y-80757074D01*
X99967745Y-80686574D01*
G36*
X99852142Y-80026383D02*
G01*
X99743663Y-80026567D01*
X99660213Y-80027281D01*
X99597796Y-80028825D01*
X99552415Y-80031499D01*
X99520071Y-80035606D01*
X99496767Y-80041445D01*
X99478505Y-80049318D01*
X99468082Y-80055279D01*
X99411555Y-80104645D01*
X99376123Y-80167236D01*
X99363410Y-80236487D01*
X99375037Y-80305832D01*
X99395932Y-80347125D01*
X99432078Y-80390475D01*
X99476224Y-80420019D01*
X99534038Y-80437845D01*
X99611187Y-80446037D01*
X99667786Y-80447198D01*
X99671853Y-80447042D01*
X99671853Y-80345643D01*
X99606950Y-80345024D01*
X99563986Y-80342186D01*
X99535878Y-80335660D01*
X99515547Y-80323977D01*
X99500212Y-80310017D01*
X99470610Y-80263135D01*
X99468081Y-80212799D01*
X99492795Y-80165224D01*
X99496144Y-80161521D01*
X99513565Y-80145717D01*
X99534291Y-80135807D01*
X99565138Y-80130442D01*
X99612923Y-80128272D01*
X99665752Y-80127929D01*
X99732119Y-80128673D01*
X99776394Y-80131752D01*
X99805491Y-80138439D01*
X99826327Y-80150004D01*
X99837393Y-80159487D01*
X99865302Y-80203540D01*
X99868657Y-80254276D01*
X99847341Y-80302704D01*
X99839427Y-80312050D01*
X99821853Y-80327960D01*
X99800913Y-80337890D01*
X99769718Y-80343222D01*
X99721378Y-80345337D01*
X99671853Y-80345643D01*
X99671853Y-80447042D01*
X99758932Y-80443690D01*
X99827414Y-80431774D01*
X99878900Y-80409365D01*
X99919057Y-80374376D01*
X99939639Y-80347125D01*
X99961875Y-80297593D01*
X99972196Y-80240184D01*
X99969433Y-80186818D01*
X99958288Y-80156957D01*
X99955117Y-80145239D01*
X99966943Y-80137463D01*
X99998634Y-80132035D01*
X100046907Y-80127929D01*
X100100671Y-80123433D01*
X100133018Y-80117187D01*
X100151515Y-80105824D01*
X100163730Y-80085972D01*
X100169138Y-80073500D01*
X100188899Y-80026329D01*
X99852142Y-80026383D01*
G37*
X99852142Y-80026383D02*
X99743663Y-80026567D01*
X99660213Y-80027281D01*
X99597796Y-80028825D01*
X99552415Y-80031499D01*
X99520071Y-80035606D01*
X99496767Y-80041445D01*
X99478505Y-80049318D01*
X99468082Y-80055279D01*
X99411555Y-80104645D01*
X99376123Y-80167236D01*
X99363410Y-80236487D01*
X99375037Y-80305832D01*
X99395932Y-80347125D01*
X99432078Y-80390475D01*
X99476224Y-80420019D01*
X99534038Y-80437845D01*
X99611187Y-80446037D01*
X99667786Y-80447198D01*
X99671853Y-80447042D01*
X99671853Y-80345643D01*
X99606950Y-80345024D01*
X99563986Y-80342186D01*
X99535878Y-80335660D01*
X99515547Y-80323977D01*
X99500212Y-80310017D01*
X99470610Y-80263135D01*
X99468081Y-80212799D01*
X99492795Y-80165224D01*
X99496144Y-80161521D01*
X99513565Y-80145717D01*
X99534291Y-80135807D01*
X99565138Y-80130442D01*
X99612923Y-80128272D01*
X99665752Y-80127929D01*
X99732119Y-80128673D01*
X99776394Y-80131752D01*
X99805491Y-80138439D01*
X99826327Y-80150004D01*
X99837393Y-80159487D01*
X99865302Y-80203540D01*
X99868657Y-80254276D01*
X99847341Y-80302704D01*
X99839427Y-80312050D01*
X99821853Y-80327960D01*
X99800913Y-80337890D01*
X99769718Y-80343222D01*
X99721378Y-80345337D01*
X99671853Y-80345643D01*
X99671853Y-80447042D01*
X99758932Y-80443690D01*
X99827414Y-80431774D01*
X99878900Y-80409365D01*
X99919057Y-80374376D01*
X99939639Y-80347125D01*
X99961875Y-80297593D01*
X99972196Y-80240184D01*
X99969433Y-80186818D01*
X99958288Y-80156957D01*
X99955117Y-80145239D01*
X99966943Y-80137463D01*
X99998634Y-80132035D01*
X100046907Y-80127929D01*
X100100671Y-80123433D01*
X100133018Y-80117187D01*
X100151515Y-80105824D01*
X100163730Y-80085972D01*
X100169138Y-80073500D01*
X100188899Y-80026329D01*
X99852142Y-80026383D01*
G36*
X99958837Y-79436667D02*
G01*
X99920650Y-79434452D01*
X99862614Y-79432716D01*
X99789320Y-79431601D01*
X99712445Y-79431243D01*
X99452304Y-79431243D01*
X99406373Y-79477174D01*
X99378071Y-79508825D01*
X99366607Y-79536610D01*
X99367332Y-79574585D01*
X99369179Y-79589660D01*
X99374552Y-79636774D01*
X99377631Y-79675744D01*
X99377915Y-79685243D01*
X99376055Y-79717267D01*
X99371386Y-79763068D01*
X99369179Y-79780826D01*
X99365765Y-79824443D01*
X99373180Y-79853755D01*
X99396073Y-79882820D01*
X99406373Y-79893312D01*
X99452304Y-79939243D01*
X99938898Y-79939243D01*
X99955742Y-79902274D01*
X99968218Y-79870441D01*
X99972586Y-79851817D01*
X99958782Y-79847042D01*
X99920214Y-79842579D01*
X99861144Y-79838725D01*
X99785837Y-79835778D01*
X99722214Y-79834357D01*
X99471843Y-79830386D01*
X99466944Y-79795741D01*
X99470369Y-79764232D01*
X99481459Y-79748792D01*
X99502192Y-79744477D01*
X99546355Y-79740792D01*
X99608354Y-79738031D01*
X99682591Y-79736488D01*
X99720794Y-79736265D01*
X99940717Y-79736043D01*
X99956651Y-79690334D01*
X99967485Y-79657982D01*
X99972538Y-79640385D01*
X99972586Y-79639877D01*
X99958852Y-79638112D01*
X99920770Y-79636171D01*
X99863018Y-79634218D01*
X99790273Y-79632416D01*
X99722214Y-79631157D01*
X99471843Y-79627186D01*
X99471843Y-79540100D01*
X99700260Y-79536104D01*
X99928678Y-79532108D01*
X99950632Y-79489653D01*
X99965707Y-79458308D01*
X99972549Y-79439756D01*
X99972586Y-79439221D01*
X99958837Y-79436667D01*
G37*
X99958837Y-79436667D02*
X99920650Y-79434452D01*
X99862614Y-79432716D01*
X99789320Y-79431601D01*
X99712445Y-79431243D01*
X99452304Y-79431243D01*
X99406373Y-79477174D01*
X99378071Y-79508825D01*
X99366607Y-79536610D01*
X99367332Y-79574585D01*
X99369179Y-79589660D01*
X99374552Y-79636774D01*
X99377631Y-79675744D01*
X99377915Y-79685243D01*
X99376055Y-79717267D01*
X99371386Y-79763068D01*
X99369179Y-79780826D01*
X99365765Y-79824443D01*
X99373180Y-79853755D01*
X99396073Y-79882820D01*
X99406373Y-79893312D01*
X99452304Y-79939243D01*
X99938898Y-79939243D01*
X99955742Y-79902274D01*
X99968218Y-79870441D01*
X99972586Y-79851817D01*
X99958782Y-79847042D01*
X99920214Y-79842579D01*
X99861144Y-79838725D01*
X99785837Y-79835778D01*
X99722214Y-79834357D01*
X99471843Y-79830386D01*
X99466944Y-79795741D01*
X99470369Y-79764232D01*
X99481459Y-79748792D01*
X99502192Y-79744477D01*
X99546355Y-79740792D01*
X99608354Y-79738031D01*
X99682591Y-79736488D01*
X99720794Y-79736265D01*
X99940717Y-79736043D01*
X99956651Y-79690334D01*
X99967485Y-79657982D01*
X99972538Y-79640385D01*
X99972586Y-79639877D01*
X99958852Y-79638112D01*
X99920770Y-79636171D01*
X99863018Y-79634218D01*
X99790273Y-79632416D01*
X99722214Y-79631157D01*
X99471843Y-79627186D01*
X99471843Y-79540100D01*
X99700260Y-79536104D01*
X99928678Y-79532108D01*
X99950632Y-79489653D01*
X99965707Y-79458308D01*
X99972549Y-79439756D01*
X99972586Y-79439221D01*
X99958837Y-79436667D01*
G36*
X99961165Y-79071624D02*
G01*
X99942156Y-79029833D01*
X99919122Y-78997031D01*
X99893367Y-78972997D01*
X99860142Y-78956403D01*
X99814700Y-78945923D01*
X99752293Y-78940229D01*
X99668173Y-78937993D01*
X99612779Y-78937757D01*
X99396674Y-78937757D01*
X99379830Y-78974726D01*
X99367519Y-79003844D01*
X99362986Y-79018269D01*
X99376475Y-79021028D01*
X99412847Y-79023218D01*
X99465958Y-79024558D01*
X99508128Y-79024843D01*
X99569053Y-79026066D01*
X99617385Y-79029364D01*
X99646982Y-79034179D01*
X99653271Y-79038004D01*
X99646848Y-79063717D01*
X99630375Y-79104082D01*
X99608042Y-79150821D01*
X99584043Y-79195655D01*
X99562570Y-79230307D01*
X99547815Y-79246498D01*
X99547655Y-79246562D01*
X99520348Y-79245170D01*
X99494281Y-79232682D01*
X99473108Y-79210757D01*
X99466026Y-79178757D01*
X99466851Y-79151408D01*
X99467458Y-79112674D01*
X99458384Y-79092342D01*
X99434408Y-79080131D01*
X99429887Y-79078591D01*
X99395694Y-79073297D01*
X99374932Y-79087453D01*
X99365038Y-79124352D01*
X99363208Y-79164211D01*
X99376773Y-79235938D01*
X99396145Y-79273068D01*
X99441655Y-79318924D01*
X99497517Y-79343244D01*
X99556543Y-79345427D01*
X99611547Y-79324871D01*
X99646014Y-79293951D01*
X99665311Y-79263080D01*
X99689741Y-79214558D01*
X99714515Y-79158015D01*
X99718301Y-79148590D01*
X99745709Y-79086481D01*
X99769866Y-79050678D01*
X99793881Y-79039163D01*
X99820865Y-79049920D01*
X99841957Y-79068386D01*
X99867928Y-79112031D01*
X99869876Y-79160054D01*
X99849863Y-79204094D01*
X99809949Y-79235791D01*
X99799652Y-79239951D01*
X99761776Y-79264173D01*
X99733658Y-79299535D01*
X99710583Y-79344157D01*
X99776015Y-79344157D01*
X99815994Y-79341531D01*
X99847503Y-79330270D01*
X99881122Y-79305301D01*
X99907016Y-79281331D01*
X99943683Y-79244059D01*
X99963379Y-79215099D01*
X99971280Y-79183995D01*
X99972586Y-79148787D01*
X99961165Y-79071624D01*
G37*
X99961165Y-79071624D02*
X99942156Y-79029833D01*
X99919122Y-78997031D01*
X99893367Y-78972997D01*
X99860142Y-78956403D01*
X99814700Y-78945923D01*
X99752293Y-78940229D01*
X99668173Y-78937993D01*
X99612779Y-78937757D01*
X99396674Y-78937757D01*
X99379830Y-78974726D01*
X99367519Y-79003844D01*
X99362986Y-79018269D01*
X99376475Y-79021028D01*
X99412847Y-79023218D01*
X99465958Y-79024558D01*
X99508128Y-79024843D01*
X99569053Y-79026066D01*
X99617385Y-79029364D01*
X99646982Y-79034179D01*
X99653271Y-79038004D01*
X99646848Y-79063717D01*
X99630375Y-79104082D01*
X99608042Y-79150821D01*
X99584043Y-79195655D01*
X99562570Y-79230307D01*
X99547815Y-79246498D01*
X99547655Y-79246562D01*
X99520348Y-79245170D01*
X99494281Y-79232682D01*
X99473108Y-79210757D01*
X99466026Y-79178757D01*
X99466851Y-79151408D01*
X99467458Y-79112674D01*
X99458384Y-79092342D01*
X99434408Y-79080131D01*
X99429887Y-79078591D01*
X99395694Y-79073297D01*
X99374932Y-79087453D01*
X99365038Y-79124352D01*
X99363208Y-79164211D01*
X99376773Y-79235938D01*
X99396145Y-79273068D01*
X99441655Y-79318924D01*
X99497517Y-79343244D01*
X99556543Y-79345427D01*
X99611547Y-79324871D01*
X99646014Y-79293951D01*
X99665311Y-79263080D01*
X99689741Y-79214558D01*
X99714515Y-79158015D01*
X99718301Y-79148590D01*
X99745709Y-79086481D01*
X99769866Y-79050678D01*
X99793881Y-79039163D01*
X99820865Y-79049920D01*
X99841957Y-79068386D01*
X99867928Y-79112031D01*
X99869876Y-79160054D01*
X99849863Y-79204094D01*
X99809949Y-79235791D01*
X99799652Y-79239951D01*
X99761776Y-79264173D01*
X99733658Y-79299535D01*
X99710583Y-79344157D01*
X99776015Y-79344157D01*
X99815994Y-79341531D01*
X99847503Y-79330270D01*
X99881122Y-79305301D01*
X99907016Y-79281331D01*
X99943683Y-79244059D01*
X99963379Y-79215099D01*
X99971280Y-79183995D01*
X99972586Y-79148787D01*
X99961165Y-79071624D01*
G36*
X99958748Y-78563900D02*
G01*
X99951166Y-78546552D01*
X99918372Y-78505144D01*
X99870953Y-78469735D01*
X99820349Y-78447836D01*
X99795402Y-78444271D01*
X99760573Y-78456221D01*
X99742143Y-78482433D01*
X99730984Y-78510536D01*
X99728928Y-78523405D01*
X99743851Y-78529671D01*
X99776325Y-78542044D01*
X99790998Y-78547472D01*
X99841756Y-78577910D01*
X99867073Y-78621980D01*
X99866294Y-78678490D01*
X99865297Y-78682675D01*
X99850993Y-78712845D01*
X99823107Y-78735024D01*
X99778213Y-78750173D01*
X99712885Y-78759250D01*
X99623696Y-78763214D01*
X99576239Y-78763586D01*
X99501429Y-78763770D01*
X99450431Y-78764978D01*
X99418029Y-78768191D01*
X99399005Y-78774391D01*
X99388144Y-78784560D01*
X99380228Y-78799681D01*
X99379830Y-78800554D01*
X99367519Y-78829672D01*
X99362986Y-78844097D01*
X99376691Y-78846314D01*
X99414575Y-78848211D01*
X99471785Y-78849653D01*
X99543473Y-78850502D01*
X99595935Y-78850671D01*
X99697453Y-78849808D01*
X99774468Y-78846430D01*
X99831477Y-78839358D01*
X99872974Y-78827412D01*
X99903457Y-78809410D01*
X99927420Y-78784173D01*
X99944145Y-78759253D01*
X99966403Y-78699329D01*
X99971424Y-78629589D01*
X99958748Y-78563900D01*
G37*
X99958748Y-78563900D02*
X99951166Y-78546552D01*
X99918372Y-78505144D01*
X99870953Y-78469735D01*
X99820349Y-78447836D01*
X99795402Y-78444271D01*
X99760573Y-78456221D01*
X99742143Y-78482433D01*
X99730984Y-78510536D01*
X99728928Y-78523405D01*
X99743851Y-78529671D01*
X99776325Y-78542044D01*
X99790998Y-78547472D01*
X99841756Y-78577910D01*
X99867073Y-78621980D01*
X99866294Y-78678490D01*
X99865297Y-78682675D01*
X99850993Y-78712845D01*
X99823107Y-78735024D01*
X99778213Y-78750173D01*
X99712885Y-78759250D01*
X99623696Y-78763214D01*
X99576239Y-78763586D01*
X99501429Y-78763770D01*
X99450431Y-78764978D01*
X99418029Y-78768191D01*
X99399005Y-78774391D01*
X99388144Y-78784560D01*
X99380228Y-78799681D01*
X99379830Y-78800554D01*
X99367519Y-78829672D01*
X99362986Y-78844097D01*
X99376691Y-78846314D01*
X99414575Y-78848211D01*
X99471785Y-78849653D01*
X99543473Y-78850502D01*
X99595935Y-78850671D01*
X99697453Y-78849808D01*
X99774468Y-78846430D01*
X99831477Y-78839358D01*
X99872974Y-78827412D01*
X99903457Y-78809410D01*
X99927420Y-78784173D01*
X99944145Y-78759253D01*
X99966403Y-78699329D01*
X99971424Y-78629589D01*
X99958748Y-78563900D01*
G36*
X99950534Y-78062905D02*
G01*
X99913003Y-78005479D01*
X99879404Y-77977781D01*
X99818436Y-77955838D01*
X99770192Y-77954095D01*
X99705684Y-77958043D01*
X99640566Y-78106814D01*
X99607298Y-78179151D01*
X99580536Y-78226416D01*
X99557356Y-78250993D01*
X99534833Y-78255263D01*
X99510045Y-78241611D01*
X99493614Y-78226557D01*
X99467265Y-78182754D01*
X99465419Y-78135111D01*
X99485954Y-78091355D01*
X99526748Y-78059211D01*
X99541153Y-78053462D01*
X99586144Y-78025924D01*
X99605318Y-77994242D01*
X99621721Y-77950786D01*
X99559534Y-77950786D01*
X99517217Y-77954628D01*
X99481531Y-77969677D01*
X99440557Y-78001220D01*
X99435233Y-78005908D01*
X99398780Y-78040994D01*
X99379217Y-78071153D01*
X99370217Y-78108885D01*
X99367270Y-78140165D01*
X99366535Y-78196115D01*
X99375840Y-78235945D01*
X99389654Y-78260792D01*
X99420033Y-78299844D01*
X99452887Y-78326875D01*
X99494206Y-78343983D01*
X99549979Y-78353262D01*
X99626195Y-78356807D01*
X99664878Y-78357090D01*
X99711253Y-78356128D01*
X99711253Y-78268493D01*
X99686374Y-78267477D01*
X99682300Y-78264944D01*
X99687835Y-78248226D01*
X99702483Y-78212251D01*
X99723310Y-78164169D01*
X99727786Y-78154114D01*
X99758686Y-78093348D01*
X99785843Y-78059868D01*
X99811280Y-78052510D01*
X99837019Y-78070109D01*
X99848391Y-78084644D01*
X99871136Y-78137090D01*
X99867378Y-78186178D01*
X99839616Y-78227273D01*
X99790348Y-78255742D01*
X99751243Y-78264869D01*
X99711253Y-78268493D01*
X99711253Y-78356128D01*
X99755251Y-78355215D01*
X99822116Y-78348304D01*
X99870805Y-78334616D01*
X99906651Y-78312404D01*
X99934987Y-78279926D01*
X99944145Y-78265767D01*
X99967993Y-78201447D01*
X99969494Y-78131027D01*
X99950534Y-78062905D01*
G37*
X99950534Y-78062905D02*
X99913003Y-78005479D01*
X99879404Y-77977781D01*
X99818436Y-77955838D01*
X99770192Y-77954095D01*
X99705684Y-77958043D01*
X99640566Y-78106814D01*
X99607298Y-78179151D01*
X99580536Y-78226416D01*
X99557356Y-78250993D01*
X99534833Y-78255263D01*
X99510045Y-78241611D01*
X99493614Y-78226557D01*
X99467265Y-78182754D01*
X99465419Y-78135111D01*
X99485954Y-78091355D01*
X99526748Y-78059211D01*
X99541153Y-78053462D01*
X99586144Y-78025924D01*
X99605318Y-77994242D01*
X99621721Y-77950786D01*
X99559534Y-77950786D01*
X99517217Y-77954628D01*
X99481531Y-77969677D01*
X99440557Y-78001220D01*
X99435233Y-78005908D01*
X99398780Y-78040994D01*
X99379217Y-78071153D01*
X99370217Y-78108885D01*
X99367270Y-78140165D01*
X99366535Y-78196115D01*
X99375840Y-78235945D01*
X99389654Y-78260792D01*
X99420033Y-78299844D01*
X99452887Y-78326875D01*
X99494206Y-78343983D01*
X99549979Y-78353262D01*
X99626195Y-78356807D01*
X99664878Y-78357090D01*
X99711253Y-78356128D01*
X99711253Y-78268493D01*
X99686374Y-78267477D01*
X99682300Y-78264944D01*
X99687835Y-78248226D01*
X99702483Y-78212251D01*
X99723310Y-78164169D01*
X99727786Y-78154114D01*
X99758686Y-78093348D01*
X99785843Y-78059868D01*
X99811280Y-78052510D01*
X99837019Y-78070109D01*
X99848391Y-78084644D01*
X99871136Y-78137090D01*
X99867378Y-78186178D01*
X99839616Y-78227273D01*
X99790348Y-78255742D01*
X99751243Y-78264869D01*
X99711253Y-78268493D01*
X99711253Y-78356128D01*
X99755251Y-78355215D01*
X99822116Y-78348304D01*
X99870805Y-78334616D01*
X99906651Y-78312404D01*
X99934987Y-78279926D01*
X99944145Y-78265767D01*
X99967993Y-78201447D01*
X99969494Y-78131027D01*
X99950534Y-78062905D01*
G36*
X104675152Y-81112590D02*
G01*
X104674722Y-81034046D01*
X104673558Y-80977202D01*
X104671293Y-80938395D01*
X104667560Y-80913962D01*
X104661994Y-80900238D01*
X104654227Y-80893560D01*
X104643895Y-80890264D01*
X104642557Y-80889944D01*
X104618421Y-80884938D01*
X104570799Y-80875671D01*
X104504759Y-80863108D01*
X104425372Y-80848213D01*
X104337704Y-80831949D01*
X104334625Y-80831381D01*
X104248711Y-80815090D01*
X104172804Y-80799848D01*
X104111455Y-80786639D01*
X104069218Y-80776446D01*
X104050645Y-80770252D01*
X104050316Y-80769957D01*
X104041247Y-80751712D01*
X104026133Y-80714095D01*
X104008238Y-80665229D01*
X104008142Y-80664957D01*
X103985007Y-80603407D01*
X103955535Y-80530843D01*
X103925903Y-80462443D01*
X103924438Y-80459206D01*
X103873874Y-80347798D01*
X104042340Y-80101101D01*
X104093697Y-80025423D01*
X104139611Y-79956869D01*
X104177470Y-79899412D01*
X104204663Y-79857024D01*
X104218579Y-79833675D01*
X104219611Y-79831458D01*
X104215016Y-79814490D01*
X104192845Y-79782799D01*
X104152053Y-79735148D01*
X104091595Y-79670302D01*
X104027273Y-79604103D01*
X103963888Y-79540286D01*
X103906049Y-79483171D01*
X103857325Y-79436195D01*
X103821290Y-79402797D01*
X103801516Y-79386415D01*
X103800498Y-79385806D01*
X103786928Y-79383995D01*
X103764767Y-79390817D01*
X103731022Y-79407960D01*
X103682700Y-79437107D01*
X103616808Y-79479945D01*
X103531983Y-79537052D01*
X103457323Y-79587734D01*
X103390360Y-79633039D01*
X103334984Y-79670350D01*
X103295080Y-79697048D01*
X103274538Y-79710515D01*
X103273144Y-79711363D01*
X103253462Y-79709719D01*
X103215207Y-79697255D01*
X103165611Y-79676452D01*
X103149772Y-79669038D01*
X103079210Y-79636686D01*
X102999147Y-79602172D01*
X102929871Y-79574135D01*
X102878455Y-79553932D01*
X102839381Y-79537885D01*
X102818959Y-79528612D01*
X102817386Y-79527459D01*
X102814779Y-79510404D01*
X102807637Y-79470202D01*
X102796977Y-79412198D01*
X102783815Y-79341737D01*
X102769167Y-79264165D01*
X102754051Y-79184828D01*
X102739482Y-79109069D01*
X102726478Y-79042236D01*
X102716055Y-78989672D01*
X102709230Y-78956724D01*
X102707301Y-78948643D01*
X102702538Y-78940295D01*
X102691782Y-78933994D01*
X102671402Y-78929455D01*
X102637766Y-78926396D01*
X102587245Y-78924533D01*
X102516208Y-78923582D01*
X102421024Y-78923260D01*
X102382008Y-78923243D01*
X102064701Y-78923243D01*
X102049661Y-78999443D01*
X102041505Y-79041837D01*
X102029601Y-79105100D01*
X102015384Y-79181538D01*
X102000290Y-79263457D01*
X101996145Y-79286100D01*
X101981447Y-79361694D01*
X101966995Y-79427547D01*
X101954125Y-79478134D01*
X101944178Y-79507926D01*
X101941213Y-79512888D01*
X101920217Y-79525074D01*
X101879533Y-79542547D01*
X101827178Y-79561923D01*
X101815900Y-79565766D01*
X101745977Y-79591161D01*
X101667082Y-79622683D01*
X101596234Y-79653531D01*
X101595905Y-79653683D01*
X101484767Y-79705053D01*
X101236247Y-79536101D01*
X100987728Y-79367148D01*
X100770442Y-79584071D01*
X100705774Y-79649681D01*
X100648767Y-79709521D01*
X100602467Y-79760233D01*
X100569916Y-79798454D01*
X100554157Y-79820825D01*
X100553157Y-79824034D01*
X100561031Y-79842874D01*
X100582922Y-79881320D01*
X100616233Y-79935170D01*
X100658369Y-80000224D01*
X100705557Y-80070560D01*
X100753690Y-80141945D01*
X100795572Y-80205592D01*
X100828629Y-80257459D01*
X100850282Y-80293505D01*
X100857957Y-80309633D01*
X100851463Y-80329311D01*
X100834350Y-80366625D01*
X100810174Y-80413879D01*
X100807487Y-80418888D01*
X100775573Y-80482523D01*
X100759921Y-80526159D01*
X100759755Y-80553298D01*
X100774296Y-80567443D01*
X100774500Y-80567525D01*
X100791721Y-80574595D01*
X100832601Y-80591458D01*
X100893975Y-80616805D01*
X100972681Y-80649329D01*
X101065553Y-80687722D01*
X101169428Y-80730678D01*
X101269998Y-80772278D01*
X101380984Y-80817996D01*
X101483797Y-80859974D01*
X101575285Y-80896952D01*
X101652299Y-80927673D01*
X101711685Y-80950878D01*
X101750291Y-80965310D01*
X101764700Y-80969757D01*
X101781228Y-80958604D01*
X101807570Y-80929431D01*
X101836613Y-80890529D01*
X101928461Y-80779743D01*
X102033741Y-80693149D01*
X102150234Y-80631784D01*
X102275724Y-80596685D01*
X102407993Y-80588892D01*
X102469043Y-80594557D01*
X102595705Y-80625422D01*
X102707559Y-80678580D01*
X102803499Y-80750733D01*
X102882424Y-80838583D01*
X102943230Y-80938835D01*
X102984813Y-81048190D01*
X103006072Y-81163353D01*
X103005901Y-81281025D01*
X102983199Y-81397910D01*
X102936862Y-81510711D01*
X102865787Y-81616131D01*
X102825589Y-81660132D01*
X102722371Y-81744521D01*
X102609575Y-81803278D01*
X102490490Y-81836796D01*
X102368405Y-81845465D01*
X102246607Y-81829677D01*
X102128384Y-81789822D01*
X102017025Y-81726293D01*
X101915816Y-81639479D01*
X101836613Y-81542471D01*
X101806338Y-81502063D01*
X101780281Y-81473518D01*
X101764675Y-81463243D01*
X101747657Y-81468623D01*
X101707000Y-81483925D01*
X101645858Y-81507888D01*
X101567381Y-81539256D01*
X101474720Y-81576768D01*
X101371028Y-81619167D01*
X101269974Y-81660837D01*
X101158893Y-81706810D01*
X101055959Y-81749393D01*
X100964335Y-81787279D01*
X100887184Y-81819160D01*
X100827669Y-81843729D01*
X100788956Y-81859680D01*
X100774500Y-81865590D01*
X100759815Y-81879552D01*
X100759858Y-81906560D01*
X100775401Y-81950087D01*
X100807216Y-82013610D01*
X100807487Y-82014112D01*
X100832177Y-82061940D01*
X100850162Y-82100603D01*
X100857886Y-82122405D01*
X100857957Y-82123367D01*
X100850122Y-82139779D01*
X100828335Y-82176013D01*
X100795172Y-82228026D01*
X100753209Y-82291775D01*
X100705557Y-82362440D01*
X100657309Y-82434384D01*
X100615349Y-82499226D01*
X100582273Y-82552765D01*
X100560679Y-82590803D01*
X100553157Y-82608967D01*
X100563043Y-82625692D01*
X100590674Y-82659320D01*
X100633005Y-82706490D01*
X100686995Y-82763842D01*
X100749601Y-82828016D01*
X100770517Y-82849003D01*
X100987877Y-83066001D01*
X101230280Y-82900832D01*
X101304719Y-82850636D01*
X101371528Y-82806581D01*
X101426835Y-82771138D01*
X101466771Y-82746781D01*
X101487464Y-82735978D01*
X101488937Y-82735662D01*
X101508442Y-82741357D01*
X101547678Y-82756674D01*
X101600070Y-82778963D01*
X101635145Y-82794607D01*
X101702299Y-82823859D01*
X101770142Y-82851406D01*
X101827466Y-82872763D01*
X101844928Y-82878565D01*
X101891562Y-82895048D01*
X101927595Y-82911160D01*
X101941213Y-82920010D01*
X101949548Y-82939540D01*
X101961363Y-82982166D01*
X101975319Y-83042355D01*
X101990078Y-83114578D01*
X101996145Y-83146900D01*
X102011227Y-83228978D01*
X102025831Y-83307705D01*
X102038520Y-83375391D01*
X102047858Y-83424340D01*
X102049661Y-83433557D01*
X102064701Y-83509757D01*
X102382008Y-83509757D01*
X102486346Y-83509586D01*
X102565287Y-83508884D01*
X102622462Y-83507366D01*
X102661501Y-83504751D01*
X102686035Y-83500754D01*
X102699695Y-83495091D01*
X102706111Y-83487480D01*
X102707301Y-83484357D01*
X102711520Y-83465522D01*
X102719938Y-83423912D01*
X102731539Y-83364870D01*
X102745305Y-83293743D01*
X102760220Y-83215875D01*
X102775268Y-83136613D01*
X102789431Y-83061302D01*
X102801694Y-82995287D01*
X102811039Y-82943913D01*
X102816450Y-82912525D01*
X102817386Y-82905541D01*
X102829904Y-82899215D01*
X102863254Y-82885210D01*
X102911123Y-82866145D01*
X102929871Y-82858866D01*
X103002305Y-82829504D01*
X103082330Y-82794929D01*
X103149772Y-82763963D01*
X103201341Y-82741177D01*
X103243715Y-82726018D01*
X103269666Y-82720958D01*
X103273144Y-82721764D01*
X103289564Y-82732459D01*
X103326083Y-82756880D01*
X103378813Y-82792405D01*
X103443865Y-82836413D01*
X103517349Y-82886283D01*
X103531855Y-82896144D01*
X103617796Y-82954008D01*
X103683239Y-82996544D01*
X103731196Y-83025446D01*
X103764680Y-83042410D01*
X103786705Y-83049133D01*
X103800283Y-83047310D01*
X103800369Y-83047264D01*
X103818203Y-83032914D01*
X103852683Y-83001177D01*
X103900232Y-82955490D01*
X103957278Y-82899296D01*
X104020245Y-82836032D01*
X104027273Y-82828898D01*
X104104480Y-82749170D01*
X104161170Y-82687643D01*
X104198390Y-82643079D01*
X104217185Y-82614243D01*
X104219611Y-82601542D01*
X104209029Y-82583006D01*
X104184584Y-82544539D01*
X104148888Y-82490114D01*
X104104553Y-82423702D01*
X104054189Y-82349275D01*
X104042340Y-82331899D01*
X103873874Y-82085203D01*
X103924438Y-81973794D01*
X103953905Y-81906043D01*
X103983541Y-81833317D01*
X104007170Y-81770797D01*
X104008142Y-81768043D01*
X104026043Y-81719140D01*
X104041180Y-81681443D01*
X104050290Y-81663075D01*
X104050316Y-81663044D01*
X104066783Y-81657215D01*
X104107281Y-81647308D01*
X104167258Y-81634305D01*
X104242160Y-81619191D01*
X104327436Y-81602948D01*
X104334625Y-81601619D01*
X104422486Y-81585325D01*
X104502240Y-81570367D01*
X104568819Y-81557709D01*
X104617153Y-81548314D01*
X104642175Y-81543146D01*
X104642557Y-81543056D01*
X104653201Y-81539911D01*
X104661238Y-81533796D01*
X104667033Y-81521047D01*
X104670953Y-81498000D01*
X104673365Y-81460991D01*
X104674635Y-81406356D01*
X104675129Y-81330433D01*
X104675214Y-81229556D01*
X104675214Y-81216500D01*
X104675152Y-81112590D01*
G37*
X104675152Y-81112590D02*
X104674722Y-81034046D01*
X104673558Y-80977202D01*
X104671293Y-80938395D01*
X104667560Y-80913962D01*
X104661994Y-80900238D01*
X104654227Y-80893560D01*
X104643895Y-80890264D01*
X104642557Y-80889944D01*
X104618421Y-80884938D01*
X104570799Y-80875671D01*
X104504759Y-80863108D01*
X104425372Y-80848213D01*
X104337704Y-80831949D01*
X104334625Y-80831381D01*
X104248711Y-80815090D01*
X104172804Y-80799848D01*
X104111455Y-80786639D01*
X104069218Y-80776446D01*
X104050645Y-80770252D01*
X104050316Y-80769957D01*
X104041247Y-80751712D01*
X104026133Y-80714095D01*
X104008238Y-80665229D01*
X104008142Y-80664957D01*
X103985007Y-80603407D01*
X103955535Y-80530843D01*
X103925903Y-80462443D01*
X103924438Y-80459206D01*
X103873874Y-80347798D01*
X104042340Y-80101101D01*
X104093697Y-80025423D01*
X104139611Y-79956869D01*
X104177470Y-79899412D01*
X104204663Y-79857024D01*
X104218579Y-79833675D01*
X104219611Y-79831458D01*
X104215016Y-79814490D01*
X104192845Y-79782799D01*
X104152053Y-79735148D01*
X104091595Y-79670302D01*
X104027273Y-79604103D01*
X103963888Y-79540286D01*
X103906049Y-79483171D01*
X103857325Y-79436195D01*
X103821290Y-79402797D01*
X103801516Y-79386415D01*
X103800498Y-79385806D01*
X103786928Y-79383995D01*
X103764767Y-79390817D01*
X103731022Y-79407960D01*
X103682700Y-79437107D01*
X103616808Y-79479945D01*
X103531983Y-79537052D01*
X103457323Y-79587734D01*
X103390360Y-79633039D01*
X103334984Y-79670350D01*
X103295080Y-79697048D01*
X103274538Y-79710515D01*
X103273144Y-79711363D01*
X103253462Y-79709719D01*
X103215207Y-79697255D01*
X103165611Y-79676452D01*
X103149772Y-79669038D01*
X103079210Y-79636686D01*
X102999147Y-79602172D01*
X102929871Y-79574135D01*
X102878455Y-79553932D01*
X102839381Y-79537885D01*
X102818959Y-79528612D01*
X102817386Y-79527459D01*
X102814779Y-79510404D01*
X102807637Y-79470202D01*
X102796977Y-79412198D01*
X102783815Y-79341737D01*
X102769167Y-79264165D01*
X102754051Y-79184828D01*
X102739482Y-79109069D01*
X102726478Y-79042236D01*
X102716055Y-78989672D01*
X102709230Y-78956724D01*
X102707301Y-78948643D01*
X102702538Y-78940295D01*
X102691782Y-78933994D01*
X102671402Y-78929455D01*
X102637766Y-78926396D01*
X102587245Y-78924533D01*
X102516208Y-78923582D01*
X102421024Y-78923260D01*
X102382008Y-78923243D01*
X102064701Y-78923243D01*
X102049661Y-78999443D01*
X102041505Y-79041837D01*
X102029601Y-79105100D01*
X102015384Y-79181538D01*
X102000290Y-79263457D01*
X101996145Y-79286100D01*
X101981447Y-79361694D01*
X101966995Y-79427547D01*
X101954125Y-79478134D01*
X101944178Y-79507926D01*
X101941213Y-79512888D01*
X101920217Y-79525074D01*
X101879533Y-79542547D01*
X101827178Y-79561923D01*
X101815900Y-79565766D01*
X101745977Y-79591161D01*
X101667082Y-79622683D01*
X101596234Y-79653531D01*
X101595905Y-79653683D01*
X101484767Y-79705053D01*
X101236247Y-79536101D01*
X100987728Y-79367148D01*
X100770442Y-79584071D01*
X100705774Y-79649681D01*
X100648767Y-79709521D01*
X100602467Y-79760233D01*
X100569916Y-79798454D01*
X100554157Y-79820825D01*
X100553157Y-79824034D01*
X100561031Y-79842874D01*
X100582922Y-79881320D01*
X100616233Y-79935170D01*
X100658369Y-80000224D01*
X100705557Y-80070560D01*
X100753690Y-80141945D01*
X100795572Y-80205592D01*
X100828629Y-80257459D01*
X100850282Y-80293505D01*
X100857957Y-80309633D01*
X100851463Y-80329311D01*
X100834350Y-80366625D01*
X100810174Y-80413879D01*
X100807487Y-80418888D01*
X100775573Y-80482523D01*
X100759921Y-80526159D01*
X100759755Y-80553298D01*
X100774296Y-80567443D01*
X100774500Y-80567525D01*
X100791721Y-80574595D01*
X100832601Y-80591458D01*
X100893975Y-80616805D01*
X100972681Y-80649329D01*
X101065553Y-80687722D01*
X101169428Y-80730678D01*
X101269998Y-80772278D01*
X101380984Y-80817996D01*
X101483797Y-80859974D01*
X101575285Y-80896952D01*
X101652299Y-80927673D01*
X101711685Y-80950878D01*
X101750291Y-80965310D01*
X101764700Y-80969757D01*
X101781228Y-80958604D01*
X101807570Y-80929431D01*
X101836613Y-80890529D01*
X101928461Y-80779743D01*
X102033741Y-80693149D01*
X102150234Y-80631784D01*
X102275724Y-80596685D01*
X102407993Y-80588892D01*
X102469043Y-80594557D01*
X102595705Y-80625422D01*
X102707559Y-80678580D01*
X102803499Y-80750733D01*
X102882424Y-80838583D01*
X102943230Y-80938835D01*
X102984813Y-81048190D01*
X103006072Y-81163353D01*
X103005901Y-81281025D01*
X102983199Y-81397910D01*
X102936862Y-81510711D01*
X102865787Y-81616131D01*
X102825589Y-81660132D01*
X102722371Y-81744521D01*
X102609575Y-81803278D01*
X102490490Y-81836796D01*
X102368405Y-81845465D01*
X102246607Y-81829677D01*
X102128384Y-81789822D01*
X102017025Y-81726293D01*
X101915816Y-81639479D01*
X101836613Y-81542471D01*
X101806338Y-81502063D01*
X101780281Y-81473518D01*
X101764675Y-81463243D01*
X101747657Y-81468623D01*
X101707000Y-81483925D01*
X101645858Y-81507888D01*
X101567381Y-81539256D01*
X101474720Y-81576768D01*
X101371028Y-81619167D01*
X101269974Y-81660837D01*
X101158893Y-81706810D01*
X101055959Y-81749393D01*
X100964335Y-81787279D01*
X100887184Y-81819160D01*
X100827669Y-81843729D01*
X100788956Y-81859680D01*
X100774500Y-81865590D01*
X100759815Y-81879552D01*
X100759858Y-81906560D01*
X100775401Y-81950087D01*
X100807216Y-82013610D01*
X100807487Y-82014112D01*
X100832177Y-82061940D01*
X100850162Y-82100603D01*
X100857886Y-82122405D01*
X100857957Y-82123367D01*
X100850122Y-82139779D01*
X100828335Y-82176013D01*
X100795172Y-82228026D01*
X100753209Y-82291775D01*
X100705557Y-82362440D01*
X100657309Y-82434384D01*
X100615349Y-82499226D01*
X100582273Y-82552765D01*
X100560679Y-82590803D01*
X100553157Y-82608967D01*
X100563043Y-82625692D01*
X100590674Y-82659320D01*
X100633005Y-82706490D01*
X100686995Y-82763842D01*
X100749601Y-82828016D01*
X100770517Y-82849003D01*
X100987877Y-83066001D01*
X101230280Y-82900832D01*
X101304719Y-82850636D01*
X101371528Y-82806581D01*
X101426835Y-82771138D01*
X101466771Y-82746781D01*
X101487464Y-82735978D01*
X101488937Y-82735662D01*
X101508442Y-82741357D01*
X101547678Y-82756674D01*
X101600070Y-82778963D01*
X101635145Y-82794607D01*
X101702299Y-82823859D01*
X101770142Y-82851406D01*
X101827466Y-82872763D01*
X101844928Y-82878565D01*
X101891562Y-82895048D01*
X101927595Y-82911160D01*
X101941213Y-82920010D01*
X101949548Y-82939540D01*
X101961363Y-82982166D01*
X101975319Y-83042355D01*
X101990078Y-83114578D01*
X101996145Y-83146900D01*
X102011227Y-83228978D01*
X102025831Y-83307705D01*
X102038520Y-83375391D01*
X102047858Y-83424340D01*
X102049661Y-83433557D01*
X102064701Y-83509757D01*
X102382008Y-83509757D01*
X102486346Y-83509586D01*
X102565287Y-83508884D01*
X102622462Y-83507366D01*
X102661501Y-83504751D01*
X102686035Y-83500754D01*
X102699695Y-83495091D01*
X102706111Y-83487480D01*
X102707301Y-83484357D01*
X102711520Y-83465522D01*
X102719938Y-83423912D01*
X102731539Y-83364870D01*
X102745305Y-83293743D01*
X102760220Y-83215875D01*
X102775268Y-83136613D01*
X102789431Y-83061302D01*
X102801694Y-82995287D01*
X102811039Y-82943913D01*
X102816450Y-82912525D01*
X102817386Y-82905541D01*
X102829904Y-82899215D01*
X102863254Y-82885210D01*
X102911123Y-82866145D01*
X102929871Y-82858866D01*
X103002305Y-82829504D01*
X103082330Y-82794929D01*
X103149772Y-82763963D01*
X103201341Y-82741177D01*
X103243715Y-82726018D01*
X103269666Y-82720958D01*
X103273144Y-82721764D01*
X103289564Y-82732459D01*
X103326083Y-82756880D01*
X103378813Y-82792405D01*
X103443865Y-82836413D01*
X103517349Y-82886283D01*
X103531855Y-82896144D01*
X103617796Y-82954008D01*
X103683239Y-82996544D01*
X103731196Y-83025446D01*
X103764680Y-83042410D01*
X103786705Y-83049133D01*
X103800283Y-83047310D01*
X103800369Y-83047264D01*
X103818203Y-83032914D01*
X103852683Y-83001177D01*
X103900232Y-82955490D01*
X103957278Y-82899296D01*
X104020245Y-82836032D01*
X104027273Y-82828898D01*
X104104480Y-82749170D01*
X104161170Y-82687643D01*
X104198390Y-82643079D01*
X104217185Y-82614243D01*
X104219611Y-82601542D01*
X104209029Y-82583006D01*
X104184584Y-82544539D01*
X104148888Y-82490114D01*
X104104553Y-82423702D01*
X104054189Y-82349275D01*
X104042340Y-82331899D01*
X103873874Y-82085203D01*
X103924438Y-81973794D01*
X103953905Y-81906043D01*
X103983541Y-81833317D01*
X104007170Y-81770797D01*
X104008142Y-81768043D01*
X104026043Y-81719140D01*
X104041180Y-81681443D01*
X104050290Y-81663075D01*
X104050316Y-81663044D01*
X104066783Y-81657215D01*
X104107281Y-81647308D01*
X104167258Y-81634305D01*
X104242160Y-81619191D01*
X104327436Y-81602948D01*
X104334625Y-81601619D01*
X104422486Y-81585325D01*
X104502240Y-81570367D01*
X104568819Y-81557709D01*
X104617153Y-81548314D01*
X104642175Y-81543146D01*
X104642557Y-81543056D01*
X104653201Y-81539911D01*
X104661238Y-81533796D01*
X104667033Y-81521047D01*
X104670953Y-81498000D01*
X104673365Y-81460991D01*
X104674635Y-81406356D01*
X104675129Y-81330433D01*
X104675214Y-81229556D01*
X104675214Y-81216500D01*
X104675152Y-81112590D01*
D13*
%TO.C,SW5*%
X101613000Y-66790000D02*
X101613000Y-65590000D01*
X102813000Y-66790000D02*
X101613000Y-66790000D01*
X111113000Y-62290000D02*
X109913000Y-62290000D01*
X111113000Y-66490000D02*
X111113000Y-62290000D01*
X109913000Y-66490000D02*
X111113000Y-66490000D01*
X101913000Y-62290000D02*
X103113000Y-62290000D01*
X101913000Y-66490000D02*
X101913000Y-62290000D01*
X103113000Y-66490000D02*
X101913000Y-66490000D01*
%TO.C,J2*%
X138700000Y-114800000D02*
X138700000Y-115250000D01*
X138700000Y-114800000D02*
X138250000Y-114800000D01*
X133100000Y-115350000D02*
X133550000Y-115350000D01*
X133100000Y-117200000D02*
X133100000Y-115350000D01*
X140900000Y-119750000D02*
X140900000Y-119500000D01*
X133100000Y-119750000D02*
X133100000Y-119500000D01*
X140900000Y-117200000D02*
X140900000Y-115350000D01*
X140900000Y-115350000D02*
X140450000Y-115350000D01*
D10*
%TO.C,U1*%
X90901500Y-86964500D02*
X90901500Y-106964500D01*
X90901500Y-106964500D02*
X110901500Y-106964500D01*
X110901500Y-106964500D02*
X110901500Y-86964500D01*
X110901500Y-86964500D02*
X90901500Y-86964500D01*
%TO.C,U2*%
X128697904Y-106952380D02*
X128697904Y-107761904D01*
X128650285Y-107857142D01*
X128602666Y-107904761D01*
X128507428Y-107952380D01*
X128316952Y-107952380D01*
X128221714Y-107904761D01*
X128174095Y-107857142D01*
X128126476Y-107761904D01*
X128126476Y-106952380D01*
X127697904Y-107047619D02*
X127650285Y-107000000D01*
X127555047Y-106952380D01*
X127316952Y-106952380D01*
X127221714Y-107000000D01*
X127174095Y-107047619D01*
X127126476Y-107142857D01*
X127126476Y-107238095D01*
X127174095Y-107380952D01*
X127745523Y-107952380D01*
X127126476Y-107952380D01*
%TO.C,J1*%
X127028533Y-118476780D02*
X127028533Y-119191066D01*
X127076152Y-119333923D01*
X127171390Y-119429161D01*
X127314247Y-119476780D01*
X127409485Y-119476780D01*
X126028533Y-119476780D02*
X126599961Y-119476780D01*
X126314247Y-119476780D02*
X126314247Y-118476780D01*
X126409485Y-118619638D01*
X126504723Y-118714876D01*
X126599961Y-118762495D01*
%TO.C,SW5*%
X105346333Y-68444761D02*
X105203476Y-68492380D01*
X104965380Y-68492380D01*
X104870142Y-68444761D01*
X104822523Y-68397142D01*
X104774904Y-68301904D01*
X104774904Y-68206666D01*
X104822523Y-68111428D01*
X104870142Y-68063809D01*
X104965380Y-68016190D01*
X105155857Y-67968571D01*
X105251095Y-67920952D01*
X105298714Y-67873333D01*
X105346333Y-67778095D01*
X105346333Y-67682857D01*
X105298714Y-67587619D01*
X105251095Y-67540000D01*
X105155857Y-67492380D01*
X104917761Y-67492380D01*
X104774904Y-67540000D01*
X104441571Y-67492380D02*
X104203476Y-68492380D01*
X104013000Y-67778095D01*
X103822523Y-68492380D01*
X103584428Y-67492380D01*
X102727285Y-67492380D02*
X103203476Y-67492380D01*
X103251095Y-67968571D01*
X103203476Y-67920952D01*
X103108238Y-67873333D01*
X102870142Y-67873333D01*
X102774904Y-67920952D01*
X102727285Y-67968571D01*
X102679666Y-68063809D01*
X102679666Y-68301904D01*
X102727285Y-68397142D01*
X102774904Y-68444761D01*
X102870142Y-68492380D01*
X103108238Y-68492380D01*
X103203476Y-68444761D01*
X103251095Y-68397142D01*
%TO.C,J2*%
X131892633Y-117511580D02*
X131892633Y-118225866D01*
X131940252Y-118368723D01*
X132035490Y-118463961D01*
X132178347Y-118511580D01*
X132273585Y-118511580D01*
X131464061Y-117606819D02*
X131416442Y-117559200D01*
X131321204Y-117511580D01*
X131083109Y-117511580D01*
X130987871Y-117559200D01*
X130940252Y-117606819D01*
X130892633Y-117702057D01*
X130892633Y-117797295D01*
X130940252Y-117940152D01*
X131511680Y-118511580D01*
X130892633Y-118511580D01*
%TO.C,U1*%
X95046704Y-85634580D02*
X95046704Y-86444104D01*
X94999085Y-86539342D01*
X94951466Y-86586961D01*
X94856228Y-86634580D01*
X94665752Y-86634580D01*
X94570514Y-86586961D01*
X94522895Y-86539342D01*
X94475276Y-86444104D01*
X94475276Y-85634580D01*
X93475276Y-86634580D02*
X94046704Y-86634580D01*
X93760990Y-86634580D02*
X93760990Y-85634580D01*
X93856228Y-85777438D01*
X93951466Y-85872676D01*
X94046704Y-85920295D01*
%TD*%
M02*
