%TF.GenerationSoftware,KiCad,Pcbnew,5.1.6-c6e7f7d~86~ubuntu18.04.1*%
%TF.CreationDate,2020-06-06T16:31:20+02:00*%
%TF.ProjectId,BikeCommunicator,42696b65-436f-46d6-9d75-6e696361746f,rev?*%
%TF.SameCoordinates,Original*%
%TF.FileFunction,Legend,Bot*%
%TF.FilePolarity,Positive*%
%FSLAX46Y46*%
G04 Gerber Fmt 4.6, Leading zero omitted, Abs format (unit mm)*
G04 Created by KiCad (PCBNEW 5.1.6-c6e7f7d~86~ubuntu18.04.1) date 2020-06-06 16:31:20*
%MOMM*%
%LPD*%
G01*
G04 APERTURE LIST*
%ADD10C,0.120000*%
%ADD11C,0.150000*%
G04 APERTURE END LIST*
D10*
%TO.C,U2*%
X139630000Y-88699000D02*
X116910001Y-88699000D01*
X139629999Y-47699000D02*
X139630000Y-88699000D01*
X116920000Y-47699000D02*
X139629999Y-47699000D01*
X116910001Y-88699000D02*
X116910000Y-47699000D01*
D11*
%TO.C,U1*%
X96680000Y-79535000D02*
X96680000Y-99535000D01*
X116680000Y-79535000D02*
X96680000Y-79535000D01*
X116680000Y-99535000D02*
X116680000Y-79535000D01*
X96680000Y-99535000D02*
X116680000Y-99535000D01*
%TO.C,U2*%
X124967904Y-89151380D02*
X124967904Y-89960904D01*
X124920285Y-90056142D01*
X124872666Y-90103761D01*
X124777428Y-90151380D01*
X124586952Y-90151380D01*
X124491714Y-90103761D01*
X124444095Y-90056142D01*
X124396476Y-89960904D01*
X124396476Y-89151380D01*
X123967904Y-89246619D02*
X123920285Y-89199000D01*
X123825047Y-89151380D01*
X123586952Y-89151380D01*
X123491714Y-89199000D01*
X123444095Y-89246619D01*
X123396476Y-89341857D01*
X123396476Y-89437095D01*
X123444095Y-89579952D01*
X124015523Y-90151380D01*
X123396476Y-90151380D01*
%TO.C,U1*%
X118617904Y-98512380D02*
X118617904Y-99321904D01*
X118570285Y-99417142D01*
X118522666Y-99464761D01*
X118427428Y-99512380D01*
X118236952Y-99512380D01*
X118141714Y-99464761D01*
X118094095Y-99417142D01*
X118046476Y-99321904D01*
X118046476Y-98512380D01*
X117046476Y-99512380D02*
X117617904Y-99512380D01*
X117332190Y-99512380D02*
X117332190Y-98512380D01*
X117427428Y-98655238D01*
X117522666Y-98750476D01*
X117617904Y-98798095D01*
%TD*%
M02*
