%TF.GenerationSoftware,KiCad,Pcbnew,5.1.5+dfsg1-2build2*%
%TF.CreationDate,2020-11-04T15:07:04+01:00*%
%TF.ProjectId,BikeCommunicator,42696b65-436f-46d6-9d75-6e696361746f,rev?*%
%TF.SameCoordinates,Original*%
%TF.FileFunction,Soldermask,Bot*%
%TF.FilePolarity,Negative*%
%FSLAX46Y46*%
G04 Gerber Fmt 4.6, Leading zero omitted, Abs format (unit mm)*
G04 Created by KiCad (PCBNEW 5.1.5+dfsg1-2build2) date 2020-11-04 15:07:04*
%MOMM*%
%LPD*%
G04 APERTURE LIST*
%ADD10R,1.800000X1.000000*%
%ADD11C,2.599360*%
%ADD12R,2.599360X2.599360*%
%ADD13R,1.000000X1.800000*%
%ADD14R,1.900000X2.600000*%
%ADD15C,1.600000*%
%ADD16R,3.600000X3.600000*%
%ADD17C,0.900000*%
%ADD18C,6.500000*%
%ADD19C,1.500000*%
%ADD20R,1.500000X1.500000*%
%ADD21R,1.300000X2.000000*%
%ADD22O,1.300000X2.000000*%
%ADD23R,1.600000X2.000000*%
%ADD24C,1.550000*%
%ADD25R,0.500000X1.450000*%
%ADD26C,1.624000*%
%ADD27C,1.800000*%
%ADD28C,4.100000*%
%ADD29C,2.300000*%
G04 APERTURE END LIST*
D10*
%TO.C,R4*%
X126428500Y-74475000D03*
X126428500Y-71575000D03*
%TD*%
D11*
%TO.C,BT1*%
X117348000Y-62611000D03*
D12*
X121158000Y-62611000D03*
%TD*%
D10*
%TO.C,R7*%
X100393500Y-100446500D03*
X100393500Y-97546500D03*
%TD*%
%TO.C,R8*%
X126428500Y-100446500D03*
X126428500Y-97546500D03*
%TD*%
%TO.C,R6*%
X130746500Y-91641000D03*
X130746500Y-94541000D03*
%TD*%
D13*
%TO.C,R5*%
X108638000Y-110299500D03*
X105738000Y-110299500D03*
%TD*%
D10*
%TO.C,R3*%
X100393500Y-74475000D03*
X100393500Y-71575000D03*
%TD*%
D13*
%TO.C,R2*%
X128852000Y-84264500D03*
X131752000Y-84264500D03*
%TD*%
%TO.C,R1*%
X108638000Y-84264500D03*
X105738000Y-84264500D03*
%TD*%
D14*
%TO.C,D2*%
X146050000Y-108426000D03*
X146050000Y-104426000D03*
%TD*%
%TO.C,D1*%
X117094000Y-105759000D03*
X117094000Y-101759000D03*
%TD*%
D15*
%TO.C,U2*%
X133270000Y-87651000D03*
X130730000Y-87651000D03*
X121890000Y-70252000D03*
X142110000Y-70252000D03*
X121890000Y-72792000D03*
X142110000Y-72792000D03*
X121890000Y-75332000D03*
X142110000Y-75332000D03*
X121890000Y-77872000D03*
X142110000Y-77872000D03*
X121890000Y-80412000D03*
X142110000Y-80412000D03*
X121890000Y-82952000D03*
X142110000Y-82952000D03*
X121890000Y-85492000D03*
X142110000Y-85492000D03*
X121890000Y-88032000D03*
X142110000Y-88032000D03*
X121890000Y-90572000D03*
X142110000Y-90572000D03*
X121890000Y-93112000D03*
X142110000Y-93112000D03*
X121890000Y-95652000D03*
X142110000Y-95652000D03*
%TD*%
D16*
%TO.C,J1*%
X116300000Y-111500000D03*
X121000000Y-114500000D03*
X121000000Y-108500000D03*
%TD*%
D17*
%TO.C,H4*%
X146697056Y-113302944D03*
X145000000Y-112600000D03*
X143302944Y-113302944D03*
X142600000Y-115000000D03*
X143302944Y-116697056D03*
X145000000Y-117400000D03*
X146697056Y-116697056D03*
X147400000Y-115000000D03*
D18*
X145000000Y-115000000D03*
%TD*%
D17*
%TO.C,H3*%
X96697056Y-113302944D03*
X95000000Y-112600000D03*
X93302944Y-113302944D03*
X92600000Y-115000000D03*
X93302944Y-116697056D03*
X95000000Y-117400000D03*
X96697056Y-116697056D03*
X97400000Y-115000000D03*
D18*
X95000000Y-115000000D03*
%TD*%
D17*
%TO.C,H2*%
X146697056Y-63302944D03*
X145000000Y-62600000D03*
X143302944Y-63302944D03*
X142600000Y-65000000D03*
X143302944Y-66697056D03*
X145000000Y-67400000D03*
X146697056Y-66697056D03*
X147400000Y-65000000D03*
D18*
X145000000Y-65000000D03*
%TD*%
D17*
%TO.C,H1*%
X96697056Y-63302944D03*
X95000000Y-62600000D03*
X93302944Y-63302944D03*
X92600000Y-65000000D03*
X93302944Y-66697056D03*
X95000000Y-67400000D03*
X96697056Y-66697056D03*
X97400000Y-65000000D03*
D18*
X95000000Y-65000000D03*
%TD*%
D11*
%TO.C,J4*%
X136664700Y-67475100D03*
D12*
X132854700Y-67475100D03*
%TD*%
D11*
%TO.C,J3*%
X139382500Y-111252000D03*
X135572500Y-111252000D03*
X131762500Y-111252000D03*
D12*
X127952500Y-111252000D03*
%TD*%
D19*
%TO.C,SW5*%
X109013000Y-62740000D03*
X106513000Y-62740000D03*
X104013000Y-62740000D03*
X109013000Y-66040000D03*
X106513000Y-66040000D03*
D20*
X104013000Y-66040000D03*
%TD*%
D21*
%TO.C,J2*%
X139900000Y-118350000D03*
X134100000Y-118350000D03*
D22*
X133500000Y-118350000D03*
X140500000Y-118350000D03*
D23*
X138000000Y-118350000D03*
D24*
X134500000Y-115650000D03*
D25*
X137000000Y-115650000D03*
X136350000Y-115650000D03*
X135700000Y-115650000D03*
X138300000Y-115650000D03*
X137650000Y-115650000D03*
D24*
X139500000Y-115650000D03*
D23*
X136000000Y-118350000D03*
%TD*%
D26*
%TO.C,SW4*%
X131730000Y-108080000D03*
X134270000Y-108080000D03*
D27*
X138080000Y-103000000D03*
X127920000Y-103000000D03*
D28*
X133000000Y-103000000D03*
D29*
X129190000Y-100460000D03*
X135540000Y-97920000D03*
%TD*%
D26*
%TO.C,SW3*%
X105730000Y-108080000D03*
X108270000Y-108080000D03*
D27*
X112080000Y-103000000D03*
X101920000Y-103000000D03*
D28*
X107000000Y-103000000D03*
D29*
X103190000Y-100460000D03*
X109540000Y-97920000D03*
%TD*%
D26*
%TO.C,SW2*%
X131730000Y-82080000D03*
X134270000Y-82080000D03*
D27*
X138080000Y-77000000D03*
X127920000Y-77000000D03*
D28*
X133000000Y-77000000D03*
D29*
X129190000Y-74460000D03*
X135540000Y-71920000D03*
%TD*%
D26*
%TO.C,SW1*%
X105730000Y-82080000D03*
X108270000Y-82080000D03*
D27*
X112080000Y-77000000D03*
X101920000Y-77000000D03*
D28*
X107000000Y-77000000D03*
D29*
X103190000Y-74460000D03*
X109540000Y-71920000D03*
%TD*%
D26*
%TO.C,U1*%
X94946500Y-105434500D03*
X92406500Y-105434500D03*
X109371500Y-88419500D03*
X106831500Y-88419500D03*
X104291500Y-88419500D03*
%TD*%
M02*
