%TF.GenerationSoftware,KiCad,Pcbnew,5.1.5+dfsg1-2build2*%
%TF.CreationDate,2020-11-04T15:07:04+01:00*%
%TF.ProjectId,BikeCommunicator,42696b65-436f-46d6-9d75-6e696361746f,rev?*%
%TF.SameCoordinates,Original*%
%TF.FileFunction,Legend,Top*%
%TF.FilePolarity,Positive*%
%FSLAX46Y46*%
G04 Gerber Fmt 4.6, Leading zero omitted, Abs format (unit mm)*
G04 Created by KiCad (PCBNEW 5.1.5+dfsg1-2build2) date 2020-11-04 15:07:04*
%MOMM*%
%LPD*%
G04 APERTURE LIST*
%ADD10C,0.120000*%
%ADD11C,0.150000*%
G04 APERTURE END LIST*
D10*
%TO.C,SW4*%
X126015000Y-96015000D02*
X139985000Y-96015000D01*
X139985000Y-96015000D02*
X139985000Y-109985000D01*
X139985000Y-109985000D02*
X126015000Y-109985000D01*
X126015000Y-109985000D02*
X126015000Y-96015000D01*
%TO.C,SW3*%
X100015000Y-96015000D02*
X113985000Y-96015000D01*
X113985000Y-96015000D02*
X113985000Y-109985000D01*
X113985000Y-109985000D02*
X100015000Y-109985000D01*
X100015000Y-109985000D02*
X100015000Y-96015000D01*
%TO.C,SW2*%
X126015000Y-70015000D02*
X139985000Y-70015000D01*
X139985000Y-70015000D02*
X139985000Y-83985000D01*
X139985000Y-83985000D02*
X126015000Y-83985000D01*
X126015000Y-83985000D02*
X126015000Y-70015000D01*
%TO.C,SW1*%
X100015000Y-70015000D02*
X113985000Y-70015000D01*
X113985000Y-70015000D02*
X113985000Y-83985000D01*
X113985000Y-83985000D02*
X100015000Y-83985000D01*
X100015000Y-83985000D02*
X100015000Y-70015000D01*
%TO.C,BT1*%
D11*
X118467285Y-66349571D02*
X118610142Y-66397190D01*
X118657761Y-66444809D01*
X118705380Y-66540047D01*
X118705380Y-66682904D01*
X118657761Y-66778142D01*
X118610142Y-66825761D01*
X118514904Y-66873380D01*
X118133952Y-66873380D01*
X118133952Y-65873380D01*
X118467285Y-65873380D01*
X118562523Y-65921000D01*
X118610142Y-65968619D01*
X118657761Y-66063857D01*
X118657761Y-66159095D01*
X118610142Y-66254333D01*
X118562523Y-66301952D01*
X118467285Y-66349571D01*
X118133952Y-66349571D01*
X118991095Y-65873380D02*
X119562523Y-65873380D01*
X119276809Y-66873380D02*
X119276809Y-65873380D01*
X120419666Y-66873380D02*
X119848238Y-66873380D01*
X120133952Y-66873380D02*
X120133952Y-65873380D01*
X120038714Y-66016238D01*
X119943476Y-66111476D01*
X119848238Y-66159095D01*
%TO.C,SW4*%
X122682166Y-111720261D02*
X122825023Y-111767880D01*
X123063119Y-111767880D01*
X123158357Y-111720261D01*
X123205976Y-111672642D01*
X123253595Y-111577404D01*
X123253595Y-111482166D01*
X123205976Y-111386928D01*
X123158357Y-111339309D01*
X123063119Y-111291690D01*
X122872642Y-111244071D01*
X122777404Y-111196452D01*
X122729785Y-111148833D01*
X122682166Y-111053595D01*
X122682166Y-110958357D01*
X122729785Y-110863119D01*
X122777404Y-110815500D01*
X122872642Y-110767880D01*
X123110738Y-110767880D01*
X123253595Y-110815500D01*
X123586928Y-110767880D02*
X123825023Y-111767880D01*
X124015500Y-111053595D01*
X124205976Y-111767880D01*
X124444071Y-110767880D01*
X125253595Y-111101214D02*
X125253595Y-111767880D01*
X125015500Y-110720261D02*
X124777404Y-111434547D01*
X125396452Y-111434547D01*
%TO.C,SW3*%
X98554666Y-111532761D02*
X98697523Y-111580380D01*
X98935619Y-111580380D01*
X99030857Y-111532761D01*
X99078476Y-111485142D01*
X99126095Y-111389904D01*
X99126095Y-111294666D01*
X99078476Y-111199428D01*
X99030857Y-111151809D01*
X98935619Y-111104190D01*
X98745142Y-111056571D01*
X98649904Y-111008952D01*
X98602285Y-110961333D01*
X98554666Y-110866095D01*
X98554666Y-110770857D01*
X98602285Y-110675619D01*
X98649904Y-110628000D01*
X98745142Y-110580380D01*
X98983238Y-110580380D01*
X99126095Y-110628000D01*
X99459428Y-110580380D02*
X99697523Y-111580380D01*
X99888000Y-110866095D01*
X100078476Y-111580380D01*
X100316571Y-110580380D01*
X100602285Y-110580380D02*
X101221333Y-110580380D01*
X100888000Y-110961333D01*
X101030857Y-110961333D01*
X101126095Y-111008952D01*
X101173714Y-111056571D01*
X101221333Y-111151809D01*
X101221333Y-111389904D01*
X101173714Y-111485142D01*
X101126095Y-111532761D01*
X101030857Y-111580380D01*
X100745142Y-111580380D01*
X100649904Y-111532761D01*
X100602285Y-111485142D01*
%TO.C,SW2*%
X125062666Y-85786761D02*
X125205523Y-85834380D01*
X125443619Y-85834380D01*
X125538857Y-85786761D01*
X125586476Y-85739142D01*
X125634095Y-85643904D01*
X125634095Y-85548666D01*
X125586476Y-85453428D01*
X125538857Y-85405809D01*
X125443619Y-85358190D01*
X125253142Y-85310571D01*
X125157904Y-85262952D01*
X125110285Y-85215333D01*
X125062666Y-85120095D01*
X125062666Y-85024857D01*
X125110285Y-84929619D01*
X125157904Y-84882000D01*
X125253142Y-84834380D01*
X125491238Y-84834380D01*
X125634095Y-84882000D01*
X125967428Y-84834380D02*
X126205523Y-85834380D01*
X126396000Y-85120095D01*
X126586476Y-85834380D01*
X126824571Y-84834380D01*
X127157904Y-84929619D02*
X127205523Y-84882000D01*
X127300761Y-84834380D01*
X127538857Y-84834380D01*
X127634095Y-84882000D01*
X127681714Y-84929619D01*
X127729333Y-85024857D01*
X127729333Y-85120095D01*
X127681714Y-85262952D01*
X127110285Y-85834380D01*
X127729333Y-85834380D01*
%TO.C,SW1*%
X99062666Y-85786761D02*
X99205523Y-85834380D01*
X99443619Y-85834380D01*
X99538857Y-85786761D01*
X99586476Y-85739142D01*
X99634095Y-85643904D01*
X99634095Y-85548666D01*
X99586476Y-85453428D01*
X99538857Y-85405809D01*
X99443619Y-85358190D01*
X99253142Y-85310571D01*
X99157904Y-85262952D01*
X99110285Y-85215333D01*
X99062666Y-85120095D01*
X99062666Y-85024857D01*
X99110285Y-84929619D01*
X99157904Y-84882000D01*
X99253142Y-84834380D01*
X99491238Y-84834380D01*
X99634095Y-84882000D01*
X99967428Y-84834380D02*
X100205523Y-85834380D01*
X100396000Y-85120095D01*
X100586476Y-85834380D01*
X100824571Y-84834380D01*
X101729333Y-85834380D02*
X101157904Y-85834380D01*
X101443619Y-85834380D02*
X101443619Y-84834380D01*
X101348380Y-84977238D01*
X101253142Y-85072476D01*
X101157904Y-85120095D01*
%TD*%
M02*
