%TF.GenerationSoftware,KiCad,Pcbnew,5.1.5+dfsg1-2build2*%
%TF.CreationDate,2020-11-04T15:07:04+01:00*%
%TF.ProjectId,BikeCommunicator,42696b65-436f-46d6-9d75-6e696361746f,rev?*%
%TF.SameCoordinates,Original*%
%TF.FileFunction,Copper,L1,Top*%
%TF.FilePolarity,Positive*%
%FSLAX46Y46*%
G04 Gerber Fmt 4.6, Leading zero omitted, Abs format (unit mm)*
G04 Created by KiCad (PCBNEW 5.1.5+dfsg1-2build2) date 2020-11-04 15:07:04*
%MOMM*%
%LPD*%
G04 APERTURE LIST*
%TA.AperFunction,ComponentPad*%
%ADD10C,2.499360*%
%TD*%
%TA.AperFunction,ComponentPad*%
%ADD11R,2.499360X2.499360*%
%TD*%
%TA.AperFunction,ComponentPad*%
%ADD12C,1.500000*%
%TD*%
%TA.AperFunction,ComponentPad*%
%ADD13R,3.500000X3.500000*%
%TD*%
%TA.AperFunction,ComponentPad*%
%ADD14C,0.800000*%
%TD*%
%TA.AperFunction,ComponentPad*%
%ADD15C,6.400000*%
%TD*%
%TA.AperFunction,ComponentPad*%
%ADD16C,1.400000*%
%TD*%
%TA.AperFunction,ComponentPad*%
%ADD17R,1.400000X1.400000*%
%TD*%
%TA.AperFunction,ComponentPad*%
%ADD18O,1.200000X1.900000*%
%TD*%
%TA.AperFunction,ComponentPad*%
%ADD19C,1.450000*%
%TD*%
%TA.AperFunction,ComponentPad*%
%ADD20C,1.524000*%
%TD*%
%TA.AperFunction,ComponentPad*%
%ADD21C,2.200000*%
%TD*%
%TA.AperFunction,ViaPad*%
%ADD22C,0.800000*%
%TD*%
%TA.AperFunction,Conductor*%
%ADD23C,0.250000*%
%TD*%
%TA.AperFunction,Conductor*%
%ADD24C,0.025400*%
%TD*%
G04 APERTURE END LIST*
D10*
%TO.P,BT1,2*%
%TO.N,-BATT*%
X117348000Y-62611000D03*
D11*
%TO.P,BT1,1*%
%TO.N,Net-(BT1-Pad1)*%
X121158000Y-62611000D03*
%TD*%
D12*
%TO.P,U2,24*%
%TO.N,/LED3*%
X133270000Y-87651000D03*
%TO.P,U2,23*%
%TO.N,/LED4*%
X130730000Y-87651000D03*
%TO.P,U2,11*%
%TO.N,Net-(U2-Pad11)*%
X121890000Y-70252000D03*
%TO.P,U2,12*%
%TO.N,Net-(U2-Pad12)*%
X142110000Y-70252000D03*
%TO.P,U2,10*%
%TO.N,/LED1*%
X121890000Y-72792000D03*
%TO.P,U2,13*%
%TO.N,/BTN2*%
X142110000Y-72792000D03*
%TO.P,U2,9*%
%TO.N,/LED2*%
X121890000Y-75332000D03*
%TO.P,U2,14*%
%TO.N,/BTN3*%
X142110000Y-75332000D03*
%TO.P,U2,8*%
%TO.N,/BTN1*%
X121890000Y-77872000D03*
%TO.P,U2,15*%
%TO.N,/BTN4*%
X142110000Y-77872000D03*
%TO.P,U2,7*%
%TO.N,Net-(U2-Pad7)*%
X121890000Y-80412000D03*
%TO.P,U2,16*%
%TO.N,Net-(U2-Pad16)*%
X142110000Y-80412000D03*
%TO.P,U2,6*%
%TO.N,Net-(U2-Pad6)*%
X121890000Y-82952000D03*
%TO.P,U2,17*%
%TO.N,Net-(U2-Pad17)*%
X142110000Y-82952000D03*
%TO.P,U2,5*%
%TO.N,-BATT*%
X121890000Y-85492000D03*
%TO.P,U2,18*%
%TO.N,Net-(U2-Pad18)*%
X142110000Y-85492000D03*
%TO.P,U2,4*%
%TO.N,Net-(U2-Pad4)*%
X121890000Y-88032000D03*
%TO.P,U2,19*%
%TO.N,Net-(U2-Pad19)*%
X142110000Y-88032000D03*
%TO.P,U2,3*%
%TO.N,+3V3*%
X121890000Y-90572000D03*
%TO.P,U2,20*%
%TO.N,Net-(U2-Pad20)*%
X142110000Y-90572000D03*
%TO.P,U2,2*%
%TO.N,Net-(U2-Pad2)*%
X121890000Y-93112000D03*
%TO.P,U2,21*%
%TO.N,+5V*%
X142110000Y-93112000D03*
%TO.P,U2,1*%
%TO.N,-BATT*%
X121890000Y-95652000D03*
%TO.P,U2,22*%
X142110000Y-95652000D03*
%TD*%
D13*
%TO.P,J1,3*%
%TO.N,Net-(J1-Pad3)*%
X116300000Y-111500000D03*
%TO.P,J1,2*%
%TO.N,-BATT*%
X121000000Y-114500000D03*
%TO.P,J1,1*%
%TO.N,Net-(D1-Pad2)*%
X121000000Y-108500000D03*
%TD*%
D14*
%TO.P,H4,1*%
%TO.N,-BATT*%
X146697056Y-113302944D03*
X145000000Y-112600000D03*
X143302944Y-113302944D03*
X142600000Y-115000000D03*
X143302944Y-116697056D03*
X145000000Y-117400000D03*
X146697056Y-116697056D03*
X147400000Y-115000000D03*
D15*
X145000000Y-115000000D03*
%TD*%
D14*
%TO.P,H3,1*%
%TO.N,-BATT*%
X96697056Y-113302944D03*
X95000000Y-112600000D03*
X93302944Y-113302944D03*
X92600000Y-115000000D03*
X93302944Y-116697056D03*
X95000000Y-117400000D03*
X96697056Y-116697056D03*
X97400000Y-115000000D03*
D15*
X95000000Y-115000000D03*
%TD*%
D14*
%TO.P,H2,1*%
%TO.N,-BATT*%
X146697056Y-63302944D03*
X145000000Y-62600000D03*
X143302944Y-63302944D03*
X142600000Y-65000000D03*
X143302944Y-66697056D03*
X145000000Y-67400000D03*
X146697056Y-66697056D03*
X147400000Y-65000000D03*
D15*
X145000000Y-65000000D03*
%TD*%
D14*
%TO.P,H1,1*%
%TO.N,-BATT*%
X96697056Y-63302944D03*
X95000000Y-62600000D03*
X93302944Y-63302944D03*
X92600000Y-65000000D03*
X93302944Y-66697056D03*
X95000000Y-67400000D03*
X96697056Y-66697056D03*
X97400000Y-65000000D03*
D15*
X95000000Y-65000000D03*
%TD*%
D10*
%TO.P,J4,2*%
%TO.N,+BATT*%
X136664700Y-67475100D03*
D11*
%TO.P,J4,1*%
%TO.N,-BATT*%
X132854700Y-67475100D03*
%TD*%
D10*
%TO.P,J3,4*%
%TO.N,-BATT*%
X139382500Y-111252000D03*
%TO.P,J3,3*%
%TO.N,/USBD-*%
X135572500Y-111252000D03*
%TO.P,J3,2*%
%TO.N,/USBD+*%
X131762500Y-111252000D03*
D11*
%TO.P,J3,1*%
%TO.N,+5V*%
X127952500Y-111252000D03*
%TD*%
D16*
%TO.P,SW5,6*%
%TO.N,Net-(SW5-Pad6)*%
X109013000Y-62740000D03*
%TO.P,SW5,5*%
%TO.N,Net-(SW5-Pad5)*%
X106513000Y-62740000D03*
%TO.P,SW5,4*%
%TO.N,+5V*%
X104013000Y-62740000D03*
%TO.P,SW5,3*%
%TO.N,Net-(SW5-Pad3)*%
X109013000Y-66040000D03*
%TO.P,SW5,2*%
%TO.N,Net-(BT1-Pad1)*%
X106513000Y-66040000D03*
D17*
%TO.P,SW5,1*%
%TO.N,+BATT*%
X104013000Y-66040000D03*
%TD*%
D18*
%TO.P,J2,6*%
%TO.N,-BATT*%
X133500000Y-118350000D03*
X140500000Y-118350000D03*
D19*
X134500000Y-115650000D03*
X139500000Y-115650000D03*
%TD*%
D20*
%TO.P,SW4,4*%
%TO.N,Net-(R6-Pad1)*%
X131730000Y-108080000D03*
%TO.P,SW4,3*%
%TO.N,-BATT*%
X134270000Y-108080000D03*
D21*
%TO.P,SW4,2*%
%TO.N,/BTN4*%
X129190000Y-100460000D03*
%TO.P,SW4,1*%
%TO.N,-BATT*%
X135540000Y-97920000D03*
%TD*%
D20*
%TO.P,SW3,4*%
%TO.N,Net-(R5-Pad1)*%
X105730000Y-108080000D03*
%TO.P,SW3,3*%
%TO.N,-BATT*%
X108270000Y-108080000D03*
D21*
%TO.P,SW3,2*%
%TO.N,/BTN3*%
X103190000Y-100460000D03*
%TO.P,SW3,1*%
%TO.N,-BATT*%
X109540000Y-97920000D03*
%TD*%
D20*
%TO.P,SW2,4*%
%TO.N,Net-(R2-Pad1)*%
X131730000Y-82080000D03*
%TO.P,SW2,3*%
%TO.N,-BATT*%
X134270000Y-82080000D03*
D21*
%TO.P,SW2,2*%
%TO.N,/BTN2*%
X129190000Y-74460000D03*
%TO.P,SW2,1*%
%TO.N,-BATT*%
X135540000Y-71920000D03*
%TD*%
D20*
%TO.P,SW1,4*%
%TO.N,Net-(R1-Pad1)*%
X105730000Y-82080000D03*
%TO.P,SW1,3*%
%TO.N,-BATT*%
X108270000Y-82080000D03*
D21*
%TO.P,SW1,2*%
%TO.N,/BTN1*%
X103190000Y-74460000D03*
%TO.P,SW1,1*%
%TO.N,-BATT*%
X109540000Y-71920000D03*
%TD*%
D20*
%TO.P,U1,5*%
%TO.N,-BATT*%
X94946500Y-105434500D03*
%TO.P,U1,4*%
%TO.N,Net-(SW5-Pad5)*%
X92406500Y-105434500D03*
%TO.P,U1,3*%
%TO.N,Net-(U1-Pad3)*%
X109371500Y-88419500D03*
%TO.P,U1,2*%
%TO.N,-BATT*%
X106831500Y-88419500D03*
%TO.P,U1,1*%
%TO.N,+12V*%
X104291500Y-88419500D03*
%TD*%
D22*
%TO.N,+3V3*%
X100393500Y-70421500D03*
X100393500Y-96393000D03*
X126428500Y-70421500D03*
X126428500Y-96202500D03*
%TO.N,/LED3*%
X109982000Y-110299500D03*
%TO.N,+5V*%
X146056350Y-102050850D03*
%TD*%
D23*
%TO.N,/LED2*%
X120814999Y-74256999D02*
X121890000Y-75332000D01*
X120814999Y-68565001D02*
X120814999Y-74256999D01*
X121880000Y-67500000D02*
X120814999Y-68565001D01*
%TO.N,/BTN1*%
X118478000Y-74460000D02*
X121890000Y-77872000D01*
X103190000Y-74460000D02*
X118478000Y-74460000D01*
%TO.N,/BTN2*%
X140442000Y-74460000D02*
X142110000Y-72792000D01*
X129190000Y-74460000D02*
X140442000Y-74460000D01*
%TO.N,/LED3*%
X110621500Y-110299500D02*
X133270000Y-87651000D01*
X109982000Y-110299500D02*
X110621500Y-110299500D01*
%TO.N,/BTN3*%
X141360001Y-76598761D02*
X141360001Y-76081999D01*
X132194999Y-87777003D02*
X132194999Y-85763763D01*
X119512002Y-100460000D02*
X132194999Y-87777003D01*
X141360001Y-76081999D02*
X142110000Y-75332000D01*
X132194999Y-85763763D02*
X141360001Y-76598761D01*
X103190000Y-100460000D02*
X119512002Y-100460000D01*
%TO.N,/BTN4*%
X129190000Y-100460000D02*
X137604500Y-92045500D01*
X137604500Y-82377500D02*
X142110000Y-77872000D01*
X137604500Y-92045500D02*
X137604500Y-82377500D01*
%TO.N,+5V*%
X138429881Y-109677319D02*
X146056350Y-102050850D01*
X129527181Y-109677319D02*
X138429881Y-109677319D01*
X127952500Y-111252000D02*
X129527181Y-109677319D01*
X105725500Y-64452500D02*
X138811000Y-64452500D01*
X104013000Y-62740000D02*
X105725500Y-64452500D01*
X143185001Y-68826501D02*
X138811000Y-64452500D01*
X143185001Y-92036999D02*
X143185001Y-68826501D01*
X142110000Y-93112000D02*
X143185001Y-92036999D01*
X146056350Y-102050850D02*
X146062700Y-102044500D01*
%TO.N,+BATT*%
X105086991Y-64966009D02*
X104013000Y-66040000D01*
X134155609Y-64966009D02*
X105086991Y-64966009D01*
X136664700Y-67475100D02*
X134155609Y-64966009D01*
%TD*%
%TO.N,+3V3*%
G36*
X143975378Y-60473586D02*
G01*
X144929333Y-60689444D01*
X145840899Y-61043933D01*
X146690052Y-61529264D01*
X147458154Y-62134787D01*
X148128306Y-62847179D01*
X148685803Y-63650807D01*
X149118391Y-64528009D01*
X149416567Y-65459512D01*
X149574773Y-66430924D01*
X149600001Y-67008744D01*
X149600000Y-112985159D01*
X149526414Y-113975378D01*
X149310556Y-114929333D01*
X148956068Y-115840897D01*
X148470736Y-116690052D01*
X147865213Y-117458154D01*
X147152825Y-118128303D01*
X146349193Y-118685803D01*
X145471991Y-119118391D01*
X144540487Y-119416567D01*
X143569069Y-119574773D01*
X142991278Y-119600000D01*
X140884537Y-119600000D01*
X141044302Y-119514605D01*
X141192765Y-119392765D01*
X141314605Y-119244302D01*
X141405140Y-119074921D01*
X141460892Y-118891132D01*
X141475000Y-118747891D01*
X141475000Y-117952108D01*
X141460892Y-117808867D01*
X141405140Y-117625079D01*
X141314605Y-117455698D01*
X141192765Y-117307235D01*
X141044302Y-117185395D01*
X140874920Y-117094860D01*
X140691132Y-117039108D01*
X140500000Y-117020283D01*
X140308867Y-117039108D01*
X140125079Y-117094860D01*
X139955698Y-117185395D01*
X139807235Y-117307235D01*
X139685395Y-117455698D01*
X139594860Y-117625080D01*
X139539108Y-117808868D01*
X139525000Y-117952109D01*
X139525000Y-118747892D01*
X139539108Y-118891133D01*
X139594861Y-119074921D01*
X139685396Y-119244302D01*
X139807236Y-119392765D01*
X139955699Y-119514605D01*
X140115464Y-119600000D01*
X133884536Y-119600000D01*
X134044302Y-119514605D01*
X134192765Y-119392765D01*
X134314605Y-119244302D01*
X134405140Y-119074921D01*
X134460892Y-118891133D01*
X134475000Y-118747892D01*
X134475000Y-117952109D01*
X134460892Y-117808868D01*
X134405140Y-117625079D01*
X134314605Y-117455698D01*
X134192765Y-117307235D01*
X134044302Y-117185395D01*
X133874921Y-117094860D01*
X133691133Y-117039108D01*
X133500000Y-117020283D01*
X133308868Y-117039108D01*
X133125080Y-117094860D01*
X132955699Y-117185395D01*
X132807236Y-117307235D01*
X132685396Y-117455698D01*
X132594861Y-117625079D01*
X132539108Y-117808867D01*
X132525000Y-117952108D01*
X132525000Y-118747891D01*
X132539108Y-118891132D01*
X132594860Y-119074920D01*
X132685395Y-119244302D01*
X132807235Y-119392765D01*
X132955698Y-119514605D01*
X133115463Y-119600000D01*
X97014841Y-119600000D01*
X96024622Y-119526414D01*
X95070667Y-119310556D01*
X94159103Y-118956068D01*
X93309948Y-118470736D01*
X92541846Y-117865213D01*
X91871697Y-117152825D01*
X91314197Y-116349193D01*
X90881609Y-115471991D01*
X90617814Y-114647893D01*
X91425000Y-114647893D01*
X91425000Y-115352107D01*
X91562385Y-116042789D01*
X91831876Y-116693398D01*
X92223116Y-117278930D01*
X92721070Y-117776884D01*
X93306602Y-118168124D01*
X93957211Y-118437615D01*
X94647893Y-118575000D01*
X95352107Y-118575000D01*
X96042789Y-118437615D01*
X96693398Y-118168124D01*
X97278930Y-117776884D01*
X97776884Y-117278930D01*
X98168124Y-116693398D01*
X98437615Y-116042789D01*
X98575000Y-115352107D01*
X98575000Y-114647893D01*
X98437615Y-113957211D01*
X98168124Y-113306602D01*
X97776884Y-112721070D01*
X97278930Y-112223116D01*
X96693398Y-111831876D01*
X96042789Y-111562385D01*
X95352107Y-111425000D01*
X94647893Y-111425000D01*
X93957211Y-111562385D01*
X93306602Y-111831876D01*
X92721070Y-112223116D01*
X92223116Y-112721070D01*
X91831876Y-113306602D01*
X91562385Y-113957211D01*
X91425000Y-114647893D01*
X90617814Y-114647893D01*
X90583433Y-114540487D01*
X90425227Y-113569069D01*
X90400000Y-112991278D01*
X90400000Y-107968015D01*
X104593000Y-107968015D01*
X104593000Y-108191985D01*
X104636695Y-108411651D01*
X104722404Y-108618571D01*
X104846835Y-108804795D01*
X105005205Y-108963165D01*
X105191429Y-109087596D01*
X105398349Y-109173305D01*
X105618015Y-109217000D01*
X105841985Y-109217000D01*
X106061651Y-109173305D01*
X106268571Y-109087596D01*
X106454795Y-108963165D01*
X106613165Y-108804795D01*
X106737596Y-108618571D01*
X106823305Y-108411651D01*
X106867000Y-108191985D01*
X106867000Y-107968015D01*
X107133000Y-107968015D01*
X107133000Y-108191985D01*
X107176695Y-108411651D01*
X107262404Y-108618571D01*
X107386835Y-108804795D01*
X107545205Y-108963165D01*
X107731429Y-109087596D01*
X107938349Y-109173305D01*
X108158015Y-109217000D01*
X108381985Y-109217000D01*
X108601651Y-109173305D01*
X108808571Y-109087596D01*
X108994795Y-108963165D01*
X109153165Y-108804795D01*
X109277596Y-108618571D01*
X109363305Y-108411651D01*
X109407000Y-108191985D01*
X109407000Y-107968015D01*
X109363305Y-107748349D01*
X109277596Y-107541429D01*
X109153165Y-107355205D01*
X108994795Y-107196835D01*
X108808571Y-107072404D01*
X108601651Y-106986695D01*
X108381985Y-106943000D01*
X108158015Y-106943000D01*
X107938349Y-106986695D01*
X107731429Y-107072404D01*
X107545205Y-107196835D01*
X107386835Y-107355205D01*
X107262404Y-107541429D01*
X107176695Y-107748349D01*
X107133000Y-107968015D01*
X106867000Y-107968015D01*
X106823305Y-107748349D01*
X106737596Y-107541429D01*
X106613165Y-107355205D01*
X106454795Y-107196835D01*
X106268571Y-107072404D01*
X106061651Y-106986695D01*
X105841985Y-106943000D01*
X105618015Y-106943000D01*
X105398349Y-106986695D01*
X105191429Y-107072404D01*
X105005205Y-107196835D01*
X104846835Y-107355205D01*
X104722404Y-107541429D01*
X104636695Y-107748349D01*
X104593000Y-107968015D01*
X90400000Y-107968015D01*
X90400000Y-105322515D01*
X91269500Y-105322515D01*
X91269500Y-105546485D01*
X91313195Y-105766151D01*
X91398904Y-105973071D01*
X91523335Y-106159295D01*
X91681705Y-106317665D01*
X91867929Y-106442096D01*
X92074849Y-106527805D01*
X92294515Y-106571500D01*
X92518485Y-106571500D01*
X92738151Y-106527805D01*
X92945071Y-106442096D01*
X93131295Y-106317665D01*
X93289665Y-106159295D01*
X93414096Y-105973071D01*
X93499805Y-105766151D01*
X93543500Y-105546485D01*
X93543500Y-105322515D01*
X93809500Y-105322515D01*
X93809500Y-105546485D01*
X93853195Y-105766151D01*
X93938904Y-105973071D01*
X94063335Y-106159295D01*
X94221705Y-106317665D01*
X94407929Y-106442096D01*
X94614849Y-106527805D01*
X94834515Y-106571500D01*
X95058485Y-106571500D01*
X95278151Y-106527805D01*
X95485071Y-106442096D01*
X95671295Y-106317665D01*
X95829665Y-106159295D01*
X95954096Y-105973071D01*
X96039805Y-105766151D01*
X96083500Y-105546485D01*
X96083500Y-105322515D01*
X96039805Y-105102849D01*
X95954096Y-104895929D01*
X95829665Y-104709705D01*
X95671295Y-104551335D01*
X95485071Y-104426904D01*
X95278151Y-104341195D01*
X95058485Y-104297500D01*
X94834515Y-104297500D01*
X94614849Y-104341195D01*
X94407929Y-104426904D01*
X94221705Y-104551335D01*
X94063335Y-104709705D01*
X93938904Y-104895929D01*
X93853195Y-105102849D01*
X93809500Y-105322515D01*
X93543500Y-105322515D01*
X93499805Y-105102849D01*
X93414096Y-104895929D01*
X93289665Y-104709705D01*
X93131295Y-104551335D01*
X92945071Y-104426904D01*
X92738151Y-104341195D01*
X92518485Y-104297500D01*
X92294515Y-104297500D01*
X92074849Y-104341195D01*
X91867929Y-104426904D01*
X91681705Y-104551335D01*
X91523335Y-104709705D01*
X91398904Y-104895929D01*
X91313195Y-105102849D01*
X91269500Y-105322515D01*
X90400000Y-105322515D01*
X90400000Y-102879348D01*
X100695000Y-102879348D01*
X100695000Y-103120652D01*
X100742076Y-103357319D01*
X100834419Y-103580255D01*
X100968481Y-103780892D01*
X101139108Y-103951519D01*
X101339745Y-104085581D01*
X101562681Y-104177924D01*
X101799348Y-104225000D01*
X102040652Y-104225000D01*
X102277319Y-104177924D01*
X102500255Y-104085581D01*
X102700892Y-103951519D01*
X102871519Y-103780892D01*
X103005581Y-103580255D01*
X103097924Y-103357319D01*
X103145000Y-103120652D01*
X103145000Y-102879348D01*
X103097924Y-102642681D01*
X103005581Y-102419745D01*
X102871519Y-102219108D01*
X102700892Y-102048481D01*
X102500255Y-101914419D01*
X102277319Y-101822076D01*
X102040652Y-101775000D01*
X101799348Y-101775000D01*
X101562681Y-101822076D01*
X101339745Y-101914419D01*
X101139108Y-102048481D01*
X100968481Y-102219108D01*
X100834419Y-102419745D01*
X100742076Y-102642681D01*
X100695000Y-102879348D01*
X90400000Y-102879348D01*
X90400000Y-100314725D01*
X101715000Y-100314725D01*
X101715000Y-100605275D01*
X101771683Y-100890242D01*
X101882872Y-101158675D01*
X102044293Y-101400258D01*
X102249742Y-101605707D01*
X102491325Y-101767128D01*
X102759758Y-101878317D01*
X103044725Y-101935000D01*
X103335275Y-101935000D01*
X103620242Y-101878317D01*
X103888675Y-101767128D01*
X104130258Y-101605707D01*
X104238541Y-101497424D01*
X104352214Y-101389837D01*
X104464637Y-101298902D01*
X104580898Y-101219486D01*
X104701372Y-101151099D01*
X104826525Y-101093361D01*
X104957026Y-101045974D01*
X105093461Y-101008853D01*
X105236463Y-100982043D01*
X105386524Y-100965739D01*
X105550402Y-100960000D01*
X105778188Y-100960000D01*
X105486026Y-101155217D01*
X105155217Y-101486026D01*
X104895302Y-101875015D01*
X104716270Y-102307238D01*
X104625000Y-102766083D01*
X104625000Y-103233917D01*
X104716270Y-103692762D01*
X104895302Y-104124985D01*
X105155217Y-104513974D01*
X105486026Y-104844783D01*
X105875015Y-105104698D01*
X106307238Y-105283730D01*
X106766083Y-105375000D01*
X107233917Y-105375000D01*
X107692762Y-105283730D01*
X108124985Y-105104698D01*
X108513974Y-104844783D01*
X108844783Y-104513974D01*
X109104698Y-104124985D01*
X109283730Y-103692762D01*
X109375000Y-103233917D01*
X109375000Y-102879348D01*
X110855000Y-102879348D01*
X110855000Y-103120652D01*
X110902076Y-103357319D01*
X110994419Y-103580255D01*
X111128481Y-103780892D01*
X111299108Y-103951519D01*
X111499745Y-104085581D01*
X111722681Y-104177924D01*
X111959348Y-104225000D01*
X112200652Y-104225000D01*
X112437319Y-104177924D01*
X112660255Y-104085581D01*
X112860892Y-103951519D01*
X113031519Y-103780892D01*
X113165581Y-103580255D01*
X113257924Y-103357319D01*
X113305000Y-103120652D01*
X113305000Y-102879348D01*
X113257924Y-102642681D01*
X113165581Y-102419745D01*
X113031519Y-102219108D01*
X112860892Y-102048481D01*
X112660255Y-101914419D01*
X112437319Y-101822076D01*
X112200652Y-101775000D01*
X111959348Y-101775000D01*
X111722681Y-101822076D01*
X111499745Y-101914419D01*
X111299108Y-102048481D01*
X111128481Y-102219108D01*
X110994419Y-102419745D01*
X110902076Y-102642681D01*
X110855000Y-102879348D01*
X109375000Y-102879348D01*
X109375000Y-102766083D01*
X109283730Y-102307238D01*
X109104698Y-101875015D01*
X108844783Y-101486026D01*
X108513974Y-101155217D01*
X108221812Y-100960000D01*
X119253894Y-100960000D01*
X110496205Y-109717689D01*
X110476034Y-109697518D01*
X110349100Y-109612704D01*
X110208059Y-109554283D01*
X110058331Y-109524500D01*
X109905669Y-109524500D01*
X109755941Y-109554283D01*
X109614900Y-109612704D01*
X109487966Y-109697518D01*
X109380018Y-109805466D01*
X109295204Y-109932400D01*
X109236783Y-110073441D01*
X109207000Y-110223169D01*
X109207000Y-110375831D01*
X109236783Y-110525559D01*
X109295204Y-110666600D01*
X109380018Y-110793534D01*
X109487966Y-110901482D01*
X109614900Y-110986296D01*
X109755941Y-111044717D01*
X109905669Y-111074500D01*
X110058331Y-111074500D01*
X110208059Y-111044717D01*
X110349100Y-110986296D01*
X110476034Y-110901482D01*
X110530283Y-110847233D01*
X110547696Y-110830628D01*
X110558439Y-110821750D01*
X110567705Y-110815200D01*
X110575661Y-110810469D01*
X110582621Y-110807067D01*
X110589042Y-110804571D01*
X110595501Y-110802671D01*
X110602676Y-110801203D01*
X110607895Y-110800579D01*
X110621500Y-110801919D01*
X110646060Y-110799500D01*
X110648944Y-110799216D01*
X110719517Y-110792265D01*
X110813767Y-110763675D01*
X110900629Y-110717246D01*
X110976764Y-110654764D01*
X110992429Y-110635676D01*
X111878105Y-109750000D01*
X114173186Y-109750000D01*
X114173186Y-113250000D01*
X114180426Y-113323513D01*
X114201869Y-113394200D01*
X114236691Y-113459347D01*
X114283552Y-113516448D01*
X114340653Y-113563309D01*
X114405800Y-113598131D01*
X114476487Y-113619574D01*
X114550000Y-113626814D01*
X118050000Y-113626814D01*
X118123513Y-113619574D01*
X118194200Y-113598131D01*
X118259347Y-113563309D01*
X118316448Y-113516448D01*
X118363309Y-113459347D01*
X118398131Y-113394200D01*
X118419574Y-113323513D01*
X118426814Y-113250000D01*
X118426814Y-112750000D01*
X118873186Y-112750000D01*
X118873186Y-116250000D01*
X118880426Y-116323513D01*
X118901869Y-116394200D01*
X118936691Y-116459347D01*
X118983552Y-116516448D01*
X119040653Y-116563309D01*
X119105800Y-116598131D01*
X119176487Y-116619574D01*
X119250000Y-116626814D01*
X122750000Y-116626814D01*
X122823513Y-116619574D01*
X122894200Y-116598131D01*
X122959347Y-116563309D01*
X123016448Y-116516448D01*
X123063309Y-116459347D01*
X123098131Y-116394200D01*
X123119574Y-116323513D01*
X123126814Y-116250000D01*
X123126814Y-115541659D01*
X133400000Y-115541659D01*
X133400000Y-115758341D01*
X133442273Y-115970858D01*
X133525193Y-116171045D01*
X133645575Y-116351209D01*
X133798791Y-116504425D01*
X133978955Y-116624807D01*
X134179142Y-116707727D01*
X134391659Y-116750000D01*
X134608341Y-116750000D01*
X134820858Y-116707727D01*
X135021045Y-116624807D01*
X135201209Y-116504425D01*
X135354425Y-116351209D01*
X135474807Y-116171045D01*
X135557727Y-115970858D01*
X135600000Y-115758341D01*
X135600000Y-115541659D01*
X138400000Y-115541659D01*
X138400000Y-115758341D01*
X138442273Y-115970858D01*
X138525193Y-116171045D01*
X138645575Y-116351209D01*
X138798791Y-116504425D01*
X138978955Y-116624807D01*
X139179142Y-116707727D01*
X139391659Y-116750000D01*
X139608341Y-116750000D01*
X139820858Y-116707727D01*
X140021045Y-116624807D01*
X140201209Y-116504425D01*
X140354425Y-116351209D01*
X140474807Y-116171045D01*
X140557727Y-115970858D01*
X140600000Y-115758341D01*
X140600000Y-115541659D01*
X140557727Y-115329142D01*
X140474807Y-115128955D01*
X140354425Y-114948791D01*
X140201209Y-114795575D01*
X140021045Y-114675193D01*
X139955137Y-114647893D01*
X141425000Y-114647893D01*
X141425000Y-115352107D01*
X141562385Y-116042789D01*
X141831876Y-116693398D01*
X142223116Y-117278930D01*
X142721070Y-117776884D01*
X143306602Y-118168124D01*
X143957211Y-118437615D01*
X144647893Y-118575000D01*
X145352107Y-118575000D01*
X146042789Y-118437615D01*
X146693398Y-118168124D01*
X147278930Y-117776884D01*
X147776884Y-117278930D01*
X148168124Y-116693398D01*
X148437615Y-116042789D01*
X148575000Y-115352107D01*
X148575000Y-114647893D01*
X148437615Y-113957211D01*
X148168124Y-113306602D01*
X147776884Y-112721070D01*
X147278930Y-112223116D01*
X146693398Y-111831876D01*
X146042789Y-111562385D01*
X145352107Y-111425000D01*
X144647893Y-111425000D01*
X143957211Y-111562385D01*
X143306602Y-111831876D01*
X142721070Y-112223116D01*
X142223116Y-112721070D01*
X141831876Y-113306602D01*
X141562385Y-113957211D01*
X141425000Y-114647893D01*
X139955137Y-114647893D01*
X139820858Y-114592273D01*
X139608341Y-114550000D01*
X139391659Y-114550000D01*
X139179142Y-114592273D01*
X138978955Y-114675193D01*
X138798791Y-114795575D01*
X138645575Y-114948791D01*
X138525193Y-115128955D01*
X138442273Y-115329142D01*
X138400000Y-115541659D01*
X135600000Y-115541659D01*
X135557727Y-115329142D01*
X135474807Y-115128955D01*
X135354425Y-114948791D01*
X135201209Y-114795575D01*
X135021045Y-114675193D01*
X134820858Y-114592273D01*
X134608341Y-114550000D01*
X134391659Y-114550000D01*
X134179142Y-114592273D01*
X133978955Y-114675193D01*
X133798791Y-114795575D01*
X133645575Y-114948791D01*
X133525193Y-115128955D01*
X133442273Y-115329142D01*
X133400000Y-115541659D01*
X123126814Y-115541659D01*
X123126814Y-112750000D01*
X123119574Y-112676487D01*
X123098131Y-112605800D01*
X123063309Y-112540653D01*
X123016448Y-112483552D01*
X122959347Y-112436691D01*
X122894200Y-112401869D01*
X122823513Y-112380426D01*
X122750000Y-112373186D01*
X119250000Y-112373186D01*
X119176487Y-112380426D01*
X119105800Y-112401869D01*
X119040653Y-112436691D01*
X118983552Y-112483552D01*
X118936691Y-112540653D01*
X118901869Y-112605800D01*
X118880426Y-112676487D01*
X118873186Y-112750000D01*
X118426814Y-112750000D01*
X118426814Y-109750000D01*
X118419574Y-109676487D01*
X118398131Y-109605800D01*
X118363309Y-109540653D01*
X118316448Y-109483552D01*
X118259347Y-109436691D01*
X118194200Y-109401869D01*
X118123513Y-109380426D01*
X118050000Y-109373186D01*
X114550000Y-109373186D01*
X114476487Y-109380426D01*
X114405800Y-109401869D01*
X114340653Y-109436691D01*
X114283552Y-109483552D01*
X114236691Y-109540653D01*
X114201869Y-109605800D01*
X114180426Y-109676487D01*
X114173186Y-109750000D01*
X111878105Y-109750000D01*
X114878105Y-106750000D01*
X118873186Y-106750000D01*
X118873186Y-110250000D01*
X118880426Y-110323513D01*
X118901869Y-110394200D01*
X118936691Y-110459347D01*
X118983552Y-110516448D01*
X119040653Y-110563309D01*
X119105800Y-110598131D01*
X119176487Y-110619574D01*
X119250000Y-110626814D01*
X122750000Y-110626814D01*
X122823513Y-110619574D01*
X122894200Y-110598131D01*
X122959347Y-110563309D01*
X123016448Y-110516448D01*
X123063309Y-110459347D01*
X123098131Y-110394200D01*
X123119574Y-110323513D01*
X123126814Y-110250000D01*
X123126814Y-110002320D01*
X126326006Y-110002320D01*
X126326006Y-112501680D01*
X126333246Y-112575193D01*
X126354689Y-112645880D01*
X126389511Y-112711027D01*
X126436372Y-112768128D01*
X126493473Y-112814989D01*
X126558620Y-112849811D01*
X126629307Y-112871254D01*
X126702820Y-112878494D01*
X129202180Y-112878494D01*
X129275693Y-112871254D01*
X129346380Y-112849811D01*
X129411527Y-112814989D01*
X129468628Y-112768128D01*
X129515489Y-112711027D01*
X129550311Y-112645880D01*
X129571754Y-112575193D01*
X129578994Y-112501680D01*
X129578994Y-111071172D01*
X129579243Y-111048570D01*
X129589123Y-110875807D01*
X129606462Y-110717928D01*
X129630772Y-110575250D01*
X129661433Y-110447940D01*
X129697663Y-110336037D01*
X129738557Y-110239323D01*
X129772244Y-110177319D01*
X130539537Y-110177319D01*
X130500529Y-110216327D01*
X130322727Y-110482425D01*
X130200256Y-110778098D01*
X130137820Y-111091983D01*
X130137820Y-111412017D01*
X130200256Y-111725902D01*
X130322727Y-112021575D01*
X130500529Y-112287673D01*
X130726827Y-112513971D01*
X130992925Y-112691773D01*
X131288598Y-112814244D01*
X131602483Y-112876680D01*
X131922517Y-112876680D01*
X132236402Y-112814244D01*
X132532075Y-112691773D01*
X132798173Y-112513971D01*
X133024471Y-112287673D01*
X133202273Y-112021575D01*
X133324744Y-111725902D01*
X133387180Y-111412017D01*
X133387180Y-111091983D01*
X133324744Y-110778098D01*
X133202273Y-110482425D01*
X133024471Y-110216327D01*
X132985463Y-110177319D01*
X134349537Y-110177319D01*
X134310529Y-110216327D01*
X134132727Y-110482425D01*
X134010256Y-110778098D01*
X133947820Y-111091983D01*
X133947820Y-111412017D01*
X134010256Y-111725902D01*
X134132727Y-112021575D01*
X134310529Y-112287673D01*
X134536827Y-112513971D01*
X134802925Y-112691773D01*
X135098598Y-112814244D01*
X135412483Y-112876680D01*
X135732517Y-112876680D01*
X136046402Y-112814244D01*
X136342075Y-112691773D01*
X136608173Y-112513971D01*
X136834471Y-112287673D01*
X137012273Y-112021575D01*
X137134744Y-111725902D01*
X137197180Y-111412017D01*
X137197180Y-111091983D01*
X137134744Y-110778098D01*
X137012273Y-110482425D01*
X136834471Y-110216327D01*
X136795463Y-110177319D01*
X138159537Y-110177319D01*
X138120529Y-110216327D01*
X137942727Y-110482425D01*
X137820256Y-110778098D01*
X137757820Y-111091983D01*
X137757820Y-111412017D01*
X137820256Y-111725902D01*
X137942727Y-112021575D01*
X138120529Y-112287673D01*
X138346827Y-112513971D01*
X138612925Y-112691773D01*
X138908598Y-112814244D01*
X139222483Y-112876680D01*
X139542517Y-112876680D01*
X139856402Y-112814244D01*
X140152075Y-112691773D01*
X140418173Y-112513971D01*
X140644471Y-112287673D01*
X140822273Y-112021575D01*
X140944744Y-111725902D01*
X141007180Y-111412017D01*
X141007180Y-111091983D01*
X140944744Y-110778098D01*
X140822273Y-110482425D01*
X140644471Y-110216327D01*
X140418173Y-109990029D01*
X140152075Y-109812227D01*
X139856402Y-109689756D01*
X139542517Y-109627320D01*
X139222483Y-109627320D01*
X139178171Y-109636134D01*
X145935826Y-102878481D01*
X145953655Y-102861851D01*
X145965506Y-102852311D01*
X145976083Y-102845060D01*
X145985612Y-102839593D01*
X145994470Y-102835441D01*
X146003190Y-102832214D01*
X146012330Y-102829682D01*
X146022600Y-102827738D01*
X146034562Y-102826467D01*
X146056799Y-102825850D01*
X146132681Y-102825850D01*
X146282409Y-102796067D01*
X146423450Y-102737646D01*
X146550384Y-102652832D01*
X146658332Y-102544884D01*
X146743146Y-102417950D01*
X146801567Y-102276909D01*
X146831350Y-102127181D01*
X146831350Y-101974519D01*
X146801567Y-101824791D01*
X146743146Y-101683750D01*
X146658332Y-101556816D01*
X146550384Y-101448868D01*
X146423450Y-101364054D01*
X146282409Y-101305633D01*
X146132681Y-101275850D01*
X145980019Y-101275850D01*
X145830291Y-101305633D01*
X145689250Y-101364054D01*
X145562316Y-101448868D01*
X145454368Y-101556816D01*
X145369554Y-101683750D01*
X145311133Y-101824791D01*
X145281350Y-101974519D01*
X145281350Y-102050393D01*
X145280733Y-102072636D01*
X145279461Y-102084599D01*
X145277517Y-102094869D01*
X145274985Y-102104009D01*
X145271758Y-102112729D01*
X145267606Y-102121587D01*
X145262139Y-102131116D01*
X145254888Y-102141693D01*
X145245342Y-102153551D01*
X145228719Y-102171374D01*
X138222776Y-109177319D01*
X134581472Y-109177319D01*
X134601651Y-109173305D01*
X134808571Y-109087596D01*
X134994795Y-108963165D01*
X135153165Y-108804795D01*
X135277596Y-108618571D01*
X135363305Y-108411651D01*
X135407000Y-108191985D01*
X135407000Y-107968015D01*
X135363305Y-107748349D01*
X135277596Y-107541429D01*
X135153165Y-107355205D01*
X134994795Y-107196835D01*
X134808571Y-107072404D01*
X134601651Y-106986695D01*
X134381985Y-106943000D01*
X134158015Y-106943000D01*
X133938349Y-106986695D01*
X133731429Y-107072404D01*
X133545205Y-107196835D01*
X133386835Y-107355205D01*
X133262404Y-107541429D01*
X133176695Y-107748349D01*
X133133000Y-107968015D01*
X133133000Y-108191985D01*
X133176695Y-108411651D01*
X133262404Y-108618571D01*
X133386835Y-108804795D01*
X133545205Y-108963165D01*
X133731429Y-109087596D01*
X133938349Y-109173305D01*
X133958528Y-109177319D01*
X132041472Y-109177319D01*
X132061651Y-109173305D01*
X132268571Y-109087596D01*
X132454795Y-108963165D01*
X132613165Y-108804795D01*
X132737596Y-108618571D01*
X132823305Y-108411651D01*
X132867000Y-108191985D01*
X132867000Y-107968015D01*
X132823305Y-107748349D01*
X132737596Y-107541429D01*
X132613165Y-107355205D01*
X132454795Y-107196835D01*
X132268571Y-107072404D01*
X132061651Y-106986695D01*
X131841985Y-106943000D01*
X131618015Y-106943000D01*
X131398349Y-106986695D01*
X131191429Y-107072404D01*
X131005205Y-107196835D01*
X130846835Y-107355205D01*
X130722404Y-107541429D01*
X130636695Y-107748349D01*
X130593000Y-107968015D01*
X130593000Y-108191985D01*
X130636695Y-108411651D01*
X130722404Y-108618571D01*
X130846835Y-108804795D01*
X131005205Y-108963165D01*
X131191429Y-109087596D01*
X131398349Y-109173305D01*
X131418528Y-109177319D01*
X129551738Y-109177319D01*
X129527180Y-109174900D01*
X129502622Y-109177319D01*
X129502621Y-109177319D01*
X129429164Y-109184554D01*
X129334914Y-109213144D01*
X129248052Y-109259573D01*
X129171917Y-109322055D01*
X129165148Y-109330303D01*
X129116009Y-109373718D01*
X129047301Y-109421323D01*
X128965176Y-109465942D01*
X128868462Y-109506836D01*
X128756559Y-109543066D01*
X128629249Y-109573727D01*
X128486571Y-109598037D01*
X128328692Y-109615376D01*
X128155928Y-109625256D01*
X128133246Y-109625506D01*
X126702820Y-109625506D01*
X126629307Y-109632746D01*
X126558620Y-109654189D01*
X126493473Y-109689011D01*
X126436372Y-109735872D01*
X126389511Y-109792973D01*
X126354689Y-109858120D01*
X126333246Y-109928807D01*
X126326006Y-110002320D01*
X123126814Y-110002320D01*
X123126814Y-106750000D01*
X123119574Y-106676487D01*
X123098131Y-106605800D01*
X123063309Y-106540653D01*
X123016448Y-106483552D01*
X122959347Y-106436691D01*
X122894200Y-106401869D01*
X122823513Y-106380426D01*
X122750000Y-106373186D01*
X119250000Y-106373186D01*
X119176487Y-106380426D01*
X119105800Y-106401869D01*
X119040653Y-106436691D01*
X118983552Y-106483552D01*
X118936691Y-106540653D01*
X118901869Y-106605800D01*
X118880426Y-106676487D01*
X118873186Y-106750000D01*
X114878105Y-106750000D01*
X118748757Y-102879348D01*
X126695000Y-102879348D01*
X126695000Y-103120652D01*
X126742076Y-103357319D01*
X126834419Y-103580255D01*
X126968481Y-103780892D01*
X127139108Y-103951519D01*
X127339745Y-104085581D01*
X127562681Y-104177924D01*
X127799348Y-104225000D01*
X128040652Y-104225000D01*
X128277319Y-104177924D01*
X128500255Y-104085581D01*
X128700892Y-103951519D01*
X128871519Y-103780892D01*
X129005581Y-103580255D01*
X129097924Y-103357319D01*
X129145000Y-103120652D01*
X129145000Y-102879348D01*
X129122471Y-102766083D01*
X130625000Y-102766083D01*
X130625000Y-103233917D01*
X130716270Y-103692762D01*
X130895302Y-104124985D01*
X131155217Y-104513974D01*
X131486026Y-104844783D01*
X131875015Y-105104698D01*
X132307238Y-105283730D01*
X132766083Y-105375000D01*
X133233917Y-105375000D01*
X133692762Y-105283730D01*
X134124985Y-105104698D01*
X134513974Y-104844783D01*
X134844783Y-104513974D01*
X135104698Y-104124985D01*
X135283730Y-103692762D01*
X135375000Y-103233917D01*
X135375000Y-102879348D01*
X136855000Y-102879348D01*
X136855000Y-103120652D01*
X136902076Y-103357319D01*
X136994419Y-103580255D01*
X137128481Y-103780892D01*
X137299108Y-103951519D01*
X137499745Y-104085581D01*
X137722681Y-104177924D01*
X137959348Y-104225000D01*
X138200652Y-104225000D01*
X138437319Y-104177924D01*
X138660255Y-104085581D01*
X138860892Y-103951519D01*
X139031519Y-103780892D01*
X139165581Y-103580255D01*
X139257924Y-103357319D01*
X139305000Y-103120652D01*
X139305000Y-102879348D01*
X139257924Y-102642681D01*
X139165581Y-102419745D01*
X139031519Y-102219108D01*
X138860892Y-102048481D01*
X138660255Y-101914419D01*
X138437319Y-101822076D01*
X138200652Y-101775000D01*
X137959348Y-101775000D01*
X137722681Y-101822076D01*
X137499745Y-101914419D01*
X137299108Y-102048481D01*
X137128481Y-102219108D01*
X136994419Y-102419745D01*
X136902076Y-102642681D01*
X136855000Y-102879348D01*
X135375000Y-102879348D01*
X135375000Y-102766083D01*
X135283730Y-102307238D01*
X135104698Y-101875015D01*
X134844783Y-101486026D01*
X134513974Y-101155217D01*
X134124985Y-100895302D01*
X133692762Y-100716270D01*
X133233917Y-100625000D01*
X132766083Y-100625000D01*
X132307238Y-100716270D01*
X131875015Y-100895302D01*
X131486026Y-101155217D01*
X131155217Y-101486026D01*
X130895302Y-101875015D01*
X130716270Y-102307238D01*
X130625000Y-102766083D01*
X129122471Y-102766083D01*
X129097924Y-102642681D01*
X129005581Y-102419745D01*
X128871519Y-102219108D01*
X128700892Y-102048481D01*
X128500255Y-101914419D01*
X128277319Y-101822076D01*
X128040652Y-101775000D01*
X127799348Y-101775000D01*
X127562681Y-101822076D01*
X127339745Y-101914419D01*
X127139108Y-102048481D01*
X126968481Y-102219108D01*
X126834419Y-102419745D01*
X126742076Y-102642681D01*
X126695000Y-102879348D01*
X118748757Y-102879348D01*
X132551980Y-89076127D01*
X132620832Y-89011928D01*
X132685547Y-88959886D01*
X132750844Y-88915190D01*
X132816947Y-88877344D01*
X132884252Y-88845878D01*
X132953281Y-88820414D01*
X133024635Y-88800718D01*
X133098972Y-88786707D01*
X133176898Y-88778463D01*
X133266294Y-88776000D01*
X133380803Y-88776000D01*
X133598150Y-88732767D01*
X133802887Y-88647962D01*
X133987145Y-88524844D01*
X134143844Y-88368145D01*
X134266962Y-88183887D01*
X134351767Y-87979150D01*
X134395000Y-87761803D01*
X134395000Y-87540197D01*
X134351767Y-87322850D01*
X134266962Y-87118113D01*
X134143844Y-86933855D01*
X133987145Y-86777156D01*
X133802887Y-86654038D01*
X133598150Y-86569233D01*
X133380803Y-86526000D01*
X133159197Y-86526000D01*
X132941850Y-86569233D01*
X132737113Y-86654038D01*
X132694999Y-86682178D01*
X132694999Y-85970868D01*
X141004946Y-77660922D01*
X140985000Y-77761197D01*
X140985000Y-77875700D01*
X140982536Y-77965101D01*
X140974292Y-78043027D01*
X140960281Y-78117364D01*
X140940583Y-78188725D01*
X140915126Y-78257738D01*
X140883653Y-78325055D01*
X140845809Y-78391155D01*
X140801113Y-78456452D01*
X140749071Y-78521167D01*
X140684852Y-78590042D01*
X137268320Y-82006575D01*
X137249237Y-82022236D01*
X137186755Y-82098371D01*
X137140326Y-82185233D01*
X137111735Y-82279483D01*
X137102081Y-82377500D01*
X137104501Y-82402070D01*
X137104500Y-91838394D01*
X130505536Y-98437359D01*
X130385566Y-98549209D01*
X130267919Y-98643798D01*
X130147854Y-98725952D01*
X130025125Y-98796180D01*
X129899362Y-98854941D01*
X129770004Y-98902623D01*
X129636478Y-98939448D01*
X129498119Y-98965500D01*
X129354311Y-98980696D01*
X129197883Y-98985000D01*
X129044725Y-98985000D01*
X128759758Y-99041683D01*
X128491325Y-99152872D01*
X128249742Y-99314293D01*
X128044293Y-99519742D01*
X127882872Y-99761325D01*
X127771683Y-100029758D01*
X127715000Y-100314725D01*
X127715000Y-100605275D01*
X127771683Y-100890242D01*
X127882872Y-101158675D01*
X128044293Y-101400258D01*
X128249742Y-101605707D01*
X128491325Y-101767128D01*
X128759758Y-101878317D01*
X129044725Y-101935000D01*
X129335275Y-101935000D01*
X129620242Y-101878317D01*
X129888675Y-101767128D01*
X130130258Y-101605707D01*
X130335707Y-101400258D01*
X130497128Y-101158675D01*
X130608317Y-100890242D01*
X130665000Y-100605275D01*
X130665000Y-100452113D01*
X130669303Y-100295688D01*
X130684499Y-100151880D01*
X130710551Y-100013521D01*
X130747377Y-99879993D01*
X130795058Y-99750640D01*
X130853819Y-99624872D01*
X130924047Y-99502145D01*
X131006201Y-99382080D01*
X131100784Y-99264441D01*
X131212652Y-99144453D01*
X132582380Y-97774725D01*
X134065000Y-97774725D01*
X134065000Y-98065275D01*
X134121683Y-98350242D01*
X134232872Y-98618675D01*
X134394293Y-98860258D01*
X134599742Y-99065707D01*
X134841325Y-99227128D01*
X135109758Y-99338317D01*
X135394725Y-99395000D01*
X135685275Y-99395000D01*
X135970242Y-99338317D01*
X136238675Y-99227128D01*
X136480258Y-99065707D01*
X136685707Y-98860258D01*
X136847128Y-98618675D01*
X136958317Y-98350242D01*
X137015000Y-98065275D01*
X137015000Y-97774725D01*
X136958317Y-97489758D01*
X136847128Y-97221325D01*
X136685707Y-96979742D01*
X136480258Y-96774293D01*
X136238675Y-96612872D01*
X135970242Y-96501683D01*
X135685275Y-96445000D01*
X135394725Y-96445000D01*
X135109758Y-96501683D01*
X134841325Y-96612872D01*
X134599742Y-96774293D01*
X134394293Y-96979742D01*
X134232872Y-97221325D01*
X134121683Y-97489758D01*
X134065000Y-97774725D01*
X132582380Y-97774725D01*
X134815908Y-95541197D01*
X140985000Y-95541197D01*
X140985000Y-95762803D01*
X141028233Y-95980150D01*
X141113038Y-96184887D01*
X141236156Y-96369145D01*
X141392855Y-96525844D01*
X141577113Y-96648962D01*
X141781850Y-96733767D01*
X141999197Y-96777000D01*
X142220803Y-96777000D01*
X142438150Y-96733767D01*
X142642887Y-96648962D01*
X142827145Y-96525844D01*
X142983844Y-96369145D01*
X143106962Y-96184887D01*
X143191767Y-95980150D01*
X143235000Y-95762803D01*
X143235000Y-95541197D01*
X143191767Y-95323850D01*
X143106962Y-95119113D01*
X142983844Y-94934855D01*
X142827145Y-94778156D01*
X142642887Y-94655038D01*
X142438150Y-94570233D01*
X142220803Y-94527000D01*
X141999197Y-94527000D01*
X141781850Y-94570233D01*
X141577113Y-94655038D01*
X141392855Y-94778156D01*
X141236156Y-94934855D01*
X141113038Y-95119113D01*
X141028233Y-95323850D01*
X140985000Y-95541197D01*
X134815908Y-95541197D01*
X137940681Y-92416425D01*
X137959764Y-92400764D01*
X138022246Y-92324629D01*
X138068675Y-92237767D01*
X138097265Y-92143517D01*
X138104500Y-92070060D01*
X138104500Y-92070059D01*
X138106919Y-92045501D01*
X138104500Y-92020941D01*
X138104500Y-82584605D01*
X141391963Y-79297143D01*
X141460832Y-79232928D01*
X141525547Y-79180886D01*
X141590844Y-79136190D01*
X141656947Y-79098344D01*
X141724252Y-79066878D01*
X141793281Y-79041414D01*
X141864635Y-79021718D01*
X141938972Y-79007707D01*
X142016898Y-78999463D01*
X142106294Y-78997000D01*
X142220803Y-78997000D01*
X142438150Y-78953767D01*
X142642887Y-78868962D01*
X142685002Y-78840822D01*
X142685002Y-79443178D01*
X142642887Y-79415038D01*
X142438150Y-79330233D01*
X142220803Y-79287000D01*
X141999197Y-79287000D01*
X141781850Y-79330233D01*
X141577113Y-79415038D01*
X141392855Y-79538156D01*
X141236156Y-79694855D01*
X141113038Y-79879113D01*
X141028233Y-80083850D01*
X140985000Y-80301197D01*
X140985000Y-80522803D01*
X141028233Y-80740150D01*
X141113038Y-80944887D01*
X141236156Y-81129145D01*
X141392855Y-81285844D01*
X141577113Y-81408962D01*
X141781850Y-81493767D01*
X141999197Y-81537000D01*
X142220803Y-81537000D01*
X142438150Y-81493767D01*
X142642887Y-81408962D01*
X142685001Y-81380822D01*
X142685001Y-81983178D01*
X142642887Y-81955038D01*
X142438150Y-81870233D01*
X142220803Y-81827000D01*
X141999197Y-81827000D01*
X141781850Y-81870233D01*
X141577113Y-81955038D01*
X141392855Y-82078156D01*
X141236156Y-82234855D01*
X141113038Y-82419113D01*
X141028233Y-82623850D01*
X140985000Y-82841197D01*
X140985000Y-83062803D01*
X141028233Y-83280150D01*
X141113038Y-83484887D01*
X141236156Y-83669145D01*
X141392855Y-83825844D01*
X141577113Y-83948962D01*
X141781850Y-84033767D01*
X141999197Y-84077000D01*
X142220803Y-84077000D01*
X142438150Y-84033767D01*
X142642887Y-83948962D01*
X142685001Y-83920822D01*
X142685001Y-84523178D01*
X142642887Y-84495038D01*
X142438150Y-84410233D01*
X142220803Y-84367000D01*
X141999197Y-84367000D01*
X141781850Y-84410233D01*
X141577113Y-84495038D01*
X141392855Y-84618156D01*
X141236156Y-84774855D01*
X141113038Y-84959113D01*
X141028233Y-85163850D01*
X140985000Y-85381197D01*
X140985000Y-85602803D01*
X141028233Y-85820150D01*
X141113038Y-86024887D01*
X141236156Y-86209145D01*
X141392855Y-86365844D01*
X141577113Y-86488962D01*
X141781850Y-86573767D01*
X141999197Y-86617000D01*
X142220803Y-86617000D01*
X142438150Y-86573767D01*
X142642887Y-86488962D01*
X142685001Y-86460822D01*
X142685001Y-87063178D01*
X142642887Y-87035038D01*
X142438150Y-86950233D01*
X142220803Y-86907000D01*
X141999197Y-86907000D01*
X141781850Y-86950233D01*
X141577113Y-87035038D01*
X141392855Y-87158156D01*
X141236156Y-87314855D01*
X141113038Y-87499113D01*
X141028233Y-87703850D01*
X140985000Y-87921197D01*
X140985000Y-88142803D01*
X141028233Y-88360150D01*
X141113038Y-88564887D01*
X141236156Y-88749145D01*
X141392855Y-88905844D01*
X141577113Y-89028962D01*
X141781850Y-89113767D01*
X141999197Y-89157000D01*
X142220803Y-89157000D01*
X142438150Y-89113767D01*
X142642887Y-89028962D01*
X142685001Y-89000822D01*
X142685001Y-89603178D01*
X142642887Y-89575038D01*
X142438150Y-89490233D01*
X142220803Y-89447000D01*
X141999197Y-89447000D01*
X141781850Y-89490233D01*
X141577113Y-89575038D01*
X141392855Y-89698156D01*
X141236156Y-89854855D01*
X141113038Y-90039113D01*
X141028233Y-90243850D01*
X140985000Y-90461197D01*
X140985000Y-90682803D01*
X141028233Y-90900150D01*
X141113038Y-91104887D01*
X141236156Y-91289145D01*
X141392855Y-91445844D01*
X141577113Y-91568962D01*
X141781850Y-91653767D01*
X141999197Y-91697000D01*
X142220803Y-91697000D01*
X142438150Y-91653767D01*
X142642887Y-91568962D01*
X142685001Y-91540822D01*
X142685001Y-91809582D01*
X142629155Y-91847809D01*
X142563055Y-91885653D01*
X142495738Y-91917126D01*
X142426725Y-91942583D01*
X142355364Y-91962281D01*
X142281027Y-91976292D01*
X142203101Y-91984536D01*
X142113700Y-91987000D01*
X141999197Y-91987000D01*
X141781850Y-92030233D01*
X141577113Y-92115038D01*
X141392855Y-92238156D01*
X141236156Y-92394855D01*
X141113038Y-92579113D01*
X141028233Y-92783850D01*
X140985000Y-93001197D01*
X140985000Y-93222803D01*
X141028233Y-93440150D01*
X141113038Y-93644887D01*
X141236156Y-93829145D01*
X141392855Y-93985844D01*
X141577113Y-94108962D01*
X141781850Y-94193767D01*
X141999197Y-94237000D01*
X142220803Y-94237000D01*
X142438150Y-94193767D01*
X142642887Y-94108962D01*
X142827145Y-93985844D01*
X142983844Y-93829145D01*
X143106962Y-93644887D01*
X143191767Y-93440150D01*
X143235000Y-93222803D01*
X143235000Y-93108294D01*
X143237463Y-93018898D01*
X143245707Y-92940972D01*
X143259718Y-92866635D01*
X143279414Y-92795281D01*
X143304878Y-92726252D01*
X143336344Y-92658947D01*
X143374190Y-92592844D01*
X143418886Y-92527547D01*
X143470928Y-92462832D01*
X143525200Y-92404627D01*
X143540265Y-92392263D01*
X143602747Y-92316128D01*
X143649176Y-92229266D01*
X143675187Y-92143518D01*
X143677766Y-92135017D01*
X143687420Y-92036999D01*
X143685001Y-92012439D01*
X143685001Y-68851061D01*
X143687420Y-68826501D01*
X143677766Y-68728484D01*
X143657907Y-68663018D01*
X143649176Y-68634234D01*
X143602747Y-68547372D01*
X143540265Y-68471237D01*
X143521188Y-68455581D01*
X143086992Y-68021385D01*
X143306602Y-68168124D01*
X143957211Y-68437615D01*
X144647893Y-68575000D01*
X145352107Y-68575000D01*
X146042789Y-68437615D01*
X146693398Y-68168124D01*
X147278930Y-67776884D01*
X147776884Y-67278930D01*
X148168124Y-66693398D01*
X148437615Y-66042789D01*
X148575000Y-65352107D01*
X148575000Y-64647893D01*
X148437615Y-63957211D01*
X148168124Y-63306602D01*
X147776884Y-62721070D01*
X147278930Y-62223116D01*
X146693398Y-61831876D01*
X146042789Y-61562385D01*
X145352107Y-61425000D01*
X144647893Y-61425000D01*
X143957211Y-61562385D01*
X143306602Y-61831876D01*
X142721070Y-62223116D01*
X142223116Y-62721070D01*
X141831876Y-63306602D01*
X141562385Y-63957211D01*
X141425000Y-64647893D01*
X141425000Y-65352107D01*
X141562385Y-66042789D01*
X141831876Y-66693398D01*
X141978616Y-66913009D01*
X139181929Y-64116324D01*
X139166264Y-64097236D01*
X139090129Y-64034754D01*
X139003267Y-63988325D01*
X138909017Y-63959735D01*
X138835560Y-63952500D01*
X138811000Y-63950081D01*
X138786440Y-63952500D01*
X122771701Y-63952500D01*
X122777254Y-63934193D01*
X122784494Y-63860680D01*
X122784494Y-61361320D01*
X122777254Y-61287807D01*
X122755811Y-61217120D01*
X122720989Y-61151973D01*
X122674128Y-61094872D01*
X122617027Y-61048011D01*
X122551880Y-61013189D01*
X122481193Y-60991746D01*
X122407680Y-60984506D01*
X119908320Y-60984506D01*
X119834807Y-60991746D01*
X119764120Y-61013189D01*
X119698973Y-61048011D01*
X119641872Y-61094872D01*
X119595011Y-61151973D01*
X119560189Y-61217120D01*
X119538746Y-61287807D01*
X119531506Y-61361320D01*
X119531506Y-63860680D01*
X119538746Y-63934193D01*
X119544299Y-63952500D01*
X118264650Y-63952500D01*
X118383673Y-63872971D01*
X118609971Y-63646673D01*
X118787773Y-63380575D01*
X118910244Y-63084902D01*
X118972680Y-62771017D01*
X118972680Y-62450983D01*
X118910244Y-62137098D01*
X118787773Y-61841425D01*
X118609971Y-61575327D01*
X118383673Y-61349029D01*
X118117575Y-61171227D01*
X117821902Y-61048756D01*
X117508017Y-60986320D01*
X117187983Y-60986320D01*
X116874098Y-61048756D01*
X116578425Y-61171227D01*
X116312327Y-61349029D01*
X116086029Y-61575327D01*
X115908227Y-61841425D01*
X115785756Y-62137098D01*
X115723320Y-62450983D01*
X115723320Y-62771017D01*
X115785756Y-63084902D01*
X115908227Y-63380575D01*
X116086029Y-63646673D01*
X116312327Y-63872971D01*
X116431350Y-63952500D01*
X105932607Y-63952500D01*
X105352782Y-63372676D01*
X105295368Y-63311100D01*
X105249415Y-63253962D01*
X105210064Y-63196479D01*
X105176842Y-63138459D01*
X105149275Y-63079505D01*
X105126989Y-63019100D01*
X105109738Y-62956622D01*
X105097448Y-62891435D01*
X105090200Y-62822929D01*
X105088000Y-62743124D01*
X105088000Y-62634122D01*
X105438000Y-62634122D01*
X105438000Y-62845878D01*
X105479312Y-63053566D01*
X105560348Y-63249203D01*
X105677993Y-63425272D01*
X105827728Y-63575007D01*
X106003797Y-63692652D01*
X106199434Y-63773688D01*
X106407122Y-63815000D01*
X106618878Y-63815000D01*
X106826566Y-63773688D01*
X107022203Y-63692652D01*
X107198272Y-63575007D01*
X107348007Y-63425272D01*
X107465652Y-63249203D01*
X107546688Y-63053566D01*
X107588000Y-62845878D01*
X107588000Y-62634122D01*
X107938000Y-62634122D01*
X107938000Y-62845878D01*
X107979312Y-63053566D01*
X108060348Y-63249203D01*
X108177993Y-63425272D01*
X108327728Y-63575007D01*
X108503797Y-63692652D01*
X108699434Y-63773688D01*
X108907122Y-63815000D01*
X109118878Y-63815000D01*
X109326566Y-63773688D01*
X109522203Y-63692652D01*
X109698272Y-63575007D01*
X109848007Y-63425272D01*
X109965652Y-63249203D01*
X110046688Y-63053566D01*
X110088000Y-62845878D01*
X110088000Y-62634122D01*
X110046688Y-62426434D01*
X109965652Y-62230797D01*
X109848007Y-62054728D01*
X109698272Y-61904993D01*
X109522203Y-61787348D01*
X109326566Y-61706312D01*
X109118878Y-61665000D01*
X108907122Y-61665000D01*
X108699434Y-61706312D01*
X108503797Y-61787348D01*
X108327728Y-61904993D01*
X108177993Y-62054728D01*
X108060348Y-62230797D01*
X107979312Y-62426434D01*
X107938000Y-62634122D01*
X107588000Y-62634122D01*
X107546688Y-62426434D01*
X107465652Y-62230797D01*
X107348007Y-62054728D01*
X107198272Y-61904993D01*
X107022203Y-61787348D01*
X106826566Y-61706312D01*
X106618878Y-61665000D01*
X106407122Y-61665000D01*
X106199434Y-61706312D01*
X106003797Y-61787348D01*
X105827728Y-61904993D01*
X105677993Y-62054728D01*
X105560348Y-62230797D01*
X105479312Y-62426434D01*
X105438000Y-62634122D01*
X105088000Y-62634122D01*
X105046688Y-62426434D01*
X104965652Y-62230797D01*
X104848007Y-62054728D01*
X104698272Y-61904993D01*
X104522203Y-61787348D01*
X104326566Y-61706312D01*
X104118878Y-61665000D01*
X103907122Y-61665000D01*
X103699434Y-61706312D01*
X103503797Y-61787348D01*
X103327728Y-61904993D01*
X103177993Y-62054728D01*
X103060348Y-62230797D01*
X102979312Y-62426434D01*
X102938000Y-62634122D01*
X102938000Y-62845878D01*
X102979312Y-63053566D01*
X103060348Y-63249203D01*
X103177993Y-63425272D01*
X103327728Y-63575007D01*
X103503797Y-63692652D01*
X103699434Y-63773688D01*
X103907122Y-63815000D01*
X104016124Y-63815000D01*
X104095929Y-63817200D01*
X104164435Y-63824448D01*
X104229622Y-63836738D01*
X104292100Y-63853989D01*
X104352505Y-63876275D01*
X104411459Y-63903842D01*
X104469479Y-63937064D01*
X104526962Y-63976415D01*
X104584100Y-64022368D01*
X104645676Y-64079782D01*
X105034640Y-64468746D01*
X104988974Y-64473244D01*
X104894724Y-64501834D01*
X104807862Y-64548263D01*
X104731727Y-64610745D01*
X104716071Y-64629822D01*
X104645669Y-64700224D01*
X104584100Y-64757631D01*
X104526962Y-64803584D01*
X104469479Y-64842935D01*
X104411459Y-64876157D01*
X104352505Y-64903724D01*
X104292100Y-64926010D01*
X104229622Y-64943261D01*
X104164435Y-64955551D01*
X104095928Y-64962799D01*
X104081895Y-64963186D01*
X103313000Y-64963186D01*
X103239487Y-64970426D01*
X103168800Y-64991869D01*
X103103653Y-65026691D01*
X103046552Y-65073552D01*
X102999691Y-65130653D01*
X102964869Y-65195800D01*
X102943426Y-65266487D01*
X102936186Y-65340000D01*
X102936186Y-66740000D01*
X102943426Y-66813513D01*
X102964869Y-66884200D01*
X102999691Y-66949347D01*
X103046552Y-67006448D01*
X103103653Y-67053309D01*
X103168800Y-67088131D01*
X103239487Y-67109574D01*
X103313000Y-67116814D01*
X104713000Y-67116814D01*
X104786513Y-67109574D01*
X104857200Y-67088131D01*
X104922347Y-67053309D01*
X104979448Y-67006448D01*
X105026309Y-66949347D01*
X105061131Y-66884200D01*
X105082574Y-66813513D01*
X105089814Y-66740000D01*
X105089814Y-65971072D01*
X105090200Y-65957070D01*
X105097448Y-65888564D01*
X105109738Y-65823377D01*
X105126989Y-65760899D01*
X105149275Y-65700494D01*
X105176842Y-65641540D01*
X105210064Y-65583520D01*
X105249415Y-65526037D01*
X105295368Y-65468899D01*
X105298063Y-65466009D01*
X105603638Y-65466009D01*
X105560348Y-65530797D01*
X105479312Y-65726434D01*
X105438000Y-65934122D01*
X105438000Y-66145878D01*
X105479312Y-66353566D01*
X105560348Y-66549203D01*
X105677993Y-66725272D01*
X105827728Y-66875007D01*
X106003797Y-66992652D01*
X106199434Y-67073688D01*
X106407122Y-67115000D01*
X106618878Y-67115000D01*
X106826566Y-67073688D01*
X107022203Y-66992652D01*
X107198272Y-66875007D01*
X107348007Y-66725272D01*
X107465652Y-66549203D01*
X107546688Y-66353566D01*
X107588000Y-66145878D01*
X107588000Y-65934122D01*
X107546688Y-65726434D01*
X107465652Y-65530797D01*
X107422362Y-65466009D01*
X108103638Y-65466009D01*
X108060348Y-65530797D01*
X107979312Y-65726434D01*
X107938000Y-65934122D01*
X107938000Y-66145878D01*
X107979312Y-66353566D01*
X108060348Y-66549203D01*
X108177993Y-66725272D01*
X108327728Y-66875007D01*
X108503797Y-66992652D01*
X108699434Y-67073688D01*
X108907122Y-67115000D01*
X109118878Y-67115000D01*
X109326566Y-67073688D01*
X109522203Y-66992652D01*
X109698272Y-66875007D01*
X109848007Y-66725272D01*
X109965652Y-66549203D01*
X110046688Y-66353566D01*
X110072178Y-66225420D01*
X131228206Y-66225420D01*
X131228206Y-68724780D01*
X131235446Y-68798293D01*
X131256889Y-68868980D01*
X131291711Y-68934127D01*
X131338572Y-68991228D01*
X131395673Y-69038089D01*
X131460820Y-69072911D01*
X131531507Y-69094354D01*
X131605020Y-69101594D01*
X134104380Y-69101594D01*
X134177893Y-69094354D01*
X134248580Y-69072911D01*
X134313727Y-69038089D01*
X134370828Y-68991228D01*
X134417689Y-68934127D01*
X134452511Y-68868980D01*
X134473954Y-68798293D01*
X134481194Y-68724780D01*
X134481194Y-66225420D01*
X134473954Y-66151907D01*
X134452511Y-66081220D01*
X134417689Y-66016073D01*
X134370828Y-65958972D01*
X134313727Y-65912111D01*
X134248580Y-65877289D01*
X134177893Y-65855846D01*
X134104380Y-65848606D01*
X131605020Y-65848606D01*
X131531507Y-65855846D01*
X131460820Y-65877289D01*
X131395673Y-65912111D01*
X131338572Y-65958972D01*
X131291711Y-66016073D01*
X131256889Y-66081220D01*
X131235446Y-66151907D01*
X131228206Y-66225420D01*
X110072178Y-66225420D01*
X110088000Y-66145878D01*
X110088000Y-65934122D01*
X110046688Y-65726434D01*
X109965652Y-65530797D01*
X109922362Y-65466009D01*
X133948504Y-65466009D01*
X134386544Y-65904050D01*
X134518762Y-66045867D01*
X134631544Y-66186151D01*
X134729723Y-66329649D01*
X134813797Y-66476589D01*
X134884234Y-66627367D01*
X134941412Y-66782512D01*
X134985560Y-66942623D01*
X135016763Y-67108371D01*
X135034928Y-67280332D01*
X135040020Y-67465460D01*
X135040020Y-67635117D01*
X135102456Y-67949002D01*
X135224927Y-68244675D01*
X135402729Y-68510773D01*
X135629027Y-68737071D01*
X135895125Y-68914873D01*
X136190798Y-69037344D01*
X136504683Y-69099780D01*
X136824717Y-69099780D01*
X137138602Y-69037344D01*
X137434275Y-68914873D01*
X137700373Y-68737071D01*
X137926671Y-68510773D01*
X138104473Y-68244675D01*
X138226944Y-67949002D01*
X138289380Y-67635117D01*
X138289380Y-67315083D01*
X138226944Y-67001198D01*
X138104473Y-66705525D01*
X137926671Y-66439427D01*
X137700373Y-66213129D01*
X137434275Y-66035327D01*
X137138602Y-65912856D01*
X136824717Y-65850420D01*
X136655060Y-65850420D01*
X136469932Y-65845328D01*
X136297971Y-65827163D01*
X136132223Y-65795960D01*
X135972112Y-65751812D01*
X135816967Y-65694634D01*
X135666189Y-65624197D01*
X135519249Y-65540123D01*
X135375751Y-65441944D01*
X135235467Y-65329162D01*
X135093650Y-65196944D01*
X134849205Y-64952500D01*
X138603895Y-64952500D01*
X142685002Y-69033609D01*
X142685002Y-69283178D01*
X142642887Y-69255038D01*
X142438150Y-69170233D01*
X142220803Y-69127000D01*
X141999197Y-69127000D01*
X141781850Y-69170233D01*
X141577113Y-69255038D01*
X141392855Y-69378156D01*
X141236156Y-69534855D01*
X141113038Y-69719113D01*
X141028233Y-69923850D01*
X140985000Y-70141197D01*
X140985000Y-70362803D01*
X141028233Y-70580150D01*
X141113038Y-70784887D01*
X141236156Y-70969145D01*
X141392855Y-71125844D01*
X141577113Y-71248962D01*
X141781850Y-71333767D01*
X141999197Y-71377000D01*
X142220803Y-71377000D01*
X142438150Y-71333767D01*
X142642887Y-71248962D01*
X142685002Y-71220822D01*
X142685002Y-71823178D01*
X142642887Y-71795038D01*
X142438150Y-71710233D01*
X142220803Y-71667000D01*
X141999197Y-71667000D01*
X141781850Y-71710233D01*
X141577113Y-71795038D01*
X141392855Y-71918156D01*
X141236156Y-72074855D01*
X141113038Y-72259113D01*
X141028233Y-72463850D01*
X140985000Y-72681197D01*
X140985000Y-72795700D01*
X140982536Y-72885101D01*
X140974292Y-72963027D01*
X140960281Y-73037364D01*
X140940583Y-73108725D01*
X140915126Y-73177738D01*
X140883653Y-73245055D01*
X140845809Y-73311155D01*
X140801113Y-73376452D01*
X140749071Y-73441167D01*
X140684852Y-73510042D01*
X140234895Y-73960000D01*
X131550402Y-73960000D01*
X131386524Y-73954261D01*
X131236463Y-73937957D01*
X131093461Y-73911147D01*
X130957026Y-73874026D01*
X130826525Y-73826639D01*
X130701372Y-73768901D01*
X130580898Y-73700514D01*
X130464637Y-73621098D01*
X130352214Y-73530163D01*
X130238541Y-73422576D01*
X130130258Y-73314293D01*
X129888675Y-73152872D01*
X129620242Y-73041683D01*
X129335275Y-72985000D01*
X129044725Y-72985000D01*
X128759758Y-73041683D01*
X128491325Y-73152872D01*
X128249742Y-73314293D01*
X128044293Y-73519742D01*
X127882872Y-73761325D01*
X127771683Y-74029758D01*
X127715000Y-74314725D01*
X127715000Y-74605275D01*
X127771683Y-74890242D01*
X127882872Y-75158675D01*
X128044293Y-75400258D01*
X128249742Y-75605707D01*
X128491325Y-75767128D01*
X128759758Y-75878317D01*
X129044725Y-75935000D01*
X129335275Y-75935000D01*
X129620242Y-75878317D01*
X129888675Y-75767128D01*
X130130258Y-75605707D01*
X130238541Y-75497424D01*
X130352214Y-75389837D01*
X130464637Y-75298902D01*
X130580898Y-75219486D01*
X130701372Y-75151099D01*
X130826525Y-75093361D01*
X130957026Y-75045974D01*
X131093461Y-75008853D01*
X131236463Y-74982043D01*
X131386524Y-74965739D01*
X131550402Y-74960000D01*
X131778188Y-74960000D01*
X131486026Y-75155217D01*
X131155217Y-75486026D01*
X130895302Y-75875015D01*
X130716270Y-76307238D01*
X130625000Y-76766083D01*
X130625000Y-77233917D01*
X130716270Y-77692762D01*
X130895302Y-78124985D01*
X131155217Y-78513974D01*
X131486026Y-78844783D01*
X131875015Y-79104698D01*
X132307238Y-79283730D01*
X132766083Y-79375000D01*
X133233917Y-79375000D01*
X133692762Y-79283730D01*
X134124985Y-79104698D01*
X134513974Y-78844783D01*
X134844783Y-78513974D01*
X135104698Y-78124985D01*
X135283730Y-77692762D01*
X135375000Y-77233917D01*
X135375000Y-76879348D01*
X136855000Y-76879348D01*
X136855000Y-77120652D01*
X136902076Y-77357319D01*
X136994419Y-77580255D01*
X137128481Y-77780892D01*
X137299108Y-77951519D01*
X137499745Y-78085581D01*
X137722681Y-78177924D01*
X137959348Y-78225000D01*
X138200652Y-78225000D01*
X138437319Y-78177924D01*
X138660255Y-78085581D01*
X138860892Y-77951519D01*
X139031519Y-77780892D01*
X139165581Y-77580255D01*
X139257924Y-77357319D01*
X139305000Y-77120652D01*
X139305000Y-76879348D01*
X139257924Y-76642681D01*
X139165581Y-76419745D01*
X139031519Y-76219108D01*
X138860892Y-76048481D01*
X138660255Y-75914419D01*
X138437319Y-75822076D01*
X138200652Y-75775000D01*
X137959348Y-75775000D01*
X137722681Y-75822076D01*
X137499745Y-75914419D01*
X137299108Y-76048481D01*
X137128481Y-76219108D01*
X136994419Y-76419745D01*
X136902076Y-76642681D01*
X136855000Y-76879348D01*
X135375000Y-76879348D01*
X135375000Y-76766083D01*
X135283730Y-76307238D01*
X135104698Y-75875015D01*
X134844783Y-75486026D01*
X134513974Y-75155217D01*
X134221812Y-74960000D01*
X140417440Y-74960000D01*
X140442000Y-74962419D01*
X140466560Y-74960000D01*
X140540017Y-74952765D01*
X140634267Y-74924175D01*
X140721129Y-74877746D01*
X140797264Y-74815264D01*
X140812929Y-74796176D01*
X141391962Y-74217143D01*
X141460832Y-74152928D01*
X141525547Y-74100886D01*
X141590844Y-74056190D01*
X141656947Y-74018344D01*
X141724252Y-73986878D01*
X141793281Y-73961414D01*
X141864635Y-73941718D01*
X141938972Y-73927707D01*
X142016898Y-73919463D01*
X142106294Y-73917000D01*
X142220803Y-73917000D01*
X142438150Y-73873767D01*
X142642887Y-73788962D01*
X142685002Y-73760822D01*
X142685002Y-74363178D01*
X142642887Y-74335038D01*
X142438150Y-74250233D01*
X142220803Y-74207000D01*
X141999197Y-74207000D01*
X141781850Y-74250233D01*
X141577113Y-74335038D01*
X141392855Y-74458156D01*
X141236156Y-74614855D01*
X141113038Y-74799113D01*
X141028233Y-75003850D01*
X140985000Y-75221197D01*
X140985000Y-75442803D01*
X140985156Y-75443585D01*
X140983448Y-75533182D01*
X140980033Y-75611638D01*
X140975115Y-75678344D01*
X140969084Y-75732205D01*
X140962684Y-75771720D01*
X140960684Y-75780416D01*
X140942256Y-75802870D01*
X140895827Y-75889732D01*
X140867236Y-75983982D01*
X140857582Y-76081999D01*
X140860002Y-76106568D01*
X140860001Y-76391655D01*
X135386533Y-81865123D01*
X135363305Y-81748349D01*
X135277596Y-81541429D01*
X135153165Y-81355205D01*
X134994795Y-81196835D01*
X134808571Y-81072404D01*
X134601651Y-80986695D01*
X134381985Y-80943000D01*
X134158015Y-80943000D01*
X133938349Y-80986695D01*
X133731429Y-81072404D01*
X133545205Y-81196835D01*
X133386835Y-81355205D01*
X133262404Y-81541429D01*
X133176695Y-81748349D01*
X133133000Y-81968015D01*
X133133000Y-82191985D01*
X133176695Y-82411651D01*
X133262404Y-82618571D01*
X133386835Y-82804795D01*
X133545205Y-82963165D01*
X133731429Y-83087596D01*
X133938349Y-83173305D01*
X134055123Y-83196533D01*
X131858819Y-85392838D01*
X131839736Y-85408499D01*
X131777254Y-85484634D01*
X131730825Y-85571496D01*
X131702234Y-85665746D01*
X131692580Y-85763763D01*
X131695000Y-85788333D01*
X131694999Y-87070278D01*
X131603844Y-86933855D01*
X131447145Y-86777156D01*
X131262887Y-86654038D01*
X131058150Y-86569233D01*
X130840803Y-86526000D01*
X130619197Y-86526000D01*
X130401850Y-86569233D01*
X130197113Y-86654038D01*
X130012855Y-86777156D01*
X129856156Y-86933855D01*
X129733038Y-87118113D01*
X129648233Y-87322850D01*
X129605000Y-87540197D01*
X129605000Y-87761803D01*
X129648233Y-87979150D01*
X129733038Y-88183887D01*
X129856156Y-88368145D01*
X130012855Y-88524844D01*
X130197113Y-88647962D01*
X130401850Y-88732767D01*
X130510514Y-88754382D01*
X119304897Y-99960000D01*
X105550402Y-99960000D01*
X105386524Y-99954261D01*
X105236463Y-99937957D01*
X105093461Y-99911147D01*
X104957026Y-99874026D01*
X104826525Y-99826639D01*
X104701372Y-99768901D01*
X104580898Y-99700514D01*
X104464637Y-99621098D01*
X104352214Y-99530163D01*
X104238541Y-99422576D01*
X104130258Y-99314293D01*
X103888675Y-99152872D01*
X103620242Y-99041683D01*
X103335275Y-98985000D01*
X103044725Y-98985000D01*
X102759758Y-99041683D01*
X102491325Y-99152872D01*
X102249742Y-99314293D01*
X102044293Y-99519742D01*
X101882872Y-99761325D01*
X101771683Y-100029758D01*
X101715000Y-100314725D01*
X90400000Y-100314725D01*
X90400000Y-97774725D01*
X108065000Y-97774725D01*
X108065000Y-98065275D01*
X108121683Y-98350242D01*
X108232872Y-98618675D01*
X108394293Y-98860258D01*
X108599742Y-99065707D01*
X108841325Y-99227128D01*
X109109758Y-99338317D01*
X109394725Y-99395000D01*
X109685275Y-99395000D01*
X109970242Y-99338317D01*
X110238675Y-99227128D01*
X110480258Y-99065707D01*
X110685707Y-98860258D01*
X110847128Y-98618675D01*
X110958317Y-98350242D01*
X111015000Y-98065275D01*
X111015000Y-97774725D01*
X110958317Y-97489758D01*
X110847128Y-97221325D01*
X110685707Y-96979742D01*
X110480258Y-96774293D01*
X110238675Y-96612872D01*
X109970242Y-96501683D01*
X109685275Y-96445000D01*
X109394725Y-96445000D01*
X109109758Y-96501683D01*
X108841325Y-96612872D01*
X108599742Y-96774293D01*
X108394293Y-96979742D01*
X108232872Y-97221325D01*
X108121683Y-97489758D01*
X108065000Y-97774725D01*
X90400000Y-97774725D01*
X90400000Y-95541197D01*
X120765000Y-95541197D01*
X120765000Y-95762803D01*
X120808233Y-95980150D01*
X120893038Y-96184887D01*
X121016156Y-96369145D01*
X121172855Y-96525844D01*
X121357113Y-96648962D01*
X121561850Y-96733767D01*
X121779197Y-96777000D01*
X122000803Y-96777000D01*
X122218150Y-96733767D01*
X122422887Y-96648962D01*
X122607145Y-96525844D01*
X122763844Y-96369145D01*
X122886962Y-96184887D01*
X122971767Y-95980150D01*
X123015000Y-95762803D01*
X123015000Y-95541197D01*
X122971767Y-95323850D01*
X122886962Y-95119113D01*
X122763844Y-94934855D01*
X122607145Y-94778156D01*
X122422887Y-94655038D01*
X122218150Y-94570233D01*
X122000803Y-94527000D01*
X121779197Y-94527000D01*
X121561850Y-94570233D01*
X121357113Y-94655038D01*
X121172855Y-94778156D01*
X121016156Y-94934855D01*
X120893038Y-95119113D01*
X120808233Y-95323850D01*
X120765000Y-95541197D01*
X90400000Y-95541197D01*
X90400000Y-93001197D01*
X120765000Y-93001197D01*
X120765000Y-93222803D01*
X120808233Y-93440150D01*
X120893038Y-93644887D01*
X121016156Y-93829145D01*
X121172855Y-93985844D01*
X121357113Y-94108962D01*
X121561850Y-94193767D01*
X121779197Y-94237000D01*
X122000803Y-94237000D01*
X122218150Y-94193767D01*
X122422887Y-94108962D01*
X122607145Y-93985844D01*
X122763844Y-93829145D01*
X122886962Y-93644887D01*
X122971767Y-93440150D01*
X123015000Y-93222803D01*
X123015000Y-93001197D01*
X122971767Y-92783850D01*
X122886962Y-92579113D01*
X122763844Y-92394855D01*
X122607145Y-92238156D01*
X122422887Y-92115038D01*
X122218150Y-92030233D01*
X122000803Y-91987000D01*
X121779197Y-91987000D01*
X121561850Y-92030233D01*
X121357113Y-92115038D01*
X121172855Y-92238156D01*
X121016156Y-92394855D01*
X120893038Y-92579113D01*
X120808233Y-92783850D01*
X120765000Y-93001197D01*
X90400000Y-93001197D01*
X90400000Y-91388092D01*
X121250684Y-91388092D01*
X121330744Y-91554412D01*
X121533149Y-91644641D01*
X121749268Y-91693649D01*
X121970795Y-91699552D01*
X122189216Y-91662124D01*
X122396140Y-91582803D01*
X122449256Y-91554412D01*
X122529316Y-91388092D01*
X121890000Y-90748777D01*
X121250684Y-91388092D01*
X90400000Y-91388092D01*
X90400000Y-90652795D01*
X120762448Y-90652795D01*
X120799876Y-90871216D01*
X120879197Y-91078140D01*
X120907588Y-91131256D01*
X121073908Y-91211316D01*
X121713223Y-90572000D01*
X122066777Y-90572000D01*
X122706092Y-91211316D01*
X122872412Y-91131256D01*
X122962641Y-90928851D01*
X123011649Y-90712732D01*
X123017552Y-90491205D01*
X122980124Y-90272784D01*
X122900803Y-90065860D01*
X122872412Y-90012744D01*
X122706092Y-89932684D01*
X122066777Y-90572000D01*
X121713223Y-90572000D01*
X121073908Y-89932684D01*
X120907588Y-90012744D01*
X120817359Y-90215149D01*
X120768351Y-90431268D01*
X120762448Y-90652795D01*
X90400000Y-90652795D01*
X90400000Y-89755908D01*
X121250684Y-89755908D01*
X121890000Y-90395223D01*
X122529316Y-89755908D01*
X122449256Y-89589588D01*
X122246851Y-89499359D01*
X122030732Y-89450351D01*
X121809205Y-89444448D01*
X121590784Y-89481876D01*
X121383860Y-89561197D01*
X121330744Y-89589588D01*
X121250684Y-89755908D01*
X90400000Y-89755908D01*
X90400000Y-88307515D01*
X103154500Y-88307515D01*
X103154500Y-88531485D01*
X103198195Y-88751151D01*
X103283904Y-88958071D01*
X103408335Y-89144295D01*
X103566705Y-89302665D01*
X103752929Y-89427096D01*
X103959849Y-89512805D01*
X104179515Y-89556500D01*
X104403485Y-89556500D01*
X104623151Y-89512805D01*
X104830071Y-89427096D01*
X105016295Y-89302665D01*
X105174665Y-89144295D01*
X105299096Y-88958071D01*
X105384805Y-88751151D01*
X105428500Y-88531485D01*
X105428500Y-88307515D01*
X105694500Y-88307515D01*
X105694500Y-88531485D01*
X105738195Y-88751151D01*
X105823904Y-88958071D01*
X105948335Y-89144295D01*
X106106705Y-89302665D01*
X106292929Y-89427096D01*
X106499849Y-89512805D01*
X106719515Y-89556500D01*
X106943485Y-89556500D01*
X107163151Y-89512805D01*
X107370071Y-89427096D01*
X107556295Y-89302665D01*
X107714665Y-89144295D01*
X107839096Y-88958071D01*
X107924805Y-88751151D01*
X107968500Y-88531485D01*
X107968500Y-88307515D01*
X108234500Y-88307515D01*
X108234500Y-88531485D01*
X108278195Y-88751151D01*
X108363904Y-88958071D01*
X108488335Y-89144295D01*
X108646705Y-89302665D01*
X108832929Y-89427096D01*
X109039849Y-89512805D01*
X109259515Y-89556500D01*
X109483485Y-89556500D01*
X109703151Y-89512805D01*
X109910071Y-89427096D01*
X110096295Y-89302665D01*
X110254665Y-89144295D01*
X110379096Y-88958071D01*
X110464805Y-88751151D01*
X110508500Y-88531485D01*
X110508500Y-88307515D01*
X110464805Y-88087849D01*
X110395776Y-87921197D01*
X120765000Y-87921197D01*
X120765000Y-88142803D01*
X120808233Y-88360150D01*
X120893038Y-88564887D01*
X121016156Y-88749145D01*
X121172855Y-88905844D01*
X121357113Y-89028962D01*
X121561850Y-89113767D01*
X121779197Y-89157000D01*
X122000803Y-89157000D01*
X122218150Y-89113767D01*
X122422887Y-89028962D01*
X122607145Y-88905844D01*
X122763844Y-88749145D01*
X122886962Y-88564887D01*
X122971767Y-88360150D01*
X123015000Y-88142803D01*
X123015000Y-87921197D01*
X122971767Y-87703850D01*
X122886962Y-87499113D01*
X122763844Y-87314855D01*
X122607145Y-87158156D01*
X122422887Y-87035038D01*
X122218150Y-86950233D01*
X122000803Y-86907000D01*
X121779197Y-86907000D01*
X121561850Y-86950233D01*
X121357113Y-87035038D01*
X121172855Y-87158156D01*
X121016156Y-87314855D01*
X120893038Y-87499113D01*
X120808233Y-87703850D01*
X120765000Y-87921197D01*
X110395776Y-87921197D01*
X110379096Y-87880929D01*
X110254665Y-87694705D01*
X110096295Y-87536335D01*
X109910071Y-87411904D01*
X109703151Y-87326195D01*
X109483485Y-87282500D01*
X109259515Y-87282500D01*
X109039849Y-87326195D01*
X108832929Y-87411904D01*
X108646705Y-87536335D01*
X108488335Y-87694705D01*
X108363904Y-87880929D01*
X108278195Y-88087849D01*
X108234500Y-88307515D01*
X107968500Y-88307515D01*
X107924805Y-88087849D01*
X107839096Y-87880929D01*
X107714665Y-87694705D01*
X107556295Y-87536335D01*
X107370071Y-87411904D01*
X107163151Y-87326195D01*
X106943485Y-87282500D01*
X106719515Y-87282500D01*
X106499849Y-87326195D01*
X106292929Y-87411904D01*
X106106705Y-87536335D01*
X105948335Y-87694705D01*
X105823904Y-87880929D01*
X105738195Y-88087849D01*
X105694500Y-88307515D01*
X105428500Y-88307515D01*
X105384805Y-88087849D01*
X105299096Y-87880929D01*
X105174665Y-87694705D01*
X105016295Y-87536335D01*
X104830071Y-87411904D01*
X104623151Y-87326195D01*
X104403485Y-87282500D01*
X104179515Y-87282500D01*
X103959849Y-87326195D01*
X103752929Y-87411904D01*
X103566705Y-87536335D01*
X103408335Y-87694705D01*
X103283904Y-87880929D01*
X103198195Y-88087849D01*
X103154500Y-88307515D01*
X90400000Y-88307515D01*
X90400000Y-85381197D01*
X120765000Y-85381197D01*
X120765000Y-85602803D01*
X120808233Y-85820150D01*
X120893038Y-86024887D01*
X121016156Y-86209145D01*
X121172855Y-86365844D01*
X121357113Y-86488962D01*
X121561850Y-86573767D01*
X121779197Y-86617000D01*
X122000803Y-86617000D01*
X122218150Y-86573767D01*
X122422887Y-86488962D01*
X122607145Y-86365844D01*
X122763844Y-86209145D01*
X122886962Y-86024887D01*
X122971767Y-85820150D01*
X123015000Y-85602803D01*
X123015000Y-85381197D01*
X122971767Y-85163850D01*
X122886962Y-84959113D01*
X122763844Y-84774855D01*
X122607145Y-84618156D01*
X122422887Y-84495038D01*
X122218150Y-84410233D01*
X122000803Y-84367000D01*
X121779197Y-84367000D01*
X121561850Y-84410233D01*
X121357113Y-84495038D01*
X121172855Y-84618156D01*
X121016156Y-84774855D01*
X120893038Y-84959113D01*
X120808233Y-85163850D01*
X120765000Y-85381197D01*
X90400000Y-85381197D01*
X90400000Y-81968015D01*
X104593000Y-81968015D01*
X104593000Y-82191985D01*
X104636695Y-82411651D01*
X104722404Y-82618571D01*
X104846835Y-82804795D01*
X105005205Y-82963165D01*
X105191429Y-83087596D01*
X105398349Y-83173305D01*
X105618015Y-83217000D01*
X105841985Y-83217000D01*
X106061651Y-83173305D01*
X106268571Y-83087596D01*
X106454795Y-82963165D01*
X106613165Y-82804795D01*
X106737596Y-82618571D01*
X106823305Y-82411651D01*
X106867000Y-82191985D01*
X106867000Y-81968015D01*
X107133000Y-81968015D01*
X107133000Y-82191985D01*
X107176695Y-82411651D01*
X107262404Y-82618571D01*
X107386835Y-82804795D01*
X107545205Y-82963165D01*
X107731429Y-83087596D01*
X107938349Y-83173305D01*
X108158015Y-83217000D01*
X108381985Y-83217000D01*
X108601651Y-83173305D01*
X108808571Y-83087596D01*
X108994795Y-82963165D01*
X109116763Y-82841197D01*
X120765000Y-82841197D01*
X120765000Y-83062803D01*
X120808233Y-83280150D01*
X120893038Y-83484887D01*
X121016156Y-83669145D01*
X121172855Y-83825844D01*
X121357113Y-83948962D01*
X121561850Y-84033767D01*
X121779197Y-84077000D01*
X122000803Y-84077000D01*
X122218150Y-84033767D01*
X122422887Y-83948962D01*
X122607145Y-83825844D01*
X122763844Y-83669145D01*
X122886962Y-83484887D01*
X122971767Y-83280150D01*
X123015000Y-83062803D01*
X123015000Y-82841197D01*
X122971767Y-82623850D01*
X122886962Y-82419113D01*
X122763844Y-82234855D01*
X122607145Y-82078156D01*
X122442309Y-81968015D01*
X130593000Y-81968015D01*
X130593000Y-82191985D01*
X130636695Y-82411651D01*
X130722404Y-82618571D01*
X130846835Y-82804795D01*
X131005205Y-82963165D01*
X131191429Y-83087596D01*
X131398349Y-83173305D01*
X131618015Y-83217000D01*
X131841985Y-83217000D01*
X132061651Y-83173305D01*
X132268571Y-83087596D01*
X132454795Y-82963165D01*
X132613165Y-82804795D01*
X132737596Y-82618571D01*
X132823305Y-82411651D01*
X132867000Y-82191985D01*
X132867000Y-81968015D01*
X132823305Y-81748349D01*
X132737596Y-81541429D01*
X132613165Y-81355205D01*
X132454795Y-81196835D01*
X132268571Y-81072404D01*
X132061651Y-80986695D01*
X131841985Y-80943000D01*
X131618015Y-80943000D01*
X131398349Y-80986695D01*
X131191429Y-81072404D01*
X131005205Y-81196835D01*
X130846835Y-81355205D01*
X130722404Y-81541429D01*
X130636695Y-81748349D01*
X130593000Y-81968015D01*
X122442309Y-81968015D01*
X122422887Y-81955038D01*
X122218150Y-81870233D01*
X122000803Y-81827000D01*
X121779197Y-81827000D01*
X121561850Y-81870233D01*
X121357113Y-81955038D01*
X121172855Y-82078156D01*
X121016156Y-82234855D01*
X120893038Y-82419113D01*
X120808233Y-82623850D01*
X120765000Y-82841197D01*
X109116763Y-82841197D01*
X109153165Y-82804795D01*
X109277596Y-82618571D01*
X109363305Y-82411651D01*
X109407000Y-82191985D01*
X109407000Y-81968015D01*
X109363305Y-81748349D01*
X109277596Y-81541429D01*
X109153165Y-81355205D01*
X108994795Y-81196835D01*
X108808571Y-81072404D01*
X108601651Y-80986695D01*
X108381985Y-80943000D01*
X108158015Y-80943000D01*
X107938349Y-80986695D01*
X107731429Y-81072404D01*
X107545205Y-81196835D01*
X107386835Y-81355205D01*
X107262404Y-81541429D01*
X107176695Y-81748349D01*
X107133000Y-81968015D01*
X106867000Y-81968015D01*
X106823305Y-81748349D01*
X106737596Y-81541429D01*
X106613165Y-81355205D01*
X106454795Y-81196835D01*
X106268571Y-81072404D01*
X106061651Y-80986695D01*
X105841985Y-80943000D01*
X105618015Y-80943000D01*
X105398349Y-80986695D01*
X105191429Y-81072404D01*
X105005205Y-81196835D01*
X104846835Y-81355205D01*
X104722404Y-81541429D01*
X104636695Y-81748349D01*
X104593000Y-81968015D01*
X90400000Y-81968015D01*
X90400000Y-80301197D01*
X120765000Y-80301197D01*
X120765000Y-80522803D01*
X120808233Y-80740150D01*
X120893038Y-80944887D01*
X121016156Y-81129145D01*
X121172855Y-81285844D01*
X121357113Y-81408962D01*
X121561850Y-81493767D01*
X121779197Y-81537000D01*
X122000803Y-81537000D01*
X122218150Y-81493767D01*
X122422887Y-81408962D01*
X122607145Y-81285844D01*
X122763844Y-81129145D01*
X122886962Y-80944887D01*
X122971767Y-80740150D01*
X123015000Y-80522803D01*
X123015000Y-80301197D01*
X122971767Y-80083850D01*
X122886962Y-79879113D01*
X122763844Y-79694855D01*
X122607145Y-79538156D01*
X122422887Y-79415038D01*
X122218150Y-79330233D01*
X122000803Y-79287000D01*
X121779197Y-79287000D01*
X121561850Y-79330233D01*
X121357113Y-79415038D01*
X121172855Y-79538156D01*
X121016156Y-79694855D01*
X120893038Y-79879113D01*
X120808233Y-80083850D01*
X120765000Y-80301197D01*
X90400000Y-80301197D01*
X90400000Y-76879348D01*
X100695000Y-76879348D01*
X100695000Y-77120652D01*
X100742076Y-77357319D01*
X100834419Y-77580255D01*
X100968481Y-77780892D01*
X101139108Y-77951519D01*
X101339745Y-78085581D01*
X101562681Y-78177924D01*
X101799348Y-78225000D01*
X102040652Y-78225000D01*
X102277319Y-78177924D01*
X102500255Y-78085581D01*
X102700892Y-77951519D01*
X102871519Y-77780892D01*
X103005581Y-77580255D01*
X103097924Y-77357319D01*
X103145000Y-77120652D01*
X103145000Y-76879348D01*
X103097924Y-76642681D01*
X103005581Y-76419745D01*
X102871519Y-76219108D01*
X102700892Y-76048481D01*
X102500255Y-75914419D01*
X102277319Y-75822076D01*
X102040652Y-75775000D01*
X101799348Y-75775000D01*
X101562681Y-75822076D01*
X101339745Y-75914419D01*
X101139108Y-76048481D01*
X100968481Y-76219108D01*
X100834419Y-76419745D01*
X100742076Y-76642681D01*
X100695000Y-76879348D01*
X90400000Y-76879348D01*
X90400000Y-74314725D01*
X101715000Y-74314725D01*
X101715000Y-74605275D01*
X101771683Y-74890242D01*
X101882872Y-75158675D01*
X102044293Y-75400258D01*
X102249742Y-75605707D01*
X102491325Y-75767128D01*
X102759758Y-75878317D01*
X103044725Y-75935000D01*
X103335275Y-75935000D01*
X103620242Y-75878317D01*
X103888675Y-75767128D01*
X104130258Y-75605707D01*
X104238541Y-75497424D01*
X104352214Y-75389837D01*
X104464637Y-75298902D01*
X104580898Y-75219486D01*
X104701372Y-75151099D01*
X104826525Y-75093361D01*
X104957026Y-75045974D01*
X105093461Y-75008853D01*
X105236463Y-74982043D01*
X105386524Y-74965739D01*
X105550402Y-74960000D01*
X105778188Y-74960000D01*
X105486026Y-75155217D01*
X105155217Y-75486026D01*
X104895302Y-75875015D01*
X104716270Y-76307238D01*
X104625000Y-76766083D01*
X104625000Y-77233917D01*
X104716270Y-77692762D01*
X104895302Y-78124985D01*
X105155217Y-78513974D01*
X105486026Y-78844783D01*
X105875015Y-79104698D01*
X106307238Y-79283730D01*
X106766083Y-79375000D01*
X107233917Y-79375000D01*
X107692762Y-79283730D01*
X108124985Y-79104698D01*
X108513974Y-78844783D01*
X108844783Y-78513974D01*
X109104698Y-78124985D01*
X109283730Y-77692762D01*
X109375000Y-77233917D01*
X109375000Y-76879348D01*
X110855000Y-76879348D01*
X110855000Y-77120652D01*
X110902076Y-77357319D01*
X110994419Y-77580255D01*
X111128481Y-77780892D01*
X111299108Y-77951519D01*
X111499745Y-78085581D01*
X111722681Y-78177924D01*
X111959348Y-78225000D01*
X112200652Y-78225000D01*
X112437319Y-78177924D01*
X112660255Y-78085581D01*
X112860892Y-77951519D01*
X113031519Y-77780892D01*
X113165581Y-77580255D01*
X113257924Y-77357319D01*
X113305000Y-77120652D01*
X113305000Y-76879348D01*
X113257924Y-76642681D01*
X113165581Y-76419745D01*
X113031519Y-76219108D01*
X112860892Y-76048481D01*
X112660255Y-75914419D01*
X112437319Y-75822076D01*
X112200652Y-75775000D01*
X111959348Y-75775000D01*
X111722681Y-75822076D01*
X111499745Y-75914419D01*
X111299108Y-76048481D01*
X111128481Y-76219108D01*
X110994419Y-76419745D01*
X110902076Y-76642681D01*
X110855000Y-76879348D01*
X109375000Y-76879348D01*
X109375000Y-76766083D01*
X109283730Y-76307238D01*
X109104698Y-75875015D01*
X108844783Y-75486026D01*
X108513974Y-75155217D01*
X108221812Y-74960000D01*
X118270895Y-74960000D01*
X120464877Y-77153983D01*
X120529065Y-77222825D01*
X120581113Y-77287547D01*
X120625809Y-77352844D01*
X120663653Y-77418944D01*
X120695126Y-77486261D01*
X120720583Y-77555274D01*
X120740281Y-77626635D01*
X120754292Y-77700972D01*
X120762536Y-77778898D01*
X120765000Y-77868300D01*
X120765000Y-77982803D01*
X120808233Y-78200150D01*
X120893038Y-78404887D01*
X121016156Y-78589145D01*
X121172855Y-78745844D01*
X121357113Y-78868962D01*
X121561850Y-78953767D01*
X121779197Y-78997000D01*
X122000803Y-78997000D01*
X122218150Y-78953767D01*
X122422887Y-78868962D01*
X122607145Y-78745844D01*
X122763844Y-78589145D01*
X122886962Y-78404887D01*
X122971767Y-78200150D01*
X123015000Y-77982803D01*
X123015000Y-77761197D01*
X122971767Y-77543850D01*
X122886962Y-77339113D01*
X122763844Y-77154855D01*
X122607145Y-76998156D01*
X122429338Y-76879348D01*
X126695000Y-76879348D01*
X126695000Y-77120652D01*
X126742076Y-77357319D01*
X126834419Y-77580255D01*
X126968481Y-77780892D01*
X127139108Y-77951519D01*
X127339745Y-78085581D01*
X127562681Y-78177924D01*
X127799348Y-78225000D01*
X128040652Y-78225000D01*
X128277319Y-78177924D01*
X128500255Y-78085581D01*
X128700892Y-77951519D01*
X128871519Y-77780892D01*
X129005581Y-77580255D01*
X129097924Y-77357319D01*
X129145000Y-77120652D01*
X129145000Y-76879348D01*
X129097924Y-76642681D01*
X129005581Y-76419745D01*
X128871519Y-76219108D01*
X128700892Y-76048481D01*
X128500255Y-75914419D01*
X128277319Y-75822076D01*
X128040652Y-75775000D01*
X127799348Y-75775000D01*
X127562681Y-75822076D01*
X127339745Y-75914419D01*
X127139108Y-76048481D01*
X126968481Y-76219108D01*
X126834419Y-76419745D01*
X126742076Y-76642681D01*
X126695000Y-76879348D01*
X122429338Y-76879348D01*
X122422887Y-76875038D01*
X122218150Y-76790233D01*
X122000803Y-76747000D01*
X121886300Y-76747000D01*
X121796898Y-76744536D01*
X121718972Y-76736292D01*
X121644635Y-76722281D01*
X121573274Y-76702583D01*
X121504261Y-76677126D01*
X121436944Y-76645653D01*
X121370844Y-76607809D01*
X121305547Y-76563113D01*
X121240825Y-76511065D01*
X121171983Y-76446877D01*
X118848929Y-74123824D01*
X118833264Y-74104736D01*
X118757129Y-74042254D01*
X118670267Y-73995825D01*
X118576017Y-73967235D01*
X118502560Y-73960000D01*
X118478000Y-73957581D01*
X118453440Y-73960000D01*
X105550402Y-73960000D01*
X105386524Y-73954261D01*
X105236463Y-73937957D01*
X105093461Y-73911147D01*
X104957026Y-73874026D01*
X104826525Y-73826639D01*
X104701372Y-73768901D01*
X104580898Y-73700514D01*
X104464637Y-73621098D01*
X104352214Y-73530163D01*
X104238541Y-73422576D01*
X104130258Y-73314293D01*
X103888675Y-73152872D01*
X103620242Y-73041683D01*
X103335275Y-72985000D01*
X103044725Y-72985000D01*
X102759758Y-73041683D01*
X102491325Y-73152872D01*
X102249742Y-73314293D01*
X102044293Y-73519742D01*
X101882872Y-73761325D01*
X101771683Y-74029758D01*
X101715000Y-74314725D01*
X90400000Y-74314725D01*
X90400000Y-71774725D01*
X108065000Y-71774725D01*
X108065000Y-72065275D01*
X108121683Y-72350242D01*
X108232872Y-72618675D01*
X108394293Y-72860258D01*
X108599742Y-73065707D01*
X108841325Y-73227128D01*
X109109758Y-73338317D01*
X109394725Y-73395000D01*
X109685275Y-73395000D01*
X109970242Y-73338317D01*
X110238675Y-73227128D01*
X110480258Y-73065707D01*
X110685707Y-72860258D01*
X110847128Y-72618675D01*
X110958317Y-72350242D01*
X111015000Y-72065275D01*
X111015000Y-71774725D01*
X110958317Y-71489758D01*
X110847128Y-71221325D01*
X110685707Y-70979742D01*
X110480258Y-70774293D01*
X110238675Y-70612872D01*
X109970242Y-70501683D01*
X109685275Y-70445000D01*
X109394725Y-70445000D01*
X109109758Y-70501683D01*
X108841325Y-70612872D01*
X108599742Y-70774293D01*
X108394293Y-70979742D01*
X108232872Y-71221325D01*
X108121683Y-71489758D01*
X108065000Y-71774725D01*
X90400000Y-71774725D01*
X90400000Y-67014841D01*
X90473586Y-66024622D01*
X90689444Y-65070667D01*
X90853851Y-64647893D01*
X91425000Y-64647893D01*
X91425000Y-65352107D01*
X91562385Y-66042789D01*
X91831876Y-66693398D01*
X92223116Y-67278930D01*
X92721070Y-67776884D01*
X93306602Y-68168124D01*
X93957211Y-68437615D01*
X94647893Y-68575000D01*
X95352107Y-68575000D01*
X95402375Y-68565001D01*
X120312580Y-68565001D01*
X120314999Y-68589561D01*
X120315000Y-74232429D01*
X120312580Y-74256999D01*
X120322234Y-74355016D01*
X120339302Y-74411279D01*
X120350825Y-74449266D01*
X120397254Y-74536128D01*
X120459736Y-74612263D01*
X120474799Y-74624625D01*
X120529065Y-74682825D01*
X120581113Y-74747547D01*
X120625809Y-74812844D01*
X120663653Y-74878944D01*
X120695126Y-74946261D01*
X120720583Y-75015274D01*
X120740281Y-75086635D01*
X120754292Y-75160972D01*
X120762536Y-75238898D01*
X120765000Y-75328300D01*
X120765000Y-75442803D01*
X120808233Y-75660150D01*
X120893038Y-75864887D01*
X121016156Y-76049145D01*
X121172855Y-76205844D01*
X121357113Y-76328962D01*
X121561850Y-76413767D01*
X121779197Y-76457000D01*
X122000803Y-76457000D01*
X122218150Y-76413767D01*
X122422887Y-76328962D01*
X122607145Y-76205844D01*
X122763844Y-76049145D01*
X122886962Y-75864887D01*
X122971767Y-75660150D01*
X123015000Y-75442803D01*
X123015000Y-75221197D01*
X122971767Y-75003850D01*
X122886962Y-74799113D01*
X122763844Y-74614855D01*
X122607145Y-74458156D01*
X122422887Y-74335038D01*
X122218150Y-74250233D01*
X122000803Y-74207000D01*
X121886300Y-74207000D01*
X121796898Y-74204536D01*
X121718972Y-74196292D01*
X121644635Y-74182281D01*
X121573274Y-74162583D01*
X121504261Y-74137126D01*
X121436944Y-74105653D01*
X121370844Y-74067809D01*
X121314999Y-74029583D01*
X121314999Y-73760822D01*
X121357113Y-73788962D01*
X121561850Y-73873767D01*
X121779197Y-73917000D01*
X122000803Y-73917000D01*
X122218150Y-73873767D01*
X122422887Y-73788962D01*
X122607145Y-73665844D01*
X122763844Y-73509145D01*
X122886962Y-73324887D01*
X122971767Y-73120150D01*
X123015000Y-72902803D01*
X123015000Y-72681197D01*
X122971767Y-72463850D01*
X122886962Y-72259113D01*
X122763844Y-72074855D01*
X122607145Y-71918156D01*
X122422887Y-71795038D01*
X122373848Y-71774725D01*
X134065000Y-71774725D01*
X134065000Y-72065275D01*
X134121683Y-72350242D01*
X134232872Y-72618675D01*
X134394293Y-72860258D01*
X134599742Y-73065707D01*
X134841325Y-73227128D01*
X135109758Y-73338317D01*
X135394725Y-73395000D01*
X135685275Y-73395000D01*
X135970242Y-73338317D01*
X136238675Y-73227128D01*
X136480258Y-73065707D01*
X136685707Y-72860258D01*
X136847128Y-72618675D01*
X136958317Y-72350242D01*
X137015000Y-72065275D01*
X137015000Y-71774725D01*
X136958317Y-71489758D01*
X136847128Y-71221325D01*
X136685707Y-70979742D01*
X136480258Y-70774293D01*
X136238675Y-70612872D01*
X135970242Y-70501683D01*
X135685275Y-70445000D01*
X135394725Y-70445000D01*
X135109758Y-70501683D01*
X134841325Y-70612872D01*
X134599742Y-70774293D01*
X134394293Y-70979742D01*
X134232872Y-71221325D01*
X134121683Y-71489758D01*
X134065000Y-71774725D01*
X122373848Y-71774725D01*
X122218150Y-71710233D01*
X122000803Y-71667000D01*
X121779197Y-71667000D01*
X121561850Y-71710233D01*
X121357113Y-71795038D01*
X121314999Y-71823178D01*
X121314999Y-71220822D01*
X121357113Y-71248962D01*
X121561850Y-71333767D01*
X121779197Y-71377000D01*
X122000803Y-71377000D01*
X122218150Y-71333767D01*
X122422887Y-71248962D01*
X122607145Y-71125844D01*
X122763844Y-70969145D01*
X122886962Y-70784887D01*
X122971767Y-70580150D01*
X123015000Y-70362803D01*
X123015000Y-70141197D01*
X122971767Y-69923850D01*
X122886962Y-69719113D01*
X122763844Y-69534855D01*
X122607145Y-69378156D01*
X122422887Y-69255038D01*
X122218150Y-69170233D01*
X122000803Y-69127000D01*
X121779197Y-69127000D01*
X121561850Y-69170233D01*
X121357113Y-69255038D01*
X121314999Y-69283178D01*
X121314999Y-68772106D01*
X122250920Y-67836187D01*
X122297746Y-67779129D01*
X122344174Y-67692268D01*
X122372765Y-67598017D01*
X122382419Y-67500000D01*
X122372765Y-67401983D01*
X122344174Y-67307732D01*
X122297746Y-67220871D01*
X122235263Y-67144737D01*
X122159129Y-67082254D01*
X122072268Y-67035826D01*
X121978017Y-67007235D01*
X121880000Y-66997581D01*
X121781983Y-67007235D01*
X121687732Y-67035826D01*
X121600871Y-67082254D01*
X121543813Y-67129080D01*
X120478823Y-68194072D01*
X120459735Y-68209737D01*
X120397253Y-68285872D01*
X120350824Y-68372735D01*
X120339898Y-68408755D01*
X120322234Y-68466984D01*
X120312580Y-68565001D01*
X95402375Y-68565001D01*
X96042789Y-68437615D01*
X96693398Y-68168124D01*
X97278930Y-67776884D01*
X97776884Y-67278930D01*
X98168124Y-66693398D01*
X98437615Y-66042789D01*
X98575000Y-65352107D01*
X98575000Y-64647893D01*
X98437615Y-63957211D01*
X98168124Y-63306602D01*
X97776884Y-62721070D01*
X97278930Y-62223116D01*
X96693398Y-61831876D01*
X96042789Y-61562385D01*
X95352107Y-61425000D01*
X94647893Y-61425000D01*
X93957211Y-61562385D01*
X93306602Y-61831876D01*
X92721070Y-62223116D01*
X92223116Y-62721070D01*
X91831876Y-63306602D01*
X91562385Y-63957211D01*
X91425000Y-64647893D01*
X90853851Y-64647893D01*
X91043933Y-64159101D01*
X91529264Y-63309948D01*
X92134787Y-62541846D01*
X92847179Y-61871694D01*
X93650807Y-61314197D01*
X94528009Y-60881609D01*
X95459512Y-60583433D01*
X96430924Y-60425227D01*
X97008721Y-60400000D01*
X142985159Y-60400000D01*
X143975378Y-60473586D01*
G37*
X143975378Y-60473586D02*
X144929333Y-60689444D01*
X145840899Y-61043933D01*
X146690052Y-61529264D01*
X147458154Y-62134787D01*
X148128306Y-62847179D01*
X148685803Y-63650807D01*
X149118391Y-64528009D01*
X149416567Y-65459512D01*
X149574773Y-66430924D01*
X149600001Y-67008744D01*
X149600000Y-112985159D01*
X149526414Y-113975378D01*
X149310556Y-114929333D01*
X148956068Y-115840897D01*
X148470736Y-116690052D01*
X147865213Y-117458154D01*
X147152825Y-118128303D01*
X146349193Y-118685803D01*
X145471991Y-119118391D01*
X144540487Y-119416567D01*
X143569069Y-119574773D01*
X142991278Y-119600000D01*
X140884537Y-119600000D01*
X141044302Y-119514605D01*
X141192765Y-119392765D01*
X141314605Y-119244302D01*
X141405140Y-119074921D01*
X141460892Y-118891132D01*
X141475000Y-118747891D01*
X141475000Y-117952108D01*
X141460892Y-117808867D01*
X141405140Y-117625079D01*
X141314605Y-117455698D01*
X141192765Y-117307235D01*
X141044302Y-117185395D01*
X140874920Y-117094860D01*
X140691132Y-117039108D01*
X140500000Y-117020283D01*
X140308867Y-117039108D01*
X140125079Y-117094860D01*
X139955698Y-117185395D01*
X139807235Y-117307235D01*
X139685395Y-117455698D01*
X139594860Y-117625080D01*
X139539108Y-117808868D01*
X139525000Y-117952109D01*
X139525000Y-118747892D01*
X139539108Y-118891133D01*
X139594861Y-119074921D01*
X139685396Y-119244302D01*
X139807236Y-119392765D01*
X139955699Y-119514605D01*
X140115464Y-119600000D01*
X133884536Y-119600000D01*
X134044302Y-119514605D01*
X134192765Y-119392765D01*
X134314605Y-119244302D01*
X134405140Y-119074921D01*
X134460892Y-118891133D01*
X134475000Y-118747892D01*
X134475000Y-117952109D01*
X134460892Y-117808868D01*
X134405140Y-117625079D01*
X134314605Y-117455698D01*
X134192765Y-117307235D01*
X134044302Y-117185395D01*
X133874921Y-117094860D01*
X133691133Y-117039108D01*
X133500000Y-117020283D01*
X133308868Y-117039108D01*
X133125080Y-117094860D01*
X132955699Y-117185395D01*
X132807236Y-117307235D01*
X132685396Y-117455698D01*
X132594861Y-117625079D01*
X132539108Y-117808867D01*
X132525000Y-117952108D01*
X132525000Y-118747891D01*
X132539108Y-118891132D01*
X132594860Y-119074920D01*
X132685395Y-119244302D01*
X132807235Y-119392765D01*
X132955698Y-119514605D01*
X133115463Y-119600000D01*
X97014841Y-119600000D01*
X96024622Y-119526414D01*
X95070667Y-119310556D01*
X94159103Y-118956068D01*
X93309948Y-118470736D01*
X92541846Y-117865213D01*
X91871697Y-117152825D01*
X91314197Y-116349193D01*
X90881609Y-115471991D01*
X90617814Y-114647893D01*
X91425000Y-114647893D01*
X91425000Y-115352107D01*
X91562385Y-116042789D01*
X91831876Y-116693398D01*
X92223116Y-117278930D01*
X92721070Y-117776884D01*
X93306602Y-118168124D01*
X93957211Y-118437615D01*
X94647893Y-118575000D01*
X95352107Y-118575000D01*
X96042789Y-118437615D01*
X96693398Y-118168124D01*
X97278930Y-117776884D01*
X97776884Y-117278930D01*
X98168124Y-116693398D01*
X98437615Y-116042789D01*
X98575000Y-115352107D01*
X98575000Y-114647893D01*
X98437615Y-113957211D01*
X98168124Y-113306602D01*
X97776884Y-112721070D01*
X97278930Y-112223116D01*
X96693398Y-111831876D01*
X96042789Y-111562385D01*
X95352107Y-111425000D01*
X94647893Y-111425000D01*
X93957211Y-111562385D01*
X93306602Y-111831876D01*
X92721070Y-112223116D01*
X92223116Y-112721070D01*
X91831876Y-113306602D01*
X91562385Y-113957211D01*
X91425000Y-114647893D01*
X90617814Y-114647893D01*
X90583433Y-114540487D01*
X90425227Y-113569069D01*
X90400000Y-112991278D01*
X90400000Y-107968015D01*
X104593000Y-107968015D01*
X104593000Y-108191985D01*
X104636695Y-108411651D01*
X104722404Y-108618571D01*
X104846835Y-108804795D01*
X105005205Y-108963165D01*
X105191429Y-109087596D01*
X105398349Y-109173305D01*
X105618015Y-109217000D01*
X105841985Y-109217000D01*
X106061651Y-109173305D01*
X106268571Y-109087596D01*
X106454795Y-108963165D01*
X106613165Y-108804795D01*
X106737596Y-108618571D01*
X106823305Y-108411651D01*
X106867000Y-108191985D01*
X106867000Y-107968015D01*
X107133000Y-107968015D01*
X107133000Y-108191985D01*
X107176695Y-108411651D01*
X107262404Y-108618571D01*
X107386835Y-108804795D01*
X107545205Y-108963165D01*
X107731429Y-109087596D01*
X107938349Y-109173305D01*
X108158015Y-109217000D01*
X108381985Y-109217000D01*
X108601651Y-109173305D01*
X108808571Y-109087596D01*
X108994795Y-108963165D01*
X109153165Y-108804795D01*
X109277596Y-108618571D01*
X109363305Y-108411651D01*
X109407000Y-108191985D01*
X109407000Y-107968015D01*
X109363305Y-107748349D01*
X109277596Y-107541429D01*
X109153165Y-107355205D01*
X108994795Y-107196835D01*
X108808571Y-107072404D01*
X108601651Y-106986695D01*
X108381985Y-106943000D01*
X108158015Y-106943000D01*
X107938349Y-106986695D01*
X107731429Y-107072404D01*
X107545205Y-107196835D01*
X107386835Y-107355205D01*
X107262404Y-107541429D01*
X107176695Y-107748349D01*
X107133000Y-107968015D01*
X106867000Y-107968015D01*
X106823305Y-107748349D01*
X106737596Y-107541429D01*
X106613165Y-107355205D01*
X106454795Y-107196835D01*
X106268571Y-107072404D01*
X106061651Y-106986695D01*
X105841985Y-106943000D01*
X105618015Y-106943000D01*
X105398349Y-106986695D01*
X105191429Y-107072404D01*
X105005205Y-107196835D01*
X104846835Y-107355205D01*
X104722404Y-107541429D01*
X104636695Y-107748349D01*
X104593000Y-107968015D01*
X90400000Y-107968015D01*
X90400000Y-105322515D01*
X91269500Y-105322515D01*
X91269500Y-105546485D01*
X91313195Y-105766151D01*
X91398904Y-105973071D01*
X91523335Y-106159295D01*
X91681705Y-106317665D01*
X91867929Y-106442096D01*
X92074849Y-106527805D01*
X92294515Y-106571500D01*
X92518485Y-106571500D01*
X92738151Y-106527805D01*
X92945071Y-106442096D01*
X93131295Y-106317665D01*
X93289665Y-106159295D01*
X93414096Y-105973071D01*
X93499805Y-105766151D01*
X93543500Y-105546485D01*
X93543500Y-105322515D01*
X93809500Y-105322515D01*
X93809500Y-105546485D01*
X93853195Y-105766151D01*
X93938904Y-105973071D01*
X94063335Y-106159295D01*
X94221705Y-106317665D01*
X94407929Y-106442096D01*
X94614849Y-106527805D01*
X94834515Y-106571500D01*
X95058485Y-106571500D01*
X95278151Y-106527805D01*
X95485071Y-106442096D01*
X95671295Y-106317665D01*
X95829665Y-106159295D01*
X95954096Y-105973071D01*
X96039805Y-105766151D01*
X96083500Y-105546485D01*
X96083500Y-105322515D01*
X96039805Y-105102849D01*
X95954096Y-104895929D01*
X95829665Y-104709705D01*
X95671295Y-104551335D01*
X95485071Y-104426904D01*
X95278151Y-104341195D01*
X95058485Y-104297500D01*
X94834515Y-104297500D01*
X94614849Y-104341195D01*
X94407929Y-104426904D01*
X94221705Y-104551335D01*
X94063335Y-104709705D01*
X93938904Y-104895929D01*
X93853195Y-105102849D01*
X93809500Y-105322515D01*
X93543500Y-105322515D01*
X93499805Y-105102849D01*
X93414096Y-104895929D01*
X93289665Y-104709705D01*
X93131295Y-104551335D01*
X92945071Y-104426904D01*
X92738151Y-104341195D01*
X92518485Y-104297500D01*
X92294515Y-104297500D01*
X92074849Y-104341195D01*
X91867929Y-104426904D01*
X91681705Y-104551335D01*
X91523335Y-104709705D01*
X91398904Y-104895929D01*
X91313195Y-105102849D01*
X91269500Y-105322515D01*
X90400000Y-105322515D01*
X90400000Y-102879348D01*
X100695000Y-102879348D01*
X100695000Y-103120652D01*
X100742076Y-103357319D01*
X100834419Y-103580255D01*
X100968481Y-103780892D01*
X101139108Y-103951519D01*
X101339745Y-104085581D01*
X101562681Y-104177924D01*
X101799348Y-104225000D01*
X102040652Y-104225000D01*
X102277319Y-104177924D01*
X102500255Y-104085581D01*
X102700892Y-103951519D01*
X102871519Y-103780892D01*
X103005581Y-103580255D01*
X103097924Y-103357319D01*
X103145000Y-103120652D01*
X103145000Y-102879348D01*
X103097924Y-102642681D01*
X103005581Y-102419745D01*
X102871519Y-102219108D01*
X102700892Y-102048481D01*
X102500255Y-101914419D01*
X102277319Y-101822076D01*
X102040652Y-101775000D01*
X101799348Y-101775000D01*
X101562681Y-101822076D01*
X101339745Y-101914419D01*
X101139108Y-102048481D01*
X100968481Y-102219108D01*
X100834419Y-102419745D01*
X100742076Y-102642681D01*
X100695000Y-102879348D01*
X90400000Y-102879348D01*
X90400000Y-100314725D01*
X101715000Y-100314725D01*
X101715000Y-100605275D01*
X101771683Y-100890242D01*
X101882872Y-101158675D01*
X102044293Y-101400258D01*
X102249742Y-101605707D01*
X102491325Y-101767128D01*
X102759758Y-101878317D01*
X103044725Y-101935000D01*
X103335275Y-101935000D01*
X103620242Y-101878317D01*
X103888675Y-101767128D01*
X104130258Y-101605707D01*
X104238541Y-101497424D01*
X104352214Y-101389837D01*
X104464637Y-101298902D01*
X104580898Y-101219486D01*
X104701372Y-101151099D01*
X104826525Y-101093361D01*
X104957026Y-101045974D01*
X105093461Y-101008853D01*
X105236463Y-100982043D01*
X105386524Y-100965739D01*
X105550402Y-100960000D01*
X105778188Y-100960000D01*
X105486026Y-101155217D01*
X105155217Y-101486026D01*
X104895302Y-101875015D01*
X104716270Y-102307238D01*
X104625000Y-102766083D01*
X104625000Y-103233917D01*
X104716270Y-103692762D01*
X104895302Y-104124985D01*
X105155217Y-104513974D01*
X105486026Y-104844783D01*
X105875015Y-105104698D01*
X106307238Y-105283730D01*
X106766083Y-105375000D01*
X107233917Y-105375000D01*
X107692762Y-105283730D01*
X108124985Y-105104698D01*
X108513974Y-104844783D01*
X108844783Y-104513974D01*
X109104698Y-104124985D01*
X109283730Y-103692762D01*
X109375000Y-103233917D01*
X109375000Y-102879348D01*
X110855000Y-102879348D01*
X110855000Y-103120652D01*
X110902076Y-103357319D01*
X110994419Y-103580255D01*
X111128481Y-103780892D01*
X111299108Y-103951519D01*
X111499745Y-104085581D01*
X111722681Y-104177924D01*
X111959348Y-104225000D01*
X112200652Y-104225000D01*
X112437319Y-104177924D01*
X112660255Y-104085581D01*
X112860892Y-103951519D01*
X113031519Y-103780892D01*
X113165581Y-103580255D01*
X113257924Y-103357319D01*
X113305000Y-103120652D01*
X113305000Y-102879348D01*
X113257924Y-102642681D01*
X113165581Y-102419745D01*
X113031519Y-102219108D01*
X112860892Y-102048481D01*
X112660255Y-101914419D01*
X112437319Y-101822076D01*
X112200652Y-101775000D01*
X111959348Y-101775000D01*
X111722681Y-101822076D01*
X111499745Y-101914419D01*
X111299108Y-102048481D01*
X111128481Y-102219108D01*
X110994419Y-102419745D01*
X110902076Y-102642681D01*
X110855000Y-102879348D01*
X109375000Y-102879348D01*
X109375000Y-102766083D01*
X109283730Y-102307238D01*
X109104698Y-101875015D01*
X108844783Y-101486026D01*
X108513974Y-101155217D01*
X108221812Y-100960000D01*
X119253894Y-100960000D01*
X110496205Y-109717689D01*
X110476034Y-109697518D01*
X110349100Y-109612704D01*
X110208059Y-109554283D01*
X110058331Y-109524500D01*
X109905669Y-109524500D01*
X109755941Y-109554283D01*
X109614900Y-109612704D01*
X109487966Y-109697518D01*
X109380018Y-109805466D01*
X109295204Y-109932400D01*
X109236783Y-110073441D01*
X109207000Y-110223169D01*
X109207000Y-110375831D01*
X109236783Y-110525559D01*
X109295204Y-110666600D01*
X109380018Y-110793534D01*
X109487966Y-110901482D01*
X109614900Y-110986296D01*
X109755941Y-111044717D01*
X109905669Y-111074500D01*
X110058331Y-111074500D01*
X110208059Y-111044717D01*
X110349100Y-110986296D01*
X110476034Y-110901482D01*
X110530283Y-110847233D01*
X110547696Y-110830628D01*
X110558439Y-110821750D01*
X110567705Y-110815200D01*
X110575661Y-110810469D01*
X110582621Y-110807067D01*
X110589042Y-110804571D01*
X110595501Y-110802671D01*
X110602676Y-110801203D01*
X110607895Y-110800579D01*
X110621500Y-110801919D01*
X110646060Y-110799500D01*
X110648944Y-110799216D01*
X110719517Y-110792265D01*
X110813767Y-110763675D01*
X110900629Y-110717246D01*
X110976764Y-110654764D01*
X110992429Y-110635676D01*
X111878105Y-109750000D01*
X114173186Y-109750000D01*
X114173186Y-113250000D01*
X114180426Y-113323513D01*
X114201869Y-113394200D01*
X114236691Y-113459347D01*
X114283552Y-113516448D01*
X114340653Y-113563309D01*
X114405800Y-113598131D01*
X114476487Y-113619574D01*
X114550000Y-113626814D01*
X118050000Y-113626814D01*
X118123513Y-113619574D01*
X118194200Y-113598131D01*
X118259347Y-113563309D01*
X118316448Y-113516448D01*
X118363309Y-113459347D01*
X118398131Y-113394200D01*
X118419574Y-113323513D01*
X118426814Y-113250000D01*
X118426814Y-112750000D01*
X118873186Y-112750000D01*
X118873186Y-116250000D01*
X118880426Y-116323513D01*
X118901869Y-116394200D01*
X118936691Y-116459347D01*
X118983552Y-116516448D01*
X119040653Y-116563309D01*
X119105800Y-116598131D01*
X119176487Y-116619574D01*
X119250000Y-116626814D01*
X122750000Y-116626814D01*
X122823513Y-116619574D01*
X122894200Y-116598131D01*
X122959347Y-116563309D01*
X123016448Y-116516448D01*
X123063309Y-116459347D01*
X123098131Y-116394200D01*
X123119574Y-116323513D01*
X123126814Y-116250000D01*
X123126814Y-115541659D01*
X133400000Y-115541659D01*
X133400000Y-115758341D01*
X133442273Y-115970858D01*
X133525193Y-116171045D01*
X133645575Y-116351209D01*
X133798791Y-116504425D01*
X133978955Y-116624807D01*
X134179142Y-116707727D01*
X134391659Y-116750000D01*
X134608341Y-116750000D01*
X134820858Y-116707727D01*
X135021045Y-116624807D01*
X135201209Y-116504425D01*
X135354425Y-116351209D01*
X135474807Y-116171045D01*
X135557727Y-115970858D01*
X135600000Y-115758341D01*
X135600000Y-115541659D01*
X138400000Y-115541659D01*
X138400000Y-115758341D01*
X138442273Y-115970858D01*
X138525193Y-116171045D01*
X138645575Y-116351209D01*
X138798791Y-116504425D01*
X138978955Y-116624807D01*
X139179142Y-116707727D01*
X139391659Y-116750000D01*
X139608341Y-116750000D01*
X139820858Y-116707727D01*
X140021045Y-116624807D01*
X140201209Y-116504425D01*
X140354425Y-116351209D01*
X140474807Y-116171045D01*
X140557727Y-115970858D01*
X140600000Y-115758341D01*
X140600000Y-115541659D01*
X140557727Y-115329142D01*
X140474807Y-115128955D01*
X140354425Y-114948791D01*
X140201209Y-114795575D01*
X140021045Y-114675193D01*
X139955137Y-114647893D01*
X141425000Y-114647893D01*
X141425000Y-115352107D01*
X141562385Y-116042789D01*
X141831876Y-116693398D01*
X142223116Y-117278930D01*
X142721070Y-117776884D01*
X143306602Y-118168124D01*
X143957211Y-118437615D01*
X144647893Y-118575000D01*
X145352107Y-118575000D01*
X146042789Y-118437615D01*
X146693398Y-118168124D01*
X147278930Y-117776884D01*
X147776884Y-117278930D01*
X148168124Y-116693398D01*
X148437615Y-116042789D01*
X148575000Y-115352107D01*
X148575000Y-114647893D01*
X148437615Y-113957211D01*
X148168124Y-113306602D01*
X147776884Y-112721070D01*
X147278930Y-112223116D01*
X146693398Y-111831876D01*
X146042789Y-111562385D01*
X145352107Y-111425000D01*
X144647893Y-111425000D01*
X143957211Y-111562385D01*
X143306602Y-111831876D01*
X142721070Y-112223116D01*
X142223116Y-112721070D01*
X141831876Y-113306602D01*
X141562385Y-113957211D01*
X141425000Y-114647893D01*
X139955137Y-114647893D01*
X139820858Y-114592273D01*
X139608341Y-114550000D01*
X139391659Y-114550000D01*
X139179142Y-114592273D01*
X138978955Y-114675193D01*
X138798791Y-114795575D01*
X138645575Y-114948791D01*
X138525193Y-115128955D01*
X138442273Y-115329142D01*
X138400000Y-115541659D01*
X135600000Y-115541659D01*
X135557727Y-115329142D01*
X135474807Y-115128955D01*
X135354425Y-114948791D01*
X135201209Y-114795575D01*
X135021045Y-114675193D01*
X134820858Y-114592273D01*
X134608341Y-114550000D01*
X134391659Y-114550000D01*
X134179142Y-114592273D01*
X133978955Y-114675193D01*
X133798791Y-114795575D01*
X133645575Y-114948791D01*
X133525193Y-115128955D01*
X133442273Y-115329142D01*
X133400000Y-115541659D01*
X123126814Y-115541659D01*
X123126814Y-112750000D01*
X123119574Y-112676487D01*
X123098131Y-112605800D01*
X123063309Y-112540653D01*
X123016448Y-112483552D01*
X122959347Y-112436691D01*
X122894200Y-112401869D01*
X122823513Y-112380426D01*
X122750000Y-112373186D01*
X119250000Y-112373186D01*
X119176487Y-112380426D01*
X119105800Y-112401869D01*
X119040653Y-112436691D01*
X118983552Y-112483552D01*
X118936691Y-112540653D01*
X118901869Y-112605800D01*
X118880426Y-112676487D01*
X118873186Y-112750000D01*
X118426814Y-112750000D01*
X118426814Y-109750000D01*
X118419574Y-109676487D01*
X118398131Y-109605800D01*
X118363309Y-109540653D01*
X118316448Y-109483552D01*
X118259347Y-109436691D01*
X118194200Y-109401869D01*
X118123513Y-109380426D01*
X118050000Y-109373186D01*
X114550000Y-109373186D01*
X114476487Y-109380426D01*
X114405800Y-109401869D01*
X114340653Y-109436691D01*
X114283552Y-109483552D01*
X114236691Y-109540653D01*
X114201869Y-109605800D01*
X114180426Y-109676487D01*
X114173186Y-109750000D01*
X111878105Y-109750000D01*
X114878105Y-106750000D01*
X118873186Y-106750000D01*
X118873186Y-110250000D01*
X118880426Y-110323513D01*
X118901869Y-110394200D01*
X118936691Y-110459347D01*
X118983552Y-110516448D01*
X119040653Y-110563309D01*
X119105800Y-110598131D01*
X119176487Y-110619574D01*
X119250000Y-110626814D01*
X122750000Y-110626814D01*
X122823513Y-110619574D01*
X122894200Y-110598131D01*
X122959347Y-110563309D01*
X123016448Y-110516448D01*
X123063309Y-110459347D01*
X123098131Y-110394200D01*
X123119574Y-110323513D01*
X123126814Y-110250000D01*
X123126814Y-110002320D01*
X126326006Y-110002320D01*
X126326006Y-112501680D01*
X126333246Y-112575193D01*
X126354689Y-112645880D01*
X126389511Y-112711027D01*
X126436372Y-112768128D01*
X126493473Y-112814989D01*
X126558620Y-112849811D01*
X126629307Y-112871254D01*
X126702820Y-112878494D01*
X129202180Y-112878494D01*
X129275693Y-112871254D01*
X129346380Y-112849811D01*
X129411527Y-112814989D01*
X129468628Y-112768128D01*
X129515489Y-112711027D01*
X129550311Y-112645880D01*
X129571754Y-112575193D01*
X129578994Y-112501680D01*
X129578994Y-111071172D01*
X129579243Y-111048570D01*
X129589123Y-110875807D01*
X129606462Y-110717928D01*
X129630772Y-110575250D01*
X129661433Y-110447940D01*
X129697663Y-110336037D01*
X129738557Y-110239323D01*
X129772244Y-110177319D01*
X130539537Y-110177319D01*
X130500529Y-110216327D01*
X130322727Y-110482425D01*
X130200256Y-110778098D01*
X130137820Y-111091983D01*
X130137820Y-111412017D01*
X130200256Y-111725902D01*
X130322727Y-112021575D01*
X130500529Y-112287673D01*
X130726827Y-112513971D01*
X130992925Y-112691773D01*
X131288598Y-112814244D01*
X131602483Y-112876680D01*
X131922517Y-112876680D01*
X132236402Y-112814244D01*
X132532075Y-112691773D01*
X132798173Y-112513971D01*
X133024471Y-112287673D01*
X133202273Y-112021575D01*
X133324744Y-111725902D01*
X133387180Y-111412017D01*
X133387180Y-111091983D01*
X133324744Y-110778098D01*
X133202273Y-110482425D01*
X133024471Y-110216327D01*
X132985463Y-110177319D01*
X134349537Y-110177319D01*
X134310529Y-110216327D01*
X134132727Y-110482425D01*
X134010256Y-110778098D01*
X133947820Y-111091983D01*
X133947820Y-111412017D01*
X134010256Y-111725902D01*
X134132727Y-112021575D01*
X134310529Y-112287673D01*
X134536827Y-112513971D01*
X134802925Y-112691773D01*
X135098598Y-112814244D01*
X135412483Y-112876680D01*
X135732517Y-112876680D01*
X136046402Y-112814244D01*
X136342075Y-112691773D01*
X136608173Y-112513971D01*
X136834471Y-112287673D01*
X137012273Y-112021575D01*
X137134744Y-111725902D01*
X137197180Y-111412017D01*
X137197180Y-111091983D01*
X137134744Y-110778098D01*
X137012273Y-110482425D01*
X136834471Y-110216327D01*
X136795463Y-110177319D01*
X138159537Y-110177319D01*
X138120529Y-110216327D01*
X137942727Y-110482425D01*
X137820256Y-110778098D01*
X137757820Y-111091983D01*
X137757820Y-111412017D01*
X137820256Y-111725902D01*
X137942727Y-112021575D01*
X138120529Y-112287673D01*
X138346827Y-112513971D01*
X138612925Y-112691773D01*
X138908598Y-112814244D01*
X139222483Y-112876680D01*
X139542517Y-112876680D01*
X139856402Y-112814244D01*
X140152075Y-112691773D01*
X140418173Y-112513971D01*
X140644471Y-112287673D01*
X140822273Y-112021575D01*
X140944744Y-111725902D01*
X141007180Y-111412017D01*
X141007180Y-111091983D01*
X140944744Y-110778098D01*
X140822273Y-110482425D01*
X140644471Y-110216327D01*
X140418173Y-109990029D01*
X140152075Y-109812227D01*
X139856402Y-109689756D01*
X139542517Y-109627320D01*
X139222483Y-109627320D01*
X139178171Y-109636134D01*
X145935826Y-102878481D01*
X145953655Y-102861851D01*
X145965506Y-102852311D01*
X145976083Y-102845060D01*
X145985612Y-102839593D01*
X145994470Y-102835441D01*
X146003190Y-102832214D01*
X146012330Y-102829682D01*
X146022600Y-102827738D01*
X146034562Y-102826467D01*
X146056799Y-102825850D01*
X146132681Y-102825850D01*
X146282409Y-102796067D01*
X146423450Y-102737646D01*
X146550384Y-102652832D01*
X146658332Y-102544884D01*
X146743146Y-102417950D01*
X146801567Y-102276909D01*
X146831350Y-102127181D01*
X146831350Y-101974519D01*
X146801567Y-101824791D01*
X146743146Y-101683750D01*
X146658332Y-101556816D01*
X146550384Y-101448868D01*
X146423450Y-101364054D01*
X146282409Y-101305633D01*
X146132681Y-101275850D01*
X145980019Y-101275850D01*
X145830291Y-101305633D01*
X145689250Y-101364054D01*
X145562316Y-101448868D01*
X145454368Y-101556816D01*
X145369554Y-101683750D01*
X145311133Y-101824791D01*
X145281350Y-101974519D01*
X145281350Y-102050393D01*
X145280733Y-102072636D01*
X145279461Y-102084599D01*
X145277517Y-102094869D01*
X145274985Y-102104009D01*
X145271758Y-102112729D01*
X145267606Y-102121587D01*
X145262139Y-102131116D01*
X145254888Y-102141693D01*
X145245342Y-102153551D01*
X145228719Y-102171374D01*
X138222776Y-109177319D01*
X134581472Y-109177319D01*
X134601651Y-109173305D01*
X134808571Y-109087596D01*
X134994795Y-108963165D01*
X135153165Y-108804795D01*
X135277596Y-108618571D01*
X135363305Y-108411651D01*
X135407000Y-108191985D01*
X135407000Y-107968015D01*
X135363305Y-107748349D01*
X135277596Y-107541429D01*
X135153165Y-107355205D01*
X134994795Y-107196835D01*
X134808571Y-107072404D01*
X134601651Y-106986695D01*
X134381985Y-106943000D01*
X134158015Y-106943000D01*
X133938349Y-106986695D01*
X133731429Y-107072404D01*
X133545205Y-107196835D01*
X133386835Y-107355205D01*
X133262404Y-107541429D01*
X133176695Y-107748349D01*
X133133000Y-107968015D01*
X133133000Y-108191985D01*
X133176695Y-108411651D01*
X133262404Y-108618571D01*
X133386835Y-108804795D01*
X133545205Y-108963165D01*
X133731429Y-109087596D01*
X133938349Y-109173305D01*
X133958528Y-109177319D01*
X132041472Y-109177319D01*
X132061651Y-109173305D01*
X132268571Y-109087596D01*
X132454795Y-108963165D01*
X132613165Y-108804795D01*
X132737596Y-108618571D01*
X132823305Y-108411651D01*
X132867000Y-108191985D01*
X132867000Y-107968015D01*
X132823305Y-107748349D01*
X132737596Y-107541429D01*
X132613165Y-107355205D01*
X132454795Y-107196835D01*
X132268571Y-107072404D01*
X132061651Y-106986695D01*
X131841985Y-106943000D01*
X131618015Y-106943000D01*
X131398349Y-106986695D01*
X131191429Y-107072404D01*
X131005205Y-107196835D01*
X130846835Y-107355205D01*
X130722404Y-107541429D01*
X130636695Y-107748349D01*
X130593000Y-107968015D01*
X130593000Y-108191985D01*
X130636695Y-108411651D01*
X130722404Y-108618571D01*
X130846835Y-108804795D01*
X131005205Y-108963165D01*
X131191429Y-109087596D01*
X131398349Y-109173305D01*
X131418528Y-109177319D01*
X129551738Y-109177319D01*
X129527180Y-109174900D01*
X129502622Y-109177319D01*
X129502621Y-109177319D01*
X129429164Y-109184554D01*
X129334914Y-109213144D01*
X129248052Y-109259573D01*
X129171917Y-109322055D01*
X129165148Y-109330303D01*
X129116009Y-109373718D01*
X129047301Y-109421323D01*
X128965176Y-109465942D01*
X128868462Y-109506836D01*
X128756559Y-109543066D01*
X128629249Y-109573727D01*
X128486571Y-109598037D01*
X128328692Y-109615376D01*
X128155928Y-109625256D01*
X128133246Y-109625506D01*
X126702820Y-109625506D01*
X126629307Y-109632746D01*
X126558620Y-109654189D01*
X126493473Y-109689011D01*
X126436372Y-109735872D01*
X126389511Y-109792973D01*
X126354689Y-109858120D01*
X126333246Y-109928807D01*
X126326006Y-110002320D01*
X123126814Y-110002320D01*
X123126814Y-106750000D01*
X123119574Y-106676487D01*
X123098131Y-106605800D01*
X123063309Y-106540653D01*
X123016448Y-106483552D01*
X122959347Y-106436691D01*
X122894200Y-106401869D01*
X122823513Y-106380426D01*
X122750000Y-106373186D01*
X119250000Y-106373186D01*
X119176487Y-106380426D01*
X119105800Y-106401869D01*
X119040653Y-106436691D01*
X118983552Y-106483552D01*
X118936691Y-106540653D01*
X118901869Y-106605800D01*
X118880426Y-106676487D01*
X118873186Y-106750000D01*
X114878105Y-106750000D01*
X118748757Y-102879348D01*
X126695000Y-102879348D01*
X126695000Y-103120652D01*
X126742076Y-103357319D01*
X126834419Y-103580255D01*
X126968481Y-103780892D01*
X127139108Y-103951519D01*
X127339745Y-104085581D01*
X127562681Y-104177924D01*
X127799348Y-104225000D01*
X128040652Y-104225000D01*
X128277319Y-104177924D01*
X128500255Y-104085581D01*
X128700892Y-103951519D01*
X128871519Y-103780892D01*
X129005581Y-103580255D01*
X129097924Y-103357319D01*
X129145000Y-103120652D01*
X129145000Y-102879348D01*
X129122471Y-102766083D01*
X130625000Y-102766083D01*
X130625000Y-103233917D01*
X130716270Y-103692762D01*
X130895302Y-104124985D01*
X131155217Y-104513974D01*
X131486026Y-104844783D01*
X131875015Y-105104698D01*
X132307238Y-105283730D01*
X132766083Y-105375000D01*
X133233917Y-105375000D01*
X133692762Y-105283730D01*
X134124985Y-105104698D01*
X134513974Y-104844783D01*
X134844783Y-104513974D01*
X135104698Y-104124985D01*
X135283730Y-103692762D01*
X135375000Y-103233917D01*
X135375000Y-102879348D01*
X136855000Y-102879348D01*
X136855000Y-103120652D01*
X136902076Y-103357319D01*
X136994419Y-103580255D01*
X137128481Y-103780892D01*
X137299108Y-103951519D01*
X137499745Y-104085581D01*
X137722681Y-104177924D01*
X137959348Y-104225000D01*
X138200652Y-104225000D01*
X138437319Y-104177924D01*
X138660255Y-104085581D01*
X138860892Y-103951519D01*
X139031519Y-103780892D01*
X139165581Y-103580255D01*
X139257924Y-103357319D01*
X139305000Y-103120652D01*
X139305000Y-102879348D01*
X139257924Y-102642681D01*
X139165581Y-102419745D01*
X139031519Y-102219108D01*
X138860892Y-102048481D01*
X138660255Y-101914419D01*
X138437319Y-101822076D01*
X138200652Y-101775000D01*
X137959348Y-101775000D01*
X137722681Y-101822076D01*
X137499745Y-101914419D01*
X137299108Y-102048481D01*
X137128481Y-102219108D01*
X136994419Y-102419745D01*
X136902076Y-102642681D01*
X136855000Y-102879348D01*
X135375000Y-102879348D01*
X135375000Y-102766083D01*
X135283730Y-102307238D01*
X135104698Y-101875015D01*
X134844783Y-101486026D01*
X134513974Y-101155217D01*
X134124985Y-100895302D01*
X133692762Y-100716270D01*
X133233917Y-100625000D01*
X132766083Y-100625000D01*
X132307238Y-100716270D01*
X131875015Y-100895302D01*
X131486026Y-101155217D01*
X131155217Y-101486026D01*
X130895302Y-101875015D01*
X130716270Y-102307238D01*
X130625000Y-102766083D01*
X129122471Y-102766083D01*
X129097924Y-102642681D01*
X129005581Y-102419745D01*
X128871519Y-102219108D01*
X128700892Y-102048481D01*
X128500255Y-101914419D01*
X128277319Y-101822076D01*
X128040652Y-101775000D01*
X127799348Y-101775000D01*
X127562681Y-101822076D01*
X127339745Y-101914419D01*
X127139108Y-102048481D01*
X126968481Y-102219108D01*
X126834419Y-102419745D01*
X126742076Y-102642681D01*
X126695000Y-102879348D01*
X118748757Y-102879348D01*
X132551980Y-89076127D01*
X132620832Y-89011928D01*
X132685547Y-88959886D01*
X132750844Y-88915190D01*
X132816947Y-88877344D01*
X132884252Y-88845878D01*
X132953281Y-88820414D01*
X133024635Y-88800718D01*
X133098972Y-88786707D01*
X133176898Y-88778463D01*
X133266294Y-88776000D01*
X133380803Y-88776000D01*
X133598150Y-88732767D01*
X133802887Y-88647962D01*
X133987145Y-88524844D01*
X134143844Y-88368145D01*
X134266962Y-88183887D01*
X134351767Y-87979150D01*
X134395000Y-87761803D01*
X134395000Y-87540197D01*
X134351767Y-87322850D01*
X134266962Y-87118113D01*
X134143844Y-86933855D01*
X133987145Y-86777156D01*
X133802887Y-86654038D01*
X133598150Y-86569233D01*
X133380803Y-86526000D01*
X133159197Y-86526000D01*
X132941850Y-86569233D01*
X132737113Y-86654038D01*
X132694999Y-86682178D01*
X132694999Y-85970868D01*
X141004946Y-77660922D01*
X140985000Y-77761197D01*
X140985000Y-77875700D01*
X140982536Y-77965101D01*
X140974292Y-78043027D01*
X140960281Y-78117364D01*
X140940583Y-78188725D01*
X140915126Y-78257738D01*
X140883653Y-78325055D01*
X140845809Y-78391155D01*
X140801113Y-78456452D01*
X140749071Y-78521167D01*
X140684852Y-78590042D01*
X137268320Y-82006575D01*
X137249237Y-82022236D01*
X137186755Y-82098371D01*
X137140326Y-82185233D01*
X137111735Y-82279483D01*
X137102081Y-82377500D01*
X137104501Y-82402070D01*
X137104500Y-91838394D01*
X130505536Y-98437359D01*
X130385566Y-98549209D01*
X130267919Y-98643798D01*
X130147854Y-98725952D01*
X130025125Y-98796180D01*
X129899362Y-98854941D01*
X129770004Y-98902623D01*
X129636478Y-98939448D01*
X129498119Y-98965500D01*
X129354311Y-98980696D01*
X129197883Y-98985000D01*
X129044725Y-98985000D01*
X128759758Y-99041683D01*
X128491325Y-99152872D01*
X128249742Y-99314293D01*
X128044293Y-99519742D01*
X127882872Y-99761325D01*
X127771683Y-100029758D01*
X127715000Y-100314725D01*
X127715000Y-100605275D01*
X127771683Y-100890242D01*
X127882872Y-101158675D01*
X128044293Y-101400258D01*
X128249742Y-101605707D01*
X128491325Y-101767128D01*
X128759758Y-101878317D01*
X129044725Y-101935000D01*
X129335275Y-101935000D01*
X129620242Y-101878317D01*
X129888675Y-101767128D01*
X130130258Y-101605707D01*
X130335707Y-101400258D01*
X130497128Y-101158675D01*
X130608317Y-100890242D01*
X130665000Y-100605275D01*
X130665000Y-100452113D01*
X130669303Y-100295688D01*
X130684499Y-100151880D01*
X130710551Y-100013521D01*
X130747377Y-99879993D01*
X130795058Y-99750640D01*
X130853819Y-99624872D01*
X130924047Y-99502145D01*
X131006201Y-99382080D01*
X131100784Y-99264441D01*
X131212652Y-99144453D01*
X132582380Y-97774725D01*
X134065000Y-97774725D01*
X134065000Y-98065275D01*
X134121683Y-98350242D01*
X134232872Y-98618675D01*
X134394293Y-98860258D01*
X134599742Y-99065707D01*
X134841325Y-99227128D01*
X135109758Y-99338317D01*
X135394725Y-99395000D01*
X135685275Y-99395000D01*
X135970242Y-99338317D01*
X136238675Y-99227128D01*
X136480258Y-99065707D01*
X136685707Y-98860258D01*
X136847128Y-98618675D01*
X136958317Y-98350242D01*
X137015000Y-98065275D01*
X137015000Y-97774725D01*
X136958317Y-97489758D01*
X136847128Y-97221325D01*
X136685707Y-96979742D01*
X136480258Y-96774293D01*
X136238675Y-96612872D01*
X135970242Y-96501683D01*
X135685275Y-96445000D01*
X135394725Y-96445000D01*
X135109758Y-96501683D01*
X134841325Y-96612872D01*
X134599742Y-96774293D01*
X134394293Y-96979742D01*
X134232872Y-97221325D01*
X134121683Y-97489758D01*
X134065000Y-97774725D01*
X132582380Y-97774725D01*
X134815908Y-95541197D01*
X140985000Y-95541197D01*
X140985000Y-95762803D01*
X141028233Y-95980150D01*
X141113038Y-96184887D01*
X141236156Y-96369145D01*
X141392855Y-96525844D01*
X141577113Y-96648962D01*
X141781850Y-96733767D01*
X141999197Y-96777000D01*
X142220803Y-96777000D01*
X142438150Y-96733767D01*
X142642887Y-96648962D01*
X142827145Y-96525844D01*
X142983844Y-96369145D01*
X143106962Y-96184887D01*
X143191767Y-95980150D01*
X143235000Y-95762803D01*
X143235000Y-95541197D01*
X143191767Y-95323850D01*
X143106962Y-95119113D01*
X142983844Y-94934855D01*
X142827145Y-94778156D01*
X142642887Y-94655038D01*
X142438150Y-94570233D01*
X142220803Y-94527000D01*
X141999197Y-94527000D01*
X141781850Y-94570233D01*
X141577113Y-94655038D01*
X141392855Y-94778156D01*
X141236156Y-94934855D01*
X141113038Y-95119113D01*
X141028233Y-95323850D01*
X140985000Y-95541197D01*
X134815908Y-95541197D01*
X137940681Y-92416425D01*
X137959764Y-92400764D01*
X138022246Y-92324629D01*
X138068675Y-92237767D01*
X138097265Y-92143517D01*
X138104500Y-92070060D01*
X138104500Y-92070059D01*
X138106919Y-92045501D01*
X138104500Y-92020941D01*
X138104500Y-82584605D01*
X141391963Y-79297143D01*
X141460832Y-79232928D01*
X141525547Y-79180886D01*
X141590844Y-79136190D01*
X141656947Y-79098344D01*
X141724252Y-79066878D01*
X141793281Y-79041414D01*
X141864635Y-79021718D01*
X141938972Y-79007707D01*
X142016898Y-78999463D01*
X142106294Y-78997000D01*
X142220803Y-78997000D01*
X142438150Y-78953767D01*
X142642887Y-78868962D01*
X142685002Y-78840822D01*
X142685002Y-79443178D01*
X142642887Y-79415038D01*
X142438150Y-79330233D01*
X142220803Y-79287000D01*
X141999197Y-79287000D01*
X141781850Y-79330233D01*
X141577113Y-79415038D01*
X141392855Y-79538156D01*
X141236156Y-79694855D01*
X141113038Y-79879113D01*
X141028233Y-80083850D01*
X140985000Y-80301197D01*
X140985000Y-80522803D01*
X141028233Y-80740150D01*
X141113038Y-80944887D01*
X141236156Y-81129145D01*
X141392855Y-81285844D01*
X141577113Y-81408962D01*
X141781850Y-81493767D01*
X141999197Y-81537000D01*
X142220803Y-81537000D01*
X142438150Y-81493767D01*
X142642887Y-81408962D01*
X142685001Y-81380822D01*
X142685001Y-81983178D01*
X142642887Y-81955038D01*
X142438150Y-81870233D01*
X142220803Y-81827000D01*
X141999197Y-81827000D01*
X141781850Y-81870233D01*
X141577113Y-81955038D01*
X141392855Y-82078156D01*
X141236156Y-82234855D01*
X141113038Y-82419113D01*
X141028233Y-82623850D01*
X140985000Y-82841197D01*
X140985000Y-83062803D01*
X141028233Y-83280150D01*
X141113038Y-83484887D01*
X141236156Y-83669145D01*
X141392855Y-83825844D01*
X141577113Y-83948962D01*
X141781850Y-84033767D01*
X141999197Y-84077000D01*
X142220803Y-84077000D01*
X142438150Y-84033767D01*
X142642887Y-83948962D01*
X142685001Y-83920822D01*
X142685001Y-84523178D01*
X142642887Y-84495038D01*
X142438150Y-84410233D01*
X142220803Y-84367000D01*
X141999197Y-84367000D01*
X141781850Y-84410233D01*
X141577113Y-84495038D01*
X141392855Y-84618156D01*
X141236156Y-84774855D01*
X141113038Y-84959113D01*
X141028233Y-85163850D01*
X140985000Y-85381197D01*
X140985000Y-85602803D01*
X141028233Y-85820150D01*
X141113038Y-86024887D01*
X141236156Y-86209145D01*
X141392855Y-86365844D01*
X141577113Y-86488962D01*
X141781850Y-86573767D01*
X141999197Y-86617000D01*
X142220803Y-86617000D01*
X142438150Y-86573767D01*
X142642887Y-86488962D01*
X142685001Y-86460822D01*
X142685001Y-87063178D01*
X142642887Y-87035038D01*
X142438150Y-86950233D01*
X142220803Y-86907000D01*
X141999197Y-86907000D01*
X141781850Y-86950233D01*
X141577113Y-87035038D01*
X141392855Y-87158156D01*
X141236156Y-87314855D01*
X141113038Y-87499113D01*
X141028233Y-87703850D01*
X140985000Y-87921197D01*
X140985000Y-88142803D01*
X141028233Y-88360150D01*
X141113038Y-88564887D01*
X141236156Y-88749145D01*
X141392855Y-88905844D01*
X141577113Y-89028962D01*
X141781850Y-89113767D01*
X141999197Y-89157000D01*
X142220803Y-89157000D01*
X142438150Y-89113767D01*
X142642887Y-89028962D01*
X142685001Y-89000822D01*
X142685001Y-89603178D01*
X142642887Y-89575038D01*
X142438150Y-89490233D01*
X142220803Y-89447000D01*
X141999197Y-89447000D01*
X141781850Y-89490233D01*
X141577113Y-89575038D01*
X141392855Y-89698156D01*
X141236156Y-89854855D01*
X141113038Y-90039113D01*
X141028233Y-90243850D01*
X140985000Y-90461197D01*
X140985000Y-90682803D01*
X141028233Y-90900150D01*
X141113038Y-91104887D01*
X141236156Y-91289145D01*
X141392855Y-91445844D01*
X141577113Y-91568962D01*
X141781850Y-91653767D01*
X141999197Y-91697000D01*
X142220803Y-91697000D01*
X142438150Y-91653767D01*
X142642887Y-91568962D01*
X142685001Y-91540822D01*
X142685001Y-91809582D01*
X142629155Y-91847809D01*
X142563055Y-91885653D01*
X142495738Y-91917126D01*
X142426725Y-91942583D01*
X142355364Y-91962281D01*
X142281027Y-91976292D01*
X142203101Y-91984536D01*
X142113700Y-91987000D01*
X141999197Y-91987000D01*
X141781850Y-92030233D01*
X141577113Y-92115038D01*
X141392855Y-92238156D01*
X141236156Y-92394855D01*
X141113038Y-92579113D01*
X141028233Y-92783850D01*
X140985000Y-93001197D01*
X140985000Y-93222803D01*
X141028233Y-93440150D01*
X141113038Y-93644887D01*
X141236156Y-93829145D01*
X141392855Y-93985844D01*
X141577113Y-94108962D01*
X141781850Y-94193767D01*
X141999197Y-94237000D01*
X142220803Y-94237000D01*
X142438150Y-94193767D01*
X142642887Y-94108962D01*
X142827145Y-93985844D01*
X142983844Y-93829145D01*
X143106962Y-93644887D01*
X143191767Y-93440150D01*
X143235000Y-93222803D01*
X143235000Y-93108294D01*
X143237463Y-93018898D01*
X143245707Y-92940972D01*
X143259718Y-92866635D01*
X143279414Y-92795281D01*
X143304878Y-92726252D01*
X143336344Y-92658947D01*
X143374190Y-92592844D01*
X143418886Y-92527547D01*
X143470928Y-92462832D01*
X143525200Y-92404627D01*
X143540265Y-92392263D01*
X143602747Y-92316128D01*
X143649176Y-92229266D01*
X143675187Y-92143518D01*
X143677766Y-92135017D01*
X143687420Y-92036999D01*
X143685001Y-92012439D01*
X143685001Y-68851061D01*
X143687420Y-68826501D01*
X143677766Y-68728484D01*
X143657907Y-68663018D01*
X143649176Y-68634234D01*
X143602747Y-68547372D01*
X143540265Y-68471237D01*
X143521188Y-68455581D01*
X143086992Y-68021385D01*
X143306602Y-68168124D01*
X143957211Y-68437615D01*
X144647893Y-68575000D01*
X145352107Y-68575000D01*
X146042789Y-68437615D01*
X146693398Y-68168124D01*
X147278930Y-67776884D01*
X147776884Y-67278930D01*
X148168124Y-66693398D01*
X148437615Y-66042789D01*
X148575000Y-65352107D01*
X148575000Y-64647893D01*
X148437615Y-63957211D01*
X148168124Y-63306602D01*
X147776884Y-62721070D01*
X147278930Y-62223116D01*
X146693398Y-61831876D01*
X146042789Y-61562385D01*
X145352107Y-61425000D01*
X144647893Y-61425000D01*
X143957211Y-61562385D01*
X143306602Y-61831876D01*
X142721070Y-62223116D01*
X142223116Y-62721070D01*
X141831876Y-63306602D01*
X141562385Y-63957211D01*
X141425000Y-64647893D01*
X141425000Y-65352107D01*
X141562385Y-66042789D01*
X141831876Y-66693398D01*
X141978616Y-66913009D01*
X139181929Y-64116324D01*
X139166264Y-64097236D01*
X139090129Y-64034754D01*
X139003267Y-63988325D01*
X138909017Y-63959735D01*
X138835560Y-63952500D01*
X138811000Y-63950081D01*
X138786440Y-63952500D01*
X122771701Y-63952500D01*
X122777254Y-63934193D01*
X122784494Y-63860680D01*
X122784494Y-61361320D01*
X122777254Y-61287807D01*
X122755811Y-61217120D01*
X122720989Y-61151973D01*
X122674128Y-61094872D01*
X122617027Y-61048011D01*
X122551880Y-61013189D01*
X122481193Y-60991746D01*
X122407680Y-60984506D01*
X119908320Y-60984506D01*
X119834807Y-60991746D01*
X119764120Y-61013189D01*
X119698973Y-61048011D01*
X119641872Y-61094872D01*
X119595011Y-61151973D01*
X119560189Y-61217120D01*
X119538746Y-61287807D01*
X119531506Y-61361320D01*
X119531506Y-63860680D01*
X119538746Y-63934193D01*
X119544299Y-63952500D01*
X118264650Y-63952500D01*
X118383673Y-63872971D01*
X118609971Y-63646673D01*
X118787773Y-63380575D01*
X118910244Y-63084902D01*
X118972680Y-62771017D01*
X118972680Y-62450983D01*
X118910244Y-62137098D01*
X118787773Y-61841425D01*
X118609971Y-61575327D01*
X118383673Y-61349029D01*
X118117575Y-61171227D01*
X117821902Y-61048756D01*
X117508017Y-60986320D01*
X117187983Y-60986320D01*
X116874098Y-61048756D01*
X116578425Y-61171227D01*
X116312327Y-61349029D01*
X116086029Y-61575327D01*
X115908227Y-61841425D01*
X115785756Y-62137098D01*
X115723320Y-62450983D01*
X115723320Y-62771017D01*
X115785756Y-63084902D01*
X115908227Y-63380575D01*
X116086029Y-63646673D01*
X116312327Y-63872971D01*
X116431350Y-63952500D01*
X105932607Y-63952500D01*
X105352782Y-63372676D01*
X105295368Y-63311100D01*
X105249415Y-63253962D01*
X105210064Y-63196479D01*
X105176842Y-63138459D01*
X105149275Y-63079505D01*
X105126989Y-63019100D01*
X105109738Y-62956622D01*
X105097448Y-62891435D01*
X105090200Y-62822929D01*
X105088000Y-62743124D01*
X105088000Y-62634122D01*
X105438000Y-62634122D01*
X105438000Y-62845878D01*
X105479312Y-63053566D01*
X105560348Y-63249203D01*
X105677993Y-63425272D01*
X105827728Y-63575007D01*
X106003797Y-63692652D01*
X106199434Y-63773688D01*
X106407122Y-63815000D01*
X106618878Y-63815000D01*
X106826566Y-63773688D01*
X107022203Y-63692652D01*
X107198272Y-63575007D01*
X107348007Y-63425272D01*
X107465652Y-63249203D01*
X107546688Y-63053566D01*
X107588000Y-62845878D01*
X107588000Y-62634122D01*
X107938000Y-62634122D01*
X107938000Y-62845878D01*
X107979312Y-63053566D01*
X108060348Y-63249203D01*
X108177993Y-63425272D01*
X108327728Y-63575007D01*
X108503797Y-63692652D01*
X108699434Y-63773688D01*
X108907122Y-63815000D01*
X109118878Y-63815000D01*
X109326566Y-63773688D01*
X109522203Y-63692652D01*
X109698272Y-63575007D01*
X109848007Y-63425272D01*
X109965652Y-63249203D01*
X110046688Y-63053566D01*
X110088000Y-62845878D01*
X110088000Y-62634122D01*
X110046688Y-62426434D01*
X109965652Y-62230797D01*
X109848007Y-62054728D01*
X109698272Y-61904993D01*
X109522203Y-61787348D01*
X109326566Y-61706312D01*
X109118878Y-61665000D01*
X108907122Y-61665000D01*
X108699434Y-61706312D01*
X108503797Y-61787348D01*
X108327728Y-61904993D01*
X108177993Y-62054728D01*
X108060348Y-62230797D01*
X107979312Y-62426434D01*
X107938000Y-62634122D01*
X107588000Y-62634122D01*
X107546688Y-62426434D01*
X107465652Y-62230797D01*
X107348007Y-62054728D01*
X107198272Y-61904993D01*
X107022203Y-61787348D01*
X106826566Y-61706312D01*
X106618878Y-61665000D01*
X106407122Y-61665000D01*
X106199434Y-61706312D01*
X106003797Y-61787348D01*
X105827728Y-61904993D01*
X105677993Y-62054728D01*
X105560348Y-62230797D01*
X105479312Y-62426434D01*
X105438000Y-62634122D01*
X105088000Y-62634122D01*
X105046688Y-62426434D01*
X104965652Y-62230797D01*
X104848007Y-62054728D01*
X104698272Y-61904993D01*
X104522203Y-61787348D01*
X104326566Y-61706312D01*
X104118878Y-61665000D01*
X103907122Y-61665000D01*
X103699434Y-61706312D01*
X103503797Y-61787348D01*
X103327728Y-61904993D01*
X103177993Y-62054728D01*
X103060348Y-62230797D01*
X102979312Y-62426434D01*
X102938000Y-62634122D01*
X102938000Y-62845878D01*
X102979312Y-63053566D01*
X103060348Y-63249203D01*
X103177993Y-63425272D01*
X103327728Y-63575007D01*
X103503797Y-63692652D01*
X103699434Y-63773688D01*
X103907122Y-63815000D01*
X104016124Y-63815000D01*
X104095929Y-63817200D01*
X104164435Y-63824448D01*
X104229622Y-63836738D01*
X104292100Y-63853989D01*
X104352505Y-63876275D01*
X104411459Y-63903842D01*
X104469479Y-63937064D01*
X104526962Y-63976415D01*
X104584100Y-64022368D01*
X104645676Y-64079782D01*
X105034640Y-64468746D01*
X104988974Y-64473244D01*
X104894724Y-64501834D01*
X104807862Y-64548263D01*
X104731727Y-64610745D01*
X104716071Y-64629822D01*
X104645669Y-64700224D01*
X104584100Y-64757631D01*
X104526962Y-64803584D01*
X104469479Y-64842935D01*
X104411459Y-64876157D01*
X104352505Y-64903724D01*
X104292100Y-64926010D01*
X104229622Y-64943261D01*
X104164435Y-64955551D01*
X104095928Y-64962799D01*
X104081895Y-64963186D01*
X103313000Y-64963186D01*
X103239487Y-64970426D01*
X103168800Y-64991869D01*
X103103653Y-65026691D01*
X103046552Y-65073552D01*
X102999691Y-65130653D01*
X102964869Y-65195800D01*
X102943426Y-65266487D01*
X102936186Y-65340000D01*
X102936186Y-66740000D01*
X102943426Y-66813513D01*
X102964869Y-66884200D01*
X102999691Y-66949347D01*
X103046552Y-67006448D01*
X103103653Y-67053309D01*
X103168800Y-67088131D01*
X103239487Y-67109574D01*
X103313000Y-67116814D01*
X104713000Y-67116814D01*
X104786513Y-67109574D01*
X104857200Y-67088131D01*
X104922347Y-67053309D01*
X104979448Y-67006448D01*
X105026309Y-66949347D01*
X105061131Y-66884200D01*
X105082574Y-66813513D01*
X105089814Y-66740000D01*
X105089814Y-65971072D01*
X105090200Y-65957070D01*
X105097448Y-65888564D01*
X105109738Y-65823377D01*
X105126989Y-65760899D01*
X105149275Y-65700494D01*
X105176842Y-65641540D01*
X105210064Y-65583520D01*
X105249415Y-65526037D01*
X105295368Y-65468899D01*
X105298063Y-65466009D01*
X105603638Y-65466009D01*
X105560348Y-65530797D01*
X105479312Y-65726434D01*
X105438000Y-65934122D01*
X105438000Y-66145878D01*
X105479312Y-66353566D01*
X105560348Y-66549203D01*
X105677993Y-66725272D01*
X105827728Y-66875007D01*
X106003797Y-66992652D01*
X106199434Y-67073688D01*
X106407122Y-67115000D01*
X106618878Y-67115000D01*
X106826566Y-67073688D01*
X107022203Y-66992652D01*
X107198272Y-66875007D01*
X107348007Y-66725272D01*
X107465652Y-66549203D01*
X107546688Y-66353566D01*
X107588000Y-66145878D01*
X107588000Y-65934122D01*
X107546688Y-65726434D01*
X107465652Y-65530797D01*
X107422362Y-65466009D01*
X108103638Y-65466009D01*
X108060348Y-65530797D01*
X107979312Y-65726434D01*
X107938000Y-65934122D01*
X107938000Y-66145878D01*
X107979312Y-66353566D01*
X108060348Y-66549203D01*
X108177993Y-66725272D01*
X108327728Y-66875007D01*
X108503797Y-66992652D01*
X108699434Y-67073688D01*
X108907122Y-67115000D01*
X109118878Y-67115000D01*
X109326566Y-67073688D01*
X109522203Y-66992652D01*
X109698272Y-66875007D01*
X109848007Y-66725272D01*
X109965652Y-66549203D01*
X110046688Y-66353566D01*
X110072178Y-66225420D01*
X131228206Y-66225420D01*
X131228206Y-68724780D01*
X131235446Y-68798293D01*
X131256889Y-68868980D01*
X131291711Y-68934127D01*
X131338572Y-68991228D01*
X131395673Y-69038089D01*
X131460820Y-69072911D01*
X131531507Y-69094354D01*
X131605020Y-69101594D01*
X134104380Y-69101594D01*
X134177893Y-69094354D01*
X134248580Y-69072911D01*
X134313727Y-69038089D01*
X134370828Y-68991228D01*
X134417689Y-68934127D01*
X134452511Y-68868980D01*
X134473954Y-68798293D01*
X134481194Y-68724780D01*
X134481194Y-66225420D01*
X134473954Y-66151907D01*
X134452511Y-66081220D01*
X134417689Y-66016073D01*
X134370828Y-65958972D01*
X134313727Y-65912111D01*
X134248580Y-65877289D01*
X134177893Y-65855846D01*
X134104380Y-65848606D01*
X131605020Y-65848606D01*
X131531507Y-65855846D01*
X131460820Y-65877289D01*
X131395673Y-65912111D01*
X131338572Y-65958972D01*
X131291711Y-66016073D01*
X131256889Y-66081220D01*
X131235446Y-66151907D01*
X131228206Y-66225420D01*
X110072178Y-66225420D01*
X110088000Y-66145878D01*
X110088000Y-65934122D01*
X110046688Y-65726434D01*
X109965652Y-65530797D01*
X109922362Y-65466009D01*
X133948504Y-65466009D01*
X134386544Y-65904050D01*
X134518762Y-66045867D01*
X134631544Y-66186151D01*
X134729723Y-66329649D01*
X134813797Y-66476589D01*
X134884234Y-66627367D01*
X134941412Y-66782512D01*
X134985560Y-66942623D01*
X135016763Y-67108371D01*
X135034928Y-67280332D01*
X135040020Y-67465460D01*
X135040020Y-67635117D01*
X135102456Y-67949002D01*
X135224927Y-68244675D01*
X135402729Y-68510773D01*
X135629027Y-68737071D01*
X135895125Y-68914873D01*
X136190798Y-69037344D01*
X136504683Y-69099780D01*
X136824717Y-69099780D01*
X137138602Y-69037344D01*
X137434275Y-68914873D01*
X137700373Y-68737071D01*
X137926671Y-68510773D01*
X138104473Y-68244675D01*
X138226944Y-67949002D01*
X138289380Y-67635117D01*
X138289380Y-67315083D01*
X138226944Y-67001198D01*
X138104473Y-66705525D01*
X137926671Y-66439427D01*
X137700373Y-66213129D01*
X137434275Y-66035327D01*
X137138602Y-65912856D01*
X136824717Y-65850420D01*
X136655060Y-65850420D01*
X136469932Y-65845328D01*
X136297971Y-65827163D01*
X136132223Y-65795960D01*
X135972112Y-65751812D01*
X135816967Y-65694634D01*
X135666189Y-65624197D01*
X135519249Y-65540123D01*
X135375751Y-65441944D01*
X135235467Y-65329162D01*
X135093650Y-65196944D01*
X134849205Y-64952500D01*
X138603895Y-64952500D01*
X142685002Y-69033609D01*
X142685002Y-69283178D01*
X142642887Y-69255038D01*
X142438150Y-69170233D01*
X142220803Y-69127000D01*
X141999197Y-69127000D01*
X141781850Y-69170233D01*
X141577113Y-69255038D01*
X141392855Y-69378156D01*
X141236156Y-69534855D01*
X141113038Y-69719113D01*
X141028233Y-69923850D01*
X140985000Y-70141197D01*
X140985000Y-70362803D01*
X141028233Y-70580150D01*
X141113038Y-70784887D01*
X141236156Y-70969145D01*
X141392855Y-71125844D01*
X141577113Y-71248962D01*
X141781850Y-71333767D01*
X141999197Y-71377000D01*
X142220803Y-71377000D01*
X142438150Y-71333767D01*
X142642887Y-71248962D01*
X142685002Y-71220822D01*
X142685002Y-71823178D01*
X142642887Y-71795038D01*
X142438150Y-71710233D01*
X142220803Y-71667000D01*
X141999197Y-71667000D01*
X141781850Y-71710233D01*
X141577113Y-71795038D01*
X141392855Y-71918156D01*
X141236156Y-72074855D01*
X141113038Y-72259113D01*
X141028233Y-72463850D01*
X140985000Y-72681197D01*
X140985000Y-72795700D01*
X140982536Y-72885101D01*
X140974292Y-72963027D01*
X140960281Y-73037364D01*
X140940583Y-73108725D01*
X140915126Y-73177738D01*
X140883653Y-73245055D01*
X140845809Y-73311155D01*
X140801113Y-73376452D01*
X140749071Y-73441167D01*
X140684852Y-73510042D01*
X140234895Y-73960000D01*
X131550402Y-73960000D01*
X131386524Y-73954261D01*
X131236463Y-73937957D01*
X131093461Y-73911147D01*
X130957026Y-73874026D01*
X130826525Y-73826639D01*
X130701372Y-73768901D01*
X130580898Y-73700514D01*
X130464637Y-73621098D01*
X130352214Y-73530163D01*
X130238541Y-73422576D01*
X130130258Y-73314293D01*
X129888675Y-73152872D01*
X129620242Y-73041683D01*
X129335275Y-72985000D01*
X129044725Y-72985000D01*
X128759758Y-73041683D01*
X128491325Y-73152872D01*
X128249742Y-73314293D01*
X128044293Y-73519742D01*
X127882872Y-73761325D01*
X127771683Y-74029758D01*
X127715000Y-74314725D01*
X127715000Y-74605275D01*
X127771683Y-74890242D01*
X127882872Y-75158675D01*
X128044293Y-75400258D01*
X128249742Y-75605707D01*
X128491325Y-75767128D01*
X128759758Y-75878317D01*
X129044725Y-75935000D01*
X129335275Y-75935000D01*
X129620242Y-75878317D01*
X129888675Y-75767128D01*
X130130258Y-75605707D01*
X130238541Y-75497424D01*
X130352214Y-75389837D01*
X130464637Y-75298902D01*
X130580898Y-75219486D01*
X130701372Y-75151099D01*
X130826525Y-75093361D01*
X130957026Y-75045974D01*
X131093461Y-75008853D01*
X131236463Y-74982043D01*
X131386524Y-74965739D01*
X131550402Y-74960000D01*
X131778188Y-74960000D01*
X131486026Y-75155217D01*
X131155217Y-75486026D01*
X130895302Y-75875015D01*
X130716270Y-76307238D01*
X130625000Y-76766083D01*
X130625000Y-77233917D01*
X130716270Y-77692762D01*
X130895302Y-78124985D01*
X131155217Y-78513974D01*
X131486026Y-78844783D01*
X131875015Y-79104698D01*
X132307238Y-79283730D01*
X132766083Y-79375000D01*
X133233917Y-79375000D01*
X133692762Y-79283730D01*
X134124985Y-79104698D01*
X134513974Y-78844783D01*
X134844783Y-78513974D01*
X135104698Y-78124985D01*
X135283730Y-77692762D01*
X135375000Y-77233917D01*
X135375000Y-76879348D01*
X136855000Y-76879348D01*
X136855000Y-77120652D01*
X136902076Y-77357319D01*
X136994419Y-77580255D01*
X137128481Y-77780892D01*
X137299108Y-77951519D01*
X137499745Y-78085581D01*
X137722681Y-78177924D01*
X137959348Y-78225000D01*
X138200652Y-78225000D01*
X138437319Y-78177924D01*
X138660255Y-78085581D01*
X138860892Y-77951519D01*
X139031519Y-77780892D01*
X139165581Y-77580255D01*
X139257924Y-77357319D01*
X139305000Y-77120652D01*
X139305000Y-76879348D01*
X139257924Y-76642681D01*
X139165581Y-76419745D01*
X139031519Y-76219108D01*
X138860892Y-76048481D01*
X138660255Y-75914419D01*
X138437319Y-75822076D01*
X138200652Y-75775000D01*
X137959348Y-75775000D01*
X137722681Y-75822076D01*
X137499745Y-75914419D01*
X137299108Y-76048481D01*
X137128481Y-76219108D01*
X136994419Y-76419745D01*
X136902076Y-76642681D01*
X136855000Y-76879348D01*
X135375000Y-76879348D01*
X135375000Y-76766083D01*
X135283730Y-76307238D01*
X135104698Y-75875015D01*
X134844783Y-75486026D01*
X134513974Y-75155217D01*
X134221812Y-74960000D01*
X140417440Y-74960000D01*
X140442000Y-74962419D01*
X140466560Y-74960000D01*
X140540017Y-74952765D01*
X140634267Y-74924175D01*
X140721129Y-74877746D01*
X140797264Y-74815264D01*
X140812929Y-74796176D01*
X141391962Y-74217143D01*
X141460832Y-74152928D01*
X141525547Y-74100886D01*
X141590844Y-74056190D01*
X141656947Y-74018344D01*
X141724252Y-73986878D01*
X141793281Y-73961414D01*
X141864635Y-73941718D01*
X141938972Y-73927707D01*
X142016898Y-73919463D01*
X142106294Y-73917000D01*
X142220803Y-73917000D01*
X142438150Y-73873767D01*
X142642887Y-73788962D01*
X142685002Y-73760822D01*
X142685002Y-74363178D01*
X142642887Y-74335038D01*
X142438150Y-74250233D01*
X142220803Y-74207000D01*
X141999197Y-74207000D01*
X141781850Y-74250233D01*
X141577113Y-74335038D01*
X141392855Y-74458156D01*
X141236156Y-74614855D01*
X141113038Y-74799113D01*
X141028233Y-75003850D01*
X140985000Y-75221197D01*
X140985000Y-75442803D01*
X140985156Y-75443585D01*
X140983448Y-75533182D01*
X140980033Y-75611638D01*
X140975115Y-75678344D01*
X140969084Y-75732205D01*
X140962684Y-75771720D01*
X140960684Y-75780416D01*
X140942256Y-75802870D01*
X140895827Y-75889732D01*
X140867236Y-75983982D01*
X140857582Y-76081999D01*
X140860002Y-76106568D01*
X140860001Y-76391655D01*
X135386533Y-81865123D01*
X135363305Y-81748349D01*
X135277596Y-81541429D01*
X135153165Y-81355205D01*
X134994795Y-81196835D01*
X134808571Y-81072404D01*
X134601651Y-80986695D01*
X134381985Y-80943000D01*
X134158015Y-80943000D01*
X133938349Y-80986695D01*
X133731429Y-81072404D01*
X133545205Y-81196835D01*
X133386835Y-81355205D01*
X133262404Y-81541429D01*
X133176695Y-81748349D01*
X133133000Y-81968015D01*
X133133000Y-82191985D01*
X133176695Y-82411651D01*
X133262404Y-82618571D01*
X133386835Y-82804795D01*
X133545205Y-82963165D01*
X133731429Y-83087596D01*
X133938349Y-83173305D01*
X134055123Y-83196533D01*
X131858819Y-85392838D01*
X131839736Y-85408499D01*
X131777254Y-85484634D01*
X131730825Y-85571496D01*
X131702234Y-85665746D01*
X131692580Y-85763763D01*
X131695000Y-85788333D01*
X131694999Y-87070278D01*
X131603844Y-86933855D01*
X131447145Y-86777156D01*
X131262887Y-86654038D01*
X131058150Y-86569233D01*
X130840803Y-86526000D01*
X130619197Y-86526000D01*
X130401850Y-86569233D01*
X130197113Y-86654038D01*
X130012855Y-86777156D01*
X129856156Y-86933855D01*
X129733038Y-87118113D01*
X129648233Y-87322850D01*
X129605000Y-87540197D01*
X129605000Y-87761803D01*
X129648233Y-87979150D01*
X129733038Y-88183887D01*
X129856156Y-88368145D01*
X130012855Y-88524844D01*
X130197113Y-88647962D01*
X130401850Y-88732767D01*
X130510514Y-88754382D01*
X119304897Y-99960000D01*
X105550402Y-99960000D01*
X105386524Y-99954261D01*
X105236463Y-99937957D01*
X105093461Y-99911147D01*
X104957026Y-99874026D01*
X104826525Y-99826639D01*
X104701372Y-99768901D01*
X104580898Y-99700514D01*
X104464637Y-99621098D01*
X104352214Y-99530163D01*
X104238541Y-99422576D01*
X104130258Y-99314293D01*
X103888675Y-99152872D01*
X103620242Y-99041683D01*
X103335275Y-98985000D01*
X103044725Y-98985000D01*
X102759758Y-99041683D01*
X102491325Y-99152872D01*
X102249742Y-99314293D01*
X102044293Y-99519742D01*
X101882872Y-99761325D01*
X101771683Y-100029758D01*
X101715000Y-100314725D01*
X90400000Y-100314725D01*
X90400000Y-97774725D01*
X108065000Y-97774725D01*
X108065000Y-98065275D01*
X108121683Y-98350242D01*
X108232872Y-98618675D01*
X108394293Y-98860258D01*
X108599742Y-99065707D01*
X108841325Y-99227128D01*
X109109758Y-99338317D01*
X109394725Y-99395000D01*
X109685275Y-99395000D01*
X109970242Y-99338317D01*
X110238675Y-99227128D01*
X110480258Y-99065707D01*
X110685707Y-98860258D01*
X110847128Y-98618675D01*
X110958317Y-98350242D01*
X111015000Y-98065275D01*
X111015000Y-97774725D01*
X110958317Y-97489758D01*
X110847128Y-97221325D01*
X110685707Y-96979742D01*
X110480258Y-96774293D01*
X110238675Y-96612872D01*
X109970242Y-96501683D01*
X109685275Y-96445000D01*
X109394725Y-96445000D01*
X109109758Y-96501683D01*
X108841325Y-96612872D01*
X108599742Y-96774293D01*
X108394293Y-96979742D01*
X108232872Y-97221325D01*
X108121683Y-97489758D01*
X108065000Y-97774725D01*
X90400000Y-97774725D01*
X90400000Y-95541197D01*
X120765000Y-95541197D01*
X120765000Y-95762803D01*
X120808233Y-95980150D01*
X120893038Y-96184887D01*
X121016156Y-96369145D01*
X121172855Y-96525844D01*
X121357113Y-96648962D01*
X121561850Y-96733767D01*
X121779197Y-96777000D01*
X122000803Y-96777000D01*
X122218150Y-96733767D01*
X122422887Y-96648962D01*
X122607145Y-96525844D01*
X122763844Y-96369145D01*
X122886962Y-96184887D01*
X122971767Y-95980150D01*
X123015000Y-95762803D01*
X123015000Y-95541197D01*
X122971767Y-95323850D01*
X122886962Y-95119113D01*
X122763844Y-94934855D01*
X122607145Y-94778156D01*
X122422887Y-94655038D01*
X122218150Y-94570233D01*
X122000803Y-94527000D01*
X121779197Y-94527000D01*
X121561850Y-94570233D01*
X121357113Y-94655038D01*
X121172855Y-94778156D01*
X121016156Y-94934855D01*
X120893038Y-95119113D01*
X120808233Y-95323850D01*
X120765000Y-95541197D01*
X90400000Y-95541197D01*
X90400000Y-93001197D01*
X120765000Y-93001197D01*
X120765000Y-93222803D01*
X120808233Y-93440150D01*
X120893038Y-93644887D01*
X121016156Y-93829145D01*
X121172855Y-93985844D01*
X121357113Y-94108962D01*
X121561850Y-94193767D01*
X121779197Y-94237000D01*
X122000803Y-94237000D01*
X122218150Y-94193767D01*
X122422887Y-94108962D01*
X122607145Y-93985844D01*
X122763844Y-93829145D01*
X122886962Y-93644887D01*
X122971767Y-93440150D01*
X123015000Y-93222803D01*
X123015000Y-93001197D01*
X122971767Y-92783850D01*
X122886962Y-92579113D01*
X122763844Y-92394855D01*
X122607145Y-92238156D01*
X122422887Y-92115038D01*
X122218150Y-92030233D01*
X122000803Y-91987000D01*
X121779197Y-91987000D01*
X121561850Y-92030233D01*
X121357113Y-92115038D01*
X121172855Y-92238156D01*
X121016156Y-92394855D01*
X120893038Y-92579113D01*
X120808233Y-92783850D01*
X120765000Y-93001197D01*
X90400000Y-93001197D01*
X90400000Y-91388092D01*
X121250684Y-91388092D01*
X121330744Y-91554412D01*
X121533149Y-91644641D01*
X121749268Y-91693649D01*
X121970795Y-91699552D01*
X122189216Y-91662124D01*
X122396140Y-91582803D01*
X122449256Y-91554412D01*
X122529316Y-91388092D01*
X121890000Y-90748777D01*
X121250684Y-91388092D01*
X90400000Y-91388092D01*
X90400000Y-90652795D01*
X120762448Y-90652795D01*
X120799876Y-90871216D01*
X120879197Y-91078140D01*
X120907588Y-91131256D01*
X121073908Y-91211316D01*
X121713223Y-90572000D01*
X122066777Y-90572000D01*
X122706092Y-91211316D01*
X122872412Y-91131256D01*
X122962641Y-90928851D01*
X123011649Y-90712732D01*
X123017552Y-90491205D01*
X122980124Y-90272784D01*
X122900803Y-90065860D01*
X122872412Y-90012744D01*
X122706092Y-89932684D01*
X122066777Y-90572000D01*
X121713223Y-90572000D01*
X121073908Y-89932684D01*
X120907588Y-90012744D01*
X120817359Y-90215149D01*
X120768351Y-90431268D01*
X120762448Y-90652795D01*
X90400000Y-90652795D01*
X90400000Y-89755908D01*
X121250684Y-89755908D01*
X121890000Y-90395223D01*
X122529316Y-89755908D01*
X122449256Y-89589588D01*
X122246851Y-89499359D01*
X122030732Y-89450351D01*
X121809205Y-89444448D01*
X121590784Y-89481876D01*
X121383860Y-89561197D01*
X121330744Y-89589588D01*
X121250684Y-89755908D01*
X90400000Y-89755908D01*
X90400000Y-88307515D01*
X103154500Y-88307515D01*
X103154500Y-88531485D01*
X103198195Y-88751151D01*
X103283904Y-88958071D01*
X103408335Y-89144295D01*
X103566705Y-89302665D01*
X103752929Y-89427096D01*
X103959849Y-89512805D01*
X104179515Y-89556500D01*
X104403485Y-89556500D01*
X104623151Y-89512805D01*
X104830071Y-89427096D01*
X105016295Y-89302665D01*
X105174665Y-89144295D01*
X105299096Y-88958071D01*
X105384805Y-88751151D01*
X105428500Y-88531485D01*
X105428500Y-88307515D01*
X105694500Y-88307515D01*
X105694500Y-88531485D01*
X105738195Y-88751151D01*
X105823904Y-88958071D01*
X105948335Y-89144295D01*
X106106705Y-89302665D01*
X106292929Y-89427096D01*
X106499849Y-89512805D01*
X106719515Y-89556500D01*
X106943485Y-89556500D01*
X107163151Y-89512805D01*
X107370071Y-89427096D01*
X107556295Y-89302665D01*
X107714665Y-89144295D01*
X107839096Y-88958071D01*
X107924805Y-88751151D01*
X107968500Y-88531485D01*
X107968500Y-88307515D01*
X108234500Y-88307515D01*
X108234500Y-88531485D01*
X108278195Y-88751151D01*
X108363904Y-88958071D01*
X108488335Y-89144295D01*
X108646705Y-89302665D01*
X108832929Y-89427096D01*
X109039849Y-89512805D01*
X109259515Y-89556500D01*
X109483485Y-89556500D01*
X109703151Y-89512805D01*
X109910071Y-89427096D01*
X110096295Y-89302665D01*
X110254665Y-89144295D01*
X110379096Y-88958071D01*
X110464805Y-88751151D01*
X110508500Y-88531485D01*
X110508500Y-88307515D01*
X110464805Y-88087849D01*
X110395776Y-87921197D01*
X120765000Y-87921197D01*
X120765000Y-88142803D01*
X120808233Y-88360150D01*
X120893038Y-88564887D01*
X121016156Y-88749145D01*
X121172855Y-88905844D01*
X121357113Y-89028962D01*
X121561850Y-89113767D01*
X121779197Y-89157000D01*
X122000803Y-89157000D01*
X122218150Y-89113767D01*
X122422887Y-89028962D01*
X122607145Y-88905844D01*
X122763844Y-88749145D01*
X122886962Y-88564887D01*
X122971767Y-88360150D01*
X123015000Y-88142803D01*
X123015000Y-87921197D01*
X122971767Y-87703850D01*
X122886962Y-87499113D01*
X122763844Y-87314855D01*
X122607145Y-87158156D01*
X122422887Y-87035038D01*
X122218150Y-86950233D01*
X122000803Y-86907000D01*
X121779197Y-86907000D01*
X121561850Y-86950233D01*
X121357113Y-87035038D01*
X121172855Y-87158156D01*
X121016156Y-87314855D01*
X120893038Y-87499113D01*
X120808233Y-87703850D01*
X120765000Y-87921197D01*
X110395776Y-87921197D01*
X110379096Y-87880929D01*
X110254665Y-87694705D01*
X110096295Y-87536335D01*
X109910071Y-87411904D01*
X109703151Y-87326195D01*
X109483485Y-87282500D01*
X109259515Y-87282500D01*
X109039849Y-87326195D01*
X108832929Y-87411904D01*
X108646705Y-87536335D01*
X108488335Y-87694705D01*
X108363904Y-87880929D01*
X108278195Y-88087849D01*
X108234500Y-88307515D01*
X107968500Y-88307515D01*
X107924805Y-88087849D01*
X107839096Y-87880929D01*
X107714665Y-87694705D01*
X107556295Y-87536335D01*
X107370071Y-87411904D01*
X107163151Y-87326195D01*
X106943485Y-87282500D01*
X106719515Y-87282500D01*
X106499849Y-87326195D01*
X106292929Y-87411904D01*
X106106705Y-87536335D01*
X105948335Y-87694705D01*
X105823904Y-87880929D01*
X105738195Y-88087849D01*
X105694500Y-88307515D01*
X105428500Y-88307515D01*
X105384805Y-88087849D01*
X105299096Y-87880929D01*
X105174665Y-87694705D01*
X105016295Y-87536335D01*
X104830071Y-87411904D01*
X104623151Y-87326195D01*
X104403485Y-87282500D01*
X104179515Y-87282500D01*
X103959849Y-87326195D01*
X103752929Y-87411904D01*
X103566705Y-87536335D01*
X103408335Y-87694705D01*
X103283904Y-87880929D01*
X103198195Y-88087849D01*
X103154500Y-88307515D01*
X90400000Y-88307515D01*
X90400000Y-85381197D01*
X120765000Y-85381197D01*
X120765000Y-85602803D01*
X120808233Y-85820150D01*
X120893038Y-86024887D01*
X121016156Y-86209145D01*
X121172855Y-86365844D01*
X121357113Y-86488962D01*
X121561850Y-86573767D01*
X121779197Y-86617000D01*
X122000803Y-86617000D01*
X122218150Y-86573767D01*
X122422887Y-86488962D01*
X122607145Y-86365844D01*
X122763844Y-86209145D01*
X122886962Y-86024887D01*
X122971767Y-85820150D01*
X123015000Y-85602803D01*
X123015000Y-85381197D01*
X122971767Y-85163850D01*
X122886962Y-84959113D01*
X122763844Y-84774855D01*
X122607145Y-84618156D01*
X122422887Y-84495038D01*
X122218150Y-84410233D01*
X122000803Y-84367000D01*
X121779197Y-84367000D01*
X121561850Y-84410233D01*
X121357113Y-84495038D01*
X121172855Y-84618156D01*
X121016156Y-84774855D01*
X120893038Y-84959113D01*
X120808233Y-85163850D01*
X120765000Y-85381197D01*
X90400000Y-85381197D01*
X90400000Y-81968015D01*
X104593000Y-81968015D01*
X104593000Y-82191985D01*
X104636695Y-82411651D01*
X104722404Y-82618571D01*
X104846835Y-82804795D01*
X105005205Y-82963165D01*
X105191429Y-83087596D01*
X105398349Y-83173305D01*
X105618015Y-83217000D01*
X105841985Y-83217000D01*
X106061651Y-83173305D01*
X106268571Y-83087596D01*
X106454795Y-82963165D01*
X106613165Y-82804795D01*
X106737596Y-82618571D01*
X106823305Y-82411651D01*
X106867000Y-82191985D01*
X106867000Y-81968015D01*
X107133000Y-81968015D01*
X107133000Y-82191985D01*
X107176695Y-82411651D01*
X107262404Y-82618571D01*
X107386835Y-82804795D01*
X107545205Y-82963165D01*
X107731429Y-83087596D01*
X107938349Y-83173305D01*
X108158015Y-83217000D01*
X108381985Y-83217000D01*
X108601651Y-83173305D01*
X108808571Y-83087596D01*
X108994795Y-82963165D01*
X109116763Y-82841197D01*
X120765000Y-82841197D01*
X120765000Y-83062803D01*
X120808233Y-83280150D01*
X120893038Y-83484887D01*
X121016156Y-83669145D01*
X121172855Y-83825844D01*
X121357113Y-83948962D01*
X121561850Y-84033767D01*
X121779197Y-84077000D01*
X122000803Y-84077000D01*
X122218150Y-84033767D01*
X122422887Y-83948962D01*
X122607145Y-83825844D01*
X122763844Y-83669145D01*
X122886962Y-83484887D01*
X122971767Y-83280150D01*
X123015000Y-83062803D01*
X123015000Y-82841197D01*
X122971767Y-82623850D01*
X122886962Y-82419113D01*
X122763844Y-82234855D01*
X122607145Y-82078156D01*
X122442309Y-81968015D01*
X130593000Y-81968015D01*
X130593000Y-82191985D01*
X130636695Y-82411651D01*
X130722404Y-82618571D01*
X130846835Y-82804795D01*
X131005205Y-82963165D01*
X131191429Y-83087596D01*
X131398349Y-83173305D01*
X131618015Y-83217000D01*
X131841985Y-83217000D01*
X132061651Y-83173305D01*
X132268571Y-83087596D01*
X132454795Y-82963165D01*
X132613165Y-82804795D01*
X132737596Y-82618571D01*
X132823305Y-82411651D01*
X132867000Y-82191985D01*
X132867000Y-81968015D01*
X132823305Y-81748349D01*
X132737596Y-81541429D01*
X132613165Y-81355205D01*
X132454795Y-81196835D01*
X132268571Y-81072404D01*
X132061651Y-80986695D01*
X131841985Y-80943000D01*
X131618015Y-80943000D01*
X131398349Y-80986695D01*
X131191429Y-81072404D01*
X131005205Y-81196835D01*
X130846835Y-81355205D01*
X130722404Y-81541429D01*
X130636695Y-81748349D01*
X130593000Y-81968015D01*
X122442309Y-81968015D01*
X122422887Y-81955038D01*
X122218150Y-81870233D01*
X122000803Y-81827000D01*
X121779197Y-81827000D01*
X121561850Y-81870233D01*
X121357113Y-81955038D01*
X121172855Y-82078156D01*
X121016156Y-82234855D01*
X120893038Y-82419113D01*
X120808233Y-82623850D01*
X120765000Y-82841197D01*
X109116763Y-82841197D01*
X109153165Y-82804795D01*
X109277596Y-82618571D01*
X109363305Y-82411651D01*
X109407000Y-82191985D01*
X109407000Y-81968015D01*
X109363305Y-81748349D01*
X109277596Y-81541429D01*
X109153165Y-81355205D01*
X108994795Y-81196835D01*
X108808571Y-81072404D01*
X108601651Y-80986695D01*
X108381985Y-80943000D01*
X108158015Y-80943000D01*
X107938349Y-80986695D01*
X107731429Y-81072404D01*
X107545205Y-81196835D01*
X107386835Y-81355205D01*
X107262404Y-81541429D01*
X107176695Y-81748349D01*
X107133000Y-81968015D01*
X106867000Y-81968015D01*
X106823305Y-81748349D01*
X106737596Y-81541429D01*
X106613165Y-81355205D01*
X106454795Y-81196835D01*
X106268571Y-81072404D01*
X106061651Y-80986695D01*
X105841985Y-80943000D01*
X105618015Y-80943000D01*
X105398349Y-80986695D01*
X105191429Y-81072404D01*
X105005205Y-81196835D01*
X104846835Y-81355205D01*
X104722404Y-81541429D01*
X104636695Y-81748349D01*
X104593000Y-81968015D01*
X90400000Y-81968015D01*
X90400000Y-80301197D01*
X120765000Y-80301197D01*
X120765000Y-80522803D01*
X120808233Y-80740150D01*
X120893038Y-80944887D01*
X121016156Y-81129145D01*
X121172855Y-81285844D01*
X121357113Y-81408962D01*
X121561850Y-81493767D01*
X121779197Y-81537000D01*
X122000803Y-81537000D01*
X122218150Y-81493767D01*
X122422887Y-81408962D01*
X122607145Y-81285844D01*
X122763844Y-81129145D01*
X122886962Y-80944887D01*
X122971767Y-80740150D01*
X123015000Y-80522803D01*
X123015000Y-80301197D01*
X122971767Y-80083850D01*
X122886962Y-79879113D01*
X122763844Y-79694855D01*
X122607145Y-79538156D01*
X122422887Y-79415038D01*
X122218150Y-79330233D01*
X122000803Y-79287000D01*
X121779197Y-79287000D01*
X121561850Y-79330233D01*
X121357113Y-79415038D01*
X121172855Y-79538156D01*
X121016156Y-79694855D01*
X120893038Y-79879113D01*
X120808233Y-80083850D01*
X120765000Y-80301197D01*
X90400000Y-80301197D01*
X90400000Y-76879348D01*
X100695000Y-76879348D01*
X100695000Y-77120652D01*
X100742076Y-77357319D01*
X100834419Y-77580255D01*
X100968481Y-77780892D01*
X101139108Y-77951519D01*
X101339745Y-78085581D01*
X101562681Y-78177924D01*
X101799348Y-78225000D01*
X102040652Y-78225000D01*
X102277319Y-78177924D01*
X102500255Y-78085581D01*
X102700892Y-77951519D01*
X102871519Y-77780892D01*
X103005581Y-77580255D01*
X103097924Y-77357319D01*
X103145000Y-77120652D01*
X103145000Y-76879348D01*
X103097924Y-76642681D01*
X103005581Y-76419745D01*
X102871519Y-76219108D01*
X102700892Y-76048481D01*
X102500255Y-75914419D01*
X102277319Y-75822076D01*
X102040652Y-75775000D01*
X101799348Y-75775000D01*
X101562681Y-75822076D01*
X101339745Y-75914419D01*
X101139108Y-76048481D01*
X100968481Y-76219108D01*
X100834419Y-76419745D01*
X100742076Y-76642681D01*
X100695000Y-76879348D01*
X90400000Y-76879348D01*
X90400000Y-74314725D01*
X101715000Y-74314725D01*
X101715000Y-74605275D01*
X101771683Y-74890242D01*
X101882872Y-75158675D01*
X102044293Y-75400258D01*
X102249742Y-75605707D01*
X102491325Y-75767128D01*
X102759758Y-75878317D01*
X103044725Y-75935000D01*
X103335275Y-75935000D01*
X103620242Y-75878317D01*
X103888675Y-75767128D01*
X104130258Y-75605707D01*
X104238541Y-75497424D01*
X104352214Y-75389837D01*
X104464637Y-75298902D01*
X104580898Y-75219486D01*
X104701372Y-75151099D01*
X104826525Y-75093361D01*
X104957026Y-75045974D01*
X105093461Y-75008853D01*
X105236463Y-74982043D01*
X105386524Y-74965739D01*
X105550402Y-74960000D01*
X105778188Y-74960000D01*
X105486026Y-75155217D01*
X105155217Y-75486026D01*
X104895302Y-75875015D01*
X104716270Y-76307238D01*
X104625000Y-76766083D01*
X104625000Y-77233917D01*
X104716270Y-77692762D01*
X104895302Y-78124985D01*
X105155217Y-78513974D01*
X105486026Y-78844783D01*
X105875015Y-79104698D01*
X106307238Y-79283730D01*
X106766083Y-79375000D01*
X107233917Y-79375000D01*
X107692762Y-79283730D01*
X108124985Y-79104698D01*
X108513974Y-78844783D01*
X108844783Y-78513974D01*
X109104698Y-78124985D01*
X109283730Y-77692762D01*
X109375000Y-77233917D01*
X109375000Y-76879348D01*
X110855000Y-76879348D01*
X110855000Y-77120652D01*
X110902076Y-77357319D01*
X110994419Y-77580255D01*
X111128481Y-77780892D01*
X111299108Y-77951519D01*
X111499745Y-78085581D01*
X111722681Y-78177924D01*
X111959348Y-78225000D01*
X112200652Y-78225000D01*
X112437319Y-78177924D01*
X112660255Y-78085581D01*
X112860892Y-77951519D01*
X113031519Y-77780892D01*
X113165581Y-77580255D01*
X113257924Y-77357319D01*
X113305000Y-77120652D01*
X113305000Y-76879348D01*
X113257924Y-76642681D01*
X113165581Y-76419745D01*
X113031519Y-76219108D01*
X112860892Y-76048481D01*
X112660255Y-75914419D01*
X112437319Y-75822076D01*
X112200652Y-75775000D01*
X111959348Y-75775000D01*
X111722681Y-75822076D01*
X111499745Y-75914419D01*
X111299108Y-76048481D01*
X111128481Y-76219108D01*
X110994419Y-76419745D01*
X110902076Y-76642681D01*
X110855000Y-76879348D01*
X109375000Y-76879348D01*
X109375000Y-76766083D01*
X109283730Y-76307238D01*
X109104698Y-75875015D01*
X108844783Y-75486026D01*
X108513974Y-75155217D01*
X108221812Y-74960000D01*
X118270895Y-74960000D01*
X120464877Y-77153983D01*
X120529065Y-77222825D01*
X120581113Y-77287547D01*
X120625809Y-77352844D01*
X120663653Y-77418944D01*
X120695126Y-77486261D01*
X120720583Y-77555274D01*
X120740281Y-77626635D01*
X120754292Y-77700972D01*
X120762536Y-77778898D01*
X120765000Y-77868300D01*
X120765000Y-77982803D01*
X120808233Y-78200150D01*
X120893038Y-78404887D01*
X121016156Y-78589145D01*
X121172855Y-78745844D01*
X121357113Y-78868962D01*
X121561850Y-78953767D01*
X121779197Y-78997000D01*
X122000803Y-78997000D01*
X122218150Y-78953767D01*
X122422887Y-78868962D01*
X122607145Y-78745844D01*
X122763844Y-78589145D01*
X122886962Y-78404887D01*
X122971767Y-78200150D01*
X123015000Y-77982803D01*
X123015000Y-77761197D01*
X122971767Y-77543850D01*
X122886962Y-77339113D01*
X122763844Y-77154855D01*
X122607145Y-76998156D01*
X122429338Y-76879348D01*
X126695000Y-76879348D01*
X126695000Y-77120652D01*
X126742076Y-77357319D01*
X126834419Y-77580255D01*
X126968481Y-77780892D01*
X127139108Y-77951519D01*
X127339745Y-78085581D01*
X127562681Y-78177924D01*
X127799348Y-78225000D01*
X128040652Y-78225000D01*
X128277319Y-78177924D01*
X128500255Y-78085581D01*
X128700892Y-77951519D01*
X128871519Y-77780892D01*
X129005581Y-77580255D01*
X129097924Y-77357319D01*
X129145000Y-77120652D01*
X129145000Y-76879348D01*
X129097924Y-76642681D01*
X129005581Y-76419745D01*
X128871519Y-76219108D01*
X128700892Y-76048481D01*
X128500255Y-75914419D01*
X128277319Y-75822076D01*
X128040652Y-75775000D01*
X127799348Y-75775000D01*
X127562681Y-75822076D01*
X127339745Y-75914419D01*
X127139108Y-76048481D01*
X126968481Y-76219108D01*
X126834419Y-76419745D01*
X126742076Y-76642681D01*
X126695000Y-76879348D01*
X122429338Y-76879348D01*
X122422887Y-76875038D01*
X122218150Y-76790233D01*
X122000803Y-76747000D01*
X121886300Y-76747000D01*
X121796898Y-76744536D01*
X121718972Y-76736292D01*
X121644635Y-76722281D01*
X121573274Y-76702583D01*
X121504261Y-76677126D01*
X121436944Y-76645653D01*
X121370844Y-76607809D01*
X121305547Y-76563113D01*
X121240825Y-76511065D01*
X121171983Y-76446877D01*
X118848929Y-74123824D01*
X118833264Y-74104736D01*
X118757129Y-74042254D01*
X118670267Y-73995825D01*
X118576017Y-73967235D01*
X118502560Y-73960000D01*
X118478000Y-73957581D01*
X118453440Y-73960000D01*
X105550402Y-73960000D01*
X105386524Y-73954261D01*
X105236463Y-73937957D01*
X105093461Y-73911147D01*
X104957026Y-73874026D01*
X104826525Y-73826639D01*
X104701372Y-73768901D01*
X104580898Y-73700514D01*
X104464637Y-73621098D01*
X104352214Y-73530163D01*
X104238541Y-73422576D01*
X104130258Y-73314293D01*
X103888675Y-73152872D01*
X103620242Y-73041683D01*
X103335275Y-72985000D01*
X103044725Y-72985000D01*
X102759758Y-73041683D01*
X102491325Y-73152872D01*
X102249742Y-73314293D01*
X102044293Y-73519742D01*
X101882872Y-73761325D01*
X101771683Y-74029758D01*
X101715000Y-74314725D01*
X90400000Y-74314725D01*
X90400000Y-71774725D01*
X108065000Y-71774725D01*
X108065000Y-72065275D01*
X108121683Y-72350242D01*
X108232872Y-72618675D01*
X108394293Y-72860258D01*
X108599742Y-73065707D01*
X108841325Y-73227128D01*
X109109758Y-73338317D01*
X109394725Y-73395000D01*
X109685275Y-73395000D01*
X109970242Y-73338317D01*
X110238675Y-73227128D01*
X110480258Y-73065707D01*
X110685707Y-72860258D01*
X110847128Y-72618675D01*
X110958317Y-72350242D01*
X111015000Y-72065275D01*
X111015000Y-71774725D01*
X110958317Y-71489758D01*
X110847128Y-71221325D01*
X110685707Y-70979742D01*
X110480258Y-70774293D01*
X110238675Y-70612872D01*
X109970242Y-70501683D01*
X109685275Y-70445000D01*
X109394725Y-70445000D01*
X109109758Y-70501683D01*
X108841325Y-70612872D01*
X108599742Y-70774293D01*
X108394293Y-70979742D01*
X108232872Y-71221325D01*
X108121683Y-71489758D01*
X108065000Y-71774725D01*
X90400000Y-71774725D01*
X90400000Y-67014841D01*
X90473586Y-66024622D01*
X90689444Y-65070667D01*
X90853851Y-64647893D01*
X91425000Y-64647893D01*
X91425000Y-65352107D01*
X91562385Y-66042789D01*
X91831876Y-66693398D01*
X92223116Y-67278930D01*
X92721070Y-67776884D01*
X93306602Y-68168124D01*
X93957211Y-68437615D01*
X94647893Y-68575000D01*
X95352107Y-68575000D01*
X95402375Y-68565001D01*
X120312580Y-68565001D01*
X120314999Y-68589561D01*
X120315000Y-74232429D01*
X120312580Y-74256999D01*
X120322234Y-74355016D01*
X120339302Y-74411279D01*
X120350825Y-74449266D01*
X120397254Y-74536128D01*
X120459736Y-74612263D01*
X120474799Y-74624625D01*
X120529065Y-74682825D01*
X120581113Y-74747547D01*
X120625809Y-74812844D01*
X120663653Y-74878944D01*
X120695126Y-74946261D01*
X120720583Y-75015274D01*
X120740281Y-75086635D01*
X120754292Y-75160972D01*
X120762536Y-75238898D01*
X120765000Y-75328300D01*
X120765000Y-75442803D01*
X120808233Y-75660150D01*
X120893038Y-75864887D01*
X121016156Y-76049145D01*
X121172855Y-76205844D01*
X121357113Y-76328962D01*
X121561850Y-76413767D01*
X121779197Y-76457000D01*
X122000803Y-76457000D01*
X122218150Y-76413767D01*
X122422887Y-76328962D01*
X122607145Y-76205844D01*
X122763844Y-76049145D01*
X122886962Y-75864887D01*
X122971767Y-75660150D01*
X123015000Y-75442803D01*
X123015000Y-75221197D01*
X122971767Y-75003850D01*
X122886962Y-74799113D01*
X122763844Y-74614855D01*
X122607145Y-74458156D01*
X122422887Y-74335038D01*
X122218150Y-74250233D01*
X122000803Y-74207000D01*
X121886300Y-74207000D01*
X121796898Y-74204536D01*
X121718972Y-74196292D01*
X121644635Y-74182281D01*
X121573274Y-74162583D01*
X121504261Y-74137126D01*
X121436944Y-74105653D01*
X121370844Y-74067809D01*
X121314999Y-74029583D01*
X121314999Y-73760822D01*
X121357113Y-73788962D01*
X121561850Y-73873767D01*
X121779197Y-73917000D01*
X122000803Y-73917000D01*
X122218150Y-73873767D01*
X122422887Y-73788962D01*
X122607145Y-73665844D01*
X122763844Y-73509145D01*
X122886962Y-73324887D01*
X122971767Y-73120150D01*
X123015000Y-72902803D01*
X123015000Y-72681197D01*
X122971767Y-72463850D01*
X122886962Y-72259113D01*
X122763844Y-72074855D01*
X122607145Y-71918156D01*
X122422887Y-71795038D01*
X122373848Y-71774725D01*
X134065000Y-71774725D01*
X134065000Y-72065275D01*
X134121683Y-72350242D01*
X134232872Y-72618675D01*
X134394293Y-72860258D01*
X134599742Y-73065707D01*
X134841325Y-73227128D01*
X135109758Y-73338317D01*
X135394725Y-73395000D01*
X135685275Y-73395000D01*
X135970242Y-73338317D01*
X136238675Y-73227128D01*
X136480258Y-73065707D01*
X136685707Y-72860258D01*
X136847128Y-72618675D01*
X136958317Y-72350242D01*
X137015000Y-72065275D01*
X137015000Y-71774725D01*
X136958317Y-71489758D01*
X136847128Y-71221325D01*
X136685707Y-70979742D01*
X136480258Y-70774293D01*
X136238675Y-70612872D01*
X135970242Y-70501683D01*
X135685275Y-70445000D01*
X135394725Y-70445000D01*
X135109758Y-70501683D01*
X134841325Y-70612872D01*
X134599742Y-70774293D01*
X134394293Y-70979742D01*
X134232872Y-71221325D01*
X134121683Y-71489758D01*
X134065000Y-71774725D01*
X122373848Y-71774725D01*
X122218150Y-71710233D01*
X122000803Y-71667000D01*
X121779197Y-71667000D01*
X121561850Y-71710233D01*
X121357113Y-71795038D01*
X121314999Y-71823178D01*
X121314999Y-71220822D01*
X121357113Y-71248962D01*
X121561850Y-71333767D01*
X121779197Y-71377000D01*
X122000803Y-71377000D01*
X122218150Y-71333767D01*
X122422887Y-71248962D01*
X122607145Y-71125844D01*
X122763844Y-70969145D01*
X122886962Y-70784887D01*
X122971767Y-70580150D01*
X123015000Y-70362803D01*
X123015000Y-70141197D01*
X122971767Y-69923850D01*
X122886962Y-69719113D01*
X122763844Y-69534855D01*
X122607145Y-69378156D01*
X122422887Y-69255038D01*
X122218150Y-69170233D01*
X122000803Y-69127000D01*
X121779197Y-69127000D01*
X121561850Y-69170233D01*
X121357113Y-69255038D01*
X121314999Y-69283178D01*
X121314999Y-68772106D01*
X122250920Y-67836187D01*
X122297746Y-67779129D01*
X122344174Y-67692268D01*
X122372765Y-67598017D01*
X122382419Y-67500000D01*
X122372765Y-67401983D01*
X122344174Y-67307732D01*
X122297746Y-67220871D01*
X122235263Y-67144737D01*
X122159129Y-67082254D01*
X122072268Y-67035826D01*
X121978017Y-67007235D01*
X121880000Y-66997581D01*
X121781983Y-67007235D01*
X121687732Y-67035826D01*
X121600871Y-67082254D01*
X121543813Y-67129080D01*
X120478823Y-68194072D01*
X120459735Y-68209737D01*
X120397253Y-68285872D01*
X120350824Y-68372735D01*
X120339898Y-68408755D01*
X120322234Y-68466984D01*
X120312580Y-68565001D01*
X95402375Y-68565001D01*
X96042789Y-68437615D01*
X96693398Y-68168124D01*
X97278930Y-67776884D01*
X97776884Y-67278930D01*
X98168124Y-66693398D01*
X98437615Y-66042789D01*
X98575000Y-65352107D01*
X98575000Y-64647893D01*
X98437615Y-63957211D01*
X98168124Y-63306602D01*
X97776884Y-62721070D01*
X97278930Y-62223116D01*
X96693398Y-61831876D01*
X96042789Y-61562385D01*
X95352107Y-61425000D01*
X94647893Y-61425000D01*
X93957211Y-61562385D01*
X93306602Y-61831876D01*
X92721070Y-62223116D01*
X92223116Y-62721070D01*
X91831876Y-63306602D01*
X91562385Y-63957211D01*
X91425000Y-64647893D01*
X90853851Y-64647893D01*
X91043933Y-64159101D01*
X91529264Y-63309948D01*
X92134787Y-62541846D01*
X92847179Y-61871694D01*
X93650807Y-61314197D01*
X94528009Y-60881609D01*
X95459512Y-60583433D01*
X96430924Y-60425227D01*
X97008721Y-60400000D01*
X142985159Y-60400000D01*
X143975378Y-60473586D01*
D24*
%TO.N,/LED2*%
G36*
X120986475Y-74263991D02*
G01*
X120987177Y-74264599D01*
X121073844Y-74334295D01*
X121074629Y-74334878D01*
X121164277Y-74396243D01*
X121165141Y-74396785D01*
X121257772Y-74449818D01*
X121258703Y-74450301D01*
X121354317Y-74495003D01*
X121355301Y-74495413D01*
X121453897Y-74531783D01*
X121454913Y-74532110D01*
X121556491Y-74560149D01*
X121557518Y-74560387D01*
X121662079Y-74580095D01*
X121663095Y-74580245D01*
X121770638Y-74591622D01*
X121771624Y-74591687D01*
X121872690Y-74594472D01*
X122137186Y-75579186D01*
X121152472Y-75314690D01*
X121149687Y-75213624D01*
X121149622Y-75212638D01*
X121138245Y-75105095D01*
X121138095Y-75104079D01*
X121118387Y-74999518D01*
X121118149Y-74998491D01*
X121090110Y-74896913D01*
X121089783Y-74895897D01*
X121053413Y-74797301D01*
X121053003Y-74796317D01*
X121008301Y-74700703D01*
X121007818Y-74699772D01*
X120954785Y-74607141D01*
X120954243Y-74606277D01*
X120892878Y-74516629D01*
X120892295Y-74515844D01*
X120822599Y-74429177D01*
X120821991Y-74428475D01*
X120752328Y-74353761D01*
X120911761Y-74194328D01*
X120986475Y-74263991D01*
G37*
X120986475Y-74263991D02*
X120987177Y-74264599D01*
X121073844Y-74334295D01*
X121074629Y-74334878D01*
X121164277Y-74396243D01*
X121165141Y-74396785D01*
X121257772Y-74449818D01*
X121258703Y-74450301D01*
X121354317Y-74495003D01*
X121355301Y-74495413D01*
X121453897Y-74531783D01*
X121454913Y-74532110D01*
X121556491Y-74560149D01*
X121557518Y-74560387D01*
X121662079Y-74580095D01*
X121663095Y-74580245D01*
X121770638Y-74591622D01*
X121771624Y-74591687D01*
X121872690Y-74594472D01*
X122137186Y-75579186D01*
X121152472Y-75314690D01*
X121149687Y-75213624D01*
X121149622Y-75212638D01*
X121138245Y-75105095D01*
X121138095Y-75104079D01*
X121118387Y-74999518D01*
X121118149Y-74998491D01*
X121090110Y-74896913D01*
X121089783Y-74895897D01*
X121053413Y-74797301D01*
X121053003Y-74796317D01*
X121008301Y-74700703D01*
X121007818Y-74699772D01*
X120954785Y-74607141D01*
X120954243Y-74606277D01*
X120892878Y-74516629D01*
X120892295Y-74515844D01*
X120822599Y-74429177D01*
X120821991Y-74428475D01*
X120752328Y-74353761D01*
X120911761Y-74194328D01*
X120986475Y-74263991D01*
%TO.N,/BTN1*%
G36*
X120986475Y-76803991D02*
G01*
X120987177Y-76804599D01*
X121073844Y-76874295D01*
X121074629Y-76874878D01*
X121164277Y-76936243D01*
X121165141Y-76936785D01*
X121257772Y-76989818D01*
X121258703Y-76990301D01*
X121354317Y-77035003D01*
X121355301Y-77035413D01*
X121453897Y-77071783D01*
X121454913Y-77072110D01*
X121556491Y-77100149D01*
X121557518Y-77100387D01*
X121662079Y-77120095D01*
X121663095Y-77120245D01*
X121770638Y-77131622D01*
X121771624Y-77131687D01*
X121872690Y-77134472D01*
X122137186Y-78119186D01*
X121152472Y-77854690D01*
X121149687Y-77753624D01*
X121149622Y-77752638D01*
X121138245Y-77645095D01*
X121138095Y-77644079D01*
X121118387Y-77539518D01*
X121118149Y-77538491D01*
X121090110Y-77436913D01*
X121089783Y-77435897D01*
X121053413Y-77337301D01*
X121053003Y-77336317D01*
X121008301Y-77240703D01*
X121007818Y-77239772D01*
X120954785Y-77147141D01*
X120954243Y-77146277D01*
X120892878Y-77056629D01*
X120892295Y-77055844D01*
X120822599Y-76969177D01*
X120821991Y-76968475D01*
X120752328Y-76893761D01*
X120911761Y-76734328D01*
X120986475Y-76803991D01*
G37*
X120986475Y-76803991D02*
X120987177Y-76804599D01*
X121073844Y-76874295D01*
X121074629Y-76874878D01*
X121164277Y-76936243D01*
X121165141Y-76936785D01*
X121257772Y-76989818D01*
X121258703Y-76990301D01*
X121354317Y-77035003D01*
X121355301Y-77035413D01*
X121453897Y-77071783D01*
X121454913Y-77072110D01*
X121556491Y-77100149D01*
X121557518Y-77100387D01*
X121662079Y-77120095D01*
X121663095Y-77120245D01*
X121770638Y-77131622D01*
X121771624Y-77131687D01*
X121872690Y-77134472D01*
X122137186Y-78119186D01*
X121152472Y-77854690D01*
X121149687Y-77753624D01*
X121149622Y-77752638D01*
X121138245Y-77645095D01*
X121138095Y-77644079D01*
X121118387Y-77539518D01*
X121118149Y-77538491D01*
X121090110Y-77436913D01*
X121089783Y-77435897D01*
X121053413Y-77337301D01*
X121053003Y-77336317D01*
X121008301Y-77240703D01*
X121007818Y-77239772D01*
X120954785Y-77147141D01*
X120954243Y-77146277D01*
X120892878Y-77056629D01*
X120892295Y-77055844D01*
X120822599Y-76969177D01*
X120821991Y-76968475D01*
X120752328Y-76893761D01*
X120911761Y-76734328D01*
X120986475Y-76803991D01*
G36*
X104096310Y-73821774D02*
G01*
X104097053Y-73822424D01*
X104232613Y-73932074D01*
X104233437Y-73932687D01*
X104375074Y-74029437D01*
X104375968Y-74029995D01*
X104523682Y-74113845D01*
X104524631Y-74114332D01*
X104678422Y-74185282D01*
X104679407Y-74185687D01*
X104839274Y-74243737D01*
X104840275Y-74244055D01*
X105006219Y-74289205D01*
X105007213Y-74289433D01*
X105179233Y-74321683D01*
X105180201Y-74321826D01*
X105358298Y-74341176D01*
X105359226Y-74341242D01*
X105531145Y-74347263D01*
X105531145Y-74572737D01*
X105359226Y-74578758D01*
X105358298Y-74578824D01*
X105180201Y-74598174D01*
X105179233Y-74598317D01*
X105007213Y-74630567D01*
X105006219Y-74630795D01*
X104840275Y-74675945D01*
X104839274Y-74676263D01*
X104679407Y-74734313D01*
X104678422Y-74734718D01*
X104524631Y-74805668D01*
X104523682Y-74806155D01*
X104375968Y-74890005D01*
X104375074Y-74890563D01*
X104233437Y-74987313D01*
X104232613Y-74987926D01*
X104097053Y-75097576D01*
X104096310Y-75098226D01*
X103973700Y-75214271D01*
X102665426Y-74460000D01*
X103973700Y-73705729D01*
X104096310Y-73821774D01*
G37*
X104096310Y-73821774D02*
X104097053Y-73822424D01*
X104232613Y-73932074D01*
X104233437Y-73932687D01*
X104375074Y-74029437D01*
X104375968Y-74029995D01*
X104523682Y-74113845D01*
X104524631Y-74114332D01*
X104678422Y-74185282D01*
X104679407Y-74185687D01*
X104839274Y-74243737D01*
X104840275Y-74244055D01*
X105006219Y-74289205D01*
X105007213Y-74289433D01*
X105179233Y-74321683D01*
X105180201Y-74321826D01*
X105358298Y-74341176D01*
X105359226Y-74341242D01*
X105531145Y-74347263D01*
X105531145Y-74572737D01*
X105359226Y-74578758D01*
X105358298Y-74578824D01*
X105180201Y-74598174D01*
X105179233Y-74598317D01*
X105007213Y-74630567D01*
X105006219Y-74630795D01*
X104840275Y-74675945D01*
X104839274Y-74676263D01*
X104679407Y-74734313D01*
X104678422Y-74734718D01*
X104524631Y-74805668D01*
X104523682Y-74806155D01*
X104375968Y-74890005D01*
X104375074Y-74890563D01*
X104233437Y-74987313D01*
X104232613Y-74987926D01*
X104097053Y-75097576D01*
X104096310Y-75098226D01*
X103973700Y-75214271D01*
X102665426Y-74460000D01*
X103973700Y-73705729D01*
X104096310Y-73821774D01*
%TO.N,/BTN2*%
G36*
X142092690Y-73529528D02*
G01*
X141991624Y-73532312D01*
X141990638Y-73532377D01*
X141883095Y-73543754D01*
X141882079Y-73543904D01*
X141777518Y-73563612D01*
X141776491Y-73563850D01*
X141674913Y-73591889D01*
X141673897Y-73592216D01*
X141575301Y-73628587D01*
X141574317Y-73628997D01*
X141478703Y-73673698D01*
X141477772Y-73674181D01*
X141385141Y-73727214D01*
X141384277Y-73727756D01*
X141294629Y-73789121D01*
X141293844Y-73789704D01*
X141207177Y-73859400D01*
X141206475Y-73860008D01*
X141131761Y-73929672D01*
X140972328Y-73770239D01*
X141041991Y-73695524D01*
X141042599Y-73694822D01*
X141112295Y-73608155D01*
X141112878Y-73607370D01*
X141174243Y-73517722D01*
X141174785Y-73516858D01*
X141227818Y-73424227D01*
X141228301Y-73423296D01*
X141273003Y-73327682D01*
X141273413Y-73326698D01*
X141309783Y-73228102D01*
X141310110Y-73227086D01*
X141338149Y-73125508D01*
X141338387Y-73124481D01*
X141358095Y-73019920D01*
X141358245Y-73018904D01*
X141369622Y-72911361D01*
X141369687Y-72910375D01*
X141372472Y-72809310D01*
X142357186Y-72544814D01*
X142092690Y-73529528D01*
G37*
X142092690Y-73529528D02*
X141991624Y-73532312D01*
X141990638Y-73532377D01*
X141883095Y-73543754D01*
X141882079Y-73543904D01*
X141777518Y-73563612D01*
X141776491Y-73563850D01*
X141674913Y-73591889D01*
X141673897Y-73592216D01*
X141575301Y-73628587D01*
X141574317Y-73628997D01*
X141478703Y-73673698D01*
X141477772Y-73674181D01*
X141385141Y-73727214D01*
X141384277Y-73727756D01*
X141294629Y-73789121D01*
X141293844Y-73789704D01*
X141207177Y-73859400D01*
X141206475Y-73860008D01*
X141131761Y-73929672D01*
X140972328Y-73770239D01*
X141041991Y-73695524D01*
X141042599Y-73694822D01*
X141112295Y-73608155D01*
X141112878Y-73607370D01*
X141174243Y-73517722D01*
X141174785Y-73516858D01*
X141227818Y-73424227D01*
X141228301Y-73423296D01*
X141273003Y-73327682D01*
X141273413Y-73326698D01*
X141309783Y-73228102D01*
X141310110Y-73227086D01*
X141338149Y-73125508D01*
X141338387Y-73124481D01*
X141358095Y-73019920D01*
X141358245Y-73018904D01*
X141369622Y-72911361D01*
X141369687Y-72910375D01*
X141372472Y-72809310D01*
X142357186Y-72544814D01*
X142092690Y-73529528D01*
G36*
X130096310Y-73821774D02*
G01*
X130097053Y-73822424D01*
X130232613Y-73932074D01*
X130233437Y-73932687D01*
X130375074Y-74029437D01*
X130375968Y-74029995D01*
X130523682Y-74113845D01*
X130524631Y-74114332D01*
X130678422Y-74185282D01*
X130679407Y-74185687D01*
X130839274Y-74243737D01*
X130840275Y-74244055D01*
X131006219Y-74289205D01*
X131007213Y-74289433D01*
X131179233Y-74321683D01*
X131180201Y-74321826D01*
X131358298Y-74341176D01*
X131359226Y-74341242D01*
X131531145Y-74347263D01*
X131531145Y-74572737D01*
X131359226Y-74578758D01*
X131358298Y-74578824D01*
X131180201Y-74598174D01*
X131179233Y-74598317D01*
X131007213Y-74630567D01*
X131006219Y-74630795D01*
X130840275Y-74675945D01*
X130839274Y-74676263D01*
X130679407Y-74734313D01*
X130678422Y-74734718D01*
X130524631Y-74805668D01*
X130523682Y-74806155D01*
X130375968Y-74890005D01*
X130375074Y-74890563D01*
X130233437Y-74987313D01*
X130232613Y-74987926D01*
X130097053Y-75097576D01*
X130096310Y-75098226D01*
X129973700Y-75214271D01*
X128665426Y-74460000D01*
X129973700Y-73705729D01*
X130096310Y-73821774D01*
G37*
X130096310Y-73821774D02*
X130097053Y-73822424D01*
X130232613Y-73932074D01*
X130233437Y-73932687D01*
X130375074Y-74029437D01*
X130375968Y-74029995D01*
X130523682Y-74113845D01*
X130524631Y-74114332D01*
X130678422Y-74185282D01*
X130679407Y-74185687D01*
X130839274Y-74243737D01*
X130840275Y-74244055D01*
X131006219Y-74289205D01*
X131007213Y-74289433D01*
X131179233Y-74321683D01*
X131180201Y-74321826D01*
X131358298Y-74341176D01*
X131359226Y-74341242D01*
X131531145Y-74347263D01*
X131531145Y-74572737D01*
X131359226Y-74578758D01*
X131358298Y-74578824D01*
X131180201Y-74598174D01*
X131179233Y-74598317D01*
X131007213Y-74630567D01*
X131006219Y-74630795D01*
X130840275Y-74675945D01*
X130839274Y-74676263D01*
X130679407Y-74734313D01*
X130678422Y-74734718D01*
X130524631Y-74805668D01*
X130523682Y-74806155D01*
X130375968Y-74890005D01*
X130375074Y-74890563D01*
X130233437Y-74987313D01*
X130232613Y-74987926D01*
X130097053Y-75097576D01*
X130096310Y-75098226D01*
X129973700Y-75214271D01*
X128665426Y-74460000D01*
X129973700Y-73705729D01*
X130096310Y-73821774D01*
%TO.N,/LED3*%
G36*
X133252690Y-88388528D02*
G01*
X133151624Y-88391312D01*
X133150638Y-88391377D01*
X133043095Y-88402754D01*
X133042079Y-88402904D01*
X132937518Y-88422612D01*
X132936491Y-88422850D01*
X132834913Y-88450889D01*
X132833897Y-88451216D01*
X132735301Y-88487587D01*
X132734317Y-88487997D01*
X132638703Y-88532698D01*
X132637772Y-88533181D01*
X132545141Y-88586214D01*
X132544277Y-88586756D01*
X132454629Y-88648121D01*
X132453844Y-88648704D01*
X132367177Y-88718400D01*
X132366475Y-88719008D01*
X132291761Y-88788672D01*
X132132328Y-88629239D01*
X132201991Y-88554524D01*
X132202599Y-88553822D01*
X132272295Y-88467155D01*
X132272878Y-88466370D01*
X132334243Y-88376722D01*
X132334785Y-88375858D01*
X132387818Y-88283227D01*
X132388301Y-88282296D01*
X132433003Y-88186682D01*
X132433413Y-88185698D01*
X132469783Y-88087102D01*
X132470110Y-88086086D01*
X132498149Y-87984508D01*
X132498387Y-87983481D01*
X132518095Y-87878920D01*
X132518245Y-87877904D01*
X132518759Y-87873049D01*
X132527812Y-87843204D01*
X132532699Y-87793584D01*
X132532699Y-87793582D01*
X132534332Y-87777004D01*
X132532699Y-87760426D01*
X132532699Y-87668249D01*
X133517186Y-87403814D01*
X133252690Y-88388528D01*
G37*
X133252690Y-88388528D02*
X133151624Y-88391312D01*
X133150638Y-88391377D01*
X133043095Y-88402754D01*
X133042079Y-88402904D01*
X132937518Y-88422612D01*
X132936491Y-88422850D01*
X132834913Y-88450889D01*
X132833897Y-88451216D01*
X132735301Y-88487587D01*
X132734317Y-88487997D01*
X132638703Y-88532698D01*
X132637772Y-88533181D01*
X132545141Y-88586214D01*
X132544277Y-88586756D01*
X132454629Y-88648121D01*
X132453844Y-88648704D01*
X132367177Y-88718400D01*
X132366475Y-88719008D01*
X132291761Y-88788672D01*
X132132328Y-88629239D01*
X132201991Y-88554524D01*
X132202599Y-88553822D01*
X132272295Y-88467155D01*
X132272878Y-88466370D01*
X132334243Y-88376722D01*
X132334785Y-88375858D01*
X132387818Y-88283227D01*
X132388301Y-88282296D01*
X132433003Y-88186682D01*
X132433413Y-88185698D01*
X132469783Y-88087102D01*
X132470110Y-88086086D01*
X132498149Y-87984508D01*
X132498387Y-87983481D01*
X132518095Y-87878920D01*
X132518245Y-87877904D01*
X132518759Y-87873049D01*
X132527812Y-87843204D01*
X132532699Y-87793584D01*
X132532699Y-87793582D01*
X132534332Y-87777004D01*
X132532699Y-87760426D01*
X132532699Y-87668249D01*
X133517186Y-87403814D01*
X133252690Y-88388528D01*
G36*
X110289778Y-110058141D02*
G01*
X110290452Y-110058740D01*
X110322338Y-110085090D01*
X110323096Y-110085670D01*
X110355981Y-110108920D01*
X110356822Y-110109466D01*
X110390707Y-110129616D01*
X110391621Y-110130110D01*
X110426505Y-110147160D01*
X110427480Y-110147587D01*
X110463364Y-110161537D01*
X110464382Y-110161884D01*
X110501266Y-110172734D01*
X110502305Y-110172992D01*
X110540189Y-110180742D01*
X110541226Y-110180910D01*
X110580109Y-110185560D01*
X110581123Y-110185640D01*
X110608800Y-110186716D01*
X110608800Y-110412283D01*
X110581124Y-110413359D01*
X110580109Y-110413439D01*
X110541226Y-110418089D01*
X110540189Y-110418257D01*
X110502305Y-110426007D01*
X110501266Y-110426265D01*
X110464382Y-110437115D01*
X110463364Y-110437462D01*
X110427480Y-110451412D01*
X110426505Y-110451839D01*
X110391621Y-110468889D01*
X110390707Y-110469383D01*
X110356822Y-110489533D01*
X110355981Y-110490079D01*
X110323096Y-110513329D01*
X110322338Y-110513909D01*
X110290452Y-110540259D01*
X110289778Y-110540858D01*
X110265769Y-110563752D01*
X109807426Y-110299500D01*
X110265769Y-110035248D01*
X110289778Y-110058141D01*
G37*
X110289778Y-110058141D02*
X110290452Y-110058740D01*
X110322338Y-110085090D01*
X110323096Y-110085670D01*
X110355981Y-110108920D01*
X110356822Y-110109466D01*
X110390707Y-110129616D01*
X110391621Y-110130110D01*
X110426505Y-110147160D01*
X110427480Y-110147587D01*
X110463364Y-110161537D01*
X110464382Y-110161884D01*
X110501266Y-110172734D01*
X110502305Y-110172992D01*
X110540189Y-110180742D01*
X110541226Y-110180910D01*
X110580109Y-110185560D01*
X110581123Y-110185640D01*
X110608800Y-110186716D01*
X110608800Y-110412283D01*
X110581124Y-110413359D01*
X110580109Y-110413439D01*
X110541226Y-110418089D01*
X110540189Y-110418257D01*
X110502305Y-110426007D01*
X110501266Y-110426265D01*
X110464382Y-110437115D01*
X110463364Y-110437462D01*
X110427480Y-110451412D01*
X110426505Y-110451839D01*
X110391621Y-110468889D01*
X110390707Y-110469383D01*
X110356822Y-110489533D01*
X110355981Y-110490079D01*
X110323096Y-110513329D01*
X110322338Y-110513909D01*
X110290452Y-110540259D01*
X110289778Y-110540858D01*
X110265769Y-110563752D01*
X109807426Y-110299500D01*
X110265769Y-110035248D01*
X110289778Y-110058141D01*
%TO.N,/BTN3*%
G36*
X142092764Y-76069251D02*
G01*
X141995158Y-76069138D01*
X141994901Y-76069140D01*
X141896866Y-76071008D01*
X141896556Y-76071018D01*
X141807842Y-76074879D01*
X141807460Y-76074901D01*
X141728068Y-76080755D01*
X141727589Y-76080800D01*
X141657517Y-76088646D01*
X141656900Y-76088730D01*
X141596150Y-76098569D01*
X141595333Y-76098729D01*
X141543903Y-76110560D01*
X141542789Y-76110871D01*
X141500681Y-76124695D01*
X141499124Y-76125322D01*
X141466337Y-76141139D01*
X141464177Y-76142462D01*
X141449537Y-76153574D01*
X141288426Y-75992463D01*
X141299538Y-75977821D01*
X141300860Y-75975662D01*
X141316677Y-75942875D01*
X141317304Y-75941318D01*
X141331128Y-75899210D01*
X141331439Y-75898096D01*
X141343270Y-75846666D01*
X141343430Y-75845849D01*
X141353269Y-75785099D01*
X141353353Y-75784482D01*
X141361199Y-75714410D01*
X141361244Y-75713931D01*
X141367098Y-75634539D01*
X141367120Y-75634157D01*
X141370981Y-75545443D01*
X141370991Y-75545133D01*
X141372859Y-75447098D01*
X141372861Y-75446841D01*
X141372749Y-75349236D01*
X142357186Y-75084814D01*
X142092764Y-76069251D01*
G37*
X142092764Y-76069251D02*
X141995158Y-76069138D01*
X141994901Y-76069140D01*
X141896866Y-76071008D01*
X141896556Y-76071018D01*
X141807842Y-76074879D01*
X141807460Y-76074901D01*
X141728068Y-76080755D01*
X141727589Y-76080800D01*
X141657517Y-76088646D01*
X141656900Y-76088730D01*
X141596150Y-76098569D01*
X141595333Y-76098729D01*
X141543903Y-76110560D01*
X141542789Y-76110871D01*
X141500681Y-76124695D01*
X141499124Y-76125322D01*
X141466337Y-76141139D01*
X141464177Y-76142462D01*
X141449537Y-76153574D01*
X141288426Y-75992463D01*
X141299538Y-75977821D01*
X141300860Y-75975662D01*
X141316677Y-75942875D01*
X141317304Y-75941318D01*
X141331128Y-75899210D01*
X141331439Y-75898096D01*
X141343270Y-75846666D01*
X141343430Y-75845849D01*
X141353269Y-75785099D01*
X141353353Y-75784482D01*
X141361199Y-75714410D01*
X141361244Y-75713931D01*
X141367098Y-75634539D01*
X141367120Y-75634157D01*
X141370981Y-75545443D01*
X141370991Y-75545133D01*
X141372859Y-75447098D01*
X141372861Y-75446841D01*
X141372749Y-75349236D01*
X142357186Y-75084814D01*
X142092764Y-76069251D01*
G36*
X104096310Y-99821774D02*
G01*
X104097053Y-99822424D01*
X104232613Y-99932074D01*
X104233437Y-99932687D01*
X104375074Y-100029437D01*
X104375968Y-100029995D01*
X104523682Y-100113845D01*
X104524631Y-100114332D01*
X104678422Y-100185282D01*
X104679407Y-100185687D01*
X104839274Y-100243737D01*
X104840275Y-100244055D01*
X105006219Y-100289205D01*
X105007213Y-100289433D01*
X105179233Y-100321683D01*
X105180201Y-100321826D01*
X105358298Y-100341176D01*
X105359226Y-100341242D01*
X105531145Y-100347263D01*
X105531145Y-100572737D01*
X105359226Y-100578758D01*
X105358298Y-100578824D01*
X105180201Y-100598174D01*
X105179233Y-100598317D01*
X105007213Y-100630567D01*
X105006219Y-100630795D01*
X104840275Y-100675945D01*
X104839274Y-100676263D01*
X104679407Y-100734313D01*
X104678422Y-100734718D01*
X104524631Y-100805668D01*
X104523682Y-100806155D01*
X104375968Y-100890005D01*
X104375074Y-100890563D01*
X104233437Y-100987313D01*
X104232613Y-100987926D01*
X104097053Y-101097576D01*
X104096310Y-101098226D01*
X103973700Y-101214271D01*
X102665426Y-100460000D01*
X103973700Y-99705729D01*
X104096310Y-99821774D01*
G37*
X104096310Y-99821774D02*
X104097053Y-99822424D01*
X104232613Y-99932074D01*
X104233437Y-99932687D01*
X104375074Y-100029437D01*
X104375968Y-100029995D01*
X104523682Y-100113845D01*
X104524631Y-100114332D01*
X104678422Y-100185282D01*
X104679407Y-100185687D01*
X104839274Y-100243737D01*
X104840275Y-100244055D01*
X105006219Y-100289205D01*
X105007213Y-100289433D01*
X105179233Y-100321683D01*
X105180201Y-100321826D01*
X105358298Y-100341176D01*
X105359226Y-100341242D01*
X105531145Y-100347263D01*
X105531145Y-100572737D01*
X105359226Y-100578758D01*
X105358298Y-100578824D01*
X105180201Y-100598174D01*
X105179233Y-100598317D01*
X105007213Y-100630567D01*
X105006219Y-100630795D01*
X104840275Y-100675945D01*
X104839274Y-100676263D01*
X104679407Y-100734313D01*
X104678422Y-100734718D01*
X104524631Y-100805668D01*
X104523682Y-100806155D01*
X104375968Y-100890005D01*
X104375074Y-100890563D01*
X104233437Y-100987313D01*
X104232613Y-100987926D01*
X104097053Y-101097576D01*
X104096310Y-101098226D01*
X103973700Y-101214271D01*
X102665426Y-100460000D01*
X103973700Y-99705729D01*
X104096310Y-99821774D01*
%TO.N,/BTN4*%
G36*
X130925157Y-98884278D02*
G01*
X130807849Y-99010100D01*
X130807240Y-99010802D01*
X130694988Y-99150418D01*
X130694405Y-99151204D01*
X130595572Y-99295645D01*
X130595030Y-99296509D01*
X130509616Y-99445775D01*
X130509133Y-99446707D01*
X130437138Y-99600798D01*
X130436728Y-99601782D01*
X130378150Y-99760697D01*
X130377823Y-99761713D01*
X130332665Y-99925454D01*
X130332427Y-99926480D01*
X130300687Y-100095045D01*
X130300538Y-100096060D01*
X130282216Y-100269450D01*
X130282151Y-100270436D01*
X130277509Y-100439190D01*
X128819071Y-100830929D01*
X129210810Y-99372491D01*
X129379563Y-99367848D01*
X129380549Y-99367783D01*
X129553939Y-99349461D01*
X129554954Y-99349312D01*
X129723519Y-99317572D01*
X129724545Y-99317334D01*
X129888286Y-99272176D01*
X129889302Y-99271849D01*
X130048217Y-99213272D01*
X130049201Y-99212862D01*
X130203292Y-99140866D01*
X130204224Y-99140383D01*
X130353490Y-99054969D01*
X130354354Y-99054427D01*
X130498795Y-98955594D01*
X130499581Y-98955011D01*
X130639197Y-98842759D01*
X130639899Y-98842150D01*
X130765722Y-98724843D01*
X130925157Y-98884278D01*
G37*
X130925157Y-98884278D02*
X130807849Y-99010100D01*
X130807240Y-99010802D01*
X130694988Y-99150418D01*
X130694405Y-99151204D01*
X130595572Y-99295645D01*
X130595030Y-99296509D01*
X130509616Y-99445775D01*
X130509133Y-99446707D01*
X130437138Y-99600798D01*
X130436728Y-99601782D01*
X130378150Y-99760697D01*
X130377823Y-99761713D01*
X130332665Y-99925454D01*
X130332427Y-99926480D01*
X130300687Y-100095045D01*
X130300538Y-100096060D01*
X130282216Y-100269450D01*
X130282151Y-100270436D01*
X130277509Y-100439190D01*
X128819071Y-100830929D01*
X129210810Y-99372491D01*
X129379563Y-99367848D01*
X129380549Y-99367783D01*
X129553939Y-99349461D01*
X129554954Y-99349312D01*
X129723519Y-99317572D01*
X129724545Y-99317334D01*
X129888286Y-99272176D01*
X129889302Y-99271849D01*
X130048217Y-99213272D01*
X130049201Y-99212862D01*
X130203292Y-99140866D01*
X130204224Y-99140383D01*
X130353490Y-99054969D01*
X130354354Y-99054427D01*
X130498795Y-98955594D01*
X130499581Y-98955011D01*
X130639197Y-98842759D01*
X130639899Y-98842150D01*
X130765722Y-98724843D01*
X130925157Y-98884278D01*
G36*
X142092690Y-78609528D02*
G01*
X141991624Y-78612312D01*
X141990638Y-78612377D01*
X141883095Y-78623754D01*
X141882079Y-78623904D01*
X141777518Y-78643612D01*
X141776491Y-78643850D01*
X141674913Y-78671889D01*
X141673897Y-78672216D01*
X141575301Y-78708587D01*
X141574317Y-78708997D01*
X141478703Y-78753698D01*
X141477772Y-78754181D01*
X141385141Y-78807214D01*
X141384277Y-78807756D01*
X141294629Y-78869121D01*
X141293844Y-78869704D01*
X141207177Y-78939400D01*
X141206475Y-78940008D01*
X141131761Y-79009672D01*
X140972328Y-78850239D01*
X141041991Y-78775524D01*
X141042599Y-78774822D01*
X141112295Y-78688155D01*
X141112878Y-78687370D01*
X141174243Y-78597722D01*
X141174785Y-78596858D01*
X141227818Y-78504227D01*
X141228301Y-78503296D01*
X141273003Y-78407682D01*
X141273413Y-78406698D01*
X141309783Y-78308102D01*
X141310110Y-78307086D01*
X141338149Y-78205508D01*
X141338387Y-78204481D01*
X141358095Y-78099920D01*
X141358245Y-78098904D01*
X141369622Y-77991361D01*
X141369687Y-77990375D01*
X141372472Y-77889310D01*
X142357186Y-77624814D01*
X142092690Y-78609528D01*
G37*
X142092690Y-78609528D02*
X141991624Y-78612312D01*
X141990638Y-78612377D01*
X141883095Y-78623754D01*
X141882079Y-78623904D01*
X141777518Y-78643612D01*
X141776491Y-78643850D01*
X141674913Y-78671889D01*
X141673897Y-78672216D01*
X141575301Y-78708587D01*
X141574317Y-78708997D01*
X141478703Y-78753698D01*
X141477772Y-78754181D01*
X141385141Y-78807214D01*
X141384277Y-78807756D01*
X141294629Y-78869121D01*
X141293844Y-78869704D01*
X141207177Y-78939400D01*
X141206475Y-78940008D01*
X141131761Y-79009672D01*
X140972328Y-78850239D01*
X141041991Y-78775524D01*
X141042599Y-78774822D01*
X141112295Y-78688155D01*
X141112878Y-78687370D01*
X141174243Y-78597722D01*
X141174785Y-78596858D01*
X141227818Y-78504227D01*
X141228301Y-78503296D01*
X141273003Y-78407682D01*
X141273413Y-78406698D01*
X141309783Y-78308102D01*
X141310110Y-78307086D01*
X141338149Y-78205508D01*
X141338387Y-78204481D01*
X141358095Y-78099920D01*
X141358245Y-78098904D01*
X141369622Y-77991361D01*
X141369687Y-77990375D01*
X141372472Y-77889310D01*
X142357186Y-77624814D01*
X142092690Y-78609528D01*
%TO.N,+5V*%
G36*
X146042540Y-102438396D02*
G01*
X146009161Y-102439322D01*
X146008171Y-102439388D01*
X145966475Y-102443820D01*
X145965455Y-102443971D01*
X145924898Y-102451647D01*
X145923869Y-102451886D01*
X145884453Y-102462806D01*
X145883436Y-102463134D01*
X145845160Y-102477298D01*
X145844178Y-102477710D01*
X145807041Y-102495118D01*
X145806111Y-102495601D01*
X145770115Y-102516253D01*
X145769254Y-102516794D01*
X145734398Y-102540690D01*
X145733615Y-102541272D01*
X145699899Y-102568412D01*
X145699200Y-102569018D01*
X145675594Y-102591037D01*
X145516163Y-102431606D01*
X145538181Y-102407998D01*
X145538787Y-102407300D01*
X145565927Y-102373584D01*
X145566509Y-102372801D01*
X145590405Y-102337945D01*
X145590946Y-102337084D01*
X145611598Y-102301088D01*
X145612081Y-102300158D01*
X145629489Y-102263021D01*
X145629901Y-102262039D01*
X145644065Y-102223763D01*
X145644393Y-102222746D01*
X145655313Y-102183330D01*
X145655552Y-102182301D01*
X145663228Y-102141744D01*
X145663379Y-102140724D01*
X145667811Y-102099028D01*
X145667877Y-102098038D01*
X145668803Y-102064660D01*
X146179792Y-101927408D01*
X146042540Y-102438396D01*
G37*
X146042540Y-102438396D02*
X146009161Y-102439322D01*
X146008171Y-102439388D01*
X145966475Y-102443820D01*
X145965455Y-102443971D01*
X145924898Y-102451647D01*
X145923869Y-102451886D01*
X145884453Y-102462806D01*
X145883436Y-102463134D01*
X145845160Y-102477298D01*
X145844178Y-102477710D01*
X145807041Y-102495118D01*
X145806111Y-102495601D01*
X145770115Y-102516253D01*
X145769254Y-102516794D01*
X145734398Y-102540690D01*
X145733615Y-102541272D01*
X145699899Y-102568412D01*
X145699200Y-102569018D01*
X145675594Y-102591037D01*
X145516163Y-102431606D01*
X145538181Y-102407998D01*
X145538787Y-102407300D01*
X145565927Y-102373584D01*
X145566509Y-102372801D01*
X145590405Y-102337945D01*
X145590946Y-102337084D01*
X145611598Y-102301088D01*
X145612081Y-102300158D01*
X145629489Y-102263021D01*
X145629901Y-102262039D01*
X145644065Y-102223763D01*
X145644393Y-102222746D01*
X145655313Y-102183330D01*
X145655552Y-102182301D01*
X145663228Y-102141744D01*
X145663379Y-102140724D01*
X145667811Y-102099028D01*
X145667877Y-102098038D01*
X145668803Y-102064660D01*
X146179792Y-101927408D01*
X146042540Y-102438396D01*
G36*
X129598147Y-109766246D02*
G01*
X129525606Y-109848348D01*
X129524684Y-109849524D01*
X129452927Y-109953091D01*
X129452207Y-109954261D01*
X129389139Y-110070345D01*
X129388601Y-110071462D01*
X129334223Y-110200065D01*
X129333837Y-110201099D01*
X129288147Y-110342220D01*
X129287883Y-110343158D01*
X129250882Y-110496796D01*
X129250709Y-110497637D01*
X129222398Y-110663793D01*
X129222294Y-110664540D01*
X129202671Y-110843215D01*
X129202616Y-110843876D01*
X129191682Y-111035068D01*
X129191662Y-111035653D01*
X129189524Y-111229736D01*
X127528651Y-111675849D01*
X127974764Y-110014976D01*
X128168846Y-110012837D01*
X128169431Y-110012817D01*
X128360623Y-110001883D01*
X128361284Y-110001828D01*
X128539959Y-109982205D01*
X128540706Y-109982101D01*
X128706862Y-109953790D01*
X128707703Y-109953617D01*
X128861341Y-109916616D01*
X128862279Y-109916352D01*
X129003400Y-109870662D01*
X129004434Y-109870276D01*
X129133037Y-109815898D01*
X129134154Y-109815360D01*
X129250238Y-109752292D01*
X129251408Y-109751572D01*
X129354975Y-109679815D01*
X129356151Y-109678893D01*
X129438254Y-109606353D01*
X129598147Y-109766246D01*
G37*
X129598147Y-109766246D02*
X129525606Y-109848348D01*
X129524684Y-109849524D01*
X129452927Y-109953091D01*
X129452207Y-109954261D01*
X129389139Y-110070345D01*
X129388601Y-110071462D01*
X129334223Y-110200065D01*
X129333837Y-110201099D01*
X129288147Y-110342220D01*
X129287883Y-110343158D01*
X129250882Y-110496796D01*
X129250709Y-110497637D01*
X129222398Y-110663793D01*
X129222294Y-110664540D01*
X129202671Y-110843215D01*
X129202616Y-110843876D01*
X129191682Y-111035068D01*
X129191662Y-111035653D01*
X129189524Y-111229736D01*
X127528651Y-111675849D01*
X127974764Y-110014976D01*
X128168846Y-110012837D01*
X128169431Y-110012817D01*
X128360623Y-110001883D01*
X128361284Y-110001828D01*
X128539959Y-109982205D01*
X128540706Y-109982101D01*
X128706862Y-109953790D01*
X128707703Y-109953617D01*
X128861341Y-109916616D01*
X128862279Y-109916352D01*
X129003400Y-109870662D01*
X129004434Y-109870276D01*
X129133037Y-109815898D01*
X129134154Y-109815360D01*
X129250238Y-109752292D01*
X129251408Y-109751572D01*
X129354975Y-109679815D01*
X129356151Y-109678893D01*
X129438254Y-109606353D01*
X129598147Y-109766246D01*
G36*
X104700530Y-62756810D02*
G01*
X104703049Y-62848205D01*
X104703115Y-62849191D01*
X104713499Y-62947328D01*
X104713648Y-62948345D01*
X104731637Y-63043762D01*
X104731875Y-63044789D01*
X104757469Y-63137487D01*
X104757796Y-63138503D01*
X104790994Y-63228482D01*
X104791405Y-63229465D01*
X104832208Y-63316725D01*
X104832691Y-63317657D01*
X104881098Y-63402197D01*
X104881639Y-63403060D01*
X104937651Y-63484881D01*
X104938234Y-63485666D01*
X105001851Y-63564768D01*
X105002459Y-63565470D01*
X105065317Y-63632884D01*
X104905884Y-63792317D01*
X104838470Y-63729459D01*
X104837768Y-63728851D01*
X104758666Y-63665234D01*
X104757881Y-63664651D01*
X104676060Y-63608639D01*
X104675197Y-63608098D01*
X104590657Y-63559691D01*
X104589725Y-63559208D01*
X104502465Y-63518405D01*
X104501482Y-63517994D01*
X104411503Y-63484796D01*
X104410487Y-63484469D01*
X104317789Y-63458875D01*
X104316762Y-63458637D01*
X104221345Y-63440648D01*
X104220328Y-63440499D01*
X104122191Y-63430115D01*
X104121205Y-63430049D01*
X104029810Y-63427530D01*
X103783492Y-62510492D01*
X104700530Y-62756810D01*
G37*
X104700530Y-62756810D02*
X104703049Y-62848205D01*
X104703115Y-62849191D01*
X104713499Y-62947328D01*
X104713648Y-62948345D01*
X104731637Y-63043762D01*
X104731875Y-63044789D01*
X104757469Y-63137487D01*
X104757796Y-63138503D01*
X104790994Y-63228482D01*
X104791405Y-63229465D01*
X104832208Y-63316725D01*
X104832691Y-63317657D01*
X104881098Y-63402197D01*
X104881639Y-63403060D01*
X104937651Y-63484881D01*
X104938234Y-63485666D01*
X105001851Y-63564768D01*
X105002459Y-63565470D01*
X105065317Y-63632884D01*
X104905884Y-63792317D01*
X104838470Y-63729459D01*
X104837768Y-63728851D01*
X104758666Y-63665234D01*
X104757881Y-63664651D01*
X104676060Y-63608639D01*
X104675197Y-63608098D01*
X104590657Y-63559691D01*
X104589725Y-63559208D01*
X104502465Y-63518405D01*
X104501482Y-63517994D01*
X104411503Y-63484796D01*
X104410487Y-63484469D01*
X104317789Y-63458875D01*
X104316762Y-63458637D01*
X104221345Y-63440648D01*
X104220328Y-63440499D01*
X104122191Y-63430115D01*
X104121205Y-63430049D01*
X104029810Y-63427530D01*
X103783492Y-62510492D01*
X104700530Y-62756810D01*
G36*
X143247672Y-92133761D02*
G01*
X143178008Y-92208475D01*
X143177400Y-92209177D01*
X143107704Y-92295844D01*
X143107121Y-92296629D01*
X143045756Y-92386277D01*
X143045214Y-92387141D01*
X142992181Y-92479772D01*
X142991698Y-92480703D01*
X142946997Y-92576317D01*
X142946587Y-92577301D01*
X142910216Y-92675897D01*
X142909889Y-92676913D01*
X142881850Y-92778491D01*
X142881612Y-92779518D01*
X142861904Y-92884079D01*
X142861754Y-92885095D01*
X142850377Y-92992638D01*
X142850312Y-92993624D01*
X142847528Y-93094690D01*
X141862814Y-93359186D01*
X142127310Y-92374472D01*
X142228375Y-92371687D01*
X142229361Y-92371622D01*
X142336904Y-92360245D01*
X142337920Y-92360095D01*
X142442481Y-92340387D01*
X142443508Y-92340149D01*
X142545086Y-92312110D01*
X142546102Y-92311783D01*
X142644698Y-92275413D01*
X142645682Y-92275003D01*
X142741296Y-92230301D01*
X142742227Y-92229818D01*
X142834858Y-92176785D01*
X142835722Y-92176243D01*
X142925370Y-92114878D01*
X142926155Y-92114295D01*
X143012822Y-92044599D01*
X143013524Y-92043991D01*
X143088239Y-91974328D01*
X143247672Y-92133761D01*
G37*
X143247672Y-92133761D02*
X143178008Y-92208475D01*
X143177400Y-92209177D01*
X143107704Y-92295844D01*
X143107121Y-92296629D01*
X143045756Y-92386277D01*
X143045214Y-92387141D01*
X142992181Y-92479772D01*
X142991698Y-92480703D01*
X142946997Y-92576317D01*
X142946587Y-92577301D01*
X142910216Y-92675897D01*
X142909889Y-92676913D01*
X142881850Y-92778491D01*
X142881612Y-92779518D01*
X142861904Y-92884079D01*
X142861754Y-92885095D01*
X142850377Y-92992638D01*
X142850312Y-92993624D01*
X142847528Y-93094690D01*
X141862814Y-93359186D01*
X142127310Y-92374472D01*
X142228375Y-92371687D01*
X142229361Y-92371622D01*
X142336904Y-92360245D01*
X142337920Y-92360095D01*
X142442481Y-92340387D01*
X142443508Y-92340149D01*
X142545086Y-92312110D01*
X142546102Y-92311783D01*
X142644698Y-92275413D01*
X142645682Y-92275003D01*
X142741296Y-92230301D01*
X142742227Y-92229818D01*
X142834858Y-92176785D01*
X142835722Y-92176243D01*
X142925370Y-92114878D01*
X142926155Y-92114295D01*
X143012822Y-92044599D01*
X143013524Y-92043991D01*
X143088239Y-91974328D01*
X143247672Y-92133761D01*
%TO.N,+BATT*%
G36*
X105065317Y-65147116D02*
G01*
X105002459Y-65214529D01*
X105001851Y-65215231D01*
X104938234Y-65294333D01*
X104937651Y-65295118D01*
X104881639Y-65376939D01*
X104881098Y-65377802D01*
X104832691Y-65462342D01*
X104832208Y-65463274D01*
X104791405Y-65550534D01*
X104790994Y-65551517D01*
X104757796Y-65641496D01*
X104757469Y-65642512D01*
X104731875Y-65735210D01*
X104731637Y-65736237D01*
X104713648Y-65831654D01*
X104713499Y-65832671D01*
X104703115Y-65930808D01*
X104703049Y-65931794D01*
X104700530Y-66023190D01*
X103783492Y-66269508D01*
X104029810Y-65352470D01*
X104121205Y-65349950D01*
X104122191Y-65349884D01*
X104220328Y-65339500D01*
X104221345Y-65339351D01*
X104316762Y-65321362D01*
X104317789Y-65321124D01*
X104410487Y-65295530D01*
X104411503Y-65295203D01*
X104501482Y-65262005D01*
X104502465Y-65261594D01*
X104589725Y-65220791D01*
X104590657Y-65220308D01*
X104675197Y-65171901D01*
X104676060Y-65171360D01*
X104757881Y-65115348D01*
X104758666Y-65114765D01*
X104837768Y-65051148D01*
X104838470Y-65050540D01*
X104905884Y-64987683D01*
X105065317Y-65147116D01*
G37*
X105065317Y-65147116D02*
X105002459Y-65214529D01*
X105001851Y-65215231D01*
X104938234Y-65294333D01*
X104937651Y-65295118D01*
X104881639Y-65376939D01*
X104881098Y-65377802D01*
X104832691Y-65462342D01*
X104832208Y-65463274D01*
X104791405Y-65550534D01*
X104790994Y-65551517D01*
X104757796Y-65641496D01*
X104757469Y-65642512D01*
X104731875Y-65735210D01*
X104731637Y-65736237D01*
X104713648Y-65831654D01*
X104713499Y-65832671D01*
X104703115Y-65930808D01*
X104703049Y-65931794D01*
X104700530Y-66023190D01*
X103783492Y-66269508D01*
X104029810Y-65352470D01*
X104121205Y-65349950D01*
X104122191Y-65349884D01*
X104220328Y-65339500D01*
X104221345Y-65339351D01*
X104316762Y-65321362D01*
X104317789Y-65321124D01*
X104410487Y-65295530D01*
X104411503Y-65295203D01*
X104501482Y-65262005D01*
X104502465Y-65261594D01*
X104589725Y-65220791D01*
X104590657Y-65220308D01*
X104675197Y-65171901D01*
X104676060Y-65171360D01*
X104757881Y-65115348D01*
X104758666Y-65114765D01*
X104837768Y-65051148D01*
X104838470Y-65050540D01*
X104905884Y-64987683D01*
X105065317Y-65147116D01*
G36*
X134981138Y-65622107D02*
G01*
X134981841Y-65622716D01*
X135144102Y-65753166D01*
X135144888Y-65753750D01*
X135312762Y-65868607D01*
X135313626Y-65869148D01*
X135487112Y-65968410D01*
X135488044Y-65968893D01*
X135667143Y-66052561D01*
X135668126Y-66052971D01*
X135852837Y-66121045D01*
X135853853Y-66121372D01*
X136044177Y-66173851D01*
X136045203Y-66174089D01*
X136241140Y-66210975D01*
X136242156Y-66211124D01*
X136443706Y-66232415D01*
X136444691Y-66232480D01*
X136642393Y-66237918D01*
X137088549Y-67898949D01*
X135427518Y-67452793D01*
X135422080Y-67255091D01*
X135422015Y-67254106D01*
X135400724Y-67052556D01*
X135400575Y-67051540D01*
X135363689Y-66855603D01*
X135363451Y-66854577D01*
X135310972Y-66664253D01*
X135310645Y-66663237D01*
X135242571Y-66478526D01*
X135242161Y-66477543D01*
X135158493Y-66298444D01*
X135158010Y-66297512D01*
X135058748Y-66124026D01*
X135058207Y-66123162D01*
X134943350Y-65955288D01*
X134942766Y-65954502D01*
X134812316Y-65792241D01*
X134811707Y-65791538D01*
X134674025Y-65643860D01*
X134833460Y-65484425D01*
X134981138Y-65622107D01*
G37*
X134981138Y-65622107D02*
X134981841Y-65622716D01*
X135144102Y-65753166D01*
X135144888Y-65753750D01*
X135312762Y-65868607D01*
X135313626Y-65869148D01*
X135487112Y-65968410D01*
X135488044Y-65968893D01*
X135667143Y-66052561D01*
X135668126Y-66052971D01*
X135852837Y-66121045D01*
X135853853Y-66121372D01*
X136044177Y-66173851D01*
X136045203Y-66174089D01*
X136241140Y-66210975D01*
X136242156Y-66211124D01*
X136443706Y-66232415D01*
X136444691Y-66232480D01*
X136642393Y-66237918D01*
X137088549Y-67898949D01*
X135427518Y-67452793D01*
X135422080Y-67255091D01*
X135422015Y-67254106D01*
X135400724Y-67052556D01*
X135400575Y-67051540D01*
X135363689Y-66855603D01*
X135363451Y-66854577D01*
X135310972Y-66664253D01*
X135310645Y-66663237D01*
X135242571Y-66478526D01*
X135242161Y-66477543D01*
X135158493Y-66298444D01*
X135158010Y-66297512D01*
X135058748Y-66124026D01*
X135058207Y-66123162D01*
X134943350Y-65955288D01*
X134942766Y-65954502D01*
X134812316Y-65792241D01*
X134811707Y-65791538D01*
X134674025Y-65643860D01*
X134833460Y-65484425D01*
X134981138Y-65622107D01*
%TD*%
M02*
