%TF.GenerationSoftware,KiCad,Pcbnew,5.1.6-c6e7f7d~86~ubuntu18.04.1*%
%TF.CreationDate,2020-06-06T16:31:20+02:00*%
%TF.ProjectId,BikeCommunicator,42696b65-436f-46d6-9d75-6e696361746f,rev?*%
%TF.SameCoordinates,Original*%
%TF.FileFunction,Copper,L2,Bot*%
%TF.FilePolarity,Positive*%
%FSLAX46Y46*%
G04 Gerber Fmt 4.6, Leading zero omitted, Abs format (unit mm)*
G04 Created by KiCad (PCBNEW 5.1.6-c6e7f7d~86~ubuntu18.04.1) date 2020-06-06 16:31:20*
%MOMM*%
%LPD*%
G01*
G04 APERTURE LIST*
%TA.AperFunction,ComponentPad*%
%ADD10C,1.524000*%
%TD*%
%TA.AperFunction,ComponentPad*%
%ADD11C,2.200000*%
%TD*%
%TA.AperFunction,ComponentPad*%
%ADD12C,1.500000*%
%TD*%
%TA.AperFunction,ComponentPad*%
%ADD13O,1.600000X1.600000*%
%TD*%
%TA.AperFunction,ComponentPad*%
%ADD14C,1.600000*%
%TD*%
%TA.AperFunction,ViaPad*%
%ADD15C,0.800000*%
%TD*%
%TA.AperFunction,Conductor*%
%ADD16C,0.250000*%
%TD*%
%TA.AperFunction,Conductor*%
%ADD17C,0.254000*%
%TD*%
G04 APERTURE END LIST*
D10*
%TO.P,SW4,4*%
%TO.N,Net-(R6-Pad1)*%
X127508000Y-82550000D03*
%TO.P,SW4,3*%
%TO.N,GND*%
X130048000Y-82550000D03*
D11*
%TO.P,SW4,2*%
%TO.N,/BTN4*%
X124968000Y-74930000D03*
%TO.P,SW4,1*%
%TO.N,GND*%
X131318000Y-72390000D03*
%TD*%
D10*
%TO.P,SW3,4*%
%TO.N,Net-(R5-Pad1)*%
X107442000Y-82550000D03*
%TO.P,SW3,3*%
%TO.N,GND*%
X109982000Y-82550000D03*
D11*
%TO.P,SW3,2*%
%TO.N,/BTN3*%
X104902000Y-74930000D03*
%TO.P,SW3,1*%
%TO.N,GND*%
X111252000Y-72390000D03*
%TD*%
D10*
%TO.P,SW2,4*%
%TO.N,Net-(R2-Pad1)*%
X127508000Y-62484000D03*
%TO.P,SW2,3*%
%TO.N,GND*%
X130048000Y-62484000D03*
D11*
%TO.P,SW2,2*%
%TO.N,/BTN2*%
X124968000Y-54864000D03*
%TO.P,SW2,1*%
%TO.N,GND*%
X131318000Y-52324000D03*
%TD*%
D10*
%TO.P,SW1,4*%
%TO.N,Net-(R1-Pad1)*%
X107442000Y-62484000D03*
%TO.P,SW1,3*%
%TO.N,GND*%
X109982000Y-62484000D03*
D11*
%TO.P,SW1,2*%
%TO.N,/BTN1*%
X104902000Y-54864000D03*
%TO.P,SW1,1*%
%TO.N,GND*%
X111252000Y-52324000D03*
%TD*%
D12*
%TO.P,U2,24*%
%TO.N,/LED3*%
X129540000Y-68961000D03*
%TO.P,U2,23*%
%TO.N,/LED4*%
X127000000Y-68961000D03*
%TO.P,U2,11*%
%TO.N,Net-(U2-Pad11)*%
X118160000Y-52451000D03*
%TO.P,U2,12*%
%TO.N,GND*%
X138380000Y-52451000D03*
%TO.P,U2,10*%
%TO.N,/LED2*%
X118160000Y-54991000D03*
%TO.P,U2,13*%
%TO.N,+3V3*%
X138380000Y-54991000D03*
%TO.P,U2,9*%
%TO.N,/LED1*%
X118160000Y-57531000D03*
%TO.P,U2,14*%
%TO.N,Net-(U2-Pad14)*%
X138380000Y-57531000D03*
%TO.P,U2,8*%
%TO.N,/BTN1*%
X118160000Y-60071000D03*
%TO.P,U2,15*%
%TO.N,Net-(U2-Pad15)*%
X138380000Y-60071000D03*
%TO.P,U2,7*%
%TO.N,Net-(U2-Pad7)*%
X118160000Y-62611000D03*
%TO.P,U2,16*%
%TO.N,Net-(U2-Pad16)*%
X138380000Y-62611000D03*
%TO.P,U2,6*%
%TO.N,Net-(U2-Pad6)*%
X118160000Y-65151000D03*
%TO.P,U2,17*%
%TO.N,Net-(U2-Pad17)*%
X138380000Y-65151000D03*
%TO.P,U2,5*%
%TO.N,GND*%
X118160000Y-67691000D03*
%TO.P,U2,18*%
%TO.N,Net-(U2-Pad18)*%
X138380000Y-67691000D03*
%TO.P,U2,4*%
%TO.N,Net-(U2-Pad4)*%
X118160000Y-70231000D03*
%TO.P,U2,19*%
%TO.N,/BTN4*%
X138380000Y-70231000D03*
%TO.P,U2,3*%
%TO.N,Net-(U2-Pad3)*%
X118160000Y-72771000D03*
%TO.P,U2,20*%
%TO.N,/BTN3*%
X138380000Y-72771000D03*
%TO.P,U2,2*%
%TO.N,Net-(U2-Pad2)*%
X118160000Y-75311000D03*
%TO.P,U2,21*%
%TO.N,/BTN2*%
X138380000Y-75311000D03*
%TO.P,U2,1*%
%TO.N,GND*%
X118160000Y-77851000D03*
%TO.P,U2,22*%
%TO.N,Net-(U2-Pad22)*%
X138380000Y-77851000D03*
%TD*%
D10*
%TO.P,U1,5*%
%TO.N,GND*%
X115150000Y-95490000D03*
%TO.P,U1,4*%
%TO.N,+3V3*%
X115150000Y-98030000D03*
%TO.P,U1,3*%
%TO.N,Net-(U1-Pad3)*%
X98135000Y-81065000D03*
%TO.P,U1,2*%
%TO.N,GND*%
X98135000Y-83605000D03*
%TO.P,U1,1*%
%TO.N,+12V*%
X98135000Y-86145000D03*
%TD*%
D13*
%TO.P,R8,2*%
%TO.N,/BTN4*%
X119761000Y-80645000D03*
D14*
%TO.P,R8,1*%
%TO.N,+3V3*%
X119761000Y-88265000D03*
%TD*%
D13*
%TO.P,R7,2*%
%TO.N,/BTN3*%
X99695000Y-74930000D03*
D14*
%TO.P,R7,1*%
%TO.N,+3V3*%
X99695000Y-67310000D03*
%TD*%
D13*
%TO.P,R6,2*%
%TO.N,/LED4*%
X135128000Y-88773000D03*
D14*
%TO.P,R6,1*%
%TO.N,Net-(R6-Pad1)*%
X127508000Y-88773000D03*
%TD*%
D13*
%TO.P,R5,2*%
%TO.N,/LED3*%
X115062000Y-86487000D03*
D14*
%TO.P,R5,1*%
%TO.N,Net-(R5-Pad1)*%
X107442000Y-86487000D03*
%TD*%
D13*
%TO.P,R4,2*%
%TO.N,/BTN2*%
X137795000Y-80645000D03*
D14*
%TO.P,R4,1*%
%TO.N,+3V3*%
X137795000Y-88265000D03*
%TD*%
D13*
%TO.P,R3,2*%
%TO.N,/BTN1*%
X99695000Y-54864000D03*
D14*
%TO.P,R3,1*%
%TO.N,+3V3*%
X99695000Y-62484000D03*
%TD*%
D13*
%TO.P,R2,2*%
%TO.N,/LED2*%
X135128000Y-66421000D03*
D14*
%TO.P,R2,1*%
%TO.N,Net-(R2-Pad1)*%
X127508000Y-66421000D03*
%TD*%
D13*
%TO.P,R1,2*%
%TO.N,/LED1*%
X115062000Y-66421000D03*
D14*
%TO.P,R1,1*%
%TO.N,Net-(R1-Pad1)*%
X107442000Y-66421000D03*
%TD*%
D15*
%TO.N,/LED2*%
X124968000Y-65278000D03*
%TO.N,/LED4*%
X136144000Y-69760000D03*
%TO.N,/BTN3*%
X123952000Y-73152000D03*
%TO.N,/BTN4*%
X125095000Y-70485000D03*
%TD*%
D16*
%TO.N,/LED1*%
X115062000Y-60629000D02*
X118160000Y-57531000D01*
X115062000Y-66421000D02*
X115062000Y-60629000D01*
%TO.N,/LED2*%
X124968000Y-61799000D02*
X118160000Y-54991000D01*
X124968000Y-65278000D02*
X124968000Y-61799000D01*
%TO.N,Net-(R2-Pad1)*%
X127508000Y-66421000D02*
X127508000Y-62484000D01*
%TO.N,/LED4*%
X134269999Y-67885999D02*
X136144000Y-69760000D01*
X127000000Y-68961000D02*
X128075001Y-67885999D01*
X128075001Y-67885999D02*
X134269999Y-67885999D01*
%TO.N,Net-(R6-Pad1)*%
X127508000Y-82550000D02*
X127508000Y-88773000D01*
%TO.N,/BTN3*%
X123952000Y-73152000D02*
X126168990Y-70935010D01*
X136544010Y-70935010D02*
X138380000Y-72771000D01*
X126168990Y-70935010D02*
X136544010Y-70935010D01*
%TO.N,/BTN4*%
X119761000Y-78581366D02*
X119761000Y-80645000D01*
X123412366Y-74930000D02*
X119761000Y-78581366D01*
X124968000Y-74930000D02*
X123412366Y-74930000D01*
X138126000Y-70485000D02*
X138380000Y-70231000D01*
X125095000Y-70485000D02*
X138126000Y-70485000D01*
%TD*%
D17*
%TO.N,GND*%
G36*
X110531034Y-50736664D02*
G01*
X110332726Y-50842662D01*
X110224893Y-51117288D01*
X111252000Y-52144395D01*
X112279107Y-51117288D01*
X112171274Y-50842662D01*
X111864616Y-50691784D01*
X111745560Y-50660000D01*
X130822201Y-50660000D01*
X130597034Y-50736664D01*
X130398726Y-50842662D01*
X130290893Y-51117288D01*
X131318000Y-52144395D01*
X132345107Y-51117288D01*
X132237274Y-50842662D01*
X131930616Y-50691784D01*
X131811560Y-50660000D01*
X139294000Y-50660000D01*
X139294000Y-51397706D01*
X139273843Y-51377549D01*
X139157387Y-51494005D01*
X139091863Y-51255140D01*
X138844884Y-51139240D01*
X138580040Y-51073750D01*
X138307508Y-51061188D01*
X138037762Y-51102035D01*
X137781168Y-51194723D01*
X137668137Y-51255140D01*
X137602612Y-51494007D01*
X138380000Y-52271395D01*
X138394143Y-52257253D01*
X138573748Y-52436858D01*
X138559605Y-52451000D01*
X138573748Y-52465143D01*
X138394143Y-52644748D01*
X138380000Y-52630605D01*
X137602612Y-53407993D01*
X137668137Y-53646860D01*
X137826477Y-53721164D01*
X137723957Y-53763629D01*
X137497114Y-53915201D01*
X137304201Y-54108114D01*
X137152629Y-54334957D01*
X137048225Y-54587011D01*
X136995000Y-54854589D01*
X136995000Y-55127411D01*
X137048225Y-55394989D01*
X137152629Y-55647043D01*
X137304201Y-55873886D01*
X137497114Y-56066799D01*
X137723957Y-56218371D01*
X137826873Y-56261000D01*
X137723957Y-56303629D01*
X137497114Y-56455201D01*
X137304201Y-56648114D01*
X137152629Y-56874957D01*
X137048225Y-57127011D01*
X136995000Y-57394589D01*
X136995000Y-57667411D01*
X137048225Y-57934989D01*
X137152629Y-58187043D01*
X137304201Y-58413886D01*
X137497114Y-58606799D01*
X137723957Y-58758371D01*
X137826873Y-58801000D01*
X137723957Y-58843629D01*
X137497114Y-58995201D01*
X137304201Y-59188114D01*
X137152629Y-59414957D01*
X137048225Y-59667011D01*
X136995000Y-59934589D01*
X136995000Y-60207411D01*
X137048225Y-60474989D01*
X137152629Y-60727043D01*
X137304201Y-60953886D01*
X137497114Y-61146799D01*
X137723957Y-61298371D01*
X137826873Y-61341000D01*
X137723957Y-61383629D01*
X137497114Y-61535201D01*
X137304201Y-61728114D01*
X137152629Y-61954957D01*
X137048225Y-62207011D01*
X136995000Y-62474589D01*
X136995000Y-62747411D01*
X137048225Y-63014989D01*
X137152629Y-63267043D01*
X137304201Y-63493886D01*
X137497114Y-63686799D01*
X137723957Y-63838371D01*
X137826873Y-63881000D01*
X137723957Y-63923629D01*
X137497114Y-64075201D01*
X137304201Y-64268114D01*
X137152629Y-64494957D01*
X137048225Y-64747011D01*
X136995000Y-65014589D01*
X136995000Y-65287411D01*
X137048225Y-65554989D01*
X137152629Y-65807043D01*
X137304201Y-66033886D01*
X137497114Y-66226799D01*
X137723957Y-66378371D01*
X137826873Y-66421000D01*
X137723957Y-66463629D01*
X137497114Y-66615201D01*
X137304201Y-66808114D01*
X137152629Y-67034957D01*
X137048225Y-67287011D01*
X136995000Y-67554589D01*
X136995000Y-67827411D01*
X137048225Y-68094989D01*
X137152629Y-68347043D01*
X137304201Y-68573886D01*
X137497114Y-68766799D01*
X137723957Y-68918371D01*
X137826873Y-68961000D01*
X137723957Y-69003629D01*
X137497114Y-69155201D01*
X137304201Y-69348114D01*
X137160212Y-69563608D01*
X137139226Y-69458102D01*
X137061205Y-69269744D01*
X136947937Y-69100226D01*
X136803774Y-68956063D01*
X136634256Y-68842795D01*
X136445898Y-68764774D01*
X136245939Y-68725000D01*
X136183802Y-68725000D01*
X135307258Y-67848457D01*
X135546574Y-67800853D01*
X135807727Y-67692680D01*
X136042759Y-67535637D01*
X136242637Y-67335759D01*
X136399680Y-67100727D01*
X136507853Y-66839574D01*
X136563000Y-66562335D01*
X136563000Y-66279665D01*
X136507853Y-66002426D01*
X136399680Y-65741273D01*
X136242637Y-65506241D01*
X136042759Y-65306363D01*
X135807727Y-65149320D01*
X135546574Y-65041147D01*
X135269335Y-64986000D01*
X134986665Y-64986000D01*
X134709426Y-65041147D01*
X134448273Y-65149320D01*
X134213241Y-65306363D01*
X134013363Y-65506241D01*
X133856320Y-65741273D01*
X133748147Y-66002426D01*
X133693000Y-66279665D01*
X133693000Y-66562335D01*
X133748147Y-66839574D01*
X133856320Y-67100727D01*
X133873206Y-67125999D01*
X128762794Y-67125999D01*
X128779680Y-67100727D01*
X128887853Y-66839574D01*
X128943000Y-66562335D01*
X128943000Y-66279665D01*
X128887853Y-66002426D01*
X128779680Y-65741273D01*
X128622637Y-65506241D01*
X128422759Y-65306363D01*
X128268000Y-65202957D01*
X128268000Y-63656341D01*
X128398535Y-63569120D01*
X128518090Y-63449565D01*
X129262040Y-63449565D01*
X129329020Y-63689656D01*
X129578048Y-63806756D01*
X129845135Y-63873023D01*
X130120017Y-63885910D01*
X130392133Y-63844922D01*
X130651023Y-63751636D01*
X130766980Y-63689656D01*
X130833960Y-63449565D01*
X130048000Y-62663605D01*
X129262040Y-63449565D01*
X128518090Y-63449565D01*
X128593120Y-63374535D01*
X128746005Y-63145727D01*
X128775692Y-63074057D01*
X128780364Y-63087023D01*
X128842344Y-63202980D01*
X129082435Y-63269960D01*
X129868395Y-62484000D01*
X130227605Y-62484000D01*
X131013565Y-63269960D01*
X131253656Y-63202980D01*
X131370756Y-62953952D01*
X131437023Y-62686865D01*
X131449910Y-62411983D01*
X131408922Y-62139867D01*
X131315636Y-61880977D01*
X131253656Y-61765020D01*
X131013565Y-61698040D01*
X130227605Y-62484000D01*
X129868395Y-62484000D01*
X129082435Y-61698040D01*
X128842344Y-61765020D01*
X128778515Y-61900760D01*
X128746005Y-61822273D01*
X128593120Y-61593465D01*
X128518090Y-61518435D01*
X129262040Y-61518435D01*
X130048000Y-62304395D01*
X130833960Y-61518435D01*
X130766980Y-61278344D01*
X130517952Y-61161244D01*
X130250865Y-61094977D01*
X129975983Y-61082090D01*
X129703867Y-61123078D01*
X129444977Y-61216364D01*
X129329020Y-61278344D01*
X129262040Y-61518435D01*
X128518090Y-61518435D01*
X128398535Y-61398880D01*
X128169727Y-61245995D01*
X127915490Y-61140686D01*
X127645592Y-61087000D01*
X127370408Y-61087000D01*
X127100510Y-61140686D01*
X126846273Y-61245995D01*
X126617465Y-61398880D01*
X126422880Y-61593465D01*
X126269995Y-61822273D01*
X126164686Y-62076510D01*
X126111000Y-62346408D01*
X126111000Y-62621592D01*
X126164686Y-62891490D01*
X126269995Y-63145727D01*
X126422880Y-63374535D01*
X126617465Y-63569120D01*
X126748001Y-63656341D01*
X126748000Y-65202956D01*
X126593241Y-65306363D01*
X126393363Y-65506241D01*
X126236320Y-65741273D01*
X126128147Y-66002426D01*
X126073000Y-66279665D01*
X126073000Y-66562335D01*
X126128147Y-66839574D01*
X126236320Y-67100727D01*
X126393363Y-67335759D01*
X126593241Y-67535637D01*
X126701810Y-67608180D01*
X126596011Y-67629225D01*
X126343957Y-67733629D01*
X126117114Y-67885201D01*
X125924201Y-68078114D01*
X125772629Y-68304957D01*
X125668225Y-68557011D01*
X125615000Y-68824589D01*
X125615000Y-69097411D01*
X125668225Y-69364989D01*
X125772629Y-69617043D01*
X125844764Y-69725000D01*
X125798711Y-69725000D01*
X125754774Y-69681063D01*
X125585256Y-69567795D01*
X125396898Y-69489774D01*
X125196939Y-69450000D01*
X124993061Y-69450000D01*
X124793102Y-69489774D01*
X124604744Y-69567795D01*
X124435226Y-69681063D01*
X124291063Y-69825226D01*
X124177795Y-69994744D01*
X124099774Y-70183102D01*
X124060000Y-70383061D01*
X124060000Y-70586939D01*
X124099774Y-70786898D01*
X124177795Y-70975256D01*
X124291063Y-71144774D01*
X124435226Y-71288937D01*
X124604744Y-71402205D01*
X124620477Y-71408722D01*
X123912199Y-72117000D01*
X123850061Y-72117000D01*
X123650102Y-72156774D01*
X123461744Y-72234795D01*
X123292226Y-72348063D01*
X123148063Y-72492226D01*
X123034795Y-72661744D01*
X122956774Y-72850102D01*
X122917000Y-73050061D01*
X122917000Y-73253939D01*
X122956774Y-73453898D01*
X123034795Y-73642256D01*
X123148063Y-73811774D01*
X123292226Y-73955937D01*
X123458117Y-74066782D01*
X123430463Y-74108169D01*
X123406120Y-74166939D01*
X123375042Y-74170000D01*
X123375033Y-74170000D01*
X123263380Y-74180997D01*
X123120119Y-74224454D01*
X122988090Y-74295026D01*
X122872365Y-74389999D01*
X122848567Y-74418997D01*
X119541822Y-77725743D01*
X119508965Y-77508762D01*
X119416277Y-77252168D01*
X119355860Y-77139137D01*
X119116993Y-77073612D01*
X118339605Y-77851000D01*
X118353748Y-77865143D01*
X118174143Y-78044748D01*
X118160000Y-78030605D01*
X117382612Y-78807993D01*
X117448137Y-79046860D01*
X117695116Y-79162760D01*
X117959960Y-79228250D01*
X118232492Y-79240812D01*
X118502238Y-79199965D01*
X118758832Y-79107277D01*
X118871863Y-79046860D01*
X118937387Y-78807995D01*
X119001000Y-78871608D01*
X119001000Y-79426956D01*
X118846241Y-79530363D01*
X118646363Y-79730241D01*
X118489320Y-79965273D01*
X118381147Y-80226426D01*
X118326000Y-80503665D01*
X118326000Y-80786335D01*
X118381147Y-81063574D01*
X118489320Y-81324727D01*
X118646363Y-81559759D01*
X118846241Y-81759637D01*
X119081273Y-81916680D01*
X119342426Y-82024853D01*
X119619665Y-82080000D01*
X119902335Y-82080000D01*
X120179574Y-82024853D01*
X120440727Y-81916680D01*
X120675759Y-81759637D01*
X120875637Y-81559759D01*
X121032680Y-81324727D01*
X121140853Y-81063574D01*
X121196000Y-80786335D01*
X121196000Y-80503665D01*
X136360000Y-80503665D01*
X136360000Y-80786335D01*
X136415147Y-81063574D01*
X136523320Y-81324727D01*
X136680363Y-81559759D01*
X136880241Y-81759637D01*
X137115273Y-81916680D01*
X137376426Y-82024853D01*
X137653665Y-82080000D01*
X137936335Y-82080000D01*
X138213574Y-82024853D01*
X138474727Y-81916680D01*
X138709759Y-81759637D01*
X138909637Y-81559759D01*
X139066680Y-81324727D01*
X139174853Y-81063574D01*
X139230000Y-80786335D01*
X139230000Y-80503665D01*
X139174853Y-80226426D01*
X139066680Y-79965273D01*
X138909637Y-79730241D01*
X138709759Y-79530363D01*
X138474727Y-79373320D01*
X138213574Y-79265147D01*
X137936335Y-79210000D01*
X137653665Y-79210000D01*
X137376426Y-79265147D01*
X137115273Y-79373320D01*
X136880241Y-79530363D01*
X136680363Y-79730241D01*
X136523320Y-79965273D01*
X136415147Y-80226426D01*
X136360000Y-80503665D01*
X121196000Y-80503665D01*
X121140853Y-80226426D01*
X121032680Y-79965273D01*
X120875637Y-79730241D01*
X120675759Y-79530363D01*
X120521000Y-79426957D01*
X120521000Y-78896167D01*
X122242690Y-77174477D01*
X122213000Y-77323740D01*
X122213000Y-77616260D01*
X122270068Y-77903158D01*
X122382010Y-78173411D01*
X122544525Y-78416632D01*
X122751368Y-78623475D01*
X122994589Y-78785990D01*
X123264842Y-78897932D01*
X123551740Y-78955000D01*
X123844260Y-78955000D01*
X124131158Y-78897932D01*
X124401411Y-78785990D01*
X124644632Y-78623475D01*
X124851475Y-78416632D01*
X125013990Y-78173411D01*
X125125932Y-77903158D01*
X125183000Y-77616260D01*
X125183000Y-77323740D01*
X125160471Y-77210475D01*
X126143000Y-77210475D01*
X126143000Y-77729525D01*
X126244261Y-78238601D01*
X126442893Y-78718141D01*
X126731262Y-79149715D01*
X127098285Y-79516738D01*
X127529859Y-79805107D01*
X128009399Y-80003739D01*
X128518475Y-80105000D01*
X129037525Y-80105000D01*
X129546601Y-80003739D01*
X130026141Y-79805107D01*
X130457715Y-79516738D01*
X130824738Y-79149715D01*
X131113107Y-78718141D01*
X131311739Y-78238601D01*
X131413000Y-77729525D01*
X131413000Y-77323740D01*
X132373000Y-77323740D01*
X132373000Y-77616260D01*
X132430068Y-77903158D01*
X132542010Y-78173411D01*
X132704525Y-78416632D01*
X132911368Y-78623475D01*
X133154589Y-78785990D01*
X133424842Y-78897932D01*
X133711740Y-78955000D01*
X134004260Y-78955000D01*
X134291158Y-78897932D01*
X134561411Y-78785990D01*
X134804632Y-78623475D01*
X135011475Y-78416632D01*
X135173990Y-78173411D01*
X135285932Y-77903158D01*
X135343000Y-77616260D01*
X135343000Y-77323740D01*
X135285932Y-77036842D01*
X135173990Y-76766589D01*
X135011475Y-76523368D01*
X134804632Y-76316525D01*
X134561411Y-76154010D01*
X134291158Y-76042068D01*
X134004260Y-75985000D01*
X133711740Y-75985000D01*
X133424842Y-76042068D01*
X133154589Y-76154010D01*
X132911368Y-76316525D01*
X132704525Y-76523368D01*
X132542010Y-76766589D01*
X132430068Y-77036842D01*
X132373000Y-77323740D01*
X131413000Y-77323740D01*
X131413000Y-77210475D01*
X131311739Y-76701399D01*
X131113107Y-76221859D01*
X130824738Y-75790285D01*
X130457715Y-75423262D01*
X130026141Y-75134893D01*
X129546601Y-74936261D01*
X129037525Y-74835000D01*
X128518475Y-74835000D01*
X128009399Y-74936261D01*
X127529859Y-75134893D01*
X127098285Y-75423262D01*
X126731262Y-75790285D01*
X126442893Y-76221859D01*
X126244261Y-76701399D01*
X126143000Y-77210475D01*
X125160471Y-77210475D01*
X125125932Y-77036842D01*
X125013990Y-76766589D01*
X124946110Y-76665000D01*
X125138883Y-76665000D01*
X125474081Y-76598325D01*
X125789831Y-76467537D01*
X126073998Y-76277663D01*
X126315663Y-76035998D01*
X126505537Y-75751831D01*
X126636325Y-75436081D01*
X126703000Y-75100883D01*
X126703000Y-74759117D01*
X126636325Y-74423919D01*
X126505537Y-74108169D01*
X126315663Y-73824002D01*
X126088373Y-73596712D01*
X130290893Y-73596712D01*
X130398726Y-73871338D01*
X130705384Y-74022216D01*
X131035585Y-74110369D01*
X131376639Y-74132409D01*
X131715439Y-74087489D01*
X132038966Y-73977336D01*
X132237274Y-73871338D01*
X132345107Y-73596712D01*
X131318000Y-72569605D01*
X130290893Y-73596712D01*
X126088373Y-73596712D01*
X126073998Y-73582337D01*
X125789831Y-73392463D01*
X125474081Y-73261675D01*
X125138883Y-73195000D01*
X124987000Y-73195000D01*
X124987000Y-73191801D01*
X126483792Y-71695010D01*
X129726313Y-71695010D01*
X129685784Y-71777384D01*
X129597631Y-72107585D01*
X129575591Y-72448639D01*
X129620511Y-72787439D01*
X129730664Y-73110966D01*
X129836662Y-73309274D01*
X130111288Y-73417107D01*
X131138395Y-72390000D01*
X131124253Y-72375858D01*
X131303858Y-72196253D01*
X131318000Y-72210395D01*
X131332143Y-72196253D01*
X131511748Y-72375858D01*
X131497605Y-72390000D01*
X132524712Y-73417107D01*
X132799338Y-73309274D01*
X132950216Y-73002616D01*
X133038369Y-72672415D01*
X133060409Y-72331361D01*
X133015489Y-71992561D01*
X132914180Y-71695010D01*
X136229209Y-71695010D01*
X137023833Y-72489635D01*
X136995000Y-72634589D01*
X136995000Y-72907411D01*
X137048225Y-73174989D01*
X137152629Y-73427043D01*
X137304201Y-73653886D01*
X137497114Y-73846799D01*
X137723957Y-73998371D01*
X137826873Y-74041000D01*
X137723957Y-74083629D01*
X137497114Y-74235201D01*
X137304201Y-74428114D01*
X137152629Y-74654957D01*
X137048225Y-74907011D01*
X136995000Y-75174589D01*
X136995000Y-75447411D01*
X137048225Y-75714989D01*
X137152629Y-75967043D01*
X137304201Y-76193886D01*
X137497114Y-76386799D01*
X137723957Y-76538371D01*
X137826873Y-76581000D01*
X137723957Y-76623629D01*
X137497114Y-76775201D01*
X137304201Y-76968114D01*
X137152629Y-77194957D01*
X137048225Y-77447011D01*
X136995000Y-77714589D01*
X136995000Y-77987411D01*
X137048225Y-78254989D01*
X137152629Y-78507043D01*
X137304201Y-78733886D01*
X137497114Y-78926799D01*
X137723957Y-79078371D01*
X137976011Y-79182775D01*
X138243589Y-79236000D01*
X138516411Y-79236000D01*
X138783989Y-79182775D01*
X139036043Y-79078371D01*
X139262886Y-78926799D01*
X139294001Y-78895684D01*
X139294001Y-99340000D01*
X115637917Y-99340000D01*
X115811727Y-99268005D01*
X116040535Y-99115120D01*
X116235120Y-98920535D01*
X116388005Y-98691727D01*
X116493314Y-98437490D01*
X116547000Y-98167592D01*
X116547000Y-97892408D01*
X116493314Y-97622510D01*
X116388005Y-97368273D01*
X116235120Y-97139465D01*
X116040535Y-96944880D01*
X115811727Y-96791995D01*
X115740057Y-96762308D01*
X115753023Y-96757636D01*
X115868980Y-96695656D01*
X115935960Y-96455565D01*
X115150000Y-95669605D01*
X114364040Y-96455565D01*
X114431020Y-96695656D01*
X114566760Y-96759485D01*
X114488273Y-96791995D01*
X114259465Y-96944880D01*
X114064880Y-97139465D01*
X113911995Y-97368273D01*
X113806686Y-97622510D01*
X113753000Y-97892408D01*
X113753000Y-98167592D01*
X113806686Y-98437490D01*
X113911995Y-98691727D01*
X114064880Y-98920535D01*
X114259465Y-99115120D01*
X114488273Y-99268005D01*
X114662083Y-99340000D01*
X97180000Y-99340000D01*
X97180000Y-95562017D01*
X113748090Y-95562017D01*
X113789078Y-95834133D01*
X113882364Y-96093023D01*
X113944344Y-96208980D01*
X114184435Y-96275960D01*
X114970395Y-95490000D01*
X115329605Y-95490000D01*
X116115565Y-96275960D01*
X116355656Y-96208980D01*
X116472756Y-95959952D01*
X116539023Y-95692865D01*
X116551910Y-95417983D01*
X116510922Y-95145867D01*
X116417636Y-94886977D01*
X116355656Y-94771020D01*
X116115565Y-94704040D01*
X115329605Y-95490000D01*
X114970395Y-95490000D01*
X114184435Y-94704040D01*
X113944344Y-94771020D01*
X113827244Y-95020048D01*
X113760977Y-95287135D01*
X113748090Y-95562017D01*
X97180000Y-95562017D01*
X97180000Y-94524435D01*
X114364040Y-94524435D01*
X115150000Y-95310395D01*
X115935960Y-94524435D01*
X115868980Y-94284344D01*
X115619952Y-94167244D01*
X115352865Y-94100977D01*
X115077983Y-94088090D01*
X114805867Y-94129078D01*
X114546977Y-94222364D01*
X114431020Y-94284344D01*
X114364040Y-94524435D01*
X97180000Y-94524435D01*
X97180000Y-88123665D01*
X118326000Y-88123665D01*
X118326000Y-88406335D01*
X118381147Y-88683574D01*
X118489320Y-88944727D01*
X118646363Y-89179759D01*
X118846241Y-89379637D01*
X119081273Y-89536680D01*
X119342426Y-89644853D01*
X119619665Y-89700000D01*
X119902335Y-89700000D01*
X120179574Y-89644853D01*
X120440727Y-89536680D01*
X120675759Y-89379637D01*
X120875637Y-89179759D01*
X121032680Y-88944727D01*
X121140853Y-88683574D01*
X121151178Y-88631665D01*
X126073000Y-88631665D01*
X126073000Y-88914335D01*
X126128147Y-89191574D01*
X126236320Y-89452727D01*
X126393363Y-89687759D01*
X126593241Y-89887637D01*
X126828273Y-90044680D01*
X127089426Y-90152853D01*
X127366665Y-90208000D01*
X127649335Y-90208000D01*
X127926574Y-90152853D01*
X128187727Y-90044680D01*
X128422759Y-89887637D01*
X128622637Y-89687759D01*
X128779680Y-89452727D01*
X128887853Y-89191574D01*
X128943000Y-88914335D01*
X128943000Y-88631665D01*
X133693000Y-88631665D01*
X133693000Y-88914335D01*
X133748147Y-89191574D01*
X133856320Y-89452727D01*
X134013363Y-89687759D01*
X134213241Y-89887637D01*
X134448273Y-90044680D01*
X134709426Y-90152853D01*
X134986665Y-90208000D01*
X135269335Y-90208000D01*
X135546574Y-90152853D01*
X135807727Y-90044680D01*
X136042759Y-89887637D01*
X136242637Y-89687759D01*
X136399680Y-89452727D01*
X136507853Y-89191574D01*
X136549239Y-88983517D01*
X136680363Y-89179759D01*
X136880241Y-89379637D01*
X137115273Y-89536680D01*
X137376426Y-89644853D01*
X137653665Y-89700000D01*
X137936335Y-89700000D01*
X138213574Y-89644853D01*
X138474727Y-89536680D01*
X138709759Y-89379637D01*
X138909637Y-89179759D01*
X139066680Y-88944727D01*
X139174853Y-88683574D01*
X139230000Y-88406335D01*
X139230000Y-88123665D01*
X139174853Y-87846426D01*
X139066680Y-87585273D01*
X138909637Y-87350241D01*
X138709759Y-87150363D01*
X138474727Y-86993320D01*
X138213574Y-86885147D01*
X137936335Y-86830000D01*
X137653665Y-86830000D01*
X137376426Y-86885147D01*
X137115273Y-86993320D01*
X136880241Y-87150363D01*
X136680363Y-87350241D01*
X136523320Y-87585273D01*
X136415147Y-87846426D01*
X136373761Y-88054483D01*
X136242637Y-87858241D01*
X136042759Y-87658363D01*
X135807727Y-87501320D01*
X135546574Y-87393147D01*
X135269335Y-87338000D01*
X134986665Y-87338000D01*
X134709426Y-87393147D01*
X134448273Y-87501320D01*
X134213241Y-87658363D01*
X134013363Y-87858241D01*
X133856320Y-88093273D01*
X133748147Y-88354426D01*
X133693000Y-88631665D01*
X128943000Y-88631665D01*
X128887853Y-88354426D01*
X128779680Y-88093273D01*
X128622637Y-87858241D01*
X128422759Y-87658363D01*
X128268000Y-87554957D01*
X128268000Y-83722341D01*
X128398535Y-83635120D01*
X128518090Y-83515565D01*
X129262040Y-83515565D01*
X129329020Y-83755656D01*
X129578048Y-83872756D01*
X129845135Y-83939023D01*
X130120017Y-83951910D01*
X130392133Y-83910922D01*
X130651023Y-83817636D01*
X130766980Y-83755656D01*
X130833960Y-83515565D01*
X130048000Y-82729605D01*
X129262040Y-83515565D01*
X128518090Y-83515565D01*
X128593120Y-83440535D01*
X128746005Y-83211727D01*
X128775692Y-83140057D01*
X128780364Y-83153023D01*
X128842344Y-83268980D01*
X129082435Y-83335960D01*
X129868395Y-82550000D01*
X130227605Y-82550000D01*
X131013565Y-83335960D01*
X131253656Y-83268980D01*
X131370756Y-83019952D01*
X131437023Y-82752865D01*
X131449910Y-82477983D01*
X131408922Y-82205867D01*
X131315636Y-81946977D01*
X131253656Y-81831020D01*
X131013565Y-81764040D01*
X130227605Y-82550000D01*
X129868395Y-82550000D01*
X129082435Y-81764040D01*
X128842344Y-81831020D01*
X128778515Y-81966760D01*
X128746005Y-81888273D01*
X128593120Y-81659465D01*
X128518090Y-81584435D01*
X129262040Y-81584435D01*
X130048000Y-82370395D01*
X130833960Y-81584435D01*
X130766980Y-81344344D01*
X130517952Y-81227244D01*
X130250865Y-81160977D01*
X129975983Y-81148090D01*
X129703867Y-81189078D01*
X129444977Y-81282364D01*
X129329020Y-81344344D01*
X129262040Y-81584435D01*
X128518090Y-81584435D01*
X128398535Y-81464880D01*
X128169727Y-81311995D01*
X127915490Y-81206686D01*
X127645592Y-81153000D01*
X127370408Y-81153000D01*
X127100510Y-81206686D01*
X126846273Y-81311995D01*
X126617465Y-81464880D01*
X126422880Y-81659465D01*
X126269995Y-81888273D01*
X126164686Y-82142510D01*
X126111000Y-82412408D01*
X126111000Y-82687592D01*
X126164686Y-82957490D01*
X126269995Y-83211727D01*
X126422880Y-83440535D01*
X126617465Y-83635120D01*
X126748000Y-83722341D01*
X126748001Y-87554956D01*
X126593241Y-87658363D01*
X126393363Y-87858241D01*
X126236320Y-88093273D01*
X126128147Y-88354426D01*
X126073000Y-88631665D01*
X121151178Y-88631665D01*
X121196000Y-88406335D01*
X121196000Y-88123665D01*
X121140853Y-87846426D01*
X121032680Y-87585273D01*
X120875637Y-87350241D01*
X120675759Y-87150363D01*
X120440727Y-86993320D01*
X120179574Y-86885147D01*
X119902335Y-86830000D01*
X119619665Y-86830000D01*
X119342426Y-86885147D01*
X119081273Y-86993320D01*
X118846241Y-87150363D01*
X118646363Y-87350241D01*
X118489320Y-87585273D01*
X118381147Y-87846426D01*
X118326000Y-88123665D01*
X97180000Y-88123665D01*
X97180000Y-87165655D01*
X97244465Y-87230120D01*
X97473273Y-87383005D01*
X97727510Y-87488314D01*
X97997408Y-87542000D01*
X98272592Y-87542000D01*
X98542490Y-87488314D01*
X98796727Y-87383005D01*
X99025535Y-87230120D01*
X99220120Y-87035535D01*
X99373005Y-86806727D01*
X99478314Y-86552490D01*
X99519454Y-86345665D01*
X106007000Y-86345665D01*
X106007000Y-86628335D01*
X106062147Y-86905574D01*
X106170320Y-87166727D01*
X106327363Y-87401759D01*
X106527241Y-87601637D01*
X106762273Y-87758680D01*
X107023426Y-87866853D01*
X107300665Y-87922000D01*
X107583335Y-87922000D01*
X107860574Y-87866853D01*
X108121727Y-87758680D01*
X108356759Y-87601637D01*
X108556637Y-87401759D01*
X108713680Y-87166727D01*
X108821853Y-86905574D01*
X108877000Y-86628335D01*
X108877000Y-86345665D01*
X113627000Y-86345665D01*
X113627000Y-86628335D01*
X113682147Y-86905574D01*
X113790320Y-87166727D01*
X113947363Y-87401759D01*
X114147241Y-87601637D01*
X114382273Y-87758680D01*
X114643426Y-87866853D01*
X114920665Y-87922000D01*
X115203335Y-87922000D01*
X115480574Y-87866853D01*
X115741727Y-87758680D01*
X115976759Y-87601637D01*
X116176637Y-87401759D01*
X116333680Y-87166727D01*
X116441853Y-86905574D01*
X116497000Y-86628335D01*
X116497000Y-86345665D01*
X116441853Y-86068426D01*
X116333680Y-85807273D01*
X116176637Y-85572241D01*
X115976759Y-85372363D01*
X115741727Y-85215320D01*
X115480574Y-85107147D01*
X115203335Y-85052000D01*
X114920665Y-85052000D01*
X114643426Y-85107147D01*
X114382273Y-85215320D01*
X114147241Y-85372363D01*
X113947363Y-85572241D01*
X113790320Y-85807273D01*
X113682147Y-86068426D01*
X113627000Y-86345665D01*
X108877000Y-86345665D01*
X108821853Y-86068426D01*
X108713680Y-85807273D01*
X108556637Y-85572241D01*
X108356759Y-85372363D01*
X108121727Y-85215320D01*
X107860574Y-85107147D01*
X107583335Y-85052000D01*
X107300665Y-85052000D01*
X107023426Y-85107147D01*
X106762273Y-85215320D01*
X106527241Y-85372363D01*
X106327363Y-85572241D01*
X106170320Y-85807273D01*
X106062147Y-86068426D01*
X106007000Y-86345665D01*
X99519454Y-86345665D01*
X99532000Y-86282592D01*
X99532000Y-86007408D01*
X99478314Y-85737510D01*
X99373005Y-85483273D01*
X99220120Y-85254465D01*
X99025535Y-85059880D01*
X98796727Y-84906995D01*
X98725057Y-84877308D01*
X98738023Y-84872636D01*
X98853980Y-84810656D01*
X98920960Y-84570565D01*
X98135000Y-83784605D01*
X98120858Y-83798748D01*
X97941253Y-83619143D01*
X97955395Y-83605000D01*
X98314605Y-83605000D01*
X99100565Y-84390960D01*
X99340656Y-84323980D01*
X99457756Y-84074952D01*
X99524023Y-83807865D01*
X99536910Y-83532983D01*
X99495922Y-83260867D01*
X99402636Y-83001977D01*
X99340656Y-82886020D01*
X99100565Y-82819040D01*
X98314605Y-83605000D01*
X97955395Y-83605000D01*
X97941253Y-83590858D01*
X98120858Y-83411253D01*
X98135000Y-83425395D01*
X98920960Y-82639435D01*
X98857625Y-82412408D01*
X106045000Y-82412408D01*
X106045000Y-82687592D01*
X106098686Y-82957490D01*
X106203995Y-83211727D01*
X106356880Y-83440535D01*
X106551465Y-83635120D01*
X106780273Y-83788005D01*
X107034510Y-83893314D01*
X107304408Y-83947000D01*
X107579592Y-83947000D01*
X107849490Y-83893314D01*
X108103727Y-83788005D01*
X108332535Y-83635120D01*
X108452090Y-83515565D01*
X109196040Y-83515565D01*
X109263020Y-83755656D01*
X109512048Y-83872756D01*
X109779135Y-83939023D01*
X110054017Y-83951910D01*
X110326133Y-83910922D01*
X110585023Y-83817636D01*
X110700980Y-83755656D01*
X110767960Y-83515565D01*
X109982000Y-82729605D01*
X109196040Y-83515565D01*
X108452090Y-83515565D01*
X108527120Y-83440535D01*
X108680005Y-83211727D01*
X108709692Y-83140057D01*
X108714364Y-83153023D01*
X108776344Y-83268980D01*
X109016435Y-83335960D01*
X109802395Y-82550000D01*
X110161605Y-82550000D01*
X110947565Y-83335960D01*
X111187656Y-83268980D01*
X111304756Y-83019952D01*
X111371023Y-82752865D01*
X111383910Y-82477983D01*
X111342922Y-82205867D01*
X111249636Y-81946977D01*
X111187656Y-81831020D01*
X110947565Y-81764040D01*
X110161605Y-82550000D01*
X109802395Y-82550000D01*
X109016435Y-81764040D01*
X108776344Y-81831020D01*
X108712515Y-81966760D01*
X108680005Y-81888273D01*
X108527120Y-81659465D01*
X108452090Y-81584435D01*
X109196040Y-81584435D01*
X109982000Y-82370395D01*
X110767960Y-81584435D01*
X110700980Y-81344344D01*
X110451952Y-81227244D01*
X110184865Y-81160977D01*
X109909983Y-81148090D01*
X109637867Y-81189078D01*
X109378977Y-81282364D01*
X109263020Y-81344344D01*
X109196040Y-81584435D01*
X108452090Y-81584435D01*
X108332535Y-81464880D01*
X108103727Y-81311995D01*
X107849490Y-81206686D01*
X107579592Y-81153000D01*
X107304408Y-81153000D01*
X107034510Y-81206686D01*
X106780273Y-81311995D01*
X106551465Y-81464880D01*
X106356880Y-81659465D01*
X106203995Y-81888273D01*
X106098686Y-82142510D01*
X106045000Y-82412408D01*
X98857625Y-82412408D01*
X98853980Y-82399344D01*
X98718240Y-82335515D01*
X98796727Y-82303005D01*
X99025535Y-82150120D01*
X99220120Y-81955535D01*
X99373005Y-81726727D01*
X99478314Y-81472490D01*
X99532000Y-81202592D01*
X99532000Y-80927408D01*
X99478314Y-80657510D01*
X99373005Y-80403273D01*
X99220120Y-80174465D01*
X99025535Y-79979880D01*
X98796727Y-79826995D01*
X98542490Y-79721686D01*
X98272592Y-79668000D01*
X97997408Y-79668000D01*
X97727510Y-79721686D01*
X97473273Y-79826995D01*
X97244465Y-79979880D01*
X97180000Y-80044345D01*
X97180000Y-77323740D01*
X102147000Y-77323740D01*
X102147000Y-77616260D01*
X102204068Y-77903158D01*
X102316010Y-78173411D01*
X102478525Y-78416632D01*
X102685368Y-78623475D01*
X102928589Y-78785990D01*
X103198842Y-78897932D01*
X103485740Y-78955000D01*
X103778260Y-78955000D01*
X104065158Y-78897932D01*
X104335411Y-78785990D01*
X104578632Y-78623475D01*
X104785475Y-78416632D01*
X104947990Y-78173411D01*
X105059932Y-77903158D01*
X105117000Y-77616260D01*
X105117000Y-77323740D01*
X105094471Y-77210475D01*
X106077000Y-77210475D01*
X106077000Y-77729525D01*
X106178261Y-78238601D01*
X106376893Y-78718141D01*
X106665262Y-79149715D01*
X107032285Y-79516738D01*
X107463859Y-79805107D01*
X107943399Y-80003739D01*
X108452475Y-80105000D01*
X108971525Y-80105000D01*
X109480601Y-80003739D01*
X109960141Y-79805107D01*
X110391715Y-79516738D01*
X110758738Y-79149715D01*
X111047107Y-78718141D01*
X111245739Y-78238601D01*
X111347000Y-77729525D01*
X111347000Y-77323740D01*
X112307000Y-77323740D01*
X112307000Y-77616260D01*
X112364068Y-77903158D01*
X112476010Y-78173411D01*
X112638525Y-78416632D01*
X112845368Y-78623475D01*
X113088589Y-78785990D01*
X113358842Y-78897932D01*
X113645740Y-78955000D01*
X113938260Y-78955000D01*
X114225158Y-78897932D01*
X114495411Y-78785990D01*
X114738632Y-78623475D01*
X114945475Y-78416632D01*
X115107990Y-78173411D01*
X115211509Y-77923492D01*
X116770188Y-77923492D01*
X116811035Y-78193238D01*
X116903723Y-78449832D01*
X116964140Y-78562863D01*
X117203007Y-78628388D01*
X117980395Y-77851000D01*
X117203007Y-77073612D01*
X116964140Y-77139137D01*
X116848240Y-77386116D01*
X116782750Y-77650960D01*
X116770188Y-77923492D01*
X115211509Y-77923492D01*
X115219932Y-77903158D01*
X115277000Y-77616260D01*
X115277000Y-77323740D01*
X115219932Y-77036842D01*
X115107990Y-76766589D01*
X114945475Y-76523368D01*
X114738632Y-76316525D01*
X114495411Y-76154010D01*
X114225158Y-76042068D01*
X113938260Y-75985000D01*
X113645740Y-75985000D01*
X113358842Y-76042068D01*
X113088589Y-76154010D01*
X112845368Y-76316525D01*
X112638525Y-76523368D01*
X112476010Y-76766589D01*
X112364068Y-77036842D01*
X112307000Y-77323740D01*
X111347000Y-77323740D01*
X111347000Y-77210475D01*
X111245739Y-76701399D01*
X111047107Y-76221859D01*
X110758738Y-75790285D01*
X110391715Y-75423262D01*
X109960141Y-75134893D01*
X109480601Y-74936261D01*
X108971525Y-74835000D01*
X108452475Y-74835000D01*
X107943399Y-74936261D01*
X107463859Y-75134893D01*
X107032285Y-75423262D01*
X106665262Y-75790285D01*
X106376893Y-76221859D01*
X106178261Y-76701399D01*
X106077000Y-77210475D01*
X105094471Y-77210475D01*
X105059932Y-77036842D01*
X104947990Y-76766589D01*
X104880110Y-76665000D01*
X105072883Y-76665000D01*
X105408081Y-76598325D01*
X105723831Y-76467537D01*
X106007998Y-76277663D01*
X106249663Y-76035998D01*
X106439537Y-75751831D01*
X106570325Y-75436081D01*
X106637000Y-75100883D01*
X106637000Y-74759117D01*
X106570325Y-74423919D01*
X106439537Y-74108169D01*
X106249663Y-73824002D01*
X106022373Y-73596712D01*
X110224893Y-73596712D01*
X110332726Y-73871338D01*
X110639384Y-74022216D01*
X110969585Y-74110369D01*
X111310639Y-74132409D01*
X111649439Y-74087489D01*
X111972966Y-73977336D01*
X112171274Y-73871338D01*
X112279107Y-73596712D01*
X111252000Y-72569605D01*
X110224893Y-73596712D01*
X106022373Y-73596712D01*
X106007998Y-73582337D01*
X105723831Y-73392463D01*
X105408081Y-73261675D01*
X105072883Y-73195000D01*
X104731117Y-73195000D01*
X104395919Y-73261675D01*
X104080169Y-73392463D01*
X103796002Y-73582337D01*
X103554337Y-73824002D01*
X103364463Y-74108169D01*
X103233675Y-74423919D01*
X103167000Y-74759117D01*
X103167000Y-75100883D01*
X103233675Y-75436081D01*
X103364463Y-75751831D01*
X103520261Y-75985000D01*
X103485740Y-75985000D01*
X103198842Y-76042068D01*
X102928589Y-76154010D01*
X102685368Y-76316525D01*
X102478525Y-76523368D01*
X102316010Y-76766589D01*
X102204068Y-77036842D01*
X102147000Y-77323740D01*
X97180000Y-77323740D01*
X97180000Y-74788665D01*
X98260000Y-74788665D01*
X98260000Y-75071335D01*
X98315147Y-75348574D01*
X98423320Y-75609727D01*
X98580363Y-75844759D01*
X98780241Y-76044637D01*
X99015273Y-76201680D01*
X99276426Y-76309853D01*
X99553665Y-76365000D01*
X99836335Y-76365000D01*
X100113574Y-76309853D01*
X100374727Y-76201680D01*
X100609759Y-76044637D01*
X100809637Y-75844759D01*
X100966680Y-75609727D01*
X101074853Y-75348574D01*
X101130000Y-75071335D01*
X101130000Y-74788665D01*
X101074853Y-74511426D01*
X100966680Y-74250273D01*
X100809637Y-74015241D01*
X100609759Y-73815363D01*
X100374727Y-73658320D01*
X100113574Y-73550147D01*
X99836335Y-73495000D01*
X99553665Y-73495000D01*
X99276426Y-73550147D01*
X99015273Y-73658320D01*
X98780241Y-73815363D01*
X98580363Y-74015241D01*
X98423320Y-74250273D01*
X98315147Y-74511426D01*
X98260000Y-74788665D01*
X97180000Y-74788665D01*
X97180000Y-72448639D01*
X109509591Y-72448639D01*
X109554511Y-72787439D01*
X109664664Y-73110966D01*
X109770662Y-73309274D01*
X110045288Y-73417107D01*
X111072395Y-72390000D01*
X111431605Y-72390000D01*
X112458712Y-73417107D01*
X112733338Y-73309274D01*
X112884216Y-73002616D01*
X112972369Y-72672415D01*
X112994409Y-72331361D01*
X112949489Y-71992561D01*
X112839336Y-71669034D01*
X112733338Y-71470726D01*
X112458712Y-71362893D01*
X111431605Y-72390000D01*
X111072395Y-72390000D01*
X110045288Y-71362893D01*
X109770662Y-71470726D01*
X109619784Y-71777384D01*
X109531631Y-72107585D01*
X109509591Y-72448639D01*
X97180000Y-72448639D01*
X97180000Y-71183288D01*
X110224893Y-71183288D01*
X111252000Y-72210395D01*
X112279107Y-71183288D01*
X112171274Y-70908662D01*
X111864616Y-70757784D01*
X111534415Y-70669631D01*
X111193361Y-70647591D01*
X110854561Y-70692511D01*
X110531034Y-70802664D01*
X110332726Y-70908662D01*
X110224893Y-71183288D01*
X97180000Y-71183288D01*
X97180000Y-70094589D01*
X116775000Y-70094589D01*
X116775000Y-70367411D01*
X116828225Y-70634989D01*
X116932629Y-70887043D01*
X117084201Y-71113886D01*
X117277114Y-71306799D01*
X117503957Y-71458371D01*
X117606873Y-71501000D01*
X117503957Y-71543629D01*
X117277114Y-71695201D01*
X117084201Y-71888114D01*
X116932629Y-72114957D01*
X116828225Y-72367011D01*
X116775000Y-72634589D01*
X116775000Y-72907411D01*
X116828225Y-73174989D01*
X116932629Y-73427043D01*
X117084201Y-73653886D01*
X117277114Y-73846799D01*
X117503957Y-73998371D01*
X117606873Y-74041000D01*
X117503957Y-74083629D01*
X117277114Y-74235201D01*
X117084201Y-74428114D01*
X116932629Y-74654957D01*
X116828225Y-74907011D01*
X116775000Y-75174589D01*
X116775000Y-75447411D01*
X116828225Y-75714989D01*
X116932629Y-75967043D01*
X117084201Y-76193886D01*
X117277114Y-76386799D01*
X117503957Y-76538371D01*
X117603279Y-76579511D01*
X117561168Y-76594723D01*
X117448137Y-76655140D01*
X117382612Y-76894007D01*
X118160000Y-77671395D01*
X118937388Y-76894007D01*
X118871863Y-76655140D01*
X118713523Y-76580836D01*
X118816043Y-76538371D01*
X119042886Y-76386799D01*
X119235799Y-76193886D01*
X119387371Y-75967043D01*
X119491775Y-75714989D01*
X119545000Y-75447411D01*
X119545000Y-75174589D01*
X119491775Y-74907011D01*
X119387371Y-74654957D01*
X119235799Y-74428114D01*
X119042886Y-74235201D01*
X118816043Y-74083629D01*
X118713127Y-74041000D01*
X118816043Y-73998371D01*
X119042886Y-73846799D01*
X119235799Y-73653886D01*
X119387371Y-73427043D01*
X119491775Y-73174989D01*
X119545000Y-72907411D01*
X119545000Y-72634589D01*
X119491775Y-72367011D01*
X119387371Y-72114957D01*
X119235799Y-71888114D01*
X119042886Y-71695201D01*
X118816043Y-71543629D01*
X118713127Y-71501000D01*
X118816043Y-71458371D01*
X119042886Y-71306799D01*
X119235799Y-71113886D01*
X119387371Y-70887043D01*
X119491775Y-70634989D01*
X119545000Y-70367411D01*
X119545000Y-70094589D01*
X119491775Y-69827011D01*
X119387371Y-69574957D01*
X119235799Y-69348114D01*
X119042886Y-69155201D01*
X118816043Y-69003629D01*
X118716721Y-68962489D01*
X118758832Y-68947277D01*
X118871863Y-68886860D01*
X118937388Y-68647993D01*
X118160000Y-67870605D01*
X117382612Y-68647993D01*
X117448137Y-68886860D01*
X117606477Y-68961164D01*
X117503957Y-69003629D01*
X117277114Y-69155201D01*
X117084201Y-69348114D01*
X116932629Y-69574957D01*
X116828225Y-69827011D01*
X116775000Y-70094589D01*
X97180000Y-70094589D01*
X97180000Y-67168665D01*
X98260000Y-67168665D01*
X98260000Y-67451335D01*
X98315147Y-67728574D01*
X98423320Y-67989727D01*
X98580363Y-68224759D01*
X98780241Y-68424637D01*
X99015273Y-68581680D01*
X99276426Y-68689853D01*
X99553665Y-68745000D01*
X99836335Y-68745000D01*
X100113574Y-68689853D01*
X100374727Y-68581680D01*
X100609759Y-68424637D01*
X100809637Y-68224759D01*
X100966680Y-67989727D01*
X101074853Y-67728574D01*
X101130000Y-67451335D01*
X101130000Y-67168665D01*
X101074853Y-66891426D01*
X100966680Y-66630273D01*
X100809637Y-66395241D01*
X100694061Y-66279665D01*
X106007000Y-66279665D01*
X106007000Y-66562335D01*
X106062147Y-66839574D01*
X106170320Y-67100727D01*
X106327363Y-67335759D01*
X106527241Y-67535637D01*
X106762273Y-67692680D01*
X107023426Y-67800853D01*
X107300665Y-67856000D01*
X107583335Y-67856000D01*
X107860574Y-67800853D01*
X108121727Y-67692680D01*
X108356759Y-67535637D01*
X108556637Y-67335759D01*
X108713680Y-67100727D01*
X108821853Y-66839574D01*
X108877000Y-66562335D01*
X108877000Y-66279665D01*
X113627000Y-66279665D01*
X113627000Y-66562335D01*
X113682147Y-66839574D01*
X113790320Y-67100727D01*
X113947363Y-67335759D01*
X114147241Y-67535637D01*
X114382273Y-67692680D01*
X114643426Y-67800853D01*
X114920665Y-67856000D01*
X115203335Y-67856000D01*
X115480574Y-67800853D01*
X115570771Y-67763492D01*
X116770188Y-67763492D01*
X116811035Y-68033238D01*
X116903723Y-68289832D01*
X116964140Y-68402863D01*
X117203007Y-68468388D01*
X117980395Y-67691000D01*
X118339605Y-67691000D01*
X119116993Y-68468388D01*
X119355860Y-68402863D01*
X119471760Y-68155884D01*
X119537250Y-67891040D01*
X119549812Y-67618508D01*
X119508965Y-67348762D01*
X119416277Y-67092168D01*
X119355860Y-66979137D01*
X119116993Y-66913612D01*
X118339605Y-67691000D01*
X117980395Y-67691000D01*
X117203007Y-66913612D01*
X116964140Y-66979137D01*
X116848240Y-67226116D01*
X116782750Y-67490960D01*
X116770188Y-67763492D01*
X115570771Y-67763492D01*
X115741727Y-67692680D01*
X115976759Y-67535637D01*
X116176637Y-67335759D01*
X116333680Y-67100727D01*
X116441853Y-66839574D01*
X116497000Y-66562335D01*
X116497000Y-66279665D01*
X116441853Y-66002426D01*
X116333680Y-65741273D01*
X116176637Y-65506241D01*
X115976759Y-65306363D01*
X115822000Y-65202957D01*
X115822000Y-60943801D01*
X116775000Y-59990801D01*
X116775000Y-60207411D01*
X116828225Y-60474989D01*
X116932629Y-60727043D01*
X117084201Y-60953886D01*
X117277114Y-61146799D01*
X117503957Y-61298371D01*
X117606873Y-61341000D01*
X117503957Y-61383629D01*
X117277114Y-61535201D01*
X117084201Y-61728114D01*
X116932629Y-61954957D01*
X116828225Y-62207011D01*
X116775000Y-62474589D01*
X116775000Y-62747411D01*
X116828225Y-63014989D01*
X116932629Y-63267043D01*
X117084201Y-63493886D01*
X117277114Y-63686799D01*
X117503957Y-63838371D01*
X117606873Y-63881000D01*
X117503957Y-63923629D01*
X117277114Y-64075201D01*
X117084201Y-64268114D01*
X116932629Y-64494957D01*
X116828225Y-64747011D01*
X116775000Y-65014589D01*
X116775000Y-65287411D01*
X116828225Y-65554989D01*
X116932629Y-65807043D01*
X117084201Y-66033886D01*
X117277114Y-66226799D01*
X117503957Y-66378371D01*
X117603279Y-66419511D01*
X117561168Y-66434723D01*
X117448137Y-66495140D01*
X117382612Y-66734007D01*
X118160000Y-67511395D01*
X118937388Y-66734007D01*
X118871863Y-66495140D01*
X118713523Y-66420836D01*
X118816043Y-66378371D01*
X119042886Y-66226799D01*
X119235799Y-66033886D01*
X119387371Y-65807043D01*
X119491775Y-65554989D01*
X119545000Y-65287411D01*
X119545000Y-65014589D01*
X119491775Y-64747011D01*
X119387371Y-64494957D01*
X119235799Y-64268114D01*
X119042886Y-64075201D01*
X118816043Y-63923629D01*
X118713127Y-63881000D01*
X118816043Y-63838371D01*
X119042886Y-63686799D01*
X119235799Y-63493886D01*
X119387371Y-63267043D01*
X119491775Y-63014989D01*
X119545000Y-62747411D01*
X119545000Y-62474589D01*
X119491775Y-62207011D01*
X119387371Y-61954957D01*
X119235799Y-61728114D01*
X119042886Y-61535201D01*
X118816043Y-61383629D01*
X118713127Y-61341000D01*
X118816043Y-61298371D01*
X119042886Y-61146799D01*
X119235799Y-60953886D01*
X119387371Y-60727043D01*
X119491775Y-60474989D01*
X119545000Y-60207411D01*
X119545000Y-59934589D01*
X119491775Y-59667011D01*
X119387371Y-59414957D01*
X119235799Y-59188114D01*
X119042886Y-58995201D01*
X118816043Y-58843629D01*
X118713127Y-58801000D01*
X118816043Y-58758371D01*
X119042886Y-58606799D01*
X119235799Y-58413886D01*
X119387371Y-58187043D01*
X119491775Y-57934989D01*
X119545000Y-57667411D01*
X119545000Y-57450801D01*
X124208001Y-62113803D01*
X124208000Y-64574289D01*
X124164063Y-64618226D01*
X124050795Y-64787744D01*
X123972774Y-64976102D01*
X123933000Y-65176061D01*
X123933000Y-65379939D01*
X123972774Y-65579898D01*
X124050795Y-65768256D01*
X124164063Y-65937774D01*
X124308226Y-66081937D01*
X124477744Y-66195205D01*
X124666102Y-66273226D01*
X124866061Y-66313000D01*
X125069939Y-66313000D01*
X125269898Y-66273226D01*
X125458256Y-66195205D01*
X125627774Y-66081937D01*
X125771937Y-65937774D01*
X125885205Y-65768256D01*
X125963226Y-65579898D01*
X126003000Y-65379939D01*
X126003000Y-65176061D01*
X125963226Y-64976102D01*
X125885205Y-64787744D01*
X125771937Y-64618226D01*
X125728000Y-64574289D01*
X125728000Y-61836323D01*
X125731676Y-61799000D01*
X125728000Y-61761677D01*
X125728000Y-61761667D01*
X125717003Y-61650014D01*
X125673546Y-61506753D01*
X125607734Y-61383629D01*
X125602974Y-61374723D01*
X125531799Y-61287997D01*
X125508001Y-61258999D01*
X125479003Y-61235201D01*
X122901776Y-58657974D01*
X122994589Y-58719990D01*
X123264842Y-58831932D01*
X123551740Y-58889000D01*
X123844260Y-58889000D01*
X124131158Y-58831932D01*
X124401411Y-58719990D01*
X124644632Y-58557475D01*
X124851475Y-58350632D01*
X125013990Y-58107411D01*
X125125932Y-57837158D01*
X125183000Y-57550260D01*
X125183000Y-57257740D01*
X125160471Y-57144475D01*
X126143000Y-57144475D01*
X126143000Y-57663525D01*
X126244261Y-58172601D01*
X126442893Y-58652141D01*
X126731262Y-59083715D01*
X127098285Y-59450738D01*
X127529859Y-59739107D01*
X128009399Y-59937739D01*
X128518475Y-60039000D01*
X129037525Y-60039000D01*
X129546601Y-59937739D01*
X130026141Y-59739107D01*
X130457715Y-59450738D01*
X130824738Y-59083715D01*
X131113107Y-58652141D01*
X131311739Y-58172601D01*
X131413000Y-57663525D01*
X131413000Y-57257740D01*
X132373000Y-57257740D01*
X132373000Y-57550260D01*
X132430068Y-57837158D01*
X132542010Y-58107411D01*
X132704525Y-58350632D01*
X132911368Y-58557475D01*
X133154589Y-58719990D01*
X133424842Y-58831932D01*
X133711740Y-58889000D01*
X134004260Y-58889000D01*
X134291158Y-58831932D01*
X134561411Y-58719990D01*
X134804632Y-58557475D01*
X135011475Y-58350632D01*
X135173990Y-58107411D01*
X135285932Y-57837158D01*
X135343000Y-57550260D01*
X135343000Y-57257740D01*
X135285932Y-56970842D01*
X135173990Y-56700589D01*
X135011475Y-56457368D01*
X134804632Y-56250525D01*
X134561411Y-56088010D01*
X134291158Y-55976068D01*
X134004260Y-55919000D01*
X133711740Y-55919000D01*
X133424842Y-55976068D01*
X133154589Y-56088010D01*
X132911368Y-56250525D01*
X132704525Y-56457368D01*
X132542010Y-56700589D01*
X132430068Y-56970842D01*
X132373000Y-57257740D01*
X131413000Y-57257740D01*
X131413000Y-57144475D01*
X131311739Y-56635399D01*
X131113107Y-56155859D01*
X130824738Y-55724285D01*
X130457715Y-55357262D01*
X130026141Y-55068893D01*
X129546601Y-54870261D01*
X129037525Y-54769000D01*
X128518475Y-54769000D01*
X128009399Y-54870261D01*
X127529859Y-55068893D01*
X127098285Y-55357262D01*
X126731262Y-55724285D01*
X126442893Y-56155859D01*
X126244261Y-56635399D01*
X126143000Y-57144475D01*
X125160471Y-57144475D01*
X125125932Y-56970842D01*
X125013990Y-56700589D01*
X124946110Y-56599000D01*
X125138883Y-56599000D01*
X125474081Y-56532325D01*
X125789831Y-56401537D01*
X126073998Y-56211663D01*
X126315663Y-55969998D01*
X126505537Y-55685831D01*
X126636325Y-55370081D01*
X126703000Y-55034883D01*
X126703000Y-54693117D01*
X126636325Y-54357919D01*
X126505537Y-54042169D01*
X126315663Y-53758002D01*
X126088373Y-53530712D01*
X130290893Y-53530712D01*
X130398726Y-53805338D01*
X130705384Y-53956216D01*
X131035585Y-54044369D01*
X131376639Y-54066409D01*
X131715439Y-54021489D01*
X132038966Y-53911336D01*
X132237274Y-53805338D01*
X132345107Y-53530712D01*
X131318000Y-52503605D01*
X130290893Y-53530712D01*
X126088373Y-53530712D01*
X126073998Y-53516337D01*
X125789831Y-53326463D01*
X125474081Y-53195675D01*
X125138883Y-53129000D01*
X124797117Y-53129000D01*
X124461919Y-53195675D01*
X124146169Y-53326463D01*
X123862002Y-53516337D01*
X123620337Y-53758002D01*
X123430463Y-54042169D01*
X123299675Y-54357919D01*
X123233000Y-54693117D01*
X123233000Y-55034883D01*
X123299675Y-55370081D01*
X123430463Y-55685831D01*
X123586261Y-55919000D01*
X123551740Y-55919000D01*
X123264842Y-55976068D01*
X122994589Y-56088010D01*
X122751368Y-56250525D01*
X122544525Y-56457368D01*
X122382010Y-56700589D01*
X122270068Y-56970842D01*
X122213000Y-57257740D01*
X122213000Y-57550260D01*
X122270068Y-57837158D01*
X122382010Y-58107411D01*
X122444026Y-58200224D01*
X119516167Y-55272365D01*
X119545000Y-55127411D01*
X119545000Y-54854589D01*
X119491775Y-54587011D01*
X119387371Y-54334957D01*
X119235799Y-54108114D01*
X119042886Y-53915201D01*
X118816043Y-53763629D01*
X118713127Y-53721000D01*
X118816043Y-53678371D01*
X119042886Y-53526799D01*
X119235799Y-53333886D01*
X119387371Y-53107043D01*
X119491775Y-52854989D01*
X119545000Y-52587411D01*
X119545000Y-52382639D01*
X129575591Y-52382639D01*
X129620511Y-52721439D01*
X129730664Y-53044966D01*
X129836662Y-53243274D01*
X130111288Y-53351107D01*
X131138395Y-52324000D01*
X131497605Y-52324000D01*
X132524712Y-53351107D01*
X132799338Y-53243274D01*
X132950216Y-52936616D01*
X133038369Y-52606415D01*
X133043727Y-52523492D01*
X136990188Y-52523492D01*
X137031035Y-52793238D01*
X137123723Y-53049832D01*
X137184140Y-53162863D01*
X137423007Y-53228388D01*
X138200395Y-52451000D01*
X137423007Y-51673612D01*
X137184140Y-51739137D01*
X137068240Y-51986116D01*
X137002750Y-52250960D01*
X136990188Y-52523492D01*
X133043727Y-52523492D01*
X133060409Y-52265361D01*
X133015489Y-51926561D01*
X132905336Y-51603034D01*
X132799338Y-51404726D01*
X132524712Y-51296893D01*
X131497605Y-52324000D01*
X131138395Y-52324000D01*
X130111288Y-51296893D01*
X129836662Y-51404726D01*
X129685784Y-51711384D01*
X129597631Y-52041585D01*
X129575591Y-52382639D01*
X119545000Y-52382639D01*
X119545000Y-52314589D01*
X119491775Y-52047011D01*
X119387371Y-51794957D01*
X119235799Y-51568114D01*
X119042886Y-51375201D01*
X118816043Y-51223629D01*
X118563989Y-51119225D01*
X118296411Y-51066000D01*
X118023589Y-51066000D01*
X117756011Y-51119225D01*
X117503957Y-51223629D01*
X117277114Y-51375201D01*
X117084201Y-51568114D01*
X116932629Y-51794957D01*
X116828225Y-52047011D01*
X116775000Y-52314589D01*
X116775000Y-52587411D01*
X116828225Y-52854989D01*
X116932629Y-53107043D01*
X117084201Y-53333886D01*
X117277114Y-53526799D01*
X117503957Y-53678371D01*
X117606873Y-53721000D01*
X117503957Y-53763629D01*
X117277114Y-53915201D01*
X117084201Y-54108114D01*
X116932629Y-54334957D01*
X116828225Y-54587011D01*
X116775000Y-54854589D01*
X116775000Y-55127411D01*
X116828225Y-55394989D01*
X116932629Y-55647043D01*
X117084201Y-55873886D01*
X117277114Y-56066799D01*
X117503957Y-56218371D01*
X117606873Y-56261000D01*
X117503957Y-56303629D01*
X117277114Y-56455201D01*
X117084201Y-56648114D01*
X116932629Y-56874957D01*
X116828225Y-57127011D01*
X116775000Y-57394589D01*
X116775000Y-57667411D01*
X116803833Y-57812365D01*
X114550998Y-60065201D01*
X114522000Y-60088999D01*
X114498202Y-60117997D01*
X114498201Y-60117998D01*
X114427026Y-60204724D01*
X114356454Y-60336754D01*
X114326180Y-60436558D01*
X114314523Y-60474989D01*
X114312998Y-60480015D01*
X114298324Y-60629000D01*
X114302001Y-60666332D01*
X114302000Y-65202956D01*
X114147241Y-65306363D01*
X113947363Y-65506241D01*
X113790320Y-65741273D01*
X113682147Y-66002426D01*
X113627000Y-66279665D01*
X108877000Y-66279665D01*
X108821853Y-66002426D01*
X108713680Y-65741273D01*
X108556637Y-65506241D01*
X108356759Y-65306363D01*
X108121727Y-65149320D01*
X107860574Y-65041147D01*
X107583335Y-64986000D01*
X107300665Y-64986000D01*
X107023426Y-65041147D01*
X106762273Y-65149320D01*
X106527241Y-65306363D01*
X106327363Y-65506241D01*
X106170320Y-65741273D01*
X106062147Y-66002426D01*
X106007000Y-66279665D01*
X100694061Y-66279665D01*
X100609759Y-66195363D01*
X100374727Y-66038320D01*
X100113574Y-65930147D01*
X99836335Y-65875000D01*
X99553665Y-65875000D01*
X99276426Y-65930147D01*
X99015273Y-66038320D01*
X98780241Y-66195363D01*
X98580363Y-66395241D01*
X98423320Y-66630273D01*
X98315147Y-66891426D01*
X98260000Y-67168665D01*
X97180000Y-67168665D01*
X97180000Y-62342665D01*
X98260000Y-62342665D01*
X98260000Y-62625335D01*
X98315147Y-62902574D01*
X98423320Y-63163727D01*
X98580363Y-63398759D01*
X98780241Y-63598637D01*
X99015273Y-63755680D01*
X99276426Y-63863853D01*
X99553665Y-63919000D01*
X99836335Y-63919000D01*
X100113574Y-63863853D01*
X100374727Y-63755680D01*
X100609759Y-63598637D01*
X100809637Y-63398759D01*
X100966680Y-63163727D01*
X101074853Y-62902574D01*
X101130000Y-62625335D01*
X101130000Y-62346408D01*
X106045000Y-62346408D01*
X106045000Y-62621592D01*
X106098686Y-62891490D01*
X106203995Y-63145727D01*
X106356880Y-63374535D01*
X106551465Y-63569120D01*
X106780273Y-63722005D01*
X107034510Y-63827314D01*
X107304408Y-63881000D01*
X107579592Y-63881000D01*
X107849490Y-63827314D01*
X108103727Y-63722005D01*
X108332535Y-63569120D01*
X108452090Y-63449565D01*
X109196040Y-63449565D01*
X109263020Y-63689656D01*
X109512048Y-63806756D01*
X109779135Y-63873023D01*
X110054017Y-63885910D01*
X110326133Y-63844922D01*
X110585023Y-63751636D01*
X110700980Y-63689656D01*
X110767960Y-63449565D01*
X109982000Y-62663605D01*
X109196040Y-63449565D01*
X108452090Y-63449565D01*
X108527120Y-63374535D01*
X108680005Y-63145727D01*
X108709692Y-63074057D01*
X108714364Y-63087023D01*
X108776344Y-63202980D01*
X109016435Y-63269960D01*
X109802395Y-62484000D01*
X110161605Y-62484000D01*
X110947565Y-63269960D01*
X111187656Y-63202980D01*
X111304756Y-62953952D01*
X111371023Y-62686865D01*
X111383910Y-62411983D01*
X111342922Y-62139867D01*
X111249636Y-61880977D01*
X111187656Y-61765020D01*
X110947565Y-61698040D01*
X110161605Y-62484000D01*
X109802395Y-62484000D01*
X109016435Y-61698040D01*
X108776344Y-61765020D01*
X108712515Y-61900760D01*
X108680005Y-61822273D01*
X108527120Y-61593465D01*
X108452090Y-61518435D01*
X109196040Y-61518435D01*
X109982000Y-62304395D01*
X110767960Y-61518435D01*
X110700980Y-61278344D01*
X110451952Y-61161244D01*
X110184865Y-61094977D01*
X109909983Y-61082090D01*
X109637867Y-61123078D01*
X109378977Y-61216364D01*
X109263020Y-61278344D01*
X109196040Y-61518435D01*
X108452090Y-61518435D01*
X108332535Y-61398880D01*
X108103727Y-61245995D01*
X107849490Y-61140686D01*
X107579592Y-61087000D01*
X107304408Y-61087000D01*
X107034510Y-61140686D01*
X106780273Y-61245995D01*
X106551465Y-61398880D01*
X106356880Y-61593465D01*
X106203995Y-61822273D01*
X106098686Y-62076510D01*
X106045000Y-62346408D01*
X101130000Y-62346408D01*
X101130000Y-62342665D01*
X101074853Y-62065426D01*
X100966680Y-61804273D01*
X100809637Y-61569241D01*
X100609759Y-61369363D01*
X100374727Y-61212320D01*
X100113574Y-61104147D01*
X99836335Y-61049000D01*
X99553665Y-61049000D01*
X99276426Y-61104147D01*
X99015273Y-61212320D01*
X98780241Y-61369363D01*
X98580363Y-61569241D01*
X98423320Y-61804273D01*
X98315147Y-62065426D01*
X98260000Y-62342665D01*
X97180000Y-62342665D01*
X97180000Y-57257740D01*
X102147000Y-57257740D01*
X102147000Y-57550260D01*
X102204068Y-57837158D01*
X102316010Y-58107411D01*
X102478525Y-58350632D01*
X102685368Y-58557475D01*
X102928589Y-58719990D01*
X103198842Y-58831932D01*
X103485740Y-58889000D01*
X103778260Y-58889000D01*
X104065158Y-58831932D01*
X104335411Y-58719990D01*
X104578632Y-58557475D01*
X104785475Y-58350632D01*
X104947990Y-58107411D01*
X105059932Y-57837158D01*
X105117000Y-57550260D01*
X105117000Y-57257740D01*
X105094471Y-57144475D01*
X106077000Y-57144475D01*
X106077000Y-57663525D01*
X106178261Y-58172601D01*
X106376893Y-58652141D01*
X106665262Y-59083715D01*
X107032285Y-59450738D01*
X107463859Y-59739107D01*
X107943399Y-59937739D01*
X108452475Y-60039000D01*
X108971525Y-60039000D01*
X109480601Y-59937739D01*
X109960141Y-59739107D01*
X110391715Y-59450738D01*
X110758738Y-59083715D01*
X111047107Y-58652141D01*
X111245739Y-58172601D01*
X111347000Y-57663525D01*
X111347000Y-57257740D01*
X112307000Y-57257740D01*
X112307000Y-57550260D01*
X112364068Y-57837158D01*
X112476010Y-58107411D01*
X112638525Y-58350632D01*
X112845368Y-58557475D01*
X113088589Y-58719990D01*
X113358842Y-58831932D01*
X113645740Y-58889000D01*
X113938260Y-58889000D01*
X114225158Y-58831932D01*
X114495411Y-58719990D01*
X114738632Y-58557475D01*
X114945475Y-58350632D01*
X115107990Y-58107411D01*
X115219932Y-57837158D01*
X115277000Y-57550260D01*
X115277000Y-57257740D01*
X115219932Y-56970842D01*
X115107990Y-56700589D01*
X114945475Y-56457368D01*
X114738632Y-56250525D01*
X114495411Y-56088010D01*
X114225158Y-55976068D01*
X113938260Y-55919000D01*
X113645740Y-55919000D01*
X113358842Y-55976068D01*
X113088589Y-56088010D01*
X112845368Y-56250525D01*
X112638525Y-56457368D01*
X112476010Y-56700589D01*
X112364068Y-56970842D01*
X112307000Y-57257740D01*
X111347000Y-57257740D01*
X111347000Y-57144475D01*
X111245739Y-56635399D01*
X111047107Y-56155859D01*
X110758738Y-55724285D01*
X110391715Y-55357262D01*
X109960141Y-55068893D01*
X109480601Y-54870261D01*
X108971525Y-54769000D01*
X108452475Y-54769000D01*
X107943399Y-54870261D01*
X107463859Y-55068893D01*
X107032285Y-55357262D01*
X106665262Y-55724285D01*
X106376893Y-56155859D01*
X106178261Y-56635399D01*
X106077000Y-57144475D01*
X105094471Y-57144475D01*
X105059932Y-56970842D01*
X104947990Y-56700589D01*
X104880110Y-56599000D01*
X105072883Y-56599000D01*
X105408081Y-56532325D01*
X105723831Y-56401537D01*
X106007998Y-56211663D01*
X106249663Y-55969998D01*
X106439537Y-55685831D01*
X106570325Y-55370081D01*
X106637000Y-55034883D01*
X106637000Y-54693117D01*
X106570325Y-54357919D01*
X106439537Y-54042169D01*
X106249663Y-53758002D01*
X106022373Y-53530712D01*
X110224893Y-53530712D01*
X110332726Y-53805338D01*
X110639384Y-53956216D01*
X110969585Y-54044369D01*
X111310639Y-54066409D01*
X111649439Y-54021489D01*
X111972966Y-53911336D01*
X112171274Y-53805338D01*
X112279107Y-53530712D01*
X111252000Y-52503605D01*
X110224893Y-53530712D01*
X106022373Y-53530712D01*
X106007998Y-53516337D01*
X105723831Y-53326463D01*
X105408081Y-53195675D01*
X105072883Y-53129000D01*
X104731117Y-53129000D01*
X104395919Y-53195675D01*
X104080169Y-53326463D01*
X103796002Y-53516337D01*
X103554337Y-53758002D01*
X103364463Y-54042169D01*
X103233675Y-54357919D01*
X103167000Y-54693117D01*
X103167000Y-55034883D01*
X103233675Y-55370081D01*
X103364463Y-55685831D01*
X103520261Y-55919000D01*
X103485740Y-55919000D01*
X103198842Y-55976068D01*
X102928589Y-56088010D01*
X102685368Y-56250525D01*
X102478525Y-56457368D01*
X102316010Y-56700589D01*
X102204068Y-56970842D01*
X102147000Y-57257740D01*
X97180000Y-57257740D01*
X97180000Y-54722665D01*
X98260000Y-54722665D01*
X98260000Y-55005335D01*
X98315147Y-55282574D01*
X98423320Y-55543727D01*
X98580363Y-55778759D01*
X98780241Y-55978637D01*
X99015273Y-56135680D01*
X99276426Y-56243853D01*
X99553665Y-56299000D01*
X99836335Y-56299000D01*
X100113574Y-56243853D01*
X100374727Y-56135680D01*
X100609759Y-55978637D01*
X100809637Y-55778759D01*
X100966680Y-55543727D01*
X101074853Y-55282574D01*
X101130000Y-55005335D01*
X101130000Y-54722665D01*
X101074853Y-54445426D01*
X100966680Y-54184273D01*
X100809637Y-53949241D01*
X100609759Y-53749363D01*
X100374727Y-53592320D01*
X100113574Y-53484147D01*
X99836335Y-53429000D01*
X99553665Y-53429000D01*
X99276426Y-53484147D01*
X99015273Y-53592320D01*
X98780241Y-53749363D01*
X98580363Y-53949241D01*
X98423320Y-54184273D01*
X98315147Y-54445426D01*
X98260000Y-54722665D01*
X97180000Y-54722665D01*
X97180000Y-52382639D01*
X109509591Y-52382639D01*
X109554511Y-52721439D01*
X109664664Y-53044966D01*
X109770662Y-53243274D01*
X110045288Y-53351107D01*
X111072395Y-52324000D01*
X111431605Y-52324000D01*
X112458712Y-53351107D01*
X112733338Y-53243274D01*
X112884216Y-52936616D01*
X112972369Y-52606415D01*
X112994409Y-52265361D01*
X112949489Y-51926561D01*
X112839336Y-51603034D01*
X112733338Y-51404726D01*
X112458712Y-51296893D01*
X111431605Y-52324000D01*
X111072395Y-52324000D01*
X110045288Y-51296893D01*
X109770662Y-51404726D01*
X109619784Y-51711384D01*
X109531631Y-52041585D01*
X109509591Y-52382639D01*
X97180000Y-52382639D01*
X97180000Y-50660000D01*
X110756201Y-50660000D01*
X110531034Y-50736664D01*
G37*
X110531034Y-50736664D02*
X110332726Y-50842662D01*
X110224893Y-51117288D01*
X111252000Y-52144395D01*
X112279107Y-51117288D01*
X112171274Y-50842662D01*
X111864616Y-50691784D01*
X111745560Y-50660000D01*
X130822201Y-50660000D01*
X130597034Y-50736664D01*
X130398726Y-50842662D01*
X130290893Y-51117288D01*
X131318000Y-52144395D01*
X132345107Y-51117288D01*
X132237274Y-50842662D01*
X131930616Y-50691784D01*
X131811560Y-50660000D01*
X139294000Y-50660000D01*
X139294000Y-51397706D01*
X139273843Y-51377549D01*
X139157387Y-51494005D01*
X139091863Y-51255140D01*
X138844884Y-51139240D01*
X138580040Y-51073750D01*
X138307508Y-51061188D01*
X138037762Y-51102035D01*
X137781168Y-51194723D01*
X137668137Y-51255140D01*
X137602612Y-51494007D01*
X138380000Y-52271395D01*
X138394143Y-52257253D01*
X138573748Y-52436858D01*
X138559605Y-52451000D01*
X138573748Y-52465143D01*
X138394143Y-52644748D01*
X138380000Y-52630605D01*
X137602612Y-53407993D01*
X137668137Y-53646860D01*
X137826477Y-53721164D01*
X137723957Y-53763629D01*
X137497114Y-53915201D01*
X137304201Y-54108114D01*
X137152629Y-54334957D01*
X137048225Y-54587011D01*
X136995000Y-54854589D01*
X136995000Y-55127411D01*
X137048225Y-55394989D01*
X137152629Y-55647043D01*
X137304201Y-55873886D01*
X137497114Y-56066799D01*
X137723957Y-56218371D01*
X137826873Y-56261000D01*
X137723957Y-56303629D01*
X137497114Y-56455201D01*
X137304201Y-56648114D01*
X137152629Y-56874957D01*
X137048225Y-57127011D01*
X136995000Y-57394589D01*
X136995000Y-57667411D01*
X137048225Y-57934989D01*
X137152629Y-58187043D01*
X137304201Y-58413886D01*
X137497114Y-58606799D01*
X137723957Y-58758371D01*
X137826873Y-58801000D01*
X137723957Y-58843629D01*
X137497114Y-58995201D01*
X137304201Y-59188114D01*
X137152629Y-59414957D01*
X137048225Y-59667011D01*
X136995000Y-59934589D01*
X136995000Y-60207411D01*
X137048225Y-60474989D01*
X137152629Y-60727043D01*
X137304201Y-60953886D01*
X137497114Y-61146799D01*
X137723957Y-61298371D01*
X137826873Y-61341000D01*
X137723957Y-61383629D01*
X137497114Y-61535201D01*
X137304201Y-61728114D01*
X137152629Y-61954957D01*
X137048225Y-62207011D01*
X136995000Y-62474589D01*
X136995000Y-62747411D01*
X137048225Y-63014989D01*
X137152629Y-63267043D01*
X137304201Y-63493886D01*
X137497114Y-63686799D01*
X137723957Y-63838371D01*
X137826873Y-63881000D01*
X137723957Y-63923629D01*
X137497114Y-64075201D01*
X137304201Y-64268114D01*
X137152629Y-64494957D01*
X137048225Y-64747011D01*
X136995000Y-65014589D01*
X136995000Y-65287411D01*
X137048225Y-65554989D01*
X137152629Y-65807043D01*
X137304201Y-66033886D01*
X137497114Y-66226799D01*
X137723957Y-66378371D01*
X137826873Y-66421000D01*
X137723957Y-66463629D01*
X137497114Y-66615201D01*
X137304201Y-66808114D01*
X137152629Y-67034957D01*
X137048225Y-67287011D01*
X136995000Y-67554589D01*
X136995000Y-67827411D01*
X137048225Y-68094989D01*
X137152629Y-68347043D01*
X137304201Y-68573886D01*
X137497114Y-68766799D01*
X137723957Y-68918371D01*
X137826873Y-68961000D01*
X137723957Y-69003629D01*
X137497114Y-69155201D01*
X137304201Y-69348114D01*
X137160212Y-69563608D01*
X137139226Y-69458102D01*
X137061205Y-69269744D01*
X136947937Y-69100226D01*
X136803774Y-68956063D01*
X136634256Y-68842795D01*
X136445898Y-68764774D01*
X136245939Y-68725000D01*
X136183802Y-68725000D01*
X135307258Y-67848457D01*
X135546574Y-67800853D01*
X135807727Y-67692680D01*
X136042759Y-67535637D01*
X136242637Y-67335759D01*
X136399680Y-67100727D01*
X136507853Y-66839574D01*
X136563000Y-66562335D01*
X136563000Y-66279665D01*
X136507853Y-66002426D01*
X136399680Y-65741273D01*
X136242637Y-65506241D01*
X136042759Y-65306363D01*
X135807727Y-65149320D01*
X135546574Y-65041147D01*
X135269335Y-64986000D01*
X134986665Y-64986000D01*
X134709426Y-65041147D01*
X134448273Y-65149320D01*
X134213241Y-65306363D01*
X134013363Y-65506241D01*
X133856320Y-65741273D01*
X133748147Y-66002426D01*
X133693000Y-66279665D01*
X133693000Y-66562335D01*
X133748147Y-66839574D01*
X133856320Y-67100727D01*
X133873206Y-67125999D01*
X128762794Y-67125999D01*
X128779680Y-67100727D01*
X128887853Y-66839574D01*
X128943000Y-66562335D01*
X128943000Y-66279665D01*
X128887853Y-66002426D01*
X128779680Y-65741273D01*
X128622637Y-65506241D01*
X128422759Y-65306363D01*
X128268000Y-65202957D01*
X128268000Y-63656341D01*
X128398535Y-63569120D01*
X128518090Y-63449565D01*
X129262040Y-63449565D01*
X129329020Y-63689656D01*
X129578048Y-63806756D01*
X129845135Y-63873023D01*
X130120017Y-63885910D01*
X130392133Y-63844922D01*
X130651023Y-63751636D01*
X130766980Y-63689656D01*
X130833960Y-63449565D01*
X130048000Y-62663605D01*
X129262040Y-63449565D01*
X128518090Y-63449565D01*
X128593120Y-63374535D01*
X128746005Y-63145727D01*
X128775692Y-63074057D01*
X128780364Y-63087023D01*
X128842344Y-63202980D01*
X129082435Y-63269960D01*
X129868395Y-62484000D01*
X130227605Y-62484000D01*
X131013565Y-63269960D01*
X131253656Y-63202980D01*
X131370756Y-62953952D01*
X131437023Y-62686865D01*
X131449910Y-62411983D01*
X131408922Y-62139867D01*
X131315636Y-61880977D01*
X131253656Y-61765020D01*
X131013565Y-61698040D01*
X130227605Y-62484000D01*
X129868395Y-62484000D01*
X129082435Y-61698040D01*
X128842344Y-61765020D01*
X128778515Y-61900760D01*
X128746005Y-61822273D01*
X128593120Y-61593465D01*
X128518090Y-61518435D01*
X129262040Y-61518435D01*
X130048000Y-62304395D01*
X130833960Y-61518435D01*
X130766980Y-61278344D01*
X130517952Y-61161244D01*
X130250865Y-61094977D01*
X129975983Y-61082090D01*
X129703867Y-61123078D01*
X129444977Y-61216364D01*
X129329020Y-61278344D01*
X129262040Y-61518435D01*
X128518090Y-61518435D01*
X128398535Y-61398880D01*
X128169727Y-61245995D01*
X127915490Y-61140686D01*
X127645592Y-61087000D01*
X127370408Y-61087000D01*
X127100510Y-61140686D01*
X126846273Y-61245995D01*
X126617465Y-61398880D01*
X126422880Y-61593465D01*
X126269995Y-61822273D01*
X126164686Y-62076510D01*
X126111000Y-62346408D01*
X126111000Y-62621592D01*
X126164686Y-62891490D01*
X126269995Y-63145727D01*
X126422880Y-63374535D01*
X126617465Y-63569120D01*
X126748001Y-63656341D01*
X126748000Y-65202956D01*
X126593241Y-65306363D01*
X126393363Y-65506241D01*
X126236320Y-65741273D01*
X126128147Y-66002426D01*
X126073000Y-66279665D01*
X126073000Y-66562335D01*
X126128147Y-66839574D01*
X126236320Y-67100727D01*
X126393363Y-67335759D01*
X126593241Y-67535637D01*
X126701810Y-67608180D01*
X126596011Y-67629225D01*
X126343957Y-67733629D01*
X126117114Y-67885201D01*
X125924201Y-68078114D01*
X125772629Y-68304957D01*
X125668225Y-68557011D01*
X125615000Y-68824589D01*
X125615000Y-69097411D01*
X125668225Y-69364989D01*
X125772629Y-69617043D01*
X125844764Y-69725000D01*
X125798711Y-69725000D01*
X125754774Y-69681063D01*
X125585256Y-69567795D01*
X125396898Y-69489774D01*
X125196939Y-69450000D01*
X124993061Y-69450000D01*
X124793102Y-69489774D01*
X124604744Y-69567795D01*
X124435226Y-69681063D01*
X124291063Y-69825226D01*
X124177795Y-69994744D01*
X124099774Y-70183102D01*
X124060000Y-70383061D01*
X124060000Y-70586939D01*
X124099774Y-70786898D01*
X124177795Y-70975256D01*
X124291063Y-71144774D01*
X124435226Y-71288937D01*
X124604744Y-71402205D01*
X124620477Y-71408722D01*
X123912199Y-72117000D01*
X123850061Y-72117000D01*
X123650102Y-72156774D01*
X123461744Y-72234795D01*
X123292226Y-72348063D01*
X123148063Y-72492226D01*
X123034795Y-72661744D01*
X122956774Y-72850102D01*
X122917000Y-73050061D01*
X122917000Y-73253939D01*
X122956774Y-73453898D01*
X123034795Y-73642256D01*
X123148063Y-73811774D01*
X123292226Y-73955937D01*
X123458117Y-74066782D01*
X123430463Y-74108169D01*
X123406120Y-74166939D01*
X123375042Y-74170000D01*
X123375033Y-74170000D01*
X123263380Y-74180997D01*
X123120119Y-74224454D01*
X122988090Y-74295026D01*
X122872365Y-74389999D01*
X122848567Y-74418997D01*
X119541822Y-77725743D01*
X119508965Y-77508762D01*
X119416277Y-77252168D01*
X119355860Y-77139137D01*
X119116993Y-77073612D01*
X118339605Y-77851000D01*
X118353748Y-77865143D01*
X118174143Y-78044748D01*
X118160000Y-78030605D01*
X117382612Y-78807993D01*
X117448137Y-79046860D01*
X117695116Y-79162760D01*
X117959960Y-79228250D01*
X118232492Y-79240812D01*
X118502238Y-79199965D01*
X118758832Y-79107277D01*
X118871863Y-79046860D01*
X118937387Y-78807995D01*
X119001000Y-78871608D01*
X119001000Y-79426956D01*
X118846241Y-79530363D01*
X118646363Y-79730241D01*
X118489320Y-79965273D01*
X118381147Y-80226426D01*
X118326000Y-80503665D01*
X118326000Y-80786335D01*
X118381147Y-81063574D01*
X118489320Y-81324727D01*
X118646363Y-81559759D01*
X118846241Y-81759637D01*
X119081273Y-81916680D01*
X119342426Y-82024853D01*
X119619665Y-82080000D01*
X119902335Y-82080000D01*
X120179574Y-82024853D01*
X120440727Y-81916680D01*
X120675759Y-81759637D01*
X120875637Y-81559759D01*
X121032680Y-81324727D01*
X121140853Y-81063574D01*
X121196000Y-80786335D01*
X121196000Y-80503665D01*
X136360000Y-80503665D01*
X136360000Y-80786335D01*
X136415147Y-81063574D01*
X136523320Y-81324727D01*
X136680363Y-81559759D01*
X136880241Y-81759637D01*
X137115273Y-81916680D01*
X137376426Y-82024853D01*
X137653665Y-82080000D01*
X137936335Y-82080000D01*
X138213574Y-82024853D01*
X138474727Y-81916680D01*
X138709759Y-81759637D01*
X138909637Y-81559759D01*
X139066680Y-81324727D01*
X139174853Y-81063574D01*
X139230000Y-80786335D01*
X139230000Y-80503665D01*
X139174853Y-80226426D01*
X139066680Y-79965273D01*
X138909637Y-79730241D01*
X138709759Y-79530363D01*
X138474727Y-79373320D01*
X138213574Y-79265147D01*
X137936335Y-79210000D01*
X137653665Y-79210000D01*
X137376426Y-79265147D01*
X137115273Y-79373320D01*
X136880241Y-79530363D01*
X136680363Y-79730241D01*
X136523320Y-79965273D01*
X136415147Y-80226426D01*
X136360000Y-80503665D01*
X121196000Y-80503665D01*
X121140853Y-80226426D01*
X121032680Y-79965273D01*
X120875637Y-79730241D01*
X120675759Y-79530363D01*
X120521000Y-79426957D01*
X120521000Y-78896167D01*
X122242690Y-77174477D01*
X122213000Y-77323740D01*
X122213000Y-77616260D01*
X122270068Y-77903158D01*
X122382010Y-78173411D01*
X122544525Y-78416632D01*
X122751368Y-78623475D01*
X122994589Y-78785990D01*
X123264842Y-78897932D01*
X123551740Y-78955000D01*
X123844260Y-78955000D01*
X124131158Y-78897932D01*
X124401411Y-78785990D01*
X124644632Y-78623475D01*
X124851475Y-78416632D01*
X125013990Y-78173411D01*
X125125932Y-77903158D01*
X125183000Y-77616260D01*
X125183000Y-77323740D01*
X125160471Y-77210475D01*
X126143000Y-77210475D01*
X126143000Y-77729525D01*
X126244261Y-78238601D01*
X126442893Y-78718141D01*
X126731262Y-79149715D01*
X127098285Y-79516738D01*
X127529859Y-79805107D01*
X128009399Y-80003739D01*
X128518475Y-80105000D01*
X129037525Y-80105000D01*
X129546601Y-80003739D01*
X130026141Y-79805107D01*
X130457715Y-79516738D01*
X130824738Y-79149715D01*
X131113107Y-78718141D01*
X131311739Y-78238601D01*
X131413000Y-77729525D01*
X131413000Y-77323740D01*
X132373000Y-77323740D01*
X132373000Y-77616260D01*
X132430068Y-77903158D01*
X132542010Y-78173411D01*
X132704525Y-78416632D01*
X132911368Y-78623475D01*
X133154589Y-78785990D01*
X133424842Y-78897932D01*
X133711740Y-78955000D01*
X134004260Y-78955000D01*
X134291158Y-78897932D01*
X134561411Y-78785990D01*
X134804632Y-78623475D01*
X135011475Y-78416632D01*
X135173990Y-78173411D01*
X135285932Y-77903158D01*
X135343000Y-77616260D01*
X135343000Y-77323740D01*
X135285932Y-77036842D01*
X135173990Y-76766589D01*
X135011475Y-76523368D01*
X134804632Y-76316525D01*
X134561411Y-76154010D01*
X134291158Y-76042068D01*
X134004260Y-75985000D01*
X133711740Y-75985000D01*
X133424842Y-76042068D01*
X133154589Y-76154010D01*
X132911368Y-76316525D01*
X132704525Y-76523368D01*
X132542010Y-76766589D01*
X132430068Y-77036842D01*
X132373000Y-77323740D01*
X131413000Y-77323740D01*
X131413000Y-77210475D01*
X131311739Y-76701399D01*
X131113107Y-76221859D01*
X130824738Y-75790285D01*
X130457715Y-75423262D01*
X130026141Y-75134893D01*
X129546601Y-74936261D01*
X129037525Y-74835000D01*
X128518475Y-74835000D01*
X128009399Y-74936261D01*
X127529859Y-75134893D01*
X127098285Y-75423262D01*
X126731262Y-75790285D01*
X126442893Y-76221859D01*
X126244261Y-76701399D01*
X126143000Y-77210475D01*
X125160471Y-77210475D01*
X125125932Y-77036842D01*
X125013990Y-76766589D01*
X124946110Y-76665000D01*
X125138883Y-76665000D01*
X125474081Y-76598325D01*
X125789831Y-76467537D01*
X126073998Y-76277663D01*
X126315663Y-76035998D01*
X126505537Y-75751831D01*
X126636325Y-75436081D01*
X126703000Y-75100883D01*
X126703000Y-74759117D01*
X126636325Y-74423919D01*
X126505537Y-74108169D01*
X126315663Y-73824002D01*
X126088373Y-73596712D01*
X130290893Y-73596712D01*
X130398726Y-73871338D01*
X130705384Y-74022216D01*
X131035585Y-74110369D01*
X131376639Y-74132409D01*
X131715439Y-74087489D01*
X132038966Y-73977336D01*
X132237274Y-73871338D01*
X132345107Y-73596712D01*
X131318000Y-72569605D01*
X130290893Y-73596712D01*
X126088373Y-73596712D01*
X126073998Y-73582337D01*
X125789831Y-73392463D01*
X125474081Y-73261675D01*
X125138883Y-73195000D01*
X124987000Y-73195000D01*
X124987000Y-73191801D01*
X126483792Y-71695010D01*
X129726313Y-71695010D01*
X129685784Y-71777384D01*
X129597631Y-72107585D01*
X129575591Y-72448639D01*
X129620511Y-72787439D01*
X129730664Y-73110966D01*
X129836662Y-73309274D01*
X130111288Y-73417107D01*
X131138395Y-72390000D01*
X131124253Y-72375858D01*
X131303858Y-72196253D01*
X131318000Y-72210395D01*
X131332143Y-72196253D01*
X131511748Y-72375858D01*
X131497605Y-72390000D01*
X132524712Y-73417107D01*
X132799338Y-73309274D01*
X132950216Y-73002616D01*
X133038369Y-72672415D01*
X133060409Y-72331361D01*
X133015489Y-71992561D01*
X132914180Y-71695010D01*
X136229209Y-71695010D01*
X137023833Y-72489635D01*
X136995000Y-72634589D01*
X136995000Y-72907411D01*
X137048225Y-73174989D01*
X137152629Y-73427043D01*
X137304201Y-73653886D01*
X137497114Y-73846799D01*
X137723957Y-73998371D01*
X137826873Y-74041000D01*
X137723957Y-74083629D01*
X137497114Y-74235201D01*
X137304201Y-74428114D01*
X137152629Y-74654957D01*
X137048225Y-74907011D01*
X136995000Y-75174589D01*
X136995000Y-75447411D01*
X137048225Y-75714989D01*
X137152629Y-75967043D01*
X137304201Y-76193886D01*
X137497114Y-76386799D01*
X137723957Y-76538371D01*
X137826873Y-76581000D01*
X137723957Y-76623629D01*
X137497114Y-76775201D01*
X137304201Y-76968114D01*
X137152629Y-77194957D01*
X137048225Y-77447011D01*
X136995000Y-77714589D01*
X136995000Y-77987411D01*
X137048225Y-78254989D01*
X137152629Y-78507043D01*
X137304201Y-78733886D01*
X137497114Y-78926799D01*
X137723957Y-79078371D01*
X137976011Y-79182775D01*
X138243589Y-79236000D01*
X138516411Y-79236000D01*
X138783989Y-79182775D01*
X139036043Y-79078371D01*
X139262886Y-78926799D01*
X139294001Y-78895684D01*
X139294001Y-99340000D01*
X115637917Y-99340000D01*
X115811727Y-99268005D01*
X116040535Y-99115120D01*
X116235120Y-98920535D01*
X116388005Y-98691727D01*
X116493314Y-98437490D01*
X116547000Y-98167592D01*
X116547000Y-97892408D01*
X116493314Y-97622510D01*
X116388005Y-97368273D01*
X116235120Y-97139465D01*
X116040535Y-96944880D01*
X115811727Y-96791995D01*
X115740057Y-96762308D01*
X115753023Y-96757636D01*
X115868980Y-96695656D01*
X115935960Y-96455565D01*
X115150000Y-95669605D01*
X114364040Y-96455565D01*
X114431020Y-96695656D01*
X114566760Y-96759485D01*
X114488273Y-96791995D01*
X114259465Y-96944880D01*
X114064880Y-97139465D01*
X113911995Y-97368273D01*
X113806686Y-97622510D01*
X113753000Y-97892408D01*
X113753000Y-98167592D01*
X113806686Y-98437490D01*
X113911995Y-98691727D01*
X114064880Y-98920535D01*
X114259465Y-99115120D01*
X114488273Y-99268005D01*
X114662083Y-99340000D01*
X97180000Y-99340000D01*
X97180000Y-95562017D01*
X113748090Y-95562017D01*
X113789078Y-95834133D01*
X113882364Y-96093023D01*
X113944344Y-96208980D01*
X114184435Y-96275960D01*
X114970395Y-95490000D01*
X115329605Y-95490000D01*
X116115565Y-96275960D01*
X116355656Y-96208980D01*
X116472756Y-95959952D01*
X116539023Y-95692865D01*
X116551910Y-95417983D01*
X116510922Y-95145867D01*
X116417636Y-94886977D01*
X116355656Y-94771020D01*
X116115565Y-94704040D01*
X115329605Y-95490000D01*
X114970395Y-95490000D01*
X114184435Y-94704040D01*
X113944344Y-94771020D01*
X113827244Y-95020048D01*
X113760977Y-95287135D01*
X113748090Y-95562017D01*
X97180000Y-95562017D01*
X97180000Y-94524435D01*
X114364040Y-94524435D01*
X115150000Y-95310395D01*
X115935960Y-94524435D01*
X115868980Y-94284344D01*
X115619952Y-94167244D01*
X115352865Y-94100977D01*
X115077983Y-94088090D01*
X114805867Y-94129078D01*
X114546977Y-94222364D01*
X114431020Y-94284344D01*
X114364040Y-94524435D01*
X97180000Y-94524435D01*
X97180000Y-88123665D01*
X118326000Y-88123665D01*
X118326000Y-88406335D01*
X118381147Y-88683574D01*
X118489320Y-88944727D01*
X118646363Y-89179759D01*
X118846241Y-89379637D01*
X119081273Y-89536680D01*
X119342426Y-89644853D01*
X119619665Y-89700000D01*
X119902335Y-89700000D01*
X120179574Y-89644853D01*
X120440727Y-89536680D01*
X120675759Y-89379637D01*
X120875637Y-89179759D01*
X121032680Y-88944727D01*
X121140853Y-88683574D01*
X121151178Y-88631665D01*
X126073000Y-88631665D01*
X126073000Y-88914335D01*
X126128147Y-89191574D01*
X126236320Y-89452727D01*
X126393363Y-89687759D01*
X126593241Y-89887637D01*
X126828273Y-90044680D01*
X127089426Y-90152853D01*
X127366665Y-90208000D01*
X127649335Y-90208000D01*
X127926574Y-90152853D01*
X128187727Y-90044680D01*
X128422759Y-89887637D01*
X128622637Y-89687759D01*
X128779680Y-89452727D01*
X128887853Y-89191574D01*
X128943000Y-88914335D01*
X128943000Y-88631665D01*
X133693000Y-88631665D01*
X133693000Y-88914335D01*
X133748147Y-89191574D01*
X133856320Y-89452727D01*
X134013363Y-89687759D01*
X134213241Y-89887637D01*
X134448273Y-90044680D01*
X134709426Y-90152853D01*
X134986665Y-90208000D01*
X135269335Y-90208000D01*
X135546574Y-90152853D01*
X135807727Y-90044680D01*
X136042759Y-89887637D01*
X136242637Y-89687759D01*
X136399680Y-89452727D01*
X136507853Y-89191574D01*
X136549239Y-88983517D01*
X136680363Y-89179759D01*
X136880241Y-89379637D01*
X137115273Y-89536680D01*
X137376426Y-89644853D01*
X137653665Y-89700000D01*
X137936335Y-89700000D01*
X138213574Y-89644853D01*
X138474727Y-89536680D01*
X138709759Y-89379637D01*
X138909637Y-89179759D01*
X139066680Y-88944727D01*
X139174853Y-88683574D01*
X139230000Y-88406335D01*
X139230000Y-88123665D01*
X139174853Y-87846426D01*
X139066680Y-87585273D01*
X138909637Y-87350241D01*
X138709759Y-87150363D01*
X138474727Y-86993320D01*
X138213574Y-86885147D01*
X137936335Y-86830000D01*
X137653665Y-86830000D01*
X137376426Y-86885147D01*
X137115273Y-86993320D01*
X136880241Y-87150363D01*
X136680363Y-87350241D01*
X136523320Y-87585273D01*
X136415147Y-87846426D01*
X136373761Y-88054483D01*
X136242637Y-87858241D01*
X136042759Y-87658363D01*
X135807727Y-87501320D01*
X135546574Y-87393147D01*
X135269335Y-87338000D01*
X134986665Y-87338000D01*
X134709426Y-87393147D01*
X134448273Y-87501320D01*
X134213241Y-87658363D01*
X134013363Y-87858241D01*
X133856320Y-88093273D01*
X133748147Y-88354426D01*
X133693000Y-88631665D01*
X128943000Y-88631665D01*
X128887853Y-88354426D01*
X128779680Y-88093273D01*
X128622637Y-87858241D01*
X128422759Y-87658363D01*
X128268000Y-87554957D01*
X128268000Y-83722341D01*
X128398535Y-83635120D01*
X128518090Y-83515565D01*
X129262040Y-83515565D01*
X129329020Y-83755656D01*
X129578048Y-83872756D01*
X129845135Y-83939023D01*
X130120017Y-83951910D01*
X130392133Y-83910922D01*
X130651023Y-83817636D01*
X130766980Y-83755656D01*
X130833960Y-83515565D01*
X130048000Y-82729605D01*
X129262040Y-83515565D01*
X128518090Y-83515565D01*
X128593120Y-83440535D01*
X128746005Y-83211727D01*
X128775692Y-83140057D01*
X128780364Y-83153023D01*
X128842344Y-83268980D01*
X129082435Y-83335960D01*
X129868395Y-82550000D01*
X130227605Y-82550000D01*
X131013565Y-83335960D01*
X131253656Y-83268980D01*
X131370756Y-83019952D01*
X131437023Y-82752865D01*
X131449910Y-82477983D01*
X131408922Y-82205867D01*
X131315636Y-81946977D01*
X131253656Y-81831020D01*
X131013565Y-81764040D01*
X130227605Y-82550000D01*
X129868395Y-82550000D01*
X129082435Y-81764040D01*
X128842344Y-81831020D01*
X128778515Y-81966760D01*
X128746005Y-81888273D01*
X128593120Y-81659465D01*
X128518090Y-81584435D01*
X129262040Y-81584435D01*
X130048000Y-82370395D01*
X130833960Y-81584435D01*
X130766980Y-81344344D01*
X130517952Y-81227244D01*
X130250865Y-81160977D01*
X129975983Y-81148090D01*
X129703867Y-81189078D01*
X129444977Y-81282364D01*
X129329020Y-81344344D01*
X129262040Y-81584435D01*
X128518090Y-81584435D01*
X128398535Y-81464880D01*
X128169727Y-81311995D01*
X127915490Y-81206686D01*
X127645592Y-81153000D01*
X127370408Y-81153000D01*
X127100510Y-81206686D01*
X126846273Y-81311995D01*
X126617465Y-81464880D01*
X126422880Y-81659465D01*
X126269995Y-81888273D01*
X126164686Y-82142510D01*
X126111000Y-82412408D01*
X126111000Y-82687592D01*
X126164686Y-82957490D01*
X126269995Y-83211727D01*
X126422880Y-83440535D01*
X126617465Y-83635120D01*
X126748000Y-83722341D01*
X126748001Y-87554956D01*
X126593241Y-87658363D01*
X126393363Y-87858241D01*
X126236320Y-88093273D01*
X126128147Y-88354426D01*
X126073000Y-88631665D01*
X121151178Y-88631665D01*
X121196000Y-88406335D01*
X121196000Y-88123665D01*
X121140853Y-87846426D01*
X121032680Y-87585273D01*
X120875637Y-87350241D01*
X120675759Y-87150363D01*
X120440727Y-86993320D01*
X120179574Y-86885147D01*
X119902335Y-86830000D01*
X119619665Y-86830000D01*
X119342426Y-86885147D01*
X119081273Y-86993320D01*
X118846241Y-87150363D01*
X118646363Y-87350241D01*
X118489320Y-87585273D01*
X118381147Y-87846426D01*
X118326000Y-88123665D01*
X97180000Y-88123665D01*
X97180000Y-87165655D01*
X97244465Y-87230120D01*
X97473273Y-87383005D01*
X97727510Y-87488314D01*
X97997408Y-87542000D01*
X98272592Y-87542000D01*
X98542490Y-87488314D01*
X98796727Y-87383005D01*
X99025535Y-87230120D01*
X99220120Y-87035535D01*
X99373005Y-86806727D01*
X99478314Y-86552490D01*
X99519454Y-86345665D01*
X106007000Y-86345665D01*
X106007000Y-86628335D01*
X106062147Y-86905574D01*
X106170320Y-87166727D01*
X106327363Y-87401759D01*
X106527241Y-87601637D01*
X106762273Y-87758680D01*
X107023426Y-87866853D01*
X107300665Y-87922000D01*
X107583335Y-87922000D01*
X107860574Y-87866853D01*
X108121727Y-87758680D01*
X108356759Y-87601637D01*
X108556637Y-87401759D01*
X108713680Y-87166727D01*
X108821853Y-86905574D01*
X108877000Y-86628335D01*
X108877000Y-86345665D01*
X113627000Y-86345665D01*
X113627000Y-86628335D01*
X113682147Y-86905574D01*
X113790320Y-87166727D01*
X113947363Y-87401759D01*
X114147241Y-87601637D01*
X114382273Y-87758680D01*
X114643426Y-87866853D01*
X114920665Y-87922000D01*
X115203335Y-87922000D01*
X115480574Y-87866853D01*
X115741727Y-87758680D01*
X115976759Y-87601637D01*
X116176637Y-87401759D01*
X116333680Y-87166727D01*
X116441853Y-86905574D01*
X116497000Y-86628335D01*
X116497000Y-86345665D01*
X116441853Y-86068426D01*
X116333680Y-85807273D01*
X116176637Y-85572241D01*
X115976759Y-85372363D01*
X115741727Y-85215320D01*
X115480574Y-85107147D01*
X115203335Y-85052000D01*
X114920665Y-85052000D01*
X114643426Y-85107147D01*
X114382273Y-85215320D01*
X114147241Y-85372363D01*
X113947363Y-85572241D01*
X113790320Y-85807273D01*
X113682147Y-86068426D01*
X113627000Y-86345665D01*
X108877000Y-86345665D01*
X108821853Y-86068426D01*
X108713680Y-85807273D01*
X108556637Y-85572241D01*
X108356759Y-85372363D01*
X108121727Y-85215320D01*
X107860574Y-85107147D01*
X107583335Y-85052000D01*
X107300665Y-85052000D01*
X107023426Y-85107147D01*
X106762273Y-85215320D01*
X106527241Y-85372363D01*
X106327363Y-85572241D01*
X106170320Y-85807273D01*
X106062147Y-86068426D01*
X106007000Y-86345665D01*
X99519454Y-86345665D01*
X99532000Y-86282592D01*
X99532000Y-86007408D01*
X99478314Y-85737510D01*
X99373005Y-85483273D01*
X99220120Y-85254465D01*
X99025535Y-85059880D01*
X98796727Y-84906995D01*
X98725057Y-84877308D01*
X98738023Y-84872636D01*
X98853980Y-84810656D01*
X98920960Y-84570565D01*
X98135000Y-83784605D01*
X98120858Y-83798748D01*
X97941253Y-83619143D01*
X97955395Y-83605000D01*
X98314605Y-83605000D01*
X99100565Y-84390960D01*
X99340656Y-84323980D01*
X99457756Y-84074952D01*
X99524023Y-83807865D01*
X99536910Y-83532983D01*
X99495922Y-83260867D01*
X99402636Y-83001977D01*
X99340656Y-82886020D01*
X99100565Y-82819040D01*
X98314605Y-83605000D01*
X97955395Y-83605000D01*
X97941253Y-83590858D01*
X98120858Y-83411253D01*
X98135000Y-83425395D01*
X98920960Y-82639435D01*
X98857625Y-82412408D01*
X106045000Y-82412408D01*
X106045000Y-82687592D01*
X106098686Y-82957490D01*
X106203995Y-83211727D01*
X106356880Y-83440535D01*
X106551465Y-83635120D01*
X106780273Y-83788005D01*
X107034510Y-83893314D01*
X107304408Y-83947000D01*
X107579592Y-83947000D01*
X107849490Y-83893314D01*
X108103727Y-83788005D01*
X108332535Y-83635120D01*
X108452090Y-83515565D01*
X109196040Y-83515565D01*
X109263020Y-83755656D01*
X109512048Y-83872756D01*
X109779135Y-83939023D01*
X110054017Y-83951910D01*
X110326133Y-83910922D01*
X110585023Y-83817636D01*
X110700980Y-83755656D01*
X110767960Y-83515565D01*
X109982000Y-82729605D01*
X109196040Y-83515565D01*
X108452090Y-83515565D01*
X108527120Y-83440535D01*
X108680005Y-83211727D01*
X108709692Y-83140057D01*
X108714364Y-83153023D01*
X108776344Y-83268980D01*
X109016435Y-83335960D01*
X109802395Y-82550000D01*
X110161605Y-82550000D01*
X110947565Y-83335960D01*
X111187656Y-83268980D01*
X111304756Y-83019952D01*
X111371023Y-82752865D01*
X111383910Y-82477983D01*
X111342922Y-82205867D01*
X111249636Y-81946977D01*
X111187656Y-81831020D01*
X110947565Y-81764040D01*
X110161605Y-82550000D01*
X109802395Y-82550000D01*
X109016435Y-81764040D01*
X108776344Y-81831020D01*
X108712515Y-81966760D01*
X108680005Y-81888273D01*
X108527120Y-81659465D01*
X108452090Y-81584435D01*
X109196040Y-81584435D01*
X109982000Y-82370395D01*
X110767960Y-81584435D01*
X110700980Y-81344344D01*
X110451952Y-81227244D01*
X110184865Y-81160977D01*
X109909983Y-81148090D01*
X109637867Y-81189078D01*
X109378977Y-81282364D01*
X109263020Y-81344344D01*
X109196040Y-81584435D01*
X108452090Y-81584435D01*
X108332535Y-81464880D01*
X108103727Y-81311995D01*
X107849490Y-81206686D01*
X107579592Y-81153000D01*
X107304408Y-81153000D01*
X107034510Y-81206686D01*
X106780273Y-81311995D01*
X106551465Y-81464880D01*
X106356880Y-81659465D01*
X106203995Y-81888273D01*
X106098686Y-82142510D01*
X106045000Y-82412408D01*
X98857625Y-82412408D01*
X98853980Y-82399344D01*
X98718240Y-82335515D01*
X98796727Y-82303005D01*
X99025535Y-82150120D01*
X99220120Y-81955535D01*
X99373005Y-81726727D01*
X99478314Y-81472490D01*
X99532000Y-81202592D01*
X99532000Y-80927408D01*
X99478314Y-80657510D01*
X99373005Y-80403273D01*
X99220120Y-80174465D01*
X99025535Y-79979880D01*
X98796727Y-79826995D01*
X98542490Y-79721686D01*
X98272592Y-79668000D01*
X97997408Y-79668000D01*
X97727510Y-79721686D01*
X97473273Y-79826995D01*
X97244465Y-79979880D01*
X97180000Y-80044345D01*
X97180000Y-77323740D01*
X102147000Y-77323740D01*
X102147000Y-77616260D01*
X102204068Y-77903158D01*
X102316010Y-78173411D01*
X102478525Y-78416632D01*
X102685368Y-78623475D01*
X102928589Y-78785990D01*
X103198842Y-78897932D01*
X103485740Y-78955000D01*
X103778260Y-78955000D01*
X104065158Y-78897932D01*
X104335411Y-78785990D01*
X104578632Y-78623475D01*
X104785475Y-78416632D01*
X104947990Y-78173411D01*
X105059932Y-77903158D01*
X105117000Y-77616260D01*
X105117000Y-77323740D01*
X105094471Y-77210475D01*
X106077000Y-77210475D01*
X106077000Y-77729525D01*
X106178261Y-78238601D01*
X106376893Y-78718141D01*
X106665262Y-79149715D01*
X107032285Y-79516738D01*
X107463859Y-79805107D01*
X107943399Y-80003739D01*
X108452475Y-80105000D01*
X108971525Y-80105000D01*
X109480601Y-80003739D01*
X109960141Y-79805107D01*
X110391715Y-79516738D01*
X110758738Y-79149715D01*
X111047107Y-78718141D01*
X111245739Y-78238601D01*
X111347000Y-77729525D01*
X111347000Y-77323740D01*
X112307000Y-77323740D01*
X112307000Y-77616260D01*
X112364068Y-77903158D01*
X112476010Y-78173411D01*
X112638525Y-78416632D01*
X112845368Y-78623475D01*
X113088589Y-78785990D01*
X113358842Y-78897932D01*
X113645740Y-78955000D01*
X113938260Y-78955000D01*
X114225158Y-78897932D01*
X114495411Y-78785990D01*
X114738632Y-78623475D01*
X114945475Y-78416632D01*
X115107990Y-78173411D01*
X115211509Y-77923492D01*
X116770188Y-77923492D01*
X116811035Y-78193238D01*
X116903723Y-78449832D01*
X116964140Y-78562863D01*
X117203007Y-78628388D01*
X117980395Y-77851000D01*
X117203007Y-77073612D01*
X116964140Y-77139137D01*
X116848240Y-77386116D01*
X116782750Y-77650960D01*
X116770188Y-77923492D01*
X115211509Y-77923492D01*
X115219932Y-77903158D01*
X115277000Y-77616260D01*
X115277000Y-77323740D01*
X115219932Y-77036842D01*
X115107990Y-76766589D01*
X114945475Y-76523368D01*
X114738632Y-76316525D01*
X114495411Y-76154010D01*
X114225158Y-76042068D01*
X113938260Y-75985000D01*
X113645740Y-75985000D01*
X113358842Y-76042068D01*
X113088589Y-76154010D01*
X112845368Y-76316525D01*
X112638525Y-76523368D01*
X112476010Y-76766589D01*
X112364068Y-77036842D01*
X112307000Y-77323740D01*
X111347000Y-77323740D01*
X111347000Y-77210475D01*
X111245739Y-76701399D01*
X111047107Y-76221859D01*
X110758738Y-75790285D01*
X110391715Y-75423262D01*
X109960141Y-75134893D01*
X109480601Y-74936261D01*
X108971525Y-74835000D01*
X108452475Y-74835000D01*
X107943399Y-74936261D01*
X107463859Y-75134893D01*
X107032285Y-75423262D01*
X106665262Y-75790285D01*
X106376893Y-76221859D01*
X106178261Y-76701399D01*
X106077000Y-77210475D01*
X105094471Y-77210475D01*
X105059932Y-77036842D01*
X104947990Y-76766589D01*
X104880110Y-76665000D01*
X105072883Y-76665000D01*
X105408081Y-76598325D01*
X105723831Y-76467537D01*
X106007998Y-76277663D01*
X106249663Y-76035998D01*
X106439537Y-75751831D01*
X106570325Y-75436081D01*
X106637000Y-75100883D01*
X106637000Y-74759117D01*
X106570325Y-74423919D01*
X106439537Y-74108169D01*
X106249663Y-73824002D01*
X106022373Y-73596712D01*
X110224893Y-73596712D01*
X110332726Y-73871338D01*
X110639384Y-74022216D01*
X110969585Y-74110369D01*
X111310639Y-74132409D01*
X111649439Y-74087489D01*
X111972966Y-73977336D01*
X112171274Y-73871338D01*
X112279107Y-73596712D01*
X111252000Y-72569605D01*
X110224893Y-73596712D01*
X106022373Y-73596712D01*
X106007998Y-73582337D01*
X105723831Y-73392463D01*
X105408081Y-73261675D01*
X105072883Y-73195000D01*
X104731117Y-73195000D01*
X104395919Y-73261675D01*
X104080169Y-73392463D01*
X103796002Y-73582337D01*
X103554337Y-73824002D01*
X103364463Y-74108169D01*
X103233675Y-74423919D01*
X103167000Y-74759117D01*
X103167000Y-75100883D01*
X103233675Y-75436081D01*
X103364463Y-75751831D01*
X103520261Y-75985000D01*
X103485740Y-75985000D01*
X103198842Y-76042068D01*
X102928589Y-76154010D01*
X102685368Y-76316525D01*
X102478525Y-76523368D01*
X102316010Y-76766589D01*
X102204068Y-77036842D01*
X102147000Y-77323740D01*
X97180000Y-77323740D01*
X97180000Y-74788665D01*
X98260000Y-74788665D01*
X98260000Y-75071335D01*
X98315147Y-75348574D01*
X98423320Y-75609727D01*
X98580363Y-75844759D01*
X98780241Y-76044637D01*
X99015273Y-76201680D01*
X99276426Y-76309853D01*
X99553665Y-76365000D01*
X99836335Y-76365000D01*
X100113574Y-76309853D01*
X100374727Y-76201680D01*
X100609759Y-76044637D01*
X100809637Y-75844759D01*
X100966680Y-75609727D01*
X101074853Y-75348574D01*
X101130000Y-75071335D01*
X101130000Y-74788665D01*
X101074853Y-74511426D01*
X100966680Y-74250273D01*
X100809637Y-74015241D01*
X100609759Y-73815363D01*
X100374727Y-73658320D01*
X100113574Y-73550147D01*
X99836335Y-73495000D01*
X99553665Y-73495000D01*
X99276426Y-73550147D01*
X99015273Y-73658320D01*
X98780241Y-73815363D01*
X98580363Y-74015241D01*
X98423320Y-74250273D01*
X98315147Y-74511426D01*
X98260000Y-74788665D01*
X97180000Y-74788665D01*
X97180000Y-72448639D01*
X109509591Y-72448639D01*
X109554511Y-72787439D01*
X109664664Y-73110966D01*
X109770662Y-73309274D01*
X110045288Y-73417107D01*
X111072395Y-72390000D01*
X111431605Y-72390000D01*
X112458712Y-73417107D01*
X112733338Y-73309274D01*
X112884216Y-73002616D01*
X112972369Y-72672415D01*
X112994409Y-72331361D01*
X112949489Y-71992561D01*
X112839336Y-71669034D01*
X112733338Y-71470726D01*
X112458712Y-71362893D01*
X111431605Y-72390000D01*
X111072395Y-72390000D01*
X110045288Y-71362893D01*
X109770662Y-71470726D01*
X109619784Y-71777384D01*
X109531631Y-72107585D01*
X109509591Y-72448639D01*
X97180000Y-72448639D01*
X97180000Y-71183288D01*
X110224893Y-71183288D01*
X111252000Y-72210395D01*
X112279107Y-71183288D01*
X112171274Y-70908662D01*
X111864616Y-70757784D01*
X111534415Y-70669631D01*
X111193361Y-70647591D01*
X110854561Y-70692511D01*
X110531034Y-70802664D01*
X110332726Y-70908662D01*
X110224893Y-71183288D01*
X97180000Y-71183288D01*
X97180000Y-70094589D01*
X116775000Y-70094589D01*
X116775000Y-70367411D01*
X116828225Y-70634989D01*
X116932629Y-70887043D01*
X117084201Y-71113886D01*
X117277114Y-71306799D01*
X117503957Y-71458371D01*
X117606873Y-71501000D01*
X117503957Y-71543629D01*
X117277114Y-71695201D01*
X117084201Y-71888114D01*
X116932629Y-72114957D01*
X116828225Y-72367011D01*
X116775000Y-72634589D01*
X116775000Y-72907411D01*
X116828225Y-73174989D01*
X116932629Y-73427043D01*
X117084201Y-73653886D01*
X117277114Y-73846799D01*
X117503957Y-73998371D01*
X117606873Y-74041000D01*
X117503957Y-74083629D01*
X117277114Y-74235201D01*
X117084201Y-74428114D01*
X116932629Y-74654957D01*
X116828225Y-74907011D01*
X116775000Y-75174589D01*
X116775000Y-75447411D01*
X116828225Y-75714989D01*
X116932629Y-75967043D01*
X117084201Y-76193886D01*
X117277114Y-76386799D01*
X117503957Y-76538371D01*
X117603279Y-76579511D01*
X117561168Y-76594723D01*
X117448137Y-76655140D01*
X117382612Y-76894007D01*
X118160000Y-77671395D01*
X118937388Y-76894007D01*
X118871863Y-76655140D01*
X118713523Y-76580836D01*
X118816043Y-76538371D01*
X119042886Y-76386799D01*
X119235799Y-76193886D01*
X119387371Y-75967043D01*
X119491775Y-75714989D01*
X119545000Y-75447411D01*
X119545000Y-75174589D01*
X119491775Y-74907011D01*
X119387371Y-74654957D01*
X119235799Y-74428114D01*
X119042886Y-74235201D01*
X118816043Y-74083629D01*
X118713127Y-74041000D01*
X118816043Y-73998371D01*
X119042886Y-73846799D01*
X119235799Y-73653886D01*
X119387371Y-73427043D01*
X119491775Y-73174989D01*
X119545000Y-72907411D01*
X119545000Y-72634589D01*
X119491775Y-72367011D01*
X119387371Y-72114957D01*
X119235799Y-71888114D01*
X119042886Y-71695201D01*
X118816043Y-71543629D01*
X118713127Y-71501000D01*
X118816043Y-71458371D01*
X119042886Y-71306799D01*
X119235799Y-71113886D01*
X119387371Y-70887043D01*
X119491775Y-70634989D01*
X119545000Y-70367411D01*
X119545000Y-70094589D01*
X119491775Y-69827011D01*
X119387371Y-69574957D01*
X119235799Y-69348114D01*
X119042886Y-69155201D01*
X118816043Y-69003629D01*
X118716721Y-68962489D01*
X118758832Y-68947277D01*
X118871863Y-68886860D01*
X118937388Y-68647993D01*
X118160000Y-67870605D01*
X117382612Y-68647993D01*
X117448137Y-68886860D01*
X117606477Y-68961164D01*
X117503957Y-69003629D01*
X117277114Y-69155201D01*
X117084201Y-69348114D01*
X116932629Y-69574957D01*
X116828225Y-69827011D01*
X116775000Y-70094589D01*
X97180000Y-70094589D01*
X97180000Y-67168665D01*
X98260000Y-67168665D01*
X98260000Y-67451335D01*
X98315147Y-67728574D01*
X98423320Y-67989727D01*
X98580363Y-68224759D01*
X98780241Y-68424637D01*
X99015273Y-68581680D01*
X99276426Y-68689853D01*
X99553665Y-68745000D01*
X99836335Y-68745000D01*
X100113574Y-68689853D01*
X100374727Y-68581680D01*
X100609759Y-68424637D01*
X100809637Y-68224759D01*
X100966680Y-67989727D01*
X101074853Y-67728574D01*
X101130000Y-67451335D01*
X101130000Y-67168665D01*
X101074853Y-66891426D01*
X100966680Y-66630273D01*
X100809637Y-66395241D01*
X100694061Y-66279665D01*
X106007000Y-66279665D01*
X106007000Y-66562335D01*
X106062147Y-66839574D01*
X106170320Y-67100727D01*
X106327363Y-67335759D01*
X106527241Y-67535637D01*
X106762273Y-67692680D01*
X107023426Y-67800853D01*
X107300665Y-67856000D01*
X107583335Y-67856000D01*
X107860574Y-67800853D01*
X108121727Y-67692680D01*
X108356759Y-67535637D01*
X108556637Y-67335759D01*
X108713680Y-67100727D01*
X108821853Y-66839574D01*
X108877000Y-66562335D01*
X108877000Y-66279665D01*
X113627000Y-66279665D01*
X113627000Y-66562335D01*
X113682147Y-66839574D01*
X113790320Y-67100727D01*
X113947363Y-67335759D01*
X114147241Y-67535637D01*
X114382273Y-67692680D01*
X114643426Y-67800853D01*
X114920665Y-67856000D01*
X115203335Y-67856000D01*
X115480574Y-67800853D01*
X115570771Y-67763492D01*
X116770188Y-67763492D01*
X116811035Y-68033238D01*
X116903723Y-68289832D01*
X116964140Y-68402863D01*
X117203007Y-68468388D01*
X117980395Y-67691000D01*
X118339605Y-67691000D01*
X119116993Y-68468388D01*
X119355860Y-68402863D01*
X119471760Y-68155884D01*
X119537250Y-67891040D01*
X119549812Y-67618508D01*
X119508965Y-67348762D01*
X119416277Y-67092168D01*
X119355860Y-66979137D01*
X119116993Y-66913612D01*
X118339605Y-67691000D01*
X117980395Y-67691000D01*
X117203007Y-66913612D01*
X116964140Y-66979137D01*
X116848240Y-67226116D01*
X116782750Y-67490960D01*
X116770188Y-67763492D01*
X115570771Y-67763492D01*
X115741727Y-67692680D01*
X115976759Y-67535637D01*
X116176637Y-67335759D01*
X116333680Y-67100727D01*
X116441853Y-66839574D01*
X116497000Y-66562335D01*
X116497000Y-66279665D01*
X116441853Y-66002426D01*
X116333680Y-65741273D01*
X116176637Y-65506241D01*
X115976759Y-65306363D01*
X115822000Y-65202957D01*
X115822000Y-60943801D01*
X116775000Y-59990801D01*
X116775000Y-60207411D01*
X116828225Y-60474989D01*
X116932629Y-60727043D01*
X117084201Y-60953886D01*
X117277114Y-61146799D01*
X117503957Y-61298371D01*
X117606873Y-61341000D01*
X117503957Y-61383629D01*
X117277114Y-61535201D01*
X117084201Y-61728114D01*
X116932629Y-61954957D01*
X116828225Y-62207011D01*
X116775000Y-62474589D01*
X116775000Y-62747411D01*
X116828225Y-63014989D01*
X116932629Y-63267043D01*
X117084201Y-63493886D01*
X117277114Y-63686799D01*
X117503957Y-63838371D01*
X117606873Y-63881000D01*
X117503957Y-63923629D01*
X117277114Y-64075201D01*
X117084201Y-64268114D01*
X116932629Y-64494957D01*
X116828225Y-64747011D01*
X116775000Y-65014589D01*
X116775000Y-65287411D01*
X116828225Y-65554989D01*
X116932629Y-65807043D01*
X117084201Y-66033886D01*
X117277114Y-66226799D01*
X117503957Y-66378371D01*
X117603279Y-66419511D01*
X117561168Y-66434723D01*
X117448137Y-66495140D01*
X117382612Y-66734007D01*
X118160000Y-67511395D01*
X118937388Y-66734007D01*
X118871863Y-66495140D01*
X118713523Y-66420836D01*
X118816043Y-66378371D01*
X119042886Y-66226799D01*
X119235799Y-66033886D01*
X119387371Y-65807043D01*
X119491775Y-65554989D01*
X119545000Y-65287411D01*
X119545000Y-65014589D01*
X119491775Y-64747011D01*
X119387371Y-64494957D01*
X119235799Y-64268114D01*
X119042886Y-64075201D01*
X118816043Y-63923629D01*
X118713127Y-63881000D01*
X118816043Y-63838371D01*
X119042886Y-63686799D01*
X119235799Y-63493886D01*
X119387371Y-63267043D01*
X119491775Y-63014989D01*
X119545000Y-62747411D01*
X119545000Y-62474589D01*
X119491775Y-62207011D01*
X119387371Y-61954957D01*
X119235799Y-61728114D01*
X119042886Y-61535201D01*
X118816043Y-61383629D01*
X118713127Y-61341000D01*
X118816043Y-61298371D01*
X119042886Y-61146799D01*
X119235799Y-60953886D01*
X119387371Y-60727043D01*
X119491775Y-60474989D01*
X119545000Y-60207411D01*
X119545000Y-59934589D01*
X119491775Y-59667011D01*
X119387371Y-59414957D01*
X119235799Y-59188114D01*
X119042886Y-58995201D01*
X118816043Y-58843629D01*
X118713127Y-58801000D01*
X118816043Y-58758371D01*
X119042886Y-58606799D01*
X119235799Y-58413886D01*
X119387371Y-58187043D01*
X119491775Y-57934989D01*
X119545000Y-57667411D01*
X119545000Y-57450801D01*
X124208001Y-62113803D01*
X124208000Y-64574289D01*
X124164063Y-64618226D01*
X124050795Y-64787744D01*
X123972774Y-64976102D01*
X123933000Y-65176061D01*
X123933000Y-65379939D01*
X123972774Y-65579898D01*
X124050795Y-65768256D01*
X124164063Y-65937774D01*
X124308226Y-66081937D01*
X124477744Y-66195205D01*
X124666102Y-66273226D01*
X124866061Y-66313000D01*
X125069939Y-66313000D01*
X125269898Y-66273226D01*
X125458256Y-66195205D01*
X125627774Y-66081937D01*
X125771937Y-65937774D01*
X125885205Y-65768256D01*
X125963226Y-65579898D01*
X126003000Y-65379939D01*
X126003000Y-65176061D01*
X125963226Y-64976102D01*
X125885205Y-64787744D01*
X125771937Y-64618226D01*
X125728000Y-64574289D01*
X125728000Y-61836323D01*
X125731676Y-61799000D01*
X125728000Y-61761677D01*
X125728000Y-61761667D01*
X125717003Y-61650014D01*
X125673546Y-61506753D01*
X125607734Y-61383629D01*
X125602974Y-61374723D01*
X125531799Y-61287997D01*
X125508001Y-61258999D01*
X125479003Y-61235201D01*
X122901776Y-58657974D01*
X122994589Y-58719990D01*
X123264842Y-58831932D01*
X123551740Y-58889000D01*
X123844260Y-58889000D01*
X124131158Y-58831932D01*
X124401411Y-58719990D01*
X124644632Y-58557475D01*
X124851475Y-58350632D01*
X125013990Y-58107411D01*
X125125932Y-57837158D01*
X125183000Y-57550260D01*
X125183000Y-57257740D01*
X125160471Y-57144475D01*
X126143000Y-57144475D01*
X126143000Y-57663525D01*
X126244261Y-58172601D01*
X126442893Y-58652141D01*
X126731262Y-59083715D01*
X127098285Y-59450738D01*
X127529859Y-59739107D01*
X128009399Y-59937739D01*
X128518475Y-60039000D01*
X129037525Y-60039000D01*
X129546601Y-59937739D01*
X130026141Y-59739107D01*
X130457715Y-59450738D01*
X130824738Y-59083715D01*
X131113107Y-58652141D01*
X131311739Y-58172601D01*
X131413000Y-57663525D01*
X131413000Y-57257740D01*
X132373000Y-57257740D01*
X132373000Y-57550260D01*
X132430068Y-57837158D01*
X132542010Y-58107411D01*
X132704525Y-58350632D01*
X132911368Y-58557475D01*
X133154589Y-58719990D01*
X133424842Y-58831932D01*
X133711740Y-58889000D01*
X134004260Y-58889000D01*
X134291158Y-58831932D01*
X134561411Y-58719990D01*
X134804632Y-58557475D01*
X135011475Y-58350632D01*
X135173990Y-58107411D01*
X135285932Y-57837158D01*
X135343000Y-57550260D01*
X135343000Y-57257740D01*
X135285932Y-56970842D01*
X135173990Y-56700589D01*
X135011475Y-56457368D01*
X134804632Y-56250525D01*
X134561411Y-56088010D01*
X134291158Y-55976068D01*
X134004260Y-55919000D01*
X133711740Y-55919000D01*
X133424842Y-55976068D01*
X133154589Y-56088010D01*
X132911368Y-56250525D01*
X132704525Y-56457368D01*
X132542010Y-56700589D01*
X132430068Y-56970842D01*
X132373000Y-57257740D01*
X131413000Y-57257740D01*
X131413000Y-57144475D01*
X131311739Y-56635399D01*
X131113107Y-56155859D01*
X130824738Y-55724285D01*
X130457715Y-55357262D01*
X130026141Y-55068893D01*
X129546601Y-54870261D01*
X129037525Y-54769000D01*
X128518475Y-54769000D01*
X128009399Y-54870261D01*
X127529859Y-55068893D01*
X127098285Y-55357262D01*
X126731262Y-55724285D01*
X126442893Y-56155859D01*
X126244261Y-56635399D01*
X126143000Y-57144475D01*
X125160471Y-57144475D01*
X125125932Y-56970842D01*
X125013990Y-56700589D01*
X124946110Y-56599000D01*
X125138883Y-56599000D01*
X125474081Y-56532325D01*
X125789831Y-56401537D01*
X126073998Y-56211663D01*
X126315663Y-55969998D01*
X126505537Y-55685831D01*
X126636325Y-55370081D01*
X126703000Y-55034883D01*
X126703000Y-54693117D01*
X126636325Y-54357919D01*
X126505537Y-54042169D01*
X126315663Y-53758002D01*
X126088373Y-53530712D01*
X130290893Y-53530712D01*
X130398726Y-53805338D01*
X130705384Y-53956216D01*
X131035585Y-54044369D01*
X131376639Y-54066409D01*
X131715439Y-54021489D01*
X132038966Y-53911336D01*
X132237274Y-53805338D01*
X132345107Y-53530712D01*
X131318000Y-52503605D01*
X130290893Y-53530712D01*
X126088373Y-53530712D01*
X126073998Y-53516337D01*
X125789831Y-53326463D01*
X125474081Y-53195675D01*
X125138883Y-53129000D01*
X124797117Y-53129000D01*
X124461919Y-53195675D01*
X124146169Y-53326463D01*
X123862002Y-53516337D01*
X123620337Y-53758002D01*
X123430463Y-54042169D01*
X123299675Y-54357919D01*
X123233000Y-54693117D01*
X123233000Y-55034883D01*
X123299675Y-55370081D01*
X123430463Y-55685831D01*
X123586261Y-55919000D01*
X123551740Y-55919000D01*
X123264842Y-55976068D01*
X122994589Y-56088010D01*
X122751368Y-56250525D01*
X122544525Y-56457368D01*
X122382010Y-56700589D01*
X122270068Y-56970842D01*
X122213000Y-57257740D01*
X122213000Y-57550260D01*
X122270068Y-57837158D01*
X122382010Y-58107411D01*
X122444026Y-58200224D01*
X119516167Y-55272365D01*
X119545000Y-55127411D01*
X119545000Y-54854589D01*
X119491775Y-54587011D01*
X119387371Y-54334957D01*
X119235799Y-54108114D01*
X119042886Y-53915201D01*
X118816043Y-53763629D01*
X118713127Y-53721000D01*
X118816043Y-53678371D01*
X119042886Y-53526799D01*
X119235799Y-53333886D01*
X119387371Y-53107043D01*
X119491775Y-52854989D01*
X119545000Y-52587411D01*
X119545000Y-52382639D01*
X129575591Y-52382639D01*
X129620511Y-52721439D01*
X129730664Y-53044966D01*
X129836662Y-53243274D01*
X130111288Y-53351107D01*
X131138395Y-52324000D01*
X131497605Y-52324000D01*
X132524712Y-53351107D01*
X132799338Y-53243274D01*
X132950216Y-52936616D01*
X133038369Y-52606415D01*
X133043727Y-52523492D01*
X136990188Y-52523492D01*
X137031035Y-52793238D01*
X137123723Y-53049832D01*
X137184140Y-53162863D01*
X137423007Y-53228388D01*
X138200395Y-52451000D01*
X137423007Y-51673612D01*
X137184140Y-51739137D01*
X137068240Y-51986116D01*
X137002750Y-52250960D01*
X136990188Y-52523492D01*
X133043727Y-52523492D01*
X133060409Y-52265361D01*
X133015489Y-51926561D01*
X132905336Y-51603034D01*
X132799338Y-51404726D01*
X132524712Y-51296893D01*
X131497605Y-52324000D01*
X131138395Y-52324000D01*
X130111288Y-51296893D01*
X129836662Y-51404726D01*
X129685784Y-51711384D01*
X129597631Y-52041585D01*
X129575591Y-52382639D01*
X119545000Y-52382639D01*
X119545000Y-52314589D01*
X119491775Y-52047011D01*
X119387371Y-51794957D01*
X119235799Y-51568114D01*
X119042886Y-51375201D01*
X118816043Y-51223629D01*
X118563989Y-51119225D01*
X118296411Y-51066000D01*
X118023589Y-51066000D01*
X117756011Y-51119225D01*
X117503957Y-51223629D01*
X117277114Y-51375201D01*
X117084201Y-51568114D01*
X116932629Y-51794957D01*
X116828225Y-52047011D01*
X116775000Y-52314589D01*
X116775000Y-52587411D01*
X116828225Y-52854989D01*
X116932629Y-53107043D01*
X117084201Y-53333886D01*
X117277114Y-53526799D01*
X117503957Y-53678371D01*
X117606873Y-53721000D01*
X117503957Y-53763629D01*
X117277114Y-53915201D01*
X117084201Y-54108114D01*
X116932629Y-54334957D01*
X116828225Y-54587011D01*
X116775000Y-54854589D01*
X116775000Y-55127411D01*
X116828225Y-55394989D01*
X116932629Y-55647043D01*
X117084201Y-55873886D01*
X117277114Y-56066799D01*
X117503957Y-56218371D01*
X117606873Y-56261000D01*
X117503957Y-56303629D01*
X117277114Y-56455201D01*
X117084201Y-56648114D01*
X116932629Y-56874957D01*
X116828225Y-57127011D01*
X116775000Y-57394589D01*
X116775000Y-57667411D01*
X116803833Y-57812365D01*
X114550998Y-60065201D01*
X114522000Y-60088999D01*
X114498202Y-60117997D01*
X114498201Y-60117998D01*
X114427026Y-60204724D01*
X114356454Y-60336754D01*
X114326180Y-60436558D01*
X114314523Y-60474989D01*
X114312998Y-60480015D01*
X114298324Y-60629000D01*
X114302001Y-60666332D01*
X114302000Y-65202956D01*
X114147241Y-65306363D01*
X113947363Y-65506241D01*
X113790320Y-65741273D01*
X113682147Y-66002426D01*
X113627000Y-66279665D01*
X108877000Y-66279665D01*
X108821853Y-66002426D01*
X108713680Y-65741273D01*
X108556637Y-65506241D01*
X108356759Y-65306363D01*
X108121727Y-65149320D01*
X107860574Y-65041147D01*
X107583335Y-64986000D01*
X107300665Y-64986000D01*
X107023426Y-65041147D01*
X106762273Y-65149320D01*
X106527241Y-65306363D01*
X106327363Y-65506241D01*
X106170320Y-65741273D01*
X106062147Y-66002426D01*
X106007000Y-66279665D01*
X100694061Y-66279665D01*
X100609759Y-66195363D01*
X100374727Y-66038320D01*
X100113574Y-65930147D01*
X99836335Y-65875000D01*
X99553665Y-65875000D01*
X99276426Y-65930147D01*
X99015273Y-66038320D01*
X98780241Y-66195363D01*
X98580363Y-66395241D01*
X98423320Y-66630273D01*
X98315147Y-66891426D01*
X98260000Y-67168665D01*
X97180000Y-67168665D01*
X97180000Y-62342665D01*
X98260000Y-62342665D01*
X98260000Y-62625335D01*
X98315147Y-62902574D01*
X98423320Y-63163727D01*
X98580363Y-63398759D01*
X98780241Y-63598637D01*
X99015273Y-63755680D01*
X99276426Y-63863853D01*
X99553665Y-63919000D01*
X99836335Y-63919000D01*
X100113574Y-63863853D01*
X100374727Y-63755680D01*
X100609759Y-63598637D01*
X100809637Y-63398759D01*
X100966680Y-63163727D01*
X101074853Y-62902574D01*
X101130000Y-62625335D01*
X101130000Y-62346408D01*
X106045000Y-62346408D01*
X106045000Y-62621592D01*
X106098686Y-62891490D01*
X106203995Y-63145727D01*
X106356880Y-63374535D01*
X106551465Y-63569120D01*
X106780273Y-63722005D01*
X107034510Y-63827314D01*
X107304408Y-63881000D01*
X107579592Y-63881000D01*
X107849490Y-63827314D01*
X108103727Y-63722005D01*
X108332535Y-63569120D01*
X108452090Y-63449565D01*
X109196040Y-63449565D01*
X109263020Y-63689656D01*
X109512048Y-63806756D01*
X109779135Y-63873023D01*
X110054017Y-63885910D01*
X110326133Y-63844922D01*
X110585023Y-63751636D01*
X110700980Y-63689656D01*
X110767960Y-63449565D01*
X109982000Y-62663605D01*
X109196040Y-63449565D01*
X108452090Y-63449565D01*
X108527120Y-63374535D01*
X108680005Y-63145727D01*
X108709692Y-63074057D01*
X108714364Y-63087023D01*
X108776344Y-63202980D01*
X109016435Y-63269960D01*
X109802395Y-62484000D01*
X110161605Y-62484000D01*
X110947565Y-63269960D01*
X111187656Y-63202980D01*
X111304756Y-62953952D01*
X111371023Y-62686865D01*
X111383910Y-62411983D01*
X111342922Y-62139867D01*
X111249636Y-61880977D01*
X111187656Y-61765020D01*
X110947565Y-61698040D01*
X110161605Y-62484000D01*
X109802395Y-62484000D01*
X109016435Y-61698040D01*
X108776344Y-61765020D01*
X108712515Y-61900760D01*
X108680005Y-61822273D01*
X108527120Y-61593465D01*
X108452090Y-61518435D01*
X109196040Y-61518435D01*
X109982000Y-62304395D01*
X110767960Y-61518435D01*
X110700980Y-61278344D01*
X110451952Y-61161244D01*
X110184865Y-61094977D01*
X109909983Y-61082090D01*
X109637867Y-61123078D01*
X109378977Y-61216364D01*
X109263020Y-61278344D01*
X109196040Y-61518435D01*
X108452090Y-61518435D01*
X108332535Y-61398880D01*
X108103727Y-61245995D01*
X107849490Y-61140686D01*
X107579592Y-61087000D01*
X107304408Y-61087000D01*
X107034510Y-61140686D01*
X106780273Y-61245995D01*
X106551465Y-61398880D01*
X106356880Y-61593465D01*
X106203995Y-61822273D01*
X106098686Y-62076510D01*
X106045000Y-62346408D01*
X101130000Y-62346408D01*
X101130000Y-62342665D01*
X101074853Y-62065426D01*
X100966680Y-61804273D01*
X100809637Y-61569241D01*
X100609759Y-61369363D01*
X100374727Y-61212320D01*
X100113574Y-61104147D01*
X99836335Y-61049000D01*
X99553665Y-61049000D01*
X99276426Y-61104147D01*
X99015273Y-61212320D01*
X98780241Y-61369363D01*
X98580363Y-61569241D01*
X98423320Y-61804273D01*
X98315147Y-62065426D01*
X98260000Y-62342665D01*
X97180000Y-62342665D01*
X97180000Y-57257740D01*
X102147000Y-57257740D01*
X102147000Y-57550260D01*
X102204068Y-57837158D01*
X102316010Y-58107411D01*
X102478525Y-58350632D01*
X102685368Y-58557475D01*
X102928589Y-58719990D01*
X103198842Y-58831932D01*
X103485740Y-58889000D01*
X103778260Y-58889000D01*
X104065158Y-58831932D01*
X104335411Y-58719990D01*
X104578632Y-58557475D01*
X104785475Y-58350632D01*
X104947990Y-58107411D01*
X105059932Y-57837158D01*
X105117000Y-57550260D01*
X105117000Y-57257740D01*
X105094471Y-57144475D01*
X106077000Y-57144475D01*
X106077000Y-57663525D01*
X106178261Y-58172601D01*
X106376893Y-58652141D01*
X106665262Y-59083715D01*
X107032285Y-59450738D01*
X107463859Y-59739107D01*
X107943399Y-59937739D01*
X108452475Y-60039000D01*
X108971525Y-60039000D01*
X109480601Y-59937739D01*
X109960141Y-59739107D01*
X110391715Y-59450738D01*
X110758738Y-59083715D01*
X111047107Y-58652141D01*
X111245739Y-58172601D01*
X111347000Y-57663525D01*
X111347000Y-57257740D01*
X112307000Y-57257740D01*
X112307000Y-57550260D01*
X112364068Y-57837158D01*
X112476010Y-58107411D01*
X112638525Y-58350632D01*
X112845368Y-58557475D01*
X113088589Y-58719990D01*
X113358842Y-58831932D01*
X113645740Y-58889000D01*
X113938260Y-58889000D01*
X114225158Y-58831932D01*
X114495411Y-58719990D01*
X114738632Y-58557475D01*
X114945475Y-58350632D01*
X115107990Y-58107411D01*
X115219932Y-57837158D01*
X115277000Y-57550260D01*
X115277000Y-57257740D01*
X115219932Y-56970842D01*
X115107990Y-56700589D01*
X114945475Y-56457368D01*
X114738632Y-56250525D01*
X114495411Y-56088010D01*
X114225158Y-55976068D01*
X113938260Y-55919000D01*
X113645740Y-55919000D01*
X113358842Y-55976068D01*
X113088589Y-56088010D01*
X112845368Y-56250525D01*
X112638525Y-56457368D01*
X112476010Y-56700589D01*
X112364068Y-56970842D01*
X112307000Y-57257740D01*
X111347000Y-57257740D01*
X111347000Y-57144475D01*
X111245739Y-56635399D01*
X111047107Y-56155859D01*
X110758738Y-55724285D01*
X110391715Y-55357262D01*
X109960141Y-55068893D01*
X109480601Y-54870261D01*
X108971525Y-54769000D01*
X108452475Y-54769000D01*
X107943399Y-54870261D01*
X107463859Y-55068893D01*
X107032285Y-55357262D01*
X106665262Y-55724285D01*
X106376893Y-56155859D01*
X106178261Y-56635399D01*
X106077000Y-57144475D01*
X105094471Y-57144475D01*
X105059932Y-56970842D01*
X104947990Y-56700589D01*
X104880110Y-56599000D01*
X105072883Y-56599000D01*
X105408081Y-56532325D01*
X105723831Y-56401537D01*
X106007998Y-56211663D01*
X106249663Y-55969998D01*
X106439537Y-55685831D01*
X106570325Y-55370081D01*
X106637000Y-55034883D01*
X106637000Y-54693117D01*
X106570325Y-54357919D01*
X106439537Y-54042169D01*
X106249663Y-53758002D01*
X106022373Y-53530712D01*
X110224893Y-53530712D01*
X110332726Y-53805338D01*
X110639384Y-53956216D01*
X110969585Y-54044369D01*
X111310639Y-54066409D01*
X111649439Y-54021489D01*
X111972966Y-53911336D01*
X112171274Y-53805338D01*
X112279107Y-53530712D01*
X111252000Y-52503605D01*
X110224893Y-53530712D01*
X106022373Y-53530712D01*
X106007998Y-53516337D01*
X105723831Y-53326463D01*
X105408081Y-53195675D01*
X105072883Y-53129000D01*
X104731117Y-53129000D01*
X104395919Y-53195675D01*
X104080169Y-53326463D01*
X103796002Y-53516337D01*
X103554337Y-53758002D01*
X103364463Y-54042169D01*
X103233675Y-54357919D01*
X103167000Y-54693117D01*
X103167000Y-55034883D01*
X103233675Y-55370081D01*
X103364463Y-55685831D01*
X103520261Y-55919000D01*
X103485740Y-55919000D01*
X103198842Y-55976068D01*
X102928589Y-56088010D01*
X102685368Y-56250525D01*
X102478525Y-56457368D01*
X102316010Y-56700589D01*
X102204068Y-56970842D01*
X102147000Y-57257740D01*
X97180000Y-57257740D01*
X97180000Y-54722665D01*
X98260000Y-54722665D01*
X98260000Y-55005335D01*
X98315147Y-55282574D01*
X98423320Y-55543727D01*
X98580363Y-55778759D01*
X98780241Y-55978637D01*
X99015273Y-56135680D01*
X99276426Y-56243853D01*
X99553665Y-56299000D01*
X99836335Y-56299000D01*
X100113574Y-56243853D01*
X100374727Y-56135680D01*
X100609759Y-55978637D01*
X100809637Y-55778759D01*
X100966680Y-55543727D01*
X101074853Y-55282574D01*
X101130000Y-55005335D01*
X101130000Y-54722665D01*
X101074853Y-54445426D01*
X100966680Y-54184273D01*
X100809637Y-53949241D01*
X100609759Y-53749363D01*
X100374727Y-53592320D01*
X100113574Y-53484147D01*
X99836335Y-53429000D01*
X99553665Y-53429000D01*
X99276426Y-53484147D01*
X99015273Y-53592320D01*
X98780241Y-53749363D01*
X98580363Y-53949241D01*
X98423320Y-54184273D01*
X98315147Y-54445426D01*
X98260000Y-54722665D01*
X97180000Y-54722665D01*
X97180000Y-52382639D01*
X109509591Y-52382639D01*
X109554511Y-52721439D01*
X109664664Y-53044966D01*
X109770662Y-53243274D01*
X110045288Y-53351107D01*
X111072395Y-52324000D01*
X111431605Y-52324000D01*
X112458712Y-53351107D01*
X112733338Y-53243274D01*
X112884216Y-52936616D01*
X112972369Y-52606415D01*
X112994409Y-52265361D01*
X112949489Y-51926561D01*
X112839336Y-51603034D01*
X112733338Y-51404726D01*
X112458712Y-51296893D01*
X111431605Y-52324000D01*
X111072395Y-52324000D01*
X110045288Y-51296893D01*
X109770662Y-51404726D01*
X109619784Y-51711384D01*
X109531631Y-52041585D01*
X109509591Y-52382639D01*
X97180000Y-52382639D01*
X97180000Y-50660000D01*
X110756201Y-50660000D01*
X110531034Y-50736664D01*
%TD*%
M02*
