%TF.GenerationSoftware,KiCad,Pcbnew,5.1.5+dfsg1-2build2*%
%TF.CreationDate,2020-11-04T15:07:04+01:00*%
%TF.ProjectId,BikeCommunicator,42696b65-436f-46d6-9d75-6e696361746f,rev?*%
%TF.SameCoordinates,Original*%
%TF.FileFunction,Legend,Bot*%
%TF.FilePolarity,Positive*%
%FSLAX46Y46*%
G04 Gerber Fmt 4.6, Leading zero omitted, Abs format (unit mm)*
G04 Created by KiCad (PCBNEW 5.1.5+dfsg1-2build2) date 2020-11-04 15:07:04*
%MOMM*%
%LPD*%
G04 APERTURE LIST*
%ADD10C,0.150000*%
%ADD11C,0.125000*%
%ADD12C,0.300000*%
%ADD13C,0.120000*%
G04 APERTURE END LIST*
D10*
X115608178Y-91217380D02*
X115074845Y-91065000D01*
X115455797Y-90912619D01*
X115074845Y-90760238D01*
X115608178Y-90607857D01*
X115608178Y-90379285D02*
X115074845Y-90226904D01*
X115455797Y-90074523D01*
X115074845Y-89922142D01*
X115608178Y-89769761D01*
X115608178Y-89541190D02*
X115074845Y-89388809D01*
X115455797Y-89236428D01*
X115074845Y-89084047D01*
X115608178Y-88931666D01*
X115151035Y-88626904D02*
X115112940Y-88588809D01*
X115074845Y-88626904D01*
X115112940Y-88665000D01*
X115151035Y-88626904D01*
X115074845Y-88626904D01*
X115608178Y-87903095D02*
X114960559Y-87903095D01*
X114884369Y-87941190D01*
X114846273Y-87979285D01*
X114808178Y-88055476D01*
X114808178Y-88169761D01*
X114846273Y-88245952D01*
X115112940Y-87903095D02*
X115074845Y-87979285D01*
X115074845Y-88131666D01*
X115112940Y-88207857D01*
X115151035Y-88245952D01*
X115227226Y-88284047D01*
X115455797Y-88284047D01*
X115531988Y-88245952D01*
X115570083Y-88207857D01*
X115608178Y-88131666D01*
X115608178Y-87979285D01*
X115570083Y-87903095D01*
X115608178Y-87598333D02*
X115608178Y-87179285D01*
X115074845Y-87598333D01*
X115074845Y-87179285D01*
X115608178Y-86988809D02*
X115608178Y-86684047D01*
X115874845Y-86874523D02*
X115189130Y-86874523D01*
X115112940Y-86836428D01*
X115074845Y-86760238D01*
X115074845Y-86684047D01*
X115151035Y-86417380D02*
X115112940Y-86379285D01*
X115074845Y-86417380D01*
X115112940Y-86455476D01*
X115151035Y-86417380D01*
X115074845Y-86417380D01*
X115112940Y-86074523D02*
X115074845Y-85998333D01*
X115074845Y-85845952D01*
X115112940Y-85769761D01*
X115189130Y-85731666D01*
X115227226Y-85731666D01*
X115303416Y-85769761D01*
X115341511Y-85845952D01*
X115341511Y-85960238D01*
X115379607Y-86036428D01*
X115455797Y-86074523D01*
X115493892Y-86074523D01*
X115570083Y-86036428D01*
X115608178Y-85960238D01*
X115608178Y-85845952D01*
X115570083Y-85769761D01*
X115074845Y-85388809D02*
X115608178Y-85388809D01*
X115874845Y-85388809D02*
X115836750Y-85426904D01*
X115798654Y-85388809D01*
X115836750Y-85350714D01*
X115874845Y-85388809D01*
X115798654Y-85388809D01*
D11*
X115081095Y-73843904D02*
X115614428Y-73843904D01*
X115462047Y-73843904D02*
X115538238Y-73805809D01*
X115576333Y-73767714D01*
X115614428Y-73691523D01*
X115614428Y-73615333D01*
X115119190Y-73043904D02*
X115081095Y-73120095D01*
X115081095Y-73272476D01*
X115119190Y-73348666D01*
X115195380Y-73386761D01*
X115500142Y-73386761D01*
X115576333Y-73348666D01*
X115614428Y-73272476D01*
X115614428Y-73120095D01*
X115576333Y-73043904D01*
X115500142Y-73005809D01*
X115423952Y-73005809D01*
X115347761Y-73386761D01*
X115614428Y-72739142D02*
X115081095Y-72548666D01*
X115614428Y-72358190D01*
X115804904Y-71482000D02*
X115843000Y-71443904D01*
X115881095Y-71367714D01*
X115881095Y-71177238D01*
X115843000Y-71101047D01*
X115804904Y-71062952D01*
X115728714Y-71024857D01*
X115652523Y-71024857D01*
X115538238Y-71062952D01*
X115081095Y-71520095D01*
X115081095Y-71024857D01*
X115157285Y-70682000D02*
X115119190Y-70643904D01*
X115081095Y-70682000D01*
X115119190Y-70720095D01*
X115157285Y-70682000D01*
X115081095Y-70682000D01*
X115881095Y-70148666D02*
X115881095Y-70072476D01*
X115843000Y-69996285D01*
X115804904Y-69958190D01*
X115728714Y-69920095D01*
X115576333Y-69882000D01*
X115385857Y-69882000D01*
X115233476Y-69920095D01*
X115157285Y-69958190D01*
X115119190Y-69996285D01*
X115081095Y-70072476D01*
X115081095Y-70148666D01*
X115119190Y-70224857D01*
X115157285Y-70262952D01*
X115233476Y-70301047D01*
X115385857Y-70339142D01*
X115576333Y-70339142D01*
X115728714Y-70301047D01*
X115804904Y-70262952D01*
X115843000Y-70224857D01*
X115881095Y-70148666D01*
D10*
X117721000Y-86438642D02*
X117768619Y-86533880D01*
X117768619Y-86676738D01*
X117721000Y-86819595D01*
X117625761Y-86914833D01*
X117530523Y-86962452D01*
X117340047Y-87010071D01*
X117197190Y-87010071D01*
X117006714Y-86962452D01*
X116911476Y-86914833D01*
X116816238Y-86819595D01*
X116768619Y-86676738D01*
X116768619Y-86581500D01*
X116816238Y-86438642D01*
X116863857Y-86391023D01*
X117197190Y-86391023D01*
X117197190Y-86581500D01*
X117768619Y-86057690D02*
X117768619Y-85391023D01*
X116768619Y-86057690D01*
X116768619Y-85391023D01*
X117768619Y-85152928D02*
X117768619Y-84581500D01*
X116768619Y-84867214D02*
X117768619Y-84867214D01*
X117435285Y-83486261D02*
X116435285Y-83486261D01*
X117387666Y-83486261D02*
X117435285Y-83391023D01*
X117435285Y-83200547D01*
X117387666Y-83105309D01*
X117340047Y-83057690D01*
X117244809Y-83010071D01*
X116959095Y-83010071D01*
X116863857Y-83057690D01*
X116816238Y-83105309D01*
X116768619Y-83200547D01*
X116768619Y-83391023D01*
X116816238Y-83486261D01*
X116768619Y-82581500D02*
X117435285Y-82581500D01*
X117244809Y-82581500D02*
X117340047Y-82533880D01*
X117387666Y-82486261D01*
X117435285Y-82391023D01*
X117435285Y-82295785D01*
X116768619Y-81819595D02*
X116816238Y-81914833D01*
X116863857Y-81962452D01*
X116959095Y-82010071D01*
X117244809Y-82010071D01*
X117340047Y-81962452D01*
X117387666Y-81914833D01*
X117435285Y-81819595D01*
X117435285Y-81676738D01*
X117387666Y-81581500D01*
X117340047Y-81533880D01*
X117244809Y-81486261D01*
X116959095Y-81486261D01*
X116863857Y-81533880D01*
X116816238Y-81581500D01*
X116768619Y-81676738D01*
X116768619Y-81819595D01*
X117435285Y-81057690D02*
X116578142Y-81057690D01*
X116482904Y-81105309D01*
X116435285Y-81200547D01*
X116435285Y-81248166D01*
X117768619Y-81057690D02*
X117721000Y-81105309D01*
X117673380Y-81057690D01*
X117721000Y-81010071D01*
X117768619Y-81057690D01*
X117673380Y-81057690D01*
X116816238Y-80200547D02*
X116768619Y-80295785D01*
X116768619Y-80486261D01*
X116816238Y-80581500D01*
X116911476Y-80629119D01*
X117292428Y-80629119D01*
X117387666Y-80581500D01*
X117435285Y-80486261D01*
X117435285Y-80295785D01*
X117387666Y-80200547D01*
X117292428Y-80152928D01*
X117197190Y-80152928D01*
X117101952Y-80629119D01*
X116816238Y-79295785D02*
X116768619Y-79391023D01*
X116768619Y-79581500D01*
X116816238Y-79676738D01*
X116863857Y-79724357D01*
X116959095Y-79771976D01*
X117244809Y-79771976D01*
X117340047Y-79724357D01*
X117387666Y-79676738D01*
X117435285Y-79581500D01*
X117435285Y-79391023D01*
X117387666Y-79295785D01*
X117435285Y-79010071D02*
X117435285Y-78629119D01*
X117768619Y-78867214D02*
X116911476Y-78867214D01*
X116816238Y-78819595D01*
X116768619Y-78724357D01*
X116768619Y-78629119D01*
X117673380Y-77581500D02*
X117721000Y-77533880D01*
X117768619Y-77438642D01*
X117768619Y-77200547D01*
X117721000Y-77105309D01*
X117673380Y-77057690D01*
X117578142Y-77010071D01*
X117482904Y-77010071D01*
X117340047Y-77057690D01*
X116768619Y-77629119D01*
X116768619Y-77010071D01*
X117768619Y-76391023D02*
X117768619Y-76295785D01*
X117721000Y-76200547D01*
X117673380Y-76152928D01*
X117578142Y-76105309D01*
X117387666Y-76057690D01*
X117149571Y-76057690D01*
X116959095Y-76105309D01*
X116863857Y-76152928D01*
X116816238Y-76200547D01*
X116768619Y-76295785D01*
X116768619Y-76391023D01*
X116816238Y-76486261D01*
X116863857Y-76533880D01*
X116959095Y-76581500D01*
X117149571Y-76629119D01*
X117387666Y-76629119D01*
X117578142Y-76581500D01*
X117673380Y-76533880D01*
X117721000Y-76486261D01*
X117768619Y-76391023D01*
X117673380Y-75676738D02*
X117721000Y-75629119D01*
X117768619Y-75533880D01*
X117768619Y-75295785D01*
X117721000Y-75200547D01*
X117673380Y-75152928D01*
X117578142Y-75105309D01*
X117482904Y-75105309D01*
X117340047Y-75152928D01*
X116768619Y-75724357D01*
X116768619Y-75105309D01*
X117768619Y-74486261D02*
X117768619Y-74391023D01*
X117721000Y-74295785D01*
X117673380Y-74248166D01*
X117578142Y-74200547D01*
X117387666Y-74152928D01*
X117149571Y-74152928D01*
X116959095Y-74200547D01*
X116863857Y-74248166D01*
X116816238Y-74295785D01*
X116768619Y-74391023D01*
X116768619Y-74486261D01*
X116816238Y-74581500D01*
X116863857Y-74629119D01*
X116959095Y-74676738D01*
X117149571Y-74724357D01*
X117387666Y-74724357D01*
X117578142Y-74676738D01*
X117673380Y-74629119D01*
X117721000Y-74581500D01*
X117768619Y-74486261D01*
D12*
X119360142Y-90688642D02*
X119288714Y-90474357D01*
X119217285Y-90402928D01*
X119074428Y-90331500D01*
X118860142Y-90331500D01*
X118717285Y-90402928D01*
X118645857Y-90474357D01*
X118574428Y-90617214D01*
X118574428Y-91188642D01*
X120074428Y-91188642D01*
X120074428Y-90688642D01*
X120003000Y-90545785D01*
X119931571Y-90474357D01*
X119788714Y-90402928D01*
X119645857Y-90402928D01*
X119503000Y-90474357D01*
X119431571Y-90545785D01*
X119360142Y-90688642D01*
X119360142Y-91188642D01*
X118574428Y-89688642D02*
X119574428Y-89688642D01*
X120074428Y-89688642D02*
X120003000Y-89760071D01*
X119931571Y-89688642D01*
X120003000Y-89617214D01*
X120074428Y-89688642D01*
X119931571Y-89688642D01*
X118574428Y-88974357D02*
X120074428Y-88974357D01*
X119145857Y-88831500D02*
X118574428Y-88402928D01*
X119574428Y-88402928D02*
X119003000Y-88974357D01*
X118645857Y-87188642D02*
X118574428Y-87331500D01*
X118574428Y-87617214D01*
X118645857Y-87760071D01*
X118788714Y-87831500D01*
X119360142Y-87831500D01*
X119503000Y-87760071D01*
X119574428Y-87617214D01*
X119574428Y-87331500D01*
X119503000Y-87188642D01*
X119360142Y-87117214D01*
X119217285Y-87117214D01*
X119074428Y-87831500D01*
X118717285Y-84474357D02*
X118645857Y-84545785D01*
X118574428Y-84760071D01*
X118574428Y-84902928D01*
X118645857Y-85117214D01*
X118788714Y-85260071D01*
X118931571Y-85331500D01*
X119217285Y-85402928D01*
X119431571Y-85402928D01*
X119717285Y-85331500D01*
X119860142Y-85260071D01*
X120003000Y-85117214D01*
X120074428Y-84902928D01*
X120074428Y-84760071D01*
X120003000Y-84545785D01*
X119931571Y-84474357D01*
X118574428Y-83617214D02*
X118645857Y-83760071D01*
X118717285Y-83831500D01*
X118860142Y-83902928D01*
X119288714Y-83902928D01*
X119431571Y-83831500D01*
X119503000Y-83760071D01*
X119574428Y-83617214D01*
X119574428Y-83402928D01*
X119503000Y-83260071D01*
X119431571Y-83188642D01*
X119288714Y-83117214D01*
X118860142Y-83117214D01*
X118717285Y-83188642D01*
X118645857Y-83260071D01*
X118574428Y-83402928D01*
X118574428Y-83617214D01*
X118574428Y-82474357D02*
X119574428Y-82474357D01*
X119431571Y-82474357D02*
X119503000Y-82402928D01*
X119574428Y-82260071D01*
X119574428Y-82045785D01*
X119503000Y-81902928D01*
X119360142Y-81831500D01*
X118574428Y-81831500D01*
X119360142Y-81831500D02*
X119503000Y-81760071D01*
X119574428Y-81617214D01*
X119574428Y-81402928D01*
X119503000Y-81260071D01*
X119360142Y-81188642D01*
X118574428Y-81188642D01*
X118574428Y-80474357D02*
X119574428Y-80474357D01*
X119431571Y-80474357D02*
X119503000Y-80402928D01*
X119574428Y-80260071D01*
X119574428Y-80045785D01*
X119503000Y-79902928D01*
X119360142Y-79831500D01*
X118574428Y-79831500D01*
X119360142Y-79831500D02*
X119503000Y-79760071D01*
X119574428Y-79617214D01*
X119574428Y-79402928D01*
X119503000Y-79260071D01*
X119360142Y-79188642D01*
X118574428Y-79188642D01*
X119574428Y-77831500D02*
X118574428Y-77831500D01*
X119574428Y-78474357D02*
X118788714Y-78474357D01*
X118645857Y-78402928D01*
X118574428Y-78260071D01*
X118574428Y-78045785D01*
X118645857Y-77902928D01*
X118717285Y-77831500D01*
X119574428Y-77117214D02*
X118574428Y-77117214D01*
X119431571Y-77117214D02*
X119503000Y-77045785D01*
X119574428Y-76902928D01*
X119574428Y-76688642D01*
X119503000Y-76545785D01*
X119360142Y-76474357D01*
X118574428Y-76474357D01*
X118574428Y-75760071D02*
X119574428Y-75760071D01*
X120074428Y-75760071D02*
X120003000Y-75831500D01*
X119931571Y-75760071D01*
X120003000Y-75688642D01*
X120074428Y-75760071D01*
X119931571Y-75760071D01*
X118645857Y-74402928D02*
X118574428Y-74545785D01*
X118574428Y-74831500D01*
X118645857Y-74974357D01*
X118717285Y-75045785D01*
X118860142Y-75117214D01*
X119288714Y-75117214D01*
X119431571Y-75045785D01*
X119503000Y-74974357D01*
X119574428Y-74831500D01*
X119574428Y-74545785D01*
X119503000Y-74402928D01*
X118574428Y-73117214D02*
X119360142Y-73117214D01*
X119503000Y-73188642D01*
X119574428Y-73331500D01*
X119574428Y-73617214D01*
X119503000Y-73760071D01*
X118645857Y-73117214D02*
X118574428Y-73260071D01*
X118574428Y-73617214D01*
X118645857Y-73760071D01*
X118788714Y-73831500D01*
X118931571Y-73831500D01*
X119074428Y-73760071D01*
X119145857Y-73617214D01*
X119145857Y-73260071D01*
X119217285Y-73117214D01*
X119574428Y-72617214D02*
X119574428Y-72045785D01*
X120074428Y-72402928D02*
X118788714Y-72402928D01*
X118645857Y-72331500D01*
X118574428Y-72188642D01*
X118574428Y-72045785D01*
X118574428Y-71331500D02*
X118645857Y-71474357D01*
X118717285Y-71545785D01*
X118860142Y-71617214D01*
X119288714Y-71617214D01*
X119431571Y-71545785D01*
X119503000Y-71474357D01*
X119574428Y-71331500D01*
X119574428Y-71117214D01*
X119503000Y-70974357D01*
X119431571Y-70902928D01*
X119288714Y-70831500D01*
X118860142Y-70831500D01*
X118717285Y-70902928D01*
X118645857Y-70974357D01*
X118574428Y-71117214D01*
X118574428Y-71331500D01*
X118574428Y-70188642D02*
X119574428Y-70188642D01*
X119288714Y-70188642D02*
X119431571Y-70117214D01*
X119503000Y-70045785D01*
X119574428Y-69902928D01*
X119574428Y-69760071D01*
D10*
X129215785Y-62196357D02*
X129101500Y-62234452D01*
X129063404Y-62272547D01*
X129025309Y-62348738D01*
X129025309Y-62463023D01*
X129063404Y-62539214D01*
X129101500Y-62577309D01*
X129177690Y-62615404D01*
X129482452Y-62615404D01*
X129482452Y-61815404D01*
X129215785Y-61815404D01*
X129139595Y-61853500D01*
X129101500Y-61891595D01*
X129063404Y-61967785D01*
X129063404Y-62043976D01*
X129101500Y-62120166D01*
X129139595Y-62158261D01*
X129215785Y-62196357D01*
X129482452Y-62196357D01*
X128720547Y-62386833D02*
X128339595Y-62386833D01*
X128796738Y-62615404D02*
X128530071Y-61815404D01*
X128263404Y-62615404D01*
X128111023Y-61815404D02*
X127653880Y-61815404D01*
X127882452Y-62615404D02*
X127882452Y-61815404D01*
X127501500Y-61815404D02*
X127044357Y-61815404D01*
X127272928Y-62615404D02*
X127272928Y-61815404D01*
X126777690Y-62196357D02*
X126511023Y-62196357D01*
X126396738Y-62615404D02*
X126777690Y-62615404D01*
X126777690Y-61815404D01*
X126396738Y-61815404D01*
X125596738Y-62615404D02*
X125863404Y-62234452D01*
X126053880Y-62615404D02*
X126053880Y-61815404D01*
X125749119Y-61815404D01*
X125672928Y-61853500D01*
X125634833Y-61891595D01*
X125596738Y-61967785D01*
X125596738Y-62082071D01*
X125634833Y-62158261D01*
X125672928Y-62196357D01*
X125749119Y-62234452D01*
X126053880Y-62234452D01*
X125101500Y-62234452D02*
X125101500Y-62615404D01*
X125368166Y-61815404D02*
X125101500Y-62234452D01*
X124834833Y-61815404D01*
X123958642Y-62615404D02*
X123958642Y-61815404D01*
X123577690Y-62615404D02*
X123577690Y-61815404D01*
X123120547Y-62615404D01*
X123120547Y-61815404D01*
X127482452Y-63165404D02*
X126987214Y-63165404D01*
X127253880Y-63470166D01*
X127139595Y-63470166D01*
X127063404Y-63508261D01*
X127025309Y-63546357D01*
X126987214Y-63622547D01*
X126987214Y-63813023D01*
X127025309Y-63889214D01*
X127063404Y-63927309D01*
X127139595Y-63965404D01*
X127368166Y-63965404D01*
X127444357Y-63927309D01*
X127482452Y-63889214D01*
X126606261Y-63927309D02*
X126606261Y-63965404D01*
X126644357Y-64041595D01*
X126682452Y-64079690D01*
X126339595Y-63165404D02*
X125806261Y-63165404D01*
X126149119Y-63965404D01*
X125615785Y-63165404D02*
X125349119Y-63965404D01*
X125082452Y-63165404D01*
X115937680Y-116038880D02*
X115937680Y-116848404D01*
X115890061Y-116943642D01*
X115842442Y-116991261D01*
X115747204Y-117038880D01*
X115556728Y-117038880D01*
X115461490Y-116991261D01*
X115413871Y-116943642D01*
X115366252Y-116848404D01*
X115366252Y-116038880D01*
X114890061Y-117038880D02*
X114890061Y-116038880D01*
X114318633Y-117038880D01*
X114318633Y-116038880D01*
X113271014Y-117038880D02*
X113604347Y-116562690D01*
X113842442Y-117038880D02*
X113842442Y-116038880D01*
X113461490Y-116038880D01*
X113366252Y-116086500D01*
X113318633Y-116134119D01*
X113271014Y-116229357D01*
X113271014Y-116372214D01*
X113318633Y-116467452D01*
X113366252Y-116515071D01*
X113461490Y-116562690D01*
X113842442Y-116562690D01*
X112842442Y-116515071D02*
X112509109Y-116515071D01*
X112366252Y-117038880D02*
X112842442Y-117038880D01*
X112842442Y-116038880D01*
X112366252Y-116038880D01*
X111413871Y-116086500D02*
X111509109Y-116038880D01*
X111651966Y-116038880D01*
X111794823Y-116086500D01*
X111890061Y-116181738D01*
X111937680Y-116276976D01*
X111985300Y-116467452D01*
X111985300Y-116610309D01*
X111937680Y-116800785D01*
X111890061Y-116896023D01*
X111794823Y-116991261D01*
X111651966Y-117038880D01*
X111556728Y-117038880D01*
X111413871Y-116991261D01*
X111366252Y-116943642D01*
X111366252Y-116610309D01*
X111556728Y-116610309D01*
X110937680Y-116038880D02*
X110937680Y-116848404D01*
X110890061Y-116943642D01*
X110842442Y-116991261D01*
X110747204Y-117038880D01*
X110556728Y-117038880D01*
X110461490Y-116991261D01*
X110413871Y-116943642D01*
X110366252Y-116848404D01*
X110366252Y-116038880D01*
X109413871Y-117038880D02*
X109890061Y-117038880D01*
X109890061Y-116038880D01*
X109128157Y-116753166D02*
X108651966Y-116753166D01*
X109223395Y-117038880D02*
X108890061Y-116038880D01*
X108556728Y-117038880D01*
X108366252Y-116038880D02*
X107794823Y-116038880D01*
X108080538Y-117038880D02*
X108080538Y-116038880D01*
X107461490Y-116515071D02*
X107128157Y-116515071D01*
X106985300Y-117038880D02*
X107461490Y-117038880D01*
X107461490Y-116038880D01*
X106985300Y-116038880D01*
X106556728Y-117038880D02*
X106556728Y-116038880D01*
X106318633Y-116038880D01*
X106175776Y-116086500D01*
X106080538Y-116181738D01*
X106032919Y-116276976D01*
X105985300Y-116467452D01*
X105985300Y-116610309D01*
X106032919Y-116800785D01*
X106080538Y-116896023D01*
X106175776Y-116991261D01*
X106318633Y-117038880D01*
X106556728Y-117038880D01*
X112747204Y-118688880D02*
X113318633Y-118688880D01*
X113032919Y-118688880D02*
X113032919Y-117688880D01*
X113128157Y-117831738D01*
X113223395Y-117926976D01*
X113318633Y-117974595D01*
X112366252Y-117784119D02*
X112318633Y-117736500D01*
X112223395Y-117688880D01*
X111985300Y-117688880D01*
X111890061Y-117736500D01*
X111842442Y-117784119D01*
X111794823Y-117879357D01*
X111794823Y-117974595D01*
X111842442Y-118117452D01*
X112413871Y-118688880D01*
X111794823Y-118688880D01*
X111509109Y-117688880D02*
X111175776Y-118688880D01*
X110842442Y-117688880D01*
X109747204Y-118688880D02*
X109747204Y-117688880D01*
X109271014Y-118688880D02*
X109271014Y-117688880D01*
X108699585Y-118688880D01*
X108699585Y-117688880D01*
X117665452Y-60777428D02*
X116903547Y-60777428D01*
X121602452Y-60777428D02*
X120840547Y-60777428D01*
X121221500Y-61158380D02*
X121221500Y-60396476D01*
X137020252Y-69464228D02*
X136258347Y-69464228D01*
X136639300Y-69845180D02*
X136639300Y-69083276D01*
X133222952Y-69540428D02*
X132461047Y-69540428D01*
X137026361Y-63453657D02*
X136912076Y-63491752D01*
X136873980Y-63529847D01*
X136835885Y-63606038D01*
X136835885Y-63720323D01*
X136873980Y-63796514D01*
X136912076Y-63834609D01*
X136988266Y-63872704D01*
X137293028Y-63872704D01*
X137293028Y-63072704D01*
X137026361Y-63072704D01*
X136950171Y-63110800D01*
X136912076Y-63148895D01*
X136873980Y-63225085D01*
X136873980Y-63301276D01*
X136912076Y-63377466D01*
X136950171Y-63415561D01*
X137026361Y-63453657D01*
X137293028Y-63453657D01*
X136531123Y-63644133D02*
X136150171Y-63644133D01*
X136607314Y-63872704D02*
X136340647Y-63072704D01*
X136073980Y-63872704D01*
X135921600Y-63072704D02*
X135464457Y-63072704D01*
X135693028Y-63872704D02*
X135693028Y-63072704D01*
X135312076Y-63072704D02*
X134854933Y-63072704D01*
X135083504Y-63872704D02*
X135083504Y-63072704D01*
X134588266Y-63453657D02*
X134321600Y-63453657D01*
X134207314Y-63872704D02*
X134588266Y-63872704D01*
X134588266Y-63072704D01*
X134207314Y-63072704D01*
X133407314Y-63872704D02*
X133673980Y-63491752D01*
X133864457Y-63872704D02*
X133864457Y-63072704D01*
X133559695Y-63072704D01*
X133483504Y-63110800D01*
X133445409Y-63148895D01*
X133407314Y-63225085D01*
X133407314Y-63339371D01*
X133445409Y-63415561D01*
X133483504Y-63453657D01*
X133559695Y-63491752D01*
X133864457Y-63491752D01*
X132912076Y-63491752D02*
X132912076Y-63872704D01*
X133178742Y-63072704D02*
X132912076Y-63491752D01*
X132645409Y-63072704D01*
X137483504Y-65184609D02*
X137369219Y-65222704D01*
X137178742Y-65222704D01*
X137102552Y-65184609D01*
X137064457Y-65146514D01*
X137026361Y-65070323D01*
X137026361Y-64994133D01*
X137064457Y-64917942D01*
X137102552Y-64879847D01*
X137178742Y-64841752D01*
X137331123Y-64803657D01*
X137407314Y-64765561D01*
X137445409Y-64727466D01*
X137483504Y-64651276D01*
X137483504Y-64575085D01*
X137445409Y-64498895D01*
X137407314Y-64460800D01*
X137331123Y-64422704D01*
X137140647Y-64422704D01*
X137026361Y-64460800D01*
X136759695Y-64422704D02*
X136569219Y-65222704D01*
X136416838Y-64651276D01*
X136264457Y-65222704D01*
X136073980Y-64422704D01*
X135769219Y-65222704D02*
X135769219Y-64422704D01*
X135502552Y-64422704D02*
X135045409Y-64422704D01*
X135273980Y-65222704D02*
X135273980Y-64422704D01*
X134321600Y-65146514D02*
X134359695Y-65184609D01*
X134473980Y-65222704D01*
X134550171Y-65222704D01*
X134664457Y-65184609D01*
X134740647Y-65108419D01*
X134778742Y-65032228D01*
X134816838Y-64879847D01*
X134816838Y-64765561D01*
X134778742Y-64613180D01*
X134740647Y-64536990D01*
X134664457Y-64460800D01*
X134550171Y-64422704D01*
X134473980Y-64422704D01*
X134359695Y-64460800D01*
X134321600Y-64498895D01*
X133978742Y-65222704D02*
X133978742Y-64422704D01*
X133978742Y-64803657D02*
X133521600Y-64803657D01*
X133521600Y-65222704D02*
X133521600Y-64422704D01*
X133140647Y-64803657D02*
X132873980Y-64803657D01*
X132759695Y-65222704D02*
X133140647Y-65222704D01*
X133140647Y-64422704D01*
X132759695Y-64422704D01*
X132416838Y-65222704D02*
X132416838Y-64422704D01*
X132226361Y-64422704D01*
X132112076Y-64460800D01*
X132035885Y-64536990D01*
X131997790Y-64613180D01*
X131959695Y-64765561D01*
X131959695Y-64879847D01*
X131997790Y-65032228D01*
X132035885Y-65108419D01*
X132112076Y-65184609D01*
X132226361Y-65222704D01*
X132416838Y-65222704D01*
X113734738Y-65982857D02*
X113620452Y-66020952D01*
X113582357Y-66059047D01*
X113544261Y-66135238D01*
X113544261Y-66249523D01*
X113582357Y-66325714D01*
X113620452Y-66363809D01*
X113696642Y-66401904D01*
X114001404Y-66401904D01*
X114001404Y-65601904D01*
X113734738Y-65601904D01*
X113658547Y-65640000D01*
X113620452Y-65678095D01*
X113582357Y-65754285D01*
X113582357Y-65830476D01*
X113620452Y-65906666D01*
X113658547Y-65944761D01*
X113734738Y-65982857D01*
X114001404Y-65982857D01*
X113239500Y-66173333D02*
X112858547Y-66173333D01*
X113315690Y-66401904D02*
X113049023Y-65601904D01*
X112782357Y-66401904D01*
X112629976Y-65601904D02*
X112172833Y-65601904D01*
X112401404Y-66401904D02*
X112401404Y-65601904D01*
X112020452Y-65601904D02*
X111563309Y-65601904D01*
X111791880Y-66401904D02*
X111791880Y-65601904D01*
X114033166Y-62363404D02*
X114414119Y-62363404D01*
X114452214Y-62744357D01*
X114414119Y-62706261D01*
X114337928Y-62668166D01*
X114147452Y-62668166D01*
X114071261Y-62706261D01*
X114033166Y-62744357D01*
X113995071Y-62820547D01*
X113995071Y-63011023D01*
X114033166Y-63087214D01*
X114071261Y-63125309D01*
X114147452Y-63163404D01*
X114337928Y-63163404D01*
X114414119Y-63125309D01*
X114452214Y-63087214D01*
X113766500Y-62363404D02*
X113499833Y-63163404D01*
X113233166Y-62363404D01*
X112356976Y-63163404D02*
X112356976Y-62363404D01*
X111976023Y-63163404D02*
X111976023Y-62363404D01*
X111518880Y-63163404D01*
X111518880Y-62363404D01*
X101650157Y-108261104D02*
X101650157Y-107461104D01*
X101459680Y-107461104D01*
X101345395Y-107499200D01*
X101269204Y-107575390D01*
X101231109Y-107651580D01*
X101193014Y-107803961D01*
X101193014Y-107918247D01*
X101231109Y-108070628D01*
X101269204Y-108146819D01*
X101345395Y-108223009D01*
X101459680Y-108261104D01*
X101650157Y-108261104D01*
X100393014Y-108184914D02*
X100431109Y-108223009D01*
X100545395Y-108261104D01*
X100621585Y-108261104D01*
X100735871Y-108223009D01*
X100812061Y-108146819D01*
X100850157Y-108070628D01*
X100888252Y-107918247D01*
X100888252Y-107803961D01*
X100850157Y-107651580D01*
X100812061Y-107575390D01*
X100735871Y-107499200D01*
X100621585Y-107461104D01*
X100545395Y-107461104D01*
X100431109Y-107499200D01*
X100393014Y-107537295D01*
X100050157Y-108261104D02*
X100050157Y-107461104D01*
X99859680Y-107461104D01*
X99745395Y-107499200D01*
X99669204Y-107575390D01*
X99631109Y-107651580D01*
X99593014Y-107803961D01*
X99593014Y-107918247D01*
X99631109Y-108070628D01*
X99669204Y-108146819D01*
X99745395Y-108223009D01*
X99859680Y-108261104D01*
X100050157Y-108261104D01*
X98793014Y-108184914D02*
X98831109Y-108223009D01*
X98945395Y-108261104D01*
X99021585Y-108261104D01*
X99135871Y-108223009D01*
X99212061Y-108146819D01*
X99250157Y-108070628D01*
X99288252Y-107918247D01*
X99288252Y-107803961D01*
X99250157Y-107651580D01*
X99212061Y-107575390D01*
X99135871Y-107499200D01*
X99021585Y-107461104D01*
X98945395Y-107461104D01*
X98831109Y-107499200D01*
X98793014Y-107537295D01*
X97421585Y-108261104D02*
X97878728Y-108261104D01*
X97650157Y-108261104D02*
X97650157Y-107461104D01*
X97726347Y-107575390D01*
X97802538Y-107651580D01*
X97878728Y-107689676D01*
X97116823Y-107537295D02*
X97078728Y-107499200D01*
X97002538Y-107461104D01*
X96812061Y-107461104D01*
X96735871Y-107499200D01*
X96697776Y-107537295D01*
X96659680Y-107613485D01*
X96659680Y-107689676D01*
X96697776Y-107803961D01*
X97154919Y-108261104D01*
X96659680Y-108261104D01*
X96431109Y-107461104D02*
X96164442Y-108261104D01*
X95897776Y-107461104D01*
X95021585Y-107956342D02*
X94412061Y-107956342D01*
X94031109Y-107727771D02*
X93421585Y-107956342D01*
X94031109Y-108184914D01*
X92050157Y-107461104D02*
X92431109Y-107461104D01*
X92469204Y-107842057D01*
X92431109Y-107803961D01*
X92354919Y-107765866D01*
X92164442Y-107765866D01*
X92088252Y-107803961D01*
X92050157Y-107842057D01*
X92012061Y-107918247D01*
X92012061Y-108108723D01*
X92050157Y-108184914D01*
X92088252Y-108223009D01*
X92164442Y-108261104D01*
X92354919Y-108261104D01*
X92431109Y-108223009D01*
X92469204Y-108184914D01*
X91783490Y-107461104D02*
X91516823Y-108261104D01*
X91250157Y-107461104D01*
D11*
X127996938Y-113226090D02*
X128235033Y-113226090D01*
X128258842Y-113464185D01*
X128235033Y-113440376D01*
X128187414Y-113416566D01*
X128068366Y-113416566D01*
X128020747Y-113440376D01*
X127996938Y-113464185D01*
X127973128Y-113511804D01*
X127973128Y-113630852D01*
X127996938Y-113678471D01*
X128020747Y-113702280D01*
X128068366Y-113726090D01*
X128187414Y-113726090D01*
X128235033Y-113702280D01*
X128258842Y-113678471D01*
X127830271Y-113226090D02*
X127663604Y-113726090D01*
X127496938Y-113226090D01*
X132030220Y-113726090D02*
X132030220Y-113226090D01*
X131911172Y-113226090D01*
X131839744Y-113249900D01*
X131792124Y-113297519D01*
X131768315Y-113345138D01*
X131744505Y-113440376D01*
X131744505Y-113511804D01*
X131768315Y-113607042D01*
X131792124Y-113654661D01*
X131839744Y-113702280D01*
X131911172Y-113726090D01*
X132030220Y-113726090D01*
X131530220Y-113535614D02*
X131149267Y-113535614D01*
X131339744Y-113726090D02*
X131339744Y-113345138D01*
X135825407Y-113726090D02*
X135825407Y-113226090D01*
X135706359Y-113226090D01*
X135634931Y-113249900D01*
X135587311Y-113297519D01*
X135563502Y-113345138D01*
X135539692Y-113440376D01*
X135539692Y-113511804D01*
X135563502Y-113607042D01*
X135587311Y-113654661D01*
X135634931Y-113702280D01*
X135706359Y-113726090D01*
X135825407Y-113726090D01*
X135325407Y-113535614D02*
X134944454Y-113535614D01*
X139763452Y-113249900D02*
X139811071Y-113226090D01*
X139882500Y-113226090D01*
X139953928Y-113249900D01*
X140001547Y-113297519D01*
X140025357Y-113345138D01*
X140049166Y-113440376D01*
X140049166Y-113511804D01*
X140025357Y-113607042D01*
X140001547Y-113654661D01*
X139953928Y-113702280D01*
X139882500Y-113726090D01*
X139834880Y-113726090D01*
X139763452Y-113702280D01*
X139739642Y-113678471D01*
X139739642Y-113511804D01*
X139834880Y-113511804D01*
X139525357Y-113726090D02*
X139525357Y-113226090D01*
X139239642Y-113726090D01*
X139239642Y-113226090D01*
X139001547Y-113726090D02*
X139001547Y-113226090D01*
X138882500Y-113226090D01*
X138811071Y-113249900D01*
X138763452Y-113297519D01*
X138739642Y-113345138D01*
X138715833Y-113440376D01*
X138715833Y-113511804D01*
X138739642Y-113607042D01*
X138763452Y-113654661D01*
X138811071Y-113702280D01*
X138882500Y-113726090D01*
X139001547Y-113726090D01*
X142642352Y-111206790D02*
X142642352Y-111611552D01*
X142618542Y-111659171D01*
X142594733Y-111682980D01*
X142547114Y-111706790D01*
X142451876Y-111706790D01*
X142404257Y-111682980D01*
X142380447Y-111659171D01*
X142356638Y-111611552D01*
X142356638Y-111206790D01*
X142142352Y-111682980D02*
X142070923Y-111706790D01*
X141951876Y-111706790D01*
X141904257Y-111682980D01*
X141880447Y-111659171D01*
X141856638Y-111611552D01*
X141856638Y-111563933D01*
X141880447Y-111516314D01*
X141904257Y-111492504D01*
X141951876Y-111468695D01*
X142047114Y-111444885D01*
X142094733Y-111421076D01*
X142118542Y-111397266D01*
X142142352Y-111349647D01*
X142142352Y-111302028D01*
X142118542Y-111254409D01*
X142094733Y-111230600D01*
X142047114Y-111206790D01*
X141928066Y-111206790D01*
X141856638Y-111230600D01*
X141475685Y-111444885D02*
X141404257Y-111468695D01*
X141380447Y-111492504D01*
X141356638Y-111540123D01*
X141356638Y-111611552D01*
X141380447Y-111659171D01*
X141404257Y-111682980D01*
X141451876Y-111706790D01*
X141642352Y-111706790D01*
X141642352Y-111206790D01*
X141475685Y-111206790D01*
X141428066Y-111230600D01*
X141404257Y-111254409D01*
X141380447Y-111302028D01*
X141380447Y-111349647D01*
X141404257Y-111397266D01*
X141428066Y-111421076D01*
X141475685Y-111444885D01*
X141642352Y-111444885D01*
D13*
%TO.C,R4*%
X125358500Y-72025000D02*
X125358500Y-74025000D01*
X127498500Y-74025000D02*
X127498500Y-72025000D01*
%TO.C,R7*%
X99323500Y-97996500D02*
X99323500Y-99996500D01*
X101463500Y-99996500D02*
X101463500Y-97996500D01*
%TO.C,R8*%
X125358500Y-97996500D02*
X125358500Y-99996500D01*
X127498500Y-99996500D02*
X127498500Y-97996500D01*
%TO.C,R6*%
X131816500Y-94091000D02*
X131816500Y-92091000D01*
X129676500Y-92091000D02*
X129676500Y-94091000D01*
%TO.C,R5*%
X106188000Y-111369500D02*
X108188000Y-111369500D01*
X108188000Y-109229500D02*
X106188000Y-109229500D01*
%TO.C,R3*%
X99323500Y-72025000D02*
X99323500Y-74025000D01*
X101463500Y-74025000D02*
X101463500Y-72025000D01*
%TO.C,R2*%
X131302000Y-83194500D02*
X129302000Y-83194500D01*
X129302000Y-85334500D02*
X131302000Y-85334500D01*
%TO.C,R1*%
X106188000Y-85334500D02*
X108188000Y-85334500D01*
X108188000Y-83194500D02*
X106188000Y-83194500D01*
%TO.C,D2*%
X144400000Y-103026000D02*
X144400000Y-108426000D01*
X147700000Y-103026000D02*
X147700000Y-108426000D01*
X144400000Y-103026000D02*
X147700000Y-103026000D01*
%TO.C,D1*%
X115444000Y-100359000D02*
X115444000Y-105759000D01*
X118744000Y-100359000D02*
X118744000Y-105759000D01*
X115444000Y-100359000D02*
X118744000Y-100359000D01*
%TO.C,U2*%
X143360000Y-106500000D02*
X120640001Y-106500000D01*
X143359999Y-65500000D02*
X143360000Y-106500000D01*
X120650000Y-65500000D02*
X143359999Y-65500000D01*
X120640001Y-106500000D02*
X120640000Y-65500000D01*
%TO.C,J1*%
X116400000Y-113500000D02*
X116400000Y-122300000D01*
X116400000Y-122300000D02*
X125600000Y-122300000D01*
X119100000Y-107600000D02*
X116400000Y-107600000D01*
X116400000Y-107600000D02*
X116400000Y-109500000D01*
X125600000Y-122300000D02*
X125600000Y-107600000D01*
X125600000Y-107600000D02*
X123000000Y-107600000D01*
%TO.C,SW5*%
X103113000Y-66490000D02*
X101913000Y-66490000D01*
X101913000Y-66490000D02*
X101913000Y-62290000D01*
X101913000Y-62290000D02*
X103113000Y-62290000D01*
X109913000Y-66490000D02*
X111113000Y-66490000D01*
X111113000Y-66490000D02*
X111113000Y-62290000D01*
X111113000Y-62290000D02*
X109913000Y-62290000D01*
X102813000Y-66790000D02*
X101613000Y-66790000D01*
X101613000Y-66790000D02*
X101613000Y-65590000D01*
%TO.C,J2*%
X140900000Y-115350000D02*
X140450000Y-115350000D01*
X140900000Y-117200000D02*
X140900000Y-115350000D01*
X133100000Y-119750000D02*
X133100000Y-119500000D01*
X140900000Y-119750000D02*
X140900000Y-119500000D01*
X133100000Y-117200000D02*
X133100000Y-115350000D01*
X133100000Y-115350000D02*
X133550000Y-115350000D01*
X138700000Y-114800000D02*
X138250000Y-114800000D01*
X138700000Y-114800000D02*
X138700000Y-115250000D01*
D10*
%TO.C,U1*%
X90901500Y-86964500D02*
X90901500Y-106964500D01*
X90901500Y-106964500D02*
X110901500Y-106964500D01*
X110901500Y-106964500D02*
X110901500Y-86964500D01*
X110901500Y-86964500D02*
X90901500Y-86964500D01*
%TO.C,R4*%
X125030880Y-72858333D02*
X124554690Y-72525000D01*
X125030880Y-72286904D02*
X124030880Y-72286904D01*
X124030880Y-72667857D01*
X124078500Y-72763095D01*
X124126119Y-72810714D01*
X124221357Y-72858333D01*
X124364214Y-72858333D01*
X124459452Y-72810714D01*
X124507071Y-72763095D01*
X124554690Y-72667857D01*
X124554690Y-72286904D01*
X124364214Y-73715476D02*
X125030880Y-73715476D01*
X123983261Y-73477380D02*
X124697547Y-73239285D01*
X124697547Y-73858333D01*
%TO.C,R7*%
X98995880Y-98829833D02*
X98519690Y-98496500D01*
X98995880Y-98258404D02*
X97995880Y-98258404D01*
X97995880Y-98639357D01*
X98043500Y-98734595D01*
X98091119Y-98782214D01*
X98186357Y-98829833D01*
X98329214Y-98829833D01*
X98424452Y-98782214D01*
X98472071Y-98734595D01*
X98519690Y-98639357D01*
X98519690Y-98258404D01*
X97995880Y-99163166D02*
X97995880Y-99829833D01*
X98995880Y-99401261D01*
%TO.C,R8*%
X125030880Y-98829833D02*
X124554690Y-98496500D01*
X125030880Y-98258404D02*
X124030880Y-98258404D01*
X124030880Y-98639357D01*
X124078500Y-98734595D01*
X124126119Y-98782214D01*
X124221357Y-98829833D01*
X124364214Y-98829833D01*
X124459452Y-98782214D01*
X124507071Y-98734595D01*
X124554690Y-98639357D01*
X124554690Y-98258404D01*
X124459452Y-99401261D02*
X124411833Y-99306023D01*
X124364214Y-99258404D01*
X124268976Y-99210785D01*
X124221357Y-99210785D01*
X124126119Y-99258404D01*
X124078500Y-99306023D01*
X124030880Y-99401261D01*
X124030880Y-99591738D01*
X124078500Y-99686976D01*
X124126119Y-99734595D01*
X124221357Y-99782214D01*
X124268976Y-99782214D01*
X124364214Y-99734595D01*
X124411833Y-99686976D01*
X124459452Y-99591738D01*
X124459452Y-99401261D01*
X124507071Y-99306023D01*
X124554690Y-99258404D01*
X124649928Y-99210785D01*
X124840404Y-99210785D01*
X124935642Y-99258404D01*
X124983261Y-99306023D01*
X125030880Y-99401261D01*
X125030880Y-99591738D01*
X124983261Y-99686976D01*
X124935642Y-99734595D01*
X124840404Y-99782214D01*
X124649928Y-99782214D01*
X124554690Y-99734595D01*
X124507071Y-99686976D01*
X124459452Y-99591738D01*
%TO.C,R6*%
X133048880Y-92924333D02*
X132572690Y-92591000D01*
X133048880Y-92352904D02*
X132048880Y-92352904D01*
X132048880Y-92733857D01*
X132096500Y-92829095D01*
X132144119Y-92876714D01*
X132239357Y-92924333D01*
X132382214Y-92924333D01*
X132477452Y-92876714D01*
X132525071Y-92829095D01*
X132572690Y-92733857D01*
X132572690Y-92352904D01*
X132048880Y-93781476D02*
X132048880Y-93591000D01*
X132096500Y-93495761D01*
X132144119Y-93448142D01*
X132286976Y-93352904D01*
X132477452Y-93305285D01*
X132858404Y-93305285D01*
X132953642Y-93352904D01*
X133001261Y-93400523D01*
X133048880Y-93495761D01*
X133048880Y-93686238D01*
X133001261Y-93781476D01*
X132953642Y-93829095D01*
X132858404Y-93876714D01*
X132620309Y-93876714D01*
X132525071Y-93829095D01*
X132477452Y-93781476D01*
X132429833Y-93686238D01*
X132429833Y-93495761D01*
X132477452Y-93400523D01*
X132525071Y-93352904D01*
X132620309Y-93305285D01*
%TO.C,R5*%
X107354666Y-112601880D02*
X107688000Y-112125690D01*
X107926095Y-112601880D02*
X107926095Y-111601880D01*
X107545142Y-111601880D01*
X107449904Y-111649500D01*
X107402285Y-111697119D01*
X107354666Y-111792357D01*
X107354666Y-111935214D01*
X107402285Y-112030452D01*
X107449904Y-112078071D01*
X107545142Y-112125690D01*
X107926095Y-112125690D01*
X106449904Y-111601880D02*
X106926095Y-111601880D01*
X106973714Y-112078071D01*
X106926095Y-112030452D01*
X106830857Y-111982833D01*
X106592761Y-111982833D01*
X106497523Y-112030452D01*
X106449904Y-112078071D01*
X106402285Y-112173309D01*
X106402285Y-112411404D01*
X106449904Y-112506642D01*
X106497523Y-112554261D01*
X106592761Y-112601880D01*
X106830857Y-112601880D01*
X106926095Y-112554261D01*
X106973714Y-112506642D01*
%TO.C,R3*%
X98995880Y-72858333D02*
X98519690Y-72525000D01*
X98995880Y-72286904D02*
X97995880Y-72286904D01*
X97995880Y-72667857D01*
X98043500Y-72763095D01*
X98091119Y-72810714D01*
X98186357Y-72858333D01*
X98329214Y-72858333D01*
X98424452Y-72810714D01*
X98472071Y-72763095D01*
X98519690Y-72667857D01*
X98519690Y-72286904D01*
X97995880Y-73191666D02*
X97995880Y-73810714D01*
X98376833Y-73477380D01*
X98376833Y-73620238D01*
X98424452Y-73715476D01*
X98472071Y-73763095D01*
X98567309Y-73810714D01*
X98805404Y-73810714D01*
X98900642Y-73763095D01*
X98948261Y-73715476D01*
X98995880Y-73620238D01*
X98995880Y-73334523D01*
X98948261Y-73239285D01*
X98900642Y-73191666D01*
%TO.C,R2*%
X130468666Y-82866880D02*
X130802000Y-82390690D01*
X131040095Y-82866880D02*
X131040095Y-81866880D01*
X130659142Y-81866880D01*
X130563904Y-81914500D01*
X130516285Y-81962119D01*
X130468666Y-82057357D01*
X130468666Y-82200214D01*
X130516285Y-82295452D01*
X130563904Y-82343071D01*
X130659142Y-82390690D01*
X131040095Y-82390690D01*
X130087714Y-81962119D02*
X130040095Y-81914500D01*
X129944857Y-81866880D01*
X129706761Y-81866880D01*
X129611523Y-81914500D01*
X129563904Y-81962119D01*
X129516285Y-82057357D01*
X129516285Y-82152595D01*
X129563904Y-82295452D01*
X130135333Y-82866880D01*
X129516285Y-82866880D01*
%TO.C,R1*%
X107354666Y-86566880D02*
X107688000Y-86090690D01*
X107926095Y-86566880D02*
X107926095Y-85566880D01*
X107545142Y-85566880D01*
X107449904Y-85614500D01*
X107402285Y-85662119D01*
X107354666Y-85757357D01*
X107354666Y-85900214D01*
X107402285Y-85995452D01*
X107449904Y-86043071D01*
X107545142Y-86090690D01*
X107926095Y-86090690D01*
X106402285Y-86566880D02*
X106973714Y-86566880D01*
X106688000Y-86566880D02*
X106688000Y-85566880D01*
X106783238Y-85709738D01*
X106878476Y-85804976D01*
X106973714Y-85852595D01*
%TO.C,D2*%
X144002380Y-105687904D02*
X143002380Y-105687904D01*
X143002380Y-105926000D01*
X143050000Y-106068857D01*
X143145238Y-106164095D01*
X143240476Y-106211714D01*
X143430952Y-106259333D01*
X143573809Y-106259333D01*
X143764285Y-106211714D01*
X143859523Y-106164095D01*
X143954761Y-106068857D01*
X144002380Y-105926000D01*
X144002380Y-105687904D01*
X143097619Y-106640285D02*
X143050000Y-106687904D01*
X143002380Y-106783142D01*
X143002380Y-107021238D01*
X143050000Y-107116476D01*
X143097619Y-107164095D01*
X143192857Y-107211714D01*
X143288095Y-107211714D01*
X143430952Y-107164095D01*
X144002380Y-106592666D01*
X144002380Y-107211714D01*
%TO.C,D1*%
X115046380Y-103020904D02*
X114046380Y-103020904D01*
X114046380Y-103259000D01*
X114094000Y-103401857D01*
X114189238Y-103497095D01*
X114284476Y-103544714D01*
X114474952Y-103592333D01*
X114617809Y-103592333D01*
X114808285Y-103544714D01*
X114903523Y-103497095D01*
X114998761Y-103401857D01*
X115046380Y-103259000D01*
X115046380Y-103020904D01*
X115046380Y-104544714D02*
X115046380Y-103973285D01*
X115046380Y-104259000D02*
X114046380Y-104259000D01*
X114189238Y-104163761D01*
X114284476Y-104068523D01*
X114332095Y-103973285D01*
%TO.C,U2*%
X127888904Y-107656380D02*
X127888904Y-108465904D01*
X127841285Y-108561142D01*
X127793666Y-108608761D01*
X127698428Y-108656380D01*
X127507952Y-108656380D01*
X127412714Y-108608761D01*
X127365095Y-108561142D01*
X127317476Y-108465904D01*
X127317476Y-107656380D01*
X126888904Y-107751619D02*
X126841285Y-107704000D01*
X126746047Y-107656380D01*
X126507952Y-107656380D01*
X126412714Y-107704000D01*
X126365095Y-107751619D01*
X126317476Y-107846857D01*
X126317476Y-107942095D01*
X126365095Y-108084952D01*
X126936523Y-108656380D01*
X126317476Y-108656380D01*
%TO.C,J1*%
X127028533Y-118476780D02*
X127028533Y-119191066D01*
X127076152Y-119333923D01*
X127171390Y-119429161D01*
X127314247Y-119476780D01*
X127409485Y-119476780D01*
X126028533Y-119476780D02*
X126599961Y-119476780D01*
X126314247Y-119476780D02*
X126314247Y-118476780D01*
X126409485Y-118619638D01*
X126504723Y-118714876D01*
X126599961Y-118762495D01*
%TO.C,SW5*%
X105346333Y-68444761D02*
X105203476Y-68492380D01*
X104965380Y-68492380D01*
X104870142Y-68444761D01*
X104822523Y-68397142D01*
X104774904Y-68301904D01*
X104774904Y-68206666D01*
X104822523Y-68111428D01*
X104870142Y-68063809D01*
X104965380Y-68016190D01*
X105155857Y-67968571D01*
X105251095Y-67920952D01*
X105298714Y-67873333D01*
X105346333Y-67778095D01*
X105346333Y-67682857D01*
X105298714Y-67587619D01*
X105251095Y-67540000D01*
X105155857Y-67492380D01*
X104917761Y-67492380D01*
X104774904Y-67540000D01*
X104441571Y-67492380D02*
X104203476Y-68492380D01*
X104013000Y-67778095D01*
X103822523Y-68492380D01*
X103584428Y-67492380D01*
X102727285Y-67492380D02*
X103203476Y-67492380D01*
X103251095Y-67968571D01*
X103203476Y-67920952D01*
X103108238Y-67873333D01*
X102870142Y-67873333D01*
X102774904Y-67920952D01*
X102727285Y-67968571D01*
X102679666Y-68063809D01*
X102679666Y-68301904D01*
X102727285Y-68397142D01*
X102774904Y-68444761D01*
X102870142Y-68492380D01*
X103108238Y-68492380D01*
X103203476Y-68444761D01*
X103251095Y-68397142D01*
%TO.C,J2*%
X131892633Y-117511580D02*
X131892633Y-118225866D01*
X131940252Y-118368723D01*
X132035490Y-118463961D01*
X132178347Y-118511580D01*
X132273585Y-118511580D01*
X131464061Y-117606819D02*
X131416442Y-117559200D01*
X131321204Y-117511580D01*
X131083109Y-117511580D01*
X130987871Y-117559200D01*
X130940252Y-117606819D01*
X130892633Y-117702057D01*
X130892633Y-117797295D01*
X130940252Y-117940152D01*
X131511680Y-118511580D01*
X130892633Y-118511580D01*
%TO.C,U1*%
X95046704Y-85634580D02*
X95046704Y-86444104D01*
X94999085Y-86539342D01*
X94951466Y-86586961D01*
X94856228Y-86634580D01*
X94665752Y-86634580D01*
X94570514Y-86586961D01*
X94522895Y-86539342D01*
X94475276Y-86444104D01*
X94475276Y-85634580D01*
X93475276Y-86634580D02*
X94046704Y-86634580D01*
X93760990Y-86634580D02*
X93760990Y-85634580D01*
X93856228Y-85777438D01*
X93951466Y-85872676D01*
X94046704Y-85920295D01*
%TD*%
M02*
