M48
; DRILL file {KiCad 5.1.6-c6e7f7d~86~ubuntu18.04.1} date Sat Jun  6 16:31:17 2020
; FORMAT={3:3/ absolute / metric / suppress leading zeros}
; #@! TF.CreationDate,2020-06-06T16:31:17+02:00
; #@! TF.GenerationSoftware,Kicad,Pcbnew,5.1.6-c6e7f7d~86~ubuntu18.04.1
FMAT,2
METRIC,TZ
T1C0.400
T2C0.762
T3C0.800
T4C1.500
T5C1.700
T6C4.000
%
G90
G05
T1
X123952Y-73152
X124968Y-65278
X125095Y-70485
X136144Y-69760
T2
X127508Y-82550
X130048Y-82550
X98135Y-81065
X98135Y-83605
X98135Y-86145
X115150Y-95490
X115150Y-98030
X107442Y-62484
X109982Y-62484
X107442Y-82550
X109982Y-82550
X127508Y-62484
X130048Y-62484
T3
X127508Y-66421
X135128Y-66421
X107442Y-86487
X115062Y-86487
X107442Y-66421
X115062Y-66421
X127508Y-88773
X135128Y-88773
X119761Y-80645
X119761Y-88265
X137795Y-80645
X137795Y-88265
X99695Y-54864
X99695Y-62484
X118160Y-52451
X118160Y-54991
X118160Y-57531
X118160Y-60071
X118160Y-62611
X118160Y-65151
X118160Y-67691
X118160Y-70231
X118160Y-72771
X118160Y-75311
X118160Y-77851
X127000Y-68961
X129540Y-68961
X138380Y-52451
X138380Y-54991
X138380Y-57531
X138380Y-60071
X138380Y-62611
X138380Y-65151
X138380Y-67691
X138380Y-70231
X138380Y-72771
X138380Y-75311
X138380Y-77851
X99695Y-67310
X99695Y-74930
T4
X104902Y-54864
X111252Y-52324
X104902Y-74930
X111252Y-72390
X124968Y-54864
X131318Y-52324
X124968Y-74930
X131318Y-72390
T5
X103632Y-57404
X113792Y-57404
X103632Y-77470
X113792Y-77470
X123698Y-57404
X133858Y-57404
X123698Y-77470
X133858Y-77470
T6
X108712Y-57404
X108712Y-77470
X128778Y-57404
X128778Y-77470
T0
M30
