%TF.GenerationSoftware,KiCad,Pcbnew,5.1.6-c6e7f7d~86~ubuntu18.04.1*%
%TF.CreationDate,2020-06-06T16:31:20+02:00*%
%TF.ProjectId,BikeCommunicator,42696b65-436f-46d6-9d75-6e696361746f,rev?*%
%TF.SameCoordinates,Original*%
%TF.FileFunction,Legend,Top*%
%TF.FilePolarity,Positive*%
%FSLAX46Y46*%
G04 Gerber Fmt 4.6, Leading zero omitted, Abs format (unit mm)*
G04 Created by KiCad (PCBNEW 5.1.6-c6e7f7d~86~ubuntu18.04.1) date 2020-06-06 16:31:20*
%MOMM*%
%LPD*%
G01*
G04 APERTURE LIST*
%ADD10C,0.120000*%
%ADD11C,0.150000*%
G04 APERTURE END LIST*
D10*
%TO.C,SW4*%
X121793000Y-70485000D02*
X135763000Y-70485000D01*
X135763000Y-70485000D02*
X135763000Y-84455000D01*
X135763000Y-84455000D02*
X121793000Y-84455000D01*
X121793000Y-84455000D02*
X121793000Y-70485000D01*
%TO.C,SW3*%
X101727000Y-70485000D02*
X115697000Y-70485000D01*
X115697000Y-70485000D02*
X115697000Y-84455000D01*
X115697000Y-84455000D02*
X101727000Y-84455000D01*
X101727000Y-84455000D02*
X101727000Y-70485000D01*
%TO.C,SW2*%
X121793000Y-50419000D02*
X135763000Y-50419000D01*
X135763000Y-50419000D02*
X135763000Y-64389000D01*
X135763000Y-64389000D02*
X121793000Y-64389000D01*
X121793000Y-64389000D02*
X121793000Y-50419000D01*
%TO.C,SW1*%
X101727000Y-50419000D02*
X115697000Y-50419000D01*
X115697000Y-50419000D02*
X115697000Y-64389000D01*
X115697000Y-64389000D02*
X101727000Y-64389000D01*
X101727000Y-64389000D02*
X101727000Y-50419000D01*
%TO.C,R8*%
X121131000Y-81185000D02*
X120801000Y-81185000D01*
X121131000Y-87725000D02*
X121131000Y-81185000D01*
X120801000Y-87725000D02*
X121131000Y-87725000D01*
X118391000Y-81185000D02*
X118721000Y-81185000D01*
X118391000Y-87725000D02*
X118391000Y-81185000D01*
X118721000Y-87725000D02*
X118391000Y-87725000D01*
%TO.C,R7*%
X98325000Y-74390000D02*
X98655000Y-74390000D01*
X98325000Y-67850000D02*
X98325000Y-74390000D01*
X98655000Y-67850000D02*
X98325000Y-67850000D01*
X101065000Y-74390000D02*
X100735000Y-74390000D01*
X101065000Y-67850000D02*
X101065000Y-74390000D01*
X100735000Y-67850000D02*
X101065000Y-67850000D01*
%TO.C,R6*%
X134588000Y-90143000D02*
X134588000Y-89813000D01*
X128048000Y-90143000D02*
X134588000Y-90143000D01*
X128048000Y-89813000D02*
X128048000Y-90143000D01*
X134588000Y-87403000D02*
X134588000Y-87733000D01*
X128048000Y-87403000D02*
X134588000Y-87403000D01*
X128048000Y-87733000D02*
X128048000Y-87403000D01*
%TO.C,R5*%
X114522000Y-87857000D02*
X114522000Y-87527000D01*
X107982000Y-87857000D02*
X114522000Y-87857000D01*
X107982000Y-87527000D02*
X107982000Y-87857000D01*
X114522000Y-85117000D02*
X114522000Y-85447000D01*
X107982000Y-85117000D02*
X114522000Y-85117000D01*
X107982000Y-85447000D02*
X107982000Y-85117000D01*
%TO.C,R4*%
X139165000Y-81185000D02*
X138835000Y-81185000D01*
X139165000Y-87725000D02*
X139165000Y-81185000D01*
X138835000Y-87725000D02*
X139165000Y-87725000D01*
X136425000Y-81185000D02*
X136755000Y-81185000D01*
X136425000Y-87725000D02*
X136425000Y-81185000D01*
X136755000Y-87725000D02*
X136425000Y-87725000D01*
%TO.C,R3*%
X101065000Y-55404000D02*
X100735000Y-55404000D01*
X101065000Y-61944000D02*
X101065000Y-55404000D01*
X100735000Y-61944000D02*
X101065000Y-61944000D01*
X98325000Y-55404000D02*
X98655000Y-55404000D01*
X98325000Y-61944000D02*
X98325000Y-55404000D01*
X98655000Y-61944000D02*
X98325000Y-61944000D01*
%TO.C,R2*%
X134588000Y-67791000D02*
X134588000Y-67461000D01*
X128048000Y-67791000D02*
X134588000Y-67791000D01*
X128048000Y-67461000D02*
X128048000Y-67791000D01*
X134588000Y-65051000D02*
X134588000Y-65381000D01*
X128048000Y-65051000D02*
X134588000Y-65051000D01*
X128048000Y-65381000D02*
X128048000Y-65051000D01*
%TO.C,R1*%
X114522000Y-67791000D02*
X114522000Y-67461000D01*
X107982000Y-67791000D02*
X114522000Y-67791000D01*
X107982000Y-67461000D02*
X107982000Y-67791000D01*
X114522000Y-65051000D02*
X114522000Y-65381000D01*
X107982000Y-65051000D02*
X114522000Y-65051000D01*
X107982000Y-65381000D02*
X107982000Y-65051000D01*
%TO.C,SW4*%
D11*
X121856666Y-86002761D02*
X121999523Y-86050380D01*
X122237619Y-86050380D01*
X122332857Y-86002761D01*
X122380476Y-85955142D01*
X122428095Y-85859904D01*
X122428095Y-85764666D01*
X122380476Y-85669428D01*
X122332857Y-85621809D01*
X122237619Y-85574190D01*
X122047142Y-85526571D01*
X121951904Y-85478952D01*
X121904285Y-85431333D01*
X121856666Y-85336095D01*
X121856666Y-85240857D01*
X121904285Y-85145619D01*
X121951904Y-85098000D01*
X122047142Y-85050380D01*
X122285238Y-85050380D01*
X122428095Y-85098000D01*
X122761428Y-85050380D02*
X122999523Y-86050380D01*
X123190000Y-85336095D01*
X123380476Y-86050380D01*
X123618571Y-85050380D01*
X124428095Y-85383714D02*
X124428095Y-86050380D01*
X124190000Y-85002761D02*
X123951904Y-85717047D01*
X124570952Y-85717047D01*
%TO.C,SW3*%
X100266666Y-86002761D02*
X100409523Y-86050380D01*
X100647619Y-86050380D01*
X100742857Y-86002761D01*
X100790476Y-85955142D01*
X100838095Y-85859904D01*
X100838095Y-85764666D01*
X100790476Y-85669428D01*
X100742857Y-85621809D01*
X100647619Y-85574190D01*
X100457142Y-85526571D01*
X100361904Y-85478952D01*
X100314285Y-85431333D01*
X100266666Y-85336095D01*
X100266666Y-85240857D01*
X100314285Y-85145619D01*
X100361904Y-85098000D01*
X100457142Y-85050380D01*
X100695238Y-85050380D01*
X100838095Y-85098000D01*
X101171428Y-85050380D02*
X101409523Y-86050380D01*
X101600000Y-85336095D01*
X101790476Y-86050380D01*
X102028571Y-85050380D01*
X102314285Y-85050380D02*
X102933333Y-85050380D01*
X102600000Y-85431333D01*
X102742857Y-85431333D01*
X102838095Y-85478952D01*
X102885714Y-85526571D01*
X102933333Y-85621809D01*
X102933333Y-85859904D01*
X102885714Y-85955142D01*
X102838095Y-86002761D01*
X102742857Y-86050380D01*
X102457142Y-86050380D01*
X102361904Y-86002761D01*
X102314285Y-85955142D01*
%TO.C,SW2*%
X120840666Y-66190761D02*
X120983523Y-66238380D01*
X121221619Y-66238380D01*
X121316857Y-66190761D01*
X121364476Y-66143142D01*
X121412095Y-66047904D01*
X121412095Y-65952666D01*
X121364476Y-65857428D01*
X121316857Y-65809809D01*
X121221619Y-65762190D01*
X121031142Y-65714571D01*
X120935904Y-65666952D01*
X120888285Y-65619333D01*
X120840666Y-65524095D01*
X120840666Y-65428857D01*
X120888285Y-65333619D01*
X120935904Y-65286000D01*
X121031142Y-65238380D01*
X121269238Y-65238380D01*
X121412095Y-65286000D01*
X121745428Y-65238380D02*
X121983523Y-66238380D01*
X122174000Y-65524095D01*
X122364476Y-66238380D01*
X122602571Y-65238380D01*
X122935904Y-65333619D02*
X122983523Y-65286000D01*
X123078761Y-65238380D01*
X123316857Y-65238380D01*
X123412095Y-65286000D01*
X123459714Y-65333619D01*
X123507333Y-65428857D01*
X123507333Y-65524095D01*
X123459714Y-65666952D01*
X122888285Y-66238380D01*
X123507333Y-66238380D01*
%TO.C,SW1*%
X100774666Y-66190761D02*
X100917523Y-66238380D01*
X101155619Y-66238380D01*
X101250857Y-66190761D01*
X101298476Y-66143142D01*
X101346095Y-66047904D01*
X101346095Y-65952666D01*
X101298476Y-65857428D01*
X101250857Y-65809809D01*
X101155619Y-65762190D01*
X100965142Y-65714571D01*
X100869904Y-65666952D01*
X100822285Y-65619333D01*
X100774666Y-65524095D01*
X100774666Y-65428857D01*
X100822285Y-65333619D01*
X100869904Y-65286000D01*
X100965142Y-65238380D01*
X101203238Y-65238380D01*
X101346095Y-65286000D01*
X101679428Y-65238380D02*
X101917523Y-66238380D01*
X102108000Y-65524095D01*
X102298476Y-66238380D01*
X102536571Y-65238380D01*
X103441333Y-66238380D02*
X102869904Y-66238380D01*
X103155619Y-66238380D02*
X103155619Y-65238380D01*
X103060380Y-65381238D01*
X102965142Y-65476476D01*
X102869904Y-65524095D01*
%TO.C,R8*%
X117843380Y-84621666D02*
X117367190Y-84955000D01*
X117843380Y-85193095D02*
X116843380Y-85193095D01*
X116843380Y-84812142D01*
X116891000Y-84716904D01*
X116938619Y-84669285D01*
X117033857Y-84621666D01*
X117176714Y-84621666D01*
X117271952Y-84669285D01*
X117319571Y-84716904D01*
X117367190Y-84812142D01*
X117367190Y-85193095D01*
X117271952Y-84050238D02*
X117224333Y-84145476D01*
X117176714Y-84193095D01*
X117081476Y-84240714D01*
X117033857Y-84240714D01*
X116938619Y-84193095D01*
X116891000Y-84145476D01*
X116843380Y-84050238D01*
X116843380Y-83859761D01*
X116891000Y-83764523D01*
X116938619Y-83716904D01*
X117033857Y-83669285D01*
X117081476Y-83669285D01*
X117176714Y-83716904D01*
X117224333Y-83764523D01*
X117271952Y-83859761D01*
X117271952Y-84050238D01*
X117319571Y-84145476D01*
X117367190Y-84193095D01*
X117462428Y-84240714D01*
X117652904Y-84240714D01*
X117748142Y-84193095D01*
X117795761Y-84145476D01*
X117843380Y-84050238D01*
X117843380Y-83859761D01*
X117795761Y-83764523D01*
X117748142Y-83716904D01*
X117652904Y-83669285D01*
X117462428Y-83669285D01*
X117367190Y-83716904D01*
X117319571Y-83764523D01*
X117271952Y-83859761D01*
%TO.C,R7*%
X100020380Y-77382666D02*
X99544190Y-77716000D01*
X100020380Y-77954095D02*
X99020380Y-77954095D01*
X99020380Y-77573142D01*
X99068000Y-77477904D01*
X99115619Y-77430285D01*
X99210857Y-77382666D01*
X99353714Y-77382666D01*
X99448952Y-77430285D01*
X99496571Y-77477904D01*
X99544190Y-77573142D01*
X99544190Y-77954095D01*
X99020380Y-77049333D02*
X99020380Y-76382666D01*
X100020380Y-76811238D01*
%TO.C,R6*%
X131151333Y-86855380D02*
X130818000Y-86379190D01*
X130579904Y-86855380D02*
X130579904Y-85855380D01*
X130960857Y-85855380D01*
X131056095Y-85903000D01*
X131103714Y-85950619D01*
X131151333Y-86045857D01*
X131151333Y-86188714D01*
X131103714Y-86283952D01*
X131056095Y-86331571D01*
X130960857Y-86379190D01*
X130579904Y-86379190D01*
X132008476Y-85855380D02*
X131818000Y-85855380D01*
X131722761Y-85903000D01*
X131675142Y-85950619D01*
X131579904Y-86093476D01*
X131532285Y-86283952D01*
X131532285Y-86664904D01*
X131579904Y-86760142D01*
X131627523Y-86807761D01*
X131722761Y-86855380D01*
X131913238Y-86855380D01*
X132008476Y-86807761D01*
X132056095Y-86760142D01*
X132103714Y-86664904D01*
X132103714Y-86426809D01*
X132056095Y-86331571D01*
X132008476Y-86283952D01*
X131913238Y-86236333D01*
X131722761Y-86236333D01*
X131627523Y-86283952D01*
X131579904Y-86331571D01*
X131532285Y-86426809D01*
%TO.C,R5*%
X115657333Y-88844380D02*
X115324000Y-88368190D01*
X115085904Y-88844380D02*
X115085904Y-87844380D01*
X115466857Y-87844380D01*
X115562095Y-87892000D01*
X115609714Y-87939619D01*
X115657333Y-88034857D01*
X115657333Y-88177714D01*
X115609714Y-88272952D01*
X115562095Y-88320571D01*
X115466857Y-88368190D01*
X115085904Y-88368190D01*
X116562095Y-87844380D02*
X116085904Y-87844380D01*
X116038285Y-88320571D01*
X116085904Y-88272952D01*
X116181142Y-88225333D01*
X116419238Y-88225333D01*
X116514476Y-88272952D01*
X116562095Y-88320571D01*
X116609714Y-88415809D01*
X116609714Y-88653904D01*
X116562095Y-88749142D01*
X116514476Y-88796761D01*
X116419238Y-88844380D01*
X116181142Y-88844380D01*
X116085904Y-88796761D01*
X116038285Y-88749142D01*
%TO.C,R4*%
X138374380Y-90590666D02*
X137898190Y-90924000D01*
X138374380Y-91162095D02*
X137374380Y-91162095D01*
X137374380Y-90781142D01*
X137422000Y-90685904D01*
X137469619Y-90638285D01*
X137564857Y-90590666D01*
X137707714Y-90590666D01*
X137802952Y-90638285D01*
X137850571Y-90685904D01*
X137898190Y-90781142D01*
X137898190Y-91162095D01*
X137707714Y-89733523D02*
X138374380Y-89733523D01*
X137326761Y-89971619D02*
X138041047Y-90209714D01*
X138041047Y-89590666D01*
%TO.C,R3*%
X100274380Y-52998666D02*
X99798190Y-53332000D01*
X100274380Y-53570095D02*
X99274380Y-53570095D01*
X99274380Y-53189142D01*
X99322000Y-53093904D01*
X99369619Y-53046285D01*
X99464857Y-52998666D01*
X99607714Y-52998666D01*
X99702952Y-53046285D01*
X99750571Y-53093904D01*
X99798190Y-53189142D01*
X99798190Y-53570095D01*
X99274380Y-52665333D02*
X99274380Y-52046285D01*
X99655333Y-52379619D01*
X99655333Y-52236761D01*
X99702952Y-52141523D01*
X99750571Y-52093904D01*
X99845809Y-52046285D01*
X100083904Y-52046285D01*
X100179142Y-52093904D01*
X100226761Y-52141523D01*
X100274380Y-52236761D01*
X100274380Y-52522476D01*
X100226761Y-52617714D01*
X100179142Y-52665333D01*
%TO.C,R2*%
X132421333Y-69286380D02*
X132088000Y-68810190D01*
X131849904Y-69286380D02*
X131849904Y-68286380D01*
X132230857Y-68286380D01*
X132326095Y-68334000D01*
X132373714Y-68381619D01*
X132421333Y-68476857D01*
X132421333Y-68619714D01*
X132373714Y-68714952D01*
X132326095Y-68762571D01*
X132230857Y-68810190D01*
X131849904Y-68810190D01*
X132802285Y-68381619D02*
X132849904Y-68334000D01*
X132945142Y-68286380D01*
X133183238Y-68286380D01*
X133278476Y-68334000D01*
X133326095Y-68381619D01*
X133373714Y-68476857D01*
X133373714Y-68572095D01*
X133326095Y-68714952D01*
X132754666Y-69286380D01*
X133373714Y-69286380D01*
%TO.C,R1*%
X111339333Y-69032380D02*
X111006000Y-68556190D01*
X110767904Y-69032380D02*
X110767904Y-68032380D01*
X111148857Y-68032380D01*
X111244095Y-68080000D01*
X111291714Y-68127619D01*
X111339333Y-68222857D01*
X111339333Y-68365714D01*
X111291714Y-68460952D01*
X111244095Y-68508571D01*
X111148857Y-68556190D01*
X110767904Y-68556190D01*
X112291714Y-69032380D02*
X111720285Y-69032380D01*
X112006000Y-69032380D02*
X112006000Y-68032380D01*
X111910761Y-68175238D01*
X111815523Y-68270476D01*
X111720285Y-68318095D01*
%TD*%
M02*
