M48
; DRILL file {KiCad 5.1.5+dfsg1-2build2} date Wed 04 Nov 2020 03:07:01 PM CET
; FORMAT={3:3/ absolute / metric / suppress leading zeros}
; #@! TF.CreationDate,2020-11-04T15:07:01+01:00
; #@! TF.GenerationSoftware,Kicad,Pcbnew,5.1.5+dfsg1-2build2
FMAT,2
METRIC,TZ
T1C0.400
T2C0.500
T3C0.600
T4C0.762
T5C0.800
T6C0.850
T7C0.900
T8C1.000
T9C1.001
T10C1.500
T11C3.200
T12C1.700
T13C4.000
%
G90
G05
T1
X100393Y-70422
X100393Y-96393
X109982Y-110299
X126429Y-70422
X126429Y-96203
X146056Y-102051
T2
X142600Y-115000
X143303Y-113303
X143303Y-116697
X145000Y-112600
X145000Y-117400
X146697Y-113303
X146697Y-116697
X147400Y-115000
X142600Y-65000
X143303Y-63303
X143303Y-66697
X145000Y-62600
X145000Y-67400
X146697Y-63303
X146697Y-66697
X147400Y-65000
X92600Y-115000
X93303Y-113303
X93303Y-116697
X95000Y-112600
X95000Y-117400
X96697Y-113303
X96697Y-116697
X97400Y-115000
X92600Y-65000
X93303Y-63303
X93303Y-66697
X95000Y-62600
X95000Y-67400
X96697Y-63303
X96697Y-66697
X97400Y-65000
T4
X131730Y-82080
X134270Y-82080
X105730Y-108080
X108270Y-108080
X105730Y-82080
X108270Y-82080
X92407Y-105435
X94947Y-105435
X104292Y-88419
X106831Y-88419
X109372Y-88419
X131730Y-108080
X134270Y-108080
T5
X121890Y-70252
X121890Y-72792
X121890Y-75332
X121890Y-77872
X121890Y-80412
X121890Y-82952
X121890Y-85492
X121890Y-88032
X121890Y-90572
X121890Y-93112
X121890Y-95652
X130730Y-87651
X133270Y-87651
X142110Y-70252
X142110Y-72792
X142110Y-75332
X142110Y-77872
X142110Y-80412
X142110Y-82952
X142110Y-85492
X142110Y-88032
X142110Y-90572
X142110Y-93112
X142110Y-95652
T6
X134500Y-115650
X139500Y-115650
T7
X104013Y-62740
X104013Y-66040
X106513Y-62740
X106513Y-66040
X109013Y-62740
X109013Y-66040
T9
X132855Y-67475
X136665Y-67475
X127953Y-111252
X131763Y-111252
X135573Y-111252
X139382Y-111252
X117348Y-62611
X121158Y-62611
T10
X129190Y-100460
X135540Y-97920
X129190Y-74460
X135540Y-71920
X103190Y-100460
X109540Y-97920
X103190Y-74460
X109540Y-71920
T11
X145000Y-115000
X145000Y-65000
X95000Y-115000
X95000Y-65000
T12
X127920Y-103000
X138080Y-103000
X127920Y-77000
X138080Y-77000
X101920Y-103000
X112080Y-103000
X101920Y-77000
X112080Y-77000
T13
X107000Y-77000
X133000Y-103000
X133000Y-77000
X107000Y-103000
T3
G00X133500Y-118700
M15
G01X133500Y-118000
M16
G05
G00X140500Y-118000
M15
G01X140500Y-118700
M16
G05
T8
G00X116300Y-112500
M15
G01X116300Y-110500
M16
G05
G00X120000Y-108500
M15
G01X122000Y-108500
M16
G05
G00X120000Y-114500
M15
G01X122000Y-114500
M16
G05
T0
M30
