%TF.GenerationSoftware,KiCad,Pcbnew,5.1.6-c6e7f7d~87~ubuntu18.04.1*%
%TF.CreationDate,2020-08-14T14:10:33+02:00*%
%TF.ProjectId,BikeCommunicator,42696b65-436f-46d6-9d75-6e696361746f,rev?*%
%TF.SameCoordinates,Original*%
%TF.FileFunction,Copper,L2,Bot*%
%TF.FilePolarity,Positive*%
%FSLAX46Y46*%
G04 Gerber Fmt 4.6, Leading zero omitted, Abs format (unit mm)*
G04 Created by KiCad (PCBNEW 5.1.6-c6e7f7d~87~ubuntu18.04.1) date 2020-08-14 14:10:33*
%MOMM*%
%LPD*%
G01*
G04 APERTURE LIST*
%TA.AperFunction,ComponentPad*%
%ADD10C,1.500000*%
%TD*%
%TA.AperFunction,ComponentPad*%
%ADD11R,3.500000X3.500000*%
%TD*%
%TA.AperFunction,ComponentPad*%
%ADD12C,0.800000*%
%TD*%
%TA.AperFunction,ComponentPad*%
%ADD13C,6.400000*%
%TD*%
%TA.AperFunction,ComponentPad*%
%ADD14O,1.800000X1.800000*%
%TD*%
%TA.AperFunction,ComponentPad*%
%ADD15R,1.800000X1.800000*%
%TD*%
%TA.AperFunction,ComponentPad*%
%ADD16C,2.499360*%
%TD*%
%TA.AperFunction,ComponentPad*%
%ADD17R,2.499360X2.499360*%
%TD*%
%TA.AperFunction,ComponentPad*%
%ADD18C,1.400000*%
%TD*%
%TA.AperFunction,ComponentPad*%
%ADD19R,1.400000X1.400000*%
%TD*%
%TA.AperFunction,SMDPad,CuDef*%
%ADD20R,1.200000X1.900000*%
%TD*%
%TA.AperFunction,ComponentPad*%
%ADD21O,1.200000X1.900000*%
%TD*%
%TA.AperFunction,SMDPad,CuDef*%
%ADD22R,1.500000X1.900000*%
%TD*%
%TA.AperFunction,ComponentPad*%
%ADD23C,1.450000*%
%TD*%
%TA.AperFunction,SMDPad,CuDef*%
%ADD24R,0.400000X1.350000*%
%TD*%
%TA.AperFunction,ComponentPad*%
%ADD25C,1.524000*%
%TD*%
%TA.AperFunction,ComponentPad*%
%ADD26C,2.200000*%
%TD*%
%TA.AperFunction,ComponentPad*%
%ADD27O,1.600000X1.600000*%
%TD*%
%TA.AperFunction,ComponentPad*%
%ADD28C,1.600000*%
%TD*%
%TA.AperFunction,ViaPad*%
%ADD29C,0.800000*%
%TD*%
%TA.AperFunction,Conductor*%
%ADD30C,0.250000*%
%TD*%
%TA.AperFunction,Conductor*%
%ADD31C,0.254000*%
%TD*%
G04 APERTURE END LIST*
D10*
%TO.P,U2,24*%
%TO.N,/LED3*%
X133270000Y-87651000D03*
%TO.P,U2,23*%
%TO.N,/LED4*%
X130730000Y-87651000D03*
%TO.P,U2,11*%
%TO.N,Net-(U2-Pad11)*%
X121890000Y-70252000D03*
%TO.P,U2,12*%
%TO.N,Net-(U2-Pad12)*%
X142110000Y-70252000D03*
%TO.P,U2,10*%
%TO.N,/LED1*%
X121890000Y-72792000D03*
%TO.P,U2,13*%
%TO.N,/BTN2*%
X142110000Y-72792000D03*
%TO.P,U2,9*%
%TO.N,/LED2*%
X121890000Y-75332000D03*
%TO.P,U2,14*%
%TO.N,/BTN3*%
X142110000Y-75332000D03*
%TO.P,U2,8*%
%TO.N,/BTN1*%
X121890000Y-77872000D03*
%TO.P,U2,15*%
%TO.N,/BTN4*%
X142110000Y-77872000D03*
%TO.P,U2,7*%
%TO.N,Net-(U2-Pad7)*%
X121890000Y-80412000D03*
%TO.P,U2,16*%
%TO.N,Net-(U2-Pad16)*%
X142110000Y-80412000D03*
%TO.P,U2,6*%
%TO.N,Net-(U2-Pad6)*%
X121890000Y-82952000D03*
%TO.P,U2,17*%
%TO.N,Net-(U2-Pad17)*%
X142110000Y-82952000D03*
%TO.P,U2,5*%
%TO.N,-BATT*%
X121890000Y-85492000D03*
%TO.P,U2,18*%
%TO.N,Net-(U2-Pad18)*%
X142110000Y-85492000D03*
%TO.P,U2,4*%
%TO.N,Net-(U2-Pad4)*%
X121890000Y-88032000D03*
%TO.P,U2,19*%
%TO.N,Net-(U2-Pad19)*%
X142110000Y-88032000D03*
%TO.P,U2,3*%
%TO.N,+3V3*%
X121890000Y-90572000D03*
%TO.P,U2,20*%
%TO.N,Net-(U2-Pad20)*%
X142110000Y-90572000D03*
%TO.P,U2,2*%
%TO.N,Net-(U2-Pad2)*%
X121890000Y-93112000D03*
%TO.P,U2,21*%
%TO.N,+5V*%
X142110000Y-93112000D03*
%TO.P,U2,1*%
%TO.N,-BATT*%
X121890000Y-95652000D03*
%TO.P,U2,22*%
X142110000Y-95652000D03*
%TD*%
D11*
%TO.P,J1,3*%
%TO.N,Net-(J1-Pad3)*%
X116300000Y-111500000D03*
%TO.P,J1,2*%
%TO.N,-BATT*%
X121000000Y-114500000D03*
%TO.P,J1,1*%
%TO.N,Net-(D1-Pad2)*%
X121000000Y-108500000D03*
%TD*%
D12*
%TO.P,H4,1*%
%TO.N,-BATT*%
X146697056Y-113302944D03*
X145000000Y-112600000D03*
X143302944Y-113302944D03*
X142600000Y-115000000D03*
X143302944Y-116697056D03*
X145000000Y-117400000D03*
X146697056Y-116697056D03*
X147400000Y-115000000D03*
D13*
X145000000Y-115000000D03*
%TD*%
D12*
%TO.P,H3,1*%
%TO.N,-BATT*%
X96697056Y-113302944D03*
X95000000Y-112600000D03*
X93302944Y-113302944D03*
X92600000Y-115000000D03*
X93302944Y-116697056D03*
X95000000Y-117400000D03*
X96697056Y-116697056D03*
X97400000Y-115000000D03*
D13*
X95000000Y-115000000D03*
%TD*%
D12*
%TO.P,H2,1*%
%TO.N,-BATT*%
X146697056Y-63302944D03*
X145000000Y-62600000D03*
X143302944Y-63302944D03*
X142600000Y-65000000D03*
X143302944Y-66697056D03*
X145000000Y-67400000D03*
X146697056Y-66697056D03*
X147400000Y-65000000D03*
D13*
X145000000Y-65000000D03*
%TD*%
D12*
%TO.P,H1,1*%
%TO.N,-BATT*%
X96697056Y-63302944D03*
X95000000Y-62600000D03*
X93302944Y-63302944D03*
X92600000Y-65000000D03*
X93302944Y-66697056D03*
X95000000Y-67400000D03*
X96697056Y-66697056D03*
X97400000Y-65000000D03*
D13*
X95000000Y-65000000D03*
%TD*%
D14*
%TO.P,D2,2*%
%TO.N,Net-(D2-Pad2)*%
X146062700Y-109664500D03*
D15*
%TO.P,D2,1*%
%TO.N,+5V*%
X146062700Y-102044500D03*
%TD*%
D16*
%TO.P,BT1,1*%
%TO.N,Net-(BT1-Pad1)*%
X121221500Y-62865000D03*
D17*
%TO.P,BT1,2*%
%TO.N,-BATT*%
X117411500Y-62865000D03*
%TD*%
D16*
%TO.P,J4,2*%
%TO.N,+BATT*%
X136664700Y-67475100D03*
D17*
%TO.P,J4,1*%
%TO.N,-BATT*%
X132854700Y-67475100D03*
%TD*%
D16*
%TO.P,J3,4*%
%TO.N,-BATT*%
X139382500Y-111252000D03*
%TO.P,J3,3*%
%TO.N,/USBD-*%
X135572500Y-111252000D03*
%TO.P,J3,2*%
%TO.N,/USBD+*%
X131762500Y-111252000D03*
D17*
%TO.P,J3,1*%
%TO.N,+5V*%
X127952500Y-111252000D03*
%TD*%
D18*
%TO.P,SW5,6*%
%TO.N,Net-(SW5-Pad6)*%
X109013000Y-62740000D03*
%TO.P,SW5,5*%
%TO.N,Net-(SW5-Pad5)*%
X106513000Y-62740000D03*
%TO.P,SW5,4*%
%TO.N,+5V*%
X104013000Y-62740000D03*
%TO.P,SW5,3*%
%TO.N,Net-(SW5-Pad3)*%
X109013000Y-66040000D03*
%TO.P,SW5,2*%
%TO.N,Net-(BT1-Pad1)*%
X106513000Y-66040000D03*
D19*
%TO.P,SW5,1*%
%TO.N,+BATT*%
X104013000Y-66040000D03*
%TD*%
D20*
%TO.P,J2,6*%
%TO.N,-BATT*%
X139900000Y-118350000D03*
X134100000Y-118350000D03*
D21*
X133500000Y-118350000D03*
X140500000Y-118350000D03*
D22*
X138000000Y-118350000D03*
D23*
X134500000Y-115650000D03*
D24*
%TO.P,J2,3*%
%TO.N,/USBD+*%
X137000000Y-115650000D03*
%TO.P,J2,4*%
%TO.N,Net-(J2-Pad4)*%
X136350000Y-115650000D03*
%TO.P,J2,5*%
%TO.N,-BATT*%
X135700000Y-115650000D03*
%TO.P,J2,1*%
%TO.N,Net-(D2-Pad2)*%
X138300000Y-115650000D03*
%TO.P,J2,2*%
%TO.N,/USBD-*%
X137650000Y-115650000D03*
D23*
%TO.P,J2,6*%
%TO.N,-BATT*%
X139500000Y-115650000D03*
D22*
X136000000Y-118350000D03*
%TD*%
D14*
%TO.P,D1,2*%
%TO.N,Net-(D1-Pad2)*%
X118808500Y-104965500D03*
D15*
%TO.P,D1,1*%
%TO.N,+12V*%
X118808500Y-97345500D03*
%TD*%
D25*
%TO.P,SW4,4*%
%TO.N,Net-(R6-Pad1)*%
X131730000Y-108080000D03*
%TO.P,SW4,3*%
%TO.N,-BATT*%
X134270000Y-108080000D03*
D26*
%TO.P,SW4,2*%
%TO.N,/BTN4*%
X129190000Y-100460000D03*
%TO.P,SW4,1*%
%TO.N,-BATT*%
X135540000Y-97920000D03*
%TD*%
D25*
%TO.P,SW3,4*%
%TO.N,Net-(R5-Pad1)*%
X105730000Y-108080000D03*
%TO.P,SW3,3*%
%TO.N,-BATT*%
X108270000Y-108080000D03*
D26*
%TO.P,SW3,2*%
%TO.N,/BTN3*%
X103190000Y-100460000D03*
%TO.P,SW3,1*%
%TO.N,-BATT*%
X109540000Y-97920000D03*
%TD*%
D25*
%TO.P,SW2,4*%
%TO.N,Net-(R2-Pad1)*%
X131730000Y-82080000D03*
%TO.P,SW2,3*%
%TO.N,-BATT*%
X134270000Y-82080000D03*
D26*
%TO.P,SW2,2*%
%TO.N,/BTN2*%
X129190000Y-74460000D03*
%TO.P,SW2,1*%
%TO.N,-BATT*%
X135540000Y-71920000D03*
%TD*%
D25*
%TO.P,SW1,4*%
%TO.N,Net-(R1-Pad1)*%
X105730000Y-82080000D03*
%TO.P,SW1,3*%
%TO.N,-BATT*%
X108270000Y-82080000D03*
D26*
%TO.P,SW1,2*%
%TO.N,/BTN1*%
X103190000Y-74460000D03*
%TO.P,SW1,1*%
%TO.N,-BATT*%
X109540000Y-71920000D03*
%TD*%
D25*
%TO.P,U1,5*%
%TO.N,-BATT*%
X94946500Y-105434500D03*
%TO.P,U1,4*%
%TO.N,Net-(SW5-Pad5)*%
X92406500Y-105434500D03*
%TO.P,U1,3*%
%TO.N,Net-(U1-Pad3)*%
X109371500Y-88419500D03*
%TO.P,U1,2*%
%TO.N,-BATT*%
X106831500Y-88419500D03*
%TO.P,U1,1*%
%TO.N,+12V*%
X104291500Y-88419500D03*
%TD*%
D27*
%TO.P,R8,2*%
%TO.N,/BTN4*%
X124206000Y-100457000D03*
D28*
%TO.P,R8,1*%
%TO.N,+3V3*%
X124206000Y-92837000D03*
%TD*%
D27*
%TO.P,R7,2*%
%TO.N,/BTN3*%
X98171000Y-100457000D03*
D28*
%TO.P,R7,1*%
%TO.N,+3V3*%
X98171000Y-92837000D03*
%TD*%
D27*
%TO.P,R6,2*%
%TO.N,/LED4*%
X129476500Y-90233500D03*
D28*
%TO.P,R6,1*%
%TO.N,Net-(R6-Pad1)*%
X137096500Y-90233500D03*
%TD*%
D27*
%TO.P,R5,2*%
%TO.N,/LED3*%
X113157000Y-111823500D03*
D28*
%TO.P,R5,1*%
%TO.N,Net-(R5-Pad1)*%
X105537000Y-111823500D03*
%TD*%
D27*
%TO.P,R4,2*%
%TO.N,/BTN2*%
X124206000Y-74485500D03*
D28*
%TO.P,R4,1*%
%TO.N,+3V3*%
X124206000Y-82105500D03*
%TD*%
D27*
%TO.P,R3,2*%
%TO.N,/BTN1*%
X98171000Y-74485500D03*
D28*
%TO.P,R3,1*%
%TO.N,+3V3*%
X98171000Y-82105500D03*
%TD*%
D27*
%TO.P,R2,2*%
%TO.N,/LED2*%
X121880000Y-67500000D03*
D28*
%TO.P,R2,1*%
%TO.N,Net-(R2-Pad1)*%
X129500000Y-67500000D03*
%TD*%
D27*
%TO.P,R1,2*%
%TO.N,/LED1*%
X113347500Y-85852000D03*
D28*
%TO.P,R1,1*%
%TO.N,Net-(R1-Pad1)*%
X105727500Y-85852000D03*
%TD*%
D29*
%TO.N,/LED1*%
X119837200Y-77393800D03*
%TO.N,/LED3*%
X114046000Y-99504500D03*
%TD*%
D30*
%TO.N,/LED1*%
X119837200Y-77384800D02*
X119837200Y-77393800D01*
X119837200Y-74844800D02*
X121890000Y-72792000D01*
X119837200Y-77393800D02*
X119837200Y-74844800D01*
%TO.N,/BTN2*%
X140442000Y-74460000D02*
X141791795Y-73110205D01*
X129190000Y-74460000D02*
X140442000Y-74460000D01*
%TO.N,/LED3*%
X114046000Y-110934500D02*
X114046000Y-99504500D01*
X113157000Y-111823500D02*
X114046000Y-110934500D01*
%TO.N,+5V*%
X146062700Y-97064700D02*
X142110000Y-93112000D01*
X146062700Y-102044500D02*
X146062700Y-97064700D01*
%TO.N,-BATT*%
X134500000Y-115650000D02*
X135700000Y-115650000D01*
X94221300Y-62979300D02*
X92406500Y-64794100D01*
X145059400Y-114071400D02*
X146062700Y-115074700D01*
%TO.N,Net-(BT1-Pad1)*%
X117465999Y-67065001D02*
X121094500Y-63436500D01*
X107538001Y-67065001D02*
X117465999Y-67065001D01*
X106513000Y-66040000D02*
X107538001Y-67065001D01*
%TO.N,Net-(SW5-Pad5)*%
X92406500Y-105434500D02*
X92406500Y-74281000D01*
X92406500Y-74281000D02*
X102298500Y-64389000D01*
X104864000Y-64389000D02*
X106513000Y-62740000D01*
X102298500Y-64389000D02*
X104864000Y-64389000D01*
%TO.N,/USBD+*%
X133337181Y-112826681D02*
X131762500Y-111252000D01*
X135101681Y-112826681D02*
X133337181Y-112826681D01*
X137000000Y-114725000D02*
X135101681Y-112826681D01*
X137000000Y-115650000D02*
X137000000Y-114725000D01*
%TO.N,/USBD-*%
X137650000Y-113329500D02*
X137650000Y-115650000D01*
X135572500Y-111252000D02*
X137650000Y-113329500D01*
%TO.N,Net-(D2-Pad2)*%
X143360500Y-109664500D02*
X146062700Y-109664500D01*
X138300000Y-114725000D02*
X143360500Y-109664500D01*
X138300000Y-115650000D02*
X138300000Y-114725000D01*
%TD*%
D31*
%TO.N,-BATT*%
G36*
X143936842Y-60731439D02*
G01*
X144853106Y-60938769D01*
X145521379Y-61198646D01*
X145024305Y-61146520D01*
X144272062Y-61215822D01*
X143547792Y-61430548D01*
X142879330Y-61782445D01*
X142838912Y-61809452D01*
X142478724Y-62299119D01*
X145000000Y-64820395D01*
X145014143Y-64806253D01*
X145193748Y-64985858D01*
X145179605Y-65000000D01*
X147700881Y-67521276D01*
X148190548Y-67161088D01*
X148550849Y-66497118D01*
X148774694Y-65775615D01*
X148853480Y-65024305D01*
X148802994Y-64476299D01*
X148876659Y-64625677D01*
X149163054Y-65520376D01*
X149315689Y-66457579D01*
X149340001Y-67014427D01*
X149340000Y-112975512D01*
X149268561Y-113936841D01*
X149061231Y-114853106D01*
X148801354Y-115521379D01*
X148853480Y-115024305D01*
X148784178Y-114272062D01*
X148569452Y-113547792D01*
X148217555Y-112879330D01*
X148190548Y-112838912D01*
X147700881Y-112478724D01*
X145179605Y-115000000D01*
X145193748Y-115014143D01*
X145014143Y-115193748D01*
X145000000Y-115179605D01*
X142478724Y-117700881D01*
X142838912Y-118190548D01*
X143502882Y-118550849D01*
X144224385Y-118774694D01*
X144975695Y-118853480D01*
X145523701Y-118802994D01*
X145374323Y-118876659D01*
X144479624Y-119163054D01*
X143542414Y-119315689D01*
X142985595Y-119340000D01*
X141558633Y-119340000D01*
X141592390Y-119289946D01*
X141686493Y-119065496D01*
X141735000Y-118827000D01*
X141735000Y-118477000D01*
X138127000Y-118477000D01*
X138127000Y-118497000D01*
X137873000Y-118497000D01*
X137873000Y-118477000D01*
X136127000Y-118477000D01*
X136127000Y-118497000D01*
X135873000Y-118497000D01*
X135873000Y-118477000D01*
X132265000Y-118477000D01*
X132265000Y-118827000D01*
X132313507Y-119065496D01*
X132407610Y-119289946D01*
X132441367Y-119340000D01*
X97024488Y-119340000D01*
X96063159Y-119268561D01*
X95146894Y-119061231D01*
X94478621Y-118801354D01*
X94975695Y-118853480D01*
X95727938Y-118784178D01*
X96452208Y-118569452D01*
X97120670Y-118217555D01*
X97161088Y-118190548D01*
X97521276Y-117700881D01*
X95000000Y-115179605D01*
X94985858Y-115193748D01*
X94806253Y-115014143D01*
X94820395Y-115000000D01*
X95179605Y-115000000D01*
X97700881Y-117521276D01*
X98190548Y-117161088D01*
X98550849Y-116497118D01*
X98627516Y-116250000D01*
X118611928Y-116250000D01*
X118624188Y-116374482D01*
X118660498Y-116494180D01*
X118719463Y-116604494D01*
X118798815Y-116701185D01*
X118895506Y-116780537D01*
X119005820Y-116839502D01*
X119125518Y-116875812D01*
X119250000Y-116888072D01*
X120714250Y-116885000D01*
X120873000Y-116726250D01*
X120873000Y-114627000D01*
X121127000Y-114627000D01*
X121127000Y-116726250D01*
X121285750Y-116885000D01*
X122750000Y-116888072D01*
X122874482Y-116875812D01*
X122994180Y-116839502D01*
X123104494Y-116780537D01*
X123201185Y-116701185D01*
X123280537Y-116604494D01*
X123339502Y-116494180D01*
X123375812Y-116374482D01*
X123388072Y-116250000D01*
X123385000Y-114785750D01*
X123226250Y-114627000D01*
X121127000Y-114627000D01*
X120873000Y-114627000D01*
X118773750Y-114627000D01*
X118615000Y-114785750D01*
X118611928Y-116250000D01*
X98627516Y-116250000D01*
X98774694Y-115775615D01*
X98853480Y-115024305D01*
X98784178Y-114272062D01*
X98569452Y-113547792D01*
X98217555Y-112879330D01*
X98190548Y-112838912D01*
X97700881Y-112478724D01*
X95179605Y-115000000D01*
X94820395Y-115000000D01*
X92299119Y-112478724D01*
X91809452Y-112838912D01*
X91449151Y-113502882D01*
X91225306Y-114224385D01*
X91146520Y-114975695D01*
X91197006Y-115523701D01*
X91123341Y-115374323D01*
X90836946Y-114479624D01*
X90684311Y-113542414D01*
X90660000Y-112985595D01*
X90660000Y-112299119D01*
X92478724Y-112299119D01*
X95000000Y-114820395D01*
X97521276Y-112299119D01*
X97161088Y-111809452D01*
X96926521Y-111682165D01*
X104102000Y-111682165D01*
X104102000Y-111964835D01*
X104157147Y-112242074D01*
X104265320Y-112503227D01*
X104422363Y-112738259D01*
X104622241Y-112938137D01*
X104857273Y-113095180D01*
X105118426Y-113203353D01*
X105395665Y-113258500D01*
X105678335Y-113258500D01*
X105955574Y-113203353D01*
X106216727Y-113095180D01*
X106451759Y-112938137D01*
X106651637Y-112738259D01*
X106808680Y-112503227D01*
X106916853Y-112242074D01*
X106972000Y-111964835D01*
X106972000Y-111682165D01*
X106916853Y-111404926D01*
X106808680Y-111143773D01*
X106651637Y-110908741D01*
X106451759Y-110708863D01*
X106216727Y-110551820D01*
X105955574Y-110443647D01*
X105678335Y-110388500D01*
X105395665Y-110388500D01*
X105118426Y-110443647D01*
X104857273Y-110551820D01*
X104622241Y-110708863D01*
X104422363Y-110908741D01*
X104265320Y-111143773D01*
X104157147Y-111404926D01*
X104102000Y-111682165D01*
X96926521Y-111682165D01*
X96497118Y-111449151D01*
X95775615Y-111225306D01*
X95024305Y-111146520D01*
X94272062Y-111215822D01*
X93547792Y-111430548D01*
X92879330Y-111782445D01*
X92838912Y-111809452D01*
X92478724Y-112299119D01*
X90660000Y-112299119D01*
X90660000Y-107942408D01*
X104333000Y-107942408D01*
X104333000Y-108217592D01*
X104386686Y-108487490D01*
X104491995Y-108741727D01*
X104644880Y-108970535D01*
X104839465Y-109165120D01*
X105068273Y-109318005D01*
X105322510Y-109423314D01*
X105592408Y-109477000D01*
X105867592Y-109477000D01*
X106137490Y-109423314D01*
X106391727Y-109318005D01*
X106620535Y-109165120D01*
X106740090Y-109045565D01*
X107484040Y-109045565D01*
X107551020Y-109285656D01*
X107800048Y-109402756D01*
X108067135Y-109469023D01*
X108342017Y-109481910D01*
X108614133Y-109440922D01*
X108873023Y-109347636D01*
X108988980Y-109285656D01*
X109055960Y-109045565D01*
X108270000Y-108259605D01*
X107484040Y-109045565D01*
X106740090Y-109045565D01*
X106815120Y-108970535D01*
X106968005Y-108741727D01*
X106997692Y-108670057D01*
X107002364Y-108683023D01*
X107064344Y-108798980D01*
X107304435Y-108865960D01*
X108090395Y-108080000D01*
X108449605Y-108080000D01*
X109235565Y-108865960D01*
X109475656Y-108798980D01*
X109592756Y-108549952D01*
X109659023Y-108282865D01*
X109671910Y-108007983D01*
X109630922Y-107735867D01*
X109537636Y-107476977D01*
X109475656Y-107361020D01*
X109235565Y-107294040D01*
X108449605Y-108080000D01*
X108090395Y-108080000D01*
X107304435Y-107294040D01*
X107064344Y-107361020D01*
X107000515Y-107496760D01*
X106968005Y-107418273D01*
X106815120Y-107189465D01*
X106740090Y-107114435D01*
X107484040Y-107114435D01*
X108270000Y-107900395D01*
X109055960Y-107114435D01*
X108988980Y-106874344D01*
X108739952Y-106757244D01*
X108472865Y-106690977D01*
X108197983Y-106678090D01*
X107925867Y-106719078D01*
X107666977Y-106812364D01*
X107551020Y-106874344D01*
X107484040Y-107114435D01*
X106740090Y-107114435D01*
X106620535Y-106994880D01*
X106391727Y-106841995D01*
X106137490Y-106736686D01*
X105867592Y-106683000D01*
X105592408Y-106683000D01*
X105322510Y-106736686D01*
X105068273Y-106841995D01*
X104839465Y-106994880D01*
X104644880Y-107189465D01*
X104491995Y-107418273D01*
X104386686Y-107672510D01*
X104333000Y-107942408D01*
X90660000Y-107942408D01*
X90660000Y-105296908D01*
X91009500Y-105296908D01*
X91009500Y-105572092D01*
X91063186Y-105841990D01*
X91168495Y-106096227D01*
X91321380Y-106325035D01*
X91515965Y-106519620D01*
X91744773Y-106672505D01*
X91999010Y-106777814D01*
X92268908Y-106831500D01*
X92544092Y-106831500D01*
X92813990Y-106777814D01*
X93068227Y-106672505D01*
X93297035Y-106519620D01*
X93416590Y-106400065D01*
X94160540Y-106400065D01*
X94227520Y-106640156D01*
X94476548Y-106757256D01*
X94743635Y-106823523D01*
X95018517Y-106836410D01*
X95290633Y-106795422D01*
X95549523Y-106702136D01*
X95665480Y-106640156D01*
X95732460Y-106400065D01*
X94946500Y-105614105D01*
X94160540Y-106400065D01*
X93416590Y-106400065D01*
X93491620Y-106325035D01*
X93644505Y-106096227D01*
X93674192Y-106024557D01*
X93678864Y-106037523D01*
X93740844Y-106153480D01*
X93980935Y-106220460D01*
X94766895Y-105434500D01*
X95126105Y-105434500D01*
X95912065Y-106220460D01*
X96152156Y-106153480D01*
X96269256Y-105904452D01*
X96335523Y-105637365D01*
X96348410Y-105362483D01*
X96307422Y-105090367D01*
X96214136Y-104831477D01*
X96152156Y-104715520D01*
X95912065Y-104648540D01*
X95126105Y-105434500D01*
X94766895Y-105434500D01*
X93980935Y-104648540D01*
X93740844Y-104715520D01*
X93677015Y-104851260D01*
X93644505Y-104772773D01*
X93491620Y-104543965D01*
X93416590Y-104468935D01*
X94160540Y-104468935D01*
X94946500Y-105254895D01*
X95732460Y-104468935D01*
X95665480Y-104228844D01*
X95416452Y-104111744D01*
X95149365Y-104045477D01*
X94874483Y-104032590D01*
X94602367Y-104073578D01*
X94343477Y-104166864D01*
X94227520Y-104228844D01*
X94160540Y-104468935D01*
X93416590Y-104468935D01*
X93297035Y-104349380D01*
X93166500Y-104262159D01*
X93166500Y-102853740D01*
X100435000Y-102853740D01*
X100435000Y-103146260D01*
X100492068Y-103433158D01*
X100604010Y-103703411D01*
X100766525Y-103946632D01*
X100973368Y-104153475D01*
X101216589Y-104315990D01*
X101486842Y-104427932D01*
X101773740Y-104485000D01*
X102066260Y-104485000D01*
X102353158Y-104427932D01*
X102623411Y-104315990D01*
X102866632Y-104153475D01*
X103073475Y-103946632D01*
X103235990Y-103703411D01*
X103347932Y-103433158D01*
X103405000Y-103146260D01*
X103405000Y-102853740D01*
X103382471Y-102740475D01*
X104365000Y-102740475D01*
X104365000Y-103259525D01*
X104466261Y-103768601D01*
X104664893Y-104248141D01*
X104953262Y-104679715D01*
X105320285Y-105046738D01*
X105751859Y-105335107D01*
X106231399Y-105533739D01*
X106740475Y-105635000D01*
X107259525Y-105635000D01*
X107768601Y-105533739D01*
X108248141Y-105335107D01*
X108679715Y-105046738D01*
X109046738Y-104679715D01*
X109335107Y-104248141D01*
X109533739Y-103768601D01*
X109635000Y-103259525D01*
X109635000Y-102853740D01*
X110595000Y-102853740D01*
X110595000Y-103146260D01*
X110652068Y-103433158D01*
X110764010Y-103703411D01*
X110926525Y-103946632D01*
X111133368Y-104153475D01*
X111376589Y-104315990D01*
X111646842Y-104427932D01*
X111933740Y-104485000D01*
X112226260Y-104485000D01*
X112513158Y-104427932D01*
X112783411Y-104315990D01*
X113026632Y-104153475D01*
X113233475Y-103946632D01*
X113286001Y-103868022D01*
X113286000Y-110388500D01*
X113015665Y-110388500D01*
X112738426Y-110443647D01*
X112477273Y-110551820D01*
X112242241Y-110708863D01*
X112042363Y-110908741D01*
X111885320Y-111143773D01*
X111777147Y-111404926D01*
X111722000Y-111682165D01*
X111722000Y-111964835D01*
X111777147Y-112242074D01*
X111885320Y-112503227D01*
X112042363Y-112738259D01*
X112242241Y-112938137D01*
X112477273Y-113095180D01*
X112738426Y-113203353D01*
X113015665Y-113258500D01*
X113298335Y-113258500D01*
X113575574Y-113203353D01*
X113836727Y-113095180D01*
X113911928Y-113044932D01*
X113911928Y-113250000D01*
X113924188Y-113374482D01*
X113960498Y-113494180D01*
X114019463Y-113604494D01*
X114098815Y-113701185D01*
X114195506Y-113780537D01*
X114305820Y-113839502D01*
X114425518Y-113875812D01*
X114550000Y-113888072D01*
X118050000Y-113888072D01*
X118174482Y-113875812D01*
X118294180Y-113839502D01*
X118404494Y-113780537D01*
X118501185Y-113701185D01*
X118580537Y-113604494D01*
X118613591Y-113542655D01*
X118615000Y-114214250D01*
X118773750Y-114373000D01*
X120873000Y-114373000D01*
X120873000Y-112273750D01*
X121127000Y-112273750D01*
X121127000Y-114373000D01*
X123226250Y-114373000D01*
X123385000Y-114214250D01*
X123388072Y-112750000D01*
X123375812Y-112625518D01*
X123339502Y-112505820D01*
X123280537Y-112395506D01*
X123201185Y-112298815D01*
X123104494Y-112219463D01*
X122994180Y-112160498D01*
X122874482Y-112124188D01*
X122750000Y-112111928D01*
X121285750Y-112115000D01*
X121127000Y-112273750D01*
X120873000Y-112273750D01*
X120714250Y-112115000D01*
X119250000Y-112111928D01*
X119125518Y-112124188D01*
X119005820Y-112160498D01*
X118895506Y-112219463D01*
X118798815Y-112298815D01*
X118719463Y-112395506D01*
X118688072Y-112454233D01*
X118688072Y-110545767D01*
X118719463Y-110604494D01*
X118798815Y-110701185D01*
X118895506Y-110780537D01*
X119005820Y-110839502D01*
X119125518Y-110875812D01*
X119250000Y-110888072D01*
X122750000Y-110888072D01*
X122874482Y-110875812D01*
X122994180Y-110839502D01*
X123104494Y-110780537D01*
X123201185Y-110701185D01*
X123280537Y-110604494D01*
X123339502Y-110494180D01*
X123375812Y-110374482D01*
X123388072Y-110250000D01*
X123388072Y-110002320D01*
X126064748Y-110002320D01*
X126064748Y-112501680D01*
X126077008Y-112626162D01*
X126113318Y-112745860D01*
X126172283Y-112856174D01*
X126251635Y-112952865D01*
X126348326Y-113032217D01*
X126458640Y-113091182D01*
X126578338Y-113127492D01*
X126702820Y-113139752D01*
X129202180Y-113139752D01*
X129326662Y-113127492D01*
X129446360Y-113091182D01*
X129556674Y-113032217D01*
X129653365Y-112952865D01*
X129732717Y-112856174D01*
X129791682Y-112745860D01*
X129827992Y-112626162D01*
X129840252Y-112501680D01*
X129840252Y-111066375D01*
X129877820Y-111066375D01*
X129877820Y-111437625D01*
X129950247Y-111801741D01*
X130092318Y-112144731D01*
X130298574Y-112453413D01*
X130561087Y-112715926D01*
X130869769Y-112922182D01*
X131212759Y-113064253D01*
X131576875Y-113136680D01*
X131948125Y-113136680D01*
X132312241Y-113064253D01*
X132444972Y-113009274D01*
X132773381Y-113337683D01*
X132797180Y-113366682D01*
X132912905Y-113461655D01*
X133044934Y-113532227D01*
X133188195Y-113575684D01*
X133299848Y-113586681D01*
X133299857Y-113586681D01*
X133337180Y-113590357D01*
X133374503Y-113586681D01*
X134786880Y-113586681D01*
X135572998Y-114372800D01*
X135572998Y-114444748D01*
X135468250Y-114340000D01*
X135365526Y-114351259D01*
X135246424Y-114389479D01*
X135137067Y-114450200D01*
X135041657Y-114531088D01*
X134963861Y-114629036D01*
X134906669Y-114740279D01*
X134872278Y-114860543D01*
X134862010Y-114985205D01*
X134865000Y-115364250D01*
X135023750Y-115523000D01*
X135511928Y-115523000D01*
X135511928Y-115777000D01*
X135023750Y-115777000D01*
X134865000Y-115935750D01*
X134862010Y-116314795D01*
X134872278Y-116439457D01*
X134906669Y-116559721D01*
X134963861Y-116670964D01*
X135041657Y-116768912D01*
X135068339Y-116791533D01*
X135005820Y-116810498D01*
X134975000Y-116826972D01*
X134944180Y-116810498D01*
X134824482Y-116774188D01*
X134700000Y-116761928D01*
X134385750Y-116765000D01*
X134227000Y-116923750D01*
X134227000Y-116999537D01*
X134080533Y-116902579D01*
X133862690Y-116813440D01*
X133814250Y-116765000D01*
X133500000Y-116761928D01*
X133468808Y-116765000D01*
X133372998Y-116765000D01*
X133372998Y-116774952D01*
X133255820Y-116810498D01*
X133218735Y-116830321D01*
X133182391Y-116806538D01*
X133144718Y-116810409D01*
X132919467Y-116902579D01*
X132716526Y-117036922D01*
X132543693Y-117208275D01*
X132407610Y-117410054D01*
X132313507Y-117634504D01*
X132265000Y-117873000D01*
X132265000Y-118223000D01*
X135873000Y-118223000D01*
X135873000Y-118203000D01*
X136127000Y-118203000D01*
X136127000Y-118223000D01*
X137873000Y-118223000D01*
X137873000Y-118203000D01*
X138127000Y-118203000D01*
X138127000Y-118223000D01*
X141735000Y-118223000D01*
X141735000Y-117873000D01*
X141686493Y-117634504D01*
X141592390Y-117410054D01*
X141456307Y-117208275D01*
X141283474Y-117036922D01*
X141080533Y-116902579D01*
X140855282Y-116810409D01*
X140817609Y-116806538D01*
X140781265Y-116830321D01*
X140744180Y-116810498D01*
X140627002Y-116774952D01*
X140627002Y-116765000D01*
X140531192Y-116765000D01*
X140500000Y-116761928D01*
X140185750Y-116765000D01*
X140137310Y-116813440D01*
X139919467Y-116902579D01*
X139773000Y-116999537D01*
X139773000Y-116923750D01*
X139614250Y-116765000D01*
X139300000Y-116761928D01*
X139175518Y-116774188D01*
X139055820Y-116810498D01*
X139025000Y-116826972D01*
X138994180Y-116810498D01*
X138932261Y-116791715D01*
X138951185Y-116776185D01*
X139030537Y-116679494D01*
X139089502Y-116569180D01*
X139125812Y-116449482D01*
X139138072Y-116325000D01*
X139138072Y-114975695D01*
X141146520Y-114975695D01*
X141215822Y-115727938D01*
X141430548Y-116452208D01*
X141782445Y-117120670D01*
X141809452Y-117161088D01*
X142299119Y-117521276D01*
X144820395Y-115000000D01*
X142299119Y-112478724D01*
X141809452Y-112838912D01*
X141449151Y-113502882D01*
X141225306Y-114224385D01*
X141146520Y-114975695D01*
X139138072Y-114975695D01*
X139138072Y-114975000D01*
X139136882Y-114962919D01*
X141800682Y-112299119D01*
X142478724Y-112299119D01*
X145000000Y-114820395D01*
X147521276Y-112299119D01*
X147161088Y-111809452D01*
X146497118Y-111449151D01*
X145775615Y-111225306D01*
X145024305Y-111146520D01*
X144272062Y-111215822D01*
X143547792Y-111430548D01*
X142879330Y-111782445D01*
X142838912Y-111809452D01*
X142478724Y-112299119D01*
X141800682Y-112299119D01*
X143675302Y-110424500D01*
X144724387Y-110424500D01*
X144870388Y-110643005D01*
X145084195Y-110856812D01*
X145335605Y-111024799D01*
X145614957Y-111140511D01*
X145911516Y-111199500D01*
X146213884Y-111199500D01*
X146510443Y-111140511D01*
X146789795Y-111024799D01*
X147041205Y-110856812D01*
X147255012Y-110643005D01*
X147422999Y-110391595D01*
X147538711Y-110112243D01*
X147597700Y-109815684D01*
X147597700Y-109513316D01*
X147538711Y-109216757D01*
X147422999Y-108937405D01*
X147255012Y-108685995D01*
X147041205Y-108472188D01*
X146789795Y-108304201D01*
X146510443Y-108188489D01*
X146213884Y-108129500D01*
X145911516Y-108129500D01*
X145614957Y-108188489D01*
X145335605Y-108304201D01*
X145084195Y-108472188D01*
X144870388Y-108685995D01*
X144724387Y-108904500D01*
X143397825Y-108904500D01*
X143360500Y-108900824D01*
X143323175Y-108904500D01*
X143323167Y-108904500D01*
X143211514Y-108915497D01*
X143068253Y-108958954D01*
X142936224Y-109029526D01*
X142820499Y-109124499D01*
X142796701Y-109153497D01*
X141201442Y-110748756D01*
X141111289Y-110478849D01*
X140985815Y-110244104D01*
X140695877Y-110118229D01*
X139562105Y-111252000D01*
X139576248Y-111266143D01*
X139396643Y-111445748D01*
X139382500Y-111431605D01*
X138248729Y-112565377D01*
X138374604Y-112855315D01*
X138706762Y-113021139D01*
X138881361Y-113068838D01*
X138410000Y-113540199D01*
X138410000Y-113366825D01*
X138413676Y-113329500D01*
X138410000Y-113292175D01*
X138410000Y-113292167D01*
X138399003Y-113180514D01*
X138355546Y-113037253D01*
X138284974Y-112905224D01*
X138190001Y-112789499D01*
X138161004Y-112765702D01*
X137329774Y-111934472D01*
X137384753Y-111801741D01*
X137457180Y-111437625D01*
X137457180Y-111304719D01*
X137489435Y-111304719D01*
X137536095Y-111673025D01*
X137653711Y-112025151D01*
X137779185Y-112259896D01*
X138069123Y-112385771D01*
X139202895Y-111252000D01*
X138069123Y-110118229D01*
X137779185Y-110244104D01*
X137613361Y-110576262D01*
X137515525Y-110934387D01*
X137489435Y-111304719D01*
X137457180Y-111304719D01*
X137457180Y-111066375D01*
X137384753Y-110702259D01*
X137242682Y-110359269D01*
X137036426Y-110050587D01*
X136924462Y-109938623D01*
X138248729Y-109938623D01*
X139382500Y-111072395D01*
X140516271Y-109938623D01*
X140390396Y-109648685D01*
X140058238Y-109482861D01*
X139700113Y-109385025D01*
X139329781Y-109358935D01*
X138961475Y-109405595D01*
X138609349Y-109523211D01*
X138374604Y-109648685D01*
X138248729Y-109938623D01*
X136924462Y-109938623D01*
X136773913Y-109788074D01*
X136465231Y-109581818D01*
X136122241Y-109439747D01*
X135758125Y-109367320D01*
X135386875Y-109367320D01*
X135022759Y-109439747D01*
X134679769Y-109581818D01*
X134371087Y-109788074D01*
X134108574Y-110050587D01*
X133902318Y-110359269D01*
X133760247Y-110702259D01*
X133687820Y-111066375D01*
X133687820Y-111437625D01*
X133760247Y-111801741D01*
X133869989Y-112066681D01*
X133651983Y-112066681D01*
X133519774Y-111934472D01*
X133574753Y-111801741D01*
X133647180Y-111437625D01*
X133647180Y-111066375D01*
X133574753Y-110702259D01*
X133432682Y-110359269D01*
X133226426Y-110050587D01*
X132963913Y-109788074D01*
X132655231Y-109581818D01*
X132312241Y-109439747D01*
X132167381Y-109410933D01*
X132391727Y-109318005D01*
X132620535Y-109165120D01*
X132740090Y-109045565D01*
X133484040Y-109045565D01*
X133551020Y-109285656D01*
X133800048Y-109402756D01*
X134067135Y-109469023D01*
X134342017Y-109481910D01*
X134614133Y-109440922D01*
X134873023Y-109347636D01*
X134988980Y-109285656D01*
X135055960Y-109045565D01*
X134270000Y-108259605D01*
X133484040Y-109045565D01*
X132740090Y-109045565D01*
X132815120Y-108970535D01*
X132968005Y-108741727D01*
X132997692Y-108670057D01*
X133002364Y-108683023D01*
X133064344Y-108798980D01*
X133304435Y-108865960D01*
X134090395Y-108080000D01*
X134449605Y-108080000D01*
X135235565Y-108865960D01*
X135475656Y-108798980D01*
X135592756Y-108549952D01*
X135659023Y-108282865D01*
X135671910Y-108007983D01*
X135630922Y-107735867D01*
X135537636Y-107476977D01*
X135475656Y-107361020D01*
X135235565Y-107294040D01*
X134449605Y-108080000D01*
X134090395Y-108080000D01*
X133304435Y-107294040D01*
X133064344Y-107361020D01*
X133000515Y-107496760D01*
X132968005Y-107418273D01*
X132815120Y-107189465D01*
X132740090Y-107114435D01*
X133484040Y-107114435D01*
X134270000Y-107900395D01*
X135055960Y-107114435D01*
X134988980Y-106874344D01*
X134739952Y-106757244D01*
X134472865Y-106690977D01*
X134197983Y-106678090D01*
X133925867Y-106719078D01*
X133666977Y-106812364D01*
X133551020Y-106874344D01*
X133484040Y-107114435D01*
X132740090Y-107114435D01*
X132620535Y-106994880D01*
X132391727Y-106841995D01*
X132137490Y-106736686D01*
X131867592Y-106683000D01*
X131592408Y-106683000D01*
X131322510Y-106736686D01*
X131068273Y-106841995D01*
X130839465Y-106994880D01*
X130644880Y-107189465D01*
X130491995Y-107418273D01*
X130386686Y-107672510D01*
X130333000Y-107942408D01*
X130333000Y-108217592D01*
X130386686Y-108487490D01*
X130491995Y-108741727D01*
X130644880Y-108970535D01*
X130839465Y-109165120D01*
X131068273Y-109318005D01*
X131313706Y-109419667D01*
X131212759Y-109439747D01*
X130869769Y-109581818D01*
X130561087Y-109788074D01*
X130298574Y-110050587D01*
X130092318Y-110359269D01*
X129950247Y-110702259D01*
X129877820Y-111066375D01*
X129840252Y-111066375D01*
X129840252Y-110002320D01*
X129827992Y-109877838D01*
X129791682Y-109758140D01*
X129732717Y-109647826D01*
X129653365Y-109551135D01*
X129556674Y-109471783D01*
X129446360Y-109412818D01*
X129326662Y-109376508D01*
X129202180Y-109364248D01*
X126702820Y-109364248D01*
X126578338Y-109376508D01*
X126458640Y-109412818D01*
X126348326Y-109471783D01*
X126251635Y-109551135D01*
X126172283Y-109647826D01*
X126113318Y-109758140D01*
X126077008Y-109877838D01*
X126064748Y-110002320D01*
X123388072Y-110002320D01*
X123388072Y-106750000D01*
X123375812Y-106625518D01*
X123339502Y-106505820D01*
X123280537Y-106395506D01*
X123201185Y-106298815D01*
X123104494Y-106219463D01*
X122994180Y-106160498D01*
X122874482Y-106124188D01*
X122750000Y-106111928D01*
X119832889Y-106111928D01*
X120000812Y-105944005D01*
X120168799Y-105692595D01*
X120284511Y-105413243D01*
X120343500Y-105116684D01*
X120343500Y-104814316D01*
X120284511Y-104517757D01*
X120168799Y-104238405D01*
X120000812Y-103986995D01*
X119787005Y-103773188D01*
X119535595Y-103605201D01*
X119256243Y-103489489D01*
X118959684Y-103430500D01*
X118657316Y-103430500D01*
X118360757Y-103489489D01*
X118081405Y-103605201D01*
X117829995Y-103773188D01*
X117616188Y-103986995D01*
X117448201Y-104238405D01*
X117332489Y-104517757D01*
X117273500Y-104814316D01*
X117273500Y-105116684D01*
X117332489Y-105413243D01*
X117448201Y-105692595D01*
X117616188Y-105944005D01*
X117829995Y-106157812D01*
X118081405Y-106325799D01*
X118360757Y-106441511D01*
X118657316Y-106500500D01*
X118663342Y-106500500D01*
X118660498Y-106505820D01*
X118624188Y-106625518D01*
X118611928Y-106750000D01*
X118611928Y-109454233D01*
X118580537Y-109395506D01*
X118501185Y-109298815D01*
X118404494Y-109219463D01*
X118294180Y-109160498D01*
X118174482Y-109124188D01*
X118050000Y-109111928D01*
X114806000Y-109111928D01*
X114806000Y-102853740D01*
X126435000Y-102853740D01*
X126435000Y-103146260D01*
X126492068Y-103433158D01*
X126604010Y-103703411D01*
X126766525Y-103946632D01*
X126973368Y-104153475D01*
X127216589Y-104315990D01*
X127486842Y-104427932D01*
X127773740Y-104485000D01*
X128066260Y-104485000D01*
X128353158Y-104427932D01*
X128623411Y-104315990D01*
X128866632Y-104153475D01*
X129073475Y-103946632D01*
X129235990Y-103703411D01*
X129347932Y-103433158D01*
X129405000Y-103146260D01*
X129405000Y-102853740D01*
X129382471Y-102740475D01*
X130365000Y-102740475D01*
X130365000Y-103259525D01*
X130466261Y-103768601D01*
X130664893Y-104248141D01*
X130953262Y-104679715D01*
X131320285Y-105046738D01*
X131751859Y-105335107D01*
X132231399Y-105533739D01*
X132740475Y-105635000D01*
X133259525Y-105635000D01*
X133768601Y-105533739D01*
X134248141Y-105335107D01*
X134679715Y-105046738D01*
X135046738Y-104679715D01*
X135335107Y-104248141D01*
X135533739Y-103768601D01*
X135635000Y-103259525D01*
X135635000Y-102853740D01*
X136595000Y-102853740D01*
X136595000Y-103146260D01*
X136652068Y-103433158D01*
X136764010Y-103703411D01*
X136926525Y-103946632D01*
X137133368Y-104153475D01*
X137376589Y-104315990D01*
X137646842Y-104427932D01*
X137933740Y-104485000D01*
X138226260Y-104485000D01*
X138513158Y-104427932D01*
X138783411Y-104315990D01*
X139026632Y-104153475D01*
X139233475Y-103946632D01*
X139395990Y-103703411D01*
X139507932Y-103433158D01*
X139565000Y-103146260D01*
X139565000Y-102853740D01*
X139507932Y-102566842D01*
X139395990Y-102296589D01*
X139233475Y-102053368D01*
X139026632Y-101846525D01*
X138783411Y-101684010D01*
X138513158Y-101572068D01*
X138226260Y-101515000D01*
X137933740Y-101515000D01*
X137646842Y-101572068D01*
X137376589Y-101684010D01*
X137133368Y-101846525D01*
X136926525Y-102053368D01*
X136764010Y-102296589D01*
X136652068Y-102566842D01*
X136595000Y-102853740D01*
X135635000Y-102853740D01*
X135635000Y-102740475D01*
X135533739Y-102231399D01*
X135335107Y-101751859D01*
X135046738Y-101320285D01*
X134679715Y-100953262D01*
X134248141Y-100664893D01*
X133768601Y-100466261D01*
X133259525Y-100365000D01*
X132740475Y-100365000D01*
X132231399Y-100466261D01*
X131751859Y-100664893D01*
X131320285Y-100953262D01*
X130953262Y-101320285D01*
X130664893Y-101751859D01*
X130466261Y-102231399D01*
X130365000Y-102740475D01*
X129382471Y-102740475D01*
X129347932Y-102566842D01*
X129235990Y-102296589D01*
X129168110Y-102195000D01*
X129360883Y-102195000D01*
X129696081Y-102128325D01*
X130011831Y-101997537D01*
X130295998Y-101807663D01*
X130537663Y-101565998D01*
X130727537Y-101281831D01*
X130858325Y-100966081D01*
X130925000Y-100630883D01*
X130925000Y-100289117D01*
X130858325Y-99953919D01*
X130727537Y-99638169D01*
X130537663Y-99354002D01*
X130310373Y-99126712D01*
X134512893Y-99126712D01*
X134620726Y-99401338D01*
X134927384Y-99552216D01*
X135257585Y-99640369D01*
X135598639Y-99662409D01*
X135937439Y-99617489D01*
X136260966Y-99507336D01*
X136459274Y-99401338D01*
X136567107Y-99126712D01*
X135540000Y-98099605D01*
X134512893Y-99126712D01*
X130310373Y-99126712D01*
X130295998Y-99112337D01*
X130011831Y-98922463D01*
X129696081Y-98791675D01*
X129360883Y-98725000D01*
X129019117Y-98725000D01*
X128683919Y-98791675D01*
X128368169Y-98922463D01*
X128084002Y-99112337D01*
X127842337Y-99354002D01*
X127652463Y-99638169D01*
X127521675Y-99953919D01*
X127455000Y-100289117D01*
X127455000Y-100630883D01*
X127521675Y-100966081D01*
X127652463Y-101281831D01*
X127808261Y-101515000D01*
X127773740Y-101515000D01*
X127486842Y-101572068D01*
X127216589Y-101684010D01*
X126973368Y-101846525D01*
X126766525Y-102053368D01*
X126604010Y-102296589D01*
X126492068Y-102566842D01*
X126435000Y-102853740D01*
X114806000Y-102853740D01*
X114806000Y-100315665D01*
X122771000Y-100315665D01*
X122771000Y-100598335D01*
X122826147Y-100875574D01*
X122934320Y-101136727D01*
X123091363Y-101371759D01*
X123291241Y-101571637D01*
X123526273Y-101728680D01*
X123787426Y-101836853D01*
X124064665Y-101892000D01*
X124347335Y-101892000D01*
X124624574Y-101836853D01*
X124885727Y-101728680D01*
X125120759Y-101571637D01*
X125320637Y-101371759D01*
X125477680Y-101136727D01*
X125585853Y-100875574D01*
X125641000Y-100598335D01*
X125641000Y-100315665D01*
X125585853Y-100038426D01*
X125477680Y-99777273D01*
X125320637Y-99542241D01*
X125120759Y-99342363D01*
X124885727Y-99185320D01*
X124624574Y-99077147D01*
X124347335Y-99022000D01*
X124064665Y-99022000D01*
X123787426Y-99077147D01*
X123526273Y-99185320D01*
X123291241Y-99342363D01*
X123091363Y-99542241D01*
X122934320Y-99777273D01*
X122826147Y-100038426D01*
X122771000Y-100315665D01*
X114806000Y-100315665D01*
X114806000Y-100208211D01*
X114849937Y-100164274D01*
X114963205Y-99994756D01*
X115041226Y-99806398D01*
X115081000Y-99606439D01*
X115081000Y-99402561D01*
X115041226Y-99202602D01*
X114963205Y-99014244D01*
X114849937Y-98844726D01*
X114705774Y-98700563D01*
X114536256Y-98587295D01*
X114347898Y-98509274D01*
X114147939Y-98469500D01*
X113944061Y-98469500D01*
X113744102Y-98509274D01*
X113555744Y-98587295D01*
X113386226Y-98700563D01*
X113242063Y-98844726D01*
X113128795Y-99014244D01*
X113050774Y-99202602D01*
X113011000Y-99402561D01*
X113011000Y-99606439D01*
X113050774Y-99806398D01*
X113128795Y-99994756D01*
X113242063Y-100164274D01*
X113286001Y-100208212D01*
X113286001Y-102131978D01*
X113233475Y-102053368D01*
X113026632Y-101846525D01*
X112783411Y-101684010D01*
X112513158Y-101572068D01*
X112226260Y-101515000D01*
X111933740Y-101515000D01*
X111646842Y-101572068D01*
X111376589Y-101684010D01*
X111133368Y-101846525D01*
X110926525Y-102053368D01*
X110764010Y-102296589D01*
X110652068Y-102566842D01*
X110595000Y-102853740D01*
X109635000Y-102853740D01*
X109635000Y-102740475D01*
X109533739Y-102231399D01*
X109335107Y-101751859D01*
X109046738Y-101320285D01*
X108679715Y-100953262D01*
X108248141Y-100664893D01*
X107768601Y-100466261D01*
X107259525Y-100365000D01*
X106740475Y-100365000D01*
X106231399Y-100466261D01*
X105751859Y-100664893D01*
X105320285Y-100953262D01*
X104953262Y-101320285D01*
X104664893Y-101751859D01*
X104466261Y-102231399D01*
X104365000Y-102740475D01*
X103382471Y-102740475D01*
X103347932Y-102566842D01*
X103235990Y-102296589D01*
X103168110Y-102195000D01*
X103360883Y-102195000D01*
X103696081Y-102128325D01*
X104011831Y-101997537D01*
X104295998Y-101807663D01*
X104537663Y-101565998D01*
X104727537Y-101281831D01*
X104858325Y-100966081D01*
X104925000Y-100630883D01*
X104925000Y-100289117D01*
X104858325Y-99953919D01*
X104727537Y-99638169D01*
X104537663Y-99354002D01*
X104310373Y-99126712D01*
X108512893Y-99126712D01*
X108620726Y-99401338D01*
X108927384Y-99552216D01*
X109257585Y-99640369D01*
X109598639Y-99662409D01*
X109937439Y-99617489D01*
X110260966Y-99507336D01*
X110459274Y-99401338D01*
X110567107Y-99126712D01*
X109540000Y-98099605D01*
X108512893Y-99126712D01*
X104310373Y-99126712D01*
X104295998Y-99112337D01*
X104011831Y-98922463D01*
X103696081Y-98791675D01*
X103360883Y-98725000D01*
X103019117Y-98725000D01*
X102683919Y-98791675D01*
X102368169Y-98922463D01*
X102084002Y-99112337D01*
X101842337Y-99354002D01*
X101652463Y-99638169D01*
X101521675Y-99953919D01*
X101455000Y-100289117D01*
X101455000Y-100630883D01*
X101521675Y-100966081D01*
X101652463Y-101281831D01*
X101808261Y-101515000D01*
X101773740Y-101515000D01*
X101486842Y-101572068D01*
X101216589Y-101684010D01*
X100973368Y-101846525D01*
X100766525Y-102053368D01*
X100604010Y-102296589D01*
X100492068Y-102566842D01*
X100435000Y-102853740D01*
X93166500Y-102853740D01*
X93166500Y-100315665D01*
X96736000Y-100315665D01*
X96736000Y-100598335D01*
X96791147Y-100875574D01*
X96899320Y-101136727D01*
X97056363Y-101371759D01*
X97256241Y-101571637D01*
X97491273Y-101728680D01*
X97752426Y-101836853D01*
X98029665Y-101892000D01*
X98312335Y-101892000D01*
X98589574Y-101836853D01*
X98850727Y-101728680D01*
X99085759Y-101571637D01*
X99285637Y-101371759D01*
X99442680Y-101136727D01*
X99550853Y-100875574D01*
X99606000Y-100598335D01*
X99606000Y-100315665D01*
X99550853Y-100038426D01*
X99442680Y-99777273D01*
X99285637Y-99542241D01*
X99085759Y-99342363D01*
X98850727Y-99185320D01*
X98589574Y-99077147D01*
X98312335Y-99022000D01*
X98029665Y-99022000D01*
X97752426Y-99077147D01*
X97491273Y-99185320D01*
X97256241Y-99342363D01*
X97056363Y-99542241D01*
X96899320Y-99777273D01*
X96791147Y-100038426D01*
X96736000Y-100315665D01*
X93166500Y-100315665D01*
X93166500Y-97978639D01*
X107797591Y-97978639D01*
X107842511Y-98317439D01*
X107952664Y-98640966D01*
X108058662Y-98839274D01*
X108333288Y-98947107D01*
X109360395Y-97920000D01*
X109719605Y-97920000D01*
X110746712Y-98947107D01*
X111021338Y-98839274D01*
X111172216Y-98532616D01*
X111260369Y-98202415D01*
X111282409Y-97861361D01*
X111237489Y-97522561D01*
X111127336Y-97199034D01*
X111021338Y-97000726D01*
X110746712Y-96892893D01*
X109719605Y-97920000D01*
X109360395Y-97920000D01*
X108333288Y-96892893D01*
X108058662Y-97000726D01*
X107907784Y-97307384D01*
X107819631Y-97637585D01*
X107797591Y-97978639D01*
X93166500Y-97978639D01*
X93166500Y-96713288D01*
X108512893Y-96713288D01*
X109540000Y-97740395D01*
X110567107Y-96713288D01*
X110461959Y-96445500D01*
X117270428Y-96445500D01*
X117270428Y-98245500D01*
X117282688Y-98369982D01*
X117318998Y-98489680D01*
X117377963Y-98599994D01*
X117457315Y-98696685D01*
X117554006Y-98776037D01*
X117664320Y-98835002D01*
X117784018Y-98871312D01*
X117908500Y-98883572D01*
X119708500Y-98883572D01*
X119832982Y-98871312D01*
X119952680Y-98835002D01*
X120062994Y-98776037D01*
X120159685Y-98696685D01*
X120239037Y-98599994D01*
X120298002Y-98489680D01*
X120334312Y-98369982D01*
X120346572Y-98245500D01*
X120346572Y-97978639D01*
X133797591Y-97978639D01*
X133842511Y-98317439D01*
X133952664Y-98640966D01*
X134058662Y-98839274D01*
X134333288Y-98947107D01*
X135360395Y-97920000D01*
X135719605Y-97920000D01*
X136746712Y-98947107D01*
X137021338Y-98839274D01*
X137172216Y-98532616D01*
X137260369Y-98202415D01*
X137282409Y-97861361D01*
X137237489Y-97522561D01*
X137127336Y-97199034D01*
X137021338Y-97000726D01*
X136746712Y-96892893D01*
X135719605Y-97920000D01*
X135360395Y-97920000D01*
X134333288Y-96892893D01*
X134058662Y-97000726D01*
X133907784Y-97307384D01*
X133819631Y-97637585D01*
X133797591Y-97978639D01*
X120346572Y-97978639D01*
X120346572Y-96608993D01*
X121112612Y-96608993D01*
X121178137Y-96847860D01*
X121425116Y-96963760D01*
X121689960Y-97029250D01*
X121962492Y-97041812D01*
X122232238Y-97000965D01*
X122488832Y-96908277D01*
X122601863Y-96847860D01*
X122638778Y-96713288D01*
X134512893Y-96713288D01*
X135540000Y-97740395D01*
X136567107Y-96713288D01*
X136526156Y-96608993D01*
X141332612Y-96608993D01*
X141398137Y-96847860D01*
X141645116Y-96963760D01*
X141909960Y-97029250D01*
X142182492Y-97041812D01*
X142452238Y-97000965D01*
X142708832Y-96908277D01*
X142821863Y-96847860D01*
X142887388Y-96608993D01*
X142110000Y-95831605D01*
X141332612Y-96608993D01*
X136526156Y-96608993D01*
X136459274Y-96438662D01*
X136152616Y-96287784D01*
X135822415Y-96199631D01*
X135481361Y-96177591D01*
X135142561Y-96222511D01*
X134819034Y-96332664D01*
X134620726Y-96438662D01*
X134512893Y-96713288D01*
X122638778Y-96713288D01*
X122667388Y-96608993D01*
X121890000Y-95831605D01*
X121112612Y-96608993D01*
X120346572Y-96608993D01*
X120346572Y-96445500D01*
X120334312Y-96321018D01*
X120298002Y-96201320D01*
X120239037Y-96091006D01*
X120159685Y-95994315D01*
X120062994Y-95914963D01*
X119952680Y-95855998D01*
X119832982Y-95819688D01*
X119708500Y-95807428D01*
X117908500Y-95807428D01*
X117784018Y-95819688D01*
X117664320Y-95855998D01*
X117554006Y-95914963D01*
X117457315Y-95994315D01*
X117377963Y-96091006D01*
X117318998Y-96201320D01*
X117282688Y-96321018D01*
X117270428Y-96445500D01*
X110461959Y-96445500D01*
X110459274Y-96438662D01*
X110152616Y-96287784D01*
X109822415Y-96199631D01*
X109481361Y-96177591D01*
X109142561Y-96222511D01*
X108819034Y-96332664D01*
X108620726Y-96438662D01*
X108512893Y-96713288D01*
X93166500Y-96713288D01*
X93166500Y-95724492D01*
X120500188Y-95724492D01*
X120541035Y-95994238D01*
X120633723Y-96250832D01*
X120694140Y-96363863D01*
X120933007Y-96429388D01*
X121710395Y-95652000D01*
X122069605Y-95652000D01*
X122846993Y-96429388D01*
X123085860Y-96363863D01*
X123201760Y-96116884D01*
X123267250Y-95852040D01*
X123273129Y-95724492D01*
X140720188Y-95724492D01*
X140761035Y-95994238D01*
X140853723Y-96250832D01*
X140914140Y-96363863D01*
X141153007Y-96429388D01*
X141930395Y-95652000D01*
X141153007Y-94874612D01*
X140914140Y-94940137D01*
X140798240Y-95187116D01*
X140732750Y-95451960D01*
X140720188Y-95724492D01*
X123273129Y-95724492D01*
X123279812Y-95579508D01*
X123238965Y-95309762D01*
X123146277Y-95053168D01*
X123085860Y-94940137D01*
X122846993Y-94874612D01*
X122069605Y-95652000D01*
X121710395Y-95652000D01*
X120933007Y-94874612D01*
X120694140Y-94940137D01*
X120578240Y-95187116D01*
X120512750Y-95451960D01*
X120500188Y-95724492D01*
X93166500Y-95724492D01*
X93166500Y-92695665D01*
X96736000Y-92695665D01*
X96736000Y-92978335D01*
X96791147Y-93255574D01*
X96899320Y-93516727D01*
X97056363Y-93751759D01*
X97256241Y-93951637D01*
X97491273Y-94108680D01*
X97752426Y-94216853D01*
X98029665Y-94272000D01*
X98312335Y-94272000D01*
X98589574Y-94216853D01*
X98850727Y-94108680D01*
X99085759Y-93951637D01*
X99285637Y-93751759D01*
X99442680Y-93516727D01*
X99550853Y-93255574D01*
X99606000Y-92978335D01*
X99606000Y-92695665D01*
X99550853Y-92418426D01*
X99442680Y-92157273D01*
X99285637Y-91922241D01*
X99085759Y-91722363D01*
X98850727Y-91565320D01*
X98589574Y-91457147D01*
X98312335Y-91402000D01*
X98029665Y-91402000D01*
X97752426Y-91457147D01*
X97491273Y-91565320D01*
X97256241Y-91722363D01*
X97056363Y-91922241D01*
X96899320Y-92157273D01*
X96791147Y-92418426D01*
X96736000Y-92695665D01*
X93166500Y-92695665D01*
X93166500Y-88281908D01*
X102894500Y-88281908D01*
X102894500Y-88557092D01*
X102948186Y-88826990D01*
X103053495Y-89081227D01*
X103206380Y-89310035D01*
X103400965Y-89504620D01*
X103629773Y-89657505D01*
X103884010Y-89762814D01*
X104153908Y-89816500D01*
X104429092Y-89816500D01*
X104698990Y-89762814D01*
X104953227Y-89657505D01*
X105182035Y-89504620D01*
X105301590Y-89385065D01*
X106045540Y-89385065D01*
X106112520Y-89625156D01*
X106361548Y-89742256D01*
X106628635Y-89808523D01*
X106903517Y-89821410D01*
X107175633Y-89780422D01*
X107434523Y-89687136D01*
X107550480Y-89625156D01*
X107617460Y-89385065D01*
X106831500Y-88599105D01*
X106045540Y-89385065D01*
X105301590Y-89385065D01*
X105376620Y-89310035D01*
X105529505Y-89081227D01*
X105559192Y-89009557D01*
X105563864Y-89022523D01*
X105625844Y-89138480D01*
X105865935Y-89205460D01*
X106651895Y-88419500D01*
X107011105Y-88419500D01*
X107797065Y-89205460D01*
X108037156Y-89138480D01*
X108100985Y-89002740D01*
X108133495Y-89081227D01*
X108286380Y-89310035D01*
X108480965Y-89504620D01*
X108709773Y-89657505D01*
X108964010Y-89762814D01*
X109233908Y-89816500D01*
X109509092Y-89816500D01*
X109778990Y-89762814D01*
X110033227Y-89657505D01*
X110262035Y-89504620D01*
X110456620Y-89310035D01*
X110609505Y-89081227D01*
X110714814Y-88826990D01*
X110768500Y-88557092D01*
X110768500Y-88281908D01*
X110714814Y-88012010D01*
X110666591Y-87895589D01*
X120505000Y-87895589D01*
X120505000Y-88168411D01*
X120558225Y-88435989D01*
X120662629Y-88688043D01*
X120814201Y-88914886D01*
X121007114Y-89107799D01*
X121233957Y-89259371D01*
X121336873Y-89302000D01*
X121233957Y-89344629D01*
X121007114Y-89496201D01*
X120814201Y-89689114D01*
X120662629Y-89915957D01*
X120558225Y-90168011D01*
X120505000Y-90435589D01*
X120505000Y-90708411D01*
X120558225Y-90975989D01*
X120662629Y-91228043D01*
X120814201Y-91454886D01*
X121007114Y-91647799D01*
X121233957Y-91799371D01*
X121336873Y-91842000D01*
X121233957Y-91884629D01*
X121007114Y-92036201D01*
X120814201Y-92229114D01*
X120662629Y-92455957D01*
X120558225Y-92708011D01*
X120505000Y-92975589D01*
X120505000Y-93248411D01*
X120558225Y-93515989D01*
X120662629Y-93768043D01*
X120814201Y-93994886D01*
X121007114Y-94187799D01*
X121233957Y-94339371D01*
X121333279Y-94380511D01*
X121291168Y-94395723D01*
X121178137Y-94456140D01*
X121112612Y-94695007D01*
X121890000Y-95472395D01*
X122667388Y-94695007D01*
X122601863Y-94456140D01*
X122443523Y-94381836D01*
X122546043Y-94339371D01*
X122772886Y-94187799D01*
X122965799Y-93994886D01*
X123113476Y-93773872D01*
X123291241Y-93951637D01*
X123526273Y-94108680D01*
X123787426Y-94216853D01*
X124064665Y-94272000D01*
X124347335Y-94272000D01*
X124624574Y-94216853D01*
X124885727Y-94108680D01*
X125120759Y-93951637D01*
X125320637Y-93751759D01*
X125477680Y-93516727D01*
X125585853Y-93255574D01*
X125641000Y-92978335D01*
X125641000Y-92695665D01*
X125585853Y-92418426D01*
X125477680Y-92157273D01*
X125320637Y-91922241D01*
X125120759Y-91722363D01*
X124885727Y-91565320D01*
X124624574Y-91457147D01*
X124347335Y-91402000D01*
X124064665Y-91402000D01*
X123787426Y-91457147D01*
X123526273Y-91565320D01*
X123291241Y-91722363D01*
X123091363Y-91922241D01*
X122934320Y-92157273D01*
X122922498Y-92185813D01*
X122772886Y-92036201D01*
X122546043Y-91884629D01*
X122443127Y-91842000D01*
X122546043Y-91799371D01*
X122772886Y-91647799D01*
X122965799Y-91454886D01*
X123117371Y-91228043D01*
X123221775Y-90975989D01*
X123275000Y-90708411D01*
X123275000Y-90435589D01*
X123221775Y-90168011D01*
X123190359Y-90092165D01*
X128041500Y-90092165D01*
X128041500Y-90374835D01*
X128096647Y-90652074D01*
X128204820Y-90913227D01*
X128361863Y-91148259D01*
X128561741Y-91348137D01*
X128796773Y-91505180D01*
X129057926Y-91613353D01*
X129335165Y-91668500D01*
X129617835Y-91668500D01*
X129895074Y-91613353D01*
X130156227Y-91505180D01*
X130391259Y-91348137D01*
X130591137Y-91148259D01*
X130748180Y-90913227D01*
X130856353Y-90652074D01*
X130911500Y-90374835D01*
X130911500Y-90092165D01*
X135661500Y-90092165D01*
X135661500Y-90374835D01*
X135716647Y-90652074D01*
X135824820Y-90913227D01*
X135981863Y-91148259D01*
X136181741Y-91348137D01*
X136416773Y-91505180D01*
X136677926Y-91613353D01*
X136955165Y-91668500D01*
X137237835Y-91668500D01*
X137515074Y-91613353D01*
X137776227Y-91505180D01*
X138011259Y-91348137D01*
X138211137Y-91148259D01*
X138368180Y-90913227D01*
X138476353Y-90652074D01*
X138531500Y-90374835D01*
X138531500Y-90092165D01*
X138476353Y-89814926D01*
X138368180Y-89553773D01*
X138211137Y-89318741D01*
X138011259Y-89118863D01*
X137776227Y-88961820D01*
X137515074Y-88853647D01*
X137237835Y-88798500D01*
X136955165Y-88798500D01*
X136677926Y-88853647D01*
X136416773Y-88961820D01*
X136181741Y-89118863D01*
X135981863Y-89318741D01*
X135824820Y-89553773D01*
X135716647Y-89814926D01*
X135661500Y-90092165D01*
X130911500Y-90092165D01*
X130856353Y-89814926D01*
X130748180Y-89553773D01*
X130591137Y-89318741D01*
X130391259Y-89118863D01*
X130156227Y-88961820D01*
X129895074Y-88853647D01*
X129617835Y-88798500D01*
X129335165Y-88798500D01*
X129057926Y-88853647D01*
X128796773Y-88961820D01*
X128561741Y-89118863D01*
X128361863Y-89318741D01*
X128204820Y-89553773D01*
X128096647Y-89814926D01*
X128041500Y-90092165D01*
X123190359Y-90092165D01*
X123117371Y-89915957D01*
X122965799Y-89689114D01*
X122772886Y-89496201D01*
X122546043Y-89344629D01*
X122443127Y-89302000D01*
X122546043Y-89259371D01*
X122772886Y-89107799D01*
X122965799Y-88914886D01*
X123117371Y-88688043D01*
X123221775Y-88435989D01*
X123275000Y-88168411D01*
X123275000Y-87895589D01*
X123221775Y-87628011D01*
X123174795Y-87514589D01*
X129345000Y-87514589D01*
X129345000Y-87787411D01*
X129398225Y-88054989D01*
X129502629Y-88307043D01*
X129654201Y-88533886D01*
X129847114Y-88726799D01*
X130073957Y-88878371D01*
X130326011Y-88982775D01*
X130593589Y-89036000D01*
X130866411Y-89036000D01*
X131133989Y-88982775D01*
X131386043Y-88878371D01*
X131612886Y-88726799D01*
X131805799Y-88533886D01*
X131957371Y-88307043D01*
X132000000Y-88204127D01*
X132042629Y-88307043D01*
X132194201Y-88533886D01*
X132387114Y-88726799D01*
X132613957Y-88878371D01*
X132866011Y-88982775D01*
X133133589Y-89036000D01*
X133406411Y-89036000D01*
X133673989Y-88982775D01*
X133926043Y-88878371D01*
X134152886Y-88726799D01*
X134345799Y-88533886D01*
X134497371Y-88307043D01*
X134601775Y-88054989D01*
X134655000Y-87787411D01*
X134655000Y-87514589D01*
X134601775Y-87247011D01*
X134497371Y-86994957D01*
X134345799Y-86768114D01*
X134152886Y-86575201D01*
X133926043Y-86423629D01*
X133673989Y-86319225D01*
X133406411Y-86266000D01*
X133133589Y-86266000D01*
X132866011Y-86319225D01*
X132613957Y-86423629D01*
X132387114Y-86575201D01*
X132194201Y-86768114D01*
X132042629Y-86994957D01*
X132000000Y-87097873D01*
X131957371Y-86994957D01*
X131805799Y-86768114D01*
X131612886Y-86575201D01*
X131386043Y-86423629D01*
X131133989Y-86319225D01*
X130866411Y-86266000D01*
X130593589Y-86266000D01*
X130326011Y-86319225D01*
X130073957Y-86423629D01*
X129847114Y-86575201D01*
X129654201Y-86768114D01*
X129502629Y-86994957D01*
X129398225Y-87247011D01*
X129345000Y-87514589D01*
X123174795Y-87514589D01*
X123117371Y-87375957D01*
X122965799Y-87149114D01*
X122772886Y-86956201D01*
X122546043Y-86804629D01*
X122446721Y-86763489D01*
X122488832Y-86748277D01*
X122601863Y-86687860D01*
X122667388Y-86448993D01*
X121890000Y-85671605D01*
X121112612Y-86448993D01*
X121178137Y-86687860D01*
X121336477Y-86762164D01*
X121233957Y-86804629D01*
X121007114Y-86956201D01*
X120814201Y-87149114D01*
X120662629Y-87375957D01*
X120558225Y-87628011D01*
X120505000Y-87895589D01*
X110666591Y-87895589D01*
X110609505Y-87757773D01*
X110456620Y-87528965D01*
X110262035Y-87334380D01*
X110033227Y-87181495D01*
X109778990Y-87076186D01*
X109509092Y-87022500D01*
X109233908Y-87022500D01*
X108964010Y-87076186D01*
X108709773Y-87181495D01*
X108480965Y-87334380D01*
X108286380Y-87528965D01*
X108133495Y-87757773D01*
X108103808Y-87829443D01*
X108099136Y-87816477D01*
X108037156Y-87700520D01*
X107797065Y-87633540D01*
X107011105Y-88419500D01*
X106651895Y-88419500D01*
X105865935Y-87633540D01*
X105625844Y-87700520D01*
X105562015Y-87836260D01*
X105529505Y-87757773D01*
X105376620Y-87528965D01*
X105182035Y-87334380D01*
X104953227Y-87181495D01*
X104698990Y-87076186D01*
X104429092Y-87022500D01*
X104153908Y-87022500D01*
X103884010Y-87076186D01*
X103629773Y-87181495D01*
X103400965Y-87334380D01*
X103206380Y-87528965D01*
X103053495Y-87757773D01*
X102948186Y-88012010D01*
X102894500Y-88281908D01*
X93166500Y-88281908D01*
X93166500Y-85710665D01*
X104292500Y-85710665D01*
X104292500Y-85993335D01*
X104347647Y-86270574D01*
X104455820Y-86531727D01*
X104612863Y-86766759D01*
X104812741Y-86966637D01*
X105047773Y-87123680D01*
X105308926Y-87231853D01*
X105586165Y-87287000D01*
X105868835Y-87287000D01*
X106105229Y-87239978D01*
X106045540Y-87453935D01*
X106831500Y-88239895D01*
X107617460Y-87453935D01*
X107550480Y-87213844D01*
X107301452Y-87096744D01*
X107034365Y-87030477D01*
X106759483Y-87017590D01*
X106509692Y-87055215D01*
X106642259Y-86966637D01*
X106842137Y-86766759D01*
X106999180Y-86531727D01*
X107107353Y-86270574D01*
X107162500Y-85993335D01*
X107162500Y-85710665D01*
X111912500Y-85710665D01*
X111912500Y-85993335D01*
X111967647Y-86270574D01*
X112075820Y-86531727D01*
X112232863Y-86766759D01*
X112432741Y-86966637D01*
X112667773Y-87123680D01*
X112928926Y-87231853D01*
X113206165Y-87287000D01*
X113488835Y-87287000D01*
X113766074Y-87231853D01*
X114027227Y-87123680D01*
X114262259Y-86966637D01*
X114462137Y-86766759D01*
X114619180Y-86531727D01*
X114727353Y-86270574D01*
X114782500Y-85993335D01*
X114782500Y-85710665D01*
X114753424Y-85564492D01*
X120500188Y-85564492D01*
X120541035Y-85834238D01*
X120633723Y-86090832D01*
X120694140Y-86203863D01*
X120933007Y-86269388D01*
X121710395Y-85492000D01*
X122069605Y-85492000D01*
X122846993Y-86269388D01*
X123085860Y-86203863D01*
X123201760Y-85956884D01*
X123267250Y-85692040D01*
X123279812Y-85419508D01*
X123238965Y-85149762D01*
X123146277Y-84893168D01*
X123085860Y-84780137D01*
X122846993Y-84714612D01*
X122069605Y-85492000D01*
X121710395Y-85492000D01*
X120933007Y-84714612D01*
X120694140Y-84780137D01*
X120578240Y-85027116D01*
X120512750Y-85291960D01*
X120500188Y-85564492D01*
X114753424Y-85564492D01*
X114727353Y-85433426D01*
X114619180Y-85172273D01*
X114462137Y-84937241D01*
X114262259Y-84737363D01*
X114027227Y-84580320D01*
X113766074Y-84472147D01*
X113488835Y-84417000D01*
X113206165Y-84417000D01*
X112928926Y-84472147D01*
X112667773Y-84580320D01*
X112432741Y-84737363D01*
X112232863Y-84937241D01*
X112075820Y-85172273D01*
X111967647Y-85433426D01*
X111912500Y-85710665D01*
X107162500Y-85710665D01*
X107107353Y-85433426D01*
X106999180Y-85172273D01*
X106842137Y-84937241D01*
X106642259Y-84737363D01*
X106407227Y-84580320D01*
X106146074Y-84472147D01*
X105868835Y-84417000D01*
X105586165Y-84417000D01*
X105308926Y-84472147D01*
X105047773Y-84580320D01*
X104812741Y-84737363D01*
X104612863Y-84937241D01*
X104455820Y-85172273D01*
X104347647Y-85433426D01*
X104292500Y-85710665D01*
X93166500Y-85710665D01*
X93166500Y-81964165D01*
X96736000Y-81964165D01*
X96736000Y-82246835D01*
X96791147Y-82524074D01*
X96899320Y-82785227D01*
X97056363Y-83020259D01*
X97256241Y-83220137D01*
X97491273Y-83377180D01*
X97752426Y-83485353D01*
X98029665Y-83540500D01*
X98312335Y-83540500D01*
X98589574Y-83485353D01*
X98850727Y-83377180D01*
X99085759Y-83220137D01*
X99285637Y-83020259D01*
X99442680Y-82785227D01*
X99550853Y-82524074D01*
X99606000Y-82246835D01*
X99606000Y-81964165D01*
X99601673Y-81942408D01*
X104333000Y-81942408D01*
X104333000Y-82217592D01*
X104386686Y-82487490D01*
X104491995Y-82741727D01*
X104644880Y-82970535D01*
X104839465Y-83165120D01*
X105068273Y-83318005D01*
X105322510Y-83423314D01*
X105592408Y-83477000D01*
X105867592Y-83477000D01*
X106137490Y-83423314D01*
X106391727Y-83318005D01*
X106620535Y-83165120D01*
X106740090Y-83045565D01*
X107484040Y-83045565D01*
X107551020Y-83285656D01*
X107800048Y-83402756D01*
X108067135Y-83469023D01*
X108342017Y-83481910D01*
X108614133Y-83440922D01*
X108873023Y-83347636D01*
X108988980Y-83285656D01*
X109055960Y-83045565D01*
X108270000Y-82259605D01*
X107484040Y-83045565D01*
X106740090Y-83045565D01*
X106815120Y-82970535D01*
X106968005Y-82741727D01*
X106997692Y-82670057D01*
X107002364Y-82683023D01*
X107064344Y-82798980D01*
X107304435Y-82865960D01*
X108090395Y-82080000D01*
X108449605Y-82080000D01*
X109235565Y-82865960D01*
X109475656Y-82798980D01*
X109592756Y-82549952D01*
X109659023Y-82282865D01*
X109671910Y-82007983D01*
X109630922Y-81735867D01*
X109537636Y-81476977D01*
X109475656Y-81361020D01*
X109235565Y-81294040D01*
X108449605Y-82080000D01*
X108090395Y-82080000D01*
X107304435Y-81294040D01*
X107064344Y-81361020D01*
X107000515Y-81496760D01*
X106968005Y-81418273D01*
X106815120Y-81189465D01*
X106740090Y-81114435D01*
X107484040Y-81114435D01*
X108270000Y-81900395D01*
X109055960Y-81114435D01*
X108988980Y-80874344D01*
X108739952Y-80757244D01*
X108472865Y-80690977D01*
X108197983Y-80678090D01*
X107925867Y-80719078D01*
X107666977Y-80812364D01*
X107551020Y-80874344D01*
X107484040Y-81114435D01*
X106740090Y-81114435D01*
X106620535Y-80994880D01*
X106391727Y-80841995D01*
X106137490Y-80736686D01*
X105867592Y-80683000D01*
X105592408Y-80683000D01*
X105322510Y-80736686D01*
X105068273Y-80841995D01*
X104839465Y-80994880D01*
X104644880Y-81189465D01*
X104491995Y-81418273D01*
X104386686Y-81672510D01*
X104333000Y-81942408D01*
X99601673Y-81942408D01*
X99550853Y-81686926D01*
X99442680Y-81425773D01*
X99285637Y-81190741D01*
X99085759Y-80990863D01*
X98850727Y-80833820D01*
X98589574Y-80725647D01*
X98312335Y-80670500D01*
X98029665Y-80670500D01*
X97752426Y-80725647D01*
X97491273Y-80833820D01*
X97256241Y-80990863D01*
X97056363Y-81190741D01*
X96899320Y-81425773D01*
X96791147Y-81686926D01*
X96736000Y-81964165D01*
X93166500Y-81964165D01*
X93166500Y-76853740D01*
X100435000Y-76853740D01*
X100435000Y-77146260D01*
X100492068Y-77433158D01*
X100604010Y-77703411D01*
X100766525Y-77946632D01*
X100973368Y-78153475D01*
X101216589Y-78315990D01*
X101486842Y-78427932D01*
X101773740Y-78485000D01*
X102066260Y-78485000D01*
X102353158Y-78427932D01*
X102623411Y-78315990D01*
X102866632Y-78153475D01*
X103073475Y-77946632D01*
X103235990Y-77703411D01*
X103347932Y-77433158D01*
X103405000Y-77146260D01*
X103405000Y-76853740D01*
X103382471Y-76740475D01*
X104365000Y-76740475D01*
X104365000Y-77259525D01*
X104466261Y-77768601D01*
X104664893Y-78248141D01*
X104953262Y-78679715D01*
X105320285Y-79046738D01*
X105751859Y-79335107D01*
X106231399Y-79533739D01*
X106740475Y-79635000D01*
X107259525Y-79635000D01*
X107768601Y-79533739D01*
X108248141Y-79335107D01*
X108679715Y-79046738D01*
X109046738Y-78679715D01*
X109335107Y-78248141D01*
X109533739Y-77768601D01*
X109635000Y-77259525D01*
X109635000Y-76853740D01*
X110595000Y-76853740D01*
X110595000Y-77146260D01*
X110652068Y-77433158D01*
X110764010Y-77703411D01*
X110926525Y-77946632D01*
X111133368Y-78153475D01*
X111376589Y-78315990D01*
X111646842Y-78427932D01*
X111933740Y-78485000D01*
X112226260Y-78485000D01*
X112513158Y-78427932D01*
X112783411Y-78315990D01*
X113026632Y-78153475D01*
X113233475Y-77946632D01*
X113395990Y-77703411D01*
X113507932Y-77433158D01*
X113536037Y-77291861D01*
X118802200Y-77291861D01*
X118802200Y-77495739D01*
X118841974Y-77695698D01*
X118919995Y-77884056D01*
X119033263Y-78053574D01*
X119177426Y-78197737D01*
X119346944Y-78311005D01*
X119535302Y-78389026D01*
X119735261Y-78428800D01*
X119939139Y-78428800D01*
X120139098Y-78389026D01*
X120327456Y-78311005D01*
X120496974Y-78197737D01*
X120535080Y-78159631D01*
X120558225Y-78275989D01*
X120662629Y-78528043D01*
X120814201Y-78754886D01*
X121007114Y-78947799D01*
X121233957Y-79099371D01*
X121336873Y-79142000D01*
X121233957Y-79184629D01*
X121007114Y-79336201D01*
X120814201Y-79529114D01*
X120662629Y-79755957D01*
X120558225Y-80008011D01*
X120505000Y-80275589D01*
X120505000Y-80548411D01*
X120558225Y-80815989D01*
X120662629Y-81068043D01*
X120814201Y-81294886D01*
X121007114Y-81487799D01*
X121233957Y-81639371D01*
X121336873Y-81682000D01*
X121233957Y-81724629D01*
X121007114Y-81876201D01*
X120814201Y-82069114D01*
X120662629Y-82295957D01*
X120558225Y-82548011D01*
X120505000Y-82815589D01*
X120505000Y-83088411D01*
X120558225Y-83355989D01*
X120662629Y-83608043D01*
X120814201Y-83834886D01*
X121007114Y-84027799D01*
X121233957Y-84179371D01*
X121333279Y-84220511D01*
X121291168Y-84235723D01*
X121178137Y-84296140D01*
X121112612Y-84535007D01*
X121890000Y-85312395D01*
X122667388Y-84535007D01*
X122601863Y-84296140D01*
X122443523Y-84221836D01*
X122546043Y-84179371D01*
X122772886Y-84027799D01*
X122965799Y-83834886D01*
X123117371Y-83608043D01*
X123221775Y-83355989D01*
X123255840Y-83184736D01*
X123291241Y-83220137D01*
X123526273Y-83377180D01*
X123787426Y-83485353D01*
X124064665Y-83540500D01*
X124347335Y-83540500D01*
X124624574Y-83485353D01*
X124885727Y-83377180D01*
X125120759Y-83220137D01*
X125320637Y-83020259D01*
X125477680Y-82785227D01*
X125585853Y-82524074D01*
X125641000Y-82246835D01*
X125641000Y-81964165D01*
X125636673Y-81942408D01*
X130333000Y-81942408D01*
X130333000Y-82217592D01*
X130386686Y-82487490D01*
X130491995Y-82741727D01*
X130644880Y-82970535D01*
X130839465Y-83165120D01*
X131068273Y-83318005D01*
X131322510Y-83423314D01*
X131592408Y-83477000D01*
X131867592Y-83477000D01*
X132137490Y-83423314D01*
X132391727Y-83318005D01*
X132620535Y-83165120D01*
X132740090Y-83045565D01*
X133484040Y-83045565D01*
X133551020Y-83285656D01*
X133800048Y-83402756D01*
X134067135Y-83469023D01*
X134342017Y-83481910D01*
X134614133Y-83440922D01*
X134873023Y-83347636D01*
X134988980Y-83285656D01*
X135055960Y-83045565D01*
X134270000Y-82259605D01*
X133484040Y-83045565D01*
X132740090Y-83045565D01*
X132815120Y-82970535D01*
X132968005Y-82741727D01*
X132997692Y-82670057D01*
X133002364Y-82683023D01*
X133064344Y-82798980D01*
X133304435Y-82865960D01*
X134090395Y-82080000D01*
X134449605Y-82080000D01*
X135235565Y-82865960D01*
X135475656Y-82798980D01*
X135592756Y-82549952D01*
X135659023Y-82282865D01*
X135671910Y-82007983D01*
X135630922Y-81735867D01*
X135537636Y-81476977D01*
X135475656Y-81361020D01*
X135235565Y-81294040D01*
X134449605Y-82080000D01*
X134090395Y-82080000D01*
X133304435Y-81294040D01*
X133064344Y-81361020D01*
X133000515Y-81496760D01*
X132968005Y-81418273D01*
X132815120Y-81189465D01*
X132740090Y-81114435D01*
X133484040Y-81114435D01*
X134270000Y-81900395D01*
X135055960Y-81114435D01*
X134988980Y-80874344D01*
X134739952Y-80757244D01*
X134472865Y-80690977D01*
X134197983Y-80678090D01*
X133925867Y-80719078D01*
X133666977Y-80812364D01*
X133551020Y-80874344D01*
X133484040Y-81114435D01*
X132740090Y-81114435D01*
X132620535Y-80994880D01*
X132391727Y-80841995D01*
X132137490Y-80736686D01*
X131867592Y-80683000D01*
X131592408Y-80683000D01*
X131322510Y-80736686D01*
X131068273Y-80841995D01*
X130839465Y-80994880D01*
X130644880Y-81189465D01*
X130491995Y-81418273D01*
X130386686Y-81672510D01*
X130333000Y-81942408D01*
X125636673Y-81942408D01*
X125585853Y-81686926D01*
X125477680Y-81425773D01*
X125320637Y-81190741D01*
X125120759Y-80990863D01*
X124885727Y-80833820D01*
X124624574Y-80725647D01*
X124347335Y-80670500D01*
X124064665Y-80670500D01*
X123787426Y-80725647D01*
X123526273Y-80833820D01*
X123291241Y-80990863D01*
X123091363Y-81190741D01*
X122934320Y-81425773D01*
X122826147Y-81686926D01*
X122785907Y-81889222D01*
X122772886Y-81876201D01*
X122546043Y-81724629D01*
X122443127Y-81682000D01*
X122546043Y-81639371D01*
X122772886Y-81487799D01*
X122965799Y-81294886D01*
X123117371Y-81068043D01*
X123221775Y-80815989D01*
X123275000Y-80548411D01*
X123275000Y-80275589D01*
X123221775Y-80008011D01*
X123117371Y-79755957D01*
X122965799Y-79529114D01*
X122772886Y-79336201D01*
X122546043Y-79184629D01*
X122443127Y-79142000D01*
X122546043Y-79099371D01*
X122772886Y-78947799D01*
X122965799Y-78754886D01*
X123117371Y-78528043D01*
X123221775Y-78275989D01*
X123275000Y-78008411D01*
X123275000Y-77735589D01*
X123221775Y-77468011D01*
X123117371Y-77215957D01*
X122965799Y-76989114D01*
X122830425Y-76853740D01*
X126435000Y-76853740D01*
X126435000Y-77146260D01*
X126492068Y-77433158D01*
X126604010Y-77703411D01*
X126766525Y-77946632D01*
X126973368Y-78153475D01*
X127216589Y-78315990D01*
X127486842Y-78427932D01*
X127773740Y-78485000D01*
X128066260Y-78485000D01*
X128353158Y-78427932D01*
X128623411Y-78315990D01*
X128866632Y-78153475D01*
X129073475Y-77946632D01*
X129235990Y-77703411D01*
X129347932Y-77433158D01*
X129405000Y-77146260D01*
X129405000Y-76853740D01*
X129347932Y-76566842D01*
X129235990Y-76296589D01*
X129168110Y-76195000D01*
X129360883Y-76195000D01*
X129696081Y-76128325D01*
X130011831Y-75997537D01*
X130295998Y-75807663D01*
X130537663Y-75565998D01*
X130727537Y-75281831D01*
X130753148Y-75220000D01*
X131053547Y-75220000D01*
X130953262Y-75320285D01*
X130664893Y-75751859D01*
X130466261Y-76231399D01*
X130365000Y-76740475D01*
X130365000Y-77259525D01*
X130466261Y-77768601D01*
X130664893Y-78248141D01*
X130953262Y-78679715D01*
X131320285Y-79046738D01*
X131751859Y-79335107D01*
X132231399Y-79533739D01*
X132740475Y-79635000D01*
X133259525Y-79635000D01*
X133768601Y-79533739D01*
X134248141Y-79335107D01*
X134679715Y-79046738D01*
X135046738Y-78679715D01*
X135335107Y-78248141D01*
X135533739Y-77768601D01*
X135635000Y-77259525D01*
X135635000Y-76853740D01*
X136595000Y-76853740D01*
X136595000Y-77146260D01*
X136652068Y-77433158D01*
X136764010Y-77703411D01*
X136926525Y-77946632D01*
X137133368Y-78153475D01*
X137376589Y-78315990D01*
X137646842Y-78427932D01*
X137933740Y-78485000D01*
X138226260Y-78485000D01*
X138513158Y-78427932D01*
X138783411Y-78315990D01*
X139026632Y-78153475D01*
X139233475Y-77946632D01*
X139395990Y-77703411D01*
X139507932Y-77433158D01*
X139565000Y-77146260D01*
X139565000Y-76853740D01*
X139507932Y-76566842D01*
X139395990Y-76296589D01*
X139233475Y-76053368D01*
X139026632Y-75846525D01*
X138783411Y-75684010D01*
X138513158Y-75572068D01*
X138226260Y-75515000D01*
X137933740Y-75515000D01*
X137646842Y-75572068D01*
X137376589Y-75684010D01*
X137133368Y-75846525D01*
X136926525Y-76053368D01*
X136764010Y-76296589D01*
X136652068Y-76566842D01*
X136595000Y-76853740D01*
X135635000Y-76853740D01*
X135635000Y-76740475D01*
X135533739Y-76231399D01*
X135335107Y-75751859D01*
X135046738Y-75320285D01*
X134946453Y-75220000D01*
X140404678Y-75220000D01*
X140442000Y-75223676D01*
X140479322Y-75220000D01*
X140479333Y-75220000D01*
X140590986Y-75209003D01*
X140730766Y-75166602D01*
X140725000Y-75195589D01*
X140725000Y-75468411D01*
X140778225Y-75735989D01*
X140882629Y-75988043D01*
X141034201Y-76214886D01*
X141227114Y-76407799D01*
X141453957Y-76559371D01*
X141556873Y-76602000D01*
X141453957Y-76644629D01*
X141227114Y-76796201D01*
X141034201Y-76989114D01*
X140882629Y-77215957D01*
X140778225Y-77468011D01*
X140725000Y-77735589D01*
X140725000Y-78008411D01*
X140778225Y-78275989D01*
X140882629Y-78528043D01*
X141034201Y-78754886D01*
X141227114Y-78947799D01*
X141453957Y-79099371D01*
X141556873Y-79142000D01*
X141453957Y-79184629D01*
X141227114Y-79336201D01*
X141034201Y-79529114D01*
X140882629Y-79755957D01*
X140778225Y-80008011D01*
X140725000Y-80275589D01*
X140725000Y-80548411D01*
X140778225Y-80815989D01*
X140882629Y-81068043D01*
X141034201Y-81294886D01*
X141227114Y-81487799D01*
X141453957Y-81639371D01*
X141556873Y-81682000D01*
X141453957Y-81724629D01*
X141227114Y-81876201D01*
X141034201Y-82069114D01*
X140882629Y-82295957D01*
X140778225Y-82548011D01*
X140725000Y-82815589D01*
X140725000Y-83088411D01*
X140778225Y-83355989D01*
X140882629Y-83608043D01*
X141034201Y-83834886D01*
X141227114Y-84027799D01*
X141453957Y-84179371D01*
X141556873Y-84222000D01*
X141453957Y-84264629D01*
X141227114Y-84416201D01*
X141034201Y-84609114D01*
X140882629Y-84835957D01*
X140778225Y-85088011D01*
X140725000Y-85355589D01*
X140725000Y-85628411D01*
X140778225Y-85895989D01*
X140882629Y-86148043D01*
X141034201Y-86374886D01*
X141227114Y-86567799D01*
X141453957Y-86719371D01*
X141556873Y-86762000D01*
X141453957Y-86804629D01*
X141227114Y-86956201D01*
X141034201Y-87149114D01*
X140882629Y-87375957D01*
X140778225Y-87628011D01*
X140725000Y-87895589D01*
X140725000Y-88168411D01*
X140778225Y-88435989D01*
X140882629Y-88688043D01*
X141034201Y-88914886D01*
X141227114Y-89107799D01*
X141453957Y-89259371D01*
X141556873Y-89302000D01*
X141453957Y-89344629D01*
X141227114Y-89496201D01*
X141034201Y-89689114D01*
X140882629Y-89915957D01*
X140778225Y-90168011D01*
X140725000Y-90435589D01*
X140725000Y-90708411D01*
X140778225Y-90975989D01*
X140882629Y-91228043D01*
X141034201Y-91454886D01*
X141227114Y-91647799D01*
X141453957Y-91799371D01*
X141556873Y-91842000D01*
X141453957Y-91884629D01*
X141227114Y-92036201D01*
X141034201Y-92229114D01*
X140882629Y-92455957D01*
X140778225Y-92708011D01*
X140725000Y-92975589D01*
X140725000Y-93248411D01*
X140778225Y-93515989D01*
X140882629Y-93768043D01*
X141034201Y-93994886D01*
X141227114Y-94187799D01*
X141453957Y-94339371D01*
X141553279Y-94380511D01*
X141511168Y-94395723D01*
X141398137Y-94456140D01*
X141332612Y-94695007D01*
X142110000Y-95472395D01*
X142124143Y-95458253D01*
X142303748Y-95637858D01*
X142289605Y-95652000D01*
X143066993Y-96429388D01*
X143305860Y-96363863D01*
X143421760Y-96116884D01*
X143487250Y-95852040D01*
X143499812Y-95579508D01*
X143499295Y-95576097D01*
X145302701Y-97379503D01*
X145302700Y-100506428D01*
X145162700Y-100506428D01*
X145038218Y-100518688D01*
X144918520Y-100554998D01*
X144808206Y-100613963D01*
X144711515Y-100693315D01*
X144632163Y-100790006D01*
X144573198Y-100900320D01*
X144536888Y-101020018D01*
X144524628Y-101144500D01*
X144524628Y-102944500D01*
X144536888Y-103068982D01*
X144573198Y-103188680D01*
X144632163Y-103298994D01*
X144711515Y-103395685D01*
X144808206Y-103475037D01*
X144918520Y-103534002D01*
X145038218Y-103570312D01*
X145162700Y-103582572D01*
X146962700Y-103582572D01*
X147087182Y-103570312D01*
X147206880Y-103534002D01*
X147317194Y-103475037D01*
X147413885Y-103395685D01*
X147493237Y-103298994D01*
X147552202Y-103188680D01*
X147588512Y-103068982D01*
X147600772Y-102944500D01*
X147600772Y-101144500D01*
X147588512Y-101020018D01*
X147552202Y-100900320D01*
X147493237Y-100790006D01*
X147413885Y-100693315D01*
X147317194Y-100613963D01*
X147206880Y-100554998D01*
X147087182Y-100518688D01*
X146962700Y-100506428D01*
X146822700Y-100506428D01*
X146822700Y-97102023D01*
X146826376Y-97064700D01*
X146822700Y-97027377D01*
X146822700Y-97027367D01*
X146811703Y-96915714D01*
X146768246Y-96772453D01*
X146736621Y-96713288D01*
X146697674Y-96640423D01*
X146626499Y-96553697D01*
X146602701Y-96524699D01*
X146573703Y-96500901D01*
X143466167Y-93393365D01*
X143495000Y-93248411D01*
X143495000Y-92975589D01*
X143441775Y-92708011D01*
X143337371Y-92455957D01*
X143185799Y-92229114D01*
X142992886Y-92036201D01*
X142766043Y-91884629D01*
X142663127Y-91842000D01*
X142766043Y-91799371D01*
X142992886Y-91647799D01*
X143185799Y-91454886D01*
X143337371Y-91228043D01*
X143441775Y-90975989D01*
X143495000Y-90708411D01*
X143495000Y-90435589D01*
X143441775Y-90168011D01*
X143337371Y-89915957D01*
X143185799Y-89689114D01*
X142992886Y-89496201D01*
X142766043Y-89344629D01*
X142663127Y-89302000D01*
X142766043Y-89259371D01*
X142992886Y-89107799D01*
X143185799Y-88914886D01*
X143337371Y-88688043D01*
X143441775Y-88435989D01*
X143495000Y-88168411D01*
X143495000Y-87895589D01*
X143441775Y-87628011D01*
X143337371Y-87375957D01*
X143185799Y-87149114D01*
X142992886Y-86956201D01*
X142766043Y-86804629D01*
X142663127Y-86762000D01*
X142766043Y-86719371D01*
X142992886Y-86567799D01*
X143185799Y-86374886D01*
X143337371Y-86148043D01*
X143441775Y-85895989D01*
X143495000Y-85628411D01*
X143495000Y-85355589D01*
X143441775Y-85088011D01*
X143337371Y-84835957D01*
X143185799Y-84609114D01*
X142992886Y-84416201D01*
X142766043Y-84264629D01*
X142663127Y-84222000D01*
X142766043Y-84179371D01*
X142992886Y-84027799D01*
X143185799Y-83834886D01*
X143337371Y-83608043D01*
X143441775Y-83355989D01*
X143495000Y-83088411D01*
X143495000Y-82815589D01*
X143441775Y-82548011D01*
X143337371Y-82295957D01*
X143185799Y-82069114D01*
X142992886Y-81876201D01*
X142766043Y-81724629D01*
X142663127Y-81682000D01*
X142766043Y-81639371D01*
X142992886Y-81487799D01*
X143185799Y-81294886D01*
X143337371Y-81068043D01*
X143441775Y-80815989D01*
X143495000Y-80548411D01*
X143495000Y-80275589D01*
X143441775Y-80008011D01*
X143337371Y-79755957D01*
X143185799Y-79529114D01*
X142992886Y-79336201D01*
X142766043Y-79184629D01*
X142663127Y-79142000D01*
X142766043Y-79099371D01*
X142992886Y-78947799D01*
X143185799Y-78754886D01*
X143337371Y-78528043D01*
X143441775Y-78275989D01*
X143495000Y-78008411D01*
X143495000Y-77735589D01*
X143441775Y-77468011D01*
X143337371Y-77215957D01*
X143185799Y-76989114D01*
X142992886Y-76796201D01*
X142766043Y-76644629D01*
X142663127Y-76602000D01*
X142766043Y-76559371D01*
X142992886Y-76407799D01*
X143185799Y-76214886D01*
X143337371Y-75988043D01*
X143441775Y-75735989D01*
X143495000Y-75468411D01*
X143495000Y-75195589D01*
X143441775Y-74928011D01*
X143337371Y-74675957D01*
X143185799Y-74449114D01*
X142992886Y-74256201D01*
X142766043Y-74104629D01*
X142663127Y-74062000D01*
X142766043Y-74019371D01*
X142992886Y-73867799D01*
X143185799Y-73674886D01*
X143337371Y-73448043D01*
X143441775Y-73195989D01*
X143495000Y-72928411D01*
X143495000Y-72655589D01*
X143441775Y-72388011D01*
X143337371Y-72135957D01*
X143185799Y-71909114D01*
X142992886Y-71716201D01*
X142766043Y-71564629D01*
X142663127Y-71522000D01*
X142766043Y-71479371D01*
X142992886Y-71327799D01*
X143185799Y-71134886D01*
X143337371Y-70908043D01*
X143441775Y-70655989D01*
X143495000Y-70388411D01*
X143495000Y-70115589D01*
X143441775Y-69848011D01*
X143337371Y-69595957D01*
X143185799Y-69369114D01*
X142992886Y-69176201D01*
X142766043Y-69024629D01*
X142513989Y-68920225D01*
X142246411Y-68867000D01*
X141973589Y-68867000D01*
X141706011Y-68920225D01*
X141453957Y-69024629D01*
X141227114Y-69176201D01*
X141034201Y-69369114D01*
X140882629Y-69595957D01*
X140778225Y-69848011D01*
X140725000Y-70115589D01*
X140725000Y-70388411D01*
X140778225Y-70655989D01*
X140882629Y-70908043D01*
X141034201Y-71134886D01*
X141227114Y-71327799D01*
X141453957Y-71479371D01*
X141556873Y-71522000D01*
X141453957Y-71564629D01*
X141227114Y-71716201D01*
X141034201Y-71909114D01*
X140882629Y-72135957D01*
X140778225Y-72388011D01*
X140725000Y-72655589D01*
X140725000Y-72928411D01*
X140753833Y-73073364D01*
X140127199Y-73700000D01*
X130753148Y-73700000D01*
X130727537Y-73638169D01*
X130537663Y-73354002D01*
X130310373Y-73126712D01*
X134512893Y-73126712D01*
X134620726Y-73401338D01*
X134927384Y-73552216D01*
X135257585Y-73640369D01*
X135598639Y-73662409D01*
X135937439Y-73617489D01*
X136260966Y-73507336D01*
X136459274Y-73401338D01*
X136567107Y-73126712D01*
X135540000Y-72099605D01*
X134512893Y-73126712D01*
X130310373Y-73126712D01*
X130295998Y-73112337D01*
X130011831Y-72922463D01*
X129696081Y-72791675D01*
X129360883Y-72725000D01*
X129019117Y-72725000D01*
X128683919Y-72791675D01*
X128368169Y-72922463D01*
X128084002Y-73112337D01*
X127842337Y-73354002D01*
X127652463Y-73638169D01*
X127521675Y-73953919D01*
X127455000Y-74289117D01*
X127455000Y-74630883D01*
X127521675Y-74966081D01*
X127652463Y-75281831D01*
X127808261Y-75515000D01*
X127773740Y-75515000D01*
X127486842Y-75572068D01*
X127216589Y-75684010D01*
X126973368Y-75846525D01*
X126766525Y-76053368D01*
X126604010Y-76296589D01*
X126492068Y-76566842D01*
X126435000Y-76853740D01*
X122830425Y-76853740D01*
X122772886Y-76796201D01*
X122546043Y-76644629D01*
X122443127Y-76602000D01*
X122546043Y-76559371D01*
X122772886Y-76407799D01*
X122965799Y-76214886D01*
X123117371Y-75988043D01*
X123221775Y-75735989D01*
X123255840Y-75564736D01*
X123291241Y-75600137D01*
X123526273Y-75757180D01*
X123787426Y-75865353D01*
X124064665Y-75920500D01*
X124347335Y-75920500D01*
X124624574Y-75865353D01*
X124885727Y-75757180D01*
X125120759Y-75600137D01*
X125320637Y-75400259D01*
X125477680Y-75165227D01*
X125585853Y-74904074D01*
X125641000Y-74626835D01*
X125641000Y-74344165D01*
X125585853Y-74066926D01*
X125477680Y-73805773D01*
X125320637Y-73570741D01*
X125120759Y-73370863D01*
X124885727Y-73213820D01*
X124624574Y-73105647D01*
X124347335Y-73050500D01*
X124064665Y-73050500D01*
X123787426Y-73105647D01*
X123526273Y-73213820D01*
X123291241Y-73370863D01*
X123091363Y-73570741D01*
X122934320Y-73805773D01*
X122826147Y-74066926D01*
X122785907Y-74269222D01*
X122772886Y-74256201D01*
X122546043Y-74104629D01*
X122443127Y-74062000D01*
X122546043Y-74019371D01*
X122772886Y-73867799D01*
X122965799Y-73674886D01*
X123117371Y-73448043D01*
X123221775Y-73195989D01*
X123275000Y-72928411D01*
X123275000Y-72655589D01*
X123221775Y-72388011D01*
X123117371Y-72135957D01*
X123012255Y-71978639D01*
X133797591Y-71978639D01*
X133842511Y-72317439D01*
X133952664Y-72640966D01*
X134058662Y-72839274D01*
X134333288Y-72947107D01*
X135360395Y-71920000D01*
X135719605Y-71920000D01*
X136746712Y-72947107D01*
X137021338Y-72839274D01*
X137172216Y-72532616D01*
X137260369Y-72202415D01*
X137282409Y-71861361D01*
X137237489Y-71522561D01*
X137127336Y-71199034D01*
X137021338Y-71000726D01*
X136746712Y-70892893D01*
X135719605Y-71920000D01*
X135360395Y-71920000D01*
X134333288Y-70892893D01*
X134058662Y-71000726D01*
X133907784Y-71307384D01*
X133819631Y-71637585D01*
X133797591Y-71978639D01*
X123012255Y-71978639D01*
X122965799Y-71909114D01*
X122772886Y-71716201D01*
X122546043Y-71564629D01*
X122443127Y-71522000D01*
X122546043Y-71479371D01*
X122772886Y-71327799D01*
X122965799Y-71134886D01*
X123117371Y-70908043D01*
X123198041Y-70713288D01*
X134512893Y-70713288D01*
X135540000Y-71740395D01*
X136567107Y-70713288D01*
X136459274Y-70438662D01*
X136152616Y-70287784D01*
X135822415Y-70199631D01*
X135481361Y-70177591D01*
X135142561Y-70222511D01*
X134819034Y-70332664D01*
X134620726Y-70438662D01*
X134512893Y-70713288D01*
X123198041Y-70713288D01*
X123221775Y-70655989D01*
X123275000Y-70388411D01*
X123275000Y-70115589D01*
X123221775Y-69848011D01*
X123117371Y-69595957D01*
X122965799Y-69369114D01*
X122772886Y-69176201D01*
X122546043Y-69024629D01*
X122293989Y-68920225D01*
X122194801Y-68900495D01*
X122298574Y-68879853D01*
X122559727Y-68771680D01*
X122794759Y-68614637D01*
X122994637Y-68414759D01*
X123151680Y-68179727D01*
X123259853Y-67918574D01*
X123315000Y-67641335D01*
X123315000Y-67358665D01*
X128065000Y-67358665D01*
X128065000Y-67641335D01*
X128120147Y-67918574D01*
X128228320Y-68179727D01*
X128385363Y-68414759D01*
X128585241Y-68614637D01*
X128820273Y-68771680D01*
X129081426Y-68879853D01*
X129358665Y-68935000D01*
X129641335Y-68935000D01*
X129918574Y-68879853D01*
X130179727Y-68771680D01*
X130249917Y-68724780D01*
X130966948Y-68724780D01*
X130979208Y-68849262D01*
X131015518Y-68968960D01*
X131074483Y-69079274D01*
X131153835Y-69175965D01*
X131250526Y-69255317D01*
X131360840Y-69314282D01*
X131480538Y-69350592D01*
X131605020Y-69362852D01*
X132568950Y-69359780D01*
X132727700Y-69201030D01*
X132727700Y-67602100D01*
X132981700Y-67602100D01*
X132981700Y-69201030D01*
X133140450Y-69359780D01*
X134104380Y-69362852D01*
X134228862Y-69350592D01*
X134348560Y-69314282D01*
X134458874Y-69255317D01*
X134555565Y-69175965D01*
X134634917Y-69079274D01*
X134693882Y-68968960D01*
X134730192Y-68849262D01*
X134742452Y-68724780D01*
X134739380Y-67760850D01*
X134580630Y-67602100D01*
X132981700Y-67602100D01*
X132727700Y-67602100D01*
X131128770Y-67602100D01*
X130970020Y-67760850D01*
X130966948Y-68724780D01*
X130249917Y-68724780D01*
X130414759Y-68614637D01*
X130614637Y-68414759D01*
X130771680Y-68179727D01*
X130879853Y-67918574D01*
X130935000Y-67641335D01*
X130935000Y-67358665D01*
X130879853Y-67081426D01*
X130771680Y-66820273D01*
X130614637Y-66585241D01*
X130414759Y-66385363D01*
X130179727Y-66228320D01*
X130172726Y-66225420D01*
X130966948Y-66225420D01*
X130970020Y-67189350D01*
X131128770Y-67348100D01*
X132727700Y-67348100D01*
X132727700Y-65749170D01*
X132981700Y-65749170D01*
X132981700Y-67348100D01*
X134580630Y-67348100D01*
X134639255Y-67289475D01*
X134780020Y-67289475D01*
X134780020Y-67660725D01*
X134852447Y-68024841D01*
X134994518Y-68367831D01*
X135200774Y-68676513D01*
X135463287Y-68939026D01*
X135771969Y-69145282D01*
X136114959Y-69287353D01*
X136479075Y-69359780D01*
X136850325Y-69359780D01*
X137214441Y-69287353D01*
X137557431Y-69145282D01*
X137866113Y-68939026D01*
X138128626Y-68676513D01*
X138334882Y-68367831D01*
X138476953Y-68024841D01*
X138541392Y-67700881D01*
X142478724Y-67700881D01*
X142838912Y-68190548D01*
X143502882Y-68550849D01*
X144224385Y-68774694D01*
X144975695Y-68853480D01*
X145727938Y-68784178D01*
X146452208Y-68569452D01*
X147120670Y-68217555D01*
X147161088Y-68190548D01*
X147521276Y-67700881D01*
X145000000Y-65179605D01*
X142478724Y-67700881D01*
X138541392Y-67700881D01*
X138549380Y-67660725D01*
X138549380Y-67289475D01*
X138476953Y-66925359D01*
X138334882Y-66582369D01*
X138128626Y-66273687D01*
X137866113Y-66011174D01*
X137557431Y-65804918D01*
X137214441Y-65662847D01*
X136850325Y-65590420D01*
X136479075Y-65590420D01*
X136114959Y-65662847D01*
X135771969Y-65804918D01*
X135463287Y-66011174D01*
X135200774Y-66273687D01*
X134994518Y-66582369D01*
X134852447Y-66925359D01*
X134780020Y-67289475D01*
X134639255Y-67289475D01*
X134739380Y-67189350D01*
X134742452Y-66225420D01*
X134730192Y-66100938D01*
X134693882Y-65981240D01*
X134634917Y-65870926D01*
X134555565Y-65774235D01*
X134458874Y-65694883D01*
X134348560Y-65635918D01*
X134228862Y-65599608D01*
X134104380Y-65587348D01*
X133140450Y-65590420D01*
X132981700Y-65749170D01*
X132727700Y-65749170D01*
X132568950Y-65590420D01*
X131605020Y-65587348D01*
X131480538Y-65599608D01*
X131360840Y-65635918D01*
X131250526Y-65694883D01*
X131153835Y-65774235D01*
X131074483Y-65870926D01*
X131015518Y-65981240D01*
X130979208Y-66100938D01*
X130966948Y-66225420D01*
X130172726Y-66225420D01*
X129918574Y-66120147D01*
X129641335Y-66065000D01*
X129358665Y-66065000D01*
X129081426Y-66120147D01*
X128820273Y-66228320D01*
X128585241Y-66385363D01*
X128385363Y-66585241D01*
X128228320Y-66820273D01*
X128120147Y-67081426D01*
X128065000Y-67358665D01*
X123315000Y-67358665D01*
X123259853Y-67081426D01*
X123151680Y-66820273D01*
X122994637Y-66585241D01*
X122794759Y-66385363D01*
X122559727Y-66228320D01*
X122298574Y-66120147D01*
X122021335Y-66065000D01*
X121738665Y-66065000D01*
X121461426Y-66120147D01*
X121200273Y-66228320D01*
X120965241Y-66385363D01*
X120765363Y-66585241D01*
X120608320Y-66820273D01*
X120500147Y-67081426D01*
X120445000Y-67358665D01*
X120445000Y-67641335D01*
X120500147Y-67918574D01*
X120608320Y-68179727D01*
X120765363Y-68414759D01*
X120965241Y-68614637D01*
X121200273Y-68771680D01*
X121461426Y-68879853D01*
X121575199Y-68902484D01*
X121486011Y-68920225D01*
X121233957Y-69024629D01*
X121007114Y-69176201D01*
X120814201Y-69369114D01*
X120662629Y-69595957D01*
X120558225Y-69848011D01*
X120505000Y-70115589D01*
X120505000Y-70388411D01*
X120558225Y-70655989D01*
X120662629Y-70908043D01*
X120814201Y-71134886D01*
X121007114Y-71327799D01*
X121233957Y-71479371D01*
X121336873Y-71522000D01*
X121233957Y-71564629D01*
X121007114Y-71716201D01*
X120814201Y-71909114D01*
X120662629Y-72135957D01*
X120558225Y-72388011D01*
X120505000Y-72655589D01*
X120505000Y-72928411D01*
X120533833Y-73073365D01*
X119326199Y-74281000D01*
X119297200Y-74304799D01*
X119273402Y-74333797D01*
X119273401Y-74333798D01*
X119202226Y-74420524D01*
X119131654Y-74552554D01*
X119109122Y-74626835D01*
X119094222Y-74675957D01*
X119088198Y-74695815D01*
X119073524Y-74844800D01*
X119077201Y-74882132D01*
X119077200Y-76690089D01*
X119033263Y-76734026D01*
X118919995Y-76903544D01*
X118841974Y-77091902D01*
X118802200Y-77291861D01*
X113536037Y-77291861D01*
X113565000Y-77146260D01*
X113565000Y-76853740D01*
X113507932Y-76566842D01*
X113395990Y-76296589D01*
X113233475Y-76053368D01*
X113026632Y-75846525D01*
X112783411Y-75684010D01*
X112513158Y-75572068D01*
X112226260Y-75515000D01*
X111933740Y-75515000D01*
X111646842Y-75572068D01*
X111376589Y-75684010D01*
X111133368Y-75846525D01*
X110926525Y-76053368D01*
X110764010Y-76296589D01*
X110652068Y-76566842D01*
X110595000Y-76853740D01*
X109635000Y-76853740D01*
X109635000Y-76740475D01*
X109533739Y-76231399D01*
X109335107Y-75751859D01*
X109046738Y-75320285D01*
X108679715Y-74953262D01*
X108248141Y-74664893D01*
X107768601Y-74466261D01*
X107259525Y-74365000D01*
X106740475Y-74365000D01*
X106231399Y-74466261D01*
X105751859Y-74664893D01*
X105320285Y-74953262D01*
X104953262Y-75320285D01*
X104664893Y-75751859D01*
X104466261Y-76231399D01*
X104365000Y-76740475D01*
X103382471Y-76740475D01*
X103347932Y-76566842D01*
X103235990Y-76296589D01*
X103168110Y-76195000D01*
X103360883Y-76195000D01*
X103696081Y-76128325D01*
X104011831Y-75997537D01*
X104295998Y-75807663D01*
X104537663Y-75565998D01*
X104727537Y-75281831D01*
X104858325Y-74966081D01*
X104925000Y-74630883D01*
X104925000Y-74289117D01*
X104858325Y-73953919D01*
X104727537Y-73638169D01*
X104537663Y-73354002D01*
X104310373Y-73126712D01*
X108512893Y-73126712D01*
X108620726Y-73401338D01*
X108927384Y-73552216D01*
X109257585Y-73640369D01*
X109598639Y-73662409D01*
X109937439Y-73617489D01*
X110260966Y-73507336D01*
X110459274Y-73401338D01*
X110567107Y-73126712D01*
X109540000Y-72099605D01*
X108512893Y-73126712D01*
X104310373Y-73126712D01*
X104295998Y-73112337D01*
X104011831Y-72922463D01*
X103696081Y-72791675D01*
X103360883Y-72725000D01*
X103019117Y-72725000D01*
X102683919Y-72791675D01*
X102368169Y-72922463D01*
X102084002Y-73112337D01*
X101842337Y-73354002D01*
X101652463Y-73638169D01*
X101521675Y-73953919D01*
X101455000Y-74289117D01*
X101455000Y-74630883D01*
X101521675Y-74966081D01*
X101652463Y-75281831D01*
X101808261Y-75515000D01*
X101773740Y-75515000D01*
X101486842Y-75572068D01*
X101216589Y-75684010D01*
X100973368Y-75846525D01*
X100766525Y-76053368D01*
X100604010Y-76296589D01*
X100492068Y-76566842D01*
X100435000Y-76853740D01*
X93166500Y-76853740D01*
X93166500Y-74595801D01*
X93418136Y-74344165D01*
X96736000Y-74344165D01*
X96736000Y-74626835D01*
X96791147Y-74904074D01*
X96899320Y-75165227D01*
X97056363Y-75400259D01*
X97256241Y-75600137D01*
X97491273Y-75757180D01*
X97752426Y-75865353D01*
X98029665Y-75920500D01*
X98312335Y-75920500D01*
X98589574Y-75865353D01*
X98850727Y-75757180D01*
X99085759Y-75600137D01*
X99285637Y-75400259D01*
X99442680Y-75165227D01*
X99550853Y-74904074D01*
X99606000Y-74626835D01*
X99606000Y-74344165D01*
X99550853Y-74066926D01*
X99442680Y-73805773D01*
X99285637Y-73570741D01*
X99085759Y-73370863D01*
X98850727Y-73213820D01*
X98589574Y-73105647D01*
X98312335Y-73050500D01*
X98029665Y-73050500D01*
X97752426Y-73105647D01*
X97491273Y-73213820D01*
X97256241Y-73370863D01*
X97056363Y-73570741D01*
X96899320Y-73805773D01*
X96791147Y-74066926D01*
X96736000Y-74344165D01*
X93418136Y-74344165D01*
X95783662Y-71978639D01*
X107797591Y-71978639D01*
X107842511Y-72317439D01*
X107952664Y-72640966D01*
X108058662Y-72839274D01*
X108333288Y-72947107D01*
X109360395Y-71920000D01*
X109719605Y-71920000D01*
X110746712Y-72947107D01*
X111021338Y-72839274D01*
X111172216Y-72532616D01*
X111260369Y-72202415D01*
X111282409Y-71861361D01*
X111237489Y-71522561D01*
X111127336Y-71199034D01*
X111021338Y-71000726D01*
X110746712Y-70892893D01*
X109719605Y-71920000D01*
X109360395Y-71920000D01*
X108333288Y-70892893D01*
X108058662Y-71000726D01*
X107907784Y-71307384D01*
X107819631Y-71637585D01*
X107797591Y-71978639D01*
X95783662Y-71978639D01*
X97049013Y-70713288D01*
X108512893Y-70713288D01*
X109540000Y-71740395D01*
X110567107Y-70713288D01*
X110459274Y-70438662D01*
X110152616Y-70287784D01*
X109822415Y-70199631D01*
X109481361Y-70177591D01*
X109142561Y-70222511D01*
X108819034Y-70332664D01*
X108620726Y-70438662D01*
X108512893Y-70713288D01*
X97049013Y-70713288D01*
X102613302Y-65149000D01*
X102707366Y-65149000D01*
X102687188Y-65215518D01*
X102674928Y-65340000D01*
X102674928Y-66740000D01*
X102687188Y-66864482D01*
X102723498Y-66984180D01*
X102782463Y-67094494D01*
X102861815Y-67191185D01*
X102958506Y-67270537D01*
X103068820Y-67329502D01*
X103188518Y-67365812D01*
X103313000Y-67378072D01*
X104713000Y-67378072D01*
X104837482Y-67365812D01*
X104957180Y-67329502D01*
X105067494Y-67270537D01*
X105164185Y-67191185D01*
X105243537Y-67094494D01*
X105302502Y-66984180D01*
X105338812Y-66864482D01*
X105351072Y-66740000D01*
X105351072Y-66703987D01*
X105476038Y-66891013D01*
X105661987Y-67076962D01*
X105880641Y-67223061D01*
X106123595Y-67323696D01*
X106381514Y-67375000D01*
X106644486Y-67375000D01*
X106751843Y-67353645D01*
X106974202Y-67576004D01*
X106998000Y-67605002D01*
X107113725Y-67699975D01*
X107245754Y-67770547D01*
X107389015Y-67814004D01*
X107500668Y-67825001D01*
X107500677Y-67825001D01*
X107538000Y-67828677D01*
X107575323Y-67825001D01*
X117428677Y-67825001D01*
X117465999Y-67828677D01*
X117503321Y-67825001D01*
X117503332Y-67825001D01*
X117614985Y-67814004D01*
X117758246Y-67770547D01*
X117890275Y-67699975D01*
X118006000Y-67605002D01*
X118029803Y-67575998D01*
X120630106Y-64975695D01*
X141146520Y-64975695D01*
X141215822Y-65727938D01*
X141430548Y-66452208D01*
X141782445Y-67120670D01*
X141809452Y-67161088D01*
X142299119Y-67521276D01*
X144820395Y-65000000D01*
X142299119Y-62478724D01*
X141809452Y-62838912D01*
X141449151Y-63502882D01*
X141225306Y-64224385D01*
X141146520Y-64975695D01*
X120630106Y-64975695D01*
X120885945Y-64719857D01*
X121035875Y-64749680D01*
X121407125Y-64749680D01*
X121771241Y-64677253D01*
X122114231Y-64535182D01*
X122422913Y-64328926D01*
X122685426Y-64066413D01*
X122891682Y-63757731D01*
X123033753Y-63414741D01*
X123106180Y-63050625D01*
X123106180Y-62679375D01*
X123033753Y-62315259D01*
X122891682Y-61972269D01*
X122685426Y-61663587D01*
X122422913Y-61401074D01*
X122114231Y-61194818D01*
X121771241Y-61052747D01*
X121407125Y-60980320D01*
X121035875Y-60980320D01*
X120671759Y-61052747D01*
X120328769Y-61194818D01*
X120020087Y-61401074D01*
X119757574Y-61663587D01*
X119551318Y-61972269D01*
X119409247Y-62315259D01*
X119336820Y-62679375D01*
X119336820Y-63050625D01*
X119409247Y-63414741D01*
X119551318Y-63757731D01*
X119610258Y-63845940D01*
X119294634Y-64161564D01*
X119299252Y-64114680D01*
X119296180Y-63150750D01*
X119137430Y-62992000D01*
X117538500Y-62992000D01*
X117538500Y-64590930D01*
X117697250Y-64749680D01*
X118661180Y-64752752D01*
X118708064Y-64748134D01*
X117151198Y-66305001D01*
X110321442Y-66305001D01*
X110348000Y-66171486D01*
X110348000Y-65908514D01*
X110296696Y-65650595D01*
X110196061Y-65407641D01*
X110049962Y-65188987D01*
X109864013Y-65003038D01*
X109645359Y-64856939D01*
X109402405Y-64756304D01*
X109144486Y-64705000D01*
X108881514Y-64705000D01*
X108623595Y-64756304D01*
X108380641Y-64856939D01*
X108161987Y-65003038D01*
X107976038Y-65188987D01*
X107829939Y-65407641D01*
X107763000Y-65569246D01*
X107696061Y-65407641D01*
X107549962Y-65188987D01*
X107364013Y-65003038D01*
X107145359Y-64856939D01*
X106902405Y-64756304D01*
X106644486Y-64705000D01*
X106381514Y-64705000D01*
X106123595Y-64756304D01*
X105880641Y-64856939D01*
X105661987Y-65003038D01*
X105476038Y-65188987D01*
X105351072Y-65376013D01*
X105351072Y-65340000D01*
X105338812Y-65215518D01*
X105302502Y-65095820D01*
X105269472Y-65034025D01*
X105288276Y-65023974D01*
X105404001Y-64929001D01*
X105427804Y-64899997D01*
X106213121Y-64114680D01*
X115523748Y-64114680D01*
X115536008Y-64239162D01*
X115572318Y-64358860D01*
X115631283Y-64469174D01*
X115710635Y-64565865D01*
X115807326Y-64645217D01*
X115917640Y-64704182D01*
X116037338Y-64740492D01*
X116161820Y-64752752D01*
X117125750Y-64749680D01*
X117284500Y-64590930D01*
X117284500Y-62992000D01*
X115685570Y-62992000D01*
X115526820Y-63150750D01*
X115523748Y-64114680D01*
X106213121Y-64114680D01*
X106274157Y-64053645D01*
X106381514Y-64075000D01*
X106644486Y-64075000D01*
X106902405Y-64023696D01*
X107145359Y-63923061D01*
X107364013Y-63776962D01*
X107549962Y-63591013D01*
X107696061Y-63372359D01*
X107763000Y-63210754D01*
X107829939Y-63372359D01*
X107976038Y-63591013D01*
X108161987Y-63776962D01*
X108380641Y-63923061D01*
X108623595Y-64023696D01*
X108881514Y-64075000D01*
X109144486Y-64075000D01*
X109402405Y-64023696D01*
X109645359Y-63923061D01*
X109864013Y-63776962D01*
X110049962Y-63591013D01*
X110196061Y-63372359D01*
X110296696Y-63129405D01*
X110348000Y-62871486D01*
X110348000Y-62608514D01*
X110296696Y-62350595D01*
X110196061Y-62107641D01*
X110049962Y-61888987D01*
X109864013Y-61703038D01*
X109732733Y-61615320D01*
X115523748Y-61615320D01*
X115526820Y-62579250D01*
X115685570Y-62738000D01*
X117284500Y-62738000D01*
X117284500Y-61139070D01*
X117538500Y-61139070D01*
X117538500Y-62738000D01*
X119137430Y-62738000D01*
X119296180Y-62579250D01*
X119299252Y-61615320D01*
X119286992Y-61490838D01*
X119250682Y-61371140D01*
X119191717Y-61260826D01*
X119112365Y-61164135D01*
X119015674Y-61084783D01*
X118905360Y-61025818D01*
X118785662Y-60989508D01*
X118661180Y-60977248D01*
X117697250Y-60980320D01*
X117538500Y-61139070D01*
X117284500Y-61139070D01*
X117125750Y-60980320D01*
X116161820Y-60977248D01*
X116037338Y-60989508D01*
X115917640Y-61025818D01*
X115807326Y-61084783D01*
X115710635Y-61164135D01*
X115631283Y-61260826D01*
X115572318Y-61371140D01*
X115536008Y-61490838D01*
X115523748Y-61615320D01*
X109732733Y-61615320D01*
X109645359Y-61556939D01*
X109402405Y-61456304D01*
X109144486Y-61405000D01*
X108881514Y-61405000D01*
X108623595Y-61456304D01*
X108380641Y-61556939D01*
X108161987Y-61703038D01*
X107976038Y-61888987D01*
X107829939Y-62107641D01*
X107763000Y-62269246D01*
X107696061Y-62107641D01*
X107549962Y-61888987D01*
X107364013Y-61703038D01*
X107145359Y-61556939D01*
X106902405Y-61456304D01*
X106644486Y-61405000D01*
X106381514Y-61405000D01*
X106123595Y-61456304D01*
X105880641Y-61556939D01*
X105661987Y-61703038D01*
X105476038Y-61888987D01*
X105329939Y-62107641D01*
X105263000Y-62269246D01*
X105196061Y-62107641D01*
X105049962Y-61888987D01*
X104864013Y-61703038D01*
X104645359Y-61556939D01*
X104402405Y-61456304D01*
X104144486Y-61405000D01*
X103881514Y-61405000D01*
X103623595Y-61456304D01*
X103380641Y-61556939D01*
X103161987Y-61703038D01*
X102976038Y-61888987D01*
X102829939Y-62107641D01*
X102729304Y-62350595D01*
X102678000Y-62608514D01*
X102678000Y-62871486D01*
X102729304Y-63129405D01*
X102829939Y-63372359D01*
X102976038Y-63591013D01*
X103014025Y-63629000D01*
X102335833Y-63629000D01*
X102298500Y-63625323D01*
X102261167Y-63629000D01*
X102149514Y-63639997D01*
X102006253Y-63683454D01*
X101874224Y-63754026D01*
X101758499Y-63848999D01*
X101734701Y-63877997D01*
X91895498Y-73717201D01*
X91866500Y-73740999D01*
X91842702Y-73769997D01*
X91842701Y-73769998D01*
X91771526Y-73856724D01*
X91700954Y-73988754D01*
X91657498Y-74132015D01*
X91642824Y-74281000D01*
X91646501Y-74318333D01*
X91646500Y-104262159D01*
X91515965Y-104349380D01*
X91321380Y-104543965D01*
X91168495Y-104772773D01*
X91063186Y-105027010D01*
X91009500Y-105296908D01*
X90660000Y-105296908D01*
X90660000Y-67700881D01*
X92478724Y-67700881D01*
X92838912Y-68190548D01*
X93502882Y-68550849D01*
X94224385Y-68774694D01*
X94975695Y-68853480D01*
X95727938Y-68784178D01*
X96452208Y-68569452D01*
X97120670Y-68217555D01*
X97161088Y-68190548D01*
X97521276Y-67700881D01*
X95000000Y-65179605D01*
X92478724Y-67700881D01*
X90660000Y-67700881D01*
X90660000Y-67024488D01*
X90731439Y-66063158D01*
X90938769Y-65146894D01*
X91198646Y-64478621D01*
X91146520Y-64975695D01*
X91215822Y-65727938D01*
X91430548Y-66452208D01*
X91782445Y-67120670D01*
X91809452Y-67161088D01*
X92299119Y-67521276D01*
X94820395Y-65000000D01*
X95179605Y-65000000D01*
X97700881Y-67521276D01*
X98190548Y-67161088D01*
X98550849Y-66497118D01*
X98774694Y-65775615D01*
X98853480Y-65024305D01*
X98784178Y-64272062D01*
X98569452Y-63547792D01*
X98217555Y-62879330D01*
X98190548Y-62838912D01*
X97700881Y-62478724D01*
X95179605Y-65000000D01*
X94820395Y-65000000D01*
X94806253Y-64985858D01*
X94985858Y-64806253D01*
X95000000Y-64820395D01*
X97521276Y-62299119D01*
X97161088Y-61809452D01*
X96497118Y-61449151D01*
X95775615Y-61225306D01*
X95024305Y-61146520D01*
X94476299Y-61197006D01*
X94625677Y-61123341D01*
X95520376Y-60836946D01*
X96457579Y-60684311D01*
X97014404Y-60660000D01*
X142975512Y-60660000D01*
X143936842Y-60731439D01*
G37*
X143936842Y-60731439D02*
X144853106Y-60938769D01*
X145521379Y-61198646D01*
X145024305Y-61146520D01*
X144272062Y-61215822D01*
X143547792Y-61430548D01*
X142879330Y-61782445D01*
X142838912Y-61809452D01*
X142478724Y-62299119D01*
X145000000Y-64820395D01*
X145014143Y-64806253D01*
X145193748Y-64985858D01*
X145179605Y-65000000D01*
X147700881Y-67521276D01*
X148190548Y-67161088D01*
X148550849Y-66497118D01*
X148774694Y-65775615D01*
X148853480Y-65024305D01*
X148802994Y-64476299D01*
X148876659Y-64625677D01*
X149163054Y-65520376D01*
X149315689Y-66457579D01*
X149340001Y-67014427D01*
X149340000Y-112975512D01*
X149268561Y-113936841D01*
X149061231Y-114853106D01*
X148801354Y-115521379D01*
X148853480Y-115024305D01*
X148784178Y-114272062D01*
X148569452Y-113547792D01*
X148217555Y-112879330D01*
X148190548Y-112838912D01*
X147700881Y-112478724D01*
X145179605Y-115000000D01*
X145193748Y-115014143D01*
X145014143Y-115193748D01*
X145000000Y-115179605D01*
X142478724Y-117700881D01*
X142838912Y-118190548D01*
X143502882Y-118550849D01*
X144224385Y-118774694D01*
X144975695Y-118853480D01*
X145523701Y-118802994D01*
X145374323Y-118876659D01*
X144479624Y-119163054D01*
X143542414Y-119315689D01*
X142985595Y-119340000D01*
X141558633Y-119340000D01*
X141592390Y-119289946D01*
X141686493Y-119065496D01*
X141735000Y-118827000D01*
X141735000Y-118477000D01*
X138127000Y-118477000D01*
X138127000Y-118497000D01*
X137873000Y-118497000D01*
X137873000Y-118477000D01*
X136127000Y-118477000D01*
X136127000Y-118497000D01*
X135873000Y-118497000D01*
X135873000Y-118477000D01*
X132265000Y-118477000D01*
X132265000Y-118827000D01*
X132313507Y-119065496D01*
X132407610Y-119289946D01*
X132441367Y-119340000D01*
X97024488Y-119340000D01*
X96063159Y-119268561D01*
X95146894Y-119061231D01*
X94478621Y-118801354D01*
X94975695Y-118853480D01*
X95727938Y-118784178D01*
X96452208Y-118569452D01*
X97120670Y-118217555D01*
X97161088Y-118190548D01*
X97521276Y-117700881D01*
X95000000Y-115179605D01*
X94985858Y-115193748D01*
X94806253Y-115014143D01*
X94820395Y-115000000D01*
X95179605Y-115000000D01*
X97700881Y-117521276D01*
X98190548Y-117161088D01*
X98550849Y-116497118D01*
X98627516Y-116250000D01*
X118611928Y-116250000D01*
X118624188Y-116374482D01*
X118660498Y-116494180D01*
X118719463Y-116604494D01*
X118798815Y-116701185D01*
X118895506Y-116780537D01*
X119005820Y-116839502D01*
X119125518Y-116875812D01*
X119250000Y-116888072D01*
X120714250Y-116885000D01*
X120873000Y-116726250D01*
X120873000Y-114627000D01*
X121127000Y-114627000D01*
X121127000Y-116726250D01*
X121285750Y-116885000D01*
X122750000Y-116888072D01*
X122874482Y-116875812D01*
X122994180Y-116839502D01*
X123104494Y-116780537D01*
X123201185Y-116701185D01*
X123280537Y-116604494D01*
X123339502Y-116494180D01*
X123375812Y-116374482D01*
X123388072Y-116250000D01*
X123385000Y-114785750D01*
X123226250Y-114627000D01*
X121127000Y-114627000D01*
X120873000Y-114627000D01*
X118773750Y-114627000D01*
X118615000Y-114785750D01*
X118611928Y-116250000D01*
X98627516Y-116250000D01*
X98774694Y-115775615D01*
X98853480Y-115024305D01*
X98784178Y-114272062D01*
X98569452Y-113547792D01*
X98217555Y-112879330D01*
X98190548Y-112838912D01*
X97700881Y-112478724D01*
X95179605Y-115000000D01*
X94820395Y-115000000D01*
X92299119Y-112478724D01*
X91809452Y-112838912D01*
X91449151Y-113502882D01*
X91225306Y-114224385D01*
X91146520Y-114975695D01*
X91197006Y-115523701D01*
X91123341Y-115374323D01*
X90836946Y-114479624D01*
X90684311Y-113542414D01*
X90660000Y-112985595D01*
X90660000Y-112299119D01*
X92478724Y-112299119D01*
X95000000Y-114820395D01*
X97521276Y-112299119D01*
X97161088Y-111809452D01*
X96926521Y-111682165D01*
X104102000Y-111682165D01*
X104102000Y-111964835D01*
X104157147Y-112242074D01*
X104265320Y-112503227D01*
X104422363Y-112738259D01*
X104622241Y-112938137D01*
X104857273Y-113095180D01*
X105118426Y-113203353D01*
X105395665Y-113258500D01*
X105678335Y-113258500D01*
X105955574Y-113203353D01*
X106216727Y-113095180D01*
X106451759Y-112938137D01*
X106651637Y-112738259D01*
X106808680Y-112503227D01*
X106916853Y-112242074D01*
X106972000Y-111964835D01*
X106972000Y-111682165D01*
X106916853Y-111404926D01*
X106808680Y-111143773D01*
X106651637Y-110908741D01*
X106451759Y-110708863D01*
X106216727Y-110551820D01*
X105955574Y-110443647D01*
X105678335Y-110388500D01*
X105395665Y-110388500D01*
X105118426Y-110443647D01*
X104857273Y-110551820D01*
X104622241Y-110708863D01*
X104422363Y-110908741D01*
X104265320Y-111143773D01*
X104157147Y-111404926D01*
X104102000Y-111682165D01*
X96926521Y-111682165D01*
X96497118Y-111449151D01*
X95775615Y-111225306D01*
X95024305Y-111146520D01*
X94272062Y-111215822D01*
X93547792Y-111430548D01*
X92879330Y-111782445D01*
X92838912Y-111809452D01*
X92478724Y-112299119D01*
X90660000Y-112299119D01*
X90660000Y-107942408D01*
X104333000Y-107942408D01*
X104333000Y-108217592D01*
X104386686Y-108487490D01*
X104491995Y-108741727D01*
X104644880Y-108970535D01*
X104839465Y-109165120D01*
X105068273Y-109318005D01*
X105322510Y-109423314D01*
X105592408Y-109477000D01*
X105867592Y-109477000D01*
X106137490Y-109423314D01*
X106391727Y-109318005D01*
X106620535Y-109165120D01*
X106740090Y-109045565D01*
X107484040Y-109045565D01*
X107551020Y-109285656D01*
X107800048Y-109402756D01*
X108067135Y-109469023D01*
X108342017Y-109481910D01*
X108614133Y-109440922D01*
X108873023Y-109347636D01*
X108988980Y-109285656D01*
X109055960Y-109045565D01*
X108270000Y-108259605D01*
X107484040Y-109045565D01*
X106740090Y-109045565D01*
X106815120Y-108970535D01*
X106968005Y-108741727D01*
X106997692Y-108670057D01*
X107002364Y-108683023D01*
X107064344Y-108798980D01*
X107304435Y-108865960D01*
X108090395Y-108080000D01*
X108449605Y-108080000D01*
X109235565Y-108865960D01*
X109475656Y-108798980D01*
X109592756Y-108549952D01*
X109659023Y-108282865D01*
X109671910Y-108007983D01*
X109630922Y-107735867D01*
X109537636Y-107476977D01*
X109475656Y-107361020D01*
X109235565Y-107294040D01*
X108449605Y-108080000D01*
X108090395Y-108080000D01*
X107304435Y-107294040D01*
X107064344Y-107361020D01*
X107000515Y-107496760D01*
X106968005Y-107418273D01*
X106815120Y-107189465D01*
X106740090Y-107114435D01*
X107484040Y-107114435D01*
X108270000Y-107900395D01*
X109055960Y-107114435D01*
X108988980Y-106874344D01*
X108739952Y-106757244D01*
X108472865Y-106690977D01*
X108197983Y-106678090D01*
X107925867Y-106719078D01*
X107666977Y-106812364D01*
X107551020Y-106874344D01*
X107484040Y-107114435D01*
X106740090Y-107114435D01*
X106620535Y-106994880D01*
X106391727Y-106841995D01*
X106137490Y-106736686D01*
X105867592Y-106683000D01*
X105592408Y-106683000D01*
X105322510Y-106736686D01*
X105068273Y-106841995D01*
X104839465Y-106994880D01*
X104644880Y-107189465D01*
X104491995Y-107418273D01*
X104386686Y-107672510D01*
X104333000Y-107942408D01*
X90660000Y-107942408D01*
X90660000Y-105296908D01*
X91009500Y-105296908D01*
X91009500Y-105572092D01*
X91063186Y-105841990D01*
X91168495Y-106096227D01*
X91321380Y-106325035D01*
X91515965Y-106519620D01*
X91744773Y-106672505D01*
X91999010Y-106777814D01*
X92268908Y-106831500D01*
X92544092Y-106831500D01*
X92813990Y-106777814D01*
X93068227Y-106672505D01*
X93297035Y-106519620D01*
X93416590Y-106400065D01*
X94160540Y-106400065D01*
X94227520Y-106640156D01*
X94476548Y-106757256D01*
X94743635Y-106823523D01*
X95018517Y-106836410D01*
X95290633Y-106795422D01*
X95549523Y-106702136D01*
X95665480Y-106640156D01*
X95732460Y-106400065D01*
X94946500Y-105614105D01*
X94160540Y-106400065D01*
X93416590Y-106400065D01*
X93491620Y-106325035D01*
X93644505Y-106096227D01*
X93674192Y-106024557D01*
X93678864Y-106037523D01*
X93740844Y-106153480D01*
X93980935Y-106220460D01*
X94766895Y-105434500D01*
X95126105Y-105434500D01*
X95912065Y-106220460D01*
X96152156Y-106153480D01*
X96269256Y-105904452D01*
X96335523Y-105637365D01*
X96348410Y-105362483D01*
X96307422Y-105090367D01*
X96214136Y-104831477D01*
X96152156Y-104715520D01*
X95912065Y-104648540D01*
X95126105Y-105434500D01*
X94766895Y-105434500D01*
X93980935Y-104648540D01*
X93740844Y-104715520D01*
X93677015Y-104851260D01*
X93644505Y-104772773D01*
X93491620Y-104543965D01*
X93416590Y-104468935D01*
X94160540Y-104468935D01*
X94946500Y-105254895D01*
X95732460Y-104468935D01*
X95665480Y-104228844D01*
X95416452Y-104111744D01*
X95149365Y-104045477D01*
X94874483Y-104032590D01*
X94602367Y-104073578D01*
X94343477Y-104166864D01*
X94227520Y-104228844D01*
X94160540Y-104468935D01*
X93416590Y-104468935D01*
X93297035Y-104349380D01*
X93166500Y-104262159D01*
X93166500Y-102853740D01*
X100435000Y-102853740D01*
X100435000Y-103146260D01*
X100492068Y-103433158D01*
X100604010Y-103703411D01*
X100766525Y-103946632D01*
X100973368Y-104153475D01*
X101216589Y-104315990D01*
X101486842Y-104427932D01*
X101773740Y-104485000D01*
X102066260Y-104485000D01*
X102353158Y-104427932D01*
X102623411Y-104315990D01*
X102866632Y-104153475D01*
X103073475Y-103946632D01*
X103235990Y-103703411D01*
X103347932Y-103433158D01*
X103405000Y-103146260D01*
X103405000Y-102853740D01*
X103382471Y-102740475D01*
X104365000Y-102740475D01*
X104365000Y-103259525D01*
X104466261Y-103768601D01*
X104664893Y-104248141D01*
X104953262Y-104679715D01*
X105320285Y-105046738D01*
X105751859Y-105335107D01*
X106231399Y-105533739D01*
X106740475Y-105635000D01*
X107259525Y-105635000D01*
X107768601Y-105533739D01*
X108248141Y-105335107D01*
X108679715Y-105046738D01*
X109046738Y-104679715D01*
X109335107Y-104248141D01*
X109533739Y-103768601D01*
X109635000Y-103259525D01*
X109635000Y-102853740D01*
X110595000Y-102853740D01*
X110595000Y-103146260D01*
X110652068Y-103433158D01*
X110764010Y-103703411D01*
X110926525Y-103946632D01*
X111133368Y-104153475D01*
X111376589Y-104315990D01*
X111646842Y-104427932D01*
X111933740Y-104485000D01*
X112226260Y-104485000D01*
X112513158Y-104427932D01*
X112783411Y-104315990D01*
X113026632Y-104153475D01*
X113233475Y-103946632D01*
X113286001Y-103868022D01*
X113286000Y-110388500D01*
X113015665Y-110388500D01*
X112738426Y-110443647D01*
X112477273Y-110551820D01*
X112242241Y-110708863D01*
X112042363Y-110908741D01*
X111885320Y-111143773D01*
X111777147Y-111404926D01*
X111722000Y-111682165D01*
X111722000Y-111964835D01*
X111777147Y-112242074D01*
X111885320Y-112503227D01*
X112042363Y-112738259D01*
X112242241Y-112938137D01*
X112477273Y-113095180D01*
X112738426Y-113203353D01*
X113015665Y-113258500D01*
X113298335Y-113258500D01*
X113575574Y-113203353D01*
X113836727Y-113095180D01*
X113911928Y-113044932D01*
X113911928Y-113250000D01*
X113924188Y-113374482D01*
X113960498Y-113494180D01*
X114019463Y-113604494D01*
X114098815Y-113701185D01*
X114195506Y-113780537D01*
X114305820Y-113839502D01*
X114425518Y-113875812D01*
X114550000Y-113888072D01*
X118050000Y-113888072D01*
X118174482Y-113875812D01*
X118294180Y-113839502D01*
X118404494Y-113780537D01*
X118501185Y-113701185D01*
X118580537Y-113604494D01*
X118613591Y-113542655D01*
X118615000Y-114214250D01*
X118773750Y-114373000D01*
X120873000Y-114373000D01*
X120873000Y-112273750D01*
X121127000Y-112273750D01*
X121127000Y-114373000D01*
X123226250Y-114373000D01*
X123385000Y-114214250D01*
X123388072Y-112750000D01*
X123375812Y-112625518D01*
X123339502Y-112505820D01*
X123280537Y-112395506D01*
X123201185Y-112298815D01*
X123104494Y-112219463D01*
X122994180Y-112160498D01*
X122874482Y-112124188D01*
X122750000Y-112111928D01*
X121285750Y-112115000D01*
X121127000Y-112273750D01*
X120873000Y-112273750D01*
X120714250Y-112115000D01*
X119250000Y-112111928D01*
X119125518Y-112124188D01*
X119005820Y-112160498D01*
X118895506Y-112219463D01*
X118798815Y-112298815D01*
X118719463Y-112395506D01*
X118688072Y-112454233D01*
X118688072Y-110545767D01*
X118719463Y-110604494D01*
X118798815Y-110701185D01*
X118895506Y-110780537D01*
X119005820Y-110839502D01*
X119125518Y-110875812D01*
X119250000Y-110888072D01*
X122750000Y-110888072D01*
X122874482Y-110875812D01*
X122994180Y-110839502D01*
X123104494Y-110780537D01*
X123201185Y-110701185D01*
X123280537Y-110604494D01*
X123339502Y-110494180D01*
X123375812Y-110374482D01*
X123388072Y-110250000D01*
X123388072Y-110002320D01*
X126064748Y-110002320D01*
X126064748Y-112501680D01*
X126077008Y-112626162D01*
X126113318Y-112745860D01*
X126172283Y-112856174D01*
X126251635Y-112952865D01*
X126348326Y-113032217D01*
X126458640Y-113091182D01*
X126578338Y-113127492D01*
X126702820Y-113139752D01*
X129202180Y-113139752D01*
X129326662Y-113127492D01*
X129446360Y-113091182D01*
X129556674Y-113032217D01*
X129653365Y-112952865D01*
X129732717Y-112856174D01*
X129791682Y-112745860D01*
X129827992Y-112626162D01*
X129840252Y-112501680D01*
X129840252Y-111066375D01*
X129877820Y-111066375D01*
X129877820Y-111437625D01*
X129950247Y-111801741D01*
X130092318Y-112144731D01*
X130298574Y-112453413D01*
X130561087Y-112715926D01*
X130869769Y-112922182D01*
X131212759Y-113064253D01*
X131576875Y-113136680D01*
X131948125Y-113136680D01*
X132312241Y-113064253D01*
X132444972Y-113009274D01*
X132773381Y-113337683D01*
X132797180Y-113366682D01*
X132912905Y-113461655D01*
X133044934Y-113532227D01*
X133188195Y-113575684D01*
X133299848Y-113586681D01*
X133299857Y-113586681D01*
X133337180Y-113590357D01*
X133374503Y-113586681D01*
X134786880Y-113586681D01*
X135572998Y-114372800D01*
X135572998Y-114444748D01*
X135468250Y-114340000D01*
X135365526Y-114351259D01*
X135246424Y-114389479D01*
X135137067Y-114450200D01*
X135041657Y-114531088D01*
X134963861Y-114629036D01*
X134906669Y-114740279D01*
X134872278Y-114860543D01*
X134862010Y-114985205D01*
X134865000Y-115364250D01*
X135023750Y-115523000D01*
X135511928Y-115523000D01*
X135511928Y-115777000D01*
X135023750Y-115777000D01*
X134865000Y-115935750D01*
X134862010Y-116314795D01*
X134872278Y-116439457D01*
X134906669Y-116559721D01*
X134963861Y-116670964D01*
X135041657Y-116768912D01*
X135068339Y-116791533D01*
X135005820Y-116810498D01*
X134975000Y-116826972D01*
X134944180Y-116810498D01*
X134824482Y-116774188D01*
X134700000Y-116761928D01*
X134385750Y-116765000D01*
X134227000Y-116923750D01*
X134227000Y-116999537D01*
X134080533Y-116902579D01*
X133862690Y-116813440D01*
X133814250Y-116765000D01*
X133500000Y-116761928D01*
X133468808Y-116765000D01*
X133372998Y-116765000D01*
X133372998Y-116774952D01*
X133255820Y-116810498D01*
X133218735Y-116830321D01*
X133182391Y-116806538D01*
X133144718Y-116810409D01*
X132919467Y-116902579D01*
X132716526Y-117036922D01*
X132543693Y-117208275D01*
X132407610Y-117410054D01*
X132313507Y-117634504D01*
X132265000Y-117873000D01*
X132265000Y-118223000D01*
X135873000Y-118223000D01*
X135873000Y-118203000D01*
X136127000Y-118203000D01*
X136127000Y-118223000D01*
X137873000Y-118223000D01*
X137873000Y-118203000D01*
X138127000Y-118203000D01*
X138127000Y-118223000D01*
X141735000Y-118223000D01*
X141735000Y-117873000D01*
X141686493Y-117634504D01*
X141592390Y-117410054D01*
X141456307Y-117208275D01*
X141283474Y-117036922D01*
X141080533Y-116902579D01*
X140855282Y-116810409D01*
X140817609Y-116806538D01*
X140781265Y-116830321D01*
X140744180Y-116810498D01*
X140627002Y-116774952D01*
X140627002Y-116765000D01*
X140531192Y-116765000D01*
X140500000Y-116761928D01*
X140185750Y-116765000D01*
X140137310Y-116813440D01*
X139919467Y-116902579D01*
X139773000Y-116999537D01*
X139773000Y-116923750D01*
X139614250Y-116765000D01*
X139300000Y-116761928D01*
X139175518Y-116774188D01*
X139055820Y-116810498D01*
X139025000Y-116826972D01*
X138994180Y-116810498D01*
X138932261Y-116791715D01*
X138951185Y-116776185D01*
X139030537Y-116679494D01*
X139089502Y-116569180D01*
X139125812Y-116449482D01*
X139138072Y-116325000D01*
X139138072Y-114975695D01*
X141146520Y-114975695D01*
X141215822Y-115727938D01*
X141430548Y-116452208D01*
X141782445Y-117120670D01*
X141809452Y-117161088D01*
X142299119Y-117521276D01*
X144820395Y-115000000D01*
X142299119Y-112478724D01*
X141809452Y-112838912D01*
X141449151Y-113502882D01*
X141225306Y-114224385D01*
X141146520Y-114975695D01*
X139138072Y-114975695D01*
X139138072Y-114975000D01*
X139136882Y-114962919D01*
X141800682Y-112299119D01*
X142478724Y-112299119D01*
X145000000Y-114820395D01*
X147521276Y-112299119D01*
X147161088Y-111809452D01*
X146497118Y-111449151D01*
X145775615Y-111225306D01*
X145024305Y-111146520D01*
X144272062Y-111215822D01*
X143547792Y-111430548D01*
X142879330Y-111782445D01*
X142838912Y-111809452D01*
X142478724Y-112299119D01*
X141800682Y-112299119D01*
X143675302Y-110424500D01*
X144724387Y-110424500D01*
X144870388Y-110643005D01*
X145084195Y-110856812D01*
X145335605Y-111024799D01*
X145614957Y-111140511D01*
X145911516Y-111199500D01*
X146213884Y-111199500D01*
X146510443Y-111140511D01*
X146789795Y-111024799D01*
X147041205Y-110856812D01*
X147255012Y-110643005D01*
X147422999Y-110391595D01*
X147538711Y-110112243D01*
X147597700Y-109815684D01*
X147597700Y-109513316D01*
X147538711Y-109216757D01*
X147422999Y-108937405D01*
X147255012Y-108685995D01*
X147041205Y-108472188D01*
X146789795Y-108304201D01*
X146510443Y-108188489D01*
X146213884Y-108129500D01*
X145911516Y-108129500D01*
X145614957Y-108188489D01*
X145335605Y-108304201D01*
X145084195Y-108472188D01*
X144870388Y-108685995D01*
X144724387Y-108904500D01*
X143397825Y-108904500D01*
X143360500Y-108900824D01*
X143323175Y-108904500D01*
X143323167Y-108904500D01*
X143211514Y-108915497D01*
X143068253Y-108958954D01*
X142936224Y-109029526D01*
X142820499Y-109124499D01*
X142796701Y-109153497D01*
X141201442Y-110748756D01*
X141111289Y-110478849D01*
X140985815Y-110244104D01*
X140695877Y-110118229D01*
X139562105Y-111252000D01*
X139576248Y-111266143D01*
X139396643Y-111445748D01*
X139382500Y-111431605D01*
X138248729Y-112565377D01*
X138374604Y-112855315D01*
X138706762Y-113021139D01*
X138881361Y-113068838D01*
X138410000Y-113540199D01*
X138410000Y-113366825D01*
X138413676Y-113329500D01*
X138410000Y-113292175D01*
X138410000Y-113292167D01*
X138399003Y-113180514D01*
X138355546Y-113037253D01*
X138284974Y-112905224D01*
X138190001Y-112789499D01*
X138161004Y-112765702D01*
X137329774Y-111934472D01*
X137384753Y-111801741D01*
X137457180Y-111437625D01*
X137457180Y-111304719D01*
X137489435Y-111304719D01*
X137536095Y-111673025D01*
X137653711Y-112025151D01*
X137779185Y-112259896D01*
X138069123Y-112385771D01*
X139202895Y-111252000D01*
X138069123Y-110118229D01*
X137779185Y-110244104D01*
X137613361Y-110576262D01*
X137515525Y-110934387D01*
X137489435Y-111304719D01*
X137457180Y-111304719D01*
X137457180Y-111066375D01*
X137384753Y-110702259D01*
X137242682Y-110359269D01*
X137036426Y-110050587D01*
X136924462Y-109938623D01*
X138248729Y-109938623D01*
X139382500Y-111072395D01*
X140516271Y-109938623D01*
X140390396Y-109648685D01*
X140058238Y-109482861D01*
X139700113Y-109385025D01*
X139329781Y-109358935D01*
X138961475Y-109405595D01*
X138609349Y-109523211D01*
X138374604Y-109648685D01*
X138248729Y-109938623D01*
X136924462Y-109938623D01*
X136773913Y-109788074D01*
X136465231Y-109581818D01*
X136122241Y-109439747D01*
X135758125Y-109367320D01*
X135386875Y-109367320D01*
X135022759Y-109439747D01*
X134679769Y-109581818D01*
X134371087Y-109788074D01*
X134108574Y-110050587D01*
X133902318Y-110359269D01*
X133760247Y-110702259D01*
X133687820Y-111066375D01*
X133687820Y-111437625D01*
X133760247Y-111801741D01*
X133869989Y-112066681D01*
X133651983Y-112066681D01*
X133519774Y-111934472D01*
X133574753Y-111801741D01*
X133647180Y-111437625D01*
X133647180Y-111066375D01*
X133574753Y-110702259D01*
X133432682Y-110359269D01*
X133226426Y-110050587D01*
X132963913Y-109788074D01*
X132655231Y-109581818D01*
X132312241Y-109439747D01*
X132167381Y-109410933D01*
X132391727Y-109318005D01*
X132620535Y-109165120D01*
X132740090Y-109045565D01*
X133484040Y-109045565D01*
X133551020Y-109285656D01*
X133800048Y-109402756D01*
X134067135Y-109469023D01*
X134342017Y-109481910D01*
X134614133Y-109440922D01*
X134873023Y-109347636D01*
X134988980Y-109285656D01*
X135055960Y-109045565D01*
X134270000Y-108259605D01*
X133484040Y-109045565D01*
X132740090Y-109045565D01*
X132815120Y-108970535D01*
X132968005Y-108741727D01*
X132997692Y-108670057D01*
X133002364Y-108683023D01*
X133064344Y-108798980D01*
X133304435Y-108865960D01*
X134090395Y-108080000D01*
X134449605Y-108080000D01*
X135235565Y-108865960D01*
X135475656Y-108798980D01*
X135592756Y-108549952D01*
X135659023Y-108282865D01*
X135671910Y-108007983D01*
X135630922Y-107735867D01*
X135537636Y-107476977D01*
X135475656Y-107361020D01*
X135235565Y-107294040D01*
X134449605Y-108080000D01*
X134090395Y-108080000D01*
X133304435Y-107294040D01*
X133064344Y-107361020D01*
X133000515Y-107496760D01*
X132968005Y-107418273D01*
X132815120Y-107189465D01*
X132740090Y-107114435D01*
X133484040Y-107114435D01*
X134270000Y-107900395D01*
X135055960Y-107114435D01*
X134988980Y-106874344D01*
X134739952Y-106757244D01*
X134472865Y-106690977D01*
X134197983Y-106678090D01*
X133925867Y-106719078D01*
X133666977Y-106812364D01*
X133551020Y-106874344D01*
X133484040Y-107114435D01*
X132740090Y-107114435D01*
X132620535Y-106994880D01*
X132391727Y-106841995D01*
X132137490Y-106736686D01*
X131867592Y-106683000D01*
X131592408Y-106683000D01*
X131322510Y-106736686D01*
X131068273Y-106841995D01*
X130839465Y-106994880D01*
X130644880Y-107189465D01*
X130491995Y-107418273D01*
X130386686Y-107672510D01*
X130333000Y-107942408D01*
X130333000Y-108217592D01*
X130386686Y-108487490D01*
X130491995Y-108741727D01*
X130644880Y-108970535D01*
X130839465Y-109165120D01*
X131068273Y-109318005D01*
X131313706Y-109419667D01*
X131212759Y-109439747D01*
X130869769Y-109581818D01*
X130561087Y-109788074D01*
X130298574Y-110050587D01*
X130092318Y-110359269D01*
X129950247Y-110702259D01*
X129877820Y-111066375D01*
X129840252Y-111066375D01*
X129840252Y-110002320D01*
X129827992Y-109877838D01*
X129791682Y-109758140D01*
X129732717Y-109647826D01*
X129653365Y-109551135D01*
X129556674Y-109471783D01*
X129446360Y-109412818D01*
X129326662Y-109376508D01*
X129202180Y-109364248D01*
X126702820Y-109364248D01*
X126578338Y-109376508D01*
X126458640Y-109412818D01*
X126348326Y-109471783D01*
X126251635Y-109551135D01*
X126172283Y-109647826D01*
X126113318Y-109758140D01*
X126077008Y-109877838D01*
X126064748Y-110002320D01*
X123388072Y-110002320D01*
X123388072Y-106750000D01*
X123375812Y-106625518D01*
X123339502Y-106505820D01*
X123280537Y-106395506D01*
X123201185Y-106298815D01*
X123104494Y-106219463D01*
X122994180Y-106160498D01*
X122874482Y-106124188D01*
X122750000Y-106111928D01*
X119832889Y-106111928D01*
X120000812Y-105944005D01*
X120168799Y-105692595D01*
X120284511Y-105413243D01*
X120343500Y-105116684D01*
X120343500Y-104814316D01*
X120284511Y-104517757D01*
X120168799Y-104238405D01*
X120000812Y-103986995D01*
X119787005Y-103773188D01*
X119535595Y-103605201D01*
X119256243Y-103489489D01*
X118959684Y-103430500D01*
X118657316Y-103430500D01*
X118360757Y-103489489D01*
X118081405Y-103605201D01*
X117829995Y-103773188D01*
X117616188Y-103986995D01*
X117448201Y-104238405D01*
X117332489Y-104517757D01*
X117273500Y-104814316D01*
X117273500Y-105116684D01*
X117332489Y-105413243D01*
X117448201Y-105692595D01*
X117616188Y-105944005D01*
X117829995Y-106157812D01*
X118081405Y-106325799D01*
X118360757Y-106441511D01*
X118657316Y-106500500D01*
X118663342Y-106500500D01*
X118660498Y-106505820D01*
X118624188Y-106625518D01*
X118611928Y-106750000D01*
X118611928Y-109454233D01*
X118580537Y-109395506D01*
X118501185Y-109298815D01*
X118404494Y-109219463D01*
X118294180Y-109160498D01*
X118174482Y-109124188D01*
X118050000Y-109111928D01*
X114806000Y-109111928D01*
X114806000Y-102853740D01*
X126435000Y-102853740D01*
X126435000Y-103146260D01*
X126492068Y-103433158D01*
X126604010Y-103703411D01*
X126766525Y-103946632D01*
X126973368Y-104153475D01*
X127216589Y-104315990D01*
X127486842Y-104427932D01*
X127773740Y-104485000D01*
X128066260Y-104485000D01*
X128353158Y-104427932D01*
X128623411Y-104315990D01*
X128866632Y-104153475D01*
X129073475Y-103946632D01*
X129235990Y-103703411D01*
X129347932Y-103433158D01*
X129405000Y-103146260D01*
X129405000Y-102853740D01*
X129382471Y-102740475D01*
X130365000Y-102740475D01*
X130365000Y-103259525D01*
X130466261Y-103768601D01*
X130664893Y-104248141D01*
X130953262Y-104679715D01*
X131320285Y-105046738D01*
X131751859Y-105335107D01*
X132231399Y-105533739D01*
X132740475Y-105635000D01*
X133259525Y-105635000D01*
X133768601Y-105533739D01*
X134248141Y-105335107D01*
X134679715Y-105046738D01*
X135046738Y-104679715D01*
X135335107Y-104248141D01*
X135533739Y-103768601D01*
X135635000Y-103259525D01*
X135635000Y-102853740D01*
X136595000Y-102853740D01*
X136595000Y-103146260D01*
X136652068Y-103433158D01*
X136764010Y-103703411D01*
X136926525Y-103946632D01*
X137133368Y-104153475D01*
X137376589Y-104315990D01*
X137646842Y-104427932D01*
X137933740Y-104485000D01*
X138226260Y-104485000D01*
X138513158Y-104427932D01*
X138783411Y-104315990D01*
X139026632Y-104153475D01*
X139233475Y-103946632D01*
X139395990Y-103703411D01*
X139507932Y-103433158D01*
X139565000Y-103146260D01*
X139565000Y-102853740D01*
X139507932Y-102566842D01*
X139395990Y-102296589D01*
X139233475Y-102053368D01*
X139026632Y-101846525D01*
X138783411Y-101684010D01*
X138513158Y-101572068D01*
X138226260Y-101515000D01*
X137933740Y-101515000D01*
X137646842Y-101572068D01*
X137376589Y-101684010D01*
X137133368Y-101846525D01*
X136926525Y-102053368D01*
X136764010Y-102296589D01*
X136652068Y-102566842D01*
X136595000Y-102853740D01*
X135635000Y-102853740D01*
X135635000Y-102740475D01*
X135533739Y-102231399D01*
X135335107Y-101751859D01*
X135046738Y-101320285D01*
X134679715Y-100953262D01*
X134248141Y-100664893D01*
X133768601Y-100466261D01*
X133259525Y-100365000D01*
X132740475Y-100365000D01*
X132231399Y-100466261D01*
X131751859Y-100664893D01*
X131320285Y-100953262D01*
X130953262Y-101320285D01*
X130664893Y-101751859D01*
X130466261Y-102231399D01*
X130365000Y-102740475D01*
X129382471Y-102740475D01*
X129347932Y-102566842D01*
X129235990Y-102296589D01*
X129168110Y-102195000D01*
X129360883Y-102195000D01*
X129696081Y-102128325D01*
X130011831Y-101997537D01*
X130295998Y-101807663D01*
X130537663Y-101565998D01*
X130727537Y-101281831D01*
X130858325Y-100966081D01*
X130925000Y-100630883D01*
X130925000Y-100289117D01*
X130858325Y-99953919D01*
X130727537Y-99638169D01*
X130537663Y-99354002D01*
X130310373Y-99126712D01*
X134512893Y-99126712D01*
X134620726Y-99401338D01*
X134927384Y-99552216D01*
X135257585Y-99640369D01*
X135598639Y-99662409D01*
X135937439Y-99617489D01*
X136260966Y-99507336D01*
X136459274Y-99401338D01*
X136567107Y-99126712D01*
X135540000Y-98099605D01*
X134512893Y-99126712D01*
X130310373Y-99126712D01*
X130295998Y-99112337D01*
X130011831Y-98922463D01*
X129696081Y-98791675D01*
X129360883Y-98725000D01*
X129019117Y-98725000D01*
X128683919Y-98791675D01*
X128368169Y-98922463D01*
X128084002Y-99112337D01*
X127842337Y-99354002D01*
X127652463Y-99638169D01*
X127521675Y-99953919D01*
X127455000Y-100289117D01*
X127455000Y-100630883D01*
X127521675Y-100966081D01*
X127652463Y-101281831D01*
X127808261Y-101515000D01*
X127773740Y-101515000D01*
X127486842Y-101572068D01*
X127216589Y-101684010D01*
X126973368Y-101846525D01*
X126766525Y-102053368D01*
X126604010Y-102296589D01*
X126492068Y-102566842D01*
X126435000Y-102853740D01*
X114806000Y-102853740D01*
X114806000Y-100315665D01*
X122771000Y-100315665D01*
X122771000Y-100598335D01*
X122826147Y-100875574D01*
X122934320Y-101136727D01*
X123091363Y-101371759D01*
X123291241Y-101571637D01*
X123526273Y-101728680D01*
X123787426Y-101836853D01*
X124064665Y-101892000D01*
X124347335Y-101892000D01*
X124624574Y-101836853D01*
X124885727Y-101728680D01*
X125120759Y-101571637D01*
X125320637Y-101371759D01*
X125477680Y-101136727D01*
X125585853Y-100875574D01*
X125641000Y-100598335D01*
X125641000Y-100315665D01*
X125585853Y-100038426D01*
X125477680Y-99777273D01*
X125320637Y-99542241D01*
X125120759Y-99342363D01*
X124885727Y-99185320D01*
X124624574Y-99077147D01*
X124347335Y-99022000D01*
X124064665Y-99022000D01*
X123787426Y-99077147D01*
X123526273Y-99185320D01*
X123291241Y-99342363D01*
X123091363Y-99542241D01*
X122934320Y-99777273D01*
X122826147Y-100038426D01*
X122771000Y-100315665D01*
X114806000Y-100315665D01*
X114806000Y-100208211D01*
X114849937Y-100164274D01*
X114963205Y-99994756D01*
X115041226Y-99806398D01*
X115081000Y-99606439D01*
X115081000Y-99402561D01*
X115041226Y-99202602D01*
X114963205Y-99014244D01*
X114849937Y-98844726D01*
X114705774Y-98700563D01*
X114536256Y-98587295D01*
X114347898Y-98509274D01*
X114147939Y-98469500D01*
X113944061Y-98469500D01*
X113744102Y-98509274D01*
X113555744Y-98587295D01*
X113386226Y-98700563D01*
X113242063Y-98844726D01*
X113128795Y-99014244D01*
X113050774Y-99202602D01*
X113011000Y-99402561D01*
X113011000Y-99606439D01*
X113050774Y-99806398D01*
X113128795Y-99994756D01*
X113242063Y-100164274D01*
X113286001Y-100208212D01*
X113286001Y-102131978D01*
X113233475Y-102053368D01*
X113026632Y-101846525D01*
X112783411Y-101684010D01*
X112513158Y-101572068D01*
X112226260Y-101515000D01*
X111933740Y-101515000D01*
X111646842Y-101572068D01*
X111376589Y-101684010D01*
X111133368Y-101846525D01*
X110926525Y-102053368D01*
X110764010Y-102296589D01*
X110652068Y-102566842D01*
X110595000Y-102853740D01*
X109635000Y-102853740D01*
X109635000Y-102740475D01*
X109533739Y-102231399D01*
X109335107Y-101751859D01*
X109046738Y-101320285D01*
X108679715Y-100953262D01*
X108248141Y-100664893D01*
X107768601Y-100466261D01*
X107259525Y-100365000D01*
X106740475Y-100365000D01*
X106231399Y-100466261D01*
X105751859Y-100664893D01*
X105320285Y-100953262D01*
X104953262Y-101320285D01*
X104664893Y-101751859D01*
X104466261Y-102231399D01*
X104365000Y-102740475D01*
X103382471Y-102740475D01*
X103347932Y-102566842D01*
X103235990Y-102296589D01*
X103168110Y-102195000D01*
X103360883Y-102195000D01*
X103696081Y-102128325D01*
X104011831Y-101997537D01*
X104295998Y-101807663D01*
X104537663Y-101565998D01*
X104727537Y-101281831D01*
X104858325Y-100966081D01*
X104925000Y-100630883D01*
X104925000Y-100289117D01*
X104858325Y-99953919D01*
X104727537Y-99638169D01*
X104537663Y-99354002D01*
X104310373Y-99126712D01*
X108512893Y-99126712D01*
X108620726Y-99401338D01*
X108927384Y-99552216D01*
X109257585Y-99640369D01*
X109598639Y-99662409D01*
X109937439Y-99617489D01*
X110260966Y-99507336D01*
X110459274Y-99401338D01*
X110567107Y-99126712D01*
X109540000Y-98099605D01*
X108512893Y-99126712D01*
X104310373Y-99126712D01*
X104295998Y-99112337D01*
X104011831Y-98922463D01*
X103696081Y-98791675D01*
X103360883Y-98725000D01*
X103019117Y-98725000D01*
X102683919Y-98791675D01*
X102368169Y-98922463D01*
X102084002Y-99112337D01*
X101842337Y-99354002D01*
X101652463Y-99638169D01*
X101521675Y-99953919D01*
X101455000Y-100289117D01*
X101455000Y-100630883D01*
X101521675Y-100966081D01*
X101652463Y-101281831D01*
X101808261Y-101515000D01*
X101773740Y-101515000D01*
X101486842Y-101572068D01*
X101216589Y-101684010D01*
X100973368Y-101846525D01*
X100766525Y-102053368D01*
X100604010Y-102296589D01*
X100492068Y-102566842D01*
X100435000Y-102853740D01*
X93166500Y-102853740D01*
X93166500Y-100315665D01*
X96736000Y-100315665D01*
X96736000Y-100598335D01*
X96791147Y-100875574D01*
X96899320Y-101136727D01*
X97056363Y-101371759D01*
X97256241Y-101571637D01*
X97491273Y-101728680D01*
X97752426Y-101836853D01*
X98029665Y-101892000D01*
X98312335Y-101892000D01*
X98589574Y-101836853D01*
X98850727Y-101728680D01*
X99085759Y-101571637D01*
X99285637Y-101371759D01*
X99442680Y-101136727D01*
X99550853Y-100875574D01*
X99606000Y-100598335D01*
X99606000Y-100315665D01*
X99550853Y-100038426D01*
X99442680Y-99777273D01*
X99285637Y-99542241D01*
X99085759Y-99342363D01*
X98850727Y-99185320D01*
X98589574Y-99077147D01*
X98312335Y-99022000D01*
X98029665Y-99022000D01*
X97752426Y-99077147D01*
X97491273Y-99185320D01*
X97256241Y-99342363D01*
X97056363Y-99542241D01*
X96899320Y-99777273D01*
X96791147Y-100038426D01*
X96736000Y-100315665D01*
X93166500Y-100315665D01*
X93166500Y-97978639D01*
X107797591Y-97978639D01*
X107842511Y-98317439D01*
X107952664Y-98640966D01*
X108058662Y-98839274D01*
X108333288Y-98947107D01*
X109360395Y-97920000D01*
X109719605Y-97920000D01*
X110746712Y-98947107D01*
X111021338Y-98839274D01*
X111172216Y-98532616D01*
X111260369Y-98202415D01*
X111282409Y-97861361D01*
X111237489Y-97522561D01*
X111127336Y-97199034D01*
X111021338Y-97000726D01*
X110746712Y-96892893D01*
X109719605Y-97920000D01*
X109360395Y-97920000D01*
X108333288Y-96892893D01*
X108058662Y-97000726D01*
X107907784Y-97307384D01*
X107819631Y-97637585D01*
X107797591Y-97978639D01*
X93166500Y-97978639D01*
X93166500Y-96713288D01*
X108512893Y-96713288D01*
X109540000Y-97740395D01*
X110567107Y-96713288D01*
X110461959Y-96445500D01*
X117270428Y-96445500D01*
X117270428Y-98245500D01*
X117282688Y-98369982D01*
X117318998Y-98489680D01*
X117377963Y-98599994D01*
X117457315Y-98696685D01*
X117554006Y-98776037D01*
X117664320Y-98835002D01*
X117784018Y-98871312D01*
X117908500Y-98883572D01*
X119708500Y-98883572D01*
X119832982Y-98871312D01*
X119952680Y-98835002D01*
X120062994Y-98776037D01*
X120159685Y-98696685D01*
X120239037Y-98599994D01*
X120298002Y-98489680D01*
X120334312Y-98369982D01*
X120346572Y-98245500D01*
X120346572Y-97978639D01*
X133797591Y-97978639D01*
X133842511Y-98317439D01*
X133952664Y-98640966D01*
X134058662Y-98839274D01*
X134333288Y-98947107D01*
X135360395Y-97920000D01*
X135719605Y-97920000D01*
X136746712Y-98947107D01*
X137021338Y-98839274D01*
X137172216Y-98532616D01*
X137260369Y-98202415D01*
X137282409Y-97861361D01*
X137237489Y-97522561D01*
X137127336Y-97199034D01*
X137021338Y-97000726D01*
X136746712Y-96892893D01*
X135719605Y-97920000D01*
X135360395Y-97920000D01*
X134333288Y-96892893D01*
X134058662Y-97000726D01*
X133907784Y-97307384D01*
X133819631Y-97637585D01*
X133797591Y-97978639D01*
X120346572Y-97978639D01*
X120346572Y-96608993D01*
X121112612Y-96608993D01*
X121178137Y-96847860D01*
X121425116Y-96963760D01*
X121689960Y-97029250D01*
X121962492Y-97041812D01*
X122232238Y-97000965D01*
X122488832Y-96908277D01*
X122601863Y-96847860D01*
X122638778Y-96713288D01*
X134512893Y-96713288D01*
X135540000Y-97740395D01*
X136567107Y-96713288D01*
X136526156Y-96608993D01*
X141332612Y-96608993D01*
X141398137Y-96847860D01*
X141645116Y-96963760D01*
X141909960Y-97029250D01*
X142182492Y-97041812D01*
X142452238Y-97000965D01*
X142708832Y-96908277D01*
X142821863Y-96847860D01*
X142887388Y-96608993D01*
X142110000Y-95831605D01*
X141332612Y-96608993D01*
X136526156Y-96608993D01*
X136459274Y-96438662D01*
X136152616Y-96287784D01*
X135822415Y-96199631D01*
X135481361Y-96177591D01*
X135142561Y-96222511D01*
X134819034Y-96332664D01*
X134620726Y-96438662D01*
X134512893Y-96713288D01*
X122638778Y-96713288D01*
X122667388Y-96608993D01*
X121890000Y-95831605D01*
X121112612Y-96608993D01*
X120346572Y-96608993D01*
X120346572Y-96445500D01*
X120334312Y-96321018D01*
X120298002Y-96201320D01*
X120239037Y-96091006D01*
X120159685Y-95994315D01*
X120062994Y-95914963D01*
X119952680Y-95855998D01*
X119832982Y-95819688D01*
X119708500Y-95807428D01*
X117908500Y-95807428D01*
X117784018Y-95819688D01*
X117664320Y-95855998D01*
X117554006Y-95914963D01*
X117457315Y-95994315D01*
X117377963Y-96091006D01*
X117318998Y-96201320D01*
X117282688Y-96321018D01*
X117270428Y-96445500D01*
X110461959Y-96445500D01*
X110459274Y-96438662D01*
X110152616Y-96287784D01*
X109822415Y-96199631D01*
X109481361Y-96177591D01*
X109142561Y-96222511D01*
X108819034Y-96332664D01*
X108620726Y-96438662D01*
X108512893Y-96713288D01*
X93166500Y-96713288D01*
X93166500Y-95724492D01*
X120500188Y-95724492D01*
X120541035Y-95994238D01*
X120633723Y-96250832D01*
X120694140Y-96363863D01*
X120933007Y-96429388D01*
X121710395Y-95652000D01*
X122069605Y-95652000D01*
X122846993Y-96429388D01*
X123085860Y-96363863D01*
X123201760Y-96116884D01*
X123267250Y-95852040D01*
X123273129Y-95724492D01*
X140720188Y-95724492D01*
X140761035Y-95994238D01*
X140853723Y-96250832D01*
X140914140Y-96363863D01*
X141153007Y-96429388D01*
X141930395Y-95652000D01*
X141153007Y-94874612D01*
X140914140Y-94940137D01*
X140798240Y-95187116D01*
X140732750Y-95451960D01*
X140720188Y-95724492D01*
X123273129Y-95724492D01*
X123279812Y-95579508D01*
X123238965Y-95309762D01*
X123146277Y-95053168D01*
X123085860Y-94940137D01*
X122846993Y-94874612D01*
X122069605Y-95652000D01*
X121710395Y-95652000D01*
X120933007Y-94874612D01*
X120694140Y-94940137D01*
X120578240Y-95187116D01*
X120512750Y-95451960D01*
X120500188Y-95724492D01*
X93166500Y-95724492D01*
X93166500Y-92695665D01*
X96736000Y-92695665D01*
X96736000Y-92978335D01*
X96791147Y-93255574D01*
X96899320Y-93516727D01*
X97056363Y-93751759D01*
X97256241Y-93951637D01*
X97491273Y-94108680D01*
X97752426Y-94216853D01*
X98029665Y-94272000D01*
X98312335Y-94272000D01*
X98589574Y-94216853D01*
X98850727Y-94108680D01*
X99085759Y-93951637D01*
X99285637Y-93751759D01*
X99442680Y-93516727D01*
X99550853Y-93255574D01*
X99606000Y-92978335D01*
X99606000Y-92695665D01*
X99550853Y-92418426D01*
X99442680Y-92157273D01*
X99285637Y-91922241D01*
X99085759Y-91722363D01*
X98850727Y-91565320D01*
X98589574Y-91457147D01*
X98312335Y-91402000D01*
X98029665Y-91402000D01*
X97752426Y-91457147D01*
X97491273Y-91565320D01*
X97256241Y-91722363D01*
X97056363Y-91922241D01*
X96899320Y-92157273D01*
X96791147Y-92418426D01*
X96736000Y-92695665D01*
X93166500Y-92695665D01*
X93166500Y-88281908D01*
X102894500Y-88281908D01*
X102894500Y-88557092D01*
X102948186Y-88826990D01*
X103053495Y-89081227D01*
X103206380Y-89310035D01*
X103400965Y-89504620D01*
X103629773Y-89657505D01*
X103884010Y-89762814D01*
X104153908Y-89816500D01*
X104429092Y-89816500D01*
X104698990Y-89762814D01*
X104953227Y-89657505D01*
X105182035Y-89504620D01*
X105301590Y-89385065D01*
X106045540Y-89385065D01*
X106112520Y-89625156D01*
X106361548Y-89742256D01*
X106628635Y-89808523D01*
X106903517Y-89821410D01*
X107175633Y-89780422D01*
X107434523Y-89687136D01*
X107550480Y-89625156D01*
X107617460Y-89385065D01*
X106831500Y-88599105D01*
X106045540Y-89385065D01*
X105301590Y-89385065D01*
X105376620Y-89310035D01*
X105529505Y-89081227D01*
X105559192Y-89009557D01*
X105563864Y-89022523D01*
X105625844Y-89138480D01*
X105865935Y-89205460D01*
X106651895Y-88419500D01*
X107011105Y-88419500D01*
X107797065Y-89205460D01*
X108037156Y-89138480D01*
X108100985Y-89002740D01*
X108133495Y-89081227D01*
X108286380Y-89310035D01*
X108480965Y-89504620D01*
X108709773Y-89657505D01*
X108964010Y-89762814D01*
X109233908Y-89816500D01*
X109509092Y-89816500D01*
X109778990Y-89762814D01*
X110033227Y-89657505D01*
X110262035Y-89504620D01*
X110456620Y-89310035D01*
X110609505Y-89081227D01*
X110714814Y-88826990D01*
X110768500Y-88557092D01*
X110768500Y-88281908D01*
X110714814Y-88012010D01*
X110666591Y-87895589D01*
X120505000Y-87895589D01*
X120505000Y-88168411D01*
X120558225Y-88435989D01*
X120662629Y-88688043D01*
X120814201Y-88914886D01*
X121007114Y-89107799D01*
X121233957Y-89259371D01*
X121336873Y-89302000D01*
X121233957Y-89344629D01*
X121007114Y-89496201D01*
X120814201Y-89689114D01*
X120662629Y-89915957D01*
X120558225Y-90168011D01*
X120505000Y-90435589D01*
X120505000Y-90708411D01*
X120558225Y-90975989D01*
X120662629Y-91228043D01*
X120814201Y-91454886D01*
X121007114Y-91647799D01*
X121233957Y-91799371D01*
X121336873Y-91842000D01*
X121233957Y-91884629D01*
X121007114Y-92036201D01*
X120814201Y-92229114D01*
X120662629Y-92455957D01*
X120558225Y-92708011D01*
X120505000Y-92975589D01*
X120505000Y-93248411D01*
X120558225Y-93515989D01*
X120662629Y-93768043D01*
X120814201Y-93994886D01*
X121007114Y-94187799D01*
X121233957Y-94339371D01*
X121333279Y-94380511D01*
X121291168Y-94395723D01*
X121178137Y-94456140D01*
X121112612Y-94695007D01*
X121890000Y-95472395D01*
X122667388Y-94695007D01*
X122601863Y-94456140D01*
X122443523Y-94381836D01*
X122546043Y-94339371D01*
X122772886Y-94187799D01*
X122965799Y-93994886D01*
X123113476Y-93773872D01*
X123291241Y-93951637D01*
X123526273Y-94108680D01*
X123787426Y-94216853D01*
X124064665Y-94272000D01*
X124347335Y-94272000D01*
X124624574Y-94216853D01*
X124885727Y-94108680D01*
X125120759Y-93951637D01*
X125320637Y-93751759D01*
X125477680Y-93516727D01*
X125585853Y-93255574D01*
X125641000Y-92978335D01*
X125641000Y-92695665D01*
X125585853Y-92418426D01*
X125477680Y-92157273D01*
X125320637Y-91922241D01*
X125120759Y-91722363D01*
X124885727Y-91565320D01*
X124624574Y-91457147D01*
X124347335Y-91402000D01*
X124064665Y-91402000D01*
X123787426Y-91457147D01*
X123526273Y-91565320D01*
X123291241Y-91722363D01*
X123091363Y-91922241D01*
X122934320Y-92157273D01*
X122922498Y-92185813D01*
X122772886Y-92036201D01*
X122546043Y-91884629D01*
X122443127Y-91842000D01*
X122546043Y-91799371D01*
X122772886Y-91647799D01*
X122965799Y-91454886D01*
X123117371Y-91228043D01*
X123221775Y-90975989D01*
X123275000Y-90708411D01*
X123275000Y-90435589D01*
X123221775Y-90168011D01*
X123190359Y-90092165D01*
X128041500Y-90092165D01*
X128041500Y-90374835D01*
X128096647Y-90652074D01*
X128204820Y-90913227D01*
X128361863Y-91148259D01*
X128561741Y-91348137D01*
X128796773Y-91505180D01*
X129057926Y-91613353D01*
X129335165Y-91668500D01*
X129617835Y-91668500D01*
X129895074Y-91613353D01*
X130156227Y-91505180D01*
X130391259Y-91348137D01*
X130591137Y-91148259D01*
X130748180Y-90913227D01*
X130856353Y-90652074D01*
X130911500Y-90374835D01*
X130911500Y-90092165D01*
X135661500Y-90092165D01*
X135661500Y-90374835D01*
X135716647Y-90652074D01*
X135824820Y-90913227D01*
X135981863Y-91148259D01*
X136181741Y-91348137D01*
X136416773Y-91505180D01*
X136677926Y-91613353D01*
X136955165Y-91668500D01*
X137237835Y-91668500D01*
X137515074Y-91613353D01*
X137776227Y-91505180D01*
X138011259Y-91348137D01*
X138211137Y-91148259D01*
X138368180Y-90913227D01*
X138476353Y-90652074D01*
X138531500Y-90374835D01*
X138531500Y-90092165D01*
X138476353Y-89814926D01*
X138368180Y-89553773D01*
X138211137Y-89318741D01*
X138011259Y-89118863D01*
X137776227Y-88961820D01*
X137515074Y-88853647D01*
X137237835Y-88798500D01*
X136955165Y-88798500D01*
X136677926Y-88853647D01*
X136416773Y-88961820D01*
X136181741Y-89118863D01*
X135981863Y-89318741D01*
X135824820Y-89553773D01*
X135716647Y-89814926D01*
X135661500Y-90092165D01*
X130911500Y-90092165D01*
X130856353Y-89814926D01*
X130748180Y-89553773D01*
X130591137Y-89318741D01*
X130391259Y-89118863D01*
X130156227Y-88961820D01*
X129895074Y-88853647D01*
X129617835Y-88798500D01*
X129335165Y-88798500D01*
X129057926Y-88853647D01*
X128796773Y-88961820D01*
X128561741Y-89118863D01*
X128361863Y-89318741D01*
X128204820Y-89553773D01*
X128096647Y-89814926D01*
X128041500Y-90092165D01*
X123190359Y-90092165D01*
X123117371Y-89915957D01*
X122965799Y-89689114D01*
X122772886Y-89496201D01*
X122546043Y-89344629D01*
X122443127Y-89302000D01*
X122546043Y-89259371D01*
X122772886Y-89107799D01*
X122965799Y-88914886D01*
X123117371Y-88688043D01*
X123221775Y-88435989D01*
X123275000Y-88168411D01*
X123275000Y-87895589D01*
X123221775Y-87628011D01*
X123174795Y-87514589D01*
X129345000Y-87514589D01*
X129345000Y-87787411D01*
X129398225Y-88054989D01*
X129502629Y-88307043D01*
X129654201Y-88533886D01*
X129847114Y-88726799D01*
X130073957Y-88878371D01*
X130326011Y-88982775D01*
X130593589Y-89036000D01*
X130866411Y-89036000D01*
X131133989Y-88982775D01*
X131386043Y-88878371D01*
X131612886Y-88726799D01*
X131805799Y-88533886D01*
X131957371Y-88307043D01*
X132000000Y-88204127D01*
X132042629Y-88307043D01*
X132194201Y-88533886D01*
X132387114Y-88726799D01*
X132613957Y-88878371D01*
X132866011Y-88982775D01*
X133133589Y-89036000D01*
X133406411Y-89036000D01*
X133673989Y-88982775D01*
X133926043Y-88878371D01*
X134152886Y-88726799D01*
X134345799Y-88533886D01*
X134497371Y-88307043D01*
X134601775Y-88054989D01*
X134655000Y-87787411D01*
X134655000Y-87514589D01*
X134601775Y-87247011D01*
X134497371Y-86994957D01*
X134345799Y-86768114D01*
X134152886Y-86575201D01*
X133926043Y-86423629D01*
X133673989Y-86319225D01*
X133406411Y-86266000D01*
X133133589Y-86266000D01*
X132866011Y-86319225D01*
X132613957Y-86423629D01*
X132387114Y-86575201D01*
X132194201Y-86768114D01*
X132042629Y-86994957D01*
X132000000Y-87097873D01*
X131957371Y-86994957D01*
X131805799Y-86768114D01*
X131612886Y-86575201D01*
X131386043Y-86423629D01*
X131133989Y-86319225D01*
X130866411Y-86266000D01*
X130593589Y-86266000D01*
X130326011Y-86319225D01*
X130073957Y-86423629D01*
X129847114Y-86575201D01*
X129654201Y-86768114D01*
X129502629Y-86994957D01*
X129398225Y-87247011D01*
X129345000Y-87514589D01*
X123174795Y-87514589D01*
X123117371Y-87375957D01*
X122965799Y-87149114D01*
X122772886Y-86956201D01*
X122546043Y-86804629D01*
X122446721Y-86763489D01*
X122488832Y-86748277D01*
X122601863Y-86687860D01*
X122667388Y-86448993D01*
X121890000Y-85671605D01*
X121112612Y-86448993D01*
X121178137Y-86687860D01*
X121336477Y-86762164D01*
X121233957Y-86804629D01*
X121007114Y-86956201D01*
X120814201Y-87149114D01*
X120662629Y-87375957D01*
X120558225Y-87628011D01*
X120505000Y-87895589D01*
X110666591Y-87895589D01*
X110609505Y-87757773D01*
X110456620Y-87528965D01*
X110262035Y-87334380D01*
X110033227Y-87181495D01*
X109778990Y-87076186D01*
X109509092Y-87022500D01*
X109233908Y-87022500D01*
X108964010Y-87076186D01*
X108709773Y-87181495D01*
X108480965Y-87334380D01*
X108286380Y-87528965D01*
X108133495Y-87757773D01*
X108103808Y-87829443D01*
X108099136Y-87816477D01*
X108037156Y-87700520D01*
X107797065Y-87633540D01*
X107011105Y-88419500D01*
X106651895Y-88419500D01*
X105865935Y-87633540D01*
X105625844Y-87700520D01*
X105562015Y-87836260D01*
X105529505Y-87757773D01*
X105376620Y-87528965D01*
X105182035Y-87334380D01*
X104953227Y-87181495D01*
X104698990Y-87076186D01*
X104429092Y-87022500D01*
X104153908Y-87022500D01*
X103884010Y-87076186D01*
X103629773Y-87181495D01*
X103400965Y-87334380D01*
X103206380Y-87528965D01*
X103053495Y-87757773D01*
X102948186Y-88012010D01*
X102894500Y-88281908D01*
X93166500Y-88281908D01*
X93166500Y-85710665D01*
X104292500Y-85710665D01*
X104292500Y-85993335D01*
X104347647Y-86270574D01*
X104455820Y-86531727D01*
X104612863Y-86766759D01*
X104812741Y-86966637D01*
X105047773Y-87123680D01*
X105308926Y-87231853D01*
X105586165Y-87287000D01*
X105868835Y-87287000D01*
X106105229Y-87239978D01*
X106045540Y-87453935D01*
X106831500Y-88239895D01*
X107617460Y-87453935D01*
X107550480Y-87213844D01*
X107301452Y-87096744D01*
X107034365Y-87030477D01*
X106759483Y-87017590D01*
X106509692Y-87055215D01*
X106642259Y-86966637D01*
X106842137Y-86766759D01*
X106999180Y-86531727D01*
X107107353Y-86270574D01*
X107162500Y-85993335D01*
X107162500Y-85710665D01*
X111912500Y-85710665D01*
X111912500Y-85993335D01*
X111967647Y-86270574D01*
X112075820Y-86531727D01*
X112232863Y-86766759D01*
X112432741Y-86966637D01*
X112667773Y-87123680D01*
X112928926Y-87231853D01*
X113206165Y-87287000D01*
X113488835Y-87287000D01*
X113766074Y-87231853D01*
X114027227Y-87123680D01*
X114262259Y-86966637D01*
X114462137Y-86766759D01*
X114619180Y-86531727D01*
X114727353Y-86270574D01*
X114782500Y-85993335D01*
X114782500Y-85710665D01*
X114753424Y-85564492D01*
X120500188Y-85564492D01*
X120541035Y-85834238D01*
X120633723Y-86090832D01*
X120694140Y-86203863D01*
X120933007Y-86269388D01*
X121710395Y-85492000D01*
X122069605Y-85492000D01*
X122846993Y-86269388D01*
X123085860Y-86203863D01*
X123201760Y-85956884D01*
X123267250Y-85692040D01*
X123279812Y-85419508D01*
X123238965Y-85149762D01*
X123146277Y-84893168D01*
X123085860Y-84780137D01*
X122846993Y-84714612D01*
X122069605Y-85492000D01*
X121710395Y-85492000D01*
X120933007Y-84714612D01*
X120694140Y-84780137D01*
X120578240Y-85027116D01*
X120512750Y-85291960D01*
X120500188Y-85564492D01*
X114753424Y-85564492D01*
X114727353Y-85433426D01*
X114619180Y-85172273D01*
X114462137Y-84937241D01*
X114262259Y-84737363D01*
X114027227Y-84580320D01*
X113766074Y-84472147D01*
X113488835Y-84417000D01*
X113206165Y-84417000D01*
X112928926Y-84472147D01*
X112667773Y-84580320D01*
X112432741Y-84737363D01*
X112232863Y-84937241D01*
X112075820Y-85172273D01*
X111967647Y-85433426D01*
X111912500Y-85710665D01*
X107162500Y-85710665D01*
X107107353Y-85433426D01*
X106999180Y-85172273D01*
X106842137Y-84937241D01*
X106642259Y-84737363D01*
X106407227Y-84580320D01*
X106146074Y-84472147D01*
X105868835Y-84417000D01*
X105586165Y-84417000D01*
X105308926Y-84472147D01*
X105047773Y-84580320D01*
X104812741Y-84737363D01*
X104612863Y-84937241D01*
X104455820Y-85172273D01*
X104347647Y-85433426D01*
X104292500Y-85710665D01*
X93166500Y-85710665D01*
X93166500Y-81964165D01*
X96736000Y-81964165D01*
X96736000Y-82246835D01*
X96791147Y-82524074D01*
X96899320Y-82785227D01*
X97056363Y-83020259D01*
X97256241Y-83220137D01*
X97491273Y-83377180D01*
X97752426Y-83485353D01*
X98029665Y-83540500D01*
X98312335Y-83540500D01*
X98589574Y-83485353D01*
X98850727Y-83377180D01*
X99085759Y-83220137D01*
X99285637Y-83020259D01*
X99442680Y-82785227D01*
X99550853Y-82524074D01*
X99606000Y-82246835D01*
X99606000Y-81964165D01*
X99601673Y-81942408D01*
X104333000Y-81942408D01*
X104333000Y-82217592D01*
X104386686Y-82487490D01*
X104491995Y-82741727D01*
X104644880Y-82970535D01*
X104839465Y-83165120D01*
X105068273Y-83318005D01*
X105322510Y-83423314D01*
X105592408Y-83477000D01*
X105867592Y-83477000D01*
X106137490Y-83423314D01*
X106391727Y-83318005D01*
X106620535Y-83165120D01*
X106740090Y-83045565D01*
X107484040Y-83045565D01*
X107551020Y-83285656D01*
X107800048Y-83402756D01*
X108067135Y-83469023D01*
X108342017Y-83481910D01*
X108614133Y-83440922D01*
X108873023Y-83347636D01*
X108988980Y-83285656D01*
X109055960Y-83045565D01*
X108270000Y-82259605D01*
X107484040Y-83045565D01*
X106740090Y-83045565D01*
X106815120Y-82970535D01*
X106968005Y-82741727D01*
X106997692Y-82670057D01*
X107002364Y-82683023D01*
X107064344Y-82798980D01*
X107304435Y-82865960D01*
X108090395Y-82080000D01*
X108449605Y-82080000D01*
X109235565Y-82865960D01*
X109475656Y-82798980D01*
X109592756Y-82549952D01*
X109659023Y-82282865D01*
X109671910Y-82007983D01*
X109630922Y-81735867D01*
X109537636Y-81476977D01*
X109475656Y-81361020D01*
X109235565Y-81294040D01*
X108449605Y-82080000D01*
X108090395Y-82080000D01*
X107304435Y-81294040D01*
X107064344Y-81361020D01*
X107000515Y-81496760D01*
X106968005Y-81418273D01*
X106815120Y-81189465D01*
X106740090Y-81114435D01*
X107484040Y-81114435D01*
X108270000Y-81900395D01*
X109055960Y-81114435D01*
X108988980Y-80874344D01*
X108739952Y-80757244D01*
X108472865Y-80690977D01*
X108197983Y-80678090D01*
X107925867Y-80719078D01*
X107666977Y-80812364D01*
X107551020Y-80874344D01*
X107484040Y-81114435D01*
X106740090Y-81114435D01*
X106620535Y-80994880D01*
X106391727Y-80841995D01*
X106137490Y-80736686D01*
X105867592Y-80683000D01*
X105592408Y-80683000D01*
X105322510Y-80736686D01*
X105068273Y-80841995D01*
X104839465Y-80994880D01*
X104644880Y-81189465D01*
X104491995Y-81418273D01*
X104386686Y-81672510D01*
X104333000Y-81942408D01*
X99601673Y-81942408D01*
X99550853Y-81686926D01*
X99442680Y-81425773D01*
X99285637Y-81190741D01*
X99085759Y-80990863D01*
X98850727Y-80833820D01*
X98589574Y-80725647D01*
X98312335Y-80670500D01*
X98029665Y-80670500D01*
X97752426Y-80725647D01*
X97491273Y-80833820D01*
X97256241Y-80990863D01*
X97056363Y-81190741D01*
X96899320Y-81425773D01*
X96791147Y-81686926D01*
X96736000Y-81964165D01*
X93166500Y-81964165D01*
X93166500Y-76853740D01*
X100435000Y-76853740D01*
X100435000Y-77146260D01*
X100492068Y-77433158D01*
X100604010Y-77703411D01*
X100766525Y-77946632D01*
X100973368Y-78153475D01*
X101216589Y-78315990D01*
X101486842Y-78427932D01*
X101773740Y-78485000D01*
X102066260Y-78485000D01*
X102353158Y-78427932D01*
X102623411Y-78315990D01*
X102866632Y-78153475D01*
X103073475Y-77946632D01*
X103235990Y-77703411D01*
X103347932Y-77433158D01*
X103405000Y-77146260D01*
X103405000Y-76853740D01*
X103382471Y-76740475D01*
X104365000Y-76740475D01*
X104365000Y-77259525D01*
X104466261Y-77768601D01*
X104664893Y-78248141D01*
X104953262Y-78679715D01*
X105320285Y-79046738D01*
X105751859Y-79335107D01*
X106231399Y-79533739D01*
X106740475Y-79635000D01*
X107259525Y-79635000D01*
X107768601Y-79533739D01*
X108248141Y-79335107D01*
X108679715Y-79046738D01*
X109046738Y-78679715D01*
X109335107Y-78248141D01*
X109533739Y-77768601D01*
X109635000Y-77259525D01*
X109635000Y-76853740D01*
X110595000Y-76853740D01*
X110595000Y-77146260D01*
X110652068Y-77433158D01*
X110764010Y-77703411D01*
X110926525Y-77946632D01*
X111133368Y-78153475D01*
X111376589Y-78315990D01*
X111646842Y-78427932D01*
X111933740Y-78485000D01*
X112226260Y-78485000D01*
X112513158Y-78427932D01*
X112783411Y-78315990D01*
X113026632Y-78153475D01*
X113233475Y-77946632D01*
X113395990Y-77703411D01*
X113507932Y-77433158D01*
X113536037Y-77291861D01*
X118802200Y-77291861D01*
X118802200Y-77495739D01*
X118841974Y-77695698D01*
X118919995Y-77884056D01*
X119033263Y-78053574D01*
X119177426Y-78197737D01*
X119346944Y-78311005D01*
X119535302Y-78389026D01*
X119735261Y-78428800D01*
X119939139Y-78428800D01*
X120139098Y-78389026D01*
X120327456Y-78311005D01*
X120496974Y-78197737D01*
X120535080Y-78159631D01*
X120558225Y-78275989D01*
X120662629Y-78528043D01*
X120814201Y-78754886D01*
X121007114Y-78947799D01*
X121233957Y-79099371D01*
X121336873Y-79142000D01*
X121233957Y-79184629D01*
X121007114Y-79336201D01*
X120814201Y-79529114D01*
X120662629Y-79755957D01*
X120558225Y-80008011D01*
X120505000Y-80275589D01*
X120505000Y-80548411D01*
X120558225Y-80815989D01*
X120662629Y-81068043D01*
X120814201Y-81294886D01*
X121007114Y-81487799D01*
X121233957Y-81639371D01*
X121336873Y-81682000D01*
X121233957Y-81724629D01*
X121007114Y-81876201D01*
X120814201Y-82069114D01*
X120662629Y-82295957D01*
X120558225Y-82548011D01*
X120505000Y-82815589D01*
X120505000Y-83088411D01*
X120558225Y-83355989D01*
X120662629Y-83608043D01*
X120814201Y-83834886D01*
X121007114Y-84027799D01*
X121233957Y-84179371D01*
X121333279Y-84220511D01*
X121291168Y-84235723D01*
X121178137Y-84296140D01*
X121112612Y-84535007D01*
X121890000Y-85312395D01*
X122667388Y-84535007D01*
X122601863Y-84296140D01*
X122443523Y-84221836D01*
X122546043Y-84179371D01*
X122772886Y-84027799D01*
X122965799Y-83834886D01*
X123117371Y-83608043D01*
X123221775Y-83355989D01*
X123255840Y-83184736D01*
X123291241Y-83220137D01*
X123526273Y-83377180D01*
X123787426Y-83485353D01*
X124064665Y-83540500D01*
X124347335Y-83540500D01*
X124624574Y-83485353D01*
X124885727Y-83377180D01*
X125120759Y-83220137D01*
X125320637Y-83020259D01*
X125477680Y-82785227D01*
X125585853Y-82524074D01*
X125641000Y-82246835D01*
X125641000Y-81964165D01*
X125636673Y-81942408D01*
X130333000Y-81942408D01*
X130333000Y-82217592D01*
X130386686Y-82487490D01*
X130491995Y-82741727D01*
X130644880Y-82970535D01*
X130839465Y-83165120D01*
X131068273Y-83318005D01*
X131322510Y-83423314D01*
X131592408Y-83477000D01*
X131867592Y-83477000D01*
X132137490Y-83423314D01*
X132391727Y-83318005D01*
X132620535Y-83165120D01*
X132740090Y-83045565D01*
X133484040Y-83045565D01*
X133551020Y-83285656D01*
X133800048Y-83402756D01*
X134067135Y-83469023D01*
X134342017Y-83481910D01*
X134614133Y-83440922D01*
X134873023Y-83347636D01*
X134988980Y-83285656D01*
X135055960Y-83045565D01*
X134270000Y-82259605D01*
X133484040Y-83045565D01*
X132740090Y-83045565D01*
X132815120Y-82970535D01*
X132968005Y-82741727D01*
X132997692Y-82670057D01*
X133002364Y-82683023D01*
X133064344Y-82798980D01*
X133304435Y-82865960D01*
X134090395Y-82080000D01*
X134449605Y-82080000D01*
X135235565Y-82865960D01*
X135475656Y-82798980D01*
X135592756Y-82549952D01*
X135659023Y-82282865D01*
X135671910Y-82007983D01*
X135630922Y-81735867D01*
X135537636Y-81476977D01*
X135475656Y-81361020D01*
X135235565Y-81294040D01*
X134449605Y-82080000D01*
X134090395Y-82080000D01*
X133304435Y-81294040D01*
X133064344Y-81361020D01*
X133000515Y-81496760D01*
X132968005Y-81418273D01*
X132815120Y-81189465D01*
X132740090Y-81114435D01*
X133484040Y-81114435D01*
X134270000Y-81900395D01*
X135055960Y-81114435D01*
X134988980Y-80874344D01*
X134739952Y-80757244D01*
X134472865Y-80690977D01*
X134197983Y-80678090D01*
X133925867Y-80719078D01*
X133666977Y-80812364D01*
X133551020Y-80874344D01*
X133484040Y-81114435D01*
X132740090Y-81114435D01*
X132620535Y-80994880D01*
X132391727Y-80841995D01*
X132137490Y-80736686D01*
X131867592Y-80683000D01*
X131592408Y-80683000D01*
X131322510Y-80736686D01*
X131068273Y-80841995D01*
X130839465Y-80994880D01*
X130644880Y-81189465D01*
X130491995Y-81418273D01*
X130386686Y-81672510D01*
X130333000Y-81942408D01*
X125636673Y-81942408D01*
X125585853Y-81686926D01*
X125477680Y-81425773D01*
X125320637Y-81190741D01*
X125120759Y-80990863D01*
X124885727Y-80833820D01*
X124624574Y-80725647D01*
X124347335Y-80670500D01*
X124064665Y-80670500D01*
X123787426Y-80725647D01*
X123526273Y-80833820D01*
X123291241Y-80990863D01*
X123091363Y-81190741D01*
X122934320Y-81425773D01*
X122826147Y-81686926D01*
X122785907Y-81889222D01*
X122772886Y-81876201D01*
X122546043Y-81724629D01*
X122443127Y-81682000D01*
X122546043Y-81639371D01*
X122772886Y-81487799D01*
X122965799Y-81294886D01*
X123117371Y-81068043D01*
X123221775Y-80815989D01*
X123275000Y-80548411D01*
X123275000Y-80275589D01*
X123221775Y-80008011D01*
X123117371Y-79755957D01*
X122965799Y-79529114D01*
X122772886Y-79336201D01*
X122546043Y-79184629D01*
X122443127Y-79142000D01*
X122546043Y-79099371D01*
X122772886Y-78947799D01*
X122965799Y-78754886D01*
X123117371Y-78528043D01*
X123221775Y-78275989D01*
X123275000Y-78008411D01*
X123275000Y-77735589D01*
X123221775Y-77468011D01*
X123117371Y-77215957D01*
X122965799Y-76989114D01*
X122830425Y-76853740D01*
X126435000Y-76853740D01*
X126435000Y-77146260D01*
X126492068Y-77433158D01*
X126604010Y-77703411D01*
X126766525Y-77946632D01*
X126973368Y-78153475D01*
X127216589Y-78315990D01*
X127486842Y-78427932D01*
X127773740Y-78485000D01*
X128066260Y-78485000D01*
X128353158Y-78427932D01*
X128623411Y-78315990D01*
X128866632Y-78153475D01*
X129073475Y-77946632D01*
X129235990Y-77703411D01*
X129347932Y-77433158D01*
X129405000Y-77146260D01*
X129405000Y-76853740D01*
X129347932Y-76566842D01*
X129235990Y-76296589D01*
X129168110Y-76195000D01*
X129360883Y-76195000D01*
X129696081Y-76128325D01*
X130011831Y-75997537D01*
X130295998Y-75807663D01*
X130537663Y-75565998D01*
X130727537Y-75281831D01*
X130753148Y-75220000D01*
X131053547Y-75220000D01*
X130953262Y-75320285D01*
X130664893Y-75751859D01*
X130466261Y-76231399D01*
X130365000Y-76740475D01*
X130365000Y-77259525D01*
X130466261Y-77768601D01*
X130664893Y-78248141D01*
X130953262Y-78679715D01*
X131320285Y-79046738D01*
X131751859Y-79335107D01*
X132231399Y-79533739D01*
X132740475Y-79635000D01*
X133259525Y-79635000D01*
X133768601Y-79533739D01*
X134248141Y-79335107D01*
X134679715Y-79046738D01*
X135046738Y-78679715D01*
X135335107Y-78248141D01*
X135533739Y-77768601D01*
X135635000Y-77259525D01*
X135635000Y-76853740D01*
X136595000Y-76853740D01*
X136595000Y-77146260D01*
X136652068Y-77433158D01*
X136764010Y-77703411D01*
X136926525Y-77946632D01*
X137133368Y-78153475D01*
X137376589Y-78315990D01*
X137646842Y-78427932D01*
X137933740Y-78485000D01*
X138226260Y-78485000D01*
X138513158Y-78427932D01*
X138783411Y-78315990D01*
X139026632Y-78153475D01*
X139233475Y-77946632D01*
X139395990Y-77703411D01*
X139507932Y-77433158D01*
X139565000Y-77146260D01*
X139565000Y-76853740D01*
X139507932Y-76566842D01*
X139395990Y-76296589D01*
X139233475Y-76053368D01*
X139026632Y-75846525D01*
X138783411Y-75684010D01*
X138513158Y-75572068D01*
X138226260Y-75515000D01*
X137933740Y-75515000D01*
X137646842Y-75572068D01*
X137376589Y-75684010D01*
X137133368Y-75846525D01*
X136926525Y-76053368D01*
X136764010Y-76296589D01*
X136652068Y-76566842D01*
X136595000Y-76853740D01*
X135635000Y-76853740D01*
X135635000Y-76740475D01*
X135533739Y-76231399D01*
X135335107Y-75751859D01*
X135046738Y-75320285D01*
X134946453Y-75220000D01*
X140404678Y-75220000D01*
X140442000Y-75223676D01*
X140479322Y-75220000D01*
X140479333Y-75220000D01*
X140590986Y-75209003D01*
X140730766Y-75166602D01*
X140725000Y-75195589D01*
X140725000Y-75468411D01*
X140778225Y-75735989D01*
X140882629Y-75988043D01*
X141034201Y-76214886D01*
X141227114Y-76407799D01*
X141453957Y-76559371D01*
X141556873Y-76602000D01*
X141453957Y-76644629D01*
X141227114Y-76796201D01*
X141034201Y-76989114D01*
X140882629Y-77215957D01*
X140778225Y-77468011D01*
X140725000Y-77735589D01*
X140725000Y-78008411D01*
X140778225Y-78275989D01*
X140882629Y-78528043D01*
X141034201Y-78754886D01*
X141227114Y-78947799D01*
X141453957Y-79099371D01*
X141556873Y-79142000D01*
X141453957Y-79184629D01*
X141227114Y-79336201D01*
X141034201Y-79529114D01*
X140882629Y-79755957D01*
X140778225Y-80008011D01*
X140725000Y-80275589D01*
X140725000Y-80548411D01*
X140778225Y-80815989D01*
X140882629Y-81068043D01*
X141034201Y-81294886D01*
X141227114Y-81487799D01*
X141453957Y-81639371D01*
X141556873Y-81682000D01*
X141453957Y-81724629D01*
X141227114Y-81876201D01*
X141034201Y-82069114D01*
X140882629Y-82295957D01*
X140778225Y-82548011D01*
X140725000Y-82815589D01*
X140725000Y-83088411D01*
X140778225Y-83355989D01*
X140882629Y-83608043D01*
X141034201Y-83834886D01*
X141227114Y-84027799D01*
X141453957Y-84179371D01*
X141556873Y-84222000D01*
X141453957Y-84264629D01*
X141227114Y-84416201D01*
X141034201Y-84609114D01*
X140882629Y-84835957D01*
X140778225Y-85088011D01*
X140725000Y-85355589D01*
X140725000Y-85628411D01*
X140778225Y-85895989D01*
X140882629Y-86148043D01*
X141034201Y-86374886D01*
X141227114Y-86567799D01*
X141453957Y-86719371D01*
X141556873Y-86762000D01*
X141453957Y-86804629D01*
X141227114Y-86956201D01*
X141034201Y-87149114D01*
X140882629Y-87375957D01*
X140778225Y-87628011D01*
X140725000Y-87895589D01*
X140725000Y-88168411D01*
X140778225Y-88435989D01*
X140882629Y-88688043D01*
X141034201Y-88914886D01*
X141227114Y-89107799D01*
X141453957Y-89259371D01*
X141556873Y-89302000D01*
X141453957Y-89344629D01*
X141227114Y-89496201D01*
X141034201Y-89689114D01*
X140882629Y-89915957D01*
X140778225Y-90168011D01*
X140725000Y-90435589D01*
X140725000Y-90708411D01*
X140778225Y-90975989D01*
X140882629Y-91228043D01*
X141034201Y-91454886D01*
X141227114Y-91647799D01*
X141453957Y-91799371D01*
X141556873Y-91842000D01*
X141453957Y-91884629D01*
X141227114Y-92036201D01*
X141034201Y-92229114D01*
X140882629Y-92455957D01*
X140778225Y-92708011D01*
X140725000Y-92975589D01*
X140725000Y-93248411D01*
X140778225Y-93515989D01*
X140882629Y-93768043D01*
X141034201Y-93994886D01*
X141227114Y-94187799D01*
X141453957Y-94339371D01*
X141553279Y-94380511D01*
X141511168Y-94395723D01*
X141398137Y-94456140D01*
X141332612Y-94695007D01*
X142110000Y-95472395D01*
X142124143Y-95458253D01*
X142303748Y-95637858D01*
X142289605Y-95652000D01*
X143066993Y-96429388D01*
X143305860Y-96363863D01*
X143421760Y-96116884D01*
X143487250Y-95852040D01*
X143499812Y-95579508D01*
X143499295Y-95576097D01*
X145302701Y-97379503D01*
X145302700Y-100506428D01*
X145162700Y-100506428D01*
X145038218Y-100518688D01*
X144918520Y-100554998D01*
X144808206Y-100613963D01*
X144711515Y-100693315D01*
X144632163Y-100790006D01*
X144573198Y-100900320D01*
X144536888Y-101020018D01*
X144524628Y-101144500D01*
X144524628Y-102944500D01*
X144536888Y-103068982D01*
X144573198Y-103188680D01*
X144632163Y-103298994D01*
X144711515Y-103395685D01*
X144808206Y-103475037D01*
X144918520Y-103534002D01*
X145038218Y-103570312D01*
X145162700Y-103582572D01*
X146962700Y-103582572D01*
X147087182Y-103570312D01*
X147206880Y-103534002D01*
X147317194Y-103475037D01*
X147413885Y-103395685D01*
X147493237Y-103298994D01*
X147552202Y-103188680D01*
X147588512Y-103068982D01*
X147600772Y-102944500D01*
X147600772Y-101144500D01*
X147588512Y-101020018D01*
X147552202Y-100900320D01*
X147493237Y-100790006D01*
X147413885Y-100693315D01*
X147317194Y-100613963D01*
X147206880Y-100554998D01*
X147087182Y-100518688D01*
X146962700Y-100506428D01*
X146822700Y-100506428D01*
X146822700Y-97102023D01*
X146826376Y-97064700D01*
X146822700Y-97027377D01*
X146822700Y-97027367D01*
X146811703Y-96915714D01*
X146768246Y-96772453D01*
X146736621Y-96713288D01*
X146697674Y-96640423D01*
X146626499Y-96553697D01*
X146602701Y-96524699D01*
X146573703Y-96500901D01*
X143466167Y-93393365D01*
X143495000Y-93248411D01*
X143495000Y-92975589D01*
X143441775Y-92708011D01*
X143337371Y-92455957D01*
X143185799Y-92229114D01*
X142992886Y-92036201D01*
X142766043Y-91884629D01*
X142663127Y-91842000D01*
X142766043Y-91799371D01*
X142992886Y-91647799D01*
X143185799Y-91454886D01*
X143337371Y-91228043D01*
X143441775Y-90975989D01*
X143495000Y-90708411D01*
X143495000Y-90435589D01*
X143441775Y-90168011D01*
X143337371Y-89915957D01*
X143185799Y-89689114D01*
X142992886Y-89496201D01*
X142766043Y-89344629D01*
X142663127Y-89302000D01*
X142766043Y-89259371D01*
X142992886Y-89107799D01*
X143185799Y-88914886D01*
X143337371Y-88688043D01*
X143441775Y-88435989D01*
X143495000Y-88168411D01*
X143495000Y-87895589D01*
X143441775Y-87628011D01*
X143337371Y-87375957D01*
X143185799Y-87149114D01*
X142992886Y-86956201D01*
X142766043Y-86804629D01*
X142663127Y-86762000D01*
X142766043Y-86719371D01*
X142992886Y-86567799D01*
X143185799Y-86374886D01*
X143337371Y-86148043D01*
X143441775Y-85895989D01*
X143495000Y-85628411D01*
X143495000Y-85355589D01*
X143441775Y-85088011D01*
X143337371Y-84835957D01*
X143185799Y-84609114D01*
X142992886Y-84416201D01*
X142766043Y-84264629D01*
X142663127Y-84222000D01*
X142766043Y-84179371D01*
X142992886Y-84027799D01*
X143185799Y-83834886D01*
X143337371Y-83608043D01*
X143441775Y-83355989D01*
X143495000Y-83088411D01*
X143495000Y-82815589D01*
X143441775Y-82548011D01*
X143337371Y-82295957D01*
X143185799Y-82069114D01*
X142992886Y-81876201D01*
X142766043Y-81724629D01*
X142663127Y-81682000D01*
X142766043Y-81639371D01*
X142992886Y-81487799D01*
X143185799Y-81294886D01*
X143337371Y-81068043D01*
X143441775Y-80815989D01*
X143495000Y-80548411D01*
X143495000Y-80275589D01*
X143441775Y-80008011D01*
X143337371Y-79755957D01*
X143185799Y-79529114D01*
X142992886Y-79336201D01*
X142766043Y-79184629D01*
X142663127Y-79142000D01*
X142766043Y-79099371D01*
X142992886Y-78947799D01*
X143185799Y-78754886D01*
X143337371Y-78528043D01*
X143441775Y-78275989D01*
X143495000Y-78008411D01*
X143495000Y-77735589D01*
X143441775Y-77468011D01*
X143337371Y-77215957D01*
X143185799Y-76989114D01*
X142992886Y-76796201D01*
X142766043Y-76644629D01*
X142663127Y-76602000D01*
X142766043Y-76559371D01*
X142992886Y-76407799D01*
X143185799Y-76214886D01*
X143337371Y-75988043D01*
X143441775Y-75735989D01*
X143495000Y-75468411D01*
X143495000Y-75195589D01*
X143441775Y-74928011D01*
X143337371Y-74675957D01*
X143185799Y-74449114D01*
X142992886Y-74256201D01*
X142766043Y-74104629D01*
X142663127Y-74062000D01*
X142766043Y-74019371D01*
X142992886Y-73867799D01*
X143185799Y-73674886D01*
X143337371Y-73448043D01*
X143441775Y-73195989D01*
X143495000Y-72928411D01*
X143495000Y-72655589D01*
X143441775Y-72388011D01*
X143337371Y-72135957D01*
X143185799Y-71909114D01*
X142992886Y-71716201D01*
X142766043Y-71564629D01*
X142663127Y-71522000D01*
X142766043Y-71479371D01*
X142992886Y-71327799D01*
X143185799Y-71134886D01*
X143337371Y-70908043D01*
X143441775Y-70655989D01*
X143495000Y-70388411D01*
X143495000Y-70115589D01*
X143441775Y-69848011D01*
X143337371Y-69595957D01*
X143185799Y-69369114D01*
X142992886Y-69176201D01*
X142766043Y-69024629D01*
X142513989Y-68920225D01*
X142246411Y-68867000D01*
X141973589Y-68867000D01*
X141706011Y-68920225D01*
X141453957Y-69024629D01*
X141227114Y-69176201D01*
X141034201Y-69369114D01*
X140882629Y-69595957D01*
X140778225Y-69848011D01*
X140725000Y-70115589D01*
X140725000Y-70388411D01*
X140778225Y-70655989D01*
X140882629Y-70908043D01*
X141034201Y-71134886D01*
X141227114Y-71327799D01*
X141453957Y-71479371D01*
X141556873Y-71522000D01*
X141453957Y-71564629D01*
X141227114Y-71716201D01*
X141034201Y-71909114D01*
X140882629Y-72135957D01*
X140778225Y-72388011D01*
X140725000Y-72655589D01*
X140725000Y-72928411D01*
X140753833Y-73073364D01*
X140127199Y-73700000D01*
X130753148Y-73700000D01*
X130727537Y-73638169D01*
X130537663Y-73354002D01*
X130310373Y-73126712D01*
X134512893Y-73126712D01*
X134620726Y-73401338D01*
X134927384Y-73552216D01*
X135257585Y-73640369D01*
X135598639Y-73662409D01*
X135937439Y-73617489D01*
X136260966Y-73507336D01*
X136459274Y-73401338D01*
X136567107Y-73126712D01*
X135540000Y-72099605D01*
X134512893Y-73126712D01*
X130310373Y-73126712D01*
X130295998Y-73112337D01*
X130011831Y-72922463D01*
X129696081Y-72791675D01*
X129360883Y-72725000D01*
X129019117Y-72725000D01*
X128683919Y-72791675D01*
X128368169Y-72922463D01*
X128084002Y-73112337D01*
X127842337Y-73354002D01*
X127652463Y-73638169D01*
X127521675Y-73953919D01*
X127455000Y-74289117D01*
X127455000Y-74630883D01*
X127521675Y-74966081D01*
X127652463Y-75281831D01*
X127808261Y-75515000D01*
X127773740Y-75515000D01*
X127486842Y-75572068D01*
X127216589Y-75684010D01*
X126973368Y-75846525D01*
X126766525Y-76053368D01*
X126604010Y-76296589D01*
X126492068Y-76566842D01*
X126435000Y-76853740D01*
X122830425Y-76853740D01*
X122772886Y-76796201D01*
X122546043Y-76644629D01*
X122443127Y-76602000D01*
X122546043Y-76559371D01*
X122772886Y-76407799D01*
X122965799Y-76214886D01*
X123117371Y-75988043D01*
X123221775Y-75735989D01*
X123255840Y-75564736D01*
X123291241Y-75600137D01*
X123526273Y-75757180D01*
X123787426Y-75865353D01*
X124064665Y-75920500D01*
X124347335Y-75920500D01*
X124624574Y-75865353D01*
X124885727Y-75757180D01*
X125120759Y-75600137D01*
X125320637Y-75400259D01*
X125477680Y-75165227D01*
X125585853Y-74904074D01*
X125641000Y-74626835D01*
X125641000Y-74344165D01*
X125585853Y-74066926D01*
X125477680Y-73805773D01*
X125320637Y-73570741D01*
X125120759Y-73370863D01*
X124885727Y-73213820D01*
X124624574Y-73105647D01*
X124347335Y-73050500D01*
X124064665Y-73050500D01*
X123787426Y-73105647D01*
X123526273Y-73213820D01*
X123291241Y-73370863D01*
X123091363Y-73570741D01*
X122934320Y-73805773D01*
X122826147Y-74066926D01*
X122785907Y-74269222D01*
X122772886Y-74256201D01*
X122546043Y-74104629D01*
X122443127Y-74062000D01*
X122546043Y-74019371D01*
X122772886Y-73867799D01*
X122965799Y-73674886D01*
X123117371Y-73448043D01*
X123221775Y-73195989D01*
X123275000Y-72928411D01*
X123275000Y-72655589D01*
X123221775Y-72388011D01*
X123117371Y-72135957D01*
X123012255Y-71978639D01*
X133797591Y-71978639D01*
X133842511Y-72317439D01*
X133952664Y-72640966D01*
X134058662Y-72839274D01*
X134333288Y-72947107D01*
X135360395Y-71920000D01*
X135719605Y-71920000D01*
X136746712Y-72947107D01*
X137021338Y-72839274D01*
X137172216Y-72532616D01*
X137260369Y-72202415D01*
X137282409Y-71861361D01*
X137237489Y-71522561D01*
X137127336Y-71199034D01*
X137021338Y-71000726D01*
X136746712Y-70892893D01*
X135719605Y-71920000D01*
X135360395Y-71920000D01*
X134333288Y-70892893D01*
X134058662Y-71000726D01*
X133907784Y-71307384D01*
X133819631Y-71637585D01*
X133797591Y-71978639D01*
X123012255Y-71978639D01*
X122965799Y-71909114D01*
X122772886Y-71716201D01*
X122546043Y-71564629D01*
X122443127Y-71522000D01*
X122546043Y-71479371D01*
X122772886Y-71327799D01*
X122965799Y-71134886D01*
X123117371Y-70908043D01*
X123198041Y-70713288D01*
X134512893Y-70713288D01*
X135540000Y-71740395D01*
X136567107Y-70713288D01*
X136459274Y-70438662D01*
X136152616Y-70287784D01*
X135822415Y-70199631D01*
X135481361Y-70177591D01*
X135142561Y-70222511D01*
X134819034Y-70332664D01*
X134620726Y-70438662D01*
X134512893Y-70713288D01*
X123198041Y-70713288D01*
X123221775Y-70655989D01*
X123275000Y-70388411D01*
X123275000Y-70115589D01*
X123221775Y-69848011D01*
X123117371Y-69595957D01*
X122965799Y-69369114D01*
X122772886Y-69176201D01*
X122546043Y-69024629D01*
X122293989Y-68920225D01*
X122194801Y-68900495D01*
X122298574Y-68879853D01*
X122559727Y-68771680D01*
X122794759Y-68614637D01*
X122994637Y-68414759D01*
X123151680Y-68179727D01*
X123259853Y-67918574D01*
X123315000Y-67641335D01*
X123315000Y-67358665D01*
X128065000Y-67358665D01*
X128065000Y-67641335D01*
X128120147Y-67918574D01*
X128228320Y-68179727D01*
X128385363Y-68414759D01*
X128585241Y-68614637D01*
X128820273Y-68771680D01*
X129081426Y-68879853D01*
X129358665Y-68935000D01*
X129641335Y-68935000D01*
X129918574Y-68879853D01*
X130179727Y-68771680D01*
X130249917Y-68724780D01*
X130966948Y-68724780D01*
X130979208Y-68849262D01*
X131015518Y-68968960D01*
X131074483Y-69079274D01*
X131153835Y-69175965D01*
X131250526Y-69255317D01*
X131360840Y-69314282D01*
X131480538Y-69350592D01*
X131605020Y-69362852D01*
X132568950Y-69359780D01*
X132727700Y-69201030D01*
X132727700Y-67602100D01*
X132981700Y-67602100D01*
X132981700Y-69201030D01*
X133140450Y-69359780D01*
X134104380Y-69362852D01*
X134228862Y-69350592D01*
X134348560Y-69314282D01*
X134458874Y-69255317D01*
X134555565Y-69175965D01*
X134634917Y-69079274D01*
X134693882Y-68968960D01*
X134730192Y-68849262D01*
X134742452Y-68724780D01*
X134739380Y-67760850D01*
X134580630Y-67602100D01*
X132981700Y-67602100D01*
X132727700Y-67602100D01*
X131128770Y-67602100D01*
X130970020Y-67760850D01*
X130966948Y-68724780D01*
X130249917Y-68724780D01*
X130414759Y-68614637D01*
X130614637Y-68414759D01*
X130771680Y-68179727D01*
X130879853Y-67918574D01*
X130935000Y-67641335D01*
X130935000Y-67358665D01*
X130879853Y-67081426D01*
X130771680Y-66820273D01*
X130614637Y-66585241D01*
X130414759Y-66385363D01*
X130179727Y-66228320D01*
X130172726Y-66225420D01*
X130966948Y-66225420D01*
X130970020Y-67189350D01*
X131128770Y-67348100D01*
X132727700Y-67348100D01*
X132727700Y-65749170D01*
X132981700Y-65749170D01*
X132981700Y-67348100D01*
X134580630Y-67348100D01*
X134639255Y-67289475D01*
X134780020Y-67289475D01*
X134780020Y-67660725D01*
X134852447Y-68024841D01*
X134994518Y-68367831D01*
X135200774Y-68676513D01*
X135463287Y-68939026D01*
X135771969Y-69145282D01*
X136114959Y-69287353D01*
X136479075Y-69359780D01*
X136850325Y-69359780D01*
X137214441Y-69287353D01*
X137557431Y-69145282D01*
X137866113Y-68939026D01*
X138128626Y-68676513D01*
X138334882Y-68367831D01*
X138476953Y-68024841D01*
X138541392Y-67700881D01*
X142478724Y-67700881D01*
X142838912Y-68190548D01*
X143502882Y-68550849D01*
X144224385Y-68774694D01*
X144975695Y-68853480D01*
X145727938Y-68784178D01*
X146452208Y-68569452D01*
X147120670Y-68217555D01*
X147161088Y-68190548D01*
X147521276Y-67700881D01*
X145000000Y-65179605D01*
X142478724Y-67700881D01*
X138541392Y-67700881D01*
X138549380Y-67660725D01*
X138549380Y-67289475D01*
X138476953Y-66925359D01*
X138334882Y-66582369D01*
X138128626Y-66273687D01*
X137866113Y-66011174D01*
X137557431Y-65804918D01*
X137214441Y-65662847D01*
X136850325Y-65590420D01*
X136479075Y-65590420D01*
X136114959Y-65662847D01*
X135771969Y-65804918D01*
X135463287Y-66011174D01*
X135200774Y-66273687D01*
X134994518Y-66582369D01*
X134852447Y-66925359D01*
X134780020Y-67289475D01*
X134639255Y-67289475D01*
X134739380Y-67189350D01*
X134742452Y-66225420D01*
X134730192Y-66100938D01*
X134693882Y-65981240D01*
X134634917Y-65870926D01*
X134555565Y-65774235D01*
X134458874Y-65694883D01*
X134348560Y-65635918D01*
X134228862Y-65599608D01*
X134104380Y-65587348D01*
X133140450Y-65590420D01*
X132981700Y-65749170D01*
X132727700Y-65749170D01*
X132568950Y-65590420D01*
X131605020Y-65587348D01*
X131480538Y-65599608D01*
X131360840Y-65635918D01*
X131250526Y-65694883D01*
X131153835Y-65774235D01*
X131074483Y-65870926D01*
X131015518Y-65981240D01*
X130979208Y-66100938D01*
X130966948Y-66225420D01*
X130172726Y-66225420D01*
X129918574Y-66120147D01*
X129641335Y-66065000D01*
X129358665Y-66065000D01*
X129081426Y-66120147D01*
X128820273Y-66228320D01*
X128585241Y-66385363D01*
X128385363Y-66585241D01*
X128228320Y-66820273D01*
X128120147Y-67081426D01*
X128065000Y-67358665D01*
X123315000Y-67358665D01*
X123259853Y-67081426D01*
X123151680Y-66820273D01*
X122994637Y-66585241D01*
X122794759Y-66385363D01*
X122559727Y-66228320D01*
X122298574Y-66120147D01*
X122021335Y-66065000D01*
X121738665Y-66065000D01*
X121461426Y-66120147D01*
X121200273Y-66228320D01*
X120965241Y-66385363D01*
X120765363Y-66585241D01*
X120608320Y-66820273D01*
X120500147Y-67081426D01*
X120445000Y-67358665D01*
X120445000Y-67641335D01*
X120500147Y-67918574D01*
X120608320Y-68179727D01*
X120765363Y-68414759D01*
X120965241Y-68614637D01*
X121200273Y-68771680D01*
X121461426Y-68879853D01*
X121575199Y-68902484D01*
X121486011Y-68920225D01*
X121233957Y-69024629D01*
X121007114Y-69176201D01*
X120814201Y-69369114D01*
X120662629Y-69595957D01*
X120558225Y-69848011D01*
X120505000Y-70115589D01*
X120505000Y-70388411D01*
X120558225Y-70655989D01*
X120662629Y-70908043D01*
X120814201Y-71134886D01*
X121007114Y-71327799D01*
X121233957Y-71479371D01*
X121336873Y-71522000D01*
X121233957Y-71564629D01*
X121007114Y-71716201D01*
X120814201Y-71909114D01*
X120662629Y-72135957D01*
X120558225Y-72388011D01*
X120505000Y-72655589D01*
X120505000Y-72928411D01*
X120533833Y-73073365D01*
X119326199Y-74281000D01*
X119297200Y-74304799D01*
X119273402Y-74333797D01*
X119273401Y-74333798D01*
X119202226Y-74420524D01*
X119131654Y-74552554D01*
X119109122Y-74626835D01*
X119094222Y-74675957D01*
X119088198Y-74695815D01*
X119073524Y-74844800D01*
X119077201Y-74882132D01*
X119077200Y-76690089D01*
X119033263Y-76734026D01*
X118919995Y-76903544D01*
X118841974Y-77091902D01*
X118802200Y-77291861D01*
X113536037Y-77291861D01*
X113565000Y-77146260D01*
X113565000Y-76853740D01*
X113507932Y-76566842D01*
X113395990Y-76296589D01*
X113233475Y-76053368D01*
X113026632Y-75846525D01*
X112783411Y-75684010D01*
X112513158Y-75572068D01*
X112226260Y-75515000D01*
X111933740Y-75515000D01*
X111646842Y-75572068D01*
X111376589Y-75684010D01*
X111133368Y-75846525D01*
X110926525Y-76053368D01*
X110764010Y-76296589D01*
X110652068Y-76566842D01*
X110595000Y-76853740D01*
X109635000Y-76853740D01*
X109635000Y-76740475D01*
X109533739Y-76231399D01*
X109335107Y-75751859D01*
X109046738Y-75320285D01*
X108679715Y-74953262D01*
X108248141Y-74664893D01*
X107768601Y-74466261D01*
X107259525Y-74365000D01*
X106740475Y-74365000D01*
X106231399Y-74466261D01*
X105751859Y-74664893D01*
X105320285Y-74953262D01*
X104953262Y-75320285D01*
X104664893Y-75751859D01*
X104466261Y-76231399D01*
X104365000Y-76740475D01*
X103382471Y-76740475D01*
X103347932Y-76566842D01*
X103235990Y-76296589D01*
X103168110Y-76195000D01*
X103360883Y-76195000D01*
X103696081Y-76128325D01*
X104011831Y-75997537D01*
X104295998Y-75807663D01*
X104537663Y-75565998D01*
X104727537Y-75281831D01*
X104858325Y-74966081D01*
X104925000Y-74630883D01*
X104925000Y-74289117D01*
X104858325Y-73953919D01*
X104727537Y-73638169D01*
X104537663Y-73354002D01*
X104310373Y-73126712D01*
X108512893Y-73126712D01*
X108620726Y-73401338D01*
X108927384Y-73552216D01*
X109257585Y-73640369D01*
X109598639Y-73662409D01*
X109937439Y-73617489D01*
X110260966Y-73507336D01*
X110459274Y-73401338D01*
X110567107Y-73126712D01*
X109540000Y-72099605D01*
X108512893Y-73126712D01*
X104310373Y-73126712D01*
X104295998Y-73112337D01*
X104011831Y-72922463D01*
X103696081Y-72791675D01*
X103360883Y-72725000D01*
X103019117Y-72725000D01*
X102683919Y-72791675D01*
X102368169Y-72922463D01*
X102084002Y-73112337D01*
X101842337Y-73354002D01*
X101652463Y-73638169D01*
X101521675Y-73953919D01*
X101455000Y-74289117D01*
X101455000Y-74630883D01*
X101521675Y-74966081D01*
X101652463Y-75281831D01*
X101808261Y-75515000D01*
X101773740Y-75515000D01*
X101486842Y-75572068D01*
X101216589Y-75684010D01*
X100973368Y-75846525D01*
X100766525Y-76053368D01*
X100604010Y-76296589D01*
X100492068Y-76566842D01*
X100435000Y-76853740D01*
X93166500Y-76853740D01*
X93166500Y-74595801D01*
X93418136Y-74344165D01*
X96736000Y-74344165D01*
X96736000Y-74626835D01*
X96791147Y-74904074D01*
X96899320Y-75165227D01*
X97056363Y-75400259D01*
X97256241Y-75600137D01*
X97491273Y-75757180D01*
X97752426Y-75865353D01*
X98029665Y-75920500D01*
X98312335Y-75920500D01*
X98589574Y-75865353D01*
X98850727Y-75757180D01*
X99085759Y-75600137D01*
X99285637Y-75400259D01*
X99442680Y-75165227D01*
X99550853Y-74904074D01*
X99606000Y-74626835D01*
X99606000Y-74344165D01*
X99550853Y-74066926D01*
X99442680Y-73805773D01*
X99285637Y-73570741D01*
X99085759Y-73370863D01*
X98850727Y-73213820D01*
X98589574Y-73105647D01*
X98312335Y-73050500D01*
X98029665Y-73050500D01*
X97752426Y-73105647D01*
X97491273Y-73213820D01*
X97256241Y-73370863D01*
X97056363Y-73570741D01*
X96899320Y-73805773D01*
X96791147Y-74066926D01*
X96736000Y-74344165D01*
X93418136Y-74344165D01*
X95783662Y-71978639D01*
X107797591Y-71978639D01*
X107842511Y-72317439D01*
X107952664Y-72640966D01*
X108058662Y-72839274D01*
X108333288Y-72947107D01*
X109360395Y-71920000D01*
X109719605Y-71920000D01*
X110746712Y-72947107D01*
X111021338Y-72839274D01*
X111172216Y-72532616D01*
X111260369Y-72202415D01*
X111282409Y-71861361D01*
X111237489Y-71522561D01*
X111127336Y-71199034D01*
X111021338Y-71000726D01*
X110746712Y-70892893D01*
X109719605Y-71920000D01*
X109360395Y-71920000D01*
X108333288Y-70892893D01*
X108058662Y-71000726D01*
X107907784Y-71307384D01*
X107819631Y-71637585D01*
X107797591Y-71978639D01*
X95783662Y-71978639D01*
X97049013Y-70713288D01*
X108512893Y-70713288D01*
X109540000Y-71740395D01*
X110567107Y-70713288D01*
X110459274Y-70438662D01*
X110152616Y-70287784D01*
X109822415Y-70199631D01*
X109481361Y-70177591D01*
X109142561Y-70222511D01*
X108819034Y-70332664D01*
X108620726Y-70438662D01*
X108512893Y-70713288D01*
X97049013Y-70713288D01*
X102613302Y-65149000D01*
X102707366Y-65149000D01*
X102687188Y-65215518D01*
X102674928Y-65340000D01*
X102674928Y-66740000D01*
X102687188Y-66864482D01*
X102723498Y-66984180D01*
X102782463Y-67094494D01*
X102861815Y-67191185D01*
X102958506Y-67270537D01*
X103068820Y-67329502D01*
X103188518Y-67365812D01*
X103313000Y-67378072D01*
X104713000Y-67378072D01*
X104837482Y-67365812D01*
X104957180Y-67329502D01*
X105067494Y-67270537D01*
X105164185Y-67191185D01*
X105243537Y-67094494D01*
X105302502Y-66984180D01*
X105338812Y-66864482D01*
X105351072Y-66740000D01*
X105351072Y-66703987D01*
X105476038Y-66891013D01*
X105661987Y-67076962D01*
X105880641Y-67223061D01*
X106123595Y-67323696D01*
X106381514Y-67375000D01*
X106644486Y-67375000D01*
X106751843Y-67353645D01*
X106974202Y-67576004D01*
X106998000Y-67605002D01*
X107113725Y-67699975D01*
X107245754Y-67770547D01*
X107389015Y-67814004D01*
X107500668Y-67825001D01*
X107500677Y-67825001D01*
X107538000Y-67828677D01*
X107575323Y-67825001D01*
X117428677Y-67825001D01*
X117465999Y-67828677D01*
X117503321Y-67825001D01*
X117503332Y-67825001D01*
X117614985Y-67814004D01*
X117758246Y-67770547D01*
X117890275Y-67699975D01*
X118006000Y-67605002D01*
X118029803Y-67575998D01*
X120630106Y-64975695D01*
X141146520Y-64975695D01*
X141215822Y-65727938D01*
X141430548Y-66452208D01*
X141782445Y-67120670D01*
X141809452Y-67161088D01*
X142299119Y-67521276D01*
X144820395Y-65000000D01*
X142299119Y-62478724D01*
X141809452Y-62838912D01*
X141449151Y-63502882D01*
X141225306Y-64224385D01*
X141146520Y-64975695D01*
X120630106Y-64975695D01*
X120885945Y-64719857D01*
X121035875Y-64749680D01*
X121407125Y-64749680D01*
X121771241Y-64677253D01*
X122114231Y-64535182D01*
X122422913Y-64328926D01*
X122685426Y-64066413D01*
X122891682Y-63757731D01*
X123033753Y-63414741D01*
X123106180Y-63050625D01*
X123106180Y-62679375D01*
X123033753Y-62315259D01*
X122891682Y-61972269D01*
X122685426Y-61663587D01*
X122422913Y-61401074D01*
X122114231Y-61194818D01*
X121771241Y-61052747D01*
X121407125Y-60980320D01*
X121035875Y-60980320D01*
X120671759Y-61052747D01*
X120328769Y-61194818D01*
X120020087Y-61401074D01*
X119757574Y-61663587D01*
X119551318Y-61972269D01*
X119409247Y-62315259D01*
X119336820Y-62679375D01*
X119336820Y-63050625D01*
X119409247Y-63414741D01*
X119551318Y-63757731D01*
X119610258Y-63845940D01*
X119294634Y-64161564D01*
X119299252Y-64114680D01*
X119296180Y-63150750D01*
X119137430Y-62992000D01*
X117538500Y-62992000D01*
X117538500Y-64590930D01*
X117697250Y-64749680D01*
X118661180Y-64752752D01*
X118708064Y-64748134D01*
X117151198Y-66305001D01*
X110321442Y-66305001D01*
X110348000Y-66171486D01*
X110348000Y-65908514D01*
X110296696Y-65650595D01*
X110196061Y-65407641D01*
X110049962Y-65188987D01*
X109864013Y-65003038D01*
X109645359Y-64856939D01*
X109402405Y-64756304D01*
X109144486Y-64705000D01*
X108881514Y-64705000D01*
X108623595Y-64756304D01*
X108380641Y-64856939D01*
X108161987Y-65003038D01*
X107976038Y-65188987D01*
X107829939Y-65407641D01*
X107763000Y-65569246D01*
X107696061Y-65407641D01*
X107549962Y-65188987D01*
X107364013Y-65003038D01*
X107145359Y-64856939D01*
X106902405Y-64756304D01*
X106644486Y-64705000D01*
X106381514Y-64705000D01*
X106123595Y-64756304D01*
X105880641Y-64856939D01*
X105661987Y-65003038D01*
X105476038Y-65188987D01*
X105351072Y-65376013D01*
X105351072Y-65340000D01*
X105338812Y-65215518D01*
X105302502Y-65095820D01*
X105269472Y-65034025D01*
X105288276Y-65023974D01*
X105404001Y-64929001D01*
X105427804Y-64899997D01*
X106213121Y-64114680D01*
X115523748Y-64114680D01*
X115536008Y-64239162D01*
X115572318Y-64358860D01*
X115631283Y-64469174D01*
X115710635Y-64565865D01*
X115807326Y-64645217D01*
X115917640Y-64704182D01*
X116037338Y-64740492D01*
X116161820Y-64752752D01*
X117125750Y-64749680D01*
X117284500Y-64590930D01*
X117284500Y-62992000D01*
X115685570Y-62992000D01*
X115526820Y-63150750D01*
X115523748Y-64114680D01*
X106213121Y-64114680D01*
X106274157Y-64053645D01*
X106381514Y-64075000D01*
X106644486Y-64075000D01*
X106902405Y-64023696D01*
X107145359Y-63923061D01*
X107364013Y-63776962D01*
X107549962Y-63591013D01*
X107696061Y-63372359D01*
X107763000Y-63210754D01*
X107829939Y-63372359D01*
X107976038Y-63591013D01*
X108161987Y-63776962D01*
X108380641Y-63923061D01*
X108623595Y-64023696D01*
X108881514Y-64075000D01*
X109144486Y-64075000D01*
X109402405Y-64023696D01*
X109645359Y-63923061D01*
X109864013Y-63776962D01*
X110049962Y-63591013D01*
X110196061Y-63372359D01*
X110296696Y-63129405D01*
X110348000Y-62871486D01*
X110348000Y-62608514D01*
X110296696Y-62350595D01*
X110196061Y-62107641D01*
X110049962Y-61888987D01*
X109864013Y-61703038D01*
X109732733Y-61615320D01*
X115523748Y-61615320D01*
X115526820Y-62579250D01*
X115685570Y-62738000D01*
X117284500Y-62738000D01*
X117284500Y-61139070D01*
X117538500Y-61139070D01*
X117538500Y-62738000D01*
X119137430Y-62738000D01*
X119296180Y-62579250D01*
X119299252Y-61615320D01*
X119286992Y-61490838D01*
X119250682Y-61371140D01*
X119191717Y-61260826D01*
X119112365Y-61164135D01*
X119015674Y-61084783D01*
X118905360Y-61025818D01*
X118785662Y-60989508D01*
X118661180Y-60977248D01*
X117697250Y-60980320D01*
X117538500Y-61139070D01*
X117284500Y-61139070D01*
X117125750Y-60980320D01*
X116161820Y-60977248D01*
X116037338Y-60989508D01*
X115917640Y-61025818D01*
X115807326Y-61084783D01*
X115710635Y-61164135D01*
X115631283Y-61260826D01*
X115572318Y-61371140D01*
X115536008Y-61490838D01*
X115523748Y-61615320D01*
X109732733Y-61615320D01*
X109645359Y-61556939D01*
X109402405Y-61456304D01*
X109144486Y-61405000D01*
X108881514Y-61405000D01*
X108623595Y-61456304D01*
X108380641Y-61556939D01*
X108161987Y-61703038D01*
X107976038Y-61888987D01*
X107829939Y-62107641D01*
X107763000Y-62269246D01*
X107696061Y-62107641D01*
X107549962Y-61888987D01*
X107364013Y-61703038D01*
X107145359Y-61556939D01*
X106902405Y-61456304D01*
X106644486Y-61405000D01*
X106381514Y-61405000D01*
X106123595Y-61456304D01*
X105880641Y-61556939D01*
X105661987Y-61703038D01*
X105476038Y-61888987D01*
X105329939Y-62107641D01*
X105263000Y-62269246D01*
X105196061Y-62107641D01*
X105049962Y-61888987D01*
X104864013Y-61703038D01*
X104645359Y-61556939D01*
X104402405Y-61456304D01*
X104144486Y-61405000D01*
X103881514Y-61405000D01*
X103623595Y-61456304D01*
X103380641Y-61556939D01*
X103161987Y-61703038D01*
X102976038Y-61888987D01*
X102829939Y-62107641D01*
X102729304Y-62350595D01*
X102678000Y-62608514D01*
X102678000Y-62871486D01*
X102729304Y-63129405D01*
X102829939Y-63372359D01*
X102976038Y-63591013D01*
X103014025Y-63629000D01*
X102335833Y-63629000D01*
X102298500Y-63625323D01*
X102261167Y-63629000D01*
X102149514Y-63639997D01*
X102006253Y-63683454D01*
X101874224Y-63754026D01*
X101758499Y-63848999D01*
X101734701Y-63877997D01*
X91895498Y-73717201D01*
X91866500Y-73740999D01*
X91842702Y-73769997D01*
X91842701Y-73769998D01*
X91771526Y-73856724D01*
X91700954Y-73988754D01*
X91657498Y-74132015D01*
X91642824Y-74281000D01*
X91646501Y-74318333D01*
X91646500Y-104262159D01*
X91515965Y-104349380D01*
X91321380Y-104543965D01*
X91168495Y-104772773D01*
X91063186Y-105027010D01*
X91009500Y-105296908D01*
X90660000Y-105296908D01*
X90660000Y-67700881D01*
X92478724Y-67700881D01*
X92838912Y-68190548D01*
X93502882Y-68550849D01*
X94224385Y-68774694D01*
X94975695Y-68853480D01*
X95727938Y-68784178D01*
X96452208Y-68569452D01*
X97120670Y-68217555D01*
X97161088Y-68190548D01*
X97521276Y-67700881D01*
X95000000Y-65179605D01*
X92478724Y-67700881D01*
X90660000Y-67700881D01*
X90660000Y-67024488D01*
X90731439Y-66063158D01*
X90938769Y-65146894D01*
X91198646Y-64478621D01*
X91146520Y-64975695D01*
X91215822Y-65727938D01*
X91430548Y-66452208D01*
X91782445Y-67120670D01*
X91809452Y-67161088D01*
X92299119Y-67521276D01*
X94820395Y-65000000D01*
X95179605Y-65000000D01*
X97700881Y-67521276D01*
X98190548Y-67161088D01*
X98550849Y-66497118D01*
X98774694Y-65775615D01*
X98853480Y-65024305D01*
X98784178Y-64272062D01*
X98569452Y-63547792D01*
X98217555Y-62879330D01*
X98190548Y-62838912D01*
X97700881Y-62478724D01*
X95179605Y-65000000D01*
X94820395Y-65000000D01*
X94806253Y-64985858D01*
X94985858Y-64806253D01*
X95000000Y-64820395D01*
X97521276Y-62299119D01*
X97161088Y-61809452D01*
X96497118Y-61449151D01*
X95775615Y-61225306D01*
X95024305Y-61146520D01*
X94476299Y-61197006D01*
X94625677Y-61123341D01*
X95520376Y-60836946D01*
X96457579Y-60684311D01*
X97014404Y-60660000D01*
X142975512Y-60660000D01*
X143936842Y-60731439D01*
%TD*%
M02*
